<?xml version="1.0" encoding="UTF-8"?>
<svg xmlns="http://www.w3.org/2000/svg" xmlns:xlink="http://www.w3.org/1999/xlink" width="756pt" height="467pt" viewBox="0 0 756 467" version="1.1">
<g id="surface106">
<rect x="0" y="0" width="756" height="467" style="fill:rgb(100%,100%,100%);fill-opacity:1;stroke:none;"/>
<path style="fill:none;stroke-width:3.200935;stroke-linecap:butt;stroke-linejoin:round;stroke:rgb(18.039216%,54.509804%,34.117647%);stroke-opacity:0.8;stroke-miterlimit:10;" d="M 23.234375 356.164062 L 30.28125 368.34375 L 37.332031 353.878906 L 44.382812 268.585938 L 51.429688 373.683594 L 58.480469 334.085938 L 65.527344 237.96875 L 72.578125 321.933594 L 79.628906 354.570312 L 86.675781 362.804688 L 93.726562 442.355469 L 100.773438 401.519531 L 107.824219 339.183594 L 114.875 371.226562 L 121.921875 281.269531 L 128.972656 241.195312 L 136.019531 347.582031 L 143.070312 285.554688 L 150.121094 286.792969 L 157.167969 454.203125 L 164.21875 391.589844 L 171.265625 420.511719 L 178.316406 414.132812 L 185.367188 274.65625 L 192.414062 456.902344 L 199.464844 398.1875 L 206.511719 261.308594 L 213.5625 285.785156 L 220.613281 342.503906 L 227.660156 331.835938 L 234.710938 358.382812 L 241.757812 334.578125 L 248.808594 300.363281 L 255.859375 321.355469 L 262.90625 287.078125 L 269.957031 223.558594 L 277.003906 331.996094 L 284.054688 261.917969 L 291.105469 251.324219 L 298.152344 223.382812 L 305.203125 156.214844 L 312.25 177.480469 L 319.300781 157.109375 L 326.351562 261.5 L 333.398438 224.808594 L 340.449219 296.480469 L 347.496094 294.722656 L 354.546875 438.867188 L 361.597656 284.894531 L 368.644531 325.539062 L 375.695312 257.109375 L 382.742188 222.796875 L 389.792969 310.992188 L 396.84375 260.21875 L 403.890625 142.511719 L 410.941406 326.910156 L 417.988281 335.675781 L 425.039062 356.285156 L 432.089844 242.347656 L 439.136719 406.796875 L 446.1875 358.996094 L 453.234375 245.574219 L 460.285156 211.203125 L 467.335938 239.21875 L 474.382812 77.535156 L 481.433594 195.167969 L 488.480469 179.230469 L 495.53125 50.898438 L 502.582031 139.316406 L 509.628906 186.5 L 516.679688 87.445312 L 523.726562 251.925781 L 530.777344 193.84375 L 537.828125 212.6875 L 544.875 92.074219 L 551.925781 156.984375 L 558.972656 121.152344 L 566.023438 177.179688 L 573.074219 117.511719 L 580.121094 199.296875 L 587.171875 91.074219 L 594.21875 239.464844 L 601.269531 314.980469 L 608.320312 327.140625 L 615.367188 254.613281 L 622.417969 227.578125 L 629.464844 214.992188 L 636.515625 229.980469 L 643.566406 201.628906 L 650.613281 171.269531 L 657.664062 58.15625 L 664.710938 21.757812 L 671.761719 118.683594 L 678.8125 146.96875 L 685.859375 208.929688 L 692.910156 60.449219 L 699.957031 96.074219 L 707.007812 151.546875 L 714.058594 107.105469 L 721.105469 164.761719 "/>
<path style="fill:none;stroke-width:2.133957;stroke-linecap:butt;stroke-linejoin:round;stroke:rgb(94.117647%,50.196078%,50.196078%);stroke-opacity:1;stroke-miterlimit:10;" d="M 37.332031 344.132812 L 44.382812 339.714844 L 51.429688 313.640625 L 58.480469 307.25 L 65.527344 324.449219 L 72.578125 322.273438 L 79.628906 343.925781 L 86.675781 376.636719 L 93.726562 380.085938 L 100.773438 383.417969 L 107.824219 367.109375 L 114.875 326.878906 L 121.921875 316.089844 L 128.972656 305.367188 L 136.019531 288.480469 L 143.070312 323.066406 L 150.121094 353.144531 L 157.167969 367.730469 L 164.21875 393.445312 L 171.265625 391.019531 L 178.316406 391.558594 L 185.367188 392.878906 L 192.414062 361.039062 L 199.464844 335.367188 L 206.511719 348.9375 L 213.5625 323.925781 L 220.613281 315.960938 L 227.660156 330.617188 L 234.710938 333.53125 L 241.757812 329.304688 L 248.808594 320.351562 L 255.859375 293.386719 L 262.90625 292.871094 L 269.957031 285.183594 L 277.003906 271.175781 L 284.054688 258.4375 L 291.105469 244.96875 L 298.152344 214.066406 L 305.203125 193.101562 L 312.25 195.136719 L 319.300781 195.421875 L 326.351562 223.476562 L 333.398438 246.921875 L 340.449219 303.273438 L 347.496094 307.953125 L 354.546875 328.101562 L 361.597656 320.226562 L 368.644531 305.839844 L 375.695312 280.265625 L 382.742188 275.332031 L 389.792969 238.726562 L 396.84375 252.6875 L 403.890625 275.261719 L 410.941406 284.320312 L 417.988281 280.746094 L 425.039062 333.601562 L 432.089844 340.019531 L 439.136719 322 L 446.1875 292.984375 L 453.234375 292.359375 L 460.285156 226.507812 L 467.335938 193.738281 L 474.382812 180.472656 L 481.433594 148.410156 L 488.480469 128.429688 L 495.53125 150.222656 L 502.582031 128.679688 L 509.628906 143.21875 L 516.679688 171.804688 L 523.726562 186.480469 L 530.777344 167.59375 L 537.828125 181.503906 L 544.875 155.347656 L 551.925781 152.015625 L 558.972656 132.980469 L 566.023438 154.425781 L 573.074219 141.242188 L 580.121094 164.90625 L 587.171875 192.464844 L 594.21875 234.390625 L 601.269531 245.457031 L 608.320312 272.757812 L 615.367188 267.859375 L 622.417969 250.859375 L 629.464844 225.757812 L 636.515625 209.089844 L 643.566406 175.207031 L 650.613281 136.558594 L 657.664062 114.300781 L 664.710938 103.367188 L 671.761719 110.898438 L 678.8125 111.359375 L 685.859375 126.222656 L 692.910156 132.792969 L 699.957031 124.820312 L 707.007812 115.988281 "/>
</g>
</svg>
