<?xml version="1.0" encoding="UTF-8"?>
<svg xmlns="http://www.w3.org/2000/svg" xmlns:xlink="http://www.w3.org/1999/xlink" width="576pt" height="355pt" viewBox="0 0 576 355" version="1.1">
<g id="surface91">
<rect x="0" y="0" width="576" height="355" style="fill:rgb(100%,100%,100%);fill-opacity:1;stroke:none;"/>
<path style="fill:none;stroke-width:3.200935;stroke-linecap:butt;stroke-linejoin:round;stroke:rgb(18.039216%,54.509804%,34.117647%);stroke-opacity:1;stroke-miterlimit:10;" d="M 15.050781 272.828125 L 20.449219 282.15625 L 25.84375 271.078125 L 31.242188 205.738281 L 36.636719 286.246094 L 42.035156 255.914062 L 47.429688 182.285156 L 52.824219 246.605469 L 58.222656 271.605469 L 63.617188 277.914062 L 69.015625 338.851562 L 74.410156 307.570312 L 79.808594 259.820312 L 85.203125 284.363281 L 90.601562 215.457031 L 95.996094 184.757812 L 101.394531 266.253906 L 106.789062 218.738281 L 112.183594 219.6875 L 117.582031 347.925781 L 122.976562 299.964844 L 128.375 322.117188 L 133.769531 317.230469 L 139.167969 210.390625 L 144.5625 349.992188 L 149.960938 305.019531 L 155.355469 200.164062 L 160.753906 218.917969 L 166.148438 262.363281 L 171.546875 254.191406 L 176.941406 274.527344 L 182.335938 256.292969 L 187.734375 230.082031 L 193.128906 246.164062 L 198.527344 219.90625 L 203.921875 171.25 L 209.320312 254.3125 L 214.714844 200.632812 L 220.113281 192.519531 L 225.507812 171.113281 L 230.90625 119.664062 L 236.300781 135.953125 L 241.699219 120.347656 L 247.09375 200.3125 L 252.488281 172.207031 L 257.886719 227.109375 L 263.28125 225.761719 L 268.679688 336.179688 L 274.074219 218.230469 L 279.472656 249.367188 L 284.867188 196.949219 L 290.265625 170.667969 L 295.660156 238.226562 L 301.058594 199.328125 L 306.453125 109.164062 L 311.851562 250.417969 L 317.246094 257.132812 L 322.640625 272.917969 L 328.039062 185.640625 L 333.433594 311.609375 L 338.832031 274.996094 L 344.226562 188.113281 L 349.625 161.785156 L 355.019531 183.246094 L 360.417969 59.394531 L 365.8125 149.5 L 371.210938 137.292969 L 376.605469 38.988281 L 382.003906 106.71875 L 387.398438 142.859375 L 392.792969 66.984375 L 398.191406 192.980469 L 403.585938 148.484375 L 408.984375 162.921875 L 414.378906 70.53125 L 419.777344 120.25 L 425.171875 92.804688 L 430.570312 135.722656 L 435.964844 90.015625 L 441.363281 152.664062 L 446.757812 69.765625 L 452.152344 183.433594 L 457.550781 241.28125 L 462.945312 250.59375 L 468.34375 195.039062 L 473.738281 174.328125 L 479.136719 164.6875 L 484.53125 176.167969 L 489.929688 154.453125 L 495.324219 131.195312 L 500.722656 44.546875 L 506.117188 16.667969 L 511.515625 90.914062 L 516.910156 112.582031 L 522.304688 160.042969 L 527.703125 46.304688 L 533.097656 73.59375 L 538.496094 116.085938 L 543.890625 82.046875 L 549.289062 126.210938 "/>
</g>
</svg>
