<?xml version="1.0" encoding="UTF-8"?>
<svg xmlns="http://www.w3.org/2000/svg" xmlns:xlink="http://www.w3.org/1999/xlink" width="756pt" height="504pt" viewBox="0 0 756 504" version="1.1">
<g id="surface19">
<rect x="0" y="0" width="756" height="504" style="fill:rgb(100%,100%,100%);fill-opacity:1;stroke:none;"/>
<path style="fill-rule:nonzero;fill:rgb(18.431373%,30.980392%,30.980392%);fill-opacity:1;stroke-width:0.708661;stroke-linecap:round;stroke-linejoin:round;stroke:rgb(18.431373%,30.980392%,30.980392%);stroke-opacity:1;stroke-miterlimit:10;" d="M 29.988281 365.230469 C 29.988281 368.964844 26.964844 371.988281 23.234375 371.988281 C 19.503906 371.988281 16.476562 368.964844 16.476562 365.230469 C 16.476562 361.5 19.503906 358.476562 23.234375 358.476562 C 26.964844 358.476562 29.988281 361.5 29.988281 365.230469 "/>
<path style="fill-rule:nonzero;fill:rgb(18.431373%,30.980392%,30.980392%);fill-opacity:1;stroke-width:0.708661;stroke-linecap:round;stroke-linejoin:round;stroke:rgb(18.431373%,30.980392%,30.980392%);stroke-opacity:1;stroke-miterlimit:10;" d="M 37.039062 276.023438 C 37.039062 279.753906 34.015625 282.78125 30.28125 282.78125 C 26.550781 282.78125 23.527344 279.753906 23.527344 276.023438 C 23.527344 272.292969 26.550781 269.269531 30.28125 269.269531 C 34.015625 269.269531 37.039062 272.292969 37.039062 276.023438 "/>
<path style="fill-rule:nonzero;fill:rgb(18.431373%,30.980392%,30.980392%);fill-opacity:1;stroke-width:0.708661;stroke-linecap:round;stroke-linejoin:round;stroke:rgb(18.431373%,30.980392%,30.980392%);stroke-opacity:1;stroke-miterlimit:10;" d="M 44.089844 303.753906 C 44.089844 307.484375 41.0625 310.511719 37.332031 310.511719 C 33.601562 310.511719 30.574219 307.484375 30.574219 303.753906 C 30.574219 300.023438 33.601562 297 37.332031 297 C 41.0625 297 44.089844 300.023438 44.089844 303.753906 "/>
<path style="fill-rule:nonzero;fill:rgb(18.431373%,30.980392%,30.980392%);fill-opacity:1;stroke-width:0.708661;stroke-linecap:round;stroke-linejoin:round;stroke:rgb(18.431373%,30.980392%,30.980392%);stroke-opacity:1;stroke-miterlimit:10;" d="M 51.136719 332.441406 C 51.136719 336.171875 48.113281 339.195312 44.382812 339.195312 C 40.648438 339.195312 37.625 336.171875 37.625 332.441406 C 37.625 328.707031 40.648438 325.683594 44.382812 325.683594 C 48.113281 325.683594 51.136719 328.707031 51.136719 332.441406 "/>
<path style="fill-rule:nonzero;fill:rgb(18.431373%,30.980392%,30.980392%);fill-opacity:1;stroke-width:0.708661;stroke-linecap:round;stroke-linejoin:round;stroke:rgb(18.431373%,30.980392%,30.980392%);stroke-opacity:1;stroke-miterlimit:10;" d="M 58.1875 370.085938 C 58.1875 373.816406 55.160156 376.84375 51.429688 376.84375 C 47.699219 376.84375 44.675781 373.816406 44.675781 370.085938 C 44.675781 366.355469 47.699219 363.328125 51.429688 363.328125 C 55.160156 363.328125 58.1875 366.355469 58.1875 370.085938 "/>
<path style="fill-rule:nonzero;fill:rgb(18.431373%,30.980392%,30.980392%);fill-opacity:1;stroke-width:0.708661;stroke-linecap:round;stroke-linejoin:round;stroke:rgb(18.431373%,30.980392%,30.980392%);stroke-opacity:1;stroke-miterlimit:10;" d="M 65.234375 285.871094 C 65.234375 289.601562 62.210938 292.625 58.480469 292.625 C 54.75 292.625 51.722656 289.601562 51.722656 285.871094 C 51.722656 282.136719 54.75 279.113281 58.480469 279.113281 C 62.210938 279.113281 65.234375 282.136719 65.234375 285.871094 "/>
<path style="fill-rule:nonzero;fill:rgb(18.431373%,30.980392%,30.980392%);fill-opacity:1;stroke-width:0.708661;stroke-linecap:round;stroke-linejoin:round;stroke:rgb(18.431373%,30.980392%,30.980392%);stroke-opacity:1;stroke-miterlimit:10;" d="M 72.285156 367.804688 C 72.285156 371.535156 69.261719 374.558594 65.527344 374.558594 C 61.796875 374.558594 58.773438 371.535156 58.773438 367.804688 C 58.773438 364.070312 61.796875 361.046875 65.527344 361.046875 C 69.261719 361.046875 72.285156 364.070312 72.285156 367.804688 "/>
<path style="fill-rule:nonzero;fill:rgb(18.431373%,30.980392%,30.980392%);fill-opacity:1;stroke-width:0.708661;stroke-linecap:round;stroke-linejoin:round;stroke:rgb(18.431373%,30.980392%,30.980392%);stroke-opacity:1;stroke-miterlimit:10;" d="M 79.335938 275.160156 C 79.335938 278.894531 76.308594 281.917969 72.578125 281.917969 C 68.847656 281.917969 65.820312 278.894531 65.820312 275.160156 C 65.820312 271.429688 68.847656 268.40625 72.578125 268.40625 C 76.308594 268.40625 79.335938 271.429688 79.335938 275.160156 "/>
<path style="fill-rule:nonzero;fill:rgb(18.431373%,30.980392%,30.980392%);fill-opacity:1;stroke-width:0.708661;stroke-linecap:round;stroke-linejoin:round;stroke:rgb(18.431373%,30.980392%,30.980392%);stroke-opacity:1;stroke-miterlimit:10;" d="M 86.382812 342.535156 C 86.382812 346.265625 83.359375 349.289062 79.628906 349.289062 C 75.894531 349.289062 72.871094 346.265625 72.871094 342.535156 C 72.871094 338.804688 75.894531 335.777344 79.628906 335.777344 C 83.359375 335.777344 86.382812 338.804688 86.382812 342.535156 "/>
<path style="fill-rule:nonzero;fill:rgb(18.431373%,30.980392%,30.980392%);fill-opacity:1;stroke-width:0.708661;stroke-linecap:round;stroke-linejoin:round;stroke:rgb(18.431373%,30.980392%,30.980392%);stroke-opacity:1;stroke-miterlimit:10;" d="M 93.433594 492.222656 C 93.433594 495.953125 90.40625 498.976562 86.675781 498.976562 C 82.945312 498.976562 79.921875 495.953125 79.921875 492.222656 C 79.921875 488.488281 82.945312 485.464844 86.675781 485.464844 C 90.40625 485.464844 93.433594 488.488281 93.433594 492.222656 "/>
<path style="fill-rule:nonzero;fill:rgb(18.431373%,30.980392%,30.980392%);fill-opacity:1;stroke-width:0.708661;stroke-linecap:round;stroke-linejoin:round;stroke:rgb(18.431373%,30.980392%,30.980392%);stroke-opacity:1;stroke-miterlimit:10;" d="M 100.480469 393.199219 C 100.480469 396.929688 97.457031 399.953125 93.726562 399.953125 C 89.996094 399.953125 86.96875 396.929688 86.96875 393.199219 C 86.96875 389.46875 89.996094 386.441406 93.726562 386.441406 C 97.457031 386.441406 100.480469 389.46875 100.480469 393.199219 "/>
<path style="fill-rule:nonzero;fill:rgb(18.431373%,30.980392%,30.980392%);fill-opacity:1;stroke-width:0.708661;stroke-linecap:round;stroke-linejoin:round;stroke:rgb(18.431373%,30.980392%,30.980392%);stroke-opacity:1;stroke-miterlimit:10;" d="M 107.53125 322.046875 C 107.53125 325.777344 104.507812 328.800781 100.773438 328.800781 C 97.042969 328.800781 94.019531 325.777344 94.019531 322.046875 C 94.019531 318.3125 97.042969 315.289062 100.773438 315.289062 C 104.507812 315.289062 107.53125 318.3125 107.53125 322.046875 "/>
<path style="fill-rule:nonzero;fill:rgb(18.431373%,30.980392%,30.980392%);fill-opacity:1;stroke-width:0.708661;stroke-linecap:round;stroke-linejoin:round;stroke:rgb(18.431373%,30.980392%,30.980392%);stroke-opacity:1;stroke-miterlimit:10;" d="M 114.582031 251.480469 C 114.582031 255.214844 111.554688 258.238281 107.824219 258.238281 C 104.09375 258.238281 101.066406 255.214844 101.066406 251.480469 C 101.066406 247.75 104.09375 244.726562 107.824219 244.726562 C 111.554688 244.726562 114.582031 247.75 114.582031 251.480469 "/>
<path style="fill-rule:nonzero;fill:rgb(18.431373%,30.980392%,30.980392%);fill-opacity:1;stroke-width:0.708661;stroke-linecap:round;stroke-linejoin:round;stroke:rgb(18.431373%,30.980392%,30.980392%);stroke-opacity:1;stroke-miterlimit:10;" d="M 121.628906 182.773438 C 121.628906 186.503906 118.605469 189.53125 114.875 189.53125 C 111.140625 189.53125 108.117188 186.503906 108.117188 182.773438 C 108.117188 179.042969 111.140625 176.015625 114.875 176.015625 C 118.605469 176.015625 121.628906 179.042969 121.628906 182.773438 "/>
<path style="fill-rule:nonzero;fill:rgb(18.431373%,30.980392%,30.980392%);fill-opacity:1;stroke-width:0.708661;stroke-linecap:round;stroke-linejoin:round;stroke:rgb(18.431373%,30.980392%,30.980392%);stroke-opacity:1;stroke-miterlimit:10;" d="M 128.679688 213.171875 C 128.679688 216.902344 125.652344 219.925781 121.921875 219.925781 C 118.191406 219.925781 115.167969 216.902344 115.167969 213.171875 C 115.167969 209.4375 118.191406 206.414062 121.921875 206.414062 C 125.652344 206.414062 128.679688 209.4375 128.679688 213.171875 "/>
<path style="fill-rule:nonzero;fill:rgb(18.431373%,30.980392%,30.980392%);fill-opacity:1;stroke-width:0.708661;stroke-linecap:round;stroke-linejoin:round;stroke:rgb(18.431373%,30.980392%,30.980392%);stroke-opacity:1;stroke-miterlimit:10;" d="M 135.726562 375.953125 C 135.726562 379.683594 132.703125 382.707031 128.972656 382.707031 C 125.242188 382.707031 122.214844 379.683594 122.214844 375.953125 C 122.214844 372.21875 125.242188 369.195312 128.972656 369.195312 C 132.703125 369.195312 135.726562 372.21875 135.726562 375.953125 "/>
<path style="fill-rule:nonzero;fill:rgb(18.431373%,30.980392%,30.980392%);fill-opacity:1;stroke-width:0.708661;stroke-linecap:round;stroke-linejoin:round;stroke:rgb(18.431373%,30.980392%,30.980392%);stroke-opacity:1;stroke-miterlimit:10;" d="M 142.777344 284.121094 C 142.777344 287.851562 139.753906 290.878906 136.019531 290.878906 C 132.289062 290.878906 129.265625 287.851562 129.265625 284.121094 C 129.265625 280.390625 132.289062 277.367188 136.019531 277.367188 C 139.753906 277.367188 142.777344 280.390625 142.777344 284.121094 "/>
<path style="fill-rule:nonzero;fill:rgb(18.431373%,30.980392%,30.980392%);fill-opacity:1;stroke-width:0.708661;stroke-linecap:round;stroke-linejoin:round;stroke:rgb(18.431373%,30.980392%,30.980392%);stroke-opacity:1;stroke-miterlimit:10;" d="M 149.828125 273.230469 C 149.828125 276.960938 146.800781 279.988281 143.070312 279.988281 C 139.339844 279.988281 136.3125 276.960938 136.3125 273.230469 C 136.3125 269.5 139.339844 266.476562 143.070312 266.476562 C 146.800781 266.476562 149.828125 269.5 149.828125 273.230469 "/>
<path style="fill-rule:nonzero;fill:rgb(18.431373%,30.980392%,30.980392%);fill-opacity:1;stroke-width:0.708661;stroke-linecap:round;stroke-linejoin:round;stroke:rgb(18.431373%,30.980392%,30.980392%);stroke-opacity:1;stroke-miterlimit:10;" d="M 156.875 257.949219 C 156.875 261.679688 153.851562 264.707031 150.121094 264.707031 C 146.386719 264.707031 143.363281 261.679688 143.363281 257.949219 C 143.363281 254.21875 146.386719 251.195312 150.121094 251.195312 C 153.851562 251.195312 156.875 254.21875 156.875 257.949219 "/>
<path style="fill-rule:nonzero;fill:rgb(18.431373%,30.980392%,30.980392%);fill-opacity:1;stroke-width:0.708661;stroke-linecap:round;stroke-linejoin:round;stroke:rgb(18.431373%,30.980392%,30.980392%);stroke-opacity:1;stroke-miterlimit:10;" d="M 163.925781 423.808594 C 163.925781 427.539062 160.898438 430.566406 157.167969 430.566406 C 153.4375 430.566406 150.414062 427.539062 150.414062 423.808594 C 150.414062 420.078125 153.4375 417.054688 157.167969 417.054688 C 160.898438 417.054688 163.925781 420.078125 163.925781 423.808594 "/>
<path style="fill-rule:nonzero;fill:rgb(18.431373%,30.980392%,30.980392%);fill-opacity:1;stroke-width:0.708661;stroke-linecap:round;stroke-linejoin:round;stroke:rgb(18.431373%,30.980392%,30.980392%);stroke-opacity:1;stroke-miterlimit:10;" d="M 170.972656 299.941406 C 170.972656 303.675781 167.949219 306.699219 164.21875 306.699219 C 160.488281 306.699219 157.460938 303.675781 157.460938 299.941406 C 157.460938 296.210938 160.488281 293.1875 164.21875 293.1875 C 167.949219 293.1875 170.972656 296.210938 170.972656 299.941406 "/>
<path style="fill-rule:nonzero;fill:rgb(18.431373%,30.980392%,30.980392%);fill-opacity:1;stroke-width:0.708661;stroke-linecap:round;stroke-linejoin:round;stroke:rgb(18.431373%,30.980392%,30.980392%);stroke-opacity:1;stroke-miterlimit:10;" d="M 178.023438 202.863281 C 178.023438 206.597656 175 209.621094 171.265625 209.621094 C 167.535156 209.621094 164.511719 206.597656 164.511719 202.863281 C 164.511719 199.132812 167.535156 196.109375 171.265625 196.109375 C 175 196.109375 178.023438 199.132812 178.023438 202.863281 "/>
<path style="fill-rule:nonzero;fill:rgb(18.431373%,30.980392%,30.980392%);fill-opacity:1;stroke-width:0.708661;stroke-linecap:round;stroke-linejoin:round;stroke:rgb(18.431373%,30.980392%,30.980392%);stroke-opacity:1;stroke-miterlimit:10;" d="M 185.074219 229.230469 C 185.074219 232.960938 182.046875 235.988281 178.316406 235.988281 C 174.585938 235.988281 171.558594 232.960938 171.558594 229.230469 C 171.558594 225.5 174.585938 222.476562 178.316406 222.476562 C 182.046875 222.476562 185.074219 225.5 185.074219 229.230469 "/>
<path style="fill-rule:nonzero;fill:rgb(18.431373%,30.980392%,30.980392%);fill-opacity:1;stroke-width:0.708661;stroke-linecap:round;stroke-linejoin:round;stroke:rgb(18.431373%,30.980392%,30.980392%);stroke-opacity:1;stroke-miterlimit:10;" d="M 192.121094 240.988281 C 192.121094 244.71875 189.097656 247.742188 185.367188 247.742188 C 181.632812 247.742188 178.609375 244.71875 178.609375 240.988281 C 178.609375 237.253906 181.632812 234.230469 185.367188 234.230469 C 189.097656 234.230469 192.121094 237.253906 192.121094 240.988281 "/>
<path style="fill-rule:nonzero;fill:rgb(18.431373%,30.980392%,30.980392%);fill-opacity:1;stroke-width:0.708661;stroke-linecap:round;stroke-linejoin:round;stroke:rgb(18.431373%,30.980392%,30.980392%);stroke-opacity:1;stroke-miterlimit:10;" d="M 199.171875 339.992188 C 199.171875 343.722656 196.144531 346.746094 192.414062 346.746094 C 188.683594 346.746094 185.660156 343.722656 185.660156 339.992188 C 185.660156 336.261719 188.683594 333.234375 192.414062 333.234375 C 196.144531 333.234375 199.171875 336.261719 199.171875 339.992188 "/>
<path style="fill-rule:nonzero;fill:rgb(18.431373%,30.980392%,30.980392%);fill-opacity:1;stroke-width:0.708661;stroke-linecap:round;stroke-linejoin:round;stroke:rgb(18.431373%,30.980392%,30.980392%);stroke-opacity:1;stroke-miterlimit:10;" d="M 206.21875 415.46875 C 206.21875 419.199219 203.195312 422.226562 199.464844 422.226562 C 195.734375 422.226562 192.707031 419.199219 192.707031 415.46875 C 192.707031 411.738281 195.734375 408.710938 199.464844 408.710938 C 203.195312 408.710938 206.21875 411.738281 206.21875 415.46875 "/>
<path style="fill-rule:nonzero;fill:rgb(18.431373%,30.980392%,30.980392%);fill-opacity:1;stroke-width:0.708661;stroke-linecap:round;stroke-linejoin:round;stroke:rgb(18.431373%,30.980392%,30.980392%);stroke-opacity:1;stroke-miterlimit:10;" d="M 213.269531 321.820312 C 213.269531 325.550781 210.246094 328.574219 206.511719 328.574219 C 202.78125 328.574219 199.757812 325.550781 199.757812 321.820312 C 199.757812 318.085938 202.78125 315.0625 206.511719 315.0625 C 210.246094 315.0625 213.269531 318.085938 213.269531 321.820312 "/>
<path style="fill-rule:nonzero;fill:rgb(18.431373%,30.980392%,30.980392%);fill-opacity:1;stroke-width:0.708661;stroke-linecap:round;stroke-linejoin:round;stroke:rgb(18.431373%,30.980392%,30.980392%);stroke-opacity:1;stroke-miterlimit:10;" d="M 220.320312 377.113281 C 220.320312 380.84375 217.292969 383.867188 213.5625 383.867188 C 209.832031 383.867188 206.804688 380.84375 206.804688 377.113281 C 206.804688 373.378906 209.832031 370.355469 213.5625 370.355469 C 217.292969 370.355469 220.320312 373.378906 220.320312 377.113281 "/>
<path style="fill-rule:nonzero;fill:rgb(18.431373%,30.980392%,30.980392%);fill-opacity:1;stroke-width:0.708661;stroke-linecap:round;stroke-linejoin:round;stroke:rgb(18.431373%,30.980392%,30.980392%);stroke-opacity:1;stroke-miterlimit:10;" d="M 227.367188 250.253906 C 227.367188 253.988281 224.34375 257.011719 220.613281 257.011719 C 216.878906 257.011719 213.855469 253.988281 213.855469 250.253906 C 213.855469 246.523438 216.878906 243.5 220.613281 243.5 C 224.34375 243.5 227.367188 246.523438 227.367188 250.253906 "/>
<path style="fill-rule:nonzero;fill:rgb(18.431373%,30.980392%,30.980392%);fill-opacity:1;stroke-width:0.708661;stroke-linecap:round;stroke-linejoin:round;stroke:rgb(18.431373%,30.980392%,30.980392%);stroke-opacity:1;stroke-miterlimit:10;" d="M 234.417969 365.878906 C 234.417969 369.609375 231.390625 372.636719 227.660156 372.636719 C 223.929688 372.636719 220.90625 369.609375 220.90625 365.878906 C 220.90625 362.148438 223.929688 359.121094 227.660156 359.121094 C 231.390625 359.121094 234.417969 362.148438 234.417969 365.878906 "/>
<path style="fill-rule:nonzero;fill:rgb(18.431373%,30.980392%,30.980392%);fill-opacity:1;stroke-width:0.708661;stroke-linecap:round;stroke-linejoin:round;stroke:rgb(18.431373%,30.980392%,30.980392%);stroke-opacity:1;stroke-miterlimit:10;" d="M 241.464844 285.925781 C 241.464844 289.65625 238.441406 292.683594 234.710938 292.683594 C 230.980469 292.683594 227.953125 289.65625 227.953125 285.925781 C 227.953125 282.195312 230.980469 279.171875 234.710938 279.171875 C 238.441406 279.171875 241.464844 282.195312 241.464844 285.925781 "/>
<path style="fill-rule:nonzero;fill:rgb(18.431373%,30.980392%,30.980392%);fill-opacity:1;stroke-width:0.708661;stroke-linecap:round;stroke-linejoin:round;stroke:rgb(18.431373%,30.980392%,30.980392%);stroke-opacity:1;stroke-miterlimit:10;" d="M 248.515625 289.785156 C 248.515625 293.519531 245.492188 296.542969 241.757812 296.542969 C 238.027344 296.542969 235.003906 293.519531 235.003906 289.785156 C 235.003906 286.054688 238.027344 283.03125 241.757812 283.03125 C 245.492188 283.03125 248.515625 286.054688 248.515625 289.785156 "/>
<path style="fill-rule:nonzero;fill:rgb(18.431373%,30.980392%,30.980392%);fill-opacity:1;stroke-width:0.708661;stroke-linecap:round;stroke-linejoin:round;stroke:rgb(18.431373%,30.980392%,30.980392%);stroke-opacity:1;stroke-miterlimit:10;" d="M 255.566406 269.667969 C 255.566406 273.402344 252.539062 276.425781 248.808594 276.425781 C 245.078125 276.425781 242.050781 273.402344 242.050781 269.667969 C 242.050781 265.9375 245.078125 262.914062 248.808594 262.914062 C 252.539062 262.914062 255.566406 265.9375 255.566406 269.667969 "/>
<path style="fill-rule:nonzero;fill:rgb(18.431373%,30.980392%,30.980392%);fill-opacity:1;stroke-width:0.708661;stroke-linecap:round;stroke-linejoin:round;stroke:rgb(18.431373%,30.980392%,30.980392%);stroke-opacity:1;stroke-miterlimit:10;" d="M 262.613281 402.453125 C 262.613281 406.183594 259.589844 409.207031 255.859375 409.207031 C 252.125 409.207031 249.101562 406.183594 249.101562 402.453125 C 249.101562 398.722656 252.125 395.695312 255.859375 395.695312 C 259.589844 395.695312 262.613281 398.722656 262.613281 402.453125 "/>
<path style="fill-rule:nonzero;fill:rgb(18.431373%,30.980392%,30.980392%);fill-opacity:1;stroke-width:0.708661;stroke-linecap:round;stroke-linejoin:round;stroke:rgb(18.431373%,30.980392%,30.980392%);stroke-opacity:1;stroke-miterlimit:10;" d="M 269.664062 221.210938 C 269.664062 224.945312 266.636719 227.96875 262.90625 227.96875 C 259.175781 227.96875 256.152344 224.945312 256.152344 221.210938 C 256.152344 217.480469 259.175781 214.457031 262.90625 214.457031 C 266.636719 214.457031 269.664062 217.480469 269.664062 221.210938 "/>
<path style="fill-rule:nonzero;fill:rgb(18.431373%,30.980392%,30.980392%);fill-opacity:1;stroke-width:0.708661;stroke-linecap:round;stroke-linejoin:round;stroke:rgb(18.431373%,30.980392%,30.980392%);stroke-opacity:1;stroke-miterlimit:10;" d="M 276.710938 197.511719 C 276.710938 201.242188 273.6875 204.265625 269.957031 204.265625 C 266.226562 204.265625 263.199219 201.242188 263.199219 197.511719 C 263.199219 193.777344 266.226562 190.753906 269.957031 190.753906 C 273.6875 190.753906 276.710938 193.777344 276.710938 197.511719 "/>
<path style="fill-rule:nonzero;fill:rgb(18.431373%,30.980392%,30.980392%);fill-opacity:1;stroke-width:0.708661;stroke-linecap:round;stroke-linejoin:round;stroke:rgb(18.431373%,30.980392%,30.980392%);stroke-opacity:1;stroke-miterlimit:10;" d="M 283.761719 322.964844 C 283.761719 326.699219 280.738281 329.722656 277.003906 329.722656 C 273.273438 329.722656 270.25 326.699219 270.25 322.964844 C 270.25 319.234375 273.273438 316.210938 277.003906 316.210938 C 280.738281 316.210938 283.761719 319.234375 283.761719 322.964844 "/>
<path style="fill-rule:nonzero;fill:rgb(18.431373%,30.980392%,30.980392%);fill-opacity:1;stroke-width:0.708661;stroke-linecap:round;stroke-linejoin:round;stroke:rgb(18.431373%,30.980392%,30.980392%);stroke-opacity:1;stroke-miterlimit:10;" d="M 290.8125 280.167969 C 290.8125 283.898438 287.785156 286.925781 284.054688 286.925781 C 280.324219 286.925781 277.296875 283.898438 277.296875 280.167969 C 277.296875 276.4375 280.324219 273.414062 284.054688 273.414062 C 287.785156 273.414062 290.8125 276.4375 290.8125 280.167969 "/>
<path style="fill-rule:nonzero;fill:rgb(18.431373%,30.980392%,30.980392%);fill-opacity:1;stroke-width:0.708661;stroke-linecap:round;stroke-linejoin:round;stroke:rgb(18.431373%,30.980392%,30.980392%);stroke-opacity:1;stroke-miterlimit:10;" d="M 297.859375 303.59375 C 297.859375 307.324219 294.835938 310.351562 291.105469 310.351562 C 287.371094 310.351562 284.347656 307.324219 284.347656 303.59375 C 284.347656 299.863281 287.371094 296.839844 291.105469 296.839844 C 294.835938 296.839844 297.859375 299.863281 297.859375 303.59375 "/>
<path style="fill-rule:nonzero;fill:rgb(18.431373%,30.980392%,30.980392%);fill-opacity:1;stroke-width:0.708661;stroke-linecap:round;stroke-linejoin:round;stroke:rgb(18.431373%,30.980392%,30.980392%);stroke-opacity:1;stroke-miterlimit:10;" d="M 304.910156 282.015625 C 304.910156 285.746094 301.882812 288.773438 298.152344 288.773438 C 294.421875 288.773438 291.398438 285.746094 291.398438 282.015625 C 291.398438 278.285156 294.421875 275.261719 298.152344 275.261719 C 301.882812 275.261719 304.910156 278.285156 304.910156 282.015625 "/>
<path style="fill-rule:nonzero;fill:rgb(18.431373%,30.980392%,30.980392%);fill-opacity:1;stroke-width:0.708661;stroke-linecap:round;stroke-linejoin:round;stroke:rgb(18.431373%,30.980392%,30.980392%);stroke-opacity:1;stroke-miterlimit:10;" d="M 311.957031 302.542969 C 311.957031 306.277344 308.933594 309.300781 305.203125 309.300781 C 301.472656 309.300781 298.445312 306.277344 298.445312 302.542969 C 298.445312 298.8125 301.472656 295.789062 305.203125 295.789062 C 308.933594 295.789062 311.957031 298.8125 311.957031 302.542969 "/>
<path style="fill-rule:nonzero;fill:rgb(18.431373%,30.980392%,30.980392%);fill-opacity:1;stroke-width:0.708661;stroke-linecap:round;stroke-linejoin:round;stroke:rgb(18.431373%,30.980392%,30.980392%);stroke-opacity:1;stroke-miterlimit:10;" d="M 319.007812 360.757812 C 319.007812 364.488281 315.984375 367.515625 312.25 367.515625 C 308.519531 367.515625 305.496094 364.488281 305.496094 360.757812 C 305.496094 357.027344 308.519531 354.003906 312.25 354.003906 C 315.984375 354.003906 319.007812 357.027344 319.007812 360.757812 "/>
<path style="fill-rule:nonzero;fill:rgb(18.431373%,30.980392%,30.980392%);fill-opacity:1;stroke-width:0.708661;stroke-linecap:round;stroke-linejoin:round;stroke:rgb(18.431373%,30.980392%,30.980392%);stroke-opacity:1;stroke-miterlimit:10;" d="M 326.058594 291.03125 C 326.058594 294.761719 323.03125 297.789062 319.300781 297.789062 C 315.570312 297.789062 312.542969 294.761719 312.542969 291.03125 C 312.542969 287.300781 315.570312 284.273438 319.300781 284.273438 C 323.03125 284.273438 326.058594 287.300781 326.058594 291.03125 "/>
<path style="fill-rule:nonzero;fill:rgb(18.431373%,30.980392%,30.980392%);fill-opacity:1;stroke-width:0.708661;stroke-linecap:round;stroke-linejoin:round;stroke:rgb(18.431373%,30.980392%,30.980392%);stroke-opacity:1;stroke-miterlimit:10;" d="M 333.105469 301.492188 C 333.105469 305.222656 330.082031 308.246094 326.351562 308.246094 C 322.617188 308.246094 319.59375 305.222656 319.59375 301.492188 C 319.59375 297.757812 322.617188 294.734375 326.351562 294.734375 C 330.082031 294.734375 333.105469 297.757812 333.105469 301.492188 "/>
<path style="fill-rule:nonzero;fill:rgb(18.431373%,30.980392%,30.980392%);fill-opacity:1;stroke-width:0.708661;stroke-linecap:round;stroke-linejoin:round;stroke:rgb(18.431373%,30.980392%,30.980392%);stroke-opacity:1;stroke-miterlimit:10;" d="M 340.15625 151.9375 C 340.15625 155.671875 337.128906 158.695312 333.398438 158.695312 C 329.667969 158.695312 326.644531 155.671875 326.644531 151.9375 C 326.644531 148.207031 329.667969 145.183594 333.398438 145.183594 C 337.128906 145.183594 340.15625 148.207031 340.15625 151.9375 "/>
<path style="fill-rule:nonzero;fill:rgb(18.431373%,30.980392%,30.980392%);fill-opacity:1;stroke-width:0.708661;stroke-linecap:round;stroke-linejoin:round;stroke:rgb(18.431373%,30.980392%,30.980392%);stroke-opacity:1;stroke-miterlimit:10;" d="M 347.203125 384.226562 C 347.203125 387.957031 344.179688 390.984375 340.449219 390.984375 C 336.71875 390.984375 333.691406 387.957031 333.691406 384.226562 C 333.691406 380.496094 336.71875 377.472656 340.449219 377.472656 C 344.179688 377.472656 347.203125 380.496094 347.203125 384.226562 "/>
<path style="fill-rule:nonzero;fill:rgb(18.431373%,30.980392%,30.980392%);fill-opacity:1;stroke-width:0.708661;stroke-linecap:round;stroke-linejoin:round;stroke:rgb(18.431373%,30.980392%,30.980392%);stroke-opacity:1;stroke-miterlimit:10;" d="M 354.253906 248.847656 C 354.253906 252.578125 351.230469 255.601562 347.496094 255.601562 C 343.765625 255.601562 340.742188 252.578125 340.742188 248.847656 C 340.742188 245.113281 343.765625 242.089844 347.496094 242.089844 C 351.230469 242.089844 354.253906 245.113281 354.253906 248.847656 "/>
<path style="fill-rule:nonzero;fill:rgb(18.431373%,30.980392%,30.980392%);fill-opacity:1;stroke-width:0.708661;stroke-linecap:round;stroke-linejoin:round;stroke:rgb(18.431373%,30.980392%,30.980392%);stroke-opacity:1;stroke-miterlimit:10;" d="M 361.304688 256.480469 C 361.304688 260.214844 358.277344 263.238281 354.546875 263.238281 C 350.816406 263.238281 347.789062 260.214844 347.789062 256.480469 C 347.789062 252.75 350.816406 249.726562 354.546875 249.726562 C 358.277344 249.726562 361.304688 252.75 361.304688 256.480469 "/>
<path style="fill-rule:nonzero;fill:rgb(18.431373%,30.980392%,30.980392%);fill-opacity:1;stroke-width:0.708661;stroke-linecap:round;stroke-linejoin:round;stroke:rgb(18.431373%,30.980392%,30.980392%);stroke-opacity:1;stroke-miterlimit:10;" d="M 368.351562 186.167969 C 368.351562 189.898438 365.328125 192.921875 361.597656 192.921875 C 357.863281 192.921875 354.839844 189.898438 354.839844 186.167969 C 354.839844 182.433594 357.863281 179.410156 361.597656 179.410156 C 365.328125 179.410156 368.351562 182.433594 368.351562 186.167969 "/>
<path style="fill-rule:nonzero;fill:rgb(18.431373%,30.980392%,30.980392%);fill-opacity:1;stroke-width:0.708661;stroke-linecap:round;stroke-linejoin:round;stroke:rgb(18.431373%,30.980392%,30.980392%);stroke-opacity:1;stroke-miterlimit:10;" d="M 375.402344 346.761719 C 375.402344 350.492188 372.375 353.519531 368.644531 353.519531 C 364.914062 353.519531 361.890625 350.492188 361.890625 346.761719 C 361.890625 343.03125 364.914062 340.007812 368.644531 340.007812 C 372.375 340.007812 375.402344 343.03125 375.402344 346.761719 "/>
<path style="fill-rule:nonzero;fill:rgb(18.431373%,30.980392%,30.980392%);fill-opacity:1;stroke-width:0.708661;stroke-linecap:round;stroke-linejoin:round;stroke:rgb(18.431373%,30.980392%,30.980392%);stroke-opacity:1;stroke-miterlimit:10;" d="M 382.449219 345.40625 C 382.449219 349.140625 379.425781 352.164062 375.695312 352.164062 C 371.964844 352.164062 368.9375 349.140625 368.9375 345.40625 C 368.9375 341.675781 371.964844 338.652344 375.695312 338.652344 C 379.425781 338.652344 382.449219 341.675781 382.449219 345.40625 "/>
<path style="fill-rule:nonzero;fill:rgb(18.431373%,30.980392%,30.980392%);fill-opacity:1;stroke-width:0.708661;stroke-linecap:round;stroke-linejoin:round;stroke:rgb(18.431373%,30.980392%,30.980392%);stroke-opacity:1;stroke-miterlimit:10;" d="M 389.5 246.28125 C 389.5 250.015625 386.476562 253.039062 382.742188 253.039062 C 379.011719 253.039062 375.988281 250.015625 375.988281 246.28125 C 375.988281 242.550781 379.011719 239.527344 382.742188 239.527344 C 386.476562 239.527344 389.5 242.550781 389.5 246.28125 "/>
<path style="fill-rule:nonzero;fill:rgb(18.431373%,30.980392%,30.980392%);fill-opacity:1;stroke-width:0.708661;stroke-linecap:round;stroke-linejoin:round;stroke:rgb(18.431373%,30.980392%,30.980392%);stroke-opacity:1;stroke-miterlimit:10;" d="M 396.550781 293.667969 C 396.550781 297.402344 393.523438 300.425781 389.792969 300.425781 C 386.0625 300.425781 383.035156 297.402344 383.035156 293.667969 C 383.035156 289.9375 386.0625 286.914062 389.792969 286.914062 C 393.523438 286.914062 396.550781 289.9375 396.550781 293.667969 "/>
<path style="fill-rule:nonzero;fill:rgb(18.431373%,30.980392%,30.980392%);fill-opacity:1;stroke-width:0.708661;stroke-linecap:round;stroke-linejoin:round;stroke:rgb(18.431373%,30.980392%,30.980392%);stroke-opacity:1;stroke-miterlimit:10;" d="M 403.597656 247.804688 C 403.597656 251.535156 400.574219 254.5625 396.84375 254.5625 C 393.109375 254.5625 390.085938 251.535156 390.085938 247.804688 C 390.085938 244.074219 393.109375 241.046875 396.84375 241.046875 C 400.574219 241.046875 403.597656 244.074219 403.597656 247.804688 "/>
<path style="fill-rule:nonzero;fill:rgb(18.431373%,30.980392%,30.980392%);fill-opacity:1;stroke-width:0.708661;stroke-linecap:round;stroke-linejoin:round;stroke:rgb(18.431373%,30.980392%,30.980392%);stroke-opacity:1;stroke-miterlimit:10;" d="M 410.648438 249.429688 C 410.648438 253.160156 407.621094 256.183594 403.890625 256.183594 C 400.160156 256.183594 397.136719 253.160156 397.136719 249.429688 C 397.136719 245.695312 400.160156 242.671875 403.890625 242.671875 C 407.621094 242.671875 410.648438 245.695312 410.648438 249.429688 "/>
<path style="fill-rule:nonzero;fill:rgb(18.431373%,30.980392%,30.980392%);fill-opacity:1;stroke-width:0.708661;stroke-linecap:round;stroke-linejoin:round;stroke:rgb(18.431373%,30.980392%,30.980392%);stroke-opacity:1;stroke-miterlimit:10;" d="M 417.695312 309.277344 C 417.695312 313.007812 414.671875 316.035156 410.941406 316.035156 C 407.210938 316.035156 404.183594 313.007812 404.183594 309.277344 C 404.183594 305.546875 407.210938 302.523438 410.941406 302.523438 C 414.671875 302.523438 417.695312 305.546875 417.695312 309.277344 "/>
<path style="fill-rule:nonzero;fill:rgb(18.431373%,30.980392%,30.980392%);fill-opacity:1;stroke-width:0.708661;stroke-linecap:round;stroke-linejoin:round;stroke:rgb(18.431373%,30.980392%,30.980392%);stroke-opacity:1;stroke-miterlimit:10;" d="M 424.746094 319.136719 C 424.746094 322.867188 421.722656 325.894531 417.988281 325.894531 C 414.257812 325.894531 411.234375 322.867188 411.234375 319.136719 C 411.234375 315.40625 414.257812 312.382812 417.988281 312.382812 C 421.722656 312.382812 424.746094 315.40625 424.746094 319.136719 "/>
<path style="fill-rule:nonzero;fill:rgb(18.431373%,30.980392%,30.980392%);fill-opacity:1;stroke-width:0.708661;stroke-linecap:round;stroke-linejoin:round;stroke:rgb(18.431373%,30.980392%,30.980392%);stroke-opacity:1;stroke-miterlimit:10;" d="M 431.796875 234.9375 C 431.796875 238.667969 428.769531 241.695312 425.039062 241.695312 C 421.308594 241.695312 418.28125 238.667969 418.28125 234.9375 C 418.28125 231.207031 421.308594 228.183594 425.039062 228.183594 C 428.769531 228.183594 431.796875 231.207031 431.796875 234.9375 "/>
<path style="fill-rule:nonzero;fill:rgb(18.431373%,30.980392%,30.980392%);fill-opacity:1;stroke-width:0.708661;stroke-linecap:round;stroke-linejoin:round;stroke:rgb(18.431373%,30.980392%,30.980392%);stroke-opacity:1;stroke-miterlimit:10;" d="M 438.84375 248.535156 C 438.84375 252.265625 435.820312 255.292969 432.089844 255.292969 C 428.355469 255.292969 425.332031 252.265625 425.332031 248.535156 C 425.332031 244.804688 428.355469 241.777344 432.089844 241.777344 C 435.820312 241.777344 438.84375 244.804688 438.84375 248.535156 "/>
<path style="fill-rule:nonzero;fill:rgb(18.431373%,30.980392%,30.980392%);fill-opacity:1;stroke-width:0.708661;stroke-linecap:round;stroke-linejoin:round;stroke:rgb(18.431373%,30.980392%,30.980392%);stroke-opacity:1;stroke-miterlimit:10;" d="M 445.894531 243.542969 C 445.894531 247.277344 442.867188 250.300781 439.136719 250.300781 C 435.40625 250.300781 432.382812 247.277344 432.382812 243.542969 C 432.382812 239.8125 435.40625 236.789062 439.136719 236.789062 C 442.867188 236.789062 445.894531 239.8125 445.894531 243.542969 "/>
<path style="fill-rule:nonzero;fill:rgb(18.431373%,30.980392%,30.980392%);fill-opacity:1;stroke-width:0.708661;stroke-linecap:round;stroke-linejoin:round;stroke:rgb(18.431373%,30.980392%,30.980392%);stroke-opacity:1;stroke-miterlimit:10;" d="M 452.941406 87.664062 C 452.941406 91.394531 449.917969 94.417969 446.1875 94.417969 C 442.457031 94.417969 439.429688 91.394531 439.429688 87.664062 C 439.429688 83.933594 442.457031 80.90625 446.1875 80.90625 C 449.917969 80.90625 452.941406 83.933594 452.941406 87.664062 "/>
<path style="fill-rule:nonzero;fill:rgb(18.431373%,30.980392%,30.980392%);fill-opacity:1;stroke-width:0.708661;stroke-linecap:round;stroke-linejoin:round;stroke:rgb(18.431373%,30.980392%,30.980392%);stroke-opacity:1;stroke-miterlimit:10;" d="M 459.992188 273.214844 C 459.992188 276.945312 456.96875 279.96875 453.234375 279.96875 C 449.503906 279.96875 446.480469 276.945312 446.480469 273.214844 C 446.480469 269.484375 449.503906 266.457031 453.234375 266.457031 C 456.96875 266.457031 459.992188 269.484375 459.992188 273.214844 "/>
<path style="fill-rule:nonzero;fill:rgb(18.431373%,30.980392%,30.980392%);fill-opacity:1;stroke-width:0.708661;stroke-linecap:round;stroke-linejoin:round;stroke:rgb(18.431373%,30.980392%,30.980392%);stroke-opacity:1;stroke-miterlimit:10;" d="M 467.042969 246.785156 C 467.042969 250.515625 464.015625 253.539062 460.285156 253.539062 C 456.554688 253.539062 453.527344 250.515625 453.527344 246.785156 C 453.527344 243.054688 456.554688 240.027344 460.285156 240.027344 C 464.015625 240.027344 467.042969 243.054688 467.042969 246.785156 "/>
<path style="fill-rule:nonzero;fill:rgb(18.431373%,30.980392%,30.980392%);fill-opacity:1;stroke-width:0.708661;stroke-linecap:round;stroke-linejoin:round;stroke:rgb(18.431373%,30.980392%,30.980392%);stroke-opacity:1;stroke-miterlimit:10;" d="M 474.089844 170.550781 C 474.089844 174.28125 471.066406 177.304688 467.335938 177.304688 C 463.601562 177.304688 460.578125 174.28125 460.578125 170.550781 C 460.578125 166.820312 463.601562 163.792969 467.335938 163.792969 C 471.066406 163.792969 474.089844 166.820312 474.089844 170.550781 "/>
<path style="fill-rule:nonzero;fill:rgb(18.431373%,30.980392%,30.980392%);fill-opacity:1;stroke-width:0.708661;stroke-linecap:round;stroke-linejoin:round;stroke:rgb(18.431373%,30.980392%,30.980392%);stroke-opacity:1;stroke-miterlimit:10;" d="M 481.140625 154.929688 C 481.140625 158.660156 478.113281 161.683594 474.382812 161.683594 C 470.652344 161.683594 467.628906 158.660156 467.628906 154.929688 C 467.628906 151.195312 470.652344 148.171875 474.382812 148.171875 C 478.113281 148.171875 481.140625 151.195312 481.140625 154.929688 "/>
<path style="fill-rule:nonzero;fill:rgb(18.431373%,30.980392%,30.980392%);fill-opacity:1;stroke-width:0.708661;stroke-linecap:round;stroke-linejoin:round;stroke:rgb(18.431373%,30.980392%,30.980392%);stroke-opacity:1;stroke-miterlimit:10;" d="M 488.1875 167.96875 C 488.1875 171.703125 485.164062 174.726562 481.433594 174.726562 C 477.703125 174.726562 474.675781 171.703125 474.675781 167.96875 C 474.675781 164.238281 477.703125 161.214844 481.433594 161.214844 C 485.164062 161.214844 488.1875 164.238281 488.1875 167.96875 "/>
<path style="fill-rule:nonzero;fill:rgb(18.431373%,30.980392%,30.980392%);fill-opacity:1;stroke-width:0.708661;stroke-linecap:round;stroke-linejoin:round;stroke:rgb(18.431373%,30.980392%,30.980392%);stroke-opacity:1;stroke-miterlimit:10;" d="M 495.238281 212.839844 C 495.238281 216.574219 492.214844 219.597656 488.480469 219.597656 C 484.75 219.597656 481.726562 216.574219 481.726562 212.839844 C 481.726562 209.109375 484.75 206.085938 488.480469 206.085938 C 492.214844 206.085938 495.238281 209.109375 495.238281 212.839844 "/>
<path style="fill-rule:nonzero;fill:rgb(18.431373%,30.980392%,30.980392%);fill-opacity:1;stroke-width:0.708661;stroke-linecap:round;stroke-linejoin:round;stroke:rgb(18.431373%,30.980392%,30.980392%);stroke-opacity:1;stroke-miterlimit:10;" d="M 502.289062 309 C 502.289062 312.730469 499.261719 315.753906 495.53125 315.753906 C 491.800781 315.753906 488.773438 312.730469 488.773438 309 C 488.773438 305.269531 491.800781 302.242188 495.53125 302.242188 C 499.261719 302.242188 502.289062 305.269531 502.289062 309 "/>
<path style="fill-rule:nonzero;fill:rgb(18.431373%,30.980392%,30.980392%);fill-opacity:1;stroke-width:0.708661;stroke-linecap:round;stroke-linejoin:round;stroke:rgb(18.431373%,30.980392%,30.980392%);stroke-opacity:1;stroke-miterlimit:10;" d="M 509.335938 214.179688 C 509.335938 217.910156 506.3125 220.9375 502.582031 220.9375 C 498.847656 220.9375 495.824219 217.910156 495.824219 214.179688 C 495.824219 210.449219 498.847656 207.425781 502.582031 207.425781 C 506.3125 207.425781 509.335938 210.449219 509.335938 214.179688 "/>
<path style="fill-rule:nonzero;fill:rgb(18.431373%,30.980392%,30.980392%);fill-opacity:1;stroke-width:0.708661;stroke-linecap:round;stroke-linejoin:round;stroke:rgb(18.431373%,30.980392%,30.980392%);stroke-opacity:1;stroke-miterlimit:10;" d="M 516.386719 357.304688 C 516.386719 361.039062 513.359375 364.0625 509.628906 364.0625 C 505.898438 364.0625 502.875 361.039062 502.875 357.304688 C 502.875 353.574219 505.898438 350.550781 509.628906 350.550781 C 513.359375 350.550781 516.386719 353.574219 516.386719 357.304688 "/>
<path style="fill-rule:nonzero;fill:rgb(18.431373%,30.980392%,30.980392%);fill-opacity:1;stroke-width:0.708661;stroke-linecap:round;stroke-linejoin:round;stroke:rgb(18.431373%,30.980392%,30.980392%);stroke-opacity:1;stroke-miterlimit:10;" d="M 523.433594 167.105469 C 523.433594 170.835938 520.410156 173.859375 516.679688 173.859375 C 512.949219 173.859375 509.921875 170.835938 509.921875 167.105469 C 509.921875 163.371094 512.949219 160.347656 516.679688 160.347656 C 520.410156 160.347656 523.433594 163.371094 523.433594 167.105469 "/>
<path style="fill-rule:nonzero;fill:rgb(18.431373%,30.980392%,30.980392%);fill-opacity:1;stroke-width:0.708661;stroke-linecap:round;stroke-linejoin:round;stroke:rgb(18.431373%,30.980392%,30.980392%);stroke-opacity:1;stroke-miterlimit:10;" d="M 530.484375 103.347656 C 530.484375 107.078125 527.460938 110.105469 523.726562 110.105469 C 519.996094 110.105469 516.972656 107.078125 516.972656 103.347656 C 516.972656 99.617188 519.996094 96.589844 523.726562 96.589844 C 527.460938 96.589844 530.484375 99.617188 530.484375 103.347656 "/>
<path style="fill-rule:nonzero;fill:rgb(18.431373%,30.980392%,30.980392%);fill-opacity:1;stroke-width:0.708661;stroke-linecap:round;stroke-linejoin:round;stroke:rgb(18.431373%,30.980392%,30.980392%);stroke-opacity:1;stroke-miterlimit:10;" d="M 537.535156 127.640625 C 537.535156 131.375 534.507812 134.398438 530.777344 134.398438 C 527.046875 134.398438 524.019531 131.375 524.019531 127.640625 C 524.019531 123.910156 527.046875 120.886719 530.777344 120.886719 C 534.507812 120.886719 537.535156 123.910156 537.535156 127.640625 "/>
<path style="fill-rule:nonzero;fill:rgb(18.431373%,30.980392%,30.980392%);fill-opacity:1;stroke-width:0.708661;stroke-linecap:round;stroke-linejoin:round;stroke:rgb(18.431373%,30.980392%,30.980392%);stroke-opacity:1;stroke-miterlimit:10;" d="M 544.582031 261.945312 C 544.582031 265.675781 541.558594 268.703125 537.828125 268.703125 C 534.09375 268.703125 531.070312 265.675781 531.070312 261.945312 C 531.070312 258.214844 534.09375 255.1875 537.828125 255.1875 C 541.558594 255.1875 544.582031 258.214844 544.582031 261.945312 "/>
<path style="fill-rule:nonzero;fill:rgb(18.431373%,30.980392%,30.980392%);fill-opacity:1;stroke-width:0.708661;stroke-linecap:round;stroke-linejoin:round;stroke:rgb(18.431373%,30.980392%,30.980392%);stroke-opacity:1;stroke-miterlimit:10;" d="M 551.632812 205.214844 C 551.632812 208.945312 548.605469 211.972656 544.875 211.972656 C 541.144531 211.972656 538.121094 208.945312 538.121094 205.214844 C 538.121094 201.484375 541.144531 198.460938 544.875 198.460938 C 548.605469 198.460938 551.632812 201.484375 551.632812 205.214844 "/>
<path style="fill-rule:nonzero;fill:rgb(18.431373%,30.980392%,30.980392%);fill-opacity:1;stroke-width:0.708661;stroke-linecap:round;stroke-linejoin:round;stroke:rgb(18.431373%,30.980392%,30.980392%);stroke-opacity:1;stroke-miterlimit:10;" d="M 558.679688 162.339844 C 558.679688 166.070312 555.65625 169.09375 551.925781 169.09375 C 548.195312 169.09375 545.167969 166.070312 545.167969 162.339844 C 545.167969 158.609375 548.195312 155.582031 551.925781 155.582031 C 555.65625 155.582031 558.679688 158.609375 558.679688 162.339844 "/>
<path style="fill-rule:nonzero;fill:rgb(18.431373%,30.980392%,30.980392%);fill-opacity:1;stroke-width:0.708661;stroke-linecap:round;stroke-linejoin:round;stroke:rgb(18.431373%,30.980392%,30.980392%);stroke-opacity:1;stroke-miterlimit:10;" d="M 565.730469 234.328125 C 565.730469 238.058594 562.707031 241.085938 558.972656 241.085938 C 555.242188 241.085938 552.21875 238.058594 552.21875 234.328125 C 552.21875 230.597656 555.242188 227.574219 558.972656 227.574219 C 562.707031 227.574219 565.730469 230.597656 565.730469 234.328125 "/>
<path style="fill-rule:nonzero;fill:rgb(18.431373%,30.980392%,30.980392%);fill-opacity:1;stroke-width:0.708661;stroke-linecap:round;stroke-linejoin:round;stroke:rgb(18.431373%,30.980392%,30.980392%);stroke-opacity:1;stroke-miterlimit:10;" d="M 572.78125 132.871094 C 572.78125 136.605469 569.753906 139.628906 566.023438 139.628906 C 562.292969 139.628906 559.265625 136.605469 559.265625 132.871094 C 559.265625 129.140625 562.292969 126.117188 566.023438 126.117188 C 569.753906 126.117188 572.78125 129.140625 572.78125 132.871094 "/>
<path style="fill-rule:nonzero;fill:rgb(18.431373%,30.980392%,30.980392%);fill-opacity:1;stroke-width:0.708661;stroke-linecap:round;stroke-linejoin:round;stroke:rgb(18.431373%,30.980392%,30.980392%);stroke-opacity:1;stroke-miterlimit:10;" d="M 579.828125 251.457031 C 579.828125 255.1875 576.804688 258.210938 573.074219 258.210938 C 569.339844 258.210938 566.316406 255.1875 566.316406 251.457031 C 566.316406 247.722656 569.339844 244.699219 573.074219 244.699219 C 576.804688 244.699219 579.828125 247.722656 579.828125 251.457031 "/>
<path style="fill-rule:nonzero;fill:rgb(18.431373%,30.980392%,30.980392%);fill-opacity:1;stroke-width:0.708661;stroke-linecap:round;stroke-linejoin:round;stroke:rgb(18.431373%,30.980392%,30.980392%);stroke-opacity:1;stroke-miterlimit:10;" d="M 586.878906 228.445312 C 586.878906 232.175781 583.851562 235.203125 580.121094 235.203125 C 576.390625 235.203125 573.367188 232.175781 573.367188 228.445312 C 573.367188 224.714844 576.390625 221.6875 580.121094 221.6875 C 583.851562 221.6875 586.878906 224.714844 586.878906 228.445312 "/>
<path style="fill-rule:nonzero;fill:rgb(18.431373%,30.980392%,30.980392%);fill-opacity:1;stroke-width:0.708661;stroke-linecap:round;stroke-linejoin:round;stroke:rgb(18.431373%,30.980392%,30.980392%);stroke-opacity:1;stroke-miterlimit:10;" d="M 593.925781 234.023438 C 593.925781 237.753906 590.902344 240.777344 587.171875 240.777344 C 583.441406 240.777344 580.414062 237.753906 580.414062 234.023438 C 580.414062 230.289062 583.441406 227.265625 587.171875 227.265625 C 590.902344 227.265625 593.925781 230.289062 593.925781 234.023438 "/>
<path style="fill-rule:nonzero;fill:rgb(18.431373%,30.980392%,30.980392%);fill-opacity:1;stroke-width:0.708661;stroke-linecap:round;stroke-linejoin:round;stroke:rgb(18.431373%,30.980392%,30.980392%);stroke-opacity:1;stroke-miterlimit:10;" d="M 600.976562 297.5625 C 600.976562 301.292969 597.953125 304.316406 594.21875 304.316406 C 590.488281 304.316406 587.464844 301.292969 587.464844 297.5625 C 587.464844 293.832031 590.488281 290.804688 594.21875 290.804688 C 597.953125 290.804688 600.976562 293.832031 600.976562 297.5625 "/>
<path style="fill-rule:nonzero;fill:rgb(18.431373%,30.980392%,30.980392%);fill-opacity:1;stroke-width:0.708661;stroke-linecap:round;stroke-linejoin:round;stroke:rgb(18.431373%,30.980392%,30.980392%);stroke-opacity:1;stroke-miterlimit:10;" d="M 608.027344 223.597656 C 608.027344 227.332031 605 230.355469 601.269531 230.355469 C 597.539062 230.355469 594.511719 227.332031 594.511719 223.597656 C 594.511719 219.867188 597.539062 216.84375 601.269531 216.84375 C 605 216.84375 608.027344 219.867188 608.027344 223.597656 "/>
<path style="fill-rule:nonzero;fill:rgb(18.431373%,30.980392%,30.980392%);fill-opacity:1;stroke-width:0.708661;stroke-linecap:round;stroke-linejoin:round;stroke:rgb(18.431373%,30.980392%,30.980392%);stroke-opacity:1;stroke-miterlimit:10;" d="M 615.074219 143.734375 C 615.074219 147.464844 612.050781 150.492188 608.320312 150.492188 C 604.585938 150.492188 601.5625 147.464844 601.5625 143.734375 C 601.5625 140.003906 604.585938 136.980469 608.320312 136.980469 C 612.050781 136.980469 615.074219 140.003906 615.074219 143.734375 "/>
<path style="fill-rule:nonzero;fill:rgb(18.431373%,30.980392%,30.980392%);fill-opacity:1;stroke-width:0.708661;stroke-linecap:round;stroke-linejoin:round;stroke:rgb(18.431373%,30.980392%,30.980392%);stroke-opacity:1;stroke-miterlimit:10;" d="M 622.125 119.207031 C 622.125 122.941406 619.097656 125.964844 615.367188 125.964844 C 611.636719 125.964844 608.613281 122.941406 608.613281 119.207031 C 608.613281 115.476562 611.636719 112.453125 615.367188 112.453125 C 619.097656 112.453125 622.125 115.476562 622.125 119.207031 "/>
<path style="fill-rule:nonzero;fill:rgb(18.431373%,30.980392%,30.980392%);fill-opacity:1;stroke-width:0.708661;stroke-linecap:round;stroke-linejoin:round;stroke:rgb(18.431373%,30.980392%,30.980392%);stroke-opacity:1;stroke-miterlimit:10;" d="M 629.171875 286.296875 C 629.171875 290.027344 626.148438 293.050781 622.417969 293.050781 C 618.6875 293.050781 615.660156 290.027344 615.660156 286.296875 C 615.660156 282.5625 618.6875 279.539062 622.417969 279.539062 C 626.148438 279.539062 629.171875 282.5625 629.171875 286.296875 "/>
<path style="fill-rule:nonzero;fill:rgb(18.431373%,30.980392%,30.980392%);fill-opacity:1;stroke-width:0.708661;stroke-linecap:round;stroke-linejoin:round;stroke:rgb(18.431373%,30.980392%,30.980392%);stroke-opacity:1;stroke-miterlimit:10;" d="M 636.222656 191.390625 C 636.222656 195.121094 633.199219 198.148438 629.464844 198.148438 C 625.734375 198.148438 622.710938 195.121094 622.710938 191.390625 C 622.710938 187.660156 625.734375 184.636719 629.464844 184.636719 C 633.199219 184.636719 636.222656 187.660156 636.222656 191.390625 "/>
<path style="fill-rule:nonzero;fill:rgb(18.431373%,30.980392%,30.980392%);fill-opacity:1;stroke-width:0.708661;stroke-linecap:round;stroke-linejoin:round;stroke:rgb(18.431373%,30.980392%,30.980392%);stroke-opacity:1;stroke-miterlimit:10;" d="M 643.273438 234.359375 C 643.273438 238.09375 640.246094 241.117188 636.515625 241.117188 C 632.785156 241.117188 629.757812 238.09375 629.757812 234.359375 C 629.757812 230.628906 632.785156 227.605469 636.515625 227.605469 C 640.246094 227.605469 643.273438 230.628906 643.273438 234.359375 "/>
<path style="fill-rule:nonzero;fill:rgb(18.431373%,30.980392%,30.980392%);fill-opacity:1;stroke-width:0.708661;stroke-linecap:round;stroke-linejoin:round;stroke:rgb(18.431373%,30.980392%,30.980392%);stroke-opacity:1;stroke-miterlimit:10;" d="M 650.320312 232.503906 C 650.320312 236.234375 647.296875 239.261719 643.566406 239.261719 C 639.832031 239.261719 636.808594 236.234375 636.808594 232.503906 C 636.808594 228.773438 639.832031 225.746094 643.566406 225.746094 C 647.296875 225.746094 650.320312 228.773438 650.320312 232.503906 "/>
<path style="fill-rule:nonzero;fill:rgb(18.431373%,30.980392%,30.980392%);fill-opacity:1;stroke-width:0.708661;stroke-linecap:round;stroke-linejoin:round;stroke:rgb(18.431373%,30.980392%,30.980392%);stroke-opacity:1;stroke-miterlimit:10;" d="M 657.371094 156.121094 C 657.371094 159.851562 654.34375 162.875 650.613281 162.875 C 646.882812 162.875 643.859375 159.851562 643.859375 156.121094 C 643.859375 152.386719 646.882812 149.363281 650.613281 149.363281 C 654.34375 149.363281 657.371094 152.386719 657.371094 156.121094 "/>
<path style="fill-rule:nonzero;fill:rgb(18.431373%,30.980392%,30.980392%);fill-opacity:1;stroke-width:0.708661;stroke-linecap:round;stroke-linejoin:round;stroke:rgb(18.431373%,30.980392%,30.980392%);stroke-opacity:1;stroke-miterlimit:10;" d="M 664.417969 191.023438 C 664.417969 194.753906 661.394531 197.777344 657.664062 197.777344 C 653.933594 197.777344 650.90625 194.753906 650.90625 191.023438 C 650.90625 187.289062 653.933594 184.265625 657.664062 184.265625 C 661.394531 184.265625 664.417969 187.289062 664.417969 191.023438 "/>
<path style="fill-rule:nonzero;fill:rgb(18.431373%,30.980392%,30.980392%);fill-opacity:1;stroke-width:0.708661;stroke-linecap:round;stroke-linejoin:round;stroke:rgb(18.431373%,30.980392%,30.980392%);stroke-opacity:1;stroke-miterlimit:10;" d="M 671.46875 161.058594 C 671.46875 164.789062 668.445312 167.816406 664.710938 167.816406 C 660.980469 167.816406 657.957031 164.789062 657.957031 161.058594 C 657.957031 157.328125 660.980469 154.304688 664.710938 154.304688 C 668.445312 154.304688 671.46875 157.328125 671.46875 161.058594 "/>
<path style="fill-rule:nonzero;fill:rgb(18.431373%,30.980392%,30.980392%);fill-opacity:1;stroke-width:0.708661;stroke-linecap:round;stroke-linejoin:round;stroke:rgb(18.431373%,30.980392%,30.980392%);stroke-opacity:1;stroke-miterlimit:10;" d="M 678.519531 142.160156 C 678.519531 145.890625 675.492188 148.917969 671.761719 148.917969 C 668.03125 148.917969 665.003906 145.890625 665.003906 142.160156 C 665.003906 138.429688 668.03125 135.402344 671.761719 135.402344 C 675.492188 135.402344 678.519531 138.429688 678.519531 142.160156 "/>
<path style="fill-rule:nonzero;fill:rgb(18.431373%,30.980392%,30.980392%);fill-opacity:1;stroke-width:0.708661;stroke-linecap:round;stroke-linejoin:round;stroke:rgb(18.431373%,30.980392%,30.980392%);stroke-opacity:1;stroke-miterlimit:10;" d="M 685.566406 207.234375 C 685.566406 210.96875 682.542969 213.992188 678.8125 213.992188 C 675.078125 213.992188 672.054688 210.96875 672.054688 207.234375 C 672.054688 203.503906 675.078125 200.480469 678.8125 200.480469 C 682.542969 200.480469 685.566406 203.503906 685.566406 207.234375 "/>
<path style="fill-rule:nonzero;fill:rgb(18.431373%,30.980392%,30.980392%);fill-opacity:1;stroke-width:0.708661;stroke-linecap:round;stroke-linejoin:round;stroke:rgb(18.431373%,30.980392%,30.980392%);stroke-opacity:1;stroke-miterlimit:10;" d="M 692.617188 23.4375 C 692.617188 27.171875 689.589844 30.195312 685.859375 30.195312 C 682.128906 30.195312 679.105469 27.171875 679.105469 23.4375 C 679.105469 19.707031 682.128906 16.683594 685.859375 16.683594 C 689.589844 16.683594 692.617188 19.707031 692.617188 23.4375 "/>
<path style="fill-rule:nonzero;fill:rgb(18.431373%,30.980392%,30.980392%);fill-opacity:1;stroke-width:0.708661;stroke-linecap:round;stroke-linejoin:round;stroke:rgb(18.431373%,30.980392%,30.980392%);stroke-opacity:1;stroke-miterlimit:10;" d="M 699.664062 41.535156 C 699.664062 45.265625 696.640625 48.289062 692.910156 48.289062 C 689.179688 48.289062 686.152344 45.265625 686.152344 41.535156 C 686.152344 37.804688 689.179688 34.777344 692.910156 34.777344 C 696.640625 34.777344 699.664062 37.804688 699.664062 41.535156 "/>
<path style="fill-rule:nonzero;fill:rgb(18.431373%,30.980392%,30.980392%);fill-opacity:1;stroke-width:0.708661;stroke-linecap:round;stroke-linejoin:round;stroke:rgb(18.431373%,30.980392%,30.980392%);stroke-opacity:1;stroke-miterlimit:10;" d="M 706.714844 248.8125 C 706.714844 252.546875 703.691406 255.570312 699.957031 255.570312 C 696.226562 255.570312 693.203125 252.546875 693.203125 248.8125 C 693.203125 245.082031 696.226562 242.058594 699.957031 242.058594 C 703.691406 242.058594 706.714844 245.082031 706.714844 248.8125 "/>
<path style="fill-rule:nonzero;fill:rgb(18.431373%,30.980392%,30.980392%);fill-opacity:1;stroke-width:0.708661;stroke-linecap:round;stroke-linejoin:round;stroke:rgb(18.431373%,30.980392%,30.980392%);stroke-opacity:1;stroke-miterlimit:10;" d="M 713.765625 243.800781 C 713.765625 247.53125 710.738281 250.558594 707.007812 250.558594 C 703.277344 250.558594 700.25 247.53125 700.25 243.800781 C 700.25 240.070312 703.277344 237.042969 707.007812 237.042969 C 710.738281 237.042969 713.765625 240.070312 713.765625 243.800781 "/>
<path style="fill-rule:nonzero;fill:rgb(18.431373%,30.980392%,30.980392%);fill-opacity:1;stroke-width:0.708661;stroke-linecap:round;stroke-linejoin:round;stroke:rgb(18.431373%,30.980392%,30.980392%);stroke-opacity:1;stroke-miterlimit:10;" d="M 720.8125 152.269531 C 720.8125 156.003906 717.789062 159.027344 714.058594 159.027344 C 710.324219 159.027344 707.300781 156.003906 707.300781 152.269531 C 707.300781 148.539062 710.324219 145.515625 714.058594 145.515625 C 717.789062 145.515625 720.8125 148.539062 720.8125 152.269531 "/>
<path style="fill-rule:nonzero;fill:rgb(18.431373%,30.980392%,30.980392%);fill-opacity:1;stroke-width:0.708661;stroke-linecap:round;stroke-linejoin:round;stroke:rgb(18.431373%,30.980392%,30.980392%);stroke-opacity:1;stroke-miterlimit:10;" d="M 727.863281 130.308594 C 727.863281 134.039062 724.835938 137.0625 721.105469 137.0625 C 717.375 137.0625 714.351562 134.039062 714.351562 130.308594 C 714.351562 126.574219 717.375 123.550781 721.105469 123.550781 C 724.835938 123.550781 727.863281 126.574219 727.863281 130.308594 "/>
<path style="fill:none;stroke-width:6.40187;stroke-linecap:butt;stroke-linejoin:round;stroke:rgb(94.117647%,50.196078%,50.196078%);stroke-opacity:1;stroke-miterlimit:10;" d="M 23.234375 345.703125 L 32.066406 343.429688 L 40.902344 341.152344 L 49.734375 338.878906 L 58.570312 336.605469 L 67.402344 334.328125 L 76.238281 332.054688 L 85.070312 329.78125 L 93.902344 327.503906 L 102.738281 325.230469 L 111.570312 322.957031 L 120.40625 320.683594 L 129.238281 318.40625 L 138.074219 316.132812 L 146.90625 313.859375 L 155.742188 311.582031 L 164.574219 309.308594 L 173.410156 307.035156 L 182.242188 304.757812 L 191.078125 302.484375 L 208.742188 297.9375 L 217.578125 295.660156 L 226.410156 293.386719 L 235.246094 291.113281 L 244.078125 288.835938 L 252.914062 286.5625 L 261.746094 284.289062 L 270.582031 282.011719 L 279.414062 279.738281 L 288.25 277.464844 L 297.082031 275.191406 L 305.917969 272.914062 L 323.582031 268.367188 L 332.417969 266.089844 L 341.25 263.816406 L 350.085938 261.542969 L 358.917969 259.269531 L 367.753906 256.992188 L 376.585938 254.71875 L 385.421875 252.445312 L 394.253906 250.167969 L 403.089844 247.894531 L 411.921875 245.621094 L 420.757812 243.34375 L 438.421875 238.796875 L 447.257812 236.523438 L 456.089844 234.246094 L 464.925781 231.972656 L 473.757812 229.699219 L 482.59375 227.421875 L 491.425781 225.148438 L 500.261719 222.875 L 509.09375 220.597656 L 517.929688 218.324219 L 526.761719 216.050781 L 535.597656 213.777344 L 544.429688 211.5 L 553.261719 209.226562 L 562.097656 206.953125 L 570.929688 204.675781 L 579.765625 202.402344 L 588.597656 200.128906 L 597.433594 197.851562 L 606.265625 195.578125 L 615.101562 193.304688 L 623.933594 191.03125 L 632.769531 188.753906 L 641.601562 186.480469 L 650.4375 184.207031 L 659.269531 181.929688 L 668.101562 179.65625 L 676.9375 177.382812 L 685.769531 175.105469 L 694.605469 172.832031 L 703.4375 170.558594 L 712.273438 168.285156 L 721.105469 166.007812 "/>
</g>
</svg>
