<?xml version="1.0" encoding="UTF-8"?>
<svg xmlns="http://www.w3.org/2000/svg" xmlns:xlink="http://www.w3.org/1999/xlink" width="756pt" height="504pt" viewBox="0 0 756 504" version="1.1">
<g id="surface9">
<rect x="0" y="0" width="756" height="504" style="fill:rgb(100%,100%,100%);fill-opacity:1;stroke:none;"/>
<path style="fill-rule:nonzero;fill:rgb(18.431373%,30.980392%,30.980392%);fill-opacity:1;stroke-width:0.708661;stroke-linecap:round;stroke-linejoin:round;stroke:rgb(18.431373%,30.980392%,30.980392%);stroke-opacity:1;stroke-miterlimit:10;" d="M 29.988281 435.128906 C 29.988281 438.859375 26.964844 441.886719 23.234375 441.886719 C 19.503906 441.886719 16.476562 438.859375 16.476562 435.128906 C 16.476562 431.398438 19.503906 428.375 23.234375 428.375 C 26.964844 428.375 29.988281 431.398438 29.988281 435.128906 "/>
<path style="fill-rule:nonzero;fill:rgb(18.431373%,30.980392%,30.980392%);fill-opacity:1;stroke-width:0.708661;stroke-linecap:round;stroke-linejoin:round;stroke:rgb(18.431373%,30.980392%,30.980392%);stroke-opacity:1;stroke-miterlimit:10;" d="M 37.039062 378.34375 C 37.039062 382.074219 34.015625 385.101562 30.28125 385.101562 C 26.550781 385.101562 23.527344 382.074219 23.527344 378.34375 C 23.527344 374.613281 26.550781 371.585938 30.28125 371.585938 C 34.015625 371.585938 37.039062 374.613281 37.039062 378.34375 "/>
<path style="fill-rule:nonzero;fill:rgb(18.431373%,30.980392%,30.980392%);fill-opacity:1;stroke-width:0.708661;stroke-linecap:round;stroke-linejoin:round;stroke:rgb(18.431373%,30.980392%,30.980392%);stroke-opacity:1;stroke-miterlimit:10;" d="M 44.089844 260.375 C 44.089844 264.105469 41.0625 267.132812 37.332031 267.132812 C 33.601562 267.132812 30.574219 264.105469 30.574219 260.375 C 30.574219 256.644531 33.601562 253.617188 37.332031 253.617188 C 41.0625 253.617188 44.089844 256.644531 44.089844 260.375 "/>
<path style="fill-rule:nonzero;fill:rgb(18.431373%,30.980392%,30.980392%);fill-opacity:1;stroke-width:0.708661;stroke-linecap:round;stroke-linejoin:round;stroke:rgb(18.431373%,30.980392%,30.980392%);stroke-opacity:1;stroke-miterlimit:10;" d="M 51.136719 257.4375 C 51.136719 261.171875 48.113281 264.195312 44.382812 264.195312 C 40.648438 264.195312 37.625 261.171875 37.625 257.4375 C 37.625 253.707031 40.648438 250.683594 44.382812 250.683594 C 48.113281 250.683594 51.136719 253.707031 51.136719 257.4375 "/>
<path style="fill-rule:nonzero;fill:rgb(18.431373%,30.980392%,30.980392%);fill-opacity:1;stroke-width:0.708661;stroke-linecap:round;stroke-linejoin:round;stroke:rgb(18.431373%,30.980392%,30.980392%);stroke-opacity:1;stroke-miterlimit:10;" d="M 58.1875 411.414062 C 58.1875 415.144531 55.160156 418.171875 51.429688 418.171875 C 47.699219 418.171875 44.675781 415.144531 44.675781 411.414062 C 44.675781 407.683594 47.699219 404.660156 51.429688 404.660156 C 55.160156 404.660156 58.1875 407.683594 58.1875 411.414062 "/>
<path style="fill-rule:nonzero;fill:rgb(18.431373%,30.980392%,30.980392%);fill-opacity:1;stroke-width:0.708661;stroke-linecap:round;stroke-linejoin:round;stroke:rgb(18.431373%,30.980392%,30.980392%);stroke-opacity:1;stroke-miterlimit:10;" d="M 65.234375 241.777344 C 65.234375 245.507812 62.210938 248.535156 58.480469 248.535156 C 54.75 248.535156 51.722656 245.507812 51.722656 241.777344 C 51.722656 238.046875 54.75 235.019531 58.480469 235.019531 C 62.210938 235.019531 65.234375 238.046875 65.234375 241.777344 "/>
<path style="fill-rule:nonzero;fill:rgb(18.431373%,30.980392%,30.980392%);fill-opacity:1;stroke-width:0.708661;stroke-linecap:round;stroke-linejoin:round;stroke:rgb(18.431373%,30.980392%,30.980392%);stroke-opacity:1;stroke-miterlimit:10;" d="M 72.285156 267.34375 C 72.285156 271.074219 69.261719 274.097656 65.527344 274.097656 C 61.796875 274.097656 58.773438 271.074219 58.773438 267.34375 C 58.773438 263.613281 61.796875 260.585938 65.527344 260.585938 C 69.261719 260.585938 72.285156 263.613281 72.285156 267.34375 "/>
<path style="fill-rule:nonzero;fill:rgb(18.431373%,30.980392%,30.980392%);fill-opacity:1;stroke-width:0.708661;stroke-linecap:round;stroke-linejoin:round;stroke:rgb(18.431373%,30.980392%,30.980392%);stroke-opacity:1;stroke-miterlimit:10;" d="M 79.335938 266.050781 C 79.335938 269.78125 76.308594 272.804688 72.578125 272.804688 C 68.847656 272.804688 65.820312 269.78125 65.820312 266.050781 C 65.820312 262.316406 68.847656 259.292969 72.578125 259.292969 C 76.308594 259.292969 79.335938 262.316406 79.335938 266.050781 "/>
<path style="fill-rule:nonzero;fill:rgb(18.431373%,30.980392%,30.980392%);fill-opacity:1;stroke-width:0.708661;stroke-linecap:round;stroke-linejoin:round;stroke:rgb(18.431373%,30.980392%,30.980392%);stroke-opacity:1;stroke-miterlimit:10;" d="M 86.382812 342.761719 C 86.382812 346.496094 83.359375 349.519531 79.628906 349.519531 C 75.894531 349.519531 72.871094 346.496094 72.871094 342.761719 C 72.871094 339.03125 75.894531 336.007812 79.628906 336.007812 C 83.359375 336.007812 86.382812 339.03125 86.382812 342.761719 "/>
<path style="fill-rule:nonzero;fill:rgb(18.431373%,30.980392%,30.980392%);fill-opacity:1;stroke-width:0.708661;stroke-linecap:round;stroke-linejoin:round;stroke:rgb(18.431373%,30.980392%,30.980392%);stroke-opacity:1;stroke-miterlimit:10;" d="M 93.433594 367.390625 C 93.433594 371.121094 90.40625 374.148438 86.675781 374.148438 C 82.945312 374.148438 79.921875 371.121094 79.921875 367.390625 C 79.921875 363.660156 82.945312 360.632812 86.675781 360.632812 C 90.40625 360.632812 93.433594 363.660156 93.433594 367.390625 "/>
<path style="fill-rule:nonzero;fill:rgb(18.431373%,30.980392%,30.980392%);fill-opacity:1;stroke-width:0.708661;stroke-linecap:round;stroke-linejoin:round;stroke:rgb(18.431373%,30.980392%,30.980392%);stroke-opacity:1;stroke-miterlimit:10;" d="M 100.480469 274.722656 C 100.480469 278.453125 97.457031 281.476562 93.726562 281.476562 C 89.996094 281.476562 86.96875 278.453125 86.96875 274.722656 C 86.96875 270.988281 89.996094 267.964844 93.726562 267.964844 C 97.457031 267.964844 100.480469 270.988281 100.480469 274.722656 "/>
<path style="fill-rule:nonzero;fill:rgb(18.431373%,30.980392%,30.980392%);fill-opacity:1;stroke-width:0.708661;stroke-linecap:round;stroke-linejoin:round;stroke:rgb(18.431373%,30.980392%,30.980392%);stroke-opacity:1;stroke-miterlimit:10;" d="M 107.53125 344.660156 C 107.53125 348.390625 104.507812 351.417969 100.773438 351.417969 C 97.042969 351.417969 94.019531 348.390625 94.019531 344.660156 C 94.019531 340.929688 97.042969 337.902344 100.773438 337.902344 C 104.507812 337.902344 107.53125 340.929688 107.53125 344.660156 "/>
<path style="fill-rule:nonzero;fill:rgb(18.431373%,30.980392%,30.980392%);fill-opacity:1;stroke-width:0.708661;stroke-linecap:round;stroke-linejoin:round;stroke:rgb(18.431373%,30.980392%,30.980392%);stroke-opacity:1;stroke-miterlimit:10;" d="M 114.582031 329.1875 C 114.582031 332.917969 111.554688 335.945312 107.824219 335.945312 C 104.09375 335.945312 101.066406 332.917969 101.066406 329.1875 C 101.066406 325.457031 104.09375 322.433594 107.824219 322.433594 C 111.554688 322.433594 114.582031 325.457031 114.582031 329.1875 "/>
<path style="fill-rule:nonzero;fill:rgb(18.431373%,30.980392%,30.980392%);fill-opacity:1;stroke-width:0.708661;stroke-linecap:round;stroke-linejoin:round;stroke:rgb(18.431373%,30.980392%,30.980392%);stroke-opacity:1;stroke-miterlimit:10;" d="M 121.628906 208.617188 C 121.628906 212.347656 118.605469 215.375 114.875 215.375 C 111.140625 215.375 108.117188 212.347656 108.117188 208.617188 C 108.117188 204.886719 111.140625 201.863281 114.875 201.863281 C 118.605469 201.863281 121.628906 204.886719 121.628906 208.617188 "/>
<path style="fill-rule:nonzero;fill:rgb(18.431373%,30.980392%,30.980392%);fill-opacity:1;stroke-width:0.708661;stroke-linecap:round;stroke-linejoin:round;stroke:rgb(18.431373%,30.980392%,30.980392%);stroke-opacity:1;stroke-miterlimit:10;" d="M 128.679688 331.992188 C 128.679688 335.722656 125.652344 338.75 121.921875 338.75 C 118.191406 338.75 115.167969 335.722656 115.167969 331.992188 C 115.167969 328.261719 118.191406 325.238281 121.921875 325.238281 C 125.652344 325.238281 128.679688 328.261719 128.679688 331.992188 "/>
<path style="fill-rule:nonzero;fill:rgb(18.431373%,30.980392%,30.980392%);fill-opacity:1;stroke-width:0.708661;stroke-linecap:round;stroke-linejoin:round;stroke:rgb(18.431373%,30.980392%,30.980392%);stroke-opacity:1;stroke-miterlimit:10;" d="M 135.726562 441.222656 C 135.726562 444.953125 132.703125 447.980469 128.972656 447.980469 C 125.242188 447.980469 122.214844 444.953125 122.214844 441.222656 C 122.214844 437.492188 125.242188 434.464844 128.972656 434.464844 C 132.703125 434.464844 135.726562 437.492188 135.726562 441.222656 "/>
<path style="fill-rule:nonzero;fill:rgb(18.431373%,30.980392%,30.980392%);fill-opacity:1;stroke-width:0.708661;stroke-linecap:round;stroke-linejoin:round;stroke:rgb(18.431373%,30.980392%,30.980392%);stroke-opacity:1;stroke-miterlimit:10;" d="M 142.777344 240.527344 C 142.777344 244.261719 139.753906 247.285156 136.019531 247.285156 C 132.289062 247.285156 129.265625 244.261719 129.265625 240.527344 C 129.265625 236.796875 132.289062 233.773438 136.019531 233.773438 C 139.753906 233.773438 142.777344 236.796875 142.777344 240.527344 "/>
<path style="fill-rule:nonzero;fill:rgb(18.431373%,30.980392%,30.980392%);fill-opacity:1;stroke-width:0.708661;stroke-linecap:round;stroke-linejoin:round;stroke:rgb(18.431373%,30.980392%,30.980392%);stroke-opacity:1;stroke-miterlimit:10;" d="M 149.828125 408.828125 C 149.828125 412.5625 146.800781 415.585938 143.070312 415.585938 C 139.339844 415.585938 136.3125 412.5625 136.3125 408.828125 C 136.3125 405.097656 139.339844 402.074219 143.070312 402.074219 C 146.800781 402.074219 149.828125 405.097656 149.828125 408.828125 "/>
<path style="fill-rule:nonzero;fill:rgb(18.431373%,30.980392%,30.980392%);fill-opacity:1;stroke-width:0.708661;stroke-linecap:round;stroke-linejoin:round;stroke:rgb(18.431373%,30.980392%,30.980392%);stroke-opacity:1;stroke-miterlimit:10;" d="M 156.875 346.886719 C 156.875 350.617188 153.851562 353.644531 150.121094 353.644531 C 146.386719 353.644531 143.363281 350.617188 143.363281 346.886719 C 143.363281 343.15625 146.386719 340.128906 150.121094 340.128906 C 153.851562 340.128906 156.875 343.15625 156.875 346.886719 "/>
<path style="fill-rule:nonzero;fill:rgb(18.431373%,30.980392%,30.980392%);fill-opacity:1;stroke-width:0.708661;stroke-linecap:round;stroke-linejoin:round;stroke:rgb(18.431373%,30.980392%,30.980392%);stroke-opacity:1;stroke-miterlimit:10;" d="M 163.925781 383.234375 C 163.925781 386.964844 160.898438 389.988281 157.167969 389.988281 C 153.4375 389.988281 150.414062 386.964844 150.414062 383.234375 C 150.414062 379.503906 153.4375 376.476562 157.167969 376.476562 C 160.898438 376.476562 163.925781 379.503906 163.925781 383.234375 "/>
<path style="fill-rule:nonzero;fill:rgb(18.431373%,30.980392%,30.980392%);fill-opacity:1;stroke-width:0.708661;stroke-linecap:round;stroke-linejoin:round;stroke:rgb(18.431373%,30.980392%,30.980392%);stroke-opacity:1;stroke-miterlimit:10;" d="M 170.972656 482.28125 C 170.972656 486.015625 167.949219 489.039062 164.21875 489.039062 C 160.488281 489.039062 157.460938 486.015625 157.460938 482.28125 C 157.460938 478.550781 160.488281 475.527344 164.21875 475.527344 C 167.949219 475.527344 170.972656 478.550781 170.972656 482.28125 "/>
<path style="fill-rule:nonzero;fill:rgb(18.431373%,30.980392%,30.980392%);fill-opacity:1;stroke-width:0.708661;stroke-linecap:round;stroke-linejoin:round;stroke:rgb(18.431373%,30.980392%,30.980392%);stroke-opacity:1;stroke-miterlimit:10;" d="M 178.023438 409.894531 C 178.023438 413.625 175 416.648438 171.265625 416.648438 C 167.535156 416.648438 164.511719 413.625 164.511719 409.894531 C 164.511719 406.164062 167.535156 403.136719 171.265625 403.136719 C 175 403.136719 178.023438 406.164062 178.023438 409.894531 "/>
<path style="fill-rule:nonzero;fill:rgb(18.431373%,30.980392%,30.980392%);fill-opacity:1;stroke-width:0.708661;stroke-linecap:round;stroke-linejoin:round;stroke:rgb(18.431373%,30.980392%,30.980392%);stroke-opacity:1;stroke-miterlimit:10;" d="M 185.074219 212.816406 C 185.074219 216.546875 182.046875 219.570312 178.316406 219.570312 C 174.585938 219.570312 171.558594 216.546875 171.558594 212.816406 C 171.558594 209.085938 174.585938 206.058594 178.316406 206.058594 C 182.046875 206.058594 185.074219 209.085938 185.074219 212.816406 "/>
<path style="fill-rule:nonzero;fill:rgb(18.431373%,30.980392%,30.980392%);fill-opacity:1;stroke-width:0.708661;stroke-linecap:round;stroke-linejoin:round;stroke:rgb(18.431373%,30.980392%,30.980392%);stroke-opacity:1;stroke-miterlimit:10;" d="M 192.121094 363.261719 C 192.121094 366.992188 189.097656 370.015625 185.367188 370.015625 C 181.632812 370.015625 178.609375 366.992188 178.609375 363.261719 C 178.609375 359.527344 181.632812 356.503906 185.367188 356.503906 C 189.097656 356.503906 192.121094 359.527344 192.121094 363.261719 "/>
<path style="fill-rule:nonzero;fill:rgb(18.431373%,30.980392%,30.980392%);fill-opacity:1;stroke-width:0.708661;stroke-linecap:round;stroke-linejoin:round;stroke:rgb(18.431373%,30.980392%,30.980392%);stroke-opacity:1;stroke-miterlimit:10;" d="M 199.171875 492.222656 C 199.171875 495.953125 196.144531 498.976562 192.414062 498.976562 C 188.683594 498.976562 185.660156 495.953125 185.660156 492.222656 C 185.660156 488.488281 188.683594 485.464844 192.414062 485.464844 C 196.144531 485.464844 199.171875 488.488281 199.171875 492.222656 "/>
<path style="fill-rule:nonzero;fill:rgb(18.431373%,30.980392%,30.980392%);fill-opacity:1;stroke-width:0.708661;stroke-linecap:round;stroke-linejoin:round;stroke:rgb(18.431373%,30.980392%,30.980392%);stroke-opacity:1;stroke-miterlimit:10;" d="M 206.21875 481.089844 C 206.21875 484.820312 203.195312 487.847656 199.464844 487.847656 C 195.734375 487.847656 192.707031 484.820312 192.707031 481.089844 C 192.707031 477.359375 195.734375 474.332031 199.464844 474.332031 C 203.195312 474.332031 206.21875 477.359375 206.21875 481.089844 "/>
<path style="fill-rule:nonzero;fill:rgb(18.431373%,30.980392%,30.980392%);fill-opacity:1;stroke-width:0.708661;stroke-linecap:round;stroke-linejoin:round;stroke:rgb(18.431373%,30.980392%,30.980392%);stroke-opacity:1;stroke-miterlimit:10;" d="M 213.269531 222.558594 C 213.269531 226.289062 210.246094 229.3125 206.511719 229.3125 C 202.78125 229.3125 199.757812 226.289062 199.757812 222.558594 C 199.757812 218.824219 202.78125 215.800781 206.511719 215.800781 C 210.246094 215.800781 213.269531 218.824219 213.269531 222.558594 "/>
<path style="fill-rule:nonzero;fill:rgb(18.431373%,30.980392%,30.980392%);fill-opacity:1;stroke-width:0.708661;stroke-linecap:round;stroke-linejoin:round;stroke:rgb(18.431373%,30.980392%,30.980392%);stroke-opacity:1;stroke-miterlimit:10;" d="M 220.320312 210.59375 C 220.320312 214.328125 217.292969 217.351562 213.5625 217.351562 C 209.832031 217.351562 206.804688 214.328125 206.804688 210.59375 C 206.804688 206.863281 209.832031 203.839844 213.5625 203.839844 C 217.292969 203.839844 220.320312 206.863281 220.320312 210.59375 "/>
<path style="fill-rule:nonzero;fill:rgb(18.431373%,30.980392%,30.980392%);fill-opacity:1;stroke-width:0.708661;stroke-linecap:round;stroke-linejoin:round;stroke:rgb(18.431373%,30.980392%,30.980392%);stroke-opacity:1;stroke-miterlimit:10;" d="M 227.367188 172.15625 C 227.367188 175.886719 224.34375 178.910156 220.613281 178.910156 C 216.878906 178.910156 213.855469 175.886719 213.855469 172.15625 C 213.855469 168.421875 216.878906 165.398438 220.613281 165.398438 C 224.34375 165.398438 227.367188 168.421875 227.367188 172.15625 "/>
<path style="fill-rule:nonzero;fill:rgb(18.431373%,30.980392%,30.980392%);fill-opacity:1;stroke-width:0.708661;stroke-linecap:round;stroke-linejoin:round;stroke:rgb(18.431373%,30.980392%,30.980392%);stroke-opacity:1;stroke-miterlimit:10;" d="M 234.417969 338.15625 C 234.417969 341.886719 231.390625 344.910156 227.660156 344.910156 C 223.929688 344.910156 220.90625 341.886719 220.90625 338.15625 C 220.90625 334.421875 223.929688 331.398438 227.660156 331.398438 C 231.390625 331.398438 234.417969 334.421875 234.417969 338.15625 "/>
<path style="fill-rule:nonzero;fill:rgb(18.431373%,30.980392%,30.980392%);fill-opacity:1;stroke-width:0.708661;stroke-linecap:round;stroke-linejoin:round;stroke:rgb(18.431373%,30.980392%,30.980392%);stroke-opacity:1;stroke-miterlimit:10;" d="M 241.464844 198.015625 C 241.464844 201.75 238.441406 204.773438 234.710938 204.773438 C 230.980469 204.773438 227.953125 201.75 227.953125 198.015625 C 227.953125 194.285156 230.980469 191.261719 234.710938 191.261719 C 238.441406 191.261719 241.464844 194.285156 241.464844 198.015625 "/>
<path style="fill-rule:nonzero;fill:rgb(18.431373%,30.980392%,30.980392%);fill-opacity:1;stroke-width:0.708661;stroke-linecap:round;stroke-linejoin:round;stroke:rgb(18.431373%,30.980392%,30.980392%);stroke-opacity:1;stroke-miterlimit:10;" d="M 248.515625 261.058594 C 248.515625 264.789062 245.492188 267.816406 241.757812 267.816406 C 238.027344 267.816406 235.003906 264.789062 235.003906 261.058594 C 235.003906 257.328125 238.027344 254.304688 241.757812 254.304688 C 245.492188 254.304688 248.515625 257.328125 248.515625 261.058594 "/>
<path style="fill-rule:nonzero;fill:rgb(18.431373%,30.980392%,30.980392%);fill-opacity:1;stroke-width:0.708661;stroke-linecap:round;stroke-linejoin:round;stroke:rgb(18.431373%,30.980392%,30.980392%);stroke-opacity:1;stroke-miterlimit:10;" d="M 255.566406 354.542969 C 255.566406 358.277344 252.539062 361.300781 248.808594 361.300781 C 245.078125 361.300781 242.050781 358.277344 242.050781 354.542969 C 242.050781 350.8125 245.078125 347.789062 248.808594 347.789062 C 252.539062 347.789062 255.566406 350.8125 255.566406 354.542969 "/>
<path style="fill-rule:nonzero;fill:rgb(18.431373%,30.980392%,30.980392%);fill-opacity:1;stroke-width:0.708661;stroke-linecap:round;stroke-linejoin:round;stroke:rgb(18.431373%,30.980392%,30.980392%);stroke-opacity:1;stroke-miterlimit:10;" d="M 262.613281 94.859375 C 262.613281 98.589844 259.589844 101.613281 255.859375 101.613281 C 252.125 101.613281 249.101562 98.589844 249.101562 94.859375 C 249.101562 91.128906 252.125 88.101562 255.859375 88.101562 C 259.589844 88.101562 262.613281 91.128906 262.613281 94.859375 "/>
<path style="fill-rule:nonzero;fill:rgb(18.431373%,30.980392%,30.980392%);fill-opacity:1;stroke-width:0.708661;stroke-linecap:round;stroke-linejoin:round;stroke:rgb(18.431373%,30.980392%,30.980392%);stroke-opacity:1;stroke-miterlimit:10;" d="M 269.664062 165.050781 C 269.664062 168.785156 266.636719 171.808594 262.90625 171.808594 C 259.175781 171.808594 256.152344 168.785156 256.152344 165.050781 C 256.152344 161.320312 259.175781 158.296875 262.90625 158.296875 C 266.636719 158.296875 269.664062 161.320312 269.664062 165.050781 "/>
<path style="fill-rule:nonzero;fill:rgb(18.431373%,30.980392%,30.980392%);fill-opacity:1;stroke-width:0.708661;stroke-linecap:round;stroke-linejoin:round;stroke:rgb(18.431373%,30.980392%,30.980392%);stroke-opacity:1;stroke-miterlimit:10;" d="M 276.710938 168.253906 C 276.710938 171.988281 273.6875 175.011719 269.957031 175.011719 C 266.226562 175.011719 263.199219 171.988281 263.199219 168.253906 C 263.199219 164.523438 266.226562 161.5 269.957031 161.5 C 273.6875 161.5 276.710938 164.523438 276.710938 168.253906 "/>
<path style="fill-rule:nonzero;fill:rgb(18.431373%,30.980392%,30.980392%);fill-opacity:1;stroke-width:0.708661;stroke-linecap:round;stroke-linejoin:round;stroke:rgb(18.431373%,30.980392%,30.980392%);stroke-opacity:1;stroke-miterlimit:10;" d="M 283.761719 158.691406 C 283.761719 162.421875 280.738281 165.445312 277.003906 165.445312 C 273.273438 165.445312 270.25 162.421875 270.25 158.691406 C 270.25 154.957031 273.273438 151.933594 277.003906 151.933594 C 280.738281 151.933594 283.761719 154.957031 283.761719 158.691406 "/>
<path style="fill-rule:nonzero;fill:rgb(18.431373%,30.980392%,30.980392%);fill-opacity:1;stroke-width:0.708661;stroke-linecap:round;stroke-linejoin:round;stroke:rgb(18.431373%,30.980392%,30.980392%);stroke-opacity:1;stroke-miterlimit:10;" d="M 290.8125 377.992188 C 290.8125 381.726562 287.785156 384.75 284.054688 384.75 C 280.324219 384.75 277.296875 381.726562 277.296875 377.992188 C 277.296875 374.261719 280.324219 371.238281 284.054688 371.238281 C 287.785156 371.238281 290.8125 374.261719 290.8125 377.992188 "/>
<path style="fill-rule:nonzero;fill:rgb(18.431373%,30.980392%,30.980392%);fill-opacity:1;stroke-width:0.708661;stroke-linecap:round;stroke-linejoin:round;stroke:rgb(18.431373%,30.980392%,30.980392%);stroke-opacity:1;stroke-miterlimit:10;" d="M 297.859375 484.230469 C 297.859375 487.960938 294.835938 490.984375 291.105469 490.984375 C 287.371094 490.984375 284.347656 487.960938 284.347656 484.230469 C 284.347656 480.496094 287.371094 477.472656 291.105469 477.472656 C 294.835938 477.472656 297.859375 480.496094 297.859375 484.230469 "/>
<path style="fill-rule:nonzero;fill:rgb(18.431373%,30.980392%,30.980392%);fill-opacity:1;stroke-width:0.708661;stroke-linecap:round;stroke-linejoin:round;stroke:rgb(18.431373%,30.980392%,30.980392%);stroke-opacity:1;stroke-miterlimit:10;" d="M 304.910156 122.902344 C 304.910156 126.632812 301.882812 129.65625 298.152344 129.65625 C 294.421875 129.65625 291.398438 126.632812 291.398438 122.902344 C 291.398438 119.171875 294.421875 116.144531 298.152344 116.144531 C 301.882812 116.144531 304.910156 119.171875 304.910156 122.902344 "/>
<path style="fill-rule:nonzero;fill:rgb(18.431373%,30.980392%,30.980392%);fill-opacity:1;stroke-width:0.708661;stroke-linecap:round;stroke-linejoin:round;stroke:rgb(18.431373%,30.980392%,30.980392%);stroke-opacity:1;stroke-miterlimit:10;" d="M 311.957031 238.398438 C 311.957031 242.128906 308.933594 245.152344 305.203125 245.152344 C 301.472656 245.152344 298.445312 242.128906 298.445312 238.398438 C 298.445312 234.667969 301.472656 231.640625 305.203125 231.640625 C 308.933594 231.640625 311.957031 234.667969 311.957031 238.398438 "/>
<path style="fill-rule:nonzero;fill:rgb(18.431373%,30.980392%,30.980392%);fill-opacity:1;stroke-width:0.708661;stroke-linecap:round;stroke-linejoin:round;stroke:rgb(18.431373%,30.980392%,30.980392%);stroke-opacity:1;stroke-miterlimit:10;" d="M 319.007812 277.46875 C 319.007812 281.203125 315.984375 284.226562 312.25 284.226562 C 308.519531 284.226562 305.496094 281.203125 305.496094 277.46875 C 305.496094 273.738281 308.519531 270.714844 312.25 270.714844 C 315.984375 270.714844 319.007812 273.738281 319.007812 277.46875 "/>
<path style="fill-rule:nonzero;fill:rgb(18.431373%,30.980392%,30.980392%);fill-opacity:1;stroke-width:0.708661;stroke-linecap:round;stroke-linejoin:round;stroke:rgb(18.431373%,30.980392%,30.980392%);stroke-opacity:1;stroke-miterlimit:10;" d="M 326.058594 260.019531 C 326.058594 263.75 323.03125 266.773438 319.300781 266.773438 C 315.570312 266.773438 312.542969 263.75 312.542969 260.019531 C 312.542969 256.289062 315.570312 253.261719 319.300781 253.261719 C 323.03125 253.261719 326.058594 256.289062 326.058594 260.019531 "/>
<path style="fill-rule:nonzero;fill:rgb(18.431373%,30.980392%,30.980392%);fill-opacity:1;stroke-width:0.708661;stroke-linecap:round;stroke-linejoin:round;stroke:rgb(18.431373%,30.980392%,30.980392%);stroke-opacity:1;stroke-miterlimit:10;" d="M 333.105469 390.125 C 333.105469 393.855469 330.082031 396.882812 326.351562 396.882812 C 322.617188 396.882812 319.59375 393.855469 319.59375 390.125 C 319.59375 386.394531 322.617188 383.367188 326.351562 383.367188 C 330.082031 383.367188 333.105469 386.394531 333.105469 390.125 "/>
<path style="fill-rule:nonzero;fill:rgb(18.431373%,30.980392%,30.980392%);fill-opacity:1;stroke-width:0.708661;stroke-linecap:round;stroke-linejoin:round;stroke:rgb(18.431373%,30.980392%,30.980392%);stroke-opacity:1;stroke-miterlimit:10;" d="M 340.15625 100.910156 C 340.15625 104.640625 337.128906 107.667969 333.398438 107.667969 C 329.667969 107.667969 326.644531 104.640625 326.644531 100.910156 C 326.644531 97.179688 329.667969 94.15625 333.398438 94.15625 C 337.128906 94.15625 340.15625 97.179688 340.15625 100.910156 "/>
<path style="fill-rule:nonzero;fill:rgb(18.431373%,30.980392%,30.980392%);fill-opacity:1;stroke-width:0.708661;stroke-linecap:round;stroke-linejoin:round;stroke:rgb(18.431373%,30.980392%,30.980392%);stroke-opacity:1;stroke-miterlimit:10;" d="M 347.203125 88.117188 C 347.203125 91.851562 344.179688 94.875 340.449219 94.875 C 336.71875 94.875 333.691406 91.851562 333.691406 88.117188 C 333.691406 84.386719 336.71875 81.363281 340.449219 81.363281 C 344.179688 81.363281 347.203125 84.386719 347.203125 88.117188 "/>
<path style="fill-rule:nonzero;fill:rgb(18.431373%,30.980392%,30.980392%);fill-opacity:1;stroke-width:0.708661;stroke-linecap:round;stroke-linejoin:round;stroke:rgb(18.431373%,30.980392%,30.980392%);stroke-opacity:1;stroke-miterlimit:10;" d="M 354.253906 225.6875 C 354.253906 229.417969 351.230469 232.441406 347.496094 232.441406 C 343.765625 232.441406 340.742188 229.417969 340.742188 225.6875 C 340.742188 221.953125 343.765625 218.929688 347.496094 218.929688 C 351.230469 218.929688 354.253906 221.953125 354.253906 225.6875 "/>
<path style="fill-rule:nonzero;fill:rgb(18.431373%,30.980392%,30.980392%);fill-opacity:1;stroke-width:0.708661;stroke-linecap:round;stroke-linejoin:round;stroke:rgb(18.431373%,30.980392%,30.980392%);stroke-opacity:1;stroke-miterlimit:10;" d="M 361.304688 218.613281 C 361.304688 222.347656 358.277344 225.371094 354.546875 225.371094 C 350.816406 225.371094 347.789062 222.347656 347.789062 218.613281 C 347.789062 214.882812 350.816406 211.859375 354.546875 211.859375 C 358.277344 211.859375 361.304688 214.882812 361.304688 218.613281 "/>
<path style="fill-rule:nonzero;fill:rgb(18.431373%,30.980392%,30.980392%);fill-opacity:1;stroke-width:0.708661;stroke-linecap:round;stroke-linejoin:round;stroke:rgb(18.431373%,30.980392%,30.980392%);stroke-opacity:1;stroke-miterlimit:10;" d="M 368.351562 393.710938 C 368.351562 397.445312 365.328125 400.46875 361.597656 400.46875 C 357.863281 400.46875 354.839844 397.445312 354.839844 393.710938 C 354.839844 389.980469 357.863281 386.957031 361.597656 386.957031 C 365.328125 386.957031 368.351562 389.980469 368.351562 393.710938 "/>
<path style="fill-rule:nonzero;fill:rgb(18.431373%,30.980392%,30.980392%);fill-opacity:1;stroke-width:0.708661;stroke-linecap:round;stroke-linejoin:round;stroke:rgb(18.431373%,30.980392%,30.980392%);stroke-opacity:1;stroke-miterlimit:10;" d="M 375.402344 72.613281 C 375.402344 76.347656 372.375 79.371094 368.644531 79.371094 C 364.914062 79.371094 361.890625 76.347656 361.890625 72.613281 C 361.890625 68.882812 364.914062 65.859375 368.644531 65.859375 C 372.375 65.859375 375.402344 68.882812 375.402344 72.613281 "/>
<path style="fill-rule:nonzero;fill:rgb(18.431373%,30.980392%,30.980392%);fill-opacity:1;stroke-width:0.708661;stroke-linecap:round;stroke-linejoin:round;stroke:rgb(18.431373%,30.980392%,30.980392%);stroke-opacity:1;stroke-miterlimit:10;" d="M 382.449219 359.527344 C 382.449219 363.261719 379.425781 366.285156 375.695312 366.285156 C 371.964844 366.285156 368.9375 363.261719 368.9375 359.527344 C 368.9375 355.796875 371.964844 352.773438 375.695312 352.773438 C 379.425781 352.773438 382.449219 355.796875 382.449219 359.527344 "/>
<path style="fill-rule:nonzero;fill:rgb(18.431373%,30.980392%,30.980392%);fill-opacity:1;stroke-width:0.708661;stroke-linecap:round;stroke-linejoin:round;stroke:rgb(18.431373%,30.980392%,30.980392%);stroke-opacity:1;stroke-miterlimit:10;" d="M 389.5 292.9375 C 389.5 296.671875 386.476562 299.695312 382.742188 299.695312 C 379.011719 299.695312 375.988281 296.671875 375.988281 292.9375 C 375.988281 289.207031 379.011719 286.183594 382.742188 286.183594 C 386.476562 286.183594 389.5 289.207031 389.5 292.9375 "/>
<path style="fill-rule:nonzero;fill:rgb(18.431373%,30.980392%,30.980392%);fill-opacity:1;stroke-width:0.708661;stroke-linecap:round;stroke-linejoin:round;stroke:rgb(18.431373%,30.980392%,30.980392%);stroke-opacity:1;stroke-miterlimit:10;" d="M 396.550781 292.933594 C 396.550781 296.664062 393.523438 299.6875 389.792969 299.6875 C 386.0625 299.6875 383.035156 296.664062 383.035156 292.933594 C 383.035156 289.203125 386.0625 286.175781 389.792969 286.175781 C 393.523438 286.175781 396.550781 289.203125 396.550781 292.933594 "/>
<path style="fill-rule:nonzero;fill:rgb(18.431373%,30.980392%,30.980392%);fill-opacity:1;stroke-width:0.708661;stroke-linecap:round;stroke-linejoin:round;stroke:rgb(18.431373%,30.980392%,30.980392%);stroke-opacity:1;stroke-miterlimit:10;" d="M 403.597656 145.839844 C 403.597656 149.570312 400.574219 152.59375 396.84375 152.59375 C 393.109375 152.59375 390.085938 149.570312 390.085938 145.839844 C 390.085938 142.109375 393.109375 139.082031 396.84375 139.082031 C 400.574219 139.082031 403.597656 142.109375 403.597656 145.839844 "/>
<path style="fill-rule:nonzero;fill:rgb(18.431373%,30.980392%,30.980392%);fill-opacity:1;stroke-width:0.708661;stroke-linecap:round;stroke-linejoin:round;stroke:rgb(18.431373%,30.980392%,30.980392%);stroke-opacity:1;stroke-miterlimit:10;" d="M 410.648438 399.628906 C 410.648438 403.359375 407.621094 406.386719 403.890625 406.386719 C 400.160156 406.386719 397.136719 403.359375 397.136719 399.628906 C 397.136719 395.898438 400.160156 392.871094 403.890625 392.871094 C 407.621094 392.871094 410.648438 395.898438 410.648438 399.628906 "/>
<path style="fill-rule:nonzero;fill:rgb(18.431373%,30.980392%,30.980392%);fill-opacity:1;stroke-width:0.708661;stroke-linecap:round;stroke-linejoin:round;stroke:rgb(18.431373%,30.980392%,30.980392%);stroke-opacity:1;stroke-miterlimit:10;" d="M 417.695312 240.425781 C 417.695312 244.15625 414.671875 247.183594 410.941406 247.183594 C 407.210938 247.183594 404.183594 244.15625 404.183594 240.425781 C 404.183594 236.695312 407.210938 233.667969 410.941406 233.667969 C 414.671875 233.667969 417.695312 236.695312 417.695312 240.425781 "/>
<path style="fill-rule:nonzero;fill:rgb(18.431373%,30.980392%,30.980392%);fill-opacity:1;stroke-width:0.708661;stroke-linecap:round;stroke-linejoin:round;stroke:rgb(18.431373%,30.980392%,30.980392%);stroke-opacity:1;stroke-miterlimit:10;" d="M 424.746094 257.121094 C 424.746094 260.855469 421.722656 263.878906 417.988281 263.878906 C 414.257812 263.878906 411.234375 260.855469 411.234375 257.121094 C 411.234375 253.390625 414.257812 250.367188 417.988281 250.367188 C 421.722656 250.367188 424.746094 253.390625 424.746094 257.121094 "/>
<path style="fill-rule:nonzero;fill:rgb(18.431373%,30.980392%,30.980392%);fill-opacity:1;stroke-width:0.708661;stroke-linecap:round;stroke-linejoin:round;stroke:rgb(18.431373%,30.980392%,30.980392%);stroke-opacity:1;stroke-miterlimit:10;" d="M 431.796875 281.28125 C 431.796875 285.011719 428.769531 288.039062 425.039062 288.039062 C 421.308594 288.039062 418.28125 285.011719 418.28125 281.28125 C 418.28125 277.550781 421.308594 274.523438 425.039062 274.523438 C 428.769531 274.523438 431.796875 277.550781 431.796875 281.28125 "/>
<path style="fill-rule:nonzero;fill:rgb(18.431373%,30.980392%,30.980392%);fill-opacity:1;stroke-width:0.708661;stroke-linecap:round;stroke-linejoin:round;stroke:rgb(18.431373%,30.980392%,30.980392%);stroke-opacity:1;stroke-miterlimit:10;" d="M 438.84375 237.820312 C 438.84375 241.550781 435.820312 244.574219 432.089844 244.574219 C 428.355469 244.574219 425.332031 241.550781 425.332031 237.820312 C 425.332031 234.085938 428.355469 231.0625 432.089844 231.0625 C 435.820312 231.0625 438.84375 234.085938 438.84375 237.820312 "/>
<path style="fill-rule:nonzero;fill:rgb(18.431373%,30.980392%,30.980392%);fill-opacity:1;stroke-width:0.708661;stroke-linecap:round;stroke-linejoin:round;stroke:rgb(18.431373%,30.980392%,30.980392%);stroke-opacity:1;stroke-miterlimit:10;" d="M 445.894531 192.40625 C 445.894531 196.136719 442.867188 199.164062 439.136719 199.164062 C 435.40625 199.164062 432.382812 196.136719 432.382812 192.40625 C 432.382812 188.675781 435.40625 185.648438 439.136719 185.648438 C 442.867188 185.648438 445.894531 188.675781 445.894531 192.40625 "/>
<path style="fill-rule:nonzero;fill:rgb(18.431373%,30.980392%,30.980392%);fill-opacity:1;stroke-width:0.708661;stroke-linecap:round;stroke-linejoin:round;stroke:rgb(18.431373%,30.980392%,30.980392%);stroke-opacity:1;stroke-miterlimit:10;" d="M 452.941406 98.757812 C 452.941406 102.488281 449.917969 105.515625 446.1875 105.515625 C 442.457031 105.515625 439.429688 102.488281 439.429688 98.757812 C 439.429688 95.027344 442.457031 92 446.1875 92 C 449.917969 92 452.941406 95.027344 452.941406 98.757812 "/>
<path style="fill-rule:nonzero;fill:rgb(18.431373%,30.980392%,30.980392%);fill-opacity:1;stroke-width:0.708661;stroke-linecap:round;stroke-linejoin:round;stroke:rgb(18.431373%,30.980392%,30.980392%);stroke-opacity:1;stroke-miterlimit:10;" d="M 459.992188 75.578125 C 459.992188 79.308594 456.96875 82.332031 453.234375 82.332031 C 449.503906 82.332031 446.480469 79.308594 446.480469 75.578125 C 446.480469 71.847656 449.503906 68.820312 453.234375 68.820312 C 456.96875 68.820312 459.992188 71.847656 459.992188 75.578125 "/>
<path style="fill-rule:nonzero;fill:rgb(18.431373%,30.980392%,30.980392%);fill-opacity:1;stroke-width:0.708661;stroke-linecap:round;stroke-linejoin:round;stroke:rgb(18.431373%,30.980392%,30.980392%);stroke-opacity:1;stroke-miterlimit:10;" d="M 467.042969 261.71875 C 467.042969 265.449219 464.015625 268.476562 460.285156 268.476562 C 456.554688 268.476562 453.527344 265.449219 453.527344 261.71875 C 453.527344 257.988281 456.554688 254.964844 460.285156 254.964844 C 464.015625 254.964844 467.042969 257.988281 467.042969 261.71875 "/>
<path style="fill-rule:nonzero;fill:rgb(18.431373%,30.980392%,30.980392%);fill-opacity:1;stroke-width:0.708661;stroke-linecap:round;stroke-linejoin:round;stroke:rgb(18.431373%,30.980392%,30.980392%);stroke-opacity:1;stroke-miterlimit:10;" d="M 474.089844 189.996094 C 474.089844 193.726562 471.066406 196.75 467.335938 196.75 C 463.601562 196.75 460.578125 193.726562 460.578125 189.996094 C 460.578125 186.261719 463.601562 183.238281 467.335938 183.238281 C 471.066406 183.238281 474.089844 186.261719 474.089844 189.996094 "/>
<path style="fill-rule:nonzero;fill:rgb(18.431373%,30.980392%,30.980392%);fill-opacity:1;stroke-width:0.708661;stroke-linecap:round;stroke-linejoin:round;stroke:rgb(18.431373%,30.980392%,30.980392%);stroke-opacity:1;stroke-miterlimit:10;" d="M 481.140625 217.160156 C 481.140625 220.890625 478.113281 223.917969 474.382812 223.917969 C 470.652344 223.917969 467.628906 220.890625 467.628906 217.160156 C 467.628906 213.429688 470.652344 210.402344 474.382812 210.402344 C 478.113281 210.402344 481.140625 213.429688 481.140625 217.160156 "/>
<path style="fill-rule:nonzero;fill:rgb(18.431373%,30.980392%,30.980392%);fill-opacity:1;stroke-width:0.708661;stroke-linecap:round;stroke-linejoin:round;stroke:rgb(18.431373%,30.980392%,30.980392%);stroke-opacity:1;stroke-miterlimit:10;" d="M 488.1875 191.875 C 488.1875 195.605469 485.164062 198.632812 481.433594 198.632812 C 477.703125 198.632812 474.675781 195.605469 474.675781 191.875 C 474.675781 188.144531 477.703125 185.117188 481.433594 185.117188 C 485.164062 185.117188 488.1875 188.144531 488.1875 191.875 "/>
<path style="fill-rule:nonzero;fill:rgb(18.431373%,30.980392%,30.980392%);fill-opacity:1;stroke-width:0.708661;stroke-linecap:round;stroke-linejoin:round;stroke:rgb(18.431373%,30.980392%,30.980392%);stroke-opacity:1;stroke-miterlimit:10;" d="M 495.238281 294.648438 C 495.238281 298.378906 492.214844 301.40625 488.480469 301.40625 C 484.75 301.40625 481.726562 298.378906 481.726562 294.648438 C 481.726562 290.917969 484.75 287.890625 488.480469 287.890625 C 492.214844 287.890625 495.238281 290.917969 495.238281 294.648438 "/>
<path style="fill-rule:nonzero;fill:rgb(18.431373%,30.980392%,30.980392%);fill-opacity:1;stroke-width:0.708661;stroke-linecap:round;stroke-linejoin:round;stroke:rgb(18.431373%,30.980392%,30.980392%);stroke-opacity:1;stroke-miterlimit:10;" d="M 502.289062 153.714844 C 502.289062 157.449219 499.261719 160.472656 495.53125 160.472656 C 491.800781 160.472656 488.773438 157.449219 488.773438 153.714844 C 488.773438 149.984375 491.800781 146.960938 495.53125 146.960938 C 499.261719 146.960938 502.289062 149.984375 502.289062 153.714844 "/>
<path style="fill-rule:nonzero;fill:rgb(18.431373%,30.980392%,30.980392%);fill-opacity:1;stroke-width:0.708661;stroke-linecap:round;stroke-linejoin:round;stroke:rgb(18.431373%,30.980392%,30.980392%);stroke-opacity:1;stroke-miterlimit:10;" d="M 509.335938 263.617188 C 509.335938 267.347656 506.3125 270.375 502.582031 270.375 C 498.847656 270.375 495.824219 267.347656 495.824219 263.617188 C 495.824219 259.886719 498.847656 256.863281 502.582031 256.863281 C 506.3125 256.863281 509.335938 259.886719 509.335938 263.617188 "/>
<path style="fill-rule:nonzero;fill:rgb(18.431373%,30.980392%,30.980392%);fill-opacity:1;stroke-width:0.708661;stroke-linecap:round;stroke-linejoin:round;stroke:rgb(18.431373%,30.980392%,30.980392%);stroke-opacity:1;stroke-miterlimit:10;" d="M 516.386719 159.339844 C 516.386719 163.070312 513.359375 166.097656 509.628906 166.097656 C 505.898438 166.097656 502.875 163.070312 502.875 159.339844 C 502.875 155.609375 505.898438 152.582031 509.628906 152.582031 C 513.359375 152.582031 516.386719 155.609375 516.386719 159.339844 "/>
<path style="fill-rule:nonzero;fill:rgb(18.431373%,30.980392%,30.980392%);fill-opacity:1;stroke-width:0.708661;stroke-linecap:round;stroke-linejoin:round;stroke:rgb(18.431373%,30.980392%,30.980392%);stroke-opacity:1;stroke-miterlimit:10;" d="M 523.433594 323.0625 C 523.433594 326.792969 520.410156 329.816406 516.679688 329.816406 C 512.949219 329.816406 509.921875 326.792969 509.921875 323.0625 C 509.921875 319.332031 512.949219 316.304688 516.679688 316.304688 C 520.410156 316.304688 523.433594 319.332031 523.433594 323.0625 "/>
<path style="fill-rule:nonzero;fill:rgb(18.431373%,30.980392%,30.980392%);fill-opacity:1;stroke-width:0.708661;stroke-linecap:round;stroke-linejoin:round;stroke:rgb(18.431373%,30.980392%,30.980392%);stroke-opacity:1;stroke-miterlimit:10;" d="M 530.484375 150.035156 C 530.484375 153.769531 527.460938 156.792969 523.726562 156.792969 C 519.996094 156.792969 516.972656 153.769531 516.972656 150.035156 C 516.972656 146.304688 519.996094 143.28125 523.726562 143.28125 C 527.460938 143.28125 530.484375 146.304688 530.484375 150.035156 "/>
<path style="fill-rule:nonzero;fill:rgb(18.431373%,30.980392%,30.980392%);fill-opacity:1;stroke-width:0.708661;stroke-linecap:round;stroke-linejoin:round;stroke:rgb(18.431373%,30.980392%,30.980392%);stroke-opacity:1;stroke-miterlimit:10;" d="M 537.535156 24.914062 C 537.535156 28.644531 534.507812 31.671875 530.777344 31.671875 C 527.046875 31.671875 524.019531 28.644531 524.019531 24.914062 C 524.019531 21.183594 527.046875 18.15625 530.777344 18.15625 C 534.507812 18.15625 537.535156 21.183594 537.535156 24.914062 "/>
<path style="fill-rule:nonzero;fill:rgb(18.431373%,30.980392%,30.980392%);fill-opacity:1;stroke-width:0.708661;stroke-linecap:round;stroke-linejoin:round;stroke:rgb(18.431373%,30.980392%,30.980392%);stroke-opacity:1;stroke-miterlimit:10;" d="M 544.582031 188.519531 C 544.582031 192.25 541.558594 195.273438 537.828125 195.273438 C 534.09375 195.273438 531.070312 192.25 531.070312 188.519531 C 531.070312 184.789062 534.09375 181.761719 537.828125 181.761719 C 541.558594 181.761719 544.582031 184.789062 544.582031 188.519531 "/>
<path style="fill-rule:nonzero;fill:rgb(18.431373%,30.980392%,30.980392%);fill-opacity:1;stroke-width:0.708661;stroke-linecap:round;stroke-linejoin:round;stroke:rgb(18.431373%,30.980392%,30.980392%);stroke-opacity:1;stroke-miterlimit:10;" d="M 551.632812 272.710938 C 551.632812 276.441406 548.605469 279.464844 544.875 279.464844 C 541.144531 279.464844 538.121094 276.441406 538.121094 272.710938 C 538.121094 268.976562 541.144531 265.953125 544.875 265.953125 C 548.605469 265.953125 551.632812 268.976562 551.632812 272.710938 "/>
<path style="fill-rule:nonzero;fill:rgb(18.431373%,30.980392%,30.980392%);fill-opacity:1;stroke-width:0.708661;stroke-linecap:round;stroke-linejoin:round;stroke:rgb(18.431373%,30.980392%,30.980392%);stroke-opacity:1;stroke-miterlimit:10;" d="M 558.679688 188.914062 C 558.679688 192.644531 555.65625 195.667969 551.925781 195.667969 C 548.195312 195.667969 545.167969 192.644531 545.167969 188.914062 C 545.167969 185.179688 548.195312 182.15625 551.925781 182.15625 C 555.65625 182.15625 558.679688 185.179688 558.679688 188.914062 "/>
<path style="fill-rule:nonzero;fill:rgb(18.431373%,30.980392%,30.980392%);fill-opacity:1;stroke-width:0.708661;stroke-linecap:round;stroke-linejoin:round;stroke:rgb(18.431373%,30.980392%,30.980392%);stroke-opacity:1;stroke-miterlimit:10;" d="M 565.730469 167.898438 C 565.730469 171.628906 562.707031 174.652344 558.972656 174.652344 C 555.242188 174.652344 552.21875 171.628906 552.21875 167.898438 C 552.21875 164.164062 555.242188 161.140625 558.972656 161.140625 C 562.707031 161.140625 565.730469 164.164062 565.730469 167.898438 "/>
<path style="fill-rule:nonzero;fill:rgb(18.431373%,30.980392%,30.980392%);fill-opacity:1;stroke-width:0.708661;stroke-linecap:round;stroke-linejoin:round;stroke:rgb(18.431373%,30.980392%,30.980392%);stroke-opacity:1;stroke-miterlimit:10;" d="M 572.78125 181.296875 C 572.78125 185.03125 569.753906 188.054688 566.023438 188.054688 C 562.292969 188.054688 559.265625 185.03125 559.265625 181.296875 C 559.265625 177.566406 562.292969 174.542969 566.023438 174.542969 C 569.753906 174.542969 572.78125 177.566406 572.78125 181.296875 "/>
<path style="fill-rule:nonzero;fill:rgb(18.431373%,30.980392%,30.980392%);fill-opacity:1;stroke-width:0.708661;stroke-linecap:round;stroke-linejoin:round;stroke:rgb(18.431373%,30.980392%,30.980392%);stroke-opacity:1;stroke-miterlimit:10;" d="M 579.828125 122.0625 C 579.828125 125.792969 576.804688 128.816406 573.074219 128.816406 C 569.339844 128.816406 566.316406 125.792969 566.316406 122.0625 C 566.316406 118.332031 569.339844 115.304688 573.074219 115.304688 C 576.804688 115.304688 579.828125 118.332031 579.828125 122.0625 "/>
<path style="fill-rule:nonzero;fill:rgb(18.431373%,30.980392%,30.980392%);fill-opacity:1;stroke-width:0.708661;stroke-linecap:round;stroke-linejoin:round;stroke:rgb(18.431373%,30.980392%,30.980392%);stroke-opacity:1;stroke-miterlimit:10;" d="M 586.878906 146.476562 C 586.878906 150.207031 583.851562 153.234375 580.121094 153.234375 C 576.390625 153.234375 573.367188 150.207031 573.367188 146.476562 C 573.367188 142.746094 576.390625 139.71875 580.121094 139.71875 C 583.851562 139.71875 586.878906 142.746094 586.878906 146.476562 "/>
<path style="fill-rule:nonzero;fill:rgb(18.431373%,30.980392%,30.980392%);fill-opacity:1;stroke-width:0.708661;stroke-linecap:round;stroke-linejoin:round;stroke:rgb(18.431373%,30.980392%,30.980392%);stroke-opacity:1;stroke-miterlimit:10;" d="M 593.925781 116.242188 C 593.925781 119.976562 590.902344 123 587.171875 123 C 583.441406 123 580.414062 119.976562 580.414062 116.242188 C 580.414062 112.511719 583.441406 109.488281 587.171875 109.488281 C 590.902344 109.488281 593.925781 112.511719 593.925781 116.242188 "/>
<path style="fill-rule:nonzero;fill:rgb(18.431373%,30.980392%,30.980392%);fill-opacity:1;stroke-width:0.708661;stroke-linecap:round;stroke-linejoin:round;stroke:rgb(18.431373%,30.980392%,30.980392%);stroke-opacity:1;stroke-miterlimit:10;" d="M 600.976562 23.4375 C 600.976562 27.171875 597.953125 30.195312 594.21875 30.195312 C 590.488281 30.195312 587.464844 27.171875 587.464844 23.4375 C 587.464844 19.707031 590.488281 16.683594 594.21875 16.683594 C 597.953125 16.683594 600.976562 19.707031 600.976562 23.4375 "/>
<path style="fill-rule:nonzero;fill:rgb(18.431373%,30.980392%,30.980392%);fill-opacity:1;stroke-width:0.708661;stroke-linecap:round;stroke-linejoin:round;stroke:rgb(18.431373%,30.980392%,30.980392%);stroke-opacity:1;stroke-miterlimit:10;" d="M 608.027344 108.1875 C 608.027344 111.917969 605 114.941406 601.269531 114.941406 C 597.539062 114.941406 594.511719 111.917969 594.511719 108.1875 C 594.511719 104.457031 597.539062 101.429688 601.269531 101.429688 C 605 101.429688 608.027344 104.457031 608.027344 108.1875 "/>
<path style="fill-rule:nonzero;fill:rgb(18.431373%,30.980392%,30.980392%);fill-opacity:1;stroke-width:0.708661;stroke-linecap:round;stroke-linejoin:round;stroke:rgb(18.431373%,30.980392%,30.980392%);stroke-opacity:1;stroke-miterlimit:10;" d="M 615.074219 171.851562 C 615.074219 175.582031 612.050781 178.609375 608.320312 178.609375 C 604.585938 178.609375 601.5625 175.582031 601.5625 171.851562 C 601.5625 168.121094 604.585938 165.09375 608.320312 165.09375 C 612.050781 165.09375 615.074219 168.121094 615.074219 171.851562 "/>
<path style="fill-rule:nonzero;fill:rgb(18.431373%,30.980392%,30.980392%);fill-opacity:1;stroke-width:0.708661;stroke-linecap:round;stroke-linejoin:round;stroke:rgb(18.431373%,30.980392%,30.980392%);stroke-opacity:1;stroke-miterlimit:10;" d="M 622.125 125.371094 C 622.125 129.101562 619.097656 132.128906 615.367188 132.128906 C 611.636719 132.128906 608.613281 129.101562 608.613281 125.371094 C 608.613281 121.640625 611.636719 118.617188 615.367188 118.617188 C 619.097656 118.617188 622.125 121.640625 622.125 125.371094 "/>
<path style="fill-rule:nonzero;fill:rgb(18.431373%,30.980392%,30.980392%);fill-opacity:1;stroke-width:0.708661;stroke-linecap:round;stroke-linejoin:round;stroke:rgb(18.431373%,30.980392%,30.980392%);stroke-opacity:1;stroke-miterlimit:10;" d="M 629.171875 174.367188 C 629.171875 178.097656 626.148438 181.121094 622.417969 181.121094 C 618.6875 181.121094 615.660156 178.097656 615.660156 174.367188 C 615.660156 170.632812 618.6875 167.609375 622.417969 167.609375 C 626.148438 167.609375 629.171875 170.632812 629.171875 174.367188 "/>
<path style="fill-rule:nonzero;fill:rgb(18.431373%,30.980392%,30.980392%);fill-opacity:1;stroke-width:0.708661;stroke-linecap:round;stroke-linejoin:round;stroke:rgb(18.431373%,30.980392%,30.980392%);stroke-opacity:1;stroke-miterlimit:10;" d="M 636.222656 208.1875 C 636.222656 211.917969 633.199219 214.945312 629.464844 214.945312 C 625.734375 214.945312 622.710938 211.917969 622.710938 208.1875 C 622.710938 204.457031 625.734375 201.433594 629.464844 201.433594 C 633.199219 201.433594 636.222656 204.457031 636.222656 208.1875 "/>
<path style="fill-rule:nonzero;fill:rgb(18.431373%,30.980392%,30.980392%);fill-opacity:1;stroke-width:0.708661;stroke-linecap:round;stroke-linejoin:round;stroke:rgb(18.431373%,30.980392%,30.980392%);stroke-opacity:1;stroke-miterlimit:10;" d="M 643.273438 156.78125 C 643.273438 160.511719 640.246094 163.535156 636.515625 163.535156 C 632.785156 163.535156 629.757812 160.511719 629.757812 156.78125 C 629.757812 153.046875 632.785156 150.023438 636.515625 150.023438 C 640.246094 150.023438 643.273438 153.046875 643.273438 156.78125 "/>
<path style="fill-rule:nonzero;fill:rgb(18.431373%,30.980392%,30.980392%);fill-opacity:1;stroke-width:0.708661;stroke-linecap:round;stroke-linejoin:round;stroke:rgb(18.431373%,30.980392%,30.980392%);stroke-opacity:1;stroke-miterlimit:10;" d="M 650.320312 178.378906 C 650.320312 182.113281 647.296875 185.136719 643.566406 185.136719 C 639.832031 185.136719 636.808594 182.113281 636.808594 178.378906 C 636.808594 174.648438 639.832031 171.625 643.566406 171.625 C 647.296875 171.625 650.320312 174.648438 650.320312 178.378906 "/>
<path style="fill-rule:nonzero;fill:rgb(18.431373%,30.980392%,30.980392%);fill-opacity:1;stroke-width:0.708661;stroke-linecap:round;stroke-linejoin:round;stroke:rgb(18.431373%,30.980392%,30.980392%);stroke-opacity:1;stroke-miterlimit:10;" d="M 657.371094 108.972656 C 657.371094 112.703125 654.34375 115.730469 650.613281 115.730469 C 646.882812 115.730469 643.859375 112.703125 643.859375 108.972656 C 643.859375 105.242188 646.882812 102.21875 650.613281 102.21875 C 654.34375 102.21875 657.371094 105.242188 657.371094 108.972656 "/>
<path style="fill-rule:nonzero;fill:rgb(18.431373%,30.980392%,30.980392%);fill-opacity:1;stroke-width:0.708661;stroke-linecap:round;stroke-linejoin:round;stroke:rgb(18.431373%,30.980392%,30.980392%);stroke-opacity:1;stroke-miterlimit:10;" d="M 664.417969 223.867188 C 664.417969 227.597656 661.394531 230.621094 657.664062 230.621094 C 653.933594 230.621094 650.90625 227.597656 650.90625 223.867188 C 650.90625 220.136719 653.933594 217.109375 657.664062 217.109375 C 661.394531 217.109375 664.417969 220.136719 664.417969 223.867188 "/>
<path style="fill-rule:nonzero;fill:rgb(18.431373%,30.980392%,30.980392%);fill-opacity:1;stroke-width:0.708661;stroke-linecap:round;stroke-linejoin:round;stroke:rgb(18.431373%,30.980392%,30.980392%);stroke-opacity:1;stroke-miterlimit:10;" d="M 671.46875 155.246094 C 671.46875 158.980469 668.445312 162.003906 664.710938 162.003906 C 660.980469 162.003906 657.957031 158.980469 657.957031 155.246094 C 657.957031 151.515625 660.980469 148.492188 664.710938 148.492188 C 668.445312 148.492188 671.46875 151.515625 671.46875 155.246094 "/>
<path style="fill-rule:nonzero;fill:rgb(18.431373%,30.980392%,30.980392%);fill-opacity:1;stroke-width:0.708661;stroke-linecap:round;stroke-linejoin:round;stroke:rgb(18.431373%,30.980392%,30.980392%);stroke-opacity:1;stroke-miterlimit:10;" d="M 678.519531 179.289062 C 678.519531 183.023438 675.492188 186.046875 671.761719 186.046875 C 668.03125 186.046875 665.003906 183.023438 665.003906 179.289062 C 665.003906 175.558594 668.03125 172.535156 671.761719 172.535156 C 675.492188 172.535156 678.519531 175.558594 678.519531 179.289062 "/>
<path style="fill-rule:nonzero;fill:rgb(18.431373%,30.980392%,30.980392%);fill-opacity:1;stroke-width:0.708661;stroke-linecap:round;stroke-linejoin:round;stroke:rgb(18.431373%,30.980392%,30.980392%);stroke-opacity:1;stroke-miterlimit:10;" d="M 685.566406 82.683594 C 685.566406 86.417969 682.542969 89.441406 678.8125 89.441406 C 675.078125 89.441406 672.054688 86.417969 672.054688 82.683594 C 672.054688 78.953125 675.078125 75.929688 678.8125 75.929688 C 682.542969 75.929688 685.566406 78.953125 685.566406 82.683594 "/>
<path style="fill-rule:nonzero;fill:rgb(18.431373%,30.980392%,30.980392%);fill-opacity:1;stroke-width:0.708661;stroke-linecap:round;stroke-linejoin:round;stroke:rgb(18.431373%,30.980392%,30.980392%);stroke-opacity:1;stroke-miterlimit:10;" d="M 692.617188 84.109375 C 692.617188 87.839844 689.589844 90.863281 685.859375 90.863281 C 682.128906 90.863281 679.105469 87.839844 679.105469 84.109375 C 679.105469 80.375 682.128906 77.351562 685.859375 77.351562 C 689.589844 77.351562 692.617188 80.375 692.617188 84.109375 "/>
<path style="fill-rule:nonzero;fill:rgb(18.431373%,30.980392%,30.980392%);fill-opacity:1;stroke-width:0.708661;stroke-linecap:round;stroke-linejoin:round;stroke:rgb(18.431373%,30.980392%,30.980392%);stroke-opacity:1;stroke-miterlimit:10;" d="M 699.664062 205.460938 C 699.664062 209.191406 696.640625 212.214844 692.910156 212.214844 C 689.179688 212.214844 686.152344 209.191406 686.152344 205.460938 C 686.152344 201.730469 689.179688 198.703125 692.910156 198.703125 C 696.640625 198.703125 699.664062 201.730469 699.664062 205.460938 "/>
<path style="fill-rule:nonzero;fill:rgb(18.431373%,30.980392%,30.980392%);fill-opacity:1;stroke-width:0.708661;stroke-linecap:round;stroke-linejoin:round;stroke:rgb(18.431373%,30.980392%,30.980392%);stroke-opacity:1;stroke-miterlimit:10;" d="M 706.714844 104.304688 C 706.714844 108.035156 703.691406 111.0625 699.957031 111.0625 C 696.226562 111.0625 693.203125 108.035156 693.203125 104.304688 C 693.203125 100.574219 696.226562 97.546875 699.957031 97.546875 C 703.691406 97.546875 706.714844 100.574219 706.714844 104.304688 "/>
<path style="fill-rule:nonzero;fill:rgb(18.431373%,30.980392%,30.980392%);fill-opacity:1;stroke-width:0.708661;stroke-linecap:round;stroke-linejoin:round;stroke:rgb(18.431373%,30.980392%,30.980392%);stroke-opacity:1;stroke-miterlimit:10;" d="M 713.765625 348.945312 C 713.765625 352.679688 710.738281 355.703125 707.007812 355.703125 C 703.277344 355.703125 700.25 352.679688 700.25 348.945312 C 700.25 345.214844 703.277344 342.191406 707.007812 342.191406 C 710.738281 342.191406 713.765625 345.214844 713.765625 348.945312 "/>
<path style="fill-rule:nonzero;fill:rgb(18.431373%,30.980392%,30.980392%);fill-opacity:1;stroke-width:0.708661;stroke-linecap:round;stroke-linejoin:round;stroke:rgb(18.431373%,30.980392%,30.980392%);stroke-opacity:1;stroke-miterlimit:10;" d="M 720.8125 130.714844 C 720.8125 134.449219 717.789062 137.472656 714.058594 137.472656 C 710.324219 137.472656 707.300781 134.449219 707.300781 130.714844 C 707.300781 126.984375 710.324219 123.960938 714.058594 123.960938 C 717.789062 123.960938 720.8125 126.984375 720.8125 130.714844 "/>
<path style="fill-rule:nonzero;fill:rgb(18.431373%,30.980392%,30.980392%);fill-opacity:1;stroke-width:0.708661;stroke-linecap:round;stroke-linejoin:round;stroke:rgb(18.431373%,30.980392%,30.980392%);stroke-opacity:1;stroke-miterlimit:10;" d="M 727.863281 71.226562 C 727.863281 74.957031 724.835938 77.984375 721.105469 77.984375 C 717.375 77.984375 714.351562 74.957031 714.351562 71.226562 C 714.351562 67.496094 717.375 64.46875 721.105469 64.46875 C 724.835938 64.46875 727.863281 67.496094 727.863281 71.226562 "/>
<path style="fill:none;stroke-width:6.40187;stroke-linecap:butt;stroke-linejoin:round;stroke:rgb(94.117647%,50.196078%,50.196078%);stroke-opacity:1;stroke-miterlimit:10;" d="M 23.234375 351.265625 L 32.066406 348.425781 L 40.902344 345.585938 L 49.734375 342.742188 L 58.570312 339.902344 L 67.402344 337.0625 L 76.238281 334.21875 L 93.902344 328.539062 L 102.738281 325.695312 L 111.570312 322.855469 L 120.40625 320.015625 L 129.238281 317.171875 L 138.074219 314.332031 L 146.90625 311.492188 L 155.742188 308.648438 L 164.574219 305.808594 L 173.410156 302.96875 L 182.242188 300.125 L 191.078125 297.285156 L 199.910156 294.445312 L 208.742188 291.601562 L 217.578125 288.761719 L 226.410156 285.921875 L 235.246094 283.078125 L 244.078125 280.238281 L 252.914062 277.394531 L 261.746094 274.554688 L 270.582031 271.714844 L 279.414062 268.871094 L 288.25 266.03125 L 297.082031 263.191406 L 305.917969 260.347656 L 323.582031 254.667969 L 332.417969 251.824219 L 341.25 248.984375 L 350.085938 246.144531 L 358.917969 243.300781 L 367.753906 240.460938 L 376.585938 237.621094 L 385.421875 234.777344 L 394.253906 231.9375 L 403.089844 229.097656 L 411.921875 226.253906 L 420.757812 223.414062 L 429.589844 220.574219 L 438.421875 217.730469 L 447.257812 214.890625 L 456.089844 212.050781 L 464.925781 209.207031 L 473.757812 206.367188 L 482.59375 203.527344 L 491.425781 200.683594 L 500.261719 197.84375 L 509.09375 195.003906 L 517.929688 192.160156 L 526.761719 189.320312 L 535.597656 186.480469 L 544.429688 183.636719 L 553.261719 180.796875 L 562.097656 177.957031 L 570.929688 175.113281 L 579.765625 172.273438 L 588.597656 169.429688 L 597.433594 166.589844 L 606.265625 163.75 L 615.101562 160.90625 L 623.933594 158.066406 L 632.769531 155.226562 L 641.601562 152.382812 L 650.4375 149.542969 L 659.269531 146.703125 L 668.101562 143.859375 L 676.9375 141.019531 L 685.769531 138.179688 L 694.605469 135.335938 L 703.4375 132.496094 L 712.273438 129.65625 L 721.105469 126.8125 "/>
</g>
</svg>
