<?xml version="1.0" encoding="UTF-8"?>
<svg xmlns="http://www.w3.org/2000/svg" xmlns:xlink="http://www.w3.org/1999/xlink" width="756pt" height="504pt" viewBox="0 0 756 504" version="1.1">
<g id="surface19">
<rect x="0" y="0" width="756" height="504" style="fill:rgb(100%,100%,100%);fill-opacity:1;stroke:none;"/>
<path style="fill-rule:nonzero;fill:rgb(18.431373%,30.980392%,30.980392%);fill-opacity:1;stroke-width:0.708661;stroke-linecap:round;stroke-linejoin:round;stroke:rgb(18.431373%,30.980392%,30.980392%);stroke-opacity:1;stroke-miterlimit:10;" d="M 29.988281 294.09375 C 29.988281 297.828125 26.964844 300.851562 23.234375 300.851562 C 19.503906 300.851562 16.476562 297.828125 16.476562 294.09375 C 16.476562 290.363281 19.503906 287.339844 23.234375 287.339844 C 26.964844 287.339844 29.988281 290.363281 29.988281 294.09375 "/>
<path style="fill-rule:nonzero;fill:rgb(18.431373%,30.980392%,30.980392%);fill-opacity:1;stroke-width:0.708661;stroke-linecap:round;stroke-linejoin:round;stroke:rgb(18.431373%,30.980392%,30.980392%);stroke-opacity:1;stroke-miterlimit:10;" d="M 37.039062 301.652344 C 37.039062 305.382812 34.015625 308.40625 30.28125 308.40625 C 26.550781 308.40625 23.527344 305.382812 23.527344 301.652344 C 23.527344 297.917969 26.550781 294.894531 30.28125 294.894531 C 34.015625 294.894531 37.039062 297.917969 37.039062 301.652344 "/>
<path style="fill-rule:nonzero;fill:rgb(18.431373%,30.980392%,30.980392%);fill-opacity:1;stroke-width:0.708661;stroke-linecap:round;stroke-linejoin:round;stroke:rgb(18.431373%,30.980392%,30.980392%);stroke-opacity:1;stroke-miterlimit:10;" d="M 44.089844 290.378906 C 44.089844 294.109375 41.0625 297.136719 37.332031 297.136719 C 33.601562 297.136719 30.574219 294.109375 30.574219 290.378906 C 30.574219 286.648438 33.601562 283.621094 37.332031 283.621094 C 41.0625 283.621094 44.089844 286.648438 44.089844 290.378906 "/>
<path style="fill-rule:nonzero;fill:rgb(18.431373%,30.980392%,30.980392%);fill-opacity:1;stroke-width:0.708661;stroke-linecap:round;stroke-linejoin:round;stroke:rgb(18.431373%,30.980392%,30.980392%);stroke-opacity:1;stroke-miterlimit:10;" d="M 51.136719 415.269531 C 51.136719 419 48.113281 422.023438 44.382812 422.023438 C 40.648438 422.023438 37.625 419 37.625 415.269531 C 37.625 411.535156 40.648438 408.511719 44.382812 408.511719 C 48.113281 408.511719 51.136719 411.535156 51.136719 415.269531 "/>
<path style="fill-rule:nonzero;fill:rgb(18.431373%,30.980392%,30.980392%);fill-opacity:1;stroke-width:0.708661;stroke-linecap:round;stroke-linejoin:round;stroke:rgb(18.431373%,30.980392%,30.980392%);stroke-opacity:1;stroke-miterlimit:10;" d="M 58.1875 421.871094 C 58.1875 425.601562 55.160156 428.628906 51.429688 428.628906 C 47.699219 428.628906 44.675781 425.601562 44.675781 421.871094 C 44.675781 418.140625 47.699219 415.117188 51.429688 415.117188 C 55.160156 415.117188 58.1875 418.140625 58.1875 421.871094 "/>
<path style="fill-rule:nonzero;fill:rgb(18.431373%,30.980392%,30.980392%);fill-opacity:1;stroke-width:0.708661;stroke-linecap:round;stroke-linejoin:round;stroke:rgb(18.431373%,30.980392%,30.980392%);stroke-opacity:1;stroke-miterlimit:10;" d="M 65.234375 445.726562 C 65.234375 449.460938 62.210938 452.484375 58.480469 452.484375 C 54.75 452.484375 51.722656 449.460938 51.722656 445.726562 C 51.722656 441.996094 54.75 438.972656 58.480469 438.972656 C 62.210938 438.972656 65.234375 441.996094 65.234375 445.726562 "/>
<path style="fill-rule:nonzero;fill:rgb(18.431373%,30.980392%,30.980392%);fill-opacity:1;stroke-width:0.708661;stroke-linecap:round;stroke-linejoin:round;stroke:rgb(18.431373%,30.980392%,30.980392%);stroke-opacity:1;stroke-miterlimit:10;" d="M 72.285156 406.402344 C 72.285156 410.132812 69.261719 413.160156 65.527344 413.160156 C 61.796875 413.160156 58.773438 410.132812 58.773438 406.402344 C 58.773438 402.671875 61.796875 399.644531 65.527344 399.644531 C 69.261719 399.644531 72.285156 402.671875 72.285156 406.402344 "/>
<path style="fill-rule:nonzero;fill:rgb(18.431373%,30.980392%,30.980392%);fill-opacity:1;stroke-width:0.708661;stroke-linecap:round;stroke-linejoin:round;stroke:rgb(18.431373%,30.980392%,30.980392%);stroke-opacity:1;stroke-miterlimit:10;" d="M 79.335938 353.613281 C 79.335938 357.34375 76.308594 360.371094 72.578125 360.371094 C 68.847656 360.371094 65.820312 357.34375 65.820312 353.613281 C 65.820312 349.882812 68.847656 346.859375 72.578125 346.859375 C 76.308594 346.859375 79.335938 349.882812 79.335938 353.613281 "/>
<path style="fill-rule:nonzero;fill:rgb(18.431373%,30.980392%,30.980392%);fill-opacity:1;stroke-width:0.708661;stroke-linecap:round;stroke-linejoin:round;stroke:rgb(18.431373%,30.980392%,30.980392%);stroke-opacity:1;stroke-miterlimit:10;" d="M 86.382812 344.671875 C 86.382812 348.402344 83.359375 351.429688 79.628906 351.429688 C 75.894531 351.429688 72.871094 348.402344 72.871094 344.671875 C 72.871094 340.941406 75.894531 337.917969 79.628906 337.917969 C 83.359375 337.917969 86.382812 340.941406 86.382812 344.671875 "/>
<path style="fill-rule:nonzero;fill:rgb(18.431373%,30.980392%,30.980392%);fill-opacity:1;stroke-width:0.708661;stroke-linecap:round;stroke-linejoin:round;stroke:rgb(18.431373%,30.980392%,30.980392%);stroke-opacity:1;stroke-miterlimit:10;" d="M 93.433594 415.019531 C 93.433594 418.75 90.40625 421.773438 86.675781 421.773438 C 82.945312 421.773438 79.921875 418.75 79.921875 415.019531 C 79.921875 411.285156 82.945312 408.261719 86.675781 408.261719 C 90.40625 408.261719 93.433594 411.285156 93.433594 415.019531 "/>
<path style="fill-rule:nonzero;fill:rgb(18.431373%,30.980392%,30.980392%);fill-opacity:1;stroke-width:0.708661;stroke-linecap:round;stroke-linejoin:round;stroke:rgb(18.431373%,30.980392%,30.980392%);stroke-opacity:1;stroke-miterlimit:10;" d="M 100.480469 349.257812 C 100.480469 352.988281 97.457031 356.015625 93.726562 356.015625 C 89.996094 356.015625 86.96875 352.988281 86.96875 349.257812 C 86.96875 345.527344 89.996094 342.503906 93.726562 342.503906 C 97.457031 342.503906 100.480469 345.527344 100.480469 349.257812 "/>
<path style="fill-rule:nonzero;fill:rgb(18.431373%,30.980392%,30.980392%);fill-opacity:1;stroke-width:0.708661;stroke-linecap:round;stroke-linejoin:round;stroke:rgb(18.431373%,30.980392%,30.980392%);stroke-opacity:1;stroke-miterlimit:10;" d="M 107.53125 422.148438 C 107.53125 425.882812 104.507812 428.90625 100.773438 428.90625 C 97.042969 428.90625 94.019531 425.882812 94.019531 422.148438 C 94.019531 418.417969 97.042969 415.394531 100.773438 415.394531 C 104.507812 415.394531 107.53125 418.417969 107.53125 422.148438 "/>
<path style="fill-rule:nonzero;fill:rgb(18.431373%,30.980392%,30.980392%);fill-opacity:1;stroke-width:0.708661;stroke-linecap:round;stroke-linejoin:round;stroke:rgb(18.431373%,30.980392%,30.980392%);stroke-opacity:1;stroke-miterlimit:10;" d="M 114.582031 226.589844 C 114.582031 230.320312 111.554688 233.34375 107.824219 233.34375 C 104.09375 233.34375 101.066406 230.320312 101.066406 226.589844 C 101.066406 222.859375 104.09375 219.832031 107.824219 219.832031 C 111.554688 219.832031 114.582031 222.859375 114.582031 226.589844 "/>
<path style="fill-rule:nonzero;fill:rgb(18.431373%,30.980392%,30.980392%);fill-opacity:1;stroke-width:0.708661;stroke-linecap:round;stroke-linejoin:round;stroke:rgb(18.431373%,30.980392%,30.980392%);stroke-opacity:1;stroke-miterlimit:10;" d="M 121.628906 303.5 C 121.628906 307.230469 118.605469 310.253906 114.875 310.253906 C 111.140625 310.253906 108.117188 307.230469 108.117188 303.5 C 108.117188 299.765625 111.140625 296.742188 114.875 296.742188 C 118.605469 296.742188 121.628906 299.765625 121.628906 303.5 "/>
<path style="fill-rule:nonzero;fill:rgb(18.431373%,30.980392%,30.980392%);fill-opacity:1;stroke-width:0.708661;stroke-linecap:round;stroke-linejoin:round;stroke:rgb(18.431373%,30.980392%,30.980392%);stroke-opacity:1;stroke-miterlimit:10;" d="M 128.679688 281.390625 C 128.679688 285.121094 125.652344 288.148438 121.921875 288.148438 C 118.191406 288.148438 115.167969 285.121094 115.167969 281.390625 C 115.167969 277.660156 118.191406 274.632812 121.921875 274.632812 C 125.652344 274.632812 128.679688 277.660156 128.679688 281.390625 "/>
<path style="fill-rule:nonzero;fill:rgb(18.431373%,30.980392%,30.980392%);fill-opacity:1;stroke-width:0.708661;stroke-linecap:round;stroke-linejoin:round;stroke:rgb(18.431373%,30.980392%,30.980392%);stroke-opacity:1;stroke-miterlimit:10;" d="M 135.726562 492.222656 C 135.726562 495.953125 132.703125 498.976562 128.972656 498.976562 C 125.242188 498.976562 122.214844 495.953125 122.214844 492.222656 C 122.214844 488.488281 125.242188 485.464844 128.972656 485.464844 C 132.703125 485.464844 135.726562 488.488281 135.726562 492.222656 "/>
<path style="fill-rule:nonzero;fill:rgb(18.431373%,30.980392%,30.980392%);fill-opacity:1;stroke-width:0.708661;stroke-linecap:round;stroke-linejoin:round;stroke:rgb(18.431373%,30.980392%,30.980392%);stroke-opacity:1;stroke-miterlimit:10;" d="M 142.777344 379.507812 C 142.777344 383.238281 139.753906 386.261719 136.019531 386.261719 C 132.289062 386.261719 129.265625 383.238281 129.265625 379.507812 C 129.265625 375.777344 132.289062 372.75 136.019531 372.75 C 139.753906 372.75 142.777344 375.777344 142.777344 379.507812 "/>
<path style="fill-rule:nonzero;fill:rgb(18.431373%,30.980392%,30.980392%);fill-opacity:1;stroke-width:0.708661;stroke-linecap:round;stroke-linejoin:round;stroke:rgb(18.431373%,30.980392%,30.980392%);stroke-opacity:1;stroke-miterlimit:10;" d="M 149.828125 440.15625 C 149.828125 443.886719 146.800781 446.910156 143.070312 446.910156 C 139.339844 446.910156 136.3125 443.886719 136.3125 440.15625 C 136.3125 436.421875 139.339844 433.398438 143.070312 433.398438 C 146.800781 433.398438 149.828125 436.421875 149.828125 440.15625 "/>
<path style="fill-rule:nonzero;fill:rgb(18.431373%,30.980392%,30.980392%);fill-opacity:1;stroke-width:0.708661;stroke-linecap:round;stroke-linejoin:round;stroke:rgb(18.431373%,30.980392%,30.980392%);stroke-opacity:1;stroke-miterlimit:10;" d="M 156.875 424.101562 C 156.875 427.832031 153.851562 430.855469 150.121094 430.855469 C 146.386719 430.855469 143.363281 427.832031 143.363281 424.101562 C 143.363281 420.371094 146.386719 417.34375 150.121094 417.34375 C 153.851562 417.34375 156.875 420.371094 156.875 424.101562 "/>
<path style="fill-rule:nonzero;fill:rgb(18.431373%,30.980392%,30.980392%);fill-opacity:1;stroke-width:0.708661;stroke-linecap:round;stroke-linejoin:round;stroke:rgb(18.431373%,30.980392%,30.980392%);stroke-opacity:1;stroke-miterlimit:10;" d="M 163.925781 283.871094 C 163.925781 287.601562 160.898438 290.628906 157.167969 290.628906 C 153.4375 290.628906 150.414062 287.601562 150.414062 283.871094 C 150.414062 280.140625 153.4375 277.113281 157.167969 277.113281 C 160.898438 277.113281 163.925781 280.140625 163.925781 283.871094 "/>
<path style="fill-rule:nonzero;fill:rgb(18.431373%,30.980392%,30.980392%);fill-opacity:1;stroke-width:0.708661;stroke-linecap:round;stroke-linejoin:round;stroke:rgb(18.431373%,30.980392%,30.980392%);stroke-opacity:1;stroke-miterlimit:10;" d="M 170.972656 281.496094 C 170.972656 285.226562 167.949219 288.25 164.21875 288.25 C 160.488281 288.25 157.460938 285.226562 157.460938 281.496094 C 157.460938 277.765625 160.488281 274.738281 164.21875 274.738281 C 167.949219 274.738281 170.972656 277.765625 170.972656 281.496094 "/>
<path style="fill-rule:nonzero;fill:rgb(18.431373%,30.980392%,30.980392%);fill-opacity:1;stroke-width:0.708661;stroke-linecap:round;stroke-linejoin:round;stroke:rgb(18.431373%,30.980392%,30.980392%);stroke-opacity:1;stroke-miterlimit:10;" d="M 178.023438 305.417969 C 178.023438 309.148438 175 312.175781 171.265625 312.175781 C 167.535156 312.175781 164.511719 309.148438 164.511719 305.417969 C 164.511719 301.6875 167.535156 298.664062 171.265625 298.664062 C 175 298.664062 178.023438 301.6875 178.023438 305.417969 "/>
<path style="fill-rule:nonzero;fill:rgb(18.431373%,30.980392%,30.980392%);fill-opacity:1;stroke-width:0.708661;stroke-linecap:round;stroke-linejoin:round;stroke:rgb(18.431373%,30.980392%,30.980392%);stroke-opacity:1;stroke-miterlimit:10;" d="M 185.074219 397.34375 C 185.074219 401.074219 182.046875 404.097656 178.316406 404.097656 C 174.585938 404.097656 171.558594 401.074219 171.558594 397.34375 C 171.558594 393.609375 174.585938 390.585938 178.316406 390.585938 C 182.046875 390.585938 185.074219 393.609375 185.074219 397.34375 "/>
<path style="fill-rule:nonzero;fill:rgb(18.431373%,30.980392%,30.980392%);fill-opacity:1;stroke-width:0.708661;stroke-linecap:round;stroke-linejoin:round;stroke:rgb(18.431373%,30.980392%,30.980392%);stroke-opacity:1;stroke-miterlimit:10;" d="M 192.121094 307.453125 C 192.121094 311.1875 189.097656 314.210938 185.367188 314.210938 C 181.632812 314.210938 178.609375 311.1875 178.609375 307.453125 C 178.609375 303.722656 181.632812 300.699219 185.367188 300.699219 C 189.097656 300.699219 192.121094 303.722656 192.121094 307.453125 "/>
<path style="fill-rule:nonzero;fill:rgb(18.431373%,30.980392%,30.980392%);fill-opacity:1;stroke-width:0.708661;stroke-linecap:round;stroke-linejoin:round;stroke:rgb(18.431373%,30.980392%,30.980392%);stroke-opacity:1;stroke-miterlimit:10;" d="M 199.171875 319.945312 C 199.171875 323.675781 196.144531 326.699219 192.414062 326.699219 C 188.683594 326.699219 185.660156 323.675781 185.660156 319.945312 C 185.660156 316.210938 188.683594 313.1875 192.414062 313.1875 C 196.144531 313.1875 199.171875 316.210938 199.171875 319.945312 "/>
<path style="fill-rule:nonzero;fill:rgb(18.431373%,30.980392%,30.980392%);fill-opacity:1;stroke-width:0.708661;stroke-linecap:round;stroke-linejoin:round;stroke:rgb(18.431373%,30.980392%,30.980392%);stroke-opacity:1;stroke-miterlimit:10;" d="M 206.21875 397.585938 C 206.21875 401.316406 203.195312 404.339844 199.464844 404.339844 C 195.734375 404.339844 192.707031 401.316406 192.707031 397.585938 C 192.707031 393.855469 195.734375 390.828125 199.464844 390.828125 C 203.195312 390.828125 206.21875 393.855469 206.21875 397.585938 "/>
<path style="fill-rule:nonzero;fill:rgb(18.431373%,30.980392%,30.980392%);fill-opacity:1;stroke-width:0.708661;stroke-linecap:round;stroke-linejoin:round;stroke:rgb(18.431373%,30.980392%,30.980392%);stroke-opacity:1;stroke-miterlimit:10;" d="M 213.269531 425.714844 C 213.269531 429.445312 210.246094 432.46875 206.511719 432.46875 C 202.78125 432.46875 199.757812 429.445312 199.757812 425.714844 C 199.757812 421.980469 202.78125 418.957031 206.511719 418.957031 C 210.246094 418.957031 213.269531 421.980469 213.269531 425.714844 "/>
<path style="fill-rule:nonzero;fill:rgb(18.431373%,30.980392%,30.980392%);fill-opacity:1;stroke-width:0.708661;stroke-linecap:round;stroke-linejoin:round;stroke:rgb(18.431373%,30.980392%,30.980392%);stroke-opacity:1;stroke-miterlimit:10;" d="M 220.320312 385.121094 C 220.320312 388.851562 217.292969 391.875 213.5625 391.875 C 209.832031 391.875 206.804688 388.851562 206.804688 385.121094 C 206.804688 381.386719 209.832031 378.363281 213.5625 378.363281 C 217.292969 378.363281 220.320312 381.386719 220.320312 385.121094 "/>
<path style="fill-rule:nonzero;fill:rgb(18.431373%,30.980392%,30.980392%);fill-opacity:1;stroke-width:0.708661;stroke-linecap:round;stroke-linejoin:round;stroke:rgb(18.431373%,30.980392%,30.980392%);stroke-opacity:1;stroke-miterlimit:10;" d="M 227.367188 398.707031 C 227.367188 402.4375 224.34375 405.464844 220.613281 405.464844 C 216.878906 405.464844 213.855469 402.4375 213.855469 398.707031 C 213.855469 394.976562 216.878906 391.953125 220.613281 391.953125 C 224.34375 391.953125 227.367188 394.976562 227.367188 398.707031 "/>
<path style="fill-rule:nonzero;fill:rgb(18.431373%,30.980392%,30.980392%);fill-opacity:1;stroke-width:0.708661;stroke-linecap:round;stroke-linejoin:round;stroke:rgb(18.431373%,30.980392%,30.980392%);stroke-opacity:1;stroke-miterlimit:10;" d="M 234.417969 311.824219 C 234.417969 315.558594 231.390625 318.582031 227.660156 318.582031 C 223.929688 318.582031 220.90625 315.558594 220.90625 311.824219 C 220.90625 308.09375 223.929688 305.070312 227.660156 305.070312 C 231.390625 305.070312 234.417969 308.09375 234.417969 311.824219 "/>
<path style="fill-rule:nonzero;fill:rgb(18.431373%,30.980392%,30.980392%);fill-opacity:1;stroke-width:0.708661;stroke-linecap:round;stroke-linejoin:round;stroke:rgb(18.431373%,30.980392%,30.980392%);stroke-opacity:1;stroke-miterlimit:10;" d="M 241.464844 428.765625 C 241.464844 432.496094 238.441406 435.523438 234.710938 435.523438 C 230.980469 435.523438 227.953125 432.496094 227.953125 428.765625 C 227.953125 425.035156 230.980469 422.011719 234.710938 422.011719 C 238.441406 422.011719 241.464844 425.035156 241.464844 428.765625 "/>
<path style="fill-rule:nonzero;fill:rgb(18.431373%,30.980392%,30.980392%);fill-opacity:1;stroke-width:0.708661;stroke-linecap:round;stroke-linejoin:round;stroke:rgb(18.431373%,30.980392%,30.980392%);stroke-opacity:1;stroke-miterlimit:10;" d="M 248.515625 242.820312 C 248.515625 246.550781 245.492188 249.574219 241.757812 249.574219 C 238.027344 249.574219 235.003906 246.550781 235.003906 242.820312 C 235.003906 239.089844 238.027344 236.0625 241.757812 236.0625 C 245.492188 236.0625 248.515625 239.089844 248.515625 242.820312 "/>
<path style="fill-rule:nonzero;fill:rgb(18.431373%,30.980392%,30.980392%);fill-opacity:1;stroke-width:0.708661;stroke-linecap:round;stroke-linejoin:round;stroke:rgb(18.431373%,30.980392%,30.980392%);stroke-opacity:1;stroke-miterlimit:10;" d="M 255.566406 395.832031 C 255.566406 399.5625 252.539062 402.589844 248.808594 402.589844 C 245.078125 402.589844 242.050781 399.5625 242.050781 395.832031 C 242.050781 392.101562 245.078125 389.074219 248.808594 389.074219 C 252.539062 389.074219 255.566406 392.101562 255.566406 395.832031 "/>
<path style="fill-rule:nonzero;fill:rgb(18.431373%,30.980392%,30.980392%);fill-opacity:1;stroke-width:0.708661;stroke-linecap:round;stroke-linejoin:round;stroke:rgb(18.431373%,30.980392%,30.980392%);stroke-opacity:1;stroke-miterlimit:10;" d="M 262.613281 377.277344 C 262.613281 381.007812 259.589844 384.035156 255.859375 384.035156 C 252.125 384.035156 249.101562 381.007812 249.101562 377.277344 C 249.101562 373.546875 252.125 370.519531 255.859375 370.519531 C 259.589844 370.519531 262.613281 373.546875 262.613281 377.277344 "/>
<path style="fill-rule:nonzero;fill:rgb(18.431373%,30.980392%,30.980392%);fill-opacity:1;stroke-width:0.708661;stroke-linecap:round;stroke-linejoin:round;stroke:rgb(18.431373%,30.980392%,30.980392%);stroke-opacity:1;stroke-miterlimit:10;" d="M 269.664062 266.675781 C 269.664062 270.40625 266.636719 273.429688 262.90625 273.429688 C 259.175781 273.429688 256.152344 270.40625 256.152344 266.675781 C 256.152344 262.945312 259.175781 259.917969 262.90625 259.917969 C 266.636719 259.917969 269.664062 262.945312 269.664062 266.675781 "/>
<path style="fill-rule:nonzero;fill:rgb(18.431373%,30.980392%,30.980392%);fill-opacity:1;stroke-width:0.708661;stroke-linecap:round;stroke-linejoin:round;stroke:rgb(18.431373%,30.980392%,30.980392%);stroke-opacity:1;stroke-miterlimit:10;" d="M 276.710938 442.179688 C 276.710938 445.910156 273.6875 448.9375 269.957031 448.9375 C 266.226562 448.9375 263.199219 445.910156 263.199219 442.179688 C 263.199219 438.449219 266.226562 435.421875 269.957031 435.421875 C 273.6875 435.421875 276.710938 438.449219 276.710938 442.179688 "/>
<path style="fill-rule:nonzero;fill:rgb(18.431373%,30.980392%,30.980392%);fill-opacity:1;stroke-width:0.708661;stroke-linecap:round;stroke-linejoin:round;stroke:rgb(18.431373%,30.980392%,30.980392%);stroke-opacity:1;stroke-miterlimit:10;" d="M 283.761719 426.015625 C 283.761719 429.746094 280.738281 432.773438 277.003906 432.773438 C 273.273438 432.773438 270.25 429.746094 270.25 426.015625 C 270.25 422.285156 273.273438 419.257812 277.003906 419.257812 C 280.738281 419.257812 283.761719 422.285156 283.761719 426.015625 "/>
<path style="fill-rule:nonzero;fill:rgb(18.431373%,30.980392%,30.980392%);fill-opacity:1;stroke-width:0.708661;stroke-linecap:round;stroke-linejoin:round;stroke:rgb(18.431373%,30.980392%,30.980392%);stroke-opacity:1;stroke-miterlimit:10;" d="M 290.8125 316.832031 C 290.8125 320.5625 287.785156 323.585938 284.054688 323.585938 C 280.324219 323.585938 277.296875 320.5625 277.296875 316.832031 C 277.296875 313.097656 280.324219 310.074219 284.054688 310.074219 C 287.785156 310.074219 290.8125 313.097656 290.8125 316.832031 "/>
<path style="fill-rule:nonzero;fill:rgb(18.431373%,30.980392%,30.980392%);fill-opacity:1;stroke-width:0.708661;stroke-linecap:round;stroke-linejoin:round;stroke:rgb(18.431373%,30.980392%,30.980392%);stroke-opacity:1;stroke-miterlimit:10;" d="M 297.859375 307.175781 C 297.859375 310.90625 294.835938 313.929688 291.105469 313.929688 C 287.371094 313.929688 284.347656 310.90625 284.347656 307.175781 C 284.347656 303.441406 287.371094 300.417969 291.105469 300.417969 C 294.835938 300.417969 297.859375 303.441406 297.859375 307.175781 "/>
<path style="fill-rule:nonzero;fill:rgb(18.431373%,30.980392%,30.980392%);fill-opacity:1;stroke-width:0.708661;stroke-linecap:round;stroke-linejoin:round;stroke:rgb(18.431373%,30.980392%,30.980392%);stroke-opacity:1;stroke-miterlimit:10;" d="M 304.910156 338.960938 C 304.910156 342.695312 301.882812 345.71875 298.152344 345.71875 C 294.421875 345.71875 291.398438 342.695312 291.398438 338.960938 C 291.398438 335.230469 294.421875 332.207031 298.152344 332.207031 C 301.882812 332.207031 304.910156 335.230469 304.910156 338.960938 "/>
<path style="fill-rule:nonzero;fill:rgb(18.431373%,30.980392%,30.980392%);fill-opacity:1;stroke-width:0.708661;stroke-linecap:round;stroke-linejoin:round;stroke:rgb(18.431373%,30.980392%,30.980392%);stroke-opacity:1;stroke-miterlimit:10;" d="M 311.957031 134.269531 C 311.957031 138 308.933594 141.027344 305.203125 141.027344 C 301.472656 141.027344 298.445312 138 298.445312 134.269531 C 298.445312 130.539062 301.472656 127.511719 305.203125 127.511719 C 308.933594 127.511719 311.957031 130.539062 311.957031 134.269531 "/>
<path style="fill-rule:nonzero;fill:rgb(18.431373%,30.980392%,30.980392%);fill-opacity:1;stroke-width:0.708661;stroke-linecap:round;stroke-linejoin:round;stroke:rgb(18.431373%,30.980392%,30.980392%);stroke-opacity:1;stroke-miterlimit:10;" d="M 319.007812 256.253906 C 319.007812 259.984375 315.984375 263.007812 312.25 263.007812 C 308.519531 263.007812 305.496094 259.984375 305.496094 256.253906 C 305.496094 252.519531 308.519531 249.496094 312.25 249.496094 C 315.984375 249.496094 319.007812 252.519531 319.007812 256.253906 "/>
<path style="fill-rule:nonzero;fill:rgb(18.431373%,30.980392%,30.980392%);fill-opacity:1;stroke-width:0.708661;stroke-linecap:round;stroke-linejoin:round;stroke:rgb(18.431373%,30.980392%,30.980392%);stroke-opacity:1;stroke-miterlimit:10;" d="M 326.058594 233.042969 C 326.058594 236.777344 323.03125 239.800781 319.300781 239.800781 C 315.570312 239.800781 312.542969 236.777344 312.542969 233.042969 C 312.542969 229.3125 315.570312 226.289062 319.300781 226.289062 C 323.03125 226.289062 326.058594 229.3125 326.058594 233.042969 "/>
<path style="fill-rule:nonzero;fill:rgb(18.431373%,30.980392%,30.980392%);fill-opacity:1;stroke-width:0.708661;stroke-linecap:round;stroke-linejoin:round;stroke:rgb(18.431373%,30.980392%,30.980392%);stroke-opacity:1;stroke-miterlimit:10;" d="M 333.105469 343.605469 C 333.105469 347.335938 330.082031 350.363281 326.351562 350.363281 C 322.617188 350.363281 319.59375 347.335938 319.59375 343.605469 C 319.59375 339.875 322.617188 336.851562 326.351562 336.851562 C 330.082031 336.851562 333.105469 339.875 333.105469 343.605469 "/>
<path style="fill-rule:nonzero;fill:rgb(18.431373%,30.980392%,30.980392%);fill-opacity:1;stroke-width:0.708661;stroke-linecap:round;stroke-linejoin:round;stroke:rgb(18.431373%,30.980392%,30.980392%);stroke-opacity:1;stroke-miterlimit:10;" d="M 340.15625 396.109375 C 340.15625 399.84375 337.128906 402.867188 333.398438 402.867188 C 329.667969 402.867188 326.644531 399.84375 326.644531 396.109375 C 326.644531 392.378906 329.667969 389.355469 333.398438 389.355469 C 337.128906 389.355469 340.15625 392.378906 340.15625 396.109375 "/>
<path style="fill-rule:nonzero;fill:rgb(18.431373%,30.980392%,30.980392%);fill-opacity:1;stroke-width:0.708661;stroke-linecap:round;stroke-linejoin:round;stroke:rgb(18.431373%,30.980392%,30.980392%);stroke-opacity:1;stroke-miterlimit:10;" d="M 347.203125 246.707031 C 347.203125 250.4375 344.179688 253.464844 340.449219 253.464844 C 336.71875 253.464844 333.691406 250.4375 333.691406 246.707031 C 333.691406 242.976562 336.71875 239.953125 340.449219 239.953125 C 344.179688 239.953125 347.203125 242.976562 347.203125 246.707031 "/>
<path style="fill-rule:nonzero;fill:rgb(18.431373%,30.980392%,30.980392%);fill-opacity:1;stroke-width:0.708661;stroke-linecap:round;stroke-linejoin:round;stroke:rgb(18.431373%,30.980392%,30.980392%);stroke-opacity:1;stroke-miterlimit:10;" d="M 354.253906 216.023438 C 354.253906 219.753906 351.230469 222.777344 347.496094 222.777344 C 343.765625 222.777344 340.742188 219.753906 340.742188 216.023438 C 340.742188 212.292969 343.765625 209.265625 347.496094 209.265625 C 351.230469 209.265625 354.253906 212.292969 354.253906 216.023438 "/>
<path style="fill-rule:nonzero;fill:rgb(18.431373%,30.980392%,30.980392%);fill-opacity:1;stroke-width:0.708661;stroke-linecap:round;stroke-linejoin:round;stroke:rgb(18.431373%,30.980392%,30.980392%);stroke-opacity:1;stroke-miterlimit:10;" d="M 361.304688 411.035156 C 361.304688 414.765625 358.277344 417.792969 354.546875 417.792969 C 350.816406 417.792969 347.789062 414.765625 347.789062 411.035156 C 347.789062 407.304688 350.816406 404.28125 354.546875 404.28125 C 358.277344 404.28125 361.304688 407.304688 361.304688 411.035156 "/>
<path style="fill-rule:nonzero;fill:rgb(18.431373%,30.980392%,30.980392%);fill-opacity:1;stroke-width:0.708661;stroke-linecap:round;stroke-linejoin:round;stroke:rgb(18.431373%,30.980392%,30.980392%);stroke-opacity:1;stroke-miterlimit:10;" d="M 368.351562 244.132812 C 368.351562 247.863281 365.328125 250.890625 361.597656 250.890625 C 357.863281 250.890625 354.839844 247.863281 354.839844 244.132812 C 354.839844 240.402344 357.863281 237.375 361.597656 237.375 C 365.328125 237.375 368.351562 240.402344 368.351562 244.132812 "/>
<path style="fill-rule:nonzero;fill:rgb(18.431373%,30.980392%,30.980392%);fill-opacity:1;stroke-width:0.708661;stroke-linecap:round;stroke-linejoin:round;stroke:rgb(18.431373%,30.980392%,30.980392%);stroke-opacity:1;stroke-miterlimit:10;" d="M 375.402344 320.167969 C 375.402344 323.902344 372.375 326.925781 368.644531 326.925781 C 364.914062 326.925781 361.890625 323.902344 361.890625 320.167969 C 361.890625 316.4375 364.914062 313.414062 368.644531 313.414062 C 372.375 313.414062 375.402344 316.4375 375.402344 320.167969 "/>
<path style="fill-rule:nonzero;fill:rgb(18.431373%,30.980392%,30.980392%);fill-opacity:1;stroke-width:0.708661;stroke-linecap:round;stroke-linejoin:round;stroke:rgb(18.431373%,30.980392%,30.980392%);stroke-opacity:1;stroke-miterlimit:10;" d="M 382.449219 359.523438 C 382.449219 363.253906 379.425781 366.277344 375.695312 366.277344 C 371.964844 366.277344 368.9375 363.253906 368.9375 359.523438 C 368.9375 355.792969 371.964844 352.765625 375.695312 352.765625 C 379.425781 352.765625 382.449219 355.792969 382.449219 359.523438 "/>
<path style="fill-rule:nonzero;fill:rgb(18.431373%,30.980392%,30.980392%);fill-opacity:1;stroke-width:0.708661;stroke-linecap:round;stroke-linejoin:round;stroke:rgb(18.431373%,30.980392%,30.980392%);stroke-opacity:1;stroke-miterlimit:10;" d="M 389.5 307.609375 C 389.5 311.34375 386.476562 314.367188 382.742188 314.367188 C 379.011719 314.367188 375.988281 311.34375 375.988281 307.609375 C 375.988281 303.878906 379.011719 300.855469 382.742188 300.855469 C 386.476562 300.855469 389.5 303.878906 389.5 307.609375 "/>
<path style="fill-rule:nonzero;fill:rgb(18.431373%,30.980392%,30.980392%);fill-opacity:1;stroke-width:0.708661;stroke-linecap:round;stroke-linejoin:round;stroke:rgb(18.431373%,30.980392%,30.980392%);stroke-opacity:1;stroke-miterlimit:10;" d="M 396.550781 293.550781 C 396.550781 297.28125 393.523438 300.304688 389.792969 300.304688 C 386.0625 300.304688 383.035156 297.28125 383.035156 293.550781 C 383.035156 289.816406 386.0625 286.792969 389.792969 286.792969 C 393.523438 286.792969 396.550781 289.816406 396.550781 293.550781 "/>
<path style="fill-rule:nonzero;fill:rgb(18.431373%,30.980392%,30.980392%);fill-opacity:1;stroke-width:0.708661;stroke-linecap:round;stroke-linejoin:round;stroke:rgb(18.431373%,30.980392%,30.980392%);stroke-opacity:1;stroke-miterlimit:10;" d="M 403.597656 218.882812 C 403.597656 222.617188 400.574219 225.640625 396.84375 225.640625 C 393.109375 225.640625 390.085938 222.617188 390.085938 218.882812 C 390.085938 215.152344 393.109375 212.128906 396.84375 212.128906 C 400.574219 212.128906 403.597656 215.152344 403.597656 218.882812 "/>
<path style="fill-rule:nonzero;fill:rgb(18.431373%,30.980392%,30.980392%);fill-opacity:1;stroke-width:0.708661;stroke-linecap:round;stroke-linejoin:round;stroke:rgb(18.431373%,30.980392%,30.980392%);stroke-opacity:1;stroke-miterlimit:10;" d="M 410.648438 242.074219 C 410.648438 245.804688 407.621094 248.832031 403.890625 248.832031 C 400.160156 248.832031 397.136719 245.804688 397.136719 242.074219 C 397.136719 238.34375 400.160156 235.320312 403.890625 235.320312 C 407.621094 235.320312 410.648438 238.34375 410.648438 242.074219 "/>
<path style="fill-rule:nonzero;fill:rgb(18.431373%,30.980392%,30.980392%);fill-opacity:1;stroke-width:0.708661;stroke-linecap:round;stroke-linejoin:round;stroke:rgb(18.431373%,30.980392%,30.980392%);stroke-opacity:1;stroke-miterlimit:10;" d="M 417.695312 387.570312 C 417.695312 391.300781 414.671875 394.328125 410.941406 394.328125 C 407.210938 394.328125 404.183594 391.300781 404.183594 387.570312 C 404.183594 383.839844 407.210938 380.816406 410.941406 380.816406 C 414.671875 380.816406 417.695312 383.839844 417.695312 387.570312 "/>
<path style="fill-rule:nonzero;fill:rgb(18.431373%,30.980392%,30.980392%);fill-opacity:1;stroke-width:0.708661;stroke-linecap:round;stroke-linejoin:round;stroke:rgb(18.431373%,30.980392%,30.980392%);stroke-opacity:1;stroke-miterlimit:10;" d="M 424.746094 330.96875 C 424.746094 334.703125 421.722656 337.726562 417.988281 337.726562 C 414.257812 337.726562 411.234375 334.703125 411.234375 330.96875 C 411.234375 327.238281 414.257812 324.214844 417.988281 324.214844 C 421.722656 324.214844 424.746094 327.238281 424.746094 330.96875 "/>
<path style="fill-rule:nonzero;fill:rgb(18.431373%,30.980392%,30.980392%);fill-opacity:1;stroke-width:0.708661;stroke-linecap:round;stroke-linejoin:round;stroke:rgb(18.431373%,30.980392%,30.980392%);stroke-opacity:1;stroke-miterlimit:10;" d="M 431.796875 340.027344 C 431.796875 343.761719 428.769531 346.785156 425.039062 346.785156 C 421.308594 346.785156 418.28125 343.761719 418.28125 340.027344 C 418.28125 336.296875 421.308594 333.273438 425.039062 333.273438 C 428.769531 333.273438 431.796875 336.296875 431.796875 340.027344 "/>
<path style="fill-rule:nonzero;fill:rgb(18.431373%,30.980392%,30.980392%);fill-opacity:1;stroke-width:0.708661;stroke-linecap:round;stroke-linejoin:round;stroke:rgb(18.431373%,30.980392%,30.980392%);stroke-opacity:1;stroke-miterlimit:10;" d="M 438.84375 398.492188 C 438.84375 402.222656 435.820312 405.246094 432.089844 405.246094 C 428.355469 405.246094 425.332031 402.222656 425.332031 398.492188 C 425.332031 394.761719 428.355469 391.734375 432.089844 391.734375 C 435.820312 391.734375 438.84375 394.761719 438.84375 398.492188 "/>
<path style="fill-rule:nonzero;fill:rgb(18.431373%,30.980392%,30.980392%);fill-opacity:1;stroke-width:0.708661;stroke-linecap:round;stroke-linejoin:round;stroke:rgb(18.431373%,30.980392%,30.980392%);stroke-opacity:1;stroke-miterlimit:10;" d="M 445.894531 334.355469 C 445.894531 338.085938 442.867188 341.113281 439.136719 341.113281 C 435.40625 341.113281 432.382812 338.085938 432.382812 334.355469 C 432.382812 330.625 435.40625 327.601562 439.136719 327.601562 C 442.867188 327.601562 445.894531 330.625 445.894531 334.355469 "/>
<path style="fill-rule:nonzero;fill:rgb(18.431373%,30.980392%,30.980392%);fill-opacity:1;stroke-width:0.708661;stroke-linecap:round;stroke-linejoin:round;stroke:rgb(18.431373%,30.980392%,30.980392%);stroke-opacity:1;stroke-miterlimit:10;" d="M 452.941406 382.160156 C 452.941406 385.890625 449.917969 388.914062 446.1875 388.914062 C 442.457031 388.914062 439.429688 385.890625 439.429688 382.160156 C 439.429688 378.425781 442.457031 375.402344 446.1875 375.402344 C 449.917969 375.402344 452.941406 378.425781 452.941406 382.160156 "/>
<path style="fill-rule:nonzero;fill:rgb(18.431373%,30.980392%,30.980392%);fill-opacity:1;stroke-width:0.708661;stroke-linecap:round;stroke-linejoin:round;stroke:rgb(18.431373%,30.980392%,30.980392%);stroke-opacity:1;stroke-miterlimit:10;" d="M 459.992188 160.476562 C 459.992188 164.207031 456.96875 167.234375 453.234375 167.234375 C 449.503906 167.234375 446.480469 164.207031 446.480469 160.476562 C 446.480469 156.746094 449.503906 153.722656 453.234375 153.722656 C 456.96875 153.722656 459.992188 156.746094 459.992188 160.476562 "/>
<path style="fill-rule:nonzero;fill:rgb(18.431373%,30.980392%,30.980392%);fill-opacity:1;stroke-width:0.708661;stroke-linecap:round;stroke-linejoin:round;stroke:rgb(18.431373%,30.980392%,30.980392%);stroke-opacity:1;stroke-miterlimit:10;" d="M 467.042969 325.445312 C 467.042969 329.175781 464.015625 332.199219 460.285156 332.199219 C 456.554688 332.199219 453.527344 329.175781 453.527344 325.445312 C 453.527344 321.710938 456.554688 318.6875 460.285156 318.6875 C 464.015625 318.6875 467.042969 321.710938 467.042969 325.445312 "/>
<path style="fill-rule:nonzero;fill:rgb(18.431373%,30.980392%,30.980392%);fill-opacity:1;stroke-width:0.708661;stroke-linecap:round;stroke-linejoin:round;stroke:rgb(18.431373%,30.980392%,30.980392%);stroke-opacity:1;stroke-miterlimit:10;" d="M 474.089844 236.914062 C 474.089844 240.644531 471.066406 243.667969 467.335938 243.667969 C 463.601562 243.667969 460.578125 240.644531 460.578125 236.914062 C 460.578125 233.179688 463.601562 230.15625 467.335938 230.15625 C 471.066406 230.15625 474.089844 233.179688 474.089844 236.914062 "/>
<path style="fill-rule:nonzero;fill:rgb(18.431373%,30.980392%,30.980392%);fill-opacity:1;stroke-width:0.708661;stroke-linecap:round;stroke-linejoin:round;stroke:rgb(18.431373%,30.980392%,30.980392%);stroke-opacity:1;stroke-miterlimit:10;" d="M 481.140625 353.964844 C 481.140625 357.695312 478.113281 360.722656 474.382812 360.722656 C 470.652344 360.722656 467.628906 357.695312 467.628906 353.964844 C 467.628906 350.234375 470.652344 347.207031 474.382812 347.207031 C 478.113281 347.207031 481.140625 350.234375 481.140625 353.964844 "/>
<path style="fill-rule:nonzero;fill:rgb(18.431373%,30.980392%,30.980392%);fill-opacity:1;stroke-width:0.708661;stroke-linecap:round;stroke-linejoin:round;stroke:rgb(18.431373%,30.980392%,30.980392%);stroke-opacity:1;stroke-miterlimit:10;" d="M 488.1875 23.4375 C 488.1875 27.171875 485.164062 30.195312 481.433594 30.195312 C 477.703125 30.195312 474.675781 27.171875 474.675781 23.4375 C 474.675781 19.707031 477.703125 16.683594 481.433594 16.683594 C 485.164062 16.683594 488.1875 19.707031 488.1875 23.4375 "/>
<path style="fill-rule:nonzero;fill:rgb(18.431373%,30.980392%,30.980392%);fill-opacity:1;stroke-width:0.708661;stroke-linecap:round;stroke-linejoin:round;stroke:rgb(18.431373%,30.980392%,30.980392%);stroke-opacity:1;stroke-miterlimit:10;" d="M 495.238281 279.976562 C 495.238281 283.707031 492.214844 286.730469 488.480469 286.730469 C 484.75 286.730469 481.726562 283.707031 481.726562 279.976562 C 481.726562 276.242188 484.75 273.21875 488.480469 273.21875 C 492.214844 273.21875 495.238281 276.242188 495.238281 279.976562 "/>
<path style="fill-rule:nonzero;fill:rgb(18.431373%,30.980392%,30.980392%);fill-opacity:1;stroke-width:0.708661;stroke-linecap:round;stroke-linejoin:round;stroke:rgb(18.431373%,30.980392%,30.980392%);stroke-opacity:1;stroke-miterlimit:10;" d="M 502.289062 162.941406 C 502.289062 166.671875 499.261719 169.695312 495.53125 169.695312 C 491.800781 169.695312 488.773438 166.671875 488.773438 162.941406 C 488.773438 159.207031 491.800781 156.183594 495.53125 156.183594 C 499.261719 156.183594 502.289062 159.207031 502.289062 162.941406 "/>
<path style="fill-rule:nonzero;fill:rgb(18.431373%,30.980392%,30.980392%);fill-opacity:1;stroke-width:0.708661;stroke-linecap:round;stroke-linejoin:round;stroke:rgb(18.431373%,30.980392%,30.980392%);stroke-opacity:1;stroke-miterlimit:10;" d="M 509.335938 172.535156 C 509.335938 176.265625 506.3125 179.289062 502.582031 179.289062 C 498.847656 179.289062 495.824219 176.265625 495.824219 172.535156 C 495.824219 168.804688 498.847656 165.777344 502.582031 165.777344 C 506.3125 165.777344 509.335938 168.804688 509.335938 172.535156 "/>
<path style="fill-rule:nonzero;fill:rgb(18.431373%,30.980392%,30.980392%);fill-opacity:1;stroke-width:0.708661;stroke-linecap:round;stroke-linejoin:round;stroke:rgb(18.431373%,30.980392%,30.980392%);stroke-opacity:1;stroke-miterlimit:10;" d="M 516.386719 225.019531 C 516.386719 228.75 513.359375 231.773438 509.628906 231.773438 C 505.898438 231.773438 502.875 228.75 502.875 225.019531 C 502.875 221.289062 505.898438 218.261719 509.628906 218.261719 C 513.359375 218.261719 516.386719 221.289062 516.386719 225.019531 "/>
<path style="fill-rule:nonzero;fill:rgb(18.431373%,30.980392%,30.980392%);fill-opacity:1;stroke-width:0.708661;stroke-linecap:round;stroke-linejoin:round;stroke:rgb(18.431373%,30.980392%,30.980392%);stroke-opacity:1;stroke-miterlimit:10;" d="M 523.433594 340.738281 C 523.433594 344.46875 520.410156 347.496094 516.679688 347.496094 C 512.949219 347.496094 509.921875 344.46875 509.921875 340.738281 C 509.921875 337.007812 512.949219 333.984375 516.679688 333.984375 C 520.410156 333.984375 523.433594 337.007812 523.433594 340.738281 "/>
<path style="fill-rule:nonzero;fill:rgb(18.431373%,30.980392%,30.980392%);fill-opacity:1;stroke-width:0.708661;stroke-linecap:round;stroke-linejoin:round;stroke:rgb(18.431373%,30.980392%,30.980392%);stroke-opacity:1;stroke-miterlimit:10;" d="M 530.484375 393.609375 C 530.484375 397.339844 527.460938 400.367188 523.726562 400.367188 C 519.996094 400.367188 516.972656 397.339844 516.972656 393.609375 C 516.972656 389.878906 519.996094 386.855469 523.726562 386.855469 C 527.460938 386.855469 530.484375 389.878906 530.484375 393.609375 "/>
<path style="fill-rule:nonzero;fill:rgb(18.431373%,30.980392%,30.980392%);fill-opacity:1;stroke-width:0.708661;stroke-linecap:round;stroke-linejoin:round;stroke:rgb(18.431373%,30.980392%,30.980392%);stroke-opacity:1;stroke-miterlimit:10;" d="M 537.535156 356.261719 C 537.535156 359.996094 534.507812 363.019531 530.777344 363.019531 C 527.046875 363.019531 524.019531 359.996094 524.019531 356.261719 C 524.019531 352.53125 527.046875 349.507812 530.777344 349.507812 C 534.507812 349.507812 537.535156 352.53125 537.535156 356.261719 "/>
<path style="fill-rule:nonzero;fill:rgb(18.431373%,30.980392%,30.980392%);fill-opacity:1;stroke-width:0.708661;stroke-linecap:round;stroke-linejoin:round;stroke:rgb(18.431373%,30.980392%,30.980392%);stroke-opacity:1;stroke-miterlimit:10;" d="M 544.582031 220.242188 C 544.582031 223.972656 541.558594 226.996094 537.828125 226.996094 C 534.09375 226.996094 531.070312 223.972656 531.070312 220.242188 C 531.070312 216.507812 534.09375 213.484375 537.828125 213.484375 C 541.558594 213.484375 544.582031 216.507812 544.582031 220.242188 "/>
<path style="fill-rule:nonzero;fill:rgb(18.431373%,30.980392%,30.980392%);fill-opacity:1;stroke-width:0.708661;stroke-linecap:round;stroke-linejoin:round;stroke:rgb(18.431373%,30.980392%,30.980392%);stroke-opacity:1;stroke-miterlimit:10;" d="M 551.632812 358.234375 C 551.632812 361.964844 548.605469 364.988281 544.875 364.988281 C 541.144531 364.988281 538.121094 361.964844 538.121094 358.234375 C 538.121094 354.503906 541.144531 351.476562 544.875 351.476562 C 548.605469 351.476562 551.632812 354.503906 551.632812 358.234375 "/>
<path style="fill-rule:nonzero;fill:rgb(18.431373%,30.980392%,30.980392%);fill-opacity:1;stroke-width:0.708661;stroke-linecap:round;stroke-linejoin:round;stroke:rgb(18.431373%,30.980392%,30.980392%);stroke-opacity:1;stroke-miterlimit:10;" d="M 558.679688 220.023438 C 558.679688 223.757812 555.65625 226.78125 551.925781 226.78125 C 548.195312 226.78125 545.167969 223.757812 545.167969 220.023438 C 545.167969 216.292969 548.195312 213.269531 551.925781 213.269531 C 555.65625 213.269531 558.679688 216.292969 558.679688 220.023438 "/>
<path style="fill-rule:nonzero;fill:rgb(18.431373%,30.980392%,30.980392%);fill-opacity:1;stroke-width:0.708661;stroke-linecap:round;stroke-linejoin:round;stroke:rgb(18.431373%,30.980392%,30.980392%);stroke-opacity:1;stroke-miterlimit:10;" d="M 565.730469 285.738281 C 565.730469 289.46875 562.707031 292.496094 558.972656 292.496094 C 555.242188 292.496094 552.21875 289.46875 552.21875 285.738281 C 552.21875 282.007812 555.242188 278.980469 558.972656 278.980469 C 562.707031 278.980469 565.730469 282.007812 565.730469 285.738281 "/>
<path style="fill-rule:nonzero;fill:rgb(18.431373%,30.980392%,30.980392%);fill-opacity:1;stroke-width:0.708661;stroke-linecap:round;stroke-linejoin:round;stroke:rgb(18.431373%,30.980392%,30.980392%);stroke-opacity:1;stroke-miterlimit:10;" d="M 572.78125 289.378906 C 572.78125 293.109375 569.753906 296.132812 566.023438 296.132812 C 562.292969 296.132812 559.265625 293.109375 559.265625 289.378906 C 559.265625 285.644531 562.292969 282.621094 566.023438 282.621094 C 569.753906 282.621094 572.78125 285.644531 572.78125 289.378906 "/>
<path style="fill-rule:nonzero;fill:rgb(18.431373%,30.980392%,30.980392%);fill-opacity:1;stroke-width:0.708661;stroke-linecap:round;stroke-linejoin:round;stroke:rgb(18.431373%,30.980392%,30.980392%);stroke-opacity:1;stroke-miterlimit:10;" d="M 579.828125 303.195312 C 579.828125 306.925781 576.804688 309.953125 573.074219 309.953125 C 569.339844 309.953125 566.316406 306.925781 566.316406 303.195312 C 566.316406 299.464844 569.339844 296.441406 573.074219 296.441406 C 576.804688 296.441406 579.828125 299.464844 579.828125 303.195312 "/>
<path style="fill-rule:nonzero;fill:rgb(18.431373%,30.980392%,30.980392%);fill-opacity:1;stroke-width:0.708661;stroke-linecap:round;stroke-linejoin:round;stroke:rgb(18.431373%,30.980392%,30.980392%);stroke-opacity:1;stroke-miterlimit:10;" d="M 586.878906 256.898438 C 586.878906 260.628906 583.851562 263.652344 580.121094 263.652344 C 576.390625 263.652344 573.367188 260.628906 573.367188 256.898438 C 573.367188 253.164062 576.390625 250.140625 580.121094 250.140625 C 583.851562 250.140625 586.878906 253.164062 586.878906 256.898438 "/>
<path style="fill-rule:nonzero;fill:rgb(18.431373%,30.980392%,30.980392%);fill-opacity:1;stroke-width:0.708661;stroke-linecap:round;stroke-linejoin:round;stroke:rgb(18.431373%,30.980392%,30.980392%);stroke-opacity:1;stroke-miterlimit:10;" d="M 593.925781 260.90625 C 593.925781 264.636719 590.902344 267.660156 587.171875 267.660156 C 583.441406 267.660156 580.414062 264.636719 580.414062 260.90625 C 580.414062 257.175781 583.441406 254.148438 587.171875 254.148438 C 590.902344 254.148438 593.925781 257.175781 593.925781 260.90625 "/>
<path style="fill-rule:nonzero;fill:rgb(18.431373%,30.980392%,30.980392%);fill-opacity:1;stroke-width:0.708661;stroke-linecap:round;stroke-linejoin:round;stroke:rgb(18.431373%,30.980392%,30.980392%);stroke-opacity:1;stroke-miterlimit:10;" d="M 600.976562 269.75 C 600.976562 273.480469 597.953125 276.507812 594.21875 276.507812 C 590.488281 276.507812 587.464844 273.480469 587.464844 269.75 C 587.464844 266.019531 590.488281 262.996094 594.21875 262.996094 C 597.953125 262.996094 600.976562 266.019531 600.976562 269.75 "/>
<path style="fill-rule:nonzero;fill:rgb(18.431373%,30.980392%,30.980392%);fill-opacity:1;stroke-width:0.708661;stroke-linecap:round;stroke-linejoin:round;stroke:rgb(18.431373%,30.980392%,30.980392%);stroke-opacity:1;stroke-miterlimit:10;" d="M 608.027344 267.558594 C 608.027344 271.289062 605 274.3125 601.269531 274.3125 C 597.539062 274.3125 594.511719 271.289062 594.511719 267.558594 C 594.511719 263.828125 597.539062 260.800781 601.269531 260.800781 C 605 260.800781 608.027344 263.828125 608.027344 267.558594 "/>
<path style="fill-rule:nonzero;fill:rgb(18.431373%,30.980392%,30.980392%);fill-opacity:1;stroke-width:0.708661;stroke-linecap:round;stroke-linejoin:round;stroke:rgb(18.431373%,30.980392%,30.980392%);stroke-opacity:1;stroke-miterlimit:10;" d="M 615.074219 217.613281 C 615.074219 221.34375 612.050781 224.371094 608.320312 224.371094 C 604.585938 224.371094 601.5625 221.34375 601.5625 217.613281 C 601.5625 213.882812 604.585938 210.859375 608.320312 210.859375 C 612.050781 210.859375 615.074219 213.882812 615.074219 217.613281 "/>
<path style="fill-rule:nonzero;fill:rgb(18.431373%,30.980392%,30.980392%);fill-opacity:1;stroke-width:0.708661;stroke-linecap:round;stroke-linejoin:round;stroke:rgb(18.431373%,30.980392%,30.980392%);stroke-opacity:1;stroke-miterlimit:10;" d="M 622.125 249.089844 C 622.125 252.820312 619.097656 255.847656 615.367188 255.847656 C 611.636719 255.847656 608.613281 252.820312 608.613281 249.089844 C 608.613281 245.359375 611.636719 242.332031 615.367188 242.332031 C 619.097656 242.332031 622.125 245.359375 622.125 249.089844 "/>
<path style="fill-rule:nonzero;fill:rgb(18.431373%,30.980392%,30.980392%);fill-opacity:1;stroke-width:0.708661;stroke-linecap:round;stroke-linejoin:round;stroke:rgb(18.431373%,30.980392%,30.980392%);stroke-opacity:1;stroke-miterlimit:10;" d="M 629.171875 252.757812 C 629.171875 256.488281 626.148438 259.511719 622.417969 259.511719 C 618.6875 259.511719 615.660156 256.488281 615.660156 252.757812 C 615.660156 249.027344 618.6875 246 622.417969 246 C 626.148438 246 629.171875 249.027344 629.171875 252.757812 "/>
<path style="fill-rule:nonzero;fill:rgb(18.431373%,30.980392%,30.980392%);fill-opacity:1;stroke-width:0.708661;stroke-linecap:round;stroke-linejoin:round;stroke:rgb(18.431373%,30.980392%,30.980392%);stroke-opacity:1;stroke-miterlimit:10;" d="M 636.222656 255.5 C 636.222656 259.230469 633.199219 262.257812 629.464844 262.257812 C 625.734375 262.257812 622.710938 259.230469 622.710938 255.5 C 622.710938 251.769531 625.734375 248.746094 629.464844 248.746094 C 633.199219 248.746094 636.222656 251.769531 636.222656 255.5 "/>
<path style="fill-rule:nonzero;fill:rgb(18.431373%,30.980392%,30.980392%);fill-opacity:1;stroke-width:0.708661;stroke-linecap:round;stroke-linejoin:round;stroke:rgb(18.431373%,30.980392%,30.980392%);stroke-opacity:1;stroke-miterlimit:10;" d="M 643.273438 301.289062 C 643.273438 305.019531 640.246094 308.046875 636.515625 308.046875 C 632.785156 308.046875 629.757812 305.019531 629.757812 301.289062 C 629.757812 297.558594 632.785156 294.53125 636.515625 294.53125 C 640.246094 294.53125 643.273438 297.558594 643.273438 301.289062 "/>
<path style="fill-rule:nonzero;fill:rgb(18.431373%,30.980392%,30.980392%);fill-opacity:1;stroke-width:0.708661;stroke-linecap:round;stroke-linejoin:round;stroke:rgb(18.431373%,30.980392%,30.980392%);stroke-opacity:1;stroke-miterlimit:10;" d="M 650.320312 227.632812 C 650.320312 231.363281 647.296875 234.386719 643.566406 234.386719 C 639.832031 234.386719 636.808594 231.363281 636.808594 227.632812 C 636.808594 223.898438 639.832031 220.875 643.566406 220.875 C 647.296875 220.875 650.320312 223.898438 650.320312 227.632812 "/>
<path style="fill-rule:nonzero;fill:rgb(18.431373%,30.980392%,30.980392%);fill-opacity:1;stroke-width:0.708661;stroke-linecap:round;stroke-linejoin:round;stroke:rgb(18.431373%,30.980392%,30.980392%);stroke-opacity:1;stroke-miterlimit:10;" d="M 657.371094 297.042969 C 657.371094 300.773438 654.34375 303.796875 650.613281 303.796875 C 646.882812 303.796875 643.859375 300.773438 643.859375 297.042969 C 643.859375 293.308594 646.882812 290.285156 650.613281 290.285156 C 654.34375 290.285156 657.371094 293.308594 657.371094 297.042969 "/>
<path style="fill-rule:nonzero;fill:rgb(18.431373%,30.980392%,30.980392%);fill-opacity:1;stroke-width:0.708661;stroke-linecap:round;stroke-linejoin:round;stroke:rgb(18.431373%,30.980392%,30.980392%);stroke-opacity:1;stroke-miterlimit:10;" d="M 664.417969 206.5 C 664.417969 210.230469 661.394531 213.257812 657.664062 213.257812 C 653.933594 213.257812 650.90625 210.230469 650.90625 206.5 C 650.90625 202.769531 653.933594 199.742188 657.664062 199.742188 C 661.394531 199.742188 664.417969 202.769531 664.417969 206.5 "/>
<path style="fill-rule:nonzero;fill:rgb(18.431373%,30.980392%,30.980392%);fill-opacity:1;stroke-width:0.708661;stroke-linecap:round;stroke-linejoin:round;stroke:rgb(18.431373%,30.980392%,30.980392%);stroke-opacity:1;stroke-miterlimit:10;" d="M 671.46875 124.1875 C 671.46875 127.917969 668.445312 130.941406 664.710938 130.941406 C 660.980469 130.941406 657.957031 127.917969 657.957031 124.1875 C 657.957031 120.453125 660.980469 117.429688 664.710938 117.429688 C 668.445312 117.429688 671.46875 120.453125 671.46875 124.1875 "/>
<path style="fill-rule:nonzero;fill:rgb(18.431373%,30.980392%,30.980392%);fill-opacity:1;stroke-width:0.708661;stroke-linecap:round;stroke-linejoin:round;stroke:rgb(18.431373%,30.980392%,30.980392%);stroke-opacity:1;stroke-miterlimit:10;" d="M 678.519531 158.25 C 678.519531 161.980469 675.492188 165.003906 671.761719 165.003906 C 668.03125 165.003906 665.003906 161.980469 665.003906 158.25 C 665.003906 154.515625 668.03125 151.492188 671.761719 151.492188 C 675.492188 151.492188 678.519531 154.515625 678.519531 158.25 "/>
<path style="fill-rule:nonzero;fill:rgb(18.431373%,30.980392%,30.980392%);fill-opacity:1;stroke-width:0.708661;stroke-linecap:round;stroke-linejoin:round;stroke:rgb(18.431373%,30.980392%,30.980392%);stroke-opacity:1;stroke-miterlimit:10;" d="M 685.566406 307.265625 C 685.566406 310.996094 682.542969 314.023438 678.8125 314.023438 C 675.078125 314.023438 672.054688 310.996094 672.054688 307.265625 C 672.054688 303.535156 675.078125 300.507812 678.8125 300.507812 C 682.542969 300.507812 685.566406 303.535156 685.566406 307.265625 "/>
<path style="fill-rule:nonzero;fill:rgb(18.431373%,30.980392%,30.980392%);fill-opacity:1;stroke-width:0.708661;stroke-linecap:round;stroke-linejoin:round;stroke:rgb(18.431373%,30.980392%,30.980392%);stroke-opacity:1;stroke-miterlimit:10;" d="M 692.617188 268.476562 C 692.617188 272.207031 689.589844 275.230469 685.859375 275.230469 C 682.128906 275.230469 679.105469 272.207031 679.105469 268.476562 C 679.105469 264.742188 682.128906 261.71875 685.859375 261.71875 C 689.589844 261.71875 692.617188 264.742188 692.617188 268.476562 "/>
<path style="fill-rule:nonzero;fill:rgb(18.431373%,30.980392%,30.980392%);fill-opacity:1;stroke-width:0.708661;stroke-linecap:round;stroke-linejoin:round;stroke:rgb(18.431373%,30.980392%,30.980392%);stroke-opacity:1;stroke-miterlimit:10;" d="M 699.664062 215.199219 C 699.664062 218.929688 696.640625 221.953125 692.910156 221.953125 C 689.179688 221.953125 686.152344 218.929688 686.152344 215.199219 C 686.152344 211.464844 689.179688 208.441406 692.910156 208.441406 C 696.640625 208.441406 699.664062 211.464844 699.664062 215.199219 "/>
<path style="fill-rule:nonzero;fill:rgb(18.431373%,30.980392%,30.980392%);fill-opacity:1;stroke-width:0.708661;stroke-linecap:round;stroke-linejoin:round;stroke:rgb(18.431373%,30.980392%,30.980392%);stroke-opacity:1;stroke-miterlimit:10;" d="M 706.714844 91.921875 C 706.714844 95.652344 703.691406 98.675781 699.957031 98.675781 C 696.226562 98.675781 693.203125 95.652344 693.203125 91.921875 C 693.203125 88.1875 696.226562 85.164062 699.957031 85.164062 C 703.691406 85.164062 706.714844 88.1875 706.714844 91.921875 "/>
<path style="fill-rule:nonzero;fill:rgb(18.431373%,30.980392%,30.980392%);fill-opacity:1;stroke-width:0.708661;stroke-linecap:round;stroke-linejoin:round;stroke:rgb(18.431373%,30.980392%,30.980392%);stroke-opacity:1;stroke-miterlimit:10;" d="M 713.765625 105.246094 C 713.765625 108.976562 710.738281 112 707.007812 112 C 703.277344 112 700.25 108.976562 700.25 105.246094 C 700.25 101.515625 703.277344 98.488281 707.007812 98.488281 C 710.738281 98.488281 713.765625 101.515625 713.765625 105.246094 "/>
<path style="fill-rule:nonzero;fill:rgb(18.431373%,30.980392%,30.980392%);fill-opacity:1;stroke-width:0.708661;stroke-linecap:round;stroke-linejoin:round;stroke:rgb(18.431373%,30.980392%,30.980392%);stroke-opacity:1;stroke-miterlimit:10;" d="M 720.8125 100.191406 C 720.8125 103.925781 717.789062 106.949219 714.058594 106.949219 C 710.324219 106.949219 707.300781 103.925781 707.300781 100.191406 C 707.300781 96.460938 710.324219 93.4375 714.058594 93.4375 C 717.789062 93.4375 720.8125 96.460938 720.8125 100.191406 "/>
<path style="fill-rule:nonzero;fill:rgb(18.431373%,30.980392%,30.980392%);fill-opacity:1;stroke-width:0.708661;stroke-linecap:round;stroke-linejoin:round;stroke:rgb(18.431373%,30.980392%,30.980392%);stroke-opacity:1;stroke-miterlimit:10;" d="M 727.863281 192.035156 C 727.863281 195.765625 724.835938 198.792969 721.105469 198.792969 C 717.375 198.792969 714.351562 195.765625 714.351562 192.035156 C 714.351562 188.304688 717.375 185.277344 721.105469 185.277344 C 724.835938 185.277344 727.863281 188.304688 727.863281 192.035156 "/>
<path style="fill:none;stroke-width:6.40187;stroke-linecap:butt;stroke-linejoin:round;stroke:rgb(94.117647%,50.196078%,50.196078%);stroke-opacity:1;stroke-miterlimit:10;" d="M 23.234375 389.808594 L 32.066406 387.558594 L 40.902344 385.308594 L 49.734375 383.058594 L 58.570312 380.808594 L 67.402344 378.558594 L 76.238281 376.308594 L 85.070312 374.0625 L 93.902344 371.8125 L 102.738281 369.5625 L 111.570312 367.3125 L 120.40625 365.0625 L 129.238281 362.8125 L 138.074219 360.5625 L 146.90625 358.3125 L 155.742188 356.0625 L 164.574219 353.8125 L 173.410156 351.5625 L 182.242188 349.3125 L 191.078125 347.0625 L 199.910156 344.816406 L 208.742188 342.566406 L 217.578125 340.316406 L 226.410156 338.066406 L 235.246094 335.816406 L 244.078125 333.566406 L 252.914062 331.316406 L 261.746094 329.066406 L 270.582031 326.816406 L 279.414062 324.566406 L 288.25 322.316406 L 297.082031 320.066406 L 305.917969 317.820312 L 323.582031 313.320312 L 332.417969 311.070312 L 341.25 308.820312 L 350.085938 306.570312 L 358.917969 304.320312 L 367.753906 302.070312 L 376.585938 299.820312 L 385.421875 297.570312 L 394.253906 295.320312 L 403.089844 293.070312 L 411.921875 290.820312 L 420.757812 288.574219 L 438.421875 284.074219 L 447.257812 281.824219 L 456.089844 279.574219 L 464.925781 277.324219 L 473.757812 275.074219 L 482.59375 272.824219 L 491.425781 270.574219 L 500.261719 268.324219 L 509.09375 266.074219 L 517.929688 263.824219 L 526.761719 261.578125 L 535.597656 259.328125 L 553.261719 254.828125 L 562.097656 252.578125 L 570.929688 250.328125 L 579.765625 248.078125 L 588.597656 245.828125 L 597.433594 243.578125 L 606.265625 241.328125 L 615.101562 239.078125 L 623.933594 236.828125 L 632.769531 234.578125 L 641.601562 232.332031 L 650.4375 230.082031 L 668.101562 225.582031 L 676.9375 223.332031 L 685.769531 221.082031 L 694.605469 218.832031 L 703.4375 216.582031 L 712.273438 214.332031 L 721.105469 212.082031 "/>
</g>
</svg>
