<?xml version="1.0" encoding="UTF-8"?>
<svg xmlns="http://www.w3.org/2000/svg" xmlns:xlink="http://www.w3.org/1999/xlink" width="756pt" height="504pt" viewBox="0 0 756 504" version="1.1">
<g id="surface29">
<rect x="0" y="0" width="756" height="504" style="fill:rgb(100%,100%,100%);fill-opacity:1;stroke:none;"/>
<path style="fill-rule:nonzero;fill:rgb(18.431373%,30.980392%,30.980392%);fill-opacity:1;stroke-width:0.708661;stroke-linecap:round;stroke-linejoin:round;stroke:rgb(18.431373%,30.980392%,30.980392%);stroke-opacity:1;stroke-miterlimit:10;" d="M 29.988281 448.46875 C 29.988281 452.199219 26.964844 455.226562 23.234375 455.226562 C 19.503906 455.226562 16.476562 452.199219 16.476562 448.46875 C 16.476562 444.738281 19.503906 441.710938 23.234375 441.710938 C 26.964844 441.710938 29.988281 444.738281 29.988281 448.46875 "/>
<path style="fill-rule:nonzero;fill:rgb(18.431373%,30.980392%,30.980392%);fill-opacity:1;stroke-width:0.708661;stroke-linecap:round;stroke-linejoin:round;stroke:rgb(18.431373%,30.980392%,30.980392%);stroke-opacity:1;stroke-miterlimit:10;" d="M 37.039062 467.085938 C 37.039062 470.820312 34.015625 473.84375 30.28125 473.84375 C 26.550781 473.84375 23.527344 470.820312 23.527344 467.085938 C 23.527344 463.355469 26.550781 460.332031 30.28125 460.332031 C 34.015625 460.332031 37.039062 463.355469 37.039062 467.085938 "/>
<path style="fill-rule:nonzero;fill:rgb(18.431373%,30.980392%,30.980392%);fill-opacity:1;stroke-width:0.708661;stroke-linecap:round;stroke-linejoin:round;stroke:rgb(18.431373%,30.980392%,30.980392%);stroke-opacity:1;stroke-miterlimit:10;" d="M 44.089844 487.03125 C 44.089844 490.761719 41.0625 493.785156 37.332031 493.785156 C 33.601562 493.785156 30.574219 490.761719 30.574219 487.03125 C 30.574219 483.296875 33.601562 480.273438 37.332031 480.273438 C 41.0625 480.273438 44.089844 483.296875 44.089844 487.03125 "/>
<path style="fill-rule:nonzero;fill:rgb(18.431373%,30.980392%,30.980392%);fill-opacity:1;stroke-width:0.708661;stroke-linecap:round;stroke-linejoin:round;stroke:rgb(18.431373%,30.980392%,30.980392%);stroke-opacity:1;stroke-miterlimit:10;" d="M 51.136719 469.886719 C 51.136719 473.621094 48.113281 476.644531 44.382812 476.644531 C 40.648438 476.644531 37.625 473.621094 37.625 469.886719 C 37.625 466.15625 40.648438 463.132812 44.382812 463.132812 C 48.113281 463.132812 51.136719 466.15625 51.136719 469.886719 "/>
<path style="fill-rule:nonzero;fill:rgb(18.431373%,30.980392%,30.980392%);fill-opacity:1;stroke-width:0.708661;stroke-linecap:round;stroke-linejoin:round;stroke:rgb(18.431373%,30.980392%,30.980392%);stroke-opacity:1;stroke-miterlimit:10;" d="M 58.1875 448.152344 C 58.1875 451.882812 55.160156 454.90625 51.429688 454.90625 C 47.699219 454.90625 44.675781 451.882812 44.675781 448.152344 C 44.675781 444.421875 47.699219 441.394531 51.429688 441.394531 C 55.160156 441.394531 58.1875 444.421875 58.1875 448.152344 "/>
<path style="fill-rule:nonzero;fill:rgb(18.431373%,30.980392%,30.980392%);fill-opacity:1;stroke-width:0.708661;stroke-linecap:round;stroke-linejoin:round;stroke:rgb(18.431373%,30.980392%,30.980392%);stroke-opacity:1;stroke-miterlimit:10;" d="M 65.234375 449.828125 C 65.234375 453.558594 62.210938 456.585938 58.480469 456.585938 C 54.75 456.585938 51.722656 453.558594 51.722656 449.828125 C 51.722656 446.097656 54.75 443.070312 58.480469 443.070312 C 62.210938 443.070312 65.234375 446.097656 65.234375 449.828125 "/>
<path style="fill-rule:nonzero;fill:rgb(18.431373%,30.980392%,30.980392%);fill-opacity:1;stroke-width:0.708661;stroke-linecap:round;stroke-linejoin:round;stroke:rgb(18.431373%,30.980392%,30.980392%);stroke-opacity:1;stroke-miterlimit:10;" d="M 72.285156 492.222656 C 72.285156 495.953125 69.261719 498.976562 65.527344 498.976562 C 61.796875 498.976562 58.773438 495.953125 58.773438 492.222656 C 58.773438 488.488281 61.796875 485.464844 65.527344 485.464844 C 69.261719 485.464844 72.285156 488.488281 72.285156 492.222656 "/>
<path style="fill-rule:nonzero;fill:rgb(18.431373%,30.980392%,30.980392%);fill-opacity:1;stroke-width:0.708661;stroke-linecap:round;stroke-linejoin:round;stroke:rgb(18.431373%,30.980392%,30.980392%);stroke-opacity:1;stroke-miterlimit:10;" d="M 79.335938 474.082031 C 79.335938 477.8125 76.308594 480.839844 72.578125 480.839844 C 68.847656 480.839844 65.820312 477.8125 65.820312 474.082031 C 65.820312 470.351562 68.847656 467.324219 72.578125 467.324219 C 76.308594 467.324219 79.335938 470.351562 79.335938 474.082031 "/>
<path style="fill-rule:nonzero;fill:rgb(18.431373%,30.980392%,30.980392%);fill-opacity:1;stroke-width:0.708661;stroke-linecap:round;stroke-linejoin:round;stroke:rgb(18.431373%,30.980392%,30.980392%);stroke-opacity:1;stroke-miterlimit:10;" d="M 86.382812 448.199219 C 86.382812 451.929688 83.359375 454.953125 79.628906 454.953125 C 75.894531 454.953125 72.871094 451.929688 72.871094 448.199219 C 72.871094 444.464844 75.894531 441.441406 79.628906 441.441406 C 83.359375 441.441406 86.382812 444.464844 86.382812 448.199219 "/>
<path style="fill-rule:nonzero;fill:rgb(18.431373%,30.980392%,30.980392%);fill-opacity:1;stroke-width:0.708661;stroke-linecap:round;stroke-linejoin:round;stroke:rgb(18.431373%,30.980392%,30.980392%);stroke-opacity:1;stroke-miterlimit:10;" d="M 93.433594 418.277344 C 93.433594 422.007812 90.40625 425.03125 86.675781 425.03125 C 82.945312 425.03125 79.921875 422.007812 79.921875 418.277344 C 79.921875 414.546875 82.945312 411.519531 86.675781 411.519531 C 90.40625 411.519531 93.433594 414.546875 93.433594 418.277344 "/>
<path style="fill-rule:nonzero;fill:rgb(18.431373%,30.980392%,30.980392%);fill-opacity:1;stroke-width:0.708661;stroke-linecap:round;stroke-linejoin:round;stroke:rgb(18.431373%,30.980392%,30.980392%);stroke-opacity:1;stroke-miterlimit:10;" d="M 100.480469 409.789062 C 100.480469 413.519531 97.457031 416.542969 93.726562 416.542969 C 89.996094 416.542969 86.96875 413.519531 86.96875 409.789062 C 86.96875 406.058594 89.996094 403.03125 93.726562 403.03125 C 97.457031 403.03125 100.480469 406.058594 100.480469 409.789062 "/>
<path style="fill-rule:nonzero;fill:rgb(18.431373%,30.980392%,30.980392%);fill-opacity:1;stroke-width:0.708661;stroke-linecap:round;stroke-linejoin:round;stroke:rgb(18.431373%,30.980392%,30.980392%);stroke-opacity:1;stroke-miterlimit:10;" d="M 107.53125 449.15625 C 107.53125 452.886719 104.507812 455.910156 100.773438 455.910156 C 97.042969 455.910156 94.019531 452.886719 94.019531 449.15625 C 94.019531 445.421875 97.042969 442.398438 100.773438 442.398438 C 104.507812 442.398438 107.53125 445.421875 107.53125 449.15625 "/>
<path style="fill-rule:nonzero;fill:rgb(18.431373%,30.980392%,30.980392%);fill-opacity:1;stroke-width:0.708661;stroke-linecap:round;stroke-linejoin:round;stroke:rgb(18.431373%,30.980392%,30.980392%);stroke-opacity:1;stroke-miterlimit:10;" d="M 114.582031 383.609375 C 114.582031 387.339844 111.554688 390.367188 107.824219 390.367188 C 104.09375 390.367188 101.066406 387.339844 101.066406 383.609375 C 101.066406 379.878906 104.09375 376.855469 107.824219 376.855469 C 111.554688 376.855469 114.582031 379.878906 114.582031 383.609375 "/>
<path style="fill-rule:nonzero;fill:rgb(18.431373%,30.980392%,30.980392%);fill-opacity:1;stroke-width:0.708661;stroke-linecap:round;stroke-linejoin:round;stroke:rgb(18.431373%,30.980392%,30.980392%);stroke-opacity:1;stroke-miterlimit:10;" d="M 121.628906 415.019531 C 121.628906 418.753906 118.605469 421.777344 114.875 421.777344 C 111.140625 421.777344 108.117188 418.753906 108.117188 415.019531 C 108.117188 411.289062 111.140625 408.265625 114.875 408.265625 C 118.605469 408.265625 121.628906 411.289062 121.628906 415.019531 "/>
<path style="fill-rule:nonzero;fill:rgb(18.431373%,30.980392%,30.980392%);fill-opacity:1;stroke-width:0.708661;stroke-linecap:round;stroke-linejoin:round;stroke:rgb(18.431373%,30.980392%,30.980392%);stroke-opacity:1;stroke-miterlimit:10;" d="M 128.679688 442.886719 C 128.679688 446.617188 125.652344 449.640625 121.921875 449.640625 C 118.191406 449.640625 115.167969 446.617188 115.167969 442.886719 C 115.167969 439.152344 118.191406 436.128906 121.921875 436.128906 C 125.652344 436.128906 128.679688 439.152344 128.679688 442.886719 "/>
<path style="fill-rule:nonzero;fill:rgb(18.431373%,30.980392%,30.980392%);fill-opacity:1;stroke-width:0.708661;stroke-linecap:round;stroke-linejoin:round;stroke:rgb(18.431373%,30.980392%,30.980392%);stroke-opacity:1;stroke-miterlimit:10;" d="M 135.726562 453.550781 C 135.726562 457.285156 132.703125 460.308594 128.972656 460.308594 C 125.242188 460.308594 122.214844 457.285156 122.214844 453.550781 C 122.214844 449.820312 125.242188 446.796875 128.972656 446.796875 C 132.703125 446.796875 135.726562 449.820312 135.726562 453.550781 "/>
<path style="fill-rule:nonzero;fill:rgb(18.431373%,30.980392%,30.980392%);fill-opacity:1;stroke-width:0.708661;stroke-linecap:round;stroke-linejoin:round;stroke:rgb(18.431373%,30.980392%,30.980392%);stroke-opacity:1;stroke-miterlimit:10;" d="M 142.777344 402.644531 C 142.777344 406.375 139.753906 409.402344 136.019531 409.402344 C 132.289062 409.402344 129.265625 406.375 129.265625 402.644531 C 129.265625 398.914062 132.289062 395.886719 136.019531 395.886719 C 139.753906 395.886719 142.777344 398.914062 142.777344 402.644531 "/>
<path style="fill-rule:nonzero;fill:rgb(18.431373%,30.980392%,30.980392%);fill-opacity:1;stroke-width:0.708661;stroke-linecap:round;stroke-linejoin:round;stroke:rgb(18.431373%,30.980392%,30.980392%);stroke-opacity:1;stroke-miterlimit:10;" d="M 149.828125 449.179688 C 149.828125 452.910156 146.800781 455.9375 143.070312 455.9375 C 139.339844 455.9375 136.3125 452.910156 136.3125 449.179688 C 136.3125 445.449219 139.339844 442.425781 143.070312 442.425781 C 146.800781 442.425781 149.828125 445.449219 149.828125 449.179688 "/>
<path style="fill-rule:nonzero;fill:rgb(18.431373%,30.980392%,30.980392%);fill-opacity:1;stroke-width:0.708661;stroke-linecap:round;stroke-linejoin:round;stroke:rgb(18.431373%,30.980392%,30.980392%);stroke-opacity:1;stroke-miterlimit:10;" d="M 156.875 399.949219 C 156.875 403.683594 153.851562 406.707031 150.121094 406.707031 C 146.386719 406.707031 143.363281 403.683594 143.363281 399.949219 C 143.363281 396.21875 146.386719 393.195312 150.121094 393.195312 C 153.851562 393.195312 156.875 396.21875 156.875 399.949219 "/>
<path style="fill-rule:nonzero;fill:rgb(18.431373%,30.980392%,30.980392%);fill-opacity:1;stroke-width:0.708661;stroke-linecap:round;stroke-linejoin:round;stroke:rgb(18.431373%,30.980392%,30.980392%);stroke-opacity:1;stroke-miterlimit:10;" d="M 163.925781 375.058594 C 163.925781 378.792969 160.898438 381.816406 157.167969 381.816406 C 153.4375 381.816406 150.414062 378.792969 150.414062 375.058594 C 150.414062 371.328125 153.4375 368.304688 157.167969 368.304688 C 160.898438 368.304688 163.925781 371.328125 163.925781 375.058594 "/>
<path style="fill-rule:nonzero;fill:rgb(18.431373%,30.980392%,30.980392%);fill-opacity:1;stroke-width:0.708661;stroke-linecap:round;stroke-linejoin:round;stroke:rgb(18.431373%,30.980392%,30.980392%);stroke-opacity:1;stroke-miterlimit:10;" d="M 170.972656 420.347656 C 170.972656 424.078125 167.949219 427.105469 164.21875 427.105469 C 160.488281 427.105469 157.460938 424.078125 157.460938 420.347656 C 157.460938 416.617188 160.488281 413.589844 164.21875 413.589844 C 167.949219 413.589844 170.972656 416.617188 170.972656 420.347656 "/>
<path style="fill-rule:nonzero;fill:rgb(18.431373%,30.980392%,30.980392%);fill-opacity:1;stroke-width:0.708661;stroke-linecap:round;stroke-linejoin:round;stroke:rgb(18.431373%,30.980392%,30.980392%);stroke-opacity:1;stroke-miterlimit:10;" d="M 178.023438 364.980469 C 178.023438 368.710938 175 371.734375 171.265625 371.734375 C 167.535156 371.734375 164.511719 368.710938 164.511719 364.980469 C 164.511719 361.25 167.535156 358.222656 171.265625 358.222656 C 175 358.222656 178.023438 361.25 178.023438 364.980469 "/>
<path style="fill-rule:nonzero;fill:rgb(18.431373%,30.980392%,30.980392%);fill-opacity:1;stroke-width:0.708661;stroke-linecap:round;stroke-linejoin:round;stroke:rgb(18.431373%,30.980392%,30.980392%);stroke-opacity:1;stroke-miterlimit:10;" d="M 185.074219 369.710938 C 185.074219 373.441406 182.046875 376.464844 178.316406 376.464844 C 174.585938 376.464844 171.558594 373.441406 171.558594 369.710938 C 171.558594 365.976562 174.585938 362.953125 178.316406 362.953125 C 182.046875 362.953125 185.074219 365.976562 185.074219 369.710938 "/>
<path style="fill-rule:nonzero;fill:rgb(18.431373%,30.980392%,30.980392%);fill-opacity:1;stroke-width:0.708661;stroke-linecap:round;stroke-linejoin:round;stroke:rgb(18.431373%,30.980392%,30.980392%);stroke-opacity:1;stroke-miterlimit:10;" d="M 192.121094 332.5 C 192.121094 336.230469 189.097656 339.253906 185.367188 339.253906 C 181.632812 339.253906 178.609375 336.230469 178.609375 332.5 C 178.609375 328.765625 181.632812 325.742188 185.367188 325.742188 C 189.097656 325.742188 192.121094 328.765625 192.121094 332.5 "/>
<path style="fill-rule:nonzero;fill:rgb(18.431373%,30.980392%,30.980392%);fill-opacity:1;stroke-width:0.708661;stroke-linecap:round;stroke-linejoin:round;stroke:rgb(18.431373%,30.980392%,30.980392%);stroke-opacity:1;stroke-miterlimit:10;" d="M 199.171875 372.367188 C 199.171875 376.101562 196.144531 379.125 192.414062 379.125 C 188.683594 379.125 185.660156 376.101562 185.660156 372.367188 C 185.660156 368.636719 188.683594 365.613281 192.414062 365.613281 C 196.144531 365.613281 199.171875 368.636719 199.171875 372.367188 "/>
<path style="fill-rule:nonzero;fill:rgb(18.431373%,30.980392%,30.980392%);fill-opacity:1;stroke-width:0.708661;stroke-linecap:round;stroke-linejoin:round;stroke:rgb(18.431373%,30.980392%,30.980392%);stroke-opacity:1;stroke-miterlimit:10;" d="M 206.21875 369.4375 C 206.21875 373.167969 203.195312 376.191406 199.464844 376.191406 C 195.734375 376.191406 192.707031 373.167969 192.707031 369.4375 C 192.707031 365.703125 195.734375 362.679688 199.464844 362.679688 C 203.195312 362.679688 206.21875 365.703125 206.21875 369.4375 "/>
<path style="fill-rule:nonzero;fill:rgb(18.431373%,30.980392%,30.980392%);fill-opacity:1;stroke-width:0.708661;stroke-linecap:round;stroke-linejoin:round;stroke:rgb(18.431373%,30.980392%,30.980392%);stroke-opacity:1;stroke-miterlimit:10;" d="M 213.269531 366.964844 C 213.269531 370.695312 210.246094 373.722656 206.511719 373.722656 C 202.78125 373.722656 199.757812 370.695312 199.757812 366.964844 C 199.757812 363.234375 202.78125 360.210938 206.511719 360.210938 C 210.246094 360.210938 213.269531 363.234375 213.269531 366.964844 "/>
<path style="fill-rule:nonzero;fill:rgb(18.431373%,30.980392%,30.980392%);fill-opacity:1;stroke-width:0.708661;stroke-linecap:round;stroke-linejoin:round;stroke:rgb(18.431373%,30.980392%,30.980392%);stroke-opacity:1;stroke-miterlimit:10;" d="M 220.320312 381.695312 C 220.320312 385.425781 217.292969 388.453125 213.5625 388.453125 C 209.832031 388.453125 206.804688 385.425781 206.804688 381.695312 C 206.804688 377.964844 209.832031 374.9375 213.5625 374.9375 C 217.292969 374.9375 220.320312 377.964844 220.320312 381.695312 "/>
<path style="fill-rule:nonzero;fill:rgb(18.431373%,30.980392%,30.980392%);fill-opacity:1;stroke-width:0.708661;stroke-linecap:round;stroke-linejoin:round;stroke:rgb(18.431373%,30.980392%,30.980392%);stroke-opacity:1;stroke-miterlimit:10;" d="M 227.367188 350 C 227.367188 353.730469 224.34375 356.757812 220.613281 356.757812 C 216.878906 356.757812 213.855469 353.730469 213.855469 350 C 213.855469 346.269531 216.878906 343.242188 220.613281 343.242188 C 224.34375 343.242188 227.367188 346.269531 227.367188 350 "/>
<path style="fill-rule:nonzero;fill:rgb(18.431373%,30.980392%,30.980392%);fill-opacity:1;stroke-width:0.708661;stroke-linecap:round;stroke-linejoin:round;stroke:rgb(18.431373%,30.980392%,30.980392%);stroke-opacity:1;stroke-miterlimit:10;" d="M 234.417969 336.734375 C 234.417969 340.464844 231.390625 343.488281 227.660156 343.488281 C 223.929688 343.488281 220.90625 340.464844 220.90625 336.734375 C 220.90625 333 223.929688 329.976562 227.660156 329.976562 C 231.390625 329.976562 234.417969 333 234.417969 336.734375 "/>
<path style="fill-rule:nonzero;fill:rgb(18.431373%,30.980392%,30.980392%);fill-opacity:1;stroke-width:0.708661;stroke-linecap:round;stroke-linejoin:round;stroke:rgb(18.431373%,30.980392%,30.980392%);stroke-opacity:1;stroke-miterlimit:10;" d="M 241.464844 346.910156 C 241.464844 350.644531 238.441406 353.667969 234.710938 353.667969 C 230.980469 353.667969 227.953125 350.644531 227.953125 346.910156 C 227.953125 343.179688 230.980469 340.15625 234.710938 340.15625 C 238.441406 340.15625 241.464844 343.179688 241.464844 346.910156 "/>
<path style="fill-rule:nonzero;fill:rgb(18.431373%,30.980392%,30.980392%);fill-opacity:1;stroke-width:0.708661;stroke-linecap:round;stroke-linejoin:round;stroke:rgb(18.431373%,30.980392%,30.980392%);stroke-opacity:1;stroke-miterlimit:10;" d="M 248.515625 312.75 C 248.515625 316.480469 245.492188 319.507812 241.757812 319.507812 C 238.027344 319.507812 235.003906 316.480469 235.003906 312.75 C 235.003906 309.019531 238.027344 305.996094 241.757812 305.996094 C 245.492188 305.996094 248.515625 309.019531 248.515625 312.75 "/>
<path style="fill-rule:nonzero;fill:rgb(18.431373%,30.980392%,30.980392%);fill-opacity:1;stroke-width:0.708661;stroke-linecap:round;stroke-linejoin:round;stroke:rgb(18.431373%,30.980392%,30.980392%);stroke-opacity:1;stroke-miterlimit:10;" d="M 255.566406 318.898438 C 255.566406 322.632812 252.539062 325.65625 248.808594 325.65625 C 245.078125 325.65625 242.050781 322.632812 242.050781 318.898438 C 242.050781 315.167969 245.078125 312.144531 248.808594 312.144531 C 252.539062 312.144531 255.566406 315.167969 255.566406 318.898438 "/>
<path style="fill-rule:nonzero;fill:rgb(18.431373%,30.980392%,30.980392%);fill-opacity:1;stroke-width:0.708661;stroke-linecap:round;stroke-linejoin:round;stroke:rgb(18.431373%,30.980392%,30.980392%);stroke-opacity:1;stroke-miterlimit:10;" d="M 262.613281 304.238281 C 262.613281 307.96875 259.589844 310.996094 255.859375 310.996094 C 252.125 310.996094 249.101562 307.96875 249.101562 304.238281 C 249.101562 300.507812 252.125 297.480469 255.859375 297.480469 C 259.589844 297.480469 262.613281 300.507812 262.613281 304.238281 "/>
<path style="fill-rule:nonzero;fill:rgb(18.431373%,30.980392%,30.980392%);fill-opacity:1;stroke-width:0.708661;stroke-linecap:round;stroke-linejoin:round;stroke:rgb(18.431373%,30.980392%,30.980392%);stroke-opacity:1;stroke-miterlimit:10;" d="M 269.664062 290.109375 C 269.664062 293.839844 266.636719 296.867188 262.90625 296.867188 C 259.175781 296.867188 256.152344 293.839844 256.152344 290.109375 C 256.152344 286.378906 259.175781 283.351562 262.90625 283.351562 C 266.636719 283.351562 269.664062 286.378906 269.664062 290.109375 "/>
<path style="fill-rule:nonzero;fill:rgb(18.431373%,30.980392%,30.980392%);fill-opacity:1;stroke-width:0.708661;stroke-linecap:round;stroke-linejoin:round;stroke:rgb(18.431373%,30.980392%,30.980392%);stroke-opacity:1;stroke-miterlimit:10;" d="M 276.710938 306.25 C 276.710938 309.980469 273.6875 313.007812 269.957031 313.007812 C 266.226562 313.007812 263.199219 309.980469 263.199219 306.25 C 263.199219 302.519531 266.226562 299.496094 269.957031 299.496094 C 273.6875 299.496094 276.710938 302.519531 276.710938 306.25 "/>
<path style="fill-rule:nonzero;fill:rgb(18.431373%,30.980392%,30.980392%);fill-opacity:1;stroke-width:0.708661;stroke-linecap:round;stroke-linejoin:round;stroke:rgb(18.431373%,30.980392%,30.980392%);stroke-opacity:1;stroke-miterlimit:10;" d="M 283.761719 262.210938 C 283.761719 265.945312 280.738281 268.96875 277.003906 268.96875 C 273.273438 268.96875 270.25 265.945312 270.25 262.210938 C 270.25 258.480469 273.273438 255.457031 277.003906 255.457031 C 280.738281 255.457031 283.761719 258.480469 283.761719 262.210938 "/>
<path style="fill-rule:nonzero;fill:rgb(18.431373%,30.980392%,30.980392%);fill-opacity:1;stroke-width:0.708661;stroke-linecap:round;stroke-linejoin:round;stroke:rgb(18.431373%,30.980392%,30.980392%);stroke-opacity:1;stroke-miterlimit:10;" d="M 290.8125 296.433594 C 290.8125 300.164062 287.785156 303.1875 284.054688 303.1875 C 280.324219 303.1875 277.296875 300.164062 277.296875 296.433594 C 277.296875 292.703125 280.324219 289.675781 284.054688 289.675781 C 287.785156 289.675781 290.8125 292.703125 290.8125 296.433594 "/>
<path style="fill-rule:nonzero;fill:rgb(18.431373%,30.980392%,30.980392%);fill-opacity:1;stroke-width:0.708661;stroke-linecap:round;stroke-linejoin:round;stroke:rgb(18.431373%,30.980392%,30.980392%);stroke-opacity:1;stroke-miterlimit:10;" d="M 297.859375 263.382812 C 297.859375 267.113281 294.835938 270.136719 291.105469 270.136719 C 287.371094 270.136719 284.347656 267.113281 284.347656 263.382812 C 284.347656 259.652344 287.371094 256.625 291.105469 256.625 C 294.835938 256.625 297.859375 259.652344 297.859375 263.382812 "/>
<path style="fill-rule:nonzero;fill:rgb(18.431373%,30.980392%,30.980392%);fill-opacity:1;stroke-width:0.708661;stroke-linecap:round;stroke-linejoin:round;stroke:rgb(18.431373%,30.980392%,30.980392%);stroke-opacity:1;stroke-miterlimit:10;" d="M 304.910156 271.988281 C 304.910156 275.71875 301.882812 278.742188 298.152344 278.742188 C 294.421875 278.742188 291.398438 275.71875 291.398438 271.988281 C 291.398438 268.257812 294.421875 265.230469 298.152344 265.230469 C 301.882812 265.230469 304.910156 268.257812 304.910156 271.988281 "/>
<path style="fill-rule:nonzero;fill:rgb(18.431373%,30.980392%,30.980392%);fill-opacity:1;stroke-width:0.708661;stroke-linecap:round;stroke-linejoin:round;stroke:rgb(18.431373%,30.980392%,30.980392%);stroke-opacity:1;stroke-miterlimit:10;" d="M 311.957031 307.714844 C 311.957031 311.449219 308.933594 314.472656 305.203125 314.472656 C 301.472656 314.472656 298.445312 311.449219 298.445312 307.714844 C 298.445312 303.984375 301.472656 300.960938 305.203125 300.960938 C 308.933594 300.960938 311.957031 303.984375 311.957031 307.714844 "/>
<path style="fill-rule:nonzero;fill:rgb(18.431373%,30.980392%,30.980392%);fill-opacity:1;stroke-width:0.708661;stroke-linecap:round;stroke-linejoin:round;stroke:rgb(18.431373%,30.980392%,30.980392%);stroke-opacity:1;stroke-miterlimit:10;" d="M 319.007812 275.738281 C 319.007812 279.46875 315.984375 282.492188 312.25 282.492188 C 308.519531 282.492188 305.496094 279.46875 305.496094 275.738281 C 305.496094 272.003906 308.519531 268.980469 312.25 268.980469 C 315.984375 268.980469 319.007812 272.003906 319.007812 275.738281 "/>
<path style="fill-rule:nonzero;fill:rgb(18.431373%,30.980392%,30.980392%);fill-opacity:1;stroke-width:0.708661;stroke-linecap:round;stroke-linejoin:round;stroke:rgb(18.431373%,30.980392%,30.980392%);stroke-opacity:1;stroke-miterlimit:10;" d="M 326.058594 293.554688 C 326.058594 297.289062 323.03125 300.3125 319.300781 300.3125 C 315.570312 300.3125 312.542969 297.289062 312.542969 293.554688 C 312.542969 289.824219 315.570312 286.800781 319.300781 286.800781 C 323.03125 286.800781 326.058594 289.824219 326.058594 293.554688 "/>
<path style="fill-rule:nonzero;fill:rgb(18.431373%,30.980392%,30.980392%);fill-opacity:1;stroke-width:0.708661;stroke-linecap:round;stroke-linejoin:round;stroke:rgb(18.431373%,30.980392%,30.980392%);stroke-opacity:1;stroke-miterlimit:10;" d="M 333.105469 283.492188 C 333.105469 287.222656 330.082031 290.25 326.351562 290.25 C 322.617188 290.25 319.59375 287.222656 319.59375 283.492188 C 319.59375 279.761719 322.617188 276.734375 326.351562 276.734375 C 330.082031 276.734375 333.105469 279.761719 333.105469 283.492188 "/>
<path style="fill-rule:nonzero;fill:rgb(18.431373%,30.980392%,30.980392%);fill-opacity:1;stroke-width:0.708661;stroke-linecap:round;stroke-linejoin:round;stroke:rgb(18.431373%,30.980392%,30.980392%);stroke-opacity:1;stroke-miterlimit:10;" d="M 340.15625 273.5 C 340.15625 277.230469 337.128906 280.257812 333.398438 280.257812 C 329.667969 280.257812 326.644531 277.230469 326.644531 273.5 C 326.644531 269.769531 329.667969 266.746094 333.398438 266.746094 C 337.128906 266.746094 340.15625 269.769531 340.15625 273.5 "/>
<path style="fill-rule:nonzero;fill:rgb(18.431373%,30.980392%,30.980392%);fill-opacity:1;stroke-width:0.708661;stroke-linecap:round;stroke-linejoin:round;stroke:rgb(18.431373%,30.980392%,30.980392%);stroke-opacity:1;stroke-miterlimit:10;" d="M 347.203125 311.519531 C 347.203125 315.25 344.179688 318.277344 340.449219 318.277344 C 336.71875 318.277344 333.691406 315.25 333.691406 311.519531 C 333.691406 307.789062 336.71875 304.765625 340.449219 304.765625 C 344.179688 304.765625 347.203125 307.789062 347.203125 311.519531 "/>
<path style="fill-rule:nonzero;fill:rgb(18.431373%,30.980392%,30.980392%);fill-opacity:1;stroke-width:0.708661;stroke-linecap:round;stroke-linejoin:round;stroke:rgb(18.431373%,30.980392%,30.980392%);stroke-opacity:1;stroke-miterlimit:10;" d="M 354.253906 262.511719 C 354.253906 266.242188 351.230469 269.265625 347.496094 269.265625 C 343.765625 269.265625 340.742188 266.242188 340.742188 262.511719 C 340.742188 258.777344 343.765625 255.753906 347.496094 255.753906 C 351.230469 255.753906 354.253906 258.777344 354.253906 262.511719 "/>
<path style="fill-rule:nonzero;fill:rgb(18.431373%,30.980392%,30.980392%);fill-opacity:1;stroke-width:0.708661;stroke-linecap:round;stroke-linejoin:round;stroke:rgb(18.431373%,30.980392%,30.980392%);stroke-opacity:1;stroke-miterlimit:10;" d="M 361.304688 254.660156 C 361.304688 258.390625 358.277344 261.414062 354.546875 261.414062 C 350.816406 261.414062 347.789062 258.390625 347.789062 254.660156 C 347.789062 250.929688 350.816406 247.902344 354.546875 247.902344 C 358.277344 247.902344 361.304688 250.929688 361.304688 254.660156 "/>
<path style="fill-rule:nonzero;fill:rgb(18.431373%,30.980392%,30.980392%);fill-opacity:1;stroke-width:0.708661;stroke-linecap:round;stroke-linejoin:round;stroke:rgb(18.431373%,30.980392%,30.980392%);stroke-opacity:1;stroke-miterlimit:10;" d="M 368.351562 300.882812 C 368.351562 304.617188 365.328125 307.640625 361.597656 307.640625 C 357.863281 307.640625 354.839844 304.617188 354.839844 300.882812 C 354.839844 297.152344 357.863281 294.128906 361.597656 294.128906 C 365.328125 294.128906 368.351562 297.152344 368.351562 300.882812 "/>
<path style="fill-rule:nonzero;fill:rgb(18.431373%,30.980392%,30.980392%);fill-opacity:1;stroke-width:0.708661;stroke-linecap:round;stroke-linejoin:round;stroke:rgb(18.431373%,30.980392%,30.980392%);stroke-opacity:1;stroke-miterlimit:10;" d="M 375.402344 211.851562 C 375.402344 215.582031 372.375 218.609375 368.644531 218.609375 C 364.914062 218.609375 361.890625 215.582031 361.890625 211.851562 C 361.890625 208.121094 364.914062 205.097656 368.644531 205.097656 C 372.375 205.097656 375.402344 208.121094 375.402344 211.851562 "/>
<path style="fill-rule:nonzero;fill:rgb(18.431373%,30.980392%,30.980392%);fill-opacity:1;stroke-width:0.708661;stroke-linecap:round;stroke-linejoin:round;stroke:rgb(18.431373%,30.980392%,30.980392%);stroke-opacity:1;stroke-miterlimit:10;" d="M 382.449219 247.367188 C 382.449219 251.097656 379.425781 254.125 375.695312 254.125 C 371.964844 254.125 368.9375 251.097656 368.9375 247.367188 C 368.9375 243.636719 371.964844 240.613281 375.695312 240.613281 C 379.425781 240.613281 382.449219 243.636719 382.449219 247.367188 "/>
<path style="fill-rule:nonzero;fill:rgb(18.431373%,30.980392%,30.980392%);fill-opacity:1;stroke-width:0.708661;stroke-linecap:round;stroke-linejoin:round;stroke:rgb(18.431373%,30.980392%,30.980392%);stroke-opacity:1;stroke-miterlimit:10;" d="M 389.5 238.59375 C 389.5 242.328125 386.476562 245.351562 382.742188 245.351562 C 379.011719 245.351562 375.988281 242.328125 375.988281 238.59375 C 375.988281 234.863281 379.011719 231.839844 382.742188 231.839844 C 386.476562 231.839844 389.5 234.863281 389.5 238.59375 "/>
<path style="fill-rule:nonzero;fill:rgb(18.431373%,30.980392%,30.980392%);fill-opacity:1;stroke-width:0.708661;stroke-linecap:round;stroke-linejoin:round;stroke:rgb(18.431373%,30.980392%,30.980392%);stroke-opacity:1;stroke-miterlimit:10;" d="M 396.550781 272.957031 C 396.550781 276.6875 393.523438 279.710938 389.792969 279.710938 C 386.0625 279.710938 383.035156 276.6875 383.035156 272.957031 C 383.035156 269.222656 386.0625 266.199219 389.792969 266.199219 C 393.523438 266.199219 396.550781 269.222656 396.550781 272.957031 "/>
<path style="fill-rule:nonzero;fill:rgb(18.431373%,30.980392%,30.980392%);fill-opacity:1;stroke-width:0.708661;stroke-linecap:round;stroke-linejoin:round;stroke:rgb(18.431373%,30.980392%,30.980392%);stroke-opacity:1;stroke-miterlimit:10;" d="M 403.597656 227.183594 C 403.597656 230.914062 400.574219 233.9375 396.84375 233.9375 C 393.109375 233.9375 390.085938 230.914062 390.085938 227.183594 C 390.085938 223.453125 393.109375 220.425781 396.84375 220.425781 C 400.574219 220.425781 403.597656 223.453125 403.597656 227.183594 "/>
<path style="fill-rule:nonzero;fill:rgb(18.431373%,30.980392%,30.980392%);fill-opacity:1;stroke-width:0.708661;stroke-linecap:round;stroke-linejoin:round;stroke:rgb(18.431373%,30.980392%,30.980392%);stroke-opacity:1;stroke-miterlimit:10;" d="M 410.648438 192.417969 C 410.648438 196.148438 407.621094 199.175781 403.890625 199.175781 C 400.160156 199.175781 397.136719 196.148438 397.136719 192.417969 C 397.136719 188.6875 400.160156 185.660156 403.890625 185.660156 C 407.621094 185.660156 410.648438 188.6875 410.648438 192.417969 "/>
<path style="fill-rule:nonzero;fill:rgb(18.431373%,30.980392%,30.980392%);fill-opacity:1;stroke-width:0.708661;stroke-linecap:round;stroke-linejoin:round;stroke:rgb(18.431373%,30.980392%,30.980392%);stroke-opacity:1;stroke-miterlimit:10;" d="M 417.695312 225.992188 C 417.695312 229.722656 414.671875 232.746094 410.941406 232.746094 C 407.210938 232.746094 404.183594 229.722656 404.183594 225.992188 C 404.183594 222.257812 407.210938 219.234375 410.941406 219.234375 C 414.671875 219.234375 417.695312 222.257812 417.695312 225.992188 "/>
<path style="fill-rule:nonzero;fill:rgb(18.431373%,30.980392%,30.980392%);fill-opacity:1;stroke-width:0.708661;stroke-linecap:round;stroke-linejoin:round;stroke:rgb(18.431373%,30.980392%,30.980392%);stroke-opacity:1;stroke-miterlimit:10;" d="M 424.746094 219.007812 C 424.746094 222.742188 421.722656 225.765625 417.988281 225.765625 C 414.257812 225.765625 411.234375 222.742188 411.234375 219.007812 C 411.234375 215.277344 414.257812 212.253906 417.988281 212.253906 C 421.722656 212.253906 424.746094 215.277344 424.746094 219.007812 "/>
<path style="fill-rule:nonzero;fill:rgb(18.431373%,30.980392%,30.980392%);fill-opacity:1;stroke-width:0.708661;stroke-linecap:round;stroke-linejoin:round;stroke:rgb(18.431373%,30.980392%,30.980392%);stroke-opacity:1;stroke-miterlimit:10;" d="M 431.796875 209.363281 C 431.796875 213.09375 428.769531 216.121094 425.039062 216.121094 C 421.308594 216.121094 418.28125 213.09375 418.28125 209.363281 C 418.28125 205.632812 421.308594 202.605469 425.039062 202.605469 C 428.769531 202.605469 431.796875 205.632812 431.796875 209.363281 "/>
<path style="fill-rule:nonzero;fill:rgb(18.431373%,30.980392%,30.980392%);fill-opacity:1;stroke-width:0.708661;stroke-linecap:round;stroke-linejoin:round;stroke:rgb(18.431373%,30.980392%,30.980392%);stroke-opacity:1;stroke-miterlimit:10;" d="M 438.84375 243.863281 C 438.84375 247.59375 435.820312 250.617188 432.089844 250.617188 C 428.355469 250.617188 425.332031 247.59375 425.332031 243.863281 C 425.332031 240.132812 428.355469 237.105469 432.089844 237.105469 C 435.820312 237.105469 438.84375 240.132812 438.84375 243.863281 "/>
<path style="fill-rule:nonzero;fill:rgb(18.431373%,30.980392%,30.980392%);fill-opacity:1;stroke-width:0.708661;stroke-linecap:round;stroke-linejoin:round;stroke:rgb(18.431373%,30.980392%,30.980392%);stroke-opacity:1;stroke-miterlimit:10;" d="M 445.894531 214.808594 C 445.894531 218.539062 442.867188 221.566406 439.136719 221.566406 C 435.40625 221.566406 432.382812 218.539062 432.382812 214.808594 C 432.382812 211.078125 435.40625 208.050781 439.136719 208.050781 C 442.867188 208.050781 445.894531 211.078125 445.894531 214.808594 "/>
<path style="fill-rule:nonzero;fill:rgb(18.431373%,30.980392%,30.980392%);fill-opacity:1;stroke-width:0.708661;stroke-linecap:round;stroke-linejoin:round;stroke:rgb(18.431373%,30.980392%,30.980392%);stroke-opacity:1;stroke-miterlimit:10;" d="M 452.941406 190.328125 C 452.941406 194.0625 449.917969 197.085938 446.1875 197.085938 C 442.457031 197.085938 439.429688 194.0625 439.429688 190.328125 C 439.429688 186.597656 442.457031 183.574219 446.1875 183.574219 C 449.917969 183.574219 452.941406 186.597656 452.941406 190.328125 "/>
<path style="fill-rule:nonzero;fill:rgb(18.431373%,30.980392%,30.980392%);fill-opacity:1;stroke-width:0.708661;stroke-linecap:round;stroke-linejoin:round;stroke:rgb(18.431373%,30.980392%,30.980392%);stroke-opacity:1;stroke-miterlimit:10;" d="M 459.992188 207.714844 C 459.992188 211.449219 456.96875 214.472656 453.234375 214.472656 C 449.503906 214.472656 446.480469 211.449219 446.480469 207.714844 C 446.480469 203.984375 449.503906 200.960938 453.234375 200.960938 C 456.96875 200.960938 459.992188 203.984375 459.992188 207.714844 "/>
<path style="fill-rule:nonzero;fill:rgb(18.431373%,30.980392%,30.980392%);fill-opacity:1;stroke-width:0.708661;stroke-linecap:round;stroke-linejoin:round;stroke:rgb(18.431373%,30.980392%,30.980392%);stroke-opacity:1;stroke-miterlimit:10;" d="M 467.042969 232.660156 C 467.042969 236.390625 464.015625 239.417969 460.285156 239.417969 C 456.554688 239.417969 453.527344 236.390625 453.527344 232.660156 C 453.527344 228.929688 456.554688 225.902344 460.285156 225.902344 C 464.015625 225.902344 467.042969 228.929688 467.042969 232.660156 "/>
<path style="fill-rule:nonzero;fill:rgb(18.431373%,30.980392%,30.980392%);fill-opacity:1;stroke-width:0.708661;stroke-linecap:round;stroke-linejoin:round;stroke:rgb(18.431373%,30.980392%,30.980392%);stroke-opacity:1;stroke-miterlimit:10;" d="M 474.089844 209.003906 C 474.089844 212.734375 471.066406 215.761719 467.335938 215.761719 C 463.601562 215.761719 460.578125 212.734375 460.578125 209.003906 C 460.578125 205.273438 463.601562 202.25 467.335938 202.25 C 471.066406 202.25 474.089844 205.273438 474.089844 209.003906 "/>
<path style="fill-rule:nonzero;fill:rgb(18.431373%,30.980392%,30.980392%);fill-opacity:1;stroke-width:0.708661;stroke-linecap:round;stroke-linejoin:round;stroke:rgb(18.431373%,30.980392%,30.980392%);stroke-opacity:1;stroke-miterlimit:10;" d="M 481.140625 196.816406 C 481.140625 200.546875 478.113281 203.570312 474.382812 203.570312 C 470.652344 203.570312 467.628906 200.546875 467.628906 196.816406 C 467.628906 193.082031 470.652344 190.058594 474.382812 190.058594 C 478.113281 190.058594 481.140625 193.082031 481.140625 196.816406 "/>
<path style="fill-rule:nonzero;fill:rgb(18.431373%,30.980392%,30.980392%);fill-opacity:1;stroke-width:0.708661;stroke-linecap:round;stroke-linejoin:round;stroke:rgb(18.431373%,30.980392%,30.980392%);stroke-opacity:1;stroke-miterlimit:10;" d="M 488.1875 191.929688 C 488.1875 195.660156 485.164062 198.6875 481.433594 198.6875 C 477.703125 198.6875 474.675781 195.660156 474.675781 191.929688 C 474.675781 188.199219 477.703125 185.171875 481.433594 185.171875 C 485.164062 185.171875 488.1875 188.199219 488.1875 191.929688 "/>
<path style="fill-rule:nonzero;fill:rgb(18.431373%,30.980392%,30.980392%);fill-opacity:1;stroke-width:0.708661;stroke-linecap:round;stroke-linejoin:round;stroke:rgb(18.431373%,30.980392%,30.980392%);stroke-opacity:1;stroke-miterlimit:10;" d="M 495.238281 148.835938 C 495.238281 152.566406 492.214844 155.589844 488.480469 155.589844 C 484.75 155.589844 481.726562 152.566406 481.726562 148.835938 C 481.726562 145.105469 484.75 142.078125 488.480469 142.078125 C 492.214844 142.078125 495.238281 145.105469 495.238281 148.835938 "/>
<path style="fill-rule:nonzero;fill:rgb(18.431373%,30.980392%,30.980392%);fill-opacity:1;stroke-width:0.708661;stroke-linecap:round;stroke-linejoin:round;stroke:rgb(18.431373%,30.980392%,30.980392%);stroke-opacity:1;stroke-miterlimit:10;" d="M 502.289062 101.0625 C 502.289062 104.796875 499.261719 107.820312 495.53125 107.820312 C 491.800781 107.820312 488.773438 104.796875 488.773438 101.0625 C 488.773438 97.332031 491.800781 94.308594 495.53125 94.308594 C 499.261719 94.308594 502.289062 97.332031 502.289062 101.0625 "/>
<path style="fill-rule:nonzero;fill:rgb(18.431373%,30.980392%,30.980392%);fill-opacity:1;stroke-width:0.708661;stroke-linecap:round;stroke-linejoin:round;stroke:rgb(18.431373%,30.980392%,30.980392%);stroke-opacity:1;stroke-miterlimit:10;" d="M 509.335938 169.65625 C 509.335938 173.390625 506.3125 176.414062 502.582031 176.414062 C 498.847656 176.414062 495.824219 173.390625 495.824219 169.65625 C 495.824219 165.925781 498.847656 162.902344 502.582031 162.902344 C 506.3125 162.902344 509.335938 165.925781 509.335938 169.65625 "/>
<path style="fill-rule:nonzero;fill:rgb(18.431373%,30.980392%,30.980392%);fill-opacity:1;stroke-width:0.708661;stroke-linecap:round;stroke-linejoin:round;stroke:rgb(18.431373%,30.980392%,30.980392%);stroke-opacity:1;stroke-miterlimit:10;" d="M 516.386719 177.847656 C 516.386719 181.578125 513.359375 184.605469 509.628906 184.605469 C 505.898438 184.605469 502.875 181.578125 502.875 177.847656 C 502.875 174.117188 505.898438 171.09375 509.628906 171.09375 C 513.359375 171.09375 516.386719 174.117188 516.386719 177.847656 "/>
<path style="fill-rule:nonzero;fill:rgb(18.431373%,30.980392%,30.980392%);fill-opacity:1;stroke-width:0.708661;stroke-linecap:round;stroke-linejoin:round;stroke:rgb(18.431373%,30.980392%,30.980392%);stroke-opacity:1;stroke-miterlimit:10;" d="M 523.433594 153.5625 C 523.433594 157.292969 520.410156 160.320312 516.679688 160.320312 C 512.949219 160.320312 509.921875 157.292969 509.921875 153.5625 C 509.921875 149.832031 512.949219 146.804688 516.679688 146.804688 C 520.410156 146.804688 523.433594 149.832031 523.433594 153.5625 "/>
<path style="fill-rule:nonzero;fill:rgb(18.431373%,30.980392%,30.980392%);fill-opacity:1;stroke-width:0.708661;stroke-linecap:round;stroke-linejoin:round;stroke:rgb(18.431373%,30.980392%,30.980392%);stroke-opacity:1;stroke-miterlimit:10;" d="M 530.484375 158.835938 C 530.484375 162.566406 527.460938 165.59375 523.726562 165.59375 C 519.996094 165.59375 516.972656 162.566406 516.972656 158.835938 C 516.972656 155.105469 519.996094 152.082031 523.726562 152.082031 C 527.460938 152.082031 530.484375 155.105469 530.484375 158.835938 "/>
<path style="fill-rule:nonzero;fill:rgb(18.431373%,30.980392%,30.980392%);fill-opacity:1;stroke-width:0.708661;stroke-linecap:round;stroke-linejoin:round;stroke:rgb(18.431373%,30.980392%,30.980392%);stroke-opacity:1;stroke-miterlimit:10;" d="M 537.535156 156.058594 C 537.535156 159.789062 534.507812 162.816406 530.777344 162.816406 C 527.046875 162.816406 524.019531 159.789062 524.019531 156.058594 C 524.019531 152.328125 527.046875 149.304688 530.777344 149.304688 C 534.507812 149.304688 537.535156 152.328125 537.535156 156.058594 "/>
<path style="fill-rule:nonzero;fill:rgb(18.431373%,30.980392%,30.980392%);fill-opacity:1;stroke-width:0.708661;stroke-linecap:round;stroke-linejoin:round;stroke:rgb(18.431373%,30.980392%,30.980392%);stroke-opacity:1;stroke-miterlimit:10;" d="M 544.582031 108.847656 C 544.582031 112.582031 541.558594 115.605469 537.828125 115.605469 C 534.09375 115.605469 531.070312 112.582031 531.070312 108.847656 C 531.070312 105.117188 534.09375 102.09375 537.828125 102.09375 C 541.558594 102.09375 544.582031 105.117188 544.582031 108.847656 "/>
<path style="fill-rule:nonzero;fill:rgb(18.431373%,30.980392%,30.980392%);fill-opacity:1;stroke-width:0.708661;stroke-linecap:round;stroke-linejoin:round;stroke:rgb(18.431373%,30.980392%,30.980392%);stroke-opacity:1;stroke-miterlimit:10;" d="M 551.632812 178.089844 C 551.632812 181.820312 548.605469 184.847656 544.875 184.847656 C 541.144531 184.847656 538.121094 181.820312 538.121094 178.089844 C 538.121094 174.359375 541.144531 171.335938 544.875 171.335938 C 548.605469 171.335938 551.632812 174.359375 551.632812 178.089844 "/>
<path style="fill-rule:nonzero;fill:rgb(18.431373%,30.980392%,30.980392%);fill-opacity:1;stroke-width:0.708661;stroke-linecap:round;stroke-linejoin:round;stroke:rgb(18.431373%,30.980392%,30.980392%);stroke-opacity:1;stroke-miterlimit:10;" d="M 558.679688 117.265625 C 558.679688 121 555.65625 124.023438 551.925781 124.023438 C 548.195312 124.023438 545.167969 121 545.167969 117.265625 C 545.167969 113.535156 548.195312 110.511719 551.925781 110.511719 C 555.65625 110.511719 558.679688 113.535156 558.679688 117.265625 "/>
<path style="fill-rule:nonzero;fill:rgb(18.431373%,30.980392%,30.980392%);fill-opacity:1;stroke-width:0.708661;stroke-linecap:round;stroke-linejoin:round;stroke:rgb(18.431373%,30.980392%,30.980392%);stroke-opacity:1;stroke-miterlimit:10;" d="M 565.730469 158.238281 C 565.730469 161.96875 562.707031 164.992188 558.972656 164.992188 C 555.242188 164.992188 552.21875 161.96875 552.21875 158.238281 C 552.21875 154.507812 555.242188 151.480469 558.972656 151.480469 C 562.707031 151.480469 565.730469 154.507812 565.730469 158.238281 "/>
<path style="fill-rule:nonzero;fill:rgb(18.431373%,30.980392%,30.980392%);fill-opacity:1;stroke-width:0.708661;stroke-linecap:round;stroke-linejoin:round;stroke:rgb(18.431373%,30.980392%,30.980392%);stroke-opacity:1;stroke-miterlimit:10;" d="M 572.78125 114.648438 C 572.78125 118.382812 569.753906 121.40625 566.023438 121.40625 C 562.292969 121.40625 559.265625 118.382812 559.265625 114.648438 C 559.265625 110.917969 562.292969 107.894531 566.023438 107.894531 C 569.753906 107.894531 572.78125 110.917969 572.78125 114.648438 "/>
<path style="fill-rule:nonzero;fill:rgb(18.431373%,30.980392%,30.980392%);fill-opacity:1;stroke-width:0.708661;stroke-linecap:round;stroke-linejoin:round;stroke:rgb(18.431373%,30.980392%,30.980392%);stroke-opacity:1;stroke-miterlimit:10;" d="M 579.828125 98.582031 C 579.828125 102.3125 576.804688 105.335938 573.074219 105.335938 C 569.339844 105.335938 566.316406 102.3125 566.316406 98.582031 C 566.316406 94.847656 569.339844 91.824219 573.074219 91.824219 C 576.804688 91.824219 579.828125 94.847656 579.828125 98.582031 "/>
<path style="fill-rule:nonzero;fill:rgb(18.431373%,30.980392%,30.980392%);fill-opacity:1;stroke-width:0.708661;stroke-linecap:round;stroke-linejoin:round;stroke:rgb(18.431373%,30.980392%,30.980392%);stroke-opacity:1;stroke-miterlimit:10;" d="M 586.878906 171.039062 C 586.878906 174.769531 583.851562 177.796875 580.121094 177.796875 C 576.390625 177.796875 573.367188 174.769531 573.367188 171.039062 C 573.367188 167.308594 576.390625 164.285156 580.121094 164.285156 C 583.851562 164.285156 586.878906 167.308594 586.878906 171.039062 "/>
<path style="fill-rule:nonzero;fill:rgb(18.431373%,30.980392%,30.980392%);fill-opacity:1;stroke-width:0.708661;stroke-linecap:round;stroke-linejoin:round;stroke:rgb(18.431373%,30.980392%,30.980392%);stroke-opacity:1;stroke-miterlimit:10;" d="M 593.925781 97.878906 C 593.925781 101.609375 590.902344 104.636719 587.171875 104.636719 C 583.441406 104.636719 580.414062 101.609375 580.414062 97.878906 C 580.414062 94.148438 583.441406 91.125 587.171875 91.125 C 590.902344 91.125 593.925781 94.148438 593.925781 97.878906 "/>
<path style="fill-rule:nonzero;fill:rgb(18.431373%,30.980392%,30.980392%);fill-opacity:1;stroke-width:0.708661;stroke-linecap:round;stroke-linejoin:round;stroke:rgb(18.431373%,30.980392%,30.980392%);stroke-opacity:1;stroke-miterlimit:10;" d="M 600.976562 78.269531 C 600.976562 82 597.953125 85.027344 594.21875 85.027344 C 590.488281 85.027344 587.464844 82 587.464844 78.269531 C 587.464844 74.539062 590.488281 71.511719 594.21875 71.511719 C 597.953125 71.511719 600.976562 74.539062 600.976562 78.269531 "/>
<path style="fill-rule:nonzero;fill:rgb(18.431373%,30.980392%,30.980392%);fill-opacity:1;stroke-width:0.708661;stroke-linecap:round;stroke-linejoin:round;stroke:rgb(18.431373%,30.980392%,30.980392%);stroke-opacity:1;stroke-miterlimit:10;" d="M 608.027344 97.457031 C 608.027344 101.1875 605 104.210938 601.269531 104.210938 C 597.539062 104.210938 594.511719 101.1875 594.511719 97.457031 C 594.511719 93.726562 597.539062 90.699219 601.269531 90.699219 C 605 90.699219 608.027344 93.726562 608.027344 97.457031 "/>
<path style="fill-rule:nonzero;fill:rgb(18.431373%,30.980392%,30.980392%);fill-opacity:1;stroke-width:0.708661;stroke-linecap:round;stroke-linejoin:round;stroke:rgb(18.431373%,30.980392%,30.980392%);stroke-opacity:1;stroke-miterlimit:10;" d="M 615.074219 70.105469 C 615.074219 73.839844 612.050781 76.863281 608.320312 76.863281 C 604.585938 76.863281 601.5625 73.839844 601.5625 70.105469 C 601.5625 66.375 604.585938 63.351562 608.320312 63.351562 C 612.050781 63.351562 615.074219 66.375 615.074219 70.105469 "/>
<path style="fill-rule:nonzero;fill:rgb(18.431373%,30.980392%,30.980392%);fill-opacity:1;stroke-width:0.708661;stroke-linecap:round;stroke-linejoin:round;stroke:rgb(18.431373%,30.980392%,30.980392%);stroke-opacity:1;stroke-miterlimit:10;" d="M 622.125 88.585938 C 622.125 92.316406 619.097656 95.339844 615.367188 95.339844 C 611.636719 95.339844 608.613281 92.316406 608.613281 88.585938 C 608.613281 84.851562 611.636719 81.828125 615.367188 81.828125 C 619.097656 81.828125 622.125 84.851562 622.125 88.585938 "/>
<path style="fill-rule:nonzero;fill:rgb(18.431373%,30.980392%,30.980392%);fill-opacity:1;stroke-width:0.708661;stroke-linecap:round;stroke-linejoin:round;stroke:rgb(18.431373%,30.980392%,30.980392%);stroke-opacity:1;stroke-miterlimit:10;" d="M 629.171875 107.078125 C 629.171875 110.808594 626.148438 113.832031 622.417969 113.832031 C 618.6875 113.832031 615.660156 110.808594 615.660156 107.078125 C 615.660156 103.347656 618.6875 100.320312 622.417969 100.320312 C 626.148438 100.320312 629.171875 103.347656 629.171875 107.078125 "/>
<path style="fill-rule:nonzero;fill:rgb(18.431373%,30.980392%,30.980392%);fill-opacity:1;stroke-width:0.708661;stroke-linecap:round;stroke-linejoin:round;stroke:rgb(18.431373%,30.980392%,30.980392%);stroke-opacity:1;stroke-miterlimit:10;" d="M 636.222656 129.5625 C 636.222656 133.292969 633.199219 136.320312 629.464844 136.320312 C 625.734375 136.320312 622.710938 133.292969 622.710938 129.5625 C 622.710938 125.832031 625.734375 122.808594 629.464844 122.808594 C 633.199219 122.808594 636.222656 125.832031 636.222656 129.5625 "/>
<path style="fill-rule:nonzero;fill:rgb(18.431373%,30.980392%,30.980392%);fill-opacity:1;stroke-width:0.708661;stroke-linecap:round;stroke-linejoin:round;stroke:rgb(18.431373%,30.980392%,30.980392%);stroke-opacity:1;stroke-miterlimit:10;" d="M 643.273438 60.683594 C 643.273438 64.414062 640.246094 67.4375 636.515625 67.4375 C 632.785156 67.4375 629.757812 64.414062 629.757812 60.683594 C 629.757812 56.953125 632.785156 53.925781 636.515625 53.925781 C 640.246094 53.925781 643.273438 56.953125 643.273438 60.683594 "/>
<path style="fill-rule:nonzero;fill:rgb(18.431373%,30.980392%,30.980392%);fill-opacity:1;stroke-width:0.708661;stroke-linecap:round;stroke-linejoin:round;stroke:rgb(18.431373%,30.980392%,30.980392%);stroke-opacity:1;stroke-miterlimit:10;" d="M 650.320312 84.613281 C 650.320312 88.347656 647.296875 91.371094 643.566406 91.371094 C 639.832031 91.371094 636.808594 88.347656 636.808594 84.613281 C 636.808594 80.882812 639.832031 77.859375 643.566406 77.859375 C 647.296875 77.859375 650.320312 80.882812 650.320312 84.613281 "/>
<path style="fill-rule:nonzero;fill:rgb(18.431373%,30.980392%,30.980392%);fill-opacity:1;stroke-width:0.708661;stroke-linecap:round;stroke-linejoin:round;stroke:rgb(18.431373%,30.980392%,30.980392%);stroke-opacity:1;stroke-miterlimit:10;" d="M 657.371094 86.863281 C 657.371094 90.597656 654.34375 93.621094 650.613281 93.621094 C 646.882812 93.621094 643.859375 90.597656 643.859375 86.863281 C 643.859375 83.132812 646.882812 80.109375 650.613281 80.109375 C 654.34375 80.109375 657.371094 83.132812 657.371094 86.863281 "/>
<path style="fill-rule:nonzero;fill:rgb(18.431373%,30.980392%,30.980392%);fill-opacity:1;stroke-width:0.708661;stroke-linecap:round;stroke-linejoin:round;stroke:rgb(18.431373%,30.980392%,30.980392%);stroke-opacity:1;stroke-miterlimit:10;" d="M 664.417969 56.066406 C 664.417969 59.796875 661.394531 62.824219 657.664062 62.824219 C 653.933594 62.824219 650.90625 59.796875 650.90625 56.066406 C 650.90625 52.335938 653.933594 49.308594 657.664062 49.308594 C 661.394531 49.308594 664.417969 52.335938 664.417969 56.066406 "/>
<path style="fill-rule:nonzero;fill:rgb(18.431373%,30.980392%,30.980392%);fill-opacity:1;stroke-width:0.708661;stroke-linecap:round;stroke-linejoin:round;stroke:rgb(18.431373%,30.980392%,30.980392%);stroke-opacity:1;stroke-miterlimit:10;" d="M 671.46875 40.601562 C 671.46875 44.332031 668.445312 47.355469 664.710938 47.355469 C 660.980469 47.355469 657.957031 44.332031 657.957031 40.601562 C 657.957031 36.871094 660.980469 33.84375 664.710938 33.84375 C 668.445312 33.84375 671.46875 36.871094 671.46875 40.601562 "/>
<path style="fill-rule:nonzero;fill:rgb(18.431373%,30.980392%,30.980392%);fill-opacity:1;stroke-width:0.708661;stroke-linecap:round;stroke-linejoin:round;stroke:rgb(18.431373%,30.980392%,30.980392%);stroke-opacity:1;stroke-miterlimit:10;" d="M 678.519531 67.703125 C 678.519531 71.433594 675.492188 74.460938 671.761719 74.460938 C 668.03125 74.460938 665.003906 71.433594 665.003906 67.703125 C 665.003906 63.972656 668.03125 60.949219 671.761719 60.949219 C 675.492188 60.949219 678.519531 63.972656 678.519531 67.703125 "/>
<path style="fill-rule:nonzero;fill:rgb(18.431373%,30.980392%,30.980392%);fill-opacity:1;stroke-width:0.708661;stroke-linecap:round;stroke-linejoin:round;stroke:rgb(18.431373%,30.980392%,30.980392%);stroke-opacity:1;stroke-miterlimit:10;" d="M 685.566406 55.375 C 685.566406 59.109375 682.542969 62.132812 678.8125 62.132812 C 675.078125 62.132812 672.054688 59.109375 672.054688 55.375 C 672.054688 51.644531 675.078125 48.621094 678.8125 48.621094 C 682.542969 48.621094 685.566406 51.644531 685.566406 55.375 "/>
<path style="fill-rule:nonzero;fill:rgb(18.431373%,30.980392%,30.980392%);fill-opacity:1;stroke-width:0.708661;stroke-linecap:round;stroke-linejoin:round;stroke:rgb(18.431373%,30.980392%,30.980392%);stroke-opacity:1;stroke-miterlimit:10;" d="M 692.617188 35.691406 C 692.617188 39.421875 689.589844 42.445312 685.859375 42.445312 C 682.128906 42.445312 679.105469 39.421875 679.105469 35.691406 C 679.105469 31.957031 682.128906 28.933594 685.859375 28.933594 C 689.589844 28.933594 692.617188 31.957031 692.617188 35.691406 "/>
<path style="fill-rule:nonzero;fill:rgb(18.431373%,30.980392%,30.980392%);fill-opacity:1;stroke-width:0.708661;stroke-linecap:round;stroke-linejoin:round;stroke:rgb(18.431373%,30.980392%,30.980392%);stroke-opacity:1;stroke-miterlimit:10;" d="M 699.664062 47.113281 C 699.664062 50.84375 696.640625 53.871094 692.910156 53.871094 C 689.179688 53.871094 686.152344 50.84375 686.152344 47.113281 C 686.152344 43.382812 689.179688 40.359375 692.910156 40.359375 C 696.640625 40.359375 699.664062 43.382812 699.664062 47.113281 "/>
<path style="fill-rule:nonzero;fill:rgb(18.431373%,30.980392%,30.980392%);fill-opacity:1;stroke-width:0.708661;stroke-linecap:round;stroke-linejoin:round;stroke:rgb(18.431373%,30.980392%,30.980392%);stroke-opacity:1;stroke-miterlimit:10;" d="M 706.714844 56.566406 C 706.714844 60.296875 703.691406 63.320312 699.957031 63.320312 C 696.226562 63.320312 693.203125 60.296875 693.203125 56.566406 C 693.203125 52.832031 696.226562 49.808594 699.957031 49.808594 C 703.691406 49.808594 706.714844 52.832031 706.714844 56.566406 "/>
<path style="fill-rule:nonzero;fill:rgb(18.431373%,30.980392%,30.980392%);fill-opacity:1;stroke-width:0.708661;stroke-linecap:round;stroke-linejoin:round;stroke:rgb(18.431373%,30.980392%,30.980392%);stroke-opacity:1;stroke-miterlimit:10;" d="M 713.765625 37.464844 C 713.765625 41.199219 710.738281 44.222656 707.007812 44.222656 C 703.277344 44.222656 700.25 41.199219 700.25 37.464844 C 700.25 33.734375 703.277344 30.710938 707.007812 30.710938 C 710.738281 30.710938 713.765625 33.734375 713.765625 37.464844 "/>
<path style="fill-rule:nonzero;fill:rgb(18.431373%,30.980392%,30.980392%);fill-opacity:1;stroke-width:0.708661;stroke-linecap:round;stroke-linejoin:round;stroke:rgb(18.431373%,30.980392%,30.980392%);stroke-opacity:1;stroke-miterlimit:10;" d="M 720.8125 23.4375 C 720.8125 27.171875 717.789062 30.195312 714.058594 30.195312 C 710.324219 30.195312 707.300781 27.171875 707.300781 23.4375 C 707.300781 19.707031 710.324219 16.683594 714.058594 16.683594 C 717.789062 16.683594 720.8125 19.707031 720.8125 23.4375 "/>
<path style="fill-rule:nonzero;fill:rgb(18.431373%,30.980392%,30.980392%);fill-opacity:1;stroke-width:0.708661;stroke-linecap:round;stroke-linejoin:round;stroke:rgb(18.431373%,30.980392%,30.980392%);stroke-opacity:1;stroke-miterlimit:10;" d="M 727.863281 27.214844 C 727.863281 30.945312 724.835938 33.96875 721.105469 33.96875 C 717.375 33.96875 714.351562 30.945312 714.351562 27.214844 C 714.351562 23.480469 717.375 20.457031 721.105469 20.457031 C 724.835938 20.457031 727.863281 23.480469 727.863281 27.214844 "/>
<path style="fill:none;stroke-width:6.40187;stroke-linecap:butt;stroke-linejoin:round;stroke:rgb(94.117647%,50.196078%,50.196078%);stroke-opacity:1;stroke-miterlimit:10;" d="M 23.234375 477.027344 L 32.066406 471.300781 L 40.902344 465.570312 L 49.734375 459.84375 L 58.570312 454.117188 L 67.402344 448.390625 L 76.238281 442.660156 L 93.902344 431.207031 L 102.738281 425.476562 L 111.570312 419.75 L 120.40625 414.023438 L 129.238281 408.296875 L 138.074219 402.566406 L 146.90625 396.839844 L 155.742188 391.113281 L 164.574219 385.382812 L 173.410156 379.65625 L 182.242188 373.929688 L 191.078125 368.203125 L 199.910156 362.472656 L 208.742188 356.746094 L 217.578125 351.019531 L 226.410156 345.289062 L 235.246094 339.5625 L 244.078125 333.835938 L 252.914062 328.105469 L 261.746094 322.378906 L 270.582031 316.652344 L 279.414062 310.925781 L 288.25 305.195312 L 297.082031 299.46875 L 305.917969 293.742188 L 314.75 288.011719 L 323.582031 282.285156 L 332.417969 276.558594 L 341.25 270.832031 L 350.085938 265.101562 L 358.917969 259.375 L 367.753906 253.648438 L 376.585938 247.917969 L 385.421875 242.191406 L 394.253906 236.464844 L 403.089844 230.738281 L 411.921875 225.007812 L 420.757812 219.28125 L 429.589844 213.554688 L 438.421875 207.824219 L 447.257812 202.097656 L 456.089844 196.371094 L 464.925781 190.640625 L 473.757812 184.914062 L 482.59375 179.1875 L 491.425781 173.460938 L 500.261719 167.730469 L 509.09375 162.003906 L 517.929688 156.277344 L 526.761719 150.546875 L 535.597656 144.820312 L 553.261719 133.367188 L 562.097656 127.636719 L 570.929688 121.910156 L 579.765625 116.183594 L 588.597656 110.453125 L 597.433594 104.726562 L 606.265625 99 L 615.101562 93.273438 L 623.933594 87.542969 L 632.769531 81.816406 L 641.601562 76.089844 L 650.4375 70.359375 L 668.101562 58.90625 L 676.9375 53.179688 L 685.769531 47.449219 L 694.605469 41.722656 L 703.4375 35.996094 L 712.273438 30.265625 L 721.105469 24.539062 "/>
</g>
</svg>
