<?xml version="1.0" encoding="UTF-8"?>
<svg xmlns="http://www.w3.org/2000/svg" xmlns:xlink="http://www.w3.org/1999/xlink" width="756pt" height="504pt" viewBox="0 0 756 504" version="1.1">
<g id="surface19">
<rect x="0" y="0" width="756" height="504" style="fill:rgb(100%,100%,100%);fill-opacity:1;stroke:none;"/>
<path style="fill-rule:nonzero;fill:rgb(18.431373%,30.980392%,30.980392%);fill-opacity:1;stroke-width:0.708661;stroke-linecap:round;stroke-linejoin:round;stroke:rgb(18.431373%,30.980392%,30.980392%);stroke-opacity:1;stroke-miterlimit:10;" d="M 29.988281 458.269531 C 29.988281 462.003906 26.964844 465.027344 23.234375 465.027344 C 19.503906 465.027344 16.476562 462.003906 16.476562 458.269531 C 16.476562 454.539062 19.503906 451.515625 23.234375 451.515625 C 26.964844 451.515625 29.988281 454.539062 29.988281 458.269531 "/>
<path style="fill-rule:nonzero;fill:rgb(18.431373%,30.980392%,30.980392%);fill-opacity:1;stroke-width:0.708661;stroke-linecap:round;stroke-linejoin:round;stroke:rgb(18.431373%,30.980392%,30.980392%);stroke-opacity:1;stroke-miterlimit:10;" d="M 37.039062 492.222656 C 37.039062 495.953125 34.015625 498.976562 30.28125 498.976562 C 26.550781 498.976562 23.527344 495.953125 23.527344 492.222656 C 23.527344 488.488281 26.550781 485.464844 30.28125 485.464844 C 34.015625 485.464844 37.039062 488.488281 37.039062 492.222656 "/>
<path style="fill-rule:nonzero;fill:rgb(18.431373%,30.980392%,30.980392%);fill-opacity:1;stroke-width:0.708661;stroke-linecap:round;stroke-linejoin:round;stroke:rgb(18.431373%,30.980392%,30.980392%);stroke-opacity:1;stroke-miterlimit:10;" d="M 44.089844 486.328125 C 44.089844 490.0625 41.0625 493.085938 37.332031 493.085938 C 33.601562 493.085938 30.574219 490.0625 30.574219 486.328125 C 30.574219 482.597656 33.601562 479.574219 37.332031 479.574219 C 41.0625 479.574219 44.089844 482.597656 44.089844 486.328125 "/>
<path style="fill-rule:nonzero;fill:rgb(18.431373%,30.980392%,30.980392%);fill-opacity:1;stroke-width:0.708661;stroke-linecap:round;stroke-linejoin:round;stroke:rgb(18.431373%,30.980392%,30.980392%);stroke-opacity:1;stroke-miterlimit:10;" d="M 51.136719 430.878906 C 51.136719 434.609375 48.113281 437.636719 44.382812 437.636719 C 40.648438 437.636719 37.625 434.609375 37.625 430.878906 C 37.625 427.148438 40.648438 424.125 44.382812 424.125 C 48.113281 424.125 51.136719 427.148438 51.136719 430.878906 "/>
<path style="fill-rule:nonzero;fill:rgb(18.431373%,30.980392%,30.980392%);fill-opacity:1;stroke-width:0.708661;stroke-linecap:round;stroke-linejoin:round;stroke:rgb(18.431373%,30.980392%,30.980392%);stroke-opacity:1;stroke-miterlimit:10;" d="M 58.1875 456.304688 C 58.1875 460.035156 55.160156 463.0625 51.429688 463.0625 C 47.699219 463.0625 44.675781 460.035156 44.675781 456.304688 C 44.675781 452.574219 47.699219 449.546875 51.429688 449.546875 C 55.160156 449.546875 58.1875 452.574219 58.1875 456.304688 "/>
<path style="fill-rule:nonzero;fill:rgb(18.431373%,30.980392%,30.980392%);fill-opacity:1;stroke-width:0.708661;stroke-linecap:round;stroke-linejoin:round;stroke:rgb(18.431373%,30.980392%,30.980392%);stroke-opacity:1;stroke-miterlimit:10;" d="M 65.234375 456.015625 C 65.234375 459.746094 62.210938 462.773438 58.480469 462.773438 C 54.75 462.773438 51.722656 459.746094 51.722656 456.015625 C 51.722656 452.285156 54.75 449.257812 58.480469 449.257812 C 62.210938 449.257812 65.234375 452.285156 65.234375 456.015625 "/>
<path style="fill-rule:nonzero;fill:rgb(18.431373%,30.980392%,30.980392%);fill-opacity:1;stroke-width:0.708661;stroke-linecap:round;stroke-linejoin:round;stroke:rgb(18.431373%,30.980392%,30.980392%);stroke-opacity:1;stroke-miterlimit:10;" d="M 72.285156 449.730469 C 72.285156 453.460938 69.261719 456.488281 65.527344 456.488281 C 61.796875 456.488281 58.773438 453.460938 58.773438 449.730469 C 58.773438 446 61.796875 442.976562 65.527344 442.976562 C 69.261719 442.976562 72.285156 446 72.285156 449.730469 "/>
<path style="fill-rule:nonzero;fill:rgb(18.431373%,30.980392%,30.980392%);fill-opacity:1;stroke-width:0.708661;stroke-linecap:round;stroke-linejoin:round;stroke:rgb(18.431373%,30.980392%,30.980392%);stroke-opacity:1;stroke-miterlimit:10;" d="M 79.335938 443.230469 C 79.335938 446.960938 76.308594 449.984375 72.578125 449.984375 C 68.847656 449.984375 65.820312 446.960938 65.820312 443.230469 C 65.820312 439.5 68.847656 436.472656 72.578125 436.472656 C 76.308594 436.472656 79.335938 439.5 79.335938 443.230469 "/>
<path style="fill-rule:nonzero;fill:rgb(18.431373%,30.980392%,30.980392%);fill-opacity:1;stroke-width:0.708661;stroke-linecap:round;stroke-linejoin:round;stroke:rgb(18.431373%,30.980392%,30.980392%);stroke-opacity:1;stroke-miterlimit:10;" d="M 86.382812 437.613281 C 86.382812 441.34375 83.359375 444.371094 79.628906 444.371094 C 75.894531 444.371094 72.871094 441.34375 72.871094 437.613281 C 72.871094 433.882812 75.894531 430.855469 79.628906 430.855469 C 83.359375 430.855469 86.382812 433.882812 86.382812 437.613281 "/>
<path style="fill-rule:nonzero;fill:rgb(18.431373%,30.980392%,30.980392%);fill-opacity:1;stroke-width:0.708661;stroke-linecap:round;stroke-linejoin:round;stroke:rgb(18.431373%,30.980392%,30.980392%);stroke-opacity:1;stroke-miterlimit:10;" d="M 93.433594 413.988281 C 93.433594 417.71875 90.40625 420.742188 86.675781 420.742188 C 82.945312 420.742188 79.921875 417.71875 79.921875 413.988281 C 79.921875 410.257812 82.945312 407.230469 86.675781 407.230469 C 90.40625 407.230469 93.433594 410.257812 93.433594 413.988281 "/>
<path style="fill-rule:nonzero;fill:rgb(18.431373%,30.980392%,30.980392%);fill-opacity:1;stroke-width:0.708661;stroke-linecap:round;stroke-linejoin:round;stroke:rgb(18.431373%,30.980392%,30.980392%);stroke-opacity:1;stroke-miterlimit:10;" d="M 100.480469 440.277344 C 100.480469 444.007812 97.457031 447.03125 93.726562 447.03125 C 89.996094 447.03125 86.96875 444.007812 86.96875 440.277344 C 86.96875 436.542969 89.996094 433.519531 93.726562 433.519531 C 97.457031 433.519531 100.480469 436.542969 100.480469 440.277344 "/>
<path style="fill-rule:nonzero;fill:rgb(18.431373%,30.980392%,30.980392%);fill-opacity:1;stroke-width:0.708661;stroke-linecap:round;stroke-linejoin:round;stroke:rgb(18.431373%,30.980392%,30.980392%);stroke-opacity:1;stroke-miterlimit:10;" d="M 107.53125 431.738281 C 107.53125 435.472656 104.507812 438.496094 100.773438 438.496094 C 97.042969 438.496094 94.019531 435.472656 94.019531 431.738281 C 94.019531 428.007812 97.042969 424.984375 100.773438 424.984375 C 104.507812 424.984375 107.53125 428.007812 107.53125 431.738281 "/>
<path style="fill-rule:nonzero;fill:rgb(18.431373%,30.980392%,30.980392%);fill-opacity:1;stroke-width:0.708661;stroke-linecap:round;stroke-linejoin:round;stroke:rgb(18.431373%,30.980392%,30.980392%);stroke-opacity:1;stroke-miterlimit:10;" d="M 114.582031 415.355469 C 114.582031 419.085938 111.554688 422.113281 107.824219 422.113281 C 104.09375 422.113281 101.066406 419.085938 101.066406 415.355469 C 101.066406 411.625 104.09375 408.597656 107.824219 408.597656 C 111.554688 408.597656 114.582031 411.625 114.582031 415.355469 "/>
<path style="fill-rule:nonzero;fill:rgb(18.431373%,30.980392%,30.980392%);fill-opacity:1;stroke-width:0.708661;stroke-linecap:round;stroke-linejoin:round;stroke:rgb(18.431373%,30.980392%,30.980392%);stroke-opacity:1;stroke-miterlimit:10;" d="M 121.628906 404.511719 C 121.628906 408.242188 118.605469 411.265625 114.875 411.265625 C 111.140625 411.265625 108.117188 408.242188 108.117188 404.511719 C 108.117188 400.78125 111.140625 397.753906 114.875 397.753906 C 118.605469 397.753906 121.628906 400.78125 121.628906 404.511719 "/>
<path style="fill-rule:nonzero;fill:rgb(18.431373%,30.980392%,30.980392%);fill-opacity:1;stroke-width:0.708661;stroke-linecap:round;stroke-linejoin:round;stroke:rgb(18.431373%,30.980392%,30.980392%);stroke-opacity:1;stroke-miterlimit:10;" d="M 128.679688 388.460938 C 128.679688 392.191406 125.652344 395.21875 121.921875 395.21875 C 118.191406 395.21875 115.167969 392.191406 115.167969 388.460938 C 115.167969 384.730469 118.191406 381.703125 121.921875 381.703125 C 125.652344 381.703125 128.679688 384.730469 128.679688 388.460938 "/>
<path style="fill-rule:nonzero;fill:rgb(18.431373%,30.980392%,30.980392%);fill-opacity:1;stroke-width:0.708661;stroke-linecap:round;stroke-linejoin:round;stroke:rgb(18.431373%,30.980392%,30.980392%);stroke-opacity:1;stroke-miterlimit:10;" d="M 135.726562 428.238281 C 135.726562 431.96875 132.703125 434.992188 128.972656 434.992188 C 125.242188 434.992188 122.214844 431.96875 122.214844 428.238281 C 122.214844 424.507812 125.242188 421.480469 128.972656 421.480469 C 132.703125 421.480469 135.726562 424.507812 135.726562 428.238281 "/>
<path style="fill-rule:nonzero;fill:rgb(18.431373%,30.980392%,30.980392%);fill-opacity:1;stroke-width:0.708661;stroke-linecap:round;stroke-linejoin:round;stroke:rgb(18.431373%,30.980392%,30.980392%);stroke-opacity:1;stroke-miterlimit:10;" d="M 142.777344 404.65625 C 142.777344 408.386719 139.753906 411.410156 136.019531 411.410156 C 132.289062 411.410156 129.265625 408.386719 129.265625 404.65625 C 129.265625 400.921875 132.289062 397.898438 136.019531 397.898438 C 139.753906 397.898438 142.777344 400.921875 142.777344 404.65625 "/>
<path style="fill-rule:nonzero;fill:rgb(18.431373%,30.980392%,30.980392%);fill-opacity:1;stroke-width:0.708661;stroke-linecap:round;stroke-linejoin:round;stroke:rgb(18.431373%,30.980392%,30.980392%);stroke-opacity:1;stroke-miterlimit:10;" d="M 149.828125 432.277344 C 149.828125 436.011719 146.800781 439.035156 143.070312 439.035156 C 139.339844 439.035156 136.3125 436.011719 136.3125 432.277344 C 136.3125 428.546875 139.339844 425.523438 143.070312 425.523438 C 146.800781 425.523438 149.828125 428.546875 149.828125 432.277344 "/>
<path style="fill-rule:nonzero;fill:rgb(18.431373%,30.980392%,30.980392%);fill-opacity:1;stroke-width:0.708661;stroke-linecap:round;stroke-linejoin:round;stroke:rgb(18.431373%,30.980392%,30.980392%);stroke-opacity:1;stroke-miterlimit:10;" d="M 156.875 404.265625 C 156.875 407.996094 153.851562 411.023438 150.121094 411.023438 C 146.386719 411.023438 143.363281 407.996094 143.363281 404.265625 C 143.363281 400.535156 146.386719 397.511719 150.121094 397.511719 C 153.851562 397.511719 156.875 400.535156 156.875 404.265625 "/>
<path style="fill-rule:nonzero;fill:rgb(18.431373%,30.980392%,30.980392%);fill-opacity:1;stroke-width:0.708661;stroke-linecap:round;stroke-linejoin:round;stroke:rgb(18.431373%,30.980392%,30.980392%);stroke-opacity:1;stroke-miterlimit:10;" d="M 163.925781 369.386719 C 163.925781 373.117188 160.898438 376.144531 157.167969 376.144531 C 153.4375 376.144531 150.414062 373.117188 150.414062 369.386719 C 150.414062 365.65625 153.4375 362.628906 157.167969 362.628906 C 160.898438 362.628906 163.925781 365.65625 163.925781 369.386719 "/>
<path style="fill-rule:nonzero;fill:rgb(18.431373%,30.980392%,30.980392%);fill-opacity:1;stroke-width:0.708661;stroke-linecap:round;stroke-linejoin:round;stroke:rgb(18.431373%,30.980392%,30.980392%);stroke-opacity:1;stroke-miterlimit:10;" d="M 170.972656 419.652344 C 170.972656 423.382812 167.949219 426.410156 164.21875 426.410156 C 160.488281 426.410156 157.460938 423.382812 157.460938 419.652344 C 157.460938 415.921875 160.488281 412.894531 164.21875 412.894531 C 167.949219 412.894531 170.972656 415.921875 170.972656 419.652344 "/>
<path style="fill-rule:nonzero;fill:rgb(18.431373%,30.980392%,30.980392%);fill-opacity:1;stroke-width:0.708661;stroke-linecap:round;stroke-linejoin:round;stroke:rgb(18.431373%,30.980392%,30.980392%);stroke-opacity:1;stroke-miterlimit:10;" d="M 178.023438 362.503906 C 178.023438 366.234375 175 369.261719 171.265625 369.261719 C 167.535156 369.261719 164.511719 366.234375 164.511719 362.503906 C 164.511719 358.773438 167.535156 355.75 171.265625 355.75 C 175 355.75 178.023438 358.773438 178.023438 362.503906 "/>
<path style="fill-rule:nonzero;fill:rgb(18.431373%,30.980392%,30.980392%);fill-opacity:1;stroke-width:0.708661;stroke-linecap:round;stroke-linejoin:round;stroke:rgb(18.431373%,30.980392%,30.980392%);stroke-opacity:1;stroke-miterlimit:10;" d="M 185.074219 366.519531 C 185.074219 370.25 182.046875 373.277344 178.316406 373.277344 C 174.585938 373.277344 171.558594 370.25 171.558594 366.519531 C 171.558594 362.789062 174.585938 359.761719 178.316406 359.761719 C 182.046875 359.761719 185.074219 362.789062 185.074219 366.519531 "/>
<path style="fill-rule:nonzero;fill:rgb(18.431373%,30.980392%,30.980392%);fill-opacity:1;stroke-width:0.708661;stroke-linecap:round;stroke-linejoin:round;stroke:rgb(18.431373%,30.980392%,30.980392%);stroke-opacity:1;stroke-miterlimit:10;" d="M 192.121094 348.496094 C 192.121094 352.226562 189.097656 355.253906 185.367188 355.253906 C 181.632812 355.253906 178.609375 352.226562 178.609375 348.496094 C 178.609375 344.765625 181.632812 341.742188 185.367188 341.742188 C 189.097656 341.742188 192.121094 344.765625 192.121094 348.496094 "/>
<path style="fill-rule:nonzero;fill:rgb(18.431373%,30.980392%,30.980392%);fill-opacity:1;stroke-width:0.708661;stroke-linecap:round;stroke-linejoin:round;stroke:rgb(18.431373%,30.980392%,30.980392%);stroke-opacity:1;stroke-miterlimit:10;" d="M 199.171875 387.644531 C 199.171875 391.375 196.144531 394.398438 192.414062 394.398438 C 188.683594 394.398438 185.660156 391.375 185.660156 387.644531 C 185.660156 383.914062 188.683594 380.886719 192.414062 380.886719 C 196.144531 380.886719 199.171875 383.914062 199.171875 387.644531 "/>
<path style="fill-rule:nonzero;fill:rgb(18.431373%,30.980392%,30.980392%);fill-opacity:1;stroke-width:0.708661;stroke-linecap:round;stroke-linejoin:round;stroke:rgb(18.431373%,30.980392%,30.980392%);stroke-opacity:1;stroke-miterlimit:10;" d="M 206.21875 383.933594 C 206.21875 387.667969 203.195312 390.691406 199.464844 390.691406 C 195.734375 390.691406 192.707031 387.667969 192.707031 383.933594 C 192.707031 380.203125 195.734375 377.179688 199.464844 377.179688 C 203.195312 377.179688 206.21875 380.203125 206.21875 383.933594 "/>
<path style="fill-rule:nonzero;fill:rgb(18.431373%,30.980392%,30.980392%);fill-opacity:1;stroke-width:0.708661;stroke-linecap:round;stroke-linejoin:round;stroke:rgb(18.431373%,30.980392%,30.980392%);stroke-opacity:1;stroke-miterlimit:10;" d="M 213.269531 364.582031 C 213.269531 368.316406 210.246094 371.339844 206.511719 371.339844 C 202.78125 371.339844 199.757812 368.316406 199.757812 364.582031 C 199.757812 360.851562 202.78125 357.828125 206.511719 357.828125 C 210.246094 357.828125 213.269531 360.851562 213.269531 364.582031 "/>
<path style="fill-rule:nonzero;fill:rgb(18.431373%,30.980392%,30.980392%);fill-opacity:1;stroke-width:0.708661;stroke-linecap:round;stroke-linejoin:round;stroke:rgb(18.431373%,30.980392%,30.980392%);stroke-opacity:1;stroke-miterlimit:10;" d="M 220.320312 361.09375 C 220.320312 364.828125 217.292969 367.851562 213.5625 367.851562 C 209.832031 367.851562 206.804688 364.828125 206.804688 361.09375 C 206.804688 357.363281 209.832031 354.339844 213.5625 354.339844 C 217.292969 354.339844 220.320312 357.363281 220.320312 361.09375 "/>
<path style="fill-rule:nonzero;fill:rgb(18.431373%,30.980392%,30.980392%);fill-opacity:1;stroke-width:0.708661;stroke-linecap:round;stroke-linejoin:round;stroke:rgb(18.431373%,30.980392%,30.980392%);stroke-opacity:1;stroke-miterlimit:10;" d="M 227.367188 372.886719 C 227.367188 376.617188 224.34375 379.640625 220.613281 379.640625 C 216.878906 379.640625 213.855469 376.617188 213.855469 372.886719 C 213.855469 369.15625 216.878906 366.128906 220.613281 366.128906 C 224.34375 366.128906 227.367188 369.15625 227.367188 372.886719 "/>
<path style="fill-rule:nonzero;fill:rgb(18.431373%,30.980392%,30.980392%);fill-opacity:1;stroke-width:0.708661;stroke-linecap:round;stroke-linejoin:round;stroke:rgb(18.431373%,30.980392%,30.980392%);stroke-opacity:1;stroke-miterlimit:10;" d="M 234.417969 304.835938 C 234.417969 308.566406 231.390625 311.59375 227.660156 311.59375 C 223.929688 311.59375 220.90625 308.566406 220.90625 304.835938 C 220.90625 301.105469 223.929688 298.082031 227.660156 298.082031 C 231.390625 298.082031 234.417969 301.105469 234.417969 304.835938 "/>
<path style="fill-rule:nonzero;fill:rgb(18.431373%,30.980392%,30.980392%);fill-opacity:1;stroke-width:0.708661;stroke-linecap:round;stroke-linejoin:round;stroke:rgb(18.431373%,30.980392%,30.980392%);stroke-opacity:1;stroke-miterlimit:10;" d="M 241.464844 322.691406 C 241.464844 326.425781 238.441406 329.449219 234.710938 329.449219 C 230.980469 329.449219 227.953125 326.425781 227.953125 322.691406 C 227.953125 318.960938 230.980469 315.9375 234.710938 315.9375 C 238.441406 315.9375 241.464844 318.960938 241.464844 322.691406 "/>
<path style="fill-rule:nonzero;fill:rgb(18.431373%,30.980392%,30.980392%);fill-opacity:1;stroke-width:0.708661;stroke-linecap:round;stroke-linejoin:round;stroke:rgb(18.431373%,30.980392%,30.980392%);stroke-opacity:1;stroke-miterlimit:10;" d="M 248.515625 315.136719 C 248.515625 318.867188 245.492188 321.890625 241.757812 321.890625 C 238.027344 321.890625 235.003906 318.867188 235.003906 315.136719 C 235.003906 311.40625 238.027344 308.378906 241.757812 308.378906 C 245.492188 308.378906 248.515625 311.40625 248.515625 315.136719 "/>
<path style="fill-rule:nonzero;fill:rgb(18.431373%,30.980392%,30.980392%);fill-opacity:1;stroke-width:0.708661;stroke-linecap:round;stroke-linejoin:round;stroke:rgb(18.431373%,30.980392%,30.980392%);stroke-opacity:1;stroke-miterlimit:10;" d="M 255.566406 359.875 C 255.566406 363.605469 252.539062 366.632812 248.808594 366.632812 C 245.078125 366.632812 242.050781 363.605469 242.050781 359.875 C 242.050781 356.144531 245.078125 353.117188 248.808594 353.117188 C 252.539062 353.117188 255.566406 356.144531 255.566406 359.875 "/>
<path style="fill-rule:nonzero;fill:rgb(18.431373%,30.980392%,30.980392%);fill-opacity:1;stroke-width:0.708661;stroke-linecap:round;stroke-linejoin:round;stroke:rgb(18.431373%,30.980392%,30.980392%);stroke-opacity:1;stroke-miterlimit:10;" d="M 262.613281 332.554688 C 262.613281 336.285156 259.589844 339.308594 255.859375 339.308594 C 252.125 339.308594 249.101562 336.285156 249.101562 332.554688 C 249.101562 328.820312 252.125 325.796875 255.859375 325.796875 C 259.589844 325.796875 262.613281 328.820312 262.613281 332.554688 "/>
<path style="fill-rule:nonzero;fill:rgb(18.431373%,30.980392%,30.980392%);fill-opacity:1;stroke-width:0.708661;stroke-linecap:round;stroke-linejoin:round;stroke:rgb(18.431373%,30.980392%,30.980392%);stroke-opacity:1;stroke-miterlimit:10;" d="M 269.664062 352.953125 C 269.664062 356.683594 266.636719 359.707031 262.90625 359.707031 C 259.175781 359.707031 256.152344 356.683594 256.152344 352.953125 C 256.152344 349.21875 259.175781 346.195312 262.90625 346.195312 C 266.636719 346.195312 269.664062 349.21875 269.664062 352.953125 "/>
<path style="fill-rule:nonzero;fill:rgb(18.431373%,30.980392%,30.980392%);fill-opacity:1;stroke-width:0.708661;stroke-linecap:round;stroke-linejoin:round;stroke:rgb(18.431373%,30.980392%,30.980392%);stroke-opacity:1;stroke-miterlimit:10;" d="M 276.710938 338.929688 C 276.710938 342.664062 273.6875 345.6875 269.957031 345.6875 C 266.226562 345.6875 263.199219 342.664062 263.199219 338.929688 C 263.199219 335.199219 266.226562 332.175781 269.957031 332.175781 C 273.6875 332.175781 276.710938 335.199219 276.710938 338.929688 "/>
<path style="fill-rule:nonzero;fill:rgb(18.431373%,30.980392%,30.980392%);fill-opacity:1;stroke-width:0.708661;stroke-linecap:round;stroke-linejoin:round;stroke:rgb(18.431373%,30.980392%,30.980392%);stroke-opacity:1;stroke-miterlimit:10;" d="M 283.761719 279.734375 C 283.761719 283.464844 280.738281 286.488281 277.003906 286.488281 C 273.273438 286.488281 270.25 283.464844 270.25 279.734375 C 270.25 276.003906 273.273438 272.976562 277.003906 272.976562 C 280.738281 272.976562 283.761719 276.003906 283.761719 279.734375 "/>
<path style="fill-rule:nonzero;fill:rgb(18.431373%,30.980392%,30.980392%);fill-opacity:1;stroke-width:0.708661;stroke-linecap:round;stroke-linejoin:round;stroke:rgb(18.431373%,30.980392%,30.980392%);stroke-opacity:1;stroke-miterlimit:10;" d="M 290.8125 292.105469 C 290.8125 295.835938 287.785156 298.863281 284.054688 298.863281 C 280.324219 298.863281 277.296875 295.835938 277.296875 292.105469 C 277.296875 288.375 280.324219 285.351562 284.054688 285.351562 C 287.785156 285.351562 290.8125 288.375 290.8125 292.105469 "/>
<path style="fill-rule:nonzero;fill:rgb(18.431373%,30.980392%,30.980392%);fill-opacity:1;stroke-width:0.708661;stroke-linecap:round;stroke-linejoin:round;stroke:rgb(18.431373%,30.980392%,30.980392%);stroke-opacity:1;stroke-miterlimit:10;" d="M 297.859375 273.867188 C 297.859375 277.597656 294.835938 280.625 291.105469 280.625 C 287.371094 280.625 284.347656 277.597656 284.347656 273.867188 C 284.347656 270.136719 287.371094 267.109375 291.105469 267.109375 C 294.835938 267.109375 297.859375 270.136719 297.859375 273.867188 "/>
<path style="fill-rule:nonzero;fill:rgb(18.431373%,30.980392%,30.980392%);fill-opacity:1;stroke-width:0.708661;stroke-linecap:round;stroke-linejoin:round;stroke:rgb(18.431373%,30.980392%,30.980392%);stroke-opacity:1;stroke-miterlimit:10;" d="M 304.910156 303.371094 C 304.910156 307.101562 301.882812 310.128906 298.152344 310.128906 C 294.421875 310.128906 291.398438 307.101562 291.398438 303.371094 C 291.398438 299.640625 294.421875 296.617188 298.152344 296.617188 C 301.882812 296.617188 304.910156 299.640625 304.910156 303.371094 "/>
<path style="fill-rule:nonzero;fill:rgb(18.431373%,30.980392%,30.980392%);fill-opacity:1;stroke-width:0.708661;stroke-linecap:round;stroke-linejoin:round;stroke:rgb(18.431373%,30.980392%,30.980392%);stroke-opacity:1;stroke-miterlimit:10;" d="M 311.957031 282.835938 C 311.957031 286.566406 308.933594 289.59375 305.203125 289.59375 C 301.472656 289.59375 298.445312 286.566406 298.445312 282.835938 C 298.445312 279.105469 301.472656 276.078125 305.203125 276.078125 C 308.933594 276.078125 311.957031 279.105469 311.957031 282.835938 "/>
<path style="fill-rule:nonzero;fill:rgb(18.431373%,30.980392%,30.980392%);fill-opacity:1;stroke-width:0.708661;stroke-linecap:round;stroke-linejoin:round;stroke:rgb(18.431373%,30.980392%,30.980392%);stroke-opacity:1;stroke-miterlimit:10;" d="M 319.007812 287.738281 C 319.007812 291.46875 315.984375 294.496094 312.25 294.496094 C 308.519531 294.496094 305.496094 291.46875 305.496094 287.738281 C 305.496094 284.007812 308.519531 280.984375 312.25 280.984375 C 315.984375 280.984375 319.007812 284.007812 319.007812 287.738281 "/>
<path style="fill-rule:nonzero;fill:rgb(18.431373%,30.980392%,30.980392%);fill-opacity:1;stroke-width:0.708661;stroke-linecap:round;stroke-linejoin:round;stroke:rgb(18.431373%,30.980392%,30.980392%);stroke-opacity:1;stroke-miterlimit:10;" d="M 326.058594 269.175781 C 326.058594 272.90625 323.03125 275.929688 319.300781 275.929688 C 315.570312 275.929688 312.542969 272.90625 312.542969 269.175781 C 312.542969 265.445312 315.570312 262.417969 319.300781 262.417969 C 323.03125 262.417969 326.058594 265.445312 326.058594 269.175781 "/>
<path style="fill-rule:nonzero;fill:rgb(18.431373%,30.980392%,30.980392%);fill-opacity:1;stroke-width:0.708661;stroke-linecap:round;stroke-linejoin:round;stroke:rgb(18.431373%,30.980392%,30.980392%);stroke-opacity:1;stroke-miterlimit:10;" d="M 333.105469 314.445312 C 333.105469 318.175781 330.082031 321.199219 326.351562 321.199219 C 322.617188 321.199219 319.59375 318.175781 319.59375 314.445312 C 319.59375 310.710938 322.617188 307.6875 326.351562 307.6875 C 330.082031 307.6875 333.105469 310.710938 333.105469 314.445312 "/>
<path style="fill-rule:nonzero;fill:rgb(18.431373%,30.980392%,30.980392%);fill-opacity:1;stroke-width:0.708661;stroke-linecap:round;stroke-linejoin:round;stroke:rgb(18.431373%,30.980392%,30.980392%);stroke-opacity:1;stroke-miterlimit:10;" d="M 340.15625 299.785156 C 340.15625 303.515625 337.128906 306.539062 333.398438 306.539062 C 329.667969 306.539062 326.644531 303.515625 326.644531 299.785156 C 326.644531 296.050781 329.667969 293.027344 333.398438 293.027344 C 337.128906 293.027344 340.15625 296.050781 340.15625 299.785156 "/>
<path style="fill-rule:nonzero;fill:rgb(18.431373%,30.980392%,30.980392%);fill-opacity:1;stroke-width:0.708661;stroke-linecap:round;stroke-linejoin:round;stroke:rgb(18.431373%,30.980392%,30.980392%);stroke-opacity:1;stroke-miterlimit:10;" d="M 347.203125 274.492188 C 347.203125 278.222656 344.179688 281.25 340.449219 281.25 C 336.71875 281.25 333.691406 278.222656 333.691406 274.492188 C 333.691406 270.761719 336.71875 267.738281 340.449219 267.738281 C 344.179688 267.738281 347.203125 270.761719 347.203125 274.492188 "/>
<path style="fill-rule:nonzero;fill:rgb(18.431373%,30.980392%,30.980392%);fill-opacity:1;stroke-width:0.708661;stroke-linecap:round;stroke-linejoin:round;stroke:rgb(18.431373%,30.980392%,30.980392%);stroke-opacity:1;stroke-miterlimit:10;" d="M 354.253906 265.175781 C 354.253906 268.90625 351.230469 271.933594 347.496094 271.933594 C 343.765625 271.933594 340.742188 268.90625 340.742188 265.175781 C 340.742188 261.445312 343.765625 258.421875 347.496094 258.421875 C 351.230469 258.421875 354.253906 261.445312 354.253906 265.175781 "/>
<path style="fill-rule:nonzero;fill:rgb(18.431373%,30.980392%,30.980392%);fill-opacity:1;stroke-width:0.708661;stroke-linecap:round;stroke-linejoin:round;stroke:rgb(18.431373%,30.980392%,30.980392%);stroke-opacity:1;stroke-miterlimit:10;" d="M 361.304688 307.234375 C 361.304688 310.964844 358.277344 313.992188 354.546875 313.992188 C 350.816406 313.992188 347.789062 310.964844 347.789062 307.234375 C 347.789062 303.503906 350.816406 300.476562 354.546875 300.476562 C 358.277344 300.476562 361.304688 303.503906 361.304688 307.234375 "/>
<path style="fill-rule:nonzero;fill:rgb(18.431373%,30.980392%,30.980392%);fill-opacity:1;stroke-width:0.708661;stroke-linecap:round;stroke-linejoin:round;stroke:rgb(18.431373%,30.980392%,30.980392%);stroke-opacity:1;stroke-miterlimit:10;" d="M 368.351562 228.820312 C 368.351562 232.554688 365.328125 235.578125 361.597656 235.578125 C 357.863281 235.578125 354.839844 232.554688 354.839844 228.820312 C 354.839844 225.089844 357.863281 222.066406 361.597656 222.066406 C 365.328125 222.066406 368.351562 225.089844 368.351562 228.820312 "/>
<path style="fill-rule:nonzero;fill:rgb(18.431373%,30.980392%,30.980392%);fill-opacity:1;stroke-width:0.708661;stroke-linecap:round;stroke-linejoin:round;stroke:rgb(18.431373%,30.980392%,30.980392%);stroke-opacity:1;stroke-miterlimit:10;" d="M 375.402344 293.820312 C 375.402344 297.554688 372.375 300.578125 368.644531 300.578125 C 364.914062 300.578125 361.890625 297.554688 361.890625 293.820312 C 361.890625 290.089844 364.914062 287.066406 368.644531 287.066406 C 372.375 287.066406 375.402344 290.089844 375.402344 293.820312 "/>
<path style="fill-rule:nonzero;fill:rgb(18.431373%,30.980392%,30.980392%);fill-opacity:1;stroke-width:0.708661;stroke-linecap:round;stroke-linejoin:round;stroke:rgb(18.431373%,30.980392%,30.980392%);stroke-opacity:1;stroke-miterlimit:10;" d="M 382.449219 268.617188 C 382.449219 272.347656 379.425781 275.371094 375.695312 275.371094 C 371.964844 275.371094 368.9375 272.347656 368.9375 268.617188 C 368.9375 264.882812 371.964844 261.859375 375.695312 261.859375 C 379.425781 261.859375 382.449219 264.882812 382.449219 268.617188 "/>
<path style="fill-rule:nonzero;fill:rgb(18.431373%,30.980392%,30.980392%);fill-opacity:1;stroke-width:0.708661;stroke-linecap:round;stroke-linejoin:round;stroke:rgb(18.431373%,30.980392%,30.980392%);stroke-opacity:1;stroke-miterlimit:10;" d="M 389.5 223.011719 C 389.5 226.742188 386.476562 229.765625 382.742188 229.765625 C 379.011719 229.765625 375.988281 226.742188 375.988281 223.011719 C 375.988281 219.28125 379.011719 216.253906 382.742188 216.253906 C 386.476562 216.253906 389.5 219.28125 389.5 223.011719 "/>
<path style="fill-rule:nonzero;fill:rgb(18.431373%,30.980392%,30.980392%);fill-opacity:1;stroke-width:0.708661;stroke-linecap:round;stroke-linejoin:round;stroke:rgb(18.431373%,30.980392%,30.980392%);stroke-opacity:1;stroke-miterlimit:10;" d="M 396.550781 255.84375 C 396.550781 259.574219 393.523438 262.597656 389.792969 262.597656 C 386.0625 262.597656 383.035156 259.574219 383.035156 255.84375 C 383.035156 252.109375 386.0625 249.085938 389.792969 249.085938 C 393.523438 249.085938 396.550781 252.109375 396.550781 255.84375 "/>
<path style="fill-rule:nonzero;fill:rgb(18.431373%,30.980392%,30.980392%);fill-opacity:1;stroke-width:0.708661;stroke-linecap:round;stroke-linejoin:round;stroke:rgb(18.431373%,30.980392%,30.980392%);stroke-opacity:1;stroke-miterlimit:10;" d="M 403.597656 248.320312 C 403.597656 252.050781 400.574219 255.078125 396.84375 255.078125 C 393.109375 255.078125 390.085938 252.050781 390.085938 248.320312 C 390.085938 244.589844 393.109375 241.566406 396.84375 241.566406 C 400.574219 241.566406 403.597656 244.589844 403.597656 248.320312 "/>
<path style="fill-rule:nonzero;fill:rgb(18.431373%,30.980392%,30.980392%);fill-opacity:1;stroke-width:0.708661;stroke-linecap:round;stroke-linejoin:round;stroke:rgb(18.431373%,30.980392%,30.980392%);stroke-opacity:1;stroke-miterlimit:10;" d="M 410.648438 191.066406 C 410.648438 194.796875 407.621094 197.824219 403.890625 197.824219 C 400.160156 197.824219 397.136719 194.796875 397.136719 191.066406 C 397.136719 187.335938 400.160156 184.3125 403.890625 184.3125 C 407.621094 184.3125 410.648438 187.335938 410.648438 191.066406 "/>
<path style="fill-rule:nonzero;fill:rgb(18.431373%,30.980392%,30.980392%);fill-opacity:1;stroke-width:0.708661;stroke-linecap:round;stroke-linejoin:round;stroke:rgb(18.431373%,30.980392%,30.980392%);stroke-opacity:1;stroke-miterlimit:10;" d="M 417.695312 199.257812 C 417.695312 202.988281 414.671875 206.011719 410.941406 206.011719 C 407.210938 206.011719 404.183594 202.988281 404.183594 199.257812 C 404.183594 195.523438 407.210938 192.5 410.941406 192.5 C 414.671875 192.5 417.695312 195.523438 417.695312 199.257812 "/>
<path style="fill-rule:nonzero;fill:rgb(18.431373%,30.980392%,30.980392%);fill-opacity:1;stroke-width:0.708661;stroke-linecap:round;stroke-linejoin:round;stroke:rgb(18.431373%,30.980392%,30.980392%);stroke-opacity:1;stroke-miterlimit:10;" d="M 424.746094 260.730469 C 424.746094 264.460938 421.722656 267.488281 417.988281 267.488281 C 414.257812 267.488281 411.234375 264.460938 411.234375 260.730469 C 411.234375 257 414.257812 253.976562 417.988281 253.976562 C 421.722656 253.976562 424.746094 257 424.746094 260.730469 "/>
<path style="fill-rule:nonzero;fill:rgb(18.431373%,30.980392%,30.980392%);fill-opacity:1;stroke-width:0.708661;stroke-linecap:round;stroke-linejoin:round;stroke:rgb(18.431373%,30.980392%,30.980392%);stroke-opacity:1;stroke-miterlimit:10;" d="M 431.796875 208.875 C 431.796875 212.609375 428.769531 215.632812 425.039062 215.632812 C 421.308594 215.632812 418.28125 212.609375 418.28125 208.875 C 418.28125 205.144531 421.308594 202.121094 425.039062 202.121094 C 428.769531 202.121094 431.796875 205.144531 431.796875 208.875 "/>
<path style="fill-rule:nonzero;fill:rgb(18.431373%,30.980392%,30.980392%);fill-opacity:1;stroke-width:0.708661;stroke-linecap:round;stroke-linejoin:round;stroke:rgb(18.431373%,30.980392%,30.980392%);stroke-opacity:1;stroke-miterlimit:10;" d="M 438.84375 188.820312 C 438.84375 192.550781 435.820312 195.574219 432.089844 195.574219 C 428.355469 195.574219 425.332031 192.550781 425.332031 188.820312 C 425.332031 185.085938 428.355469 182.0625 432.089844 182.0625 C 435.820312 182.0625 438.84375 185.085938 438.84375 188.820312 "/>
<path style="fill-rule:nonzero;fill:rgb(18.431373%,30.980392%,30.980392%);fill-opacity:1;stroke-width:0.708661;stroke-linecap:round;stroke-linejoin:round;stroke:rgb(18.431373%,30.980392%,30.980392%);stroke-opacity:1;stroke-miterlimit:10;" d="M 445.894531 218.277344 C 445.894531 222.007812 442.867188 225.03125 439.136719 225.03125 C 435.40625 225.03125 432.382812 222.007812 432.382812 218.277344 C 432.382812 214.546875 435.40625 211.519531 439.136719 211.519531 C 442.867188 211.519531 445.894531 214.546875 445.894531 218.277344 "/>
<path style="fill-rule:nonzero;fill:rgb(18.431373%,30.980392%,30.980392%);fill-opacity:1;stroke-width:0.708661;stroke-linecap:round;stroke-linejoin:round;stroke:rgb(18.431373%,30.980392%,30.980392%);stroke-opacity:1;stroke-miterlimit:10;" d="M 452.941406 182.289062 C 452.941406 186.019531 449.917969 189.042969 446.1875 189.042969 C 442.457031 189.042969 439.429688 186.019531 439.429688 182.289062 C 439.429688 178.558594 442.457031 175.53125 446.1875 175.53125 C 449.917969 175.53125 452.941406 178.558594 452.941406 182.289062 "/>
<path style="fill-rule:nonzero;fill:rgb(18.431373%,30.980392%,30.980392%);fill-opacity:1;stroke-width:0.708661;stroke-linecap:round;stroke-linejoin:round;stroke:rgb(18.431373%,30.980392%,30.980392%);stroke-opacity:1;stroke-miterlimit:10;" d="M 459.992188 171.363281 C 459.992188 175.097656 456.96875 178.121094 453.234375 178.121094 C 449.503906 178.121094 446.480469 175.097656 446.480469 171.363281 C 446.480469 167.632812 449.503906 164.609375 453.234375 164.609375 C 456.96875 164.609375 459.992188 167.632812 459.992188 171.363281 "/>
<path style="fill-rule:nonzero;fill:rgb(18.431373%,30.980392%,30.980392%);fill-opacity:1;stroke-width:0.708661;stroke-linecap:round;stroke-linejoin:round;stroke:rgb(18.431373%,30.980392%,30.980392%);stroke-opacity:1;stroke-miterlimit:10;" d="M 467.042969 181.164062 C 467.042969 184.894531 464.015625 187.917969 460.285156 187.917969 C 456.554688 187.917969 453.527344 184.894531 453.527344 181.164062 C 453.527344 177.429688 456.554688 174.40625 460.285156 174.40625 C 464.015625 174.40625 467.042969 177.429688 467.042969 181.164062 "/>
<path style="fill-rule:nonzero;fill:rgb(18.431373%,30.980392%,30.980392%);fill-opacity:1;stroke-width:0.708661;stroke-linecap:round;stroke-linejoin:round;stroke:rgb(18.431373%,30.980392%,30.980392%);stroke-opacity:1;stroke-miterlimit:10;" d="M 474.089844 224.839844 C 474.089844 228.570312 471.066406 231.59375 467.335938 231.59375 C 463.601562 231.59375 460.578125 228.570312 460.578125 224.839844 C 460.578125 221.109375 463.601562 218.082031 467.335938 218.082031 C 471.066406 218.082031 474.089844 221.109375 474.089844 224.839844 "/>
<path style="fill-rule:nonzero;fill:rgb(18.431373%,30.980392%,30.980392%);fill-opacity:1;stroke-width:0.708661;stroke-linecap:round;stroke-linejoin:round;stroke:rgb(18.431373%,30.980392%,30.980392%);stroke-opacity:1;stroke-miterlimit:10;" d="M 481.140625 188.558594 C 481.140625 192.289062 478.113281 195.316406 474.382812 195.316406 C 470.652344 195.316406 467.628906 192.289062 467.628906 188.558594 C 467.628906 184.828125 470.652344 181.804688 474.382812 181.804688 C 478.113281 181.804688 481.140625 184.828125 481.140625 188.558594 "/>
<path style="fill-rule:nonzero;fill:rgb(18.431373%,30.980392%,30.980392%);fill-opacity:1;stroke-width:0.708661;stroke-linecap:round;stroke-linejoin:round;stroke:rgb(18.431373%,30.980392%,30.980392%);stroke-opacity:1;stroke-miterlimit:10;" d="M 488.1875 212.097656 C 488.1875 215.828125 485.164062 218.851562 481.433594 218.851562 C 477.703125 218.851562 474.675781 215.828125 474.675781 212.097656 C 474.675781 208.367188 477.703125 205.339844 481.433594 205.339844 C 485.164062 205.339844 488.1875 208.367188 488.1875 212.097656 "/>
<path style="fill-rule:nonzero;fill:rgb(18.431373%,30.980392%,30.980392%);fill-opacity:1;stroke-width:0.708661;stroke-linecap:round;stroke-linejoin:round;stroke:rgb(18.431373%,30.980392%,30.980392%);stroke-opacity:1;stroke-miterlimit:10;" d="M 495.238281 157.363281 C 495.238281 161.09375 492.214844 164.121094 488.480469 164.121094 C 484.75 164.121094 481.726562 161.09375 481.726562 157.363281 C 481.726562 153.632812 484.75 150.605469 488.480469 150.605469 C 492.214844 150.605469 495.238281 153.632812 495.238281 157.363281 "/>
<path style="fill-rule:nonzero;fill:rgb(18.431373%,30.980392%,30.980392%);fill-opacity:1;stroke-width:0.708661;stroke-linecap:round;stroke-linejoin:round;stroke:rgb(18.431373%,30.980392%,30.980392%);stroke-opacity:1;stroke-miterlimit:10;" d="M 502.289062 186.949219 C 502.289062 190.683594 499.261719 193.707031 495.53125 193.707031 C 491.800781 193.707031 488.773438 190.683594 488.773438 186.949219 C 488.773438 183.21875 491.800781 180.195312 495.53125 180.195312 C 499.261719 180.195312 502.289062 183.21875 502.289062 186.949219 "/>
<path style="fill-rule:nonzero;fill:rgb(18.431373%,30.980392%,30.980392%);fill-opacity:1;stroke-width:0.708661;stroke-linecap:round;stroke-linejoin:round;stroke:rgb(18.431373%,30.980392%,30.980392%);stroke-opacity:1;stroke-miterlimit:10;" d="M 509.335938 199.761719 C 509.335938 203.492188 506.3125 206.519531 502.582031 206.519531 C 498.847656 206.519531 495.824219 203.492188 495.824219 199.761719 C 495.824219 196.03125 498.847656 193.007812 502.582031 193.007812 C 506.3125 193.007812 509.335938 196.03125 509.335938 199.761719 "/>
<path style="fill-rule:nonzero;fill:rgb(18.431373%,30.980392%,30.980392%);fill-opacity:1;stroke-width:0.708661;stroke-linecap:round;stroke-linejoin:round;stroke:rgb(18.431373%,30.980392%,30.980392%);stroke-opacity:1;stroke-miterlimit:10;" d="M 516.386719 170.5 C 516.386719 174.230469 513.359375 177.253906 509.628906 177.253906 C 505.898438 177.253906 502.875 174.230469 502.875 170.5 C 502.875 166.765625 505.898438 163.742188 509.628906 163.742188 C 513.359375 163.742188 516.386719 166.765625 516.386719 170.5 "/>
<path style="fill-rule:nonzero;fill:rgb(18.431373%,30.980392%,30.980392%);fill-opacity:1;stroke-width:0.708661;stroke-linecap:round;stroke-linejoin:round;stroke:rgb(18.431373%,30.980392%,30.980392%);stroke-opacity:1;stroke-miterlimit:10;" d="M 523.433594 209.351562 C 523.433594 213.082031 520.410156 216.109375 516.679688 216.109375 C 512.949219 216.109375 509.921875 213.082031 509.921875 209.351562 C 509.921875 205.621094 512.949219 202.59375 516.679688 202.59375 C 520.410156 202.59375 523.433594 205.621094 523.433594 209.351562 "/>
<path style="fill-rule:nonzero;fill:rgb(18.431373%,30.980392%,30.980392%);fill-opacity:1;stroke-width:0.708661;stroke-linecap:round;stroke-linejoin:round;stroke:rgb(18.431373%,30.980392%,30.980392%);stroke-opacity:1;stroke-miterlimit:10;" d="M 530.484375 113.46875 C 530.484375 117.199219 527.460938 120.226562 523.726562 120.226562 C 519.996094 120.226562 516.972656 117.199219 516.972656 113.46875 C 516.972656 109.738281 519.996094 106.714844 523.726562 106.714844 C 527.460938 106.714844 530.484375 109.738281 530.484375 113.46875 "/>
<path style="fill-rule:nonzero;fill:rgb(18.431373%,30.980392%,30.980392%);fill-opacity:1;stroke-width:0.708661;stroke-linecap:round;stroke-linejoin:round;stroke:rgb(18.431373%,30.980392%,30.980392%);stroke-opacity:1;stroke-miterlimit:10;" d="M 537.535156 173.128906 C 537.535156 176.859375 534.507812 179.882812 530.777344 179.882812 C 527.046875 179.882812 524.019531 176.859375 524.019531 173.128906 C 524.019531 169.398438 527.046875 166.371094 530.777344 166.371094 C 534.507812 166.371094 537.535156 169.398438 537.535156 173.128906 "/>
<path style="fill-rule:nonzero;fill:rgb(18.431373%,30.980392%,30.980392%);fill-opacity:1;stroke-width:0.708661;stroke-linecap:round;stroke-linejoin:round;stroke:rgb(18.431373%,30.980392%,30.980392%);stroke-opacity:1;stroke-miterlimit:10;" d="M 544.582031 173.824219 C 544.582031 177.554688 541.558594 180.582031 537.828125 180.582031 C 534.09375 180.582031 531.070312 177.554688 531.070312 173.824219 C 531.070312 170.09375 534.09375 167.070312 537.828125 167.070312 C 541.558594 167.070312 544.582031 170.09375 544.582031 173.824219 "/>
<path style="fill-rule:nonzero;fill:rgb(18.431373%,30.980392%,30.980392%);fill-opacity:1;stroke-width:0.708661;stroke-linecap:round;stroke-linejoin:round;stroke:rgb(18.431373%,30.980392%,30.980392%);stroke-opacity:1;stroke-miterlimit:10;" d="M 551.632812 181.84375 C 551.632812 185.574219 548.605469 188.597656 544.875 188.597656 C 541.144531 188.597656 538.121094 185.574219 538.121094 181.84375 C 538.121094 178.109375 541.144531 175.085938 544.875 175.085938 C 548.605469 175.085938 551.632812 178.109375 551.632812 181.84375 "/>
<path style="fill-rule:nonzero;fill:rgb(18.431373%,30.980392%,30.980392%);fill-opacity:1;stroke-width:0.708661;stroke-linecap:round;stroke-linejoin:round;stroke:rgb(18.431373%,30.980392%,30.980392%);stroke-opacity:1;stroke-miterlimit:10;" d="M 558.679688 185.457031 C 558.679688 189.1875 555.65625 192.210938 551.925781 192.210938 C 548.195312 192.210938 545.167969 189.1875 545.167969 185.457031 C 545.167969 181.722656 548.195312 178.699219 551.925781 178.699219 C 555.65625 178.699219 558.679688 181.722656 558.679688 185.457031 "/>
<path style="fill-rule:nonzero;fill:rgb(18.431373%,30.980392%,30.980392%);fill-opacity:1;stroke-width:0.708661;stroke-linecap:round;stroke-linejoin:round;stroke:rgb(18.431373%,30.980392%,30.980392%);stroke-opacity:1;stroke-miterlimit:10;" d="M 565.730469 135.4375 C 565.730469 139.167969 562.707031 142.191406 558.972656 142.191406 C 555.242188 142.191406 552.21875 139.167969 552.21875 135.4375 C 552.21875 131.707031 555.242188 128.679688 558.972656 128.679688 C 562.707031 128.679688 565.730469 131.707031 565.730469 135.4375 "/>
<path style="fill-rule:nonzero;fill:rgb(18.431373%,30.980392%,30.980392%);fill-opacity:1;stroke-width:0.708661;stroke-linecap:round;stroke-linejoin:round;stroke:rgb(18.431373%,30.980392%,30.980392%);stroke-opacity:1;stroke-miterlimit:10;" d="M 572.78125 140.789062 C 572.78125 144.519531 569.753906 147.546875 566.023438 147.546875 C 562.292969 147.546875 559.265625 144.519531 559.265625 140.789062 C 559.265625 137.058594 562.292969 134.03125 566.023438 134.03125 C 569.753906 134.03125 572.78125 137.058594 572.78125 140.789062 "/>
<path style="fill-rule:nonzero;fill:rgb(18.431373%,30.980392%,30.980392%);fill-opacity:1;stroke-width:0.708661;stroke-linecap:round;stroke-linejoin:round;stroke:rgb(18.431373%,30.980392%,30.980392%);stroke-opacity:1;stroke-miterlimit:10;" d="M 579.828125 122.710938 C 579.828125 126.441406 576.804688 129.464844 573.074219 129.464844 C 569.339844 129.464844 566.316406 126.441406 566.316406 122.710938 C 566.316406 118.976562 569.339844 115.953125 573.074219 115.953125 C 576.804688 115.953125 579.828125 118.976562 579.828125 122.710938 "/>
<path style="fill-rule:nonzero;fill:rgb(18.431373%,30.980392%,30.980392%);fill-opacity:1;stroke-width:0.708661;stroke-linecap:round;stroke-linejoin:round;stroke:rgb(18.431373%,30.980392%,30.980392%);stroke-opacity:1;stroke-miterlimit:10;" d="M 586.878906 92.335938 C 586.878906 96.066406 583.851562 99.09375 580.121094 99.09375 C 576.390625 99.09375 573.367188 96.066406 573.367188 92.335938 C 573.367188 88.605469 576.390625 85.582031 580.121094 85.582031 C 583.851562 85.582031 586.878906 88.605469 586.878906 92.335938 "/>
<path style="fill-rule:nonzero;fill:rgb(18.431373%,30.980392%,30.980392%);fill-opacity:1;stroke-width:0.708661;stroke-linecap:round;stroke-linejoin:round;stroke:rgb(18.431373%,30.980392%,30.980392%);stroke-opacity:1;stroke-miterlimit:10;" d="M 593.925781 160.753906 C 593.925781 164.484375 590.902344 167.511719 587.171875 167.511719 C 583.441406 167.511719 580.414062 164.484375 580.414062 160.753906 C 580.414062 157.023438 583.441406 153.996094 587.171875 153.996094 C 590.902344 153.996094 593.925781 157.023438 593.925781 160.753906 "/>
<path style="fill-rule:nonzero;fill:rgb(18.431373%,30.980392%,30.980392%);fill-opacity:1;stroke-width:0.708661;stroke-linecap:round;stroke-linejoin:round;stroke:rgb(18.431373%,30.980392%,30.980392%);stroke-opacity:1;stroke-miterlimit:10;" d="M 600.976562 134.964844 C 600.976562 138.695312 597.953125 141.722656 594.21875 141.722656 C 590.488281 141.722656 587.464844 138.695312 587.464844 134.964844 C 587.464844 131.234375 590.488281 128.207031 594.21875 128.207031 C 597.953125 128.207031 600.976562 131.234375 600.976562 134.964844 "/>
<path style="fill-rule:nonzero;fill:rgb(18.431373%,30.980392%,30.980392%);fill-opacity:1;stroke-width:0.708661;stroke-linecap:round;stroke-linejoin:round;stroke:rgb(18.431373%,30.980392%,30.980392%);stroke-opacity:1;stroke-miterlimit:10;" d="M 608.027344 108.121094 C 608.027344 111.855469 605 114.878906 601.269531 114.878906 C 597.539062 114.878906 594.511719 111.855469 594.511719 108.121094 C 594.511719 104.390625 597.539062 101.367188 601.269531 101.367188 C 605 101.367188 608.027344 104.390625 608.027344 108.121094 "/>
<path style="fill-rule:nonzero;fill:rgb(18.431373%,30.980392%,30.980392%);fill-opacity:1;stroke-width:0.708661;stroke-linecap:round;stroke-linejoin:round;stroke:rgb(18.431373%,30.980392%,30.980392%);stroke-opacity:1;stroke-miterlimit:10;" d="M 615.074219 87.09375 C 615.074219 90.824219 612.050781 93.847656 608.320312 93.847656 C 604.585938 93.847656 601.5625 90.824219 601.5625 87.09375 C 601.5625 83.359375 604.585938 80.335938 608.320312 80.335938 C 612.050781 80.335938 615.074219 83.359375 615.074219 87.09375 "/>
<path style="fill-rule:nonzero;fill:rgb(18.431373%,30.980392%,30.980392%);fill-opacity:1;stroke-width:0.708661;stroke-linecap:round;stroke-linejoin:round;stroke:rgb(18.431373%,30.980392%,30.980392%);stroke-opacity:1;stroke-miterlimit:10;" d="M 622.125 126.84375 C 622.125 130.574219 619.097656 133.597656 615.367188 133.597656 C 611.636719 133.597656 608.613281 130.574219 608.613281 126.84375 C 608.613281 123.109375 611.636719 120.085938 615.367188 120.085938 C 619.097656 120.085938 622.125 123.109375 622.125 126.84375 "/>
<path style="fill-rule:nonzero;fill:rgb(18.431373%,30.980392%,30.980392%);fill-opacity:1;stroke-width:0.708661;stroke-linecap:round;stroke-linejoin:round;stroke:rgb(18.431373%,30.980392%,30.980392%);stroke-opacity:1;stroke-miterlimit:10;" d="M 629.171875 86.484375 C 629.171875 90.214844 626.148438 93.238281 622.417969 93.238281 C 618.6875 93.238281 615.660156 90.214844 615.660156 86.484375 C 615.660156 82.75 618.6875 79.726562 622.417969 79.726562 C 626.148438 79.726562 629.171875 82.75 629.171875 86.484375 "/>
<path style="fill-rule:nonzero;fill:rgb(18.431373%,30.980392%,30.980392%);fill-opacity:1;stroke-width:0.708661;stroke-linecap:round;stroke-linejoin:round;stroke:rgb(18.431373%,30.980392%,30.980392%);stroke-opacity:1;stroke-miterlimit:10;" d="M 636.222656 123.496094 C 636.222656 127.226562 633.199219 130.253906 629.464844 130.253906 C 625.734375 130.253906 622.710938 127.226562 622.710938 123.496094 C 622.710938 119.765625 625.734375 116.742188 629.464844 116.742188 C 633.199219 116.742188 636.222656 119.765625 636.222656 123.496094 "/>
<path style="fill-rule:nonzero;fill:rgb(18.431373%,30.980392%,30.980392%);fill-opacity:1;stroke-width:0.708661;stroke-linecap:round;stroke-linejoin:round;stroke:rgb(18.431373%,30.980392%,30.980392%);stroke-opacity:1;stroke-miterlimit:10;" d="M 643.273438 115.019531 C 643.273438 118.753906 640.246094 121.777344 636.515625 121.777344 C 632.785156 121.777344 629.757812 118.753906 629.757812 115.019531 C 629.757812 111.289062 632.785156 108.265625 636.515625 108.265625 C 640.246094 108.265625 643.273438 111.289062 643.273438 115.019531 "/>
<path style="fill-rule:nonzero;fill:rgb(18.431373%,30.980392%,30.980392%);fill-opacity:1;stroke-width:0.708661;stroke-linecap:round;stroke-linejoin:round;stroke:rgb(18.431373%,30.980392%,30.980392%);stroke-opacity:1;stroke-miterlimit:10;" d="M 650.320312 64.605469 C 650.320312 68.339844 647.296875 71.363281 643.566406 71.363281 C 639.832031 71.363281 636.808594 68.339844 636.808594 64.605469 C 636.808594 60.875 639.832031 57.851562 643.566406 57.851562 C 647.296875 57.851562 650.320312 60.875 650.320312 64.605469 "/>
<path style="fill-rule:nonzero;fill:rgb(18.431373%,30.980392%,30.980392%);fill-opacity:1;stroke-width:0.708661;stroke-linecap:round;stroke-linejoin:round;stroke:rgb(18.431373%,30.980392%,30.980392%);stroke-opacity:1;stroke-miterlimit:10;" d="M 657.371094 85.628906 C 657.371094 89.359375 654.34375 92.382812 650.613281 92.382812 C 646.882812 92.382812 643.859375 89.359375 643.859375 85.628906 C 643.859375 81.894531 646.882812 78.871094 650.613281 78.871094 C 654.34375 78.871094 657.371094 81.894531 657.371094 85.628906 "/>
<path style="fill-rule:nonzero;fill:rgb(18.431373%,30.980392%,30.980392%);fill-opacity:1;stroke-width:0.708661;stroke-linecap:round;stroke-linejoin:round;stroke:rgb(18.431373%,30.980392%,30.980392%);stroke-opacity:1;stroke-miterlimit:10;" d="M 664.417969 81.285156 C 664.417969 85.015625 661.394531 88.039062 657.664062 88.039062 C 653.933594 88.039062 650.90625 85.015625 650.90625 81.285156 C 650.90625 77.550781 653.933594 74.527344 657.664062 74.527344 C 661.394531 74.527344 664.417969 77.550781 664.417969 81.285156 "/>
<path style="fill-rule:nonzero;fill:rgb(18.431373%,30.980392%,30.980392%);fill-opacity:1;stroke-width:0.708661;stroke-linecap:round;stroke-linejoin:round;stroke:rgb(18.431373%,30.980392%,30.980392%);stroke-opacity:1;stroke-miterlimit:10;" d="M 671.46875 85.15625 C 671.46875 88.886719 668.445312 91.914062 664.710938 91.914062 C 660.980469 91.914062 657.957031 88.886719 657.957031 85.15625 C 657.957031 81.425781 660.980469 78.402344 664.710938 78.402344 C 668.445312 78.402344 671.46875 81.425781 671.46875 85.15625 "/>
<path style="fill-rule:nonzero;fill:rgb(18.431373%,30.980392%,30.980392%);fill-opacity:1;stroke-width:0.708661;stroke-linecap:round;stroke-linejoin:round;stroke:rgb(18.431373%,30.980392%,30.980392%);stroke-opacity:1;stroke-miterlimit:10;" d="M 678.519531 99.546875 C 678.519531 103.28125 675.492188 106.304688 671.761719 106.304688 C 668.03125 106.304688 665.003906 103.28125 665.003906 99.546875 C 665.003906 95.816406 668.03125 92.792969 671.761719 92.792969 C 675.492188 92.792969 678.519531 95.816406 678.519531 99.546875 "/>
<path style="fill-rule:nonzero;fill:rgb(18.431373%,30.980392%,30.980392%);fill-opacity:1;stroke-width:0.708661;stroke-linecap:round;stroke-linejoin:round;stroke:rgb(18.431373%,30.980392%,30.980392%);stroke-opacity:1;stroke-miterlimit:10;" d="M 685.566406 61.460938 C 685.566406 65.195312 682.542969 68.21875 678.8125 68.21875 C 675.078125 68.21875 672.054688 65.195312 672.054688 61.460938 C 672.054688 57.730469 675.078125 54.707031 678.8125 54.707031 C 682.542969 54.707031 685.566406 57.730469 685.566406 61.460938 "/>
<path style="fill-rule:nonzero;fill:rgb(18.431373%,30.980392%,30.980392%);fill-opacity:1;stroke-width:0.708661;stroke-linecap:round;stroke-linejoin:round;stroke:rgb(18.431373%,30.980392%,30.980392%);stroke-opacity:1;stroke-miterlimit:10;" d="M 692.617188 61.960938 C 692.617188 65.691406 689.589844 68.714844 685.859375 68.714844 C 682.128906 68.714844 679.105469 65.691406 679.105469 61.960938 C 679.105469 58.230469 682.128906 55.203125 685.859375 55.203125 C 689.589844 55.203125 692.617188 58.230469 692.617188 61.960938 "/>
<path style="fill-rule:nonzero;fill:rgb(18.431373%,30.980392%,30.980392%);fill-opacity:1;stroke-width:0.708661;stroke-linecap:round;stroke-linejoin:round;stroke:rgb(18.431373%,30.980392%,30.980392%);stroke-opacity:1;stroke-miterlimit:10;" d="M 699.664062 84.269531 C 699.664062 88.003906 696.640625 91.027344 692.910156 91.027344 C 689.179688 91.027344 686.152344 88.003906 686.152344 84.269531 C 686.152344 80.539062 689.179688 77.515625 692.910156 77.515625 C 696.640625 77.515625 699.664062 80.539062 699.664062 84.269531 "/>
<path style="fill-rule:nonzero;fill:rgb(18.431373%,30.980392%,30.980392%);fill-opacity:1;stroke-width:0.708661;stroke-linecap:round;stroke-linejoin:round;stroke:rgb(18.431373%,30.980392%,30.980392%);stroke-opacity:1;stroke-miterlimit:10;" d="M 706.714844 46.332031 C 706.714844 50.0625 703.691406 53.089844 699.957031 53.089844 C 696.226562 53.089844 693.203125 50.0625 693.203125 46.332031 C 693.203125 42.601562 696.226562 39.578125 699.957031 39.578125 C 703.691406 39.578125 706.714844 42.601562 706.714844 46.332031 "/>
<path style="fill-rule:nonzero;fill:rgb(18.431373%,30.980392%,30.980392%);fill-opacity:1;stroke-width:0.708661;stroke-linecap:round;stroke-linejoin:round;stroke:rgb(18.431373%,30.980392%,30.980392%);stroke-opacity:1;stroke-miterlimit:10;" d="M 713.765625 62.378906 C 713.765625 66.109375 710.738281 69.132812 707.007812 69.132812 C 703.277344 69.132812 700.25 66.109375 700.25 62.378906 C 700.25 58.644531 703.277344 55.621094 707.007812 55.621094 C 710.738281 55.621094 713.765625 58.644531 713.765625 62.378906 "/>
<path style="fill-rule:nonzero;fill:rgb(18.431373%,30.980392%,30.980392%);fill-opacity:1;stroke-width:0.708661;stroke-linecap:round;stroke-linejoin:round;stroke:rgb(18.431373%,30.980392%,30.980392%);stroke-opacity:1;stroke-miterlimit:10;" d="M 720.8125 23.4375 C 720.8125 27.171875 717.789062 30.195312 714.058594 30.195312 C 710.324219 30.195312 707.300781 27.171875 707.300781 23.4375 C 707.300781 19.707031 710.324219 16.683594 714.058594 16.683594 C 717.789062 16.683594 720.8125 19.707031 720.8125 23.4375 "/>
<path style="fill-rule:nonzero;fill:rgb(18.431373%,30.980392%,30.980392%);fill-opacity:1;stroke-width:0.708661;stroke-linecap:round;stroke-linejoin:round;stroke:rgb(18.431373%,30.980392%,30.980392%);stroke-opacity:1;stroke-miterlimit:10;" d="M 727.863281 82.390625 C 727.863281 86.121094 724.835938 89.144531 721.105469 89.144531 C 717.375 89.144531 714.351562 86.121094 714.351562 82.390625 C 714.351562 78.660156 717.375 75.632812 721.105469 75.632812 C 724.835938 75.632812 727.863281 78.660156 727.863281 82.390625 "/>
<path style="fill:none;stroke-width:6.40187;stroke-linecap:butt;stroke-linejoin:round;stroke:rgb(94.117647%,50.196078%,50.196078%);stroke-opacity:1;stroke-miterlimit:10;" d="M 23.234375 470.414062 L 32.066406 465.027344 L 40.902344 459.636719 L 49.734375 454.25 L 58.570312 448.863281 L 67.402344 443.472656 L 76.238281 438.085938 L 85.070312 432.699219 L 93.902344 427.308594 L 102.738281 421.921875 L 111.570312 416.53125 L 120.40625 411.144531 L 129.238281 405.757812 L 138.074219 400.367188 L 146.90625 394.980469 L 155.742188 389.589844 L 164.574219 384.203125 L 173.410156 378.816406 L 182.242188 373.425781 L 191.078125 368.039062 L 199.910156 362.648438 L 208.742188 357.261719 L 217.578125 351.875 L 226.410156 346.484375 L 235.246094 341.097656 L 244.078125 335.707031 L 252.914062 330.320312 L 261.746094 324.933594 L 270.582031 319.542969 L 279.414062 314.15625 L 288.25 308.769531 L 297.082031 303.378906 L 305.917969 297.992188 L 314.75 292.601562 L 323.582031 287.214844 L 332.417969 281.828125 L 341.25 276.4375 L 350.085938 271.050781 L 358.917969 265.660156 L 367.753906 260.273438 L 376.585938 254.886719 L 385.421875 249.496094 L 394.253906 244.109375 L 403.089844 238.71875 L 411.921875 233.332031 L 420.757812 227.945312 L 429.589844 222.554688 L 438.421875 217.167969 L 447.257812 211.777344 L 456.089844 206.390625 L 464.925781 201.003906 L 473.757812 195.613281 L 482.59375 190.226562 L 491.425781 184.835938 L 500.261719 179.449219 L 509.09375 174.0625 L 517.929688 168.671875 L 526.761719 163.285156 L 535.597656 157.898438 L 544.429688 152.507812 L 553.261719 147.121094 L 562.097656 141.730469 L 570.929688 136.34375 L 579.765625 130.957031 L 588.597656 125.566406 L 597.433594 120.179688 L 606.265625 114.789062 L 615.101562 109.402344 L 623.933594 104.015625 L 632.769531 98.625 L 641.601562 93.238281 L 650.4375 87.847656 L 668.101562 77.074219 L 676.9375 71.683594 L 685.769531 66.296875 L 694.605469 60.90625 L 703.4375 55.519531 L 712.273438 50.132812 L 721.105469 44.742188 "/>
</g>
</svg>
