<?xml version="1.0" encoding="UTF-8"?>
<svg xmlns="http://www.w3.org/2000/svg" xmlns:xlink="http://www.w3.org/1999/xlink" width="756pt" height="504pt" viewBox="0 0 756 504" version="1.1">
<g id="surface9">
<rect x="0" y="0" width="756" height="504" style="fill:rgb(100%,100%,100%);fill-opacity:1;stroke:none;"/>
<path style="fill-rule:nonzero;fill:rgb(18.431373%,30.980392%,30.980392%);fill-opacity:1;stroke-width:0.708661;stroke-linecap:round;stroke-linejoin:round;stroke:rgb(18.431373%,30.980392%,30.980392%);stroke-opacity:1;stroke-miterlimit:10;" d="M 29.988281 313.039062 C 29.988281 316.769531 26.964844 319.796875 23.234375 319.796875 C 19.503906 319.796875 16.476562 316.769531 16.476562 313.039062 C 16.476562 309.308594 19.503906 306.28125 23.234375 306.28125 C 26.964844 306.28125 29.988281 309.308594 29.988281 313.039062 "/>
<path style="fill-rule:nonzero;fill:rgb(18.431373%,30.980392%,30.980392%);fill-opacity:1;stroke-width:0.708661;stroke-linecap:round;stroke-linejoin:round;stroke:rgb(18.431373%,30.980392%,30.980392%);stroke-opacity:1;stroke-miterlimit:10;" d="M 37.039062 413.089844 C 37.039062 416.824219 34.015625 419.847656 30.28125 419.847656 C 26.550781 419.847656 23.527344 416.824219 23.527344 413.089844 C 23.527344 409.359375 26.550781 406.335938 30.28125 406.335938 C 34.015625 406.335938 37.039062 409.359375 37.039062 413.089844 "/>
<path style="fill-rule:nonzero;fill:rgb(18.431373%,30.980392%,30.980392%);fill-opacity:1;stroke-width:0.708661;stroke-linecap:round;stroke-linejoin:round;stroke:rgb(18.431373%,30.980392%,30.980392%);stroke-opacity:1;stroke-miterlimit:10;" d="M 44.089844 362.632812 C 44.089844 366.363281 41.0625 369.390625 37.332031 369.390625 C 33.601562 369.390625 30.574219 366.363281 30.574219 362.632812 C 30.574219 358.902344 33.601562 355.875 37.332031 355.875 C 41.0625 355.875 44.089844 358.902344 44.089844 362.632812 "/>
<path style="fill-rule:nonzero;fill:rgb(18.431373%,30.980392%,30.980392%);fill-opacity:1;stroke-width:0.708661;stroke-linecap:round;stroke-linejoin:round;stroke:rgb(18.431373%,30.980392%,30.980392%);stroke-opacity:1;stroke-miterlimit:10;" d="M 51.136719 241.066406 C 51.136719 244.796875 48.113281 247.824219 44.382812 247.824219 C 40.648438 247.824219 37.625 244.796875 37.625 241.066406 C 37.625 237.335938 40.648438 234.3125 44.382812 234.3125 C 48.113281 234.3125 51.136719 237.335938 51.136719 241.066406 "/>
<path style="fill-rule:nonzero;fill:rgb(18.431373%,30.980392%,30.980392%);fill-opacity:1;stroke-width:0.708661;stroke-linecap:round;stroke-linejoin:round;stroke:rgb(18.431373%,30.980392%,30.980392%);stroke-opacity:1;stroke-miterlimit:10;" d="M 58.1875 435.585938 C 58.1875 439.316406 55.160156 442.34375 51.429688 442.34375 C 47.699219 442.34375 44.675781 439.316406 44.675781 435.585938 C 44.675781 431.855469 47.699219 428.828125 51.429688 428.828125 C 55.160156 428.828125 58.1875 431.855469 58.1875 435.585938 "/>
<path style="fill-rule:nonzero;fill:rgb(18.431373%,30.980392%,30.980392%);fill-opacity:1;stroke-width:0.708661;stroke-linecap:round;stroke-linejoin:round;stroke:rgb(18.431373%,30.980392%,30.980392%);stroke-opacity:1;stroke-miterlimit:10;" d="M 65.234375 347.957031 C 65.234375 351.6875 62.210938 354.710938 58.480469 354.710938 C 54.75 354.710938 51.722656 351.6875 51.722656 347.957031 C 51.722656 344.222656 54.75 341.199219 58.480469 341.199219 C 62.210938 341.199219 65.234375 344.222656 65.234375 347.957031 "/>
<path style="fill-rule:nonzero;fill:rgb(18.431373%,30.980392%,30.980392%);fill-opacity:1;stroke-width:0.708661;stroke-linecap:round;stroke-linejoin:round;stroke:rgb(18.431373%,30.980392%,30.980392%);stroke-opacity:1;stroke-miterlimit:10;" d="M 72.285156 365.648438 C 72.285156 369.378906 69.261719 372.402344 65.527344 372.402344 C 61.796875 372.402344 58.773438 369.378906 58.773438 365.648438 C 58.773438 361.914062 61.796875 358.890625 65.527344 358.890625 C 69.261719 358.890625 72.285156 361.914062 72.285156 365.648438 "/>
<path style="fill-rule:nonzero;fill:rgb(18.431373%,30.980392%,30.980392%);fill-opacity:1;stroke-width:0.708661;stroke-linecap:round;stroke-linejoin:round;stroke:rgb(18.431373%,30.980392%,30.980392%);stroke-opacity:1;stroke-miterlimit:10;" d="M 79.335938 433.863281 C 79.335938 437.59375 76.308594 440.617188 72.578125 440.617188 C 68.847656 440.617188 65.820312 437.59375 65.820312 433.863281 C 65.820312 430.128906 68.847656 427.105469 72.578125 427.105469 C 76.308594 427.105469 79.335938 430.128906 79.335938 433.863281 "/>
<path style="fill-rule:nonzero;fill:rgb(18.431373%,30.980392%,30.980392%);fill-opacity:1;stroke-width:0.708661;stroke-linecap:round;stroke-linejoin:round;stroke:rgb(18.431373%,30.980392%,30.980392%);stroke-opacity:1;stroke-miterlimit:10;" d="M 86.382812 385.546875 C 86.382812 389.277344 83.359375 392.304688 79.628906 392.304688 C 75.894531 392.304688 72.871094 389.277344 72.871094 385.546875 C 72.871094 381.816406 75.894531 378.792969 79.628906 378.792969 C 83.359375 378.792969 86.382812 381.816406 86.382812 385.546875 "/>
<path style="fill-rule:nonzero;fill:rgb(18.431373%,30.980392%,30.980392%);fill-opacity:1;stroke-width:0.708661;stroke-linecap:round;stroke-linejoin:round;stroke:rgb(18.431373%,30.980392%,30.980392%);stroke-opacity:1;stroke-miterlimit:10;" d="M 93.433594 365.066406 C 93.433594 368.800781 90.40625 371.824219 86.675781 371.824219 C 82.945312 371.824219 79.921875 368.800781 79.921875 365.066406 C 79.921875 361.335938 82.945312 358.3125 86.675781 358.3125 C 90.40625 358.3125 93.433594 361.335938 93.433594 365.066406 "/>
<path style="fill-rule:nonzero;fill:rgb(18.431373%,30.980392%,30.980392%);fill-opacity:1;stroke-width:0.708661;stroke-linecap:round;stroke-linejoin:round;stroke:rgb(18.431373%,30.980392%,30.980392%);stroke-opacity:1;stroke-miterlimit:10;" d="M 100.480469 333.003906 C 100.480469 336.734375 97.457031 339.757812 93.726562 339.757812 C 89.996094 339.757812 86.96875 336.734375 86.96875 333.003906 C 86.96875 329.273438 89.996094 326.246094 93.726562 326.246094 C 97.457031 326.246094 100.480469 329.273438 100.480469 333.003906 "/>
<path style="fill-rule:nonzero;fill:rgb(18.431373%,30.980392%,30.980392%);fill-opacity:1;stroke-width:0.708661;stroke-linecap:round;stroke-linejoin:round;stroke:rgb(18.431373%,30.980392%,30.980392%);stroke-opacity:1;stroke-miterlimit:10;" d="M 107.53125 341.507812 C 107.53125 345.238281 104.507812 348.265625 100.773438 348.265625 C 97.042969 348.265625 94.019531 345.238281 94.019531 341.507812 C 94.019531 337.777344 97.042969 334.753906 100.773438 334.753906 C 104.507812 334.753906 107.53125 337.777344 107.53125 341.507812 "/>
<path style="fill-rule:nonzero;fill:rgb(18.431373%,30.980392%,30.980392%);fill-opacity:1;stroke-width:0.708661;stroke-linecap:round;stroke-linejoin:round;stroke:rgb(18.431373%,30.980392%,30.980392%);stroke-opacity:1;stroke-miterlimit:10;" d="M 114.582031 353.273438 C 114.582031 357.007812 111.554688 360.03125 107.824219 360.03125 C 104.09375 360.03125 101.066406 357.007812 101.066406 353.273438 C 101.066406 349.542969 104.09375 346.519531 107.824219 346.519531 C 111.554688 346.519531 114.582031 349.542969 114.582031 353.273438 "/>
<path style="fill-rule:nonzero;fill:rgb(18.431373%,30.980392%,30.980392%);fill-opacity:1;stroke-width:0.708661;stroke-linecap:round;stroke-linejoin:round;stroke:rgb(18.431373%,30.980392%,30.980392%);stroke-opacity:1;stroke-miterlimit:10;" d="M 121.628906 185.503906 C 121.628906 189.238281 118.605469 192.261719 114.875 192.261719 C 111.140625 192.261719 108.117188 189.238281 108.117188 185.503906 C 108.117188 181.773438 111.140625 178.75 114.875 178.75 C 118.605469 178.75 121.628906 181.773438 121.628906 185.503906 "/>
<path style="fill-rule:nonzero;fill:rgb(18.431373%,30.980392%,30.980392%);fill-opacity:1;stroke-width:0.708661;stroke-linecap:round;stroke-linejoin:round;stroke:rgb(18.431373%,30.980392%,30.980392%);stroke-opacity:1;stroke-miterlimit:10;" d="M 128.679688 411.929688 C 128.679688 415.664062 125.652344 418.6875 121.921875 418.6875 C 118.191406 418.6875 115.167969 415.664062 115.167969 411.929688 C 115.167969 408.199219 118.191406 405.175781 121.921875 405.175781 C 125.652344 405.175781 128.679688 408.199219 128.679688 411.929688 "/>
<path style="fill-rule:nonzero;fill:rgb(18.431373%,30.980392%,30.980392%);fill-opacity:1;stroke-width:0.708661;stroke-linecap:round;stroke-linejoin:round;stroke:rgb(18.431373%,30.980392%,30.980392%);stroke-opacity:1;stroke-miterlimit:10;" d="M 135.726562 223.152344 C 135.726562 226.882812 132.703125 229.910156 128.972656 229.910156 C 125.242188 229.910156 122.214844 226.882812 122.214844 223.152344 C 122.214844 219.421875 125.242188 216.394531 128.972656 216.394531 C 132.703125 216.394531 135.726562 219.421875 135.726562 223.152344 "/>
<path style="fill-rule:nonzero;fill:rgb(18.431373%,30.980392%,30.980392%);fill-opacity:1;stroke-width:0.708661;stroke-linecap:round;stroke-linejoin:round;stroke:rgb(18.431373%,30.980392%,30.980392%);stroke-opacity:1;stroke-miterlimit:10;" d="M 142.777344 492.222656 C 142.777344 495.953125 139.753906 498.976562 136.019531 498.976562 C 132.289062 498.976562 129.265625 495.953125 129.265625 492.222656 C 129.265625 488.488281 132.289062 485.464844 136.019531 485.464844 C 139.753906 485.464844 142.777344 488.488281 142.777344 492.222656 "/>
<path style="fill-rule:nonzero;fill:rgb(18.431373%,30.980392%,30.980392%);fill-opacity:1;stroke-width:0.708661;stroke-linecap:round;stroke-linejoin:round;stroke:rgb(18.431373%,30.980392%,30.980392%);stroke-opacity:1;stroke-miterlimit:10;" d="M 149.828125 375.191406 C 149.828125 378.921875 146.800781 381.949219 143.070312 381.949219 C 139.339844 381.949219 136.3125 378.921875 136.3125 375.191406 C 136.3125 371.460938 139.339844 368.433594 143.070312 368.433594 C 146.800781 368.433594 149.828125 371.460938 149.828125 375.191406 "/>
<path style="fill-rule:nonzero;fill:rgb(18.431373%,30.980392%,30.980392%);fill-opacity:1;stroke-width:0.708661;stroke-linecap:round;stroke-linejoin:round;stroke:rgb(18.431373%,30.980392%,30.980392%);stroke-opacity:1;stroke-miterlimit:10;" d="M 156.875 135.582031 C 156.875 139.3125 153.851562 142.335938 150.121094 142.335938 C 146.386719 142.335938 143.363281 139.3125 143.363281 135.582031 C 143.363281 131.847656 146.386719 128.824219 150.121094 128.824219 C 153.851562 128.824219 156.875 131.847656 156.875 135.582031 "/>
<path style="fill-rule:nonzero;fill:rgb(18.431373%,30.980392%,30.980392%);fill-opacity:1;stroke-width:0.708661;stroke-linecap:round;stroke-linejoin:round;stroke:rgb(18.431373%,30.980392%,30.980392%);stroke-opacity:1;stroke-miterlimit:10;" d="M 163.925781 474.863281 C 163.925781 478.59375 160.898438 481.621094 157.167969 481.621094 C 153.4375 481.621094 150.414062 478.59375 150.414062 474.863281 C 150.414062 471.132812 153.4375 468.105469 157.167969 468.105469 C 160.898438 468.105469 163.925781 471.132812 163.925781 474.863281 "/>
<path style="fill-rule:nonzero;fill:rgb(18.431373%,30.980392%,30.980392%);fill-opacity:1;stroke-width:0.708661;stroke-linecap:round;stroke-linejoin:round;stroke:rgb(18.431373%,30.980392%,30.980392%);stroke-opacity:1;stroke-miterlimit:10;" d="M 170.972656 326.21875 C 170.972656 329.953125 167.949219 332.976562 164.21875 332.976562 C 160.488281 332.976562 157.460938 329.953125 157.460938 326.21875 C 157.460938 322.488281 160.488281 319.464844 164.21875 319.464844 C 167.949219 319.464844 170.972656 322.488281 170.972656 326.21875 "/>
<path style="fill-rule:nonzero;fill:rgb(18.431373%,30.980392%,30.980392%);fill-opacity:1;stroke-width:0.708661;stroke-linecap:round;stroke-linejoin:round;stroke:rgb(18.431373%,30.980392%,30.980392%);stroke-opacity:1;stroke-miterlimit:10;" d="M 178.023438 304.082031 C 178.023438 307.816406 175 310.839844 171.265625 310.839844 C 167.535156 310.839844 164.511719 307.816406 164.511719 304.082031 C 164.511719 300.351562 167.535156 297.328125 171.265625 297.328125 C 175 297.328125 178.023438 300.351562 178.023438 304.082031 "/>
<path style="fill-rule:nonzero;fill:rgb(18.431373%,30.980392%,30.980392%);fill-opacity:1;stroke-width:0.708661;stroke-linecap:round;stroke-linejoin:round;stroke:rgb(18.431373%,30.980392%,30.980392%);stroke-opacity:1;stroke-miterlimit:10;" d="M 185.074219 319.019531 C 185.074219 322.75 182.046875 325.777344 178.316406 325.777344 C 174.585938 325.777344 171.558594 322.75 171.558594 319.019531 C 171.558594 315.289062 174.585938 312.265625 178.316406 312.265625 C 182.046875 312.265625 185.074219 315.289062 185.074219 319.019531 "/>
<path style="fill-rule:nonzero;fill:rgb(18.431373%,30.980392%,30.980392%);fill-opacity:1;stroke-width:0.708661;stroke-linecap:round;stroke-linejoin:round;stroke:rgb(18.431373%,30.980392%,30.980392%);stroke-opacity:1;stroke-miterlimit:10;" d="M 192.121094 311.148438 C 192.121094 314.878906 189.097656 317.902344 185.367188 317.902344 C 181.632812 317.902344 178.609375 314.878906 178.609375 311.148438 C 178.609375 307.414062 181.632812 304.390625 185.367188 304.390625 C 189.097656 304.390625 192.121094 307.414062 192.121094 311.148438 "/>
<path style="fill-rule:nonzero;fill:rgb(18.431373%,30.980392%,30.980392%);fill-opacity:1;stroke-width:0.708661;stroke-linecap:round;stroke-linejoin:round;stroke:rgb(18.431373%,30.980392%,30.980392%);stroke-opacity:1;stroke-miterlimit:10;" d="M 199.171875 362.210938 C 199.171875 365.941406 196.144531 368.964844 192.414062 368.964844 C 188.683594 368.964844 185.660156 365.941406 185.660156 362.210938 C 185.660156 358.476562 188.683594 355.453125 192.414062 355.453125 C 196.144531 355.453125 199.171875 358.476562 199.171875 362.210938 "/>
<path style="fill-rule:nonzero;fill:rgb(18.431373%,30.980392%,30.980392%);fill-opacity:1;stroke-width:0.708661;stroke-linecap:round;stroke-linejoin:round;stroke:rgb(18.431373%,30.980392%,30.980392%);stroke-opacity:1;stroke-miterlimit:10;" d="M 206.21875 423.320312 C 206.21875 427.050781 203.195312 430.074219 199.464844 430.074219 C 195.734375 430.074219 192.707031 427.050781 192.707031 423.320312 C 192.707031 419.585938 195.734375 416.5625 199.464844 416.5625 C 203.195312 416.5625 206.21875 419.585938 206.21875 423.320312 "/>
<path style="fill-rule:nonzero;fill:rgb(18.431373%,30.980392%,30.980392%);fill-opacity:1;stroke-width:0.708661;stroke-linecap:round;stroke-linejoin:round;stroke:rgb(18.431373%,30.980392%,30.980392%);stroke-opacity:1;stroke-miterlimit:10;" d="M 213.269531 348.046875 C 213.269531 351.777344 210.246094 354.800781 206.511719 354.800781 C 202.78125 354.800781 199.757812 351.777344 199.757812 348.046875 C 199.757812 344.3125 202.78125 341.289062 206.511719 341.289062 C 210.246094 341.289062 213.269531 344.3125 213.269531 348.046875 "/>
<path style="fill-rule:nonzero;fill:rgb(18.431373%,30.980392%,30.980392%);fill-opacity:1;stroke-width:0.708661;stroke-linecap:round;stroke-linejoin:round;stroke:rgb(18.431373%,30.980392%,30.980392%);stroke-opacity:1;stroke-miterlimit:10;" d="M 220.320312 377.726562 C 220.320312 381.457031 217.292969 384.480469 213.5625 384.480469 C 209.832031 384.480469 206.804688 381.457031 206.804688 377.726562 C 206.804688 373.992188 209.832031 370.96875 213.5625 370.96875 C 217.292969 370.96875 220.320312 373.992188 220.320312 377.726562 "/>
<path style="fill-rule:nonzero;fill:rgb(18.431373%,30.980392%,30.980392%);fill-opacity:1;stroke-width:0.708661;stroke-linecap:round;stroke-linejoin:round;stroke:rgb(18.431373%,30.980392%,30.980392%);stroke-opacity:1;stroke-miterlimit:10;" d="M 227.367188 459.679688 C 227.367188 463.410156 224.34375 466.4375 220.613281 466.4375 C 216.878906 466.4375 213.855469 463.410156 213.855469 459.679688 C 213.855469 455.949219 216.878906 452.925781 220.613281 452.925781 C 224.34375 452.925781 227.367188 455.949219 227.367188 459.679688 "/>
<path style="fill-rule:nonzero;fill:rgb(18.431373%,30.980392%,30.980392%);fill-opacity:1;stroke-width:0.708661;stroke-linecap:round;stroke-linejoin:round;stroke:rgb(18.431373%,30.980392%,30.980392%);stroke-opacity:1;stroke-miterlimit:10;" d="M 234.417969 272.394531 C 234.417969 276.128906 231.390625 279.152344 227.660156 279.152344 C 223.929688 279.152344 220.90625 276.128906 220.90625 272.394531 C 220.90625 268.664062 223.929688 265.640625 227.660156 265.640625 C 231.390625 265.640625 234.417969 268.664062 234.417969 272.394531 "/>
<path style="fill-rule:nonzero;fill:rgb(18.431373%,30.980392%,30.980392%);fill-opacity:1;stroke-width:0.708661;stroke-linecap:round;stroke-linejoin:round;stroke:rgb(18.431373%,30.980392%,30.980392%);stroke-opacity:1;stroke-miterlimit:10;" d="M 241.464844 299.789062 C 241.464844 303.523438 238.441406 306.546875 234.710938 306.546875 C 230.980469 306.546875 227.953125 303.523438 227.953125 299.789062 C 227.953125 296.058594 230.980469 293.035156 234.710938 293.035156 C 238.441406 293.035156 241.464844 296.058594 241.464844 299.789062 "/>
<path style="fill-rule:nonzero;fill:rgb(18.431373%,30.980392%,30.980392%);fill-opacity:1;stroke-width:0.708661;stroke-linecap:round;stroke-linejoin:round;stroke:rgb(18.431373%,30.980392%,30.980392%);stroke-opacity:1;stroke-miterlimit:10;" d="M 248.515625 274.191406 C 248.515625 277.921875 245.492188 280.945312 241.757812 280.945312 C 238.027344 280.945312 235.003906 277.921875 235.003906 274.191406 C 235.003906 270.457031 238.027344 267.433594 241.757812 267.433594 C 245.492188 267.433594 248.515625 270.457031 248.515625 274.191406 "/>
<path style="fill-rule:nonzero;fill:rgb(18.431373%,30.980392%,30.980392%);fill-opacity:1;stroke-width:0.708661;stroke-linecap:round;stroke-linejoin:round;stroke:rgb(18.431373%,30.980392%,30.980392%);stroke-opacity:1;stroke-miterlimit:10;" d="M 255.566406 247.476562 C 255.566406 251.207031 252.539062 254.234375 248.808594 254.234375 C 245.078125 254.234375 242.050781 251.207031 242.050781 247.476562 C 242.050781 243.746094 245.078125 240.71875 248.808594 240.71875 C 252.539062 240.71875 255.566406 243.746094 255.566406 247.476562 "/>
<path style="fill-rule:nonzero;fill:rgb(18.431373%,30.980392%,30.980392%);fill-opacity:1;stroke-width:0.708661;stroke-linecap:round;stroke-linejoin:round;stroke:rgb(18.431373%,30.980392%,30.980392%);stroke-opacity:1;stroke-miterlimit:10;" d="M 262.613281 241.621094 C 262.613281 245.351562 259.589844 248.375 255.859375 248.375 C 252.125 248.375 249.101562 245.351562 249.101562 241.621094 C 249.101562 237.886719 252.125 234.863281 255.859375 234.863281 C 259.589844 234.863281 262.613281 237.886719 262.613281 241.621094 "/>
<path style="fill-rule:nonzero;fill:rgb(18.431373%,30.980392%,30.980392%);fill-opacity:1;stroke-width:0.708661;stroke-linecap:round;stroke-linejoin:round;stroke:rgb(18.431373%,30.980392%,30.980392%);stroke-opacity:1;stroke-miterlimit:10;" d="M 269.664062 184.625 C 269.664062 188.355469 266.636719 191.378906 262.90625 191.378906 C 259.175781 191.378906 256.152344 188.355469 256.152344 184.625 C 256.152344 180.894531 259.175781 177.867188 262.90625 177.867188 C 266.636719 177.867188 269.664062 180.894531 269.664062 184.625 "/>
<path style="fill-rule:nonzero;fill:rgb(18.431373%,30.980392%,30.980392%);fill-opacity:1;stroke-width:0.708661;stroke-linecap:round;stroke-linejoin:round;stroke:rgb(18.431373%,30.980392%,30.980392%);stroke-opacity:1;stroke-miterlimit:10;" d="M 276.710938 184.871094 C 276.710938 188.601562 273.6875 191.628906 269.957031 191.628906 C 266.226562 191.628906 263.199219 188.601562 263.199219 184.871094 C 263.199219 181.140625 266.226562 178.113281 269.957031 178.113281 C 273.6875 178.113281 276.710938 181.140625 276.710938 184.871094 "/>
<path style="fill-rule:nonzero;fill:rgb(18.431373%,30.980392%,30.980392%);fill-opacity:1;stroke-width:0.708661;stroke-linecap:round;stroke-linejoin:round;stroke:rgb(18.431373%,30.980392%,30.980392%);stroke-opacity:1;stroke-miterlimit:10;" d="M 283.761719 325.316406 C 283.761719 329.046875 280.738281 332.070312 277.003906 332.070312 C 273.273438 332.070312 270.25 329.046875 270.25 325.316406 C 270.25 321.585938 273.273438 318.558594 277.003906 318.558594 C 280.738281 318.558594 283.761719 321.585938 283.761719 325.316406 "/>
<path style="fill-rule:nonzero;fill:rgb(18.431373%,30.980392%,30.980392%);fill-opacity:1;stroke-width:0.708661;stroke-linecap:round;stroke-linejoin:round;stroke:rgb(18.431373%,30.980392%,30.980392%);stroke-opacity:1;stroke-miterlimit:10;" d="M 290.8125 264.433594 C 290.8125 268.164062 287.785156 271.1875 284.054688 271.1875 C 280.324219 271.1875 277.296875 268.164062 277.296875 264.433594 C 277.296875 260.703125 280.324219 257.675781 284.054688 257.675781 C 287.785156 257.675781 290.8125 260.703125 290.8125 264.433594 "/>
<path style="fill-rule:nonzero;fill:rgb(18.431373%,30.980392%,30.980392%);fill-opacity:1;stroke-width:0.708661;stroke-linecap:round;stroke-linejoin:round;stroke:rgb(18.431373%,30.980392%,30.980392%);stroke-opacity:1;stroke-miterlimit:10;" d="M 297.859375 228.605469 C 297.859375 232.335938 294.835938 235.363281 291.105469 235.363281 C 287.371094 235.363281 284.347656 232.335938 284.347656 228.605469 C 284.347656 224.875 287.371094 221.851562 291.105469 221.851562 C 294.835938 221.851562 297.859375 224.875 297.859375 228.605469 "/>
<path style="fill-rule:nonzero;fill:rgb(18.431373%,30.980392%,30.980392%);fill-opacity:1;stroke-width:0.708661;stroke-linecap:round;stroke-linejoin:round;stroke:rgb(18.431373%,30.980392%,30.980392%);stroke-opacity:1;stroke-miterlimit:10;" d="M 304.910156 244.644531 C 304.910156 248.375 301.882812 251.402344 298.152344 251.402344 C 294.421875 251.402344 291.398438 248.375 291.398438 244.644531 C 291.398438 240.914062 294.421875 237.886719 298.152344 237.886719 C 301.882812 237.886719 304.910156 240.914062 304.910156 244.644531 "/>
<path style="fill-rule:nonzero;fill:rgb(18.431373%,30.980392%,30.980392%);fill-opacity:1;stroke-width:0.708661;stroke-linecap:round;stroke-linejoin:round;stroke:rgb(18.431373%,30.980392%,30.980392%);stroke-opacity:1;stroke-miterlimit:10;" d="M 311.957031 268.425781 C 311.957031 272.15625 308.933594 275.179688 305.203125 275.179688 C 301.472656 275.179688 298.445312 272.15625 298.445312 268.425781 C 298.445312 264.695312 301.472656 261.667969 305.203125 261.667969 C 308.933594 261.667969 311.957031 264.695312 311.957031 268.425781 "/>
<path style="fill-rule:nonzero;fill:rgb(18.431373%,30.980392%,30.980392%);fill-opacity:1;stroke-width:0.708661;stroke-linecap:round;stroke-linejoin:round;stroke:rgb(18.431373%,30.980392%,30.980392%);stroke-opacity:1;stroke-miterlimit:10;" d="M 319.007812 246.128906 C 319.007812 249.859375 315.984375 252.882812 312.25 252.882812 C 308.519531 252.882812 305.496094 249.859375 305.496094 246.128906 C 305.496094 242.398438 308.519531 239.371094 312.25 239.371094 C 315.984375 239.371094 319.007812 242.398438 319.007812 246.128906 "/>
<path style="fill-rule:nonzero;fill:rgb(18.431373%,30.980392%,30.980392%);fill-opacity:1;stroke-width:0.708661;stroke-linecap:round;stroke-linejoin:round;stroke:rgb(18.431373%,30.980392%,30.980392%);stroke-opacity:1;stroke-miterlimit:10;" d="M 326.058594 264.949219 C 326.058594 268.679688 323.03125 271.707031 319.300781 271.707031 C 315.570312 271.707031 312.542969 268.679688 312.542969 264.949219 C 312.542969 261.21875 315.570312 258.195312 319.300781 258.195312 C 323.03125 258.195312 326.058594 261.21875 326.058594 264.949219 "/>
<path style="fill-rule:nonzero;fill:rgb(18.431373%,30.980392%,30.980392%);fill-opacity:1;stroke-width:0.708661;stroke-linecap:round;stroke-linejoin:round;stroke:rgb(18.431373%,30.980392%,30.980392%);stroke-opacity:1;stroke-miterlimit:10;" d="M 333.105469 322.921875 C 333.105469 326.652344 330.082031 329.675781 326.351562 329.675781 C 322.617188 329.675781 319.59375 326.652344 319.59375 322.921875 C 319.59375 319.191406 322.617188 316.164062 326.351562 316.164062 C 330.082031 316.164062 333.105469 319.191406 333.105469 322.921875 "/>
<path style="fill-rule:nonzero;fill:rgb(18.431373%,30.980392%,30.980392%);fill-opacity:1;stroke-width:0.708661;stroke-linecap:round;stroke-linejoin:round;stroke:rgb(18.431373%,30.980392%,30.980392%);stroke-opacity:1;stroke-miterlimit:10;" d="M 340.15625 386.148438 C 340.15625 389.882812 337.128906 392.90625 333.398438 392.90625 C 329.667969 392.90625 326.644531 389.882812 326.644531 386.148438 C 326.644531 382.417969 329.667969 379.394531 333.398438 379.394531 C 337.128906 379.394531 340.15625 382.417969 340.15625 386.148438 "/>
<path style="fill-rule:nonzero;fill:rgb(18.431373%,30.980392%,30.980392%);fill-opacity:1;stroke-width:0.708661;stroke-linecap:round;stroke-linejoin:round;stroke:rgb(18.431373%,30.980392%,30.980392%);stroke-opacity:1;stroke-miterlimit:10;" d="M 347.203125 454.546875 C 347.203125 458.28125 344.179688 461.304688 340.449219 461.304688 C 336.71875 461.304688 333.691406 458.28125 333.691406 454.546875 C 333.691406 450.816406 336.71875 447.792969 340.449219 447.792969 C 344.179688 447.792969 347.203125 450.816406 347.203125 454.546875 "/>
<path style="fill-rule:nonzero;fill:rgb(18.431373%,30.980392%,30.980392%);fill-opacity:1;stroke-width:0.708661;stroke-linecap:round;stroke-linejoin:round;stroke:rgb(18.431373%,30.980392%,30.980392%);stroke-opacity:1;stroke-miterlimit:10;" d="M 354.253906 280.117188 C 354.253906 283.851562 351.230469 286.875 347.496094 286.875 C 343.765625 286.875 340.742188 283.851562 340.742188 280.117188 C 340.742188 276.386719 343.765625 273.363281 347.496094 273.363281 C 351.230469 273.363281 354.253906 276.386719 354.253906 280.117188 "/>
<path style="fill-rule:nonzero;fill:rgb(18.431373%,30.980392%,30.980392%);fill-opacity:1;stroke-width:0.708661;stroke-linecap:round;stroke-linejoin:round;stroke:rgb(18.431373%,30.980392%,30.980392%);stroke-opacity:1;stroke-miterlimit:10;" d="M 361.304688 166.363281 C 361.304688 170.097656 358.277344 173.121094 354.546875 173.121094 C 350.816406 173.121094 347.789062 170.097656 347.789062 166.363281 C 347.789062 162.632812 350.816406 159.609375 354.546875 159.609375 C 358.277344 159.609375 361.304688 162.632812 361.304688 166.363281 "/>
<path style="fill-rule:nonzero;fill:rgb(18.431373%,30.980392%,30.980392%);fill-opacity:1;stroke-width:0.708661;stroke-linecap:round;stroke-linejoin:round;stroke:rgb(18.431373%,30.980392%,30.980392%);stroke-opacity:1;stroke-miterlimit:10;" d="M 368.351562 447.316406 C 368.351562 451.046875 365.328125 454.074219 361.597656 454.074219 C 357.863281 454.074219 354.839844 451.046875 354.839844 447.316406 C 354.839844 443.585938 357.863281 440.558594 361.597656 440.558594 C 365.328125 440.558594 368.351562 443.585938 368.351562 447.316406 "/>
<path style="fill-rule:nonzero;fill:rgb(18.431373%,30.980392%,30.980392%);fill-opacity:1;stroke-width:0.708661;stroke-linecap:round;stroke-linejoin:round;stroke:rgb(18.431373%,30.980392%,30.980392%);stroke-opacity:1;stroke-miterlimit:10;" d="M 375.402344 342.742188 C 375.402344 346.472656 372.375 349.496094 368.644531 349.496094 C 364.914062 349.496094 361.890625 346.472656 361.890625 342.742188 C 361.890625 339.011719 364.914062 335.984375 368.644531 335.984375 C 372.375 335.984375 375.402344 339.011719 375.402344 342.742188 "/>
<path style="fill-rule:nonzero;fill:rgb(18.431373%,30.980392%,30.980392%);fill-opacity:1;stroke-width:0.708661;stroke-linecap:round;stroke-linejoin:round;stroke:rgb(18.431373%,30.980392%,30.980392%);stroke-opacity:1;stroke-miterlimit:10;" d="M 382.449219 275.246094 C 382.449219 278.980469 379.425781 282.003906 375.695312 282.003906 C 371.964844 282.003906 368.9375 278.980469 368.9375 275.246094 C 368.9375 271.515625 371.964844 268.492188 375.695312 268.492188 C 379.425781 268.492188 382.449219 271.515625 382.449219 275.246094 "/>
<path style="fill-rule:nonzero;fill:rgb(18.431373%,30.980392%,30.980392%);fill-opacity:1;stroke-width:0.708661;stroke-linecap:round;stroke-linejoin:round;stroke:rgb(18.431373%,30.980392%,30.980392%);stroke-opacity:1;stroke-miterlimit:10;" d="M 389.5 437.738281 C 389.5 441.472656 386.476562 444.496094 382.742188 444.496094 C 379.011719 444.496094 375.988281 441.472656 375.988281 437.738281 C 375.988281 434.007812 379.011719 430.984375 382.742188 430.984375 C 386.476562 430.984375 389.5 434.007812 389.5 437.738281 "/>
<path style="fill-rule:nonzero;fill:rgb(18.431373%,30.980392%,30.980392%);fill-opacity:1;stroke-width:0.708661;stroke-linecap:round;stroke-linejoin:round;stroke:rgb(18.431373%,30.980392%,30.980392%);stroke-opacity:1;stroke-miterlimit:10;" d="M 396.550781 272.78125 C 396.550781 276.511719 393.523438 279.535156 389.792969 279.535156 C 386.0625 279.535156 383.035156 276.511719 383.035156 272.78125 C 383.035156 269.046875 386.0625 266.023438 389.792969 266.023438 C 393.523438 266.023438 396.550781 269.046875 396.550781 272.78125 "/>
<path style="fill-rule:nonzero;fill:rgb(18.431373%,30.980392%,30.980392%);fill-opacity:1;stroke-width:0.708661;stroke-linecap:round;stroke-linejoin:round;stroke:rgb(18.431373%,30.980392%,30.980392%);stroke-opacity:1;stroke-miterlimit:10;" d="M 403.597656 411.78125 C 403.597656 415.511719 400.574219 418.539062 396.84375 418.539062 C 393.109375 418.539062 390.085938 415.511719 390.085938 411.78125 C 390.085938 408.050781 393.109375 405.027344 396.84375 405.027344 C 400.574219 405.027344 403.597656 408.050781 403.597656 411.78125 "/>
<path style="fill-rule:nonzero;fill:rgb(18.431373%,30.980392%,30.980392%);fill-opacity:1;stroke-width:0.708661;stroke-linecap:round;stroke-linejoin:round;stroke:rgb(18.431373%,30.980392%,30.980392%);stroke-opacity:1;stroke-miterlimit:10;" d="M 410.648438 367.710938 C 410.648438 371.441406 407.621094 374.46875 403.890625 374.46875 C 400.160156 374.46875 397.136719 371.441406 397.136719 367.710938 C 397.136719 363.980469 400.160156 360.953125 403.890625 360.953125 C 407.621094 360.953125 410.648438 363.980469 410.648438 367.710938 "/>
<path style="fill-rule:nonzero;fill:rgb(18.431373%,30.980392%,30.980392%);fill-opacity:1;stroke-width:0.708661;stroke-linecap:round;stroke-linejoin:round;stroke:rgb(18.431373%,30.980392%,30.980392%);stroke-opacity:1;stroke-miterlimit:10;" d="M 417.695312 426.757812 C 417.695312 430.488281 414.671875 433.511719 410.941406 433.511719 C 407.210938 433.511719 404.183594 430.488281 404.183594 426.757812 C 404.183594 423.023438 407.210938 420 410.941406 420 C 414.671875 420 417.695312 423.023438 417.695312 426.757812 "/>
<path style="fill-rule:nonzero;fill:rgb(18.431373%,30.980392%,30.980392%);fill-opacity:1;stroke-width:0.708661;stroke-linecap:round;stroke-linejoin:round;stroke:rgb(18.431373%,30.980392%,30.980392%);stroke-opacity:1;stroke-miterlimit:10;" d="M 424.746094 199.847656 C 424.746094 203.578125 421.722656 206.605469 417.988281 206.605469 C 414.257812 206.605469 411.234375 203.578125 411.234375 199.847656 C 411.234375 196.117188 414.257812 193.089844 417.988281 193.089844 C 421.722656 193.089844 424.746094 196.117188 424.746094 199.847656 "/>
<path style="fill-rule:nonzero;fill:rgb(18.431373%,30.980392%,30.980392%);fill-opacity:1;stroke-width:0.708661;stroke-linecap:round;stroke-linejoin:round;stroke:rgb(18.431373%,30.980392%,30.980392%);stroke-opacity:1;stroke-miterlimit:10;" d="M 431.796875 214.394531 C 431.796875 218.125 428.769531 221.152344 425.039062 221.152344 C 421.308594 221.152344 418.28125 218.125 418.28125 214.394531 C 418.28125 210.664062 421.308594 207.640625 425.039062 207.640625 C 428.769531 207.640625 431.796875 210.664062 431.796875 214.394531 "/>
<path style="fill-rule:nonzero;fill:rgb(18.431373%,30.980392%,30.980392%);fill-opacity:1;stroke-width:0.708661;stroke-linecap:round;stroke-linejoin:round;stroke:rgb(18.431373%,30.980392%,30.980392%);stroke-opacity:1;stroke-miterlimit:10;" d="M 438.84375 147.328125 C 438.84375 151.058594 435.820312 154.085938 432.089844 154.085938 C 428.355469 154.085938 425.332031 151.058594 425.332031 147.328125 C 425.332031 143.597656 428.355469 140.574219 432.089844 140.574219 C 435.820312 140.574219 438.84375 143.597656 438.84375 147.328125 "/>
<path style="fill-rule:nonzero;fill:rgb(18.431373%,30.980392%,30.980392%);fill-opacity:1;stroke-width:0.708661;stroke-linecap:round;stroke-linejoin:round;stroke:rgb(18.431373%,30.980392%,30.980392%);stroke-opacity:1;stroke-miterlimit:10;" d="M 445.894531 383.265625 C 445.894531 386.996094 442.867188 390.019531 439.136719 390.019531 C 435.40625 390.019531 432.382812 386.996094 432.382812 383.265625 C 432.382812 379.53125 435.40625 376.507812 439.136719 376.507812 C 442.867188 376.507812 445.894531 379.53125 445.894531 383.265625 "/>
<path style="fill-rule:nonzero;fill:rgb(18.431373%,30.980392%,30.980392%);fill-opacity:1;stroke-width:0.708661;stroke-linecap:round;stroke-linejoin:round;stroke:rgb(18.431373%,30.980392%,30.980392%);stroke-opacity:1;stroke-miterlimit:10;" d="M 452.941406 250.242188 C 452.941406 253.972656 449.917969 257 446.1875 257 C 442.457031 257 439.429688 253.972656 439.429688 250.242188 C 439.429688 246.511719 442.457031 243.484375 446.1875 243.484375 C 449.917969 243.484375 452.941406 246.511719 452.941406 250.242188 "/>
<path style="fill-rule:nonzero;fill:rgb(18.431373%,30.980392%,30.980392%);fill-opacity:1;stroke-width:0.708661;stroke-linecap:round;stroke-linejoin:round;stroke:rgb(18.431373%,30.980392%,30.980392%);stroke-opacity:1;stroke-miterlimit:10;" d="M 459.992188 221.75 C 459.992188 225.480469 456.96875 228.503906 453.234375 228.503906 C 449.503906 228.503906 446.480469 225.480469 446.480469 221.75 C 446.480469 218.015625 449.503906 214.992188 453.234375 214.992188 C 456.96875 214.992188 459.992188 218.015625 459.992188 221.75 "/>
<path style="fill-rule:nonzero;fill:rgb(18.431373%,30.980392%,30.980392%);fill-opacity:1;stroke-width:0.708661;stroke-linecap:round;stroke-linejoin:round;stroke:rgb(18.431373%,30.980392%,30.980392%);stroke-opacity:1;stroke-miterlimit:10;" d="M 467.042969 292.175781 C 467.042969 295.90625 464.015625 298.929688 460.285156 298.929688 C 456.554688 298.929688 453.527344 295.90625 453.527344 292.175781 C 453.527344 288.441406 456.554688 285.417969 460.285156 285.417969 C 464.015625 285.417969 467.042969 288.441406 467.042969 292.175781 "/>
<path style="fill-rule:nonzero;fill:rgb(18.431373%,30.980392%,30.980392%);fill-opacity:1;stroke-width:0.708661;stroke-linecap:round;stroke-linejoin:round;stroke:rgb(18.431373%,30.980392%,30.980392%);stroke-opacity:1;stroke-miterlimit:10;" d="M 474.089844 203.902344 C 474.089844 207.632812 471.066406 210.65625 467.335938 210.65625 C 463.601562 210.65625 460.578125 207.632812 460.578125 203.902344 C 460.578125 200.171875 463.601562 197.144531 467.335938 197.144531 C 471.066406 197.144531 474.089844 200.171875 474.089844 203.902344 "/>
<path style="fill-rule:nonzero;fill:rgb(18.431373%,30.980392%,30.980392%);fill-opacity:1;stroke-width:0.708661;stroke-linecap:round;stroke-linejoin:round;stroke:rgb(18.431373%,30.980392%,30.980392%);stroke-opacity:1;stroke-miterlimit:10;" d="M 481.140625 245.617188 C 481.140625 249.351562 478.113281 252.375 474.382812 252.375 C 470.652344 252.375 467.628906 249.351562 467.628906 245.617188 C 467.628906 241.886719 470.652344 238.863281 474.382812 238.863281 C 478.113281 238.863281 481.140625 241.886719 481.140625 245.617188 "/>
<path style="fill-rule:nonzero;fill:rgb(18.431373%,30.980392%,30.980392%);fill-opacity:1;stroke-width:0.708661;stroke-linecap:round;stroke-linejoin:round;stroke:rgb(18.431373%,30.980392%,30.980392%);stroke-opacity:1;stroke-miterlimit:10;" d="M 488.1875 291.386719 C 488.1875 295.117188 485.164062 298.144531 481.433594 298.144531 C 477.703125 298.144531 474.675781 295.117188 474.675781 291.386719 C 474.675781 287.65625 477.703125 284.628906 481.433594 284.628906 C 485.164062 284.628906 488.1875 287.65625 488.1875 291.386719 "/>
<path style="fill-rule:nonzero;fill:rgb(18.431373%,30.980392%,30.980392%);fill-opacity:1;stroke-width:0.708661;stroke-linecap:round;stroke-linejoin:round;stroke:rgb(18.431373%,30.980392%,30.980392%);stroke-opacity:1;stroke-miterlimit:10;" d="M 495.238281 222.269531 C 495.238281 226 492.214844 229.023438 488.480469 229.023438 C 484.75 229.023438 481.726562 226 481.726562 222.269531 C 481.726562 218.539062 484.75 215.511719 488.480469 215.511719 C 492.214844 215.511719 495.238281 218.539062 495.238281 222.269531 "/>
<path style="fill-rule:nonzero;fill:rgb(18.431373%,30.980392%,30.980392%);fill-opacity:1;stroke-width:0.708661;stroke-linecap:round;stroke-linejoin:round;stroke:rgb(18.431373%,30.980392%,30.980392%);stroke-opacity:1;stroke-miterlimit:10;" d="M 502.289062 193.03125 C 502.289062 196.761719 499.261719 199.789062 495.53125 199.789062 C 491.800781 199.789062 488.773438 196.761719 488.773438 193.03125 C 488.773438 189.300781 491.800781 186.277344 495.53125 186.277344 C 499.261719 186.277344 502.289062 189.300781 502.289062 193.03125 "/>
<path style="fill-rule:nonzero;fill:rgb(18.431373%,30.980392%,30.980392%);fill-opacity:1;stroke-width:0.708661;stroke-linecap:round;stroke-linejoin:round;stroke:rgb(18.431373%,30.980392%,30.980392%);stroke-opacity:1;stroke-miterlimit:10;" d="M 509.335938 181.761719 C 509.335938 185.496094 506.3125 188.519531 502.582031 188.519531 C 498.847656 188.519531 495.824219 185.496094 495.824219 181.761719 C 495.824219 178.03125 498.847656 175.007812 502.582031 175.007812 C 506.3125 175.007812 509.335938 178.03125 509.335938 181.761719 "/>
<path style="fill-rule:nonzero;fill:rgb(18.431373%,30.980392%,30.980392%);fill-opacity:1;stroke-width:0.708661;stroke-linecap:round;stroke-linejoin:round;stroke:rgb(18.431373%,30.980392%,30.980392%);stroke-opacity:1;stroke-miterlimit:10;" d="M 516.386719 155.785156 C 516.386719 159.519531 513.359375 162.542969 509.628906 162.542969 C 505.898438 162.542969 502.875 159.519531 502.875 155.785156 C 502.875 152.054688 505.898438 149.03125 509.628906 149.03125 C 513.359375 149.03125 516.386719 152.054688 516.386719 155.785156 "/>
<path style="fill-rule:nonzero;fill:rgb(18.431373%,30.980392%,30.980392%);fill-opacity:1;stroke-width:0.708661;stroke-linecap:round;stroke-linejoin:round;stroke:rgb(18.431373%,30.980392%,30.980392%);stroke-opacity:1;stroke-miterlimit:10;" d="M 523.433594 154.917969 C 523.433594 158.652344 520.410156 161.675781 516.679688 161.675781 C 512.949219 161.675781 509.921875 158.652344 509.921875 154.917969 C 509.921875 151.1875 512.949219 148.164062 516.679688 148.164062 C 520.410156 148.164062 523.433594 151.1875 523.433594 154.917969 "/>
<path style="fill-rule:nonzero;fill:rgb(18.431373%,30.980392%,30.980392%);fill-opacity:1;stroke-width:0.708661;stroke-linecap:round;stroke-linejoin:round;stroke:rgb(18.431373%,30.980392%,30.980392%);stroke-opacity:1;stroke-miterlimit:10;" d="M 530.484375 181.144531 C 530.484375 184.875 527.460938 187.902344 523.726562 187.902344 C 519.996094 187.902344 516.972656 184.875 516.972656 181.144531 C 516.972656 177.414062 519.996094 174.386719 523.726562 174.386719 C 527.460938 174.386719 530.484375 177.414062 530.484375 181.144531 "/>
<path style="fill-rule:nonzero;fill:rgb(18.431373%,30.980392%,30.980392%);fill-opacity:1;stroke-width:0.708661;stroke-linecap:round;stroke-linejoin:round;stroke:rgb(18.431373%,30.980392%,30.980392%);stroke-opacity:1;stroke-miterlimit:10;" d="M 537.535156 322.367188 C 537.535156 326.097656 534.507812 329.125 530.777344 329.125 C 527.046875 329.125 524.019531 326.097656 524.019531 322.367188 C 524.019531 318.636719 527.046875 315.609375 530.777344 315.609375 C 534.507812 315.609375 537.535156 318.636719 537.535156 322.367188 "/>
<path style="fill-rule:nonzero;fill:rgb(18.431373%,30.980392%,30.980392%);fill-opacity:1;stroke-width:0.708661;stroke-linecap:round;stroke-linejoin:round;stroke:rgb(18.431373%,30.980392%,30.980392%);stroke-opacity:1;stroke-miterlimit:10;" d="M 544.582031 96.101562 C 544.582031 99.832031 541.558594 102.855469 537.828125 102.855469 C 534.09375 102.855469 531.070312 99.832031 531.070312 96.101562 C 531.070312 92.367188 534.09375 89.34375 537.828125 89.34375 C 541.558594 89.34375 544.582031 92.367188 544.582031 96.101562 "/>
<path style="fill-rule:nonzero;fill:rgb(18.431373%,30.980392%,30.980392%);fill-opacity:1;stroke-width:0.708661;stroke-linecap:round;stroke-linejoin:round;stroke:rgb(18.431373%,30.980392%,30.980392%);stroke-opacity:1;stroke-miterlimit:10;" d="M 551.632812 158.757812 C 551.632812 162.492188 548.605469 165.515625 544.875 165.515625 C 541.144531 165.515625 538.121094 162.492188 538.121094 158.757812 C 538.121094 155.027344 541.144531 152.003906 544.875 152.003906 C 548.605469 152.003906 551.632812 155.027344 551.632812 158.757812 "/>
<path style="fill-rule:nonzero;fill:rgb(18.431373%,30.980392%,30.980392%);fill-opacity:1;stroke-width:0.708661;stroke-linecap:round;stroke-linejoin:round;stroke:rgb(18.431373%,30.980392%,30.980392%);stroke-opacity:1;stroke-miterlimit:10;" d="M 558.679688 235.671875 C 558.679688 239.40625 555.65625 242.429688 551.925781 242.429688 C 548.195312 242.429688 545.167969 239.40625 545.167969 235.671875 C 545.167969 231.941406 548.195312 228.917969 551.925781 228.917969 C 555.65625 228.917969 558.679688 231.941406 558.679688 235.671875 "/>
<path style="fill-rule:nonzero;fill:rgb(18.431373%,30.980392%,30.980392%);fill-opacity:1;stroke-width:0.708661;stroke-linecap:round;stroke-linejoin:round;stroke:rgb(18.431373%,30.980392%,30.980392%);stroke-opacity:1;stroke-miterlimit:10;" d="M 565.730469 292.21875 C 565.730469 295.949219 562.707031 298.972656 558.972656 298.972656 C 555.242188 298.972656 552.21875 295.949219 552.21875 292.21875 C 552.21875 288.484375 555.242188 285.460938 558.972656 285.460938 C 562.707031 285.460938 565.730469 288.484375 565.730469 292.21875 "/>
<path style="fill-rule:nonzero;fill:rgb(18.431373%,30.980392%,30.980392%);fill-opacity:1;stroke-width:0.708661;stroke-linecap:round;stroke-linejoin:round;stroke:rgb(18.431373%,30.980392%,30.980392%);stroke-opacity:1;stroke-miterlimit:10;" d="M 572.78125 318.921875 C 572.78125 322.652344 569.753906 325.679688 566.023438 325.679688 C 562.292969 325.679688 559.265625 322.652344 559.265625 318.921875 C 559.265625 315.191406 562.292969 312.167969 566.023438 312.167969 C 569.753906 312.167969 572.78125 315.191406 572.78125 318.921875 "/>
<path style="fill-rule:nonzero;fill:rgb(18.431373%,30.980392%,30.980392%);fill-opacity:1;stroke-width:0.708661;stroke-linecap:round;stroke-linejoin:round;stroke:rgb(18.431373%,30.980392%,30.980392%);stroke-opacity:1;stroke-miterlimit:10;" d="M 579.828125 65.292969 C 579.828125 69.027344 576.804688 72.050781 573.074219 72.050781 C 569.339844 72.050781 566.316406 69.027344 566.316406 65.292969 C 566.316406 61.5625 569.339844 58.539062 573.074219 58.539062 C 576.804688 58.539062 579.828125 61.5625 579.828125 65.292969 "/>
<path style="fill-rule:nonzero;fill:rgb(18.431373%,30.980392%,30.980392%);fill-opacity:1;stroke-width:0.708661;stroke-linecap:round;stroke-linejoin:round;stroke:rgb(18.431373%,30.980392%,30.980392%);stroke-opacity:1;stroke-miterlimit:10;" d="M 586.878906 155.113281 C 586.878906 158.847656 583.851562 161.871094 580.121094 161.871094 C 576.390625 161.871094 573.367188 158.847656 573.367188 155.113281 C 573.367188 151.382812 576.390625 148.359375 580.121094 148.359375 C 583.851562 148.359375 586.878906 151.382812 586.878906 155.113281 "/>
<path style="fill-rule:nonzero;fill:rgb(18.431373%,30.980392%,30.980392%);fill-opacity:1;stroke-width:0.708661;stroke-linecap:round;stroke-linejoin:round;stroke:rgb(18.431373%,30.980392%,30.980392%);stroke-opacity:1;stroke-miterlimit:10;" d="M 593.925781 327.855469 C 593.925781 331.589844 590.902344 334.613281 587.171875 334.613281 C 583.441406 334.613281 580.414062 331.589844 580.414062 327.855469 C 580.414062 324.125 583.441406 321.101562 587.171875 321.101562 C 590.902344 321.101562 593.925781 324.125 593.925781 327.855469 "/>
<path style="fill-rule:nonzero;fill:rgb(18.431373%,30.980392%,30.980392%);fill-opacity:1;stroke-width:0.708661;stroke-linecap:round;stroke-linejoin:round;stroke:rgb(18.431373%,30.980392%,30.980392%);stroke-opacity:1;stroke-miterlimit:10;" d="M 600.976562 279.804688 C 600.976562 283.535156 597.953125 286.5625 594.21875 286.5625 C 590.488281 286.5625 587.464844 283.535156 587.464844 279.804688 C 587.464844 276.074219 590.488281 273.046875 594.21875 273.046875 C 597.953125 273.046875 600.976562 276.074219 600.976562 279.804688 "/>
<path style="fill-rule:nonzero;fill:rgb(18.431373%,30.980392%,30.980392%);fill-opacity:1;stroke-width:0.708661;stroke-linecap:round;stroke-linejoin:round;stroke:rgb(18.431373%,30.980392%,30.980392%);stroke-opacity:1;stroke-miterlimit:10;" d="M 608.027344 198.863281 C 608.027344 202.59375 605 205.621094 601.269531 205.621094 C 597.539062 205.621094 594.511719 202.59375 594.511719 198.863281 C 594.511719 195.132812 597.539062 192.109375 601.269531 192.109375 C 605 192.109375 608.027344 195.132812 608.027344 198.863281 "/>
<path style="fill-rule:nonzero;fill:rgb(18.431373%,30.980392%,30.980392%);fill-opacity:1;stroke-width:0.708661;stroke-linecap:round;stroke-linejoin:round;stroke:rgb(18.431373%,30.980392%,30.980392%);stroke-opacity:1;stroke-miterlimit:10;" d="M 615.074219 171.183594 C 615.074219 174.914062 612.050781 177.941406 608.320312 177.941406 C 604.585938 177.941406 601.5625 174.914062 601.5625 171.183594 C 601.5625 167.453125 604.585938 164.425781 608.320312 164.425781 C 612.050781 164.425781 615.074219 167.453125 615.074219 171.183594 "/>
<path style="fill-rule:nonzero;fill:rgb(18.431373%,30.980392%,30.980392%);fill-opacity:1;stroke-width:0.708661;stroke-linecap:round;stroke-linejoin:round;stroke:rgb(18.431373%,30.980392%,30.980392%);stroke-opacity:1;stroke-miterlimit:10;" d="M 622.125 114.492188 C 622.125 118.222656 619.097656 121.25 615.367188 121.25 C 611.636719 121.25 608.613281 118.222656 608.613281 114.492188 C 608.613281 110.761719 611.636719 107.738281 615.367188 107.738281 C 619.097656 107.738281 622.125 110.761719 622.125 114.492188 "/>
<path style="fill-rule:nonzero;fill:rgb(18.431373%,30.980392%,30.980392%);fill-opacity:1;stroke-width:0.708661;stroke-linecap:round;stroke-linejoin:round;stroke:rgb(18.431373%,30.980392%,30.980392%);stroke-opacity:1;stroke-miterlimit:10;" d="M 629.171875 256.652344 C 629.171875 260.382812 626.148438 263.410156 622.417969 263.410156 C 618.6875 263.410156 615.660156 260.382812 615.660156 256.652344 C 615.660156 252.921875 618.6875 249.894531 622.417969 249.894531 C 626.148438 249.894531 629.171875 252.921875 629.171875 256.652344 "/>
<path style="fill-rule:nonzero;fill:rgb(18.431373%,30.980392%,30.980392%);fill-opacity:1;stroke-width:0.708661;stroke-linecap:round;stroke-linejoin:round;stroke:rgb(18.431373%,30.980392%,30.980392%);stroke-opacity:1;stroke-miterlimit:10;" d="M 636.222656 191.113281 C 636.222656 194.847656 633.199219 197.871094 629.464844 197.871094 C 625.734375 197.871094 622.710938 194.847656 622.710938 191.113281 C 622.710938 187.382812 625.734375 184.359375 629.464844 184.359375 C 633.199219 184.359375 636.222656 187.382812 636.222656 191.113281 "/>
<path style="fill-rule:nonzero;fill:rgb(18.431373%,30.980392%,30.980392%);fill-opacity:1;stroke-width:0.708661;stroke-linecap:round;stroke-linejoin:round;stroke:rgb(18.431373%,30.980392%,30.980392%);stroke-opacity:1;stroke-miterlimit:10;" d="M 643.273438 301.886719 C 643.273438 305.617188 640.246094 308.644531 636.515625 308.644531 C 632.785156 308.644531 629.757812 305.617188 629.757812 301.886719 C 629.757812 298.15625 632.785156 295.132812 636.515625 295.132812 C 640.246094 295.132812 643.273438 298.15625 643.273438 301.886719 "/>
<path style="fill-rule:nonzero;fill:rgb(18.431373%,30.980392%,30.980392%);fill-opacity:1;stroke-width:0.708661;stroke-linecap:round;stroke-linejoin:round;stroke:rgb(18.431373%,30.980392%,30.980392%);stroke-opacity:1;stroke-miterlimit:10;" d="M 650.320312 182.621094 C 650.320312 186.351562 647.296875 189.375 643.566406 189.375 C 639.832031 189.375 636.808594 186.351562 636.808594 182.621094 C 636.808594 178.890625 639.832031 175.863281 643.566406 175.863281 C 647.296875 175.863281 650.320312 178.890625 650.320312 182.621094 "/>
<path style="fill-rule:nonzero;fill:rgb(18.431373%,30.980392%,30.980392%);fill-opacity:1;stroke-width:0.708661;stroke-linecap:round;stroke-linejoin:round;stroke:rgb(18.431373%,30.980392%,30.980392%);stroke-opacity:1;stroke-miterlimit:10;" d="M 657.371094 126.152344 C 657.371094 129.882812 654.34375 132.910156 650.613281 132.910156 C 646.882812 132.910156 643.859375 129.882812 643.859375 126.152344 C 643.859375 122.421875 646.882812 119.398438 650.613281 119.398438 C 654.34375 119.398438 657.371094 122.421875 657.371094 126.152344 "/>
<path style="fill-rule:nonzero;fill:rgb(18.431373%,30.980392%,30.980392%);fill-opacity:1;stroke-width:0.708661;stroke-linecap:round;stroke-linejoin:round;stroke:rgb(18.431373%,30.980392%,30.980392%);stroke-opacity:1;stroke-miterlimit:10;" d="M 664.417969 140.121094 C 664.417969 143.855469 661.394531 146.878906 657.664062 146.878906 C 653.933594 146.878906 650.90625 143.855469 650.90625 140.121094 C 650.90625 136.390625 653.933594 133.367188 657.664062 133.367188 C 661.394531 133.367188 664.417969 136.390625 664.417969 140.121094 "/>
<path style="fill-rule:nonzero;fill:rgb(18.431373%,30.980392%,30.980392%);fill-opacity:1;stroke-width:0.708661;stroke-linecap:round;stroke-linejoin:round;stroke:rgb(18.431373%,30.980392%,30.980392%);stroke-opacity:1;stroke-miterlimit:10;" d="M 671.46875 35.035156 C 671.46875 38.765625 668.445312 41.789062 664.710938 41.789062 C 660.980469 41.789062 657.957031 38.765625 657.957031 35.035156 C 657.957031 31.304688 660.980469 28.277344 664.710938 28.277344 C 668.445312 28.277344 671.46875 31.304688 671.46875 35.035156 "/>
<path style="fill-rule:nonzero;fill:rgb(18.431373%,30.980392%,30.980392%);fill-opacity:1;stroke-width:0.708661;stroke-linecap:round;stroke-linejoin:round;stroke:rgb(18.431373%,30.980392%,30.980392%);stroke-opacity:1;stroke-miterlimit:10;" d="M 678.519531 121.492188 C 678.519531 125.222656 675.492188 128.246094 671.761719 128.246094 C 668.03125 128.246094 665.003906 125.222656 665.003906 121.492188 C 665.003906 117.761719 668.03125 114.734375 671.761719 114.734375 C 675.492188 114.734375 678.519531 117.761719 678.519531 121.492188 "/>
<path style="fill-rule:nonzero;fill:rgb(18.431373%,30.980392%,30.980392%);fill-opacity:1;stroke-width:0.708661;stroke-linecap:round;stroke-linejoin:round;stroke:rgb(18.431373%,30.980392%,30.980392%);stroke-opacity:1;stroke-miterlimit:10;" d="M 685.566406 151.476562 C 685.566406 155.210938 682.542969 158.234375 678.8125 158.234375 C 675.078125 158.234375 672.054688 155.210938 672.054688 151.476562 C 672.054688 147.746094 675.078125 144.722656 678.8125 144.722656 C 682.542969 144.722656 685.566406 147.746094 685.566406 151.476562 "/>
<path style="fill-rule:nonzero;fill:rgb(18.431373%,30.980392%,30.980392%);fill-opacity:1;stroke-width:0.708661;stroke-linecap:round;stroke-linejoin:round;stroke:rgb(18.431373%,30.980392%,30.980392%);stroke-opacity:1;stroke-miterlimit:10;" d="M 692.617188 211.417969 C 692.617188 215.152344 689.589844 218.175781 685.859375 218.175781 C 682.128906 218.175781 679.105469 215.152344 679.105469 211.417969 C 679.105469 207.6875 682.128906 204.664062 685.859375 204.664062 C 689.589844 204.664062 692.617188 207.6875 692.617188 211.417969 "/>
<path style="fill-rule:nonzero;fill:rgb(18.431373%,30.980392%,30.980392%);fill-opacity:1;stroke-width:0.708661;stroke-linecap:round;stroke-linejoin:round;stroke:rgb(18.431373%,30.980392%,30.980392%);stroke-opacity:1;stroke-miterlimit:10;" d="M 699.664062 78.730469 C 699.664062 82.460938 696.640625 85.488281 692.910156 85.488281 C 689.179688 85.488281 686.152344 82.460938 686.152344 78.730469 C 686.152344 75 689.179688 71.972656 692.910156 71.972656 C 696.640625 71.972656 699.664062 75 699.664062 78.730469 "/>
<path style="fill-rule:nonzero;fill:rgb(18.431373%,30.980392%,30.980392%);fill-opacity:1;stroke-width:0.708661;stroke-linecap:round;stroke-linejoin:round;stroke:rgb(18.431373%,30.980392%,30.980392%);stroke-opacity:1;stroke-miterlimit:10;" d="M 706.714844 158.292969 C 706.714844 162.023438 703.691406 165.050781 699.957031 165.050781 C 696.226562 165.050781 693.203125 162.023438 693.203125 158.292969 C 693.203125 154.5625 696.226562 151.535156 699.957031 151.535156 C 703.691406 151.535156 706.714844 154.5625 706.714844 158.292969 "/>
<path style="fill-rule:nonzero;fill:rgb(18.431373%,30.980392%,30.980392%);fill-opacity:1;stroke-width:0.708661;stroke-linecap:round;stroke-linejoin:round;stroke:rgb(18.431373%,30.980392%,30.980392%);stroke-opacity:1;stroke-miterlimit:10;" d="M 713.765625 283.589844 C 713.765625 287.320312 710.738281 290.347656 707.007812 290.347656 C 703.277344 290.347656 700.25 287.320312 700.25 283.589844 C 700.25 279.859375 703.277344 276.832031 707.007812 276.832031 C 710.738281 276.832031 713.765625 279.859375 713.765625 283.589844 "/>
<path style="fill-rule:nonzero;fill:rgb(18.431373%,30.980392%,30.980392%);fill-opacity:1;stroke-width:0.708661;stroke-linecap:round;stroke-linejoin:round;stroke:rgb(18.431373%,30.980392%,30.980392%);stroke-opacity:1;stroke-miterlimit:10;" d="M 720.8125 129.628906 C 720.8125 133.363281 717.789062 136.386719 714.058594 136.386719 C 710.324219 136.386719 707.300781 133.363281 707.300781 129.628906 C 707.300781 125.898438 710.324219 122.875 714.058594 122.875 C 717.789062 122.875 720.8125 125.898438 720.8125 129.628906 "/>
<path style="fill-rule:nonzero;fill:rgb(18.431373%,30.980392%,30.980392%);fill-opacity:1;stroke-width:0.708661;stroke-linecap:round;stroke-linejoin:round;stroke:rgb(18.431373%,30.980392%,30.980392%);stroke-opacity:1;stroke-miterlimit:10;" d="M 727.863281 23.4375 C 727.863281 27.171875 724.835938 30.195312 721.105469 30.195312 C 717.375 30.195312 714.351562 27.171875 714.351562 23.4375 C 714.351562 19.707031 717.375 16.683594 721.105469 16.683594 C 724.835938 16.683594 727.863281 19.707031 727.863281 23.4375 "/>
<path style="fill:none;stroke-width:6.40187;stroke-linecap:butt;stroke-linejoin:round;stroke:rgb(94.117647%,50.196078%,50.196078%);stroke-opacity:1;stroke-miterlimit:10;" d="M 23.234375 382.292969 L 32.066406 379.457031 L 40.902344 376.621094 L 49.734375 373.785156 L 58.570312 370.949219 L 67.402344 368.113281 L 76.238281 365.277344 L 85.070312 362.441406 L 93.902344 359.609375 L 102.738281 356.773438 L 111.570312 353.9375 L 120.40625 351.101562 L 129.238281 348.265625 L 138.074219 345.429688 L 146.90625 342.59375 L 155.742188 339.757812 L 164.574219 336.921875 L 173.410156 334.085938 L 182.242188 331.25 L 191.078125 328.414062 L 208.742188 322.742188 L 217.578125 319.90625 L 226.410156 317.070312 L 235.246094 314.234375 L 244.078125 311.398438 L 252.914062 308.5625 L 261.746094 305.726562 L 270.582031 302.890625 L 279.414062 300.054688 L 288.25 297.21875 L 297.082031 294.382812 L 305.917969 291.546875 L 323.582031 285.875 L 332.417969 283.039062 L 341.25 280.203125 L 350.085938 277.367188 L 358.917969 274.535156 L 367.753906 271.699219 L 376.585938 268.863281 L 385.421875 266.027344 L 394.253906 263.191406 L 403.089844 260.355469 L 411.921875 257.519531 L 420.757812 254.683594 L 438.421875 249.011719 L 447.257812 246.175781 L 456.089844 243.339844 L 464.925781 240.503906 L 473.757812 237.667969 L 482.59375 234.832031 L 491.425781 231.996094 L 500.261719 229.160156 L 509.09375 226.324219 L 517.929688 223.488281 L 526.761719 220.652344 L 535.597656 217.816406 L 553.261719 212.144531 L 562.097656 209.308594 L 570.929688 206.472656 L 579.765625 203.636719 L 588.597656 200.800781 L 597.433594 197.964844 L 606.265625 195.128906 L 615.101562 192.292969 L 623.933594 189.460938 L 632.769531 186.625 L 641.601562 183.789062 L 650.4375 180.953125 L 668.101562 175.28125 L 676.9375 172.445312 L 685.769531 169.609375 L 694.605469 166.773438 L 703.4375 163.9375 L 712.273438 161.101562 L 721.105469 158.265625 "/>
</g>
</svg>
