<?xml version="1.0" encoding="UTF-8"?>
<svg xmlns="http://www.w3.org/2000/svg" xmlns:xlink="http://www.w3.org/1999/xlink" width="756pt" height="504pt" viewBox="0 0 756 504" version="1.1">
<g id="surface9">
<rect x="0" y="0" width="756" height="504" style="fill:rgb(100%,100%,100%);fill-opacity:1;stroke:none;"/>
<path style="fill-rule:nonzero;fill:rgb(18.431373%,30.980392%,30.980392%);fill-opacity:1;stroke-width:0.708661;stroke-linecap:round;stroke-linejoin:round;stroke:rgb(18.431373%,30.980392%,30.980392%);stroke-opacity:1;stroke-miterlimit:10;" d="M 29.988281 377.453125 C 29.988281 381.183594 26.964844 384.207031 23.234375 384.207031 C 19.503906 384.207031 16.476562 381.183594 16.476562 377.453125 C 16.476562 373.71875 19.503906 370.695312 23.234375 370.695312 C 26.964844 370.695312 29.988281 373.71875 29.988281 377.453125 "/>
<path style="fill-rule:nonzero;fill:rgb(18.431373%,30.980392%,30.980392%);fill-opacity:1;stroke-width:0.708661;stroke-linecap:round;stroke-linejoin:round;stroke:rgb(18.431373%,30.980392%,30.980392%);stroke-opacity:1;stroke-miterlimit:10;" d="M 37.039062 417.378906 C 37.039062 421.109375 34.015625 424.132812 30.28125 424.132812 C 26.550781 424.132812 23.527344 421.109375 23.527344 417.378906 C 23.527344 413.644531 26.550781 410.621094 30.28125 410.621094 C 34.015625 410.621094 37.039062 413.644531 37.039062 417.378906 "/>
<path style="fill-rule:nonzero;fill:rgb(18.431373%,30.980392%,30.980392%);fill-opacity:1;stroke-width:0.708661;stroke-linecap:round;stroke-linejoin:round;stroke:rgb(18.431373%,30.980392%,30.980392%);stroke-opacity:1;stroke-miterlimit:10;" d="M 44.089844 386.054688 C 44.089844 389.785156 41.0625 392.808594 37.332031 392.808594 C 33.601562 392.808594 30.574219 389.785156 30.574219 386.054688 C 30.574219 382.324219 33.601562 379.296875 37.332031 379.296875 C 41.0625 379.296875 44.089844 382.324219 44.089844 386.054688 "/>
<path style="fill-rule:nonzero;fill:rgb(18.431373%,30.980392%,30.980392%);fill-opacity:1;stroke-width:0.708661;stroke-linecap:round;stroke-linejoin:round;stroke:rgb(18.431373%,30.980392%,30.980392%);stroke-opacity:1;stroke-miterlimit:10;" d="M 51.136719 353.503906 C 51.136719 357.238281 48.113281 360.261719 44.382812 360.261719 C 40.648438 360.261719 37.625 357.238281 37.625 353.503906 C 37.625 349.773438 40.648438 346.75 44.382812 346.75 C 48.113281 346.75 51.136719 349.773438 51.136719 353.503906 "/>
<path style="fill-rule:nonzero;fill:rgb(18.431373%,30.980392%,30.980392%);fill-opacity:1;stroke-width:0.708661;stroke-linecap:round;stroke-linejoin:round;stroke:rgb(18.431373%,30.980392%,30.980392%);stroke-opacity:1;stroke-miterlimit:10;" d="M 58.1875 492.042969 C 58.1875 495.773438 55.160156 498.796875 51.429688 498.796875 C 47.699219 498.796875 44.675781 495.773438 44.675781 492.042969 C 44.675781 488.308594 47.699219 485.285156 51.429688 485.285156 C 55.160156 485.285156 58.1875 488.308594 58.1875 492.042969 "/>
<path style="fill-rule:nonzero;fill:rgb(18.431373%,30.980392%,30.980392%);fill-opacity:1;stroke-width:0.708661;stroke-linecap:round;stroke-linejoin:round;stroke:rgb(18.431373%,30.980392%,30.980392%);stroke-opacity:1;stroke-miterlimit:10;" d="M 65.234375 388.699219 C 65.234375 392.429688 62.210938 395.457031 58.480469 395.457031 C 54.75 395.457031 51.722656 392.429688 51.722656 388.699219 C 51.722656 384.96875 54.75 381.945312 58.480469 381.945312 C 62.210938 381.945312 65.234375 384.96875 65.234375 388.699219 "/>
<path style="fill-rule:nonzero;fill:rgb(18.431373%,30.980392%,30.980392%);fill-opacity:1;stroke-width:0.708661;stroke-linecap:round;stroke-linejoin:round;stroke:rgb(18.431373%,30.980392%,30.980392%);stroke-opacity:1;stroke-miterlimit:10;" d="M 72.285156 323.929688 C 72.285156 327.660156 69.261719 330.6875 65.527344 330.6875 C 61.796875 330.6875 58.773438 327.660156 58.773438 323.929688 C 58.773438 320.199219 61.796875 317.175781 65.527344 317.175781 C 69.261719 317.175781 72.285156 320.199219 72.285156 323.929688 "/>
<path style="fill-rule:nonzero;fill:rgb(18.431373%,30.980392%,30.980392%);fill-opacity:1;stroke-width:0.708661;stroke-linecap:round;stroke-linejoin:round;stroke:rgb(18.431373%,30.980392%,30.980392%);stroke-opacity:1;stroke-miterlimit:10;" d="M 79.335938 418.589844 C 79.335938 422.320312 76.308594 425.347656 72.578125 425.347656 C 68.847656 425.347656 65.820312 422.320312 65.820312 418.589844 C 65.820312 414.859375 68.847656 411.832031 72.578125 411.832031 C 76.308594 411.832031 79.335938 414.859375 79.335938 418.589844 "/>
<path style="fill-rule:nonzero;fill:rgb(18.431373%,30.980392%,30.980392%);fill-opacity:1;stroke-width:0.708661;stroke-linecap:round;stroke-linejoin:round;stroke:rgb(18.431373%,30.980392%,30.980392%);stroke-opacity:1;stroke-miterlimit:10;" d="M 86.382812 451.613281 C 86.382812 455.34375 83.359375 458.367188 79.628906 458.367188 C 75.894531 458.367188 72.871094 455.34375 72.871094 451.613281 C 72.871094 447.878906 75.894531 444.855469 79.628906 444.855469 C 83.359375 444.855469 86.382812 447.878906 86.382812 451.613281 "/>
<path style="fill-rule:nonzero;fill:rgb(18.431373%,30.980392%,30.980392%);fill-opacity:1;stroke-width:0.708661;stroke-linecap:round;stroke-linejoin:round;stroke:rgb(18.431373%,30.980392%,30.980392%);stroke-opacity:1;stroke-miterlimit:10;" d="M 93.433594 413.871094 C 93.433594 417.601562 90.40625 420.628906 86.675781 420.628906 C 82.945312 420.628906 79.921875 417.601562 79.921875 413.871094 C 79.921875 410.140625 82.945312 407.117188 86.675781 407.117188 C 90.40625 407.117188 93.433594 410.140625 93.433594 413.871094 "/>
<path style="fill-rule:nonzero;fill:rgb(18.431373%,30.980392%,30.980392%);fill-opacity:1;stroke-width:0.708661;stroke-linecap:round;stroke-linejoin:round;stroke:rgb(18.431373%,30.980392%,30.980392%);stroke-opacity:1;stroke-miterlimit:10;" d="M 100.480469 323.136719 C 100.480469 326.867188 97.457031 329.890625 93.726562 329.890625 C 89.996094 329.890625 86.96875 326.867188 86.96875 323.136719 C 86.96875 319.40625 89.996094 316.378906 93.726562 316.378906 C 97.457031 316.378906 100.480469 319.40625 100.480469 323.136719 "/>
<path style="fill-rule:nonzero;fill:rgb(18.431373%,30.980392%,30.980392%);fill-opacity:1;stroke-width:0.708661;stroke-linecap:round;stroke-linejoin:round;stroke:rgb(18.431373%,30.980392%,30.980392%);stroke-opacity:1;stroke-miterlimit:10;" d="M 107.53125 389.625 C 107.53125 393.355469 104.507812 396.382812 100.773438 396.382812 C 97.042969 396.382812 94.019531 393.355469 94.019531 389.625 C 94.019531 385.894531 97.042969 382.871094 100.773438 382.871094 C 104.507812 382.871094 107.53125 385.894531 107.53125 389.625 "/>
<path style="fill-rule:nonzero;fill:rgb(18.431373%,30.980392%,30.980392%);fill-opacity:1;stroke-width:0.708661;stroke-linecap:round;stroke-linejoin:round;stroke:rgb(18.431373%,30.980392%,30.980392%);stroke-opacity:1;stroke-miterlimit:10;" d="M 114.582031 462.257812 C 114.582031 465.988281 111.554688 469.011719 107.824219 469.011719 C 104.09375 469.011719 101.066406 465.988281 101.066406 462.257812 C 101.066406 458.527344 104.09375 455.5 107.824219 455.5 C 111.554688 455.5 114.582031 458.527344 114.582031 462.257812 "/>
<path style="fill-rule:nonzero;fill:rgb(18.431373%,30.980392%,30.980392%);fill-opacity:1;stroke-width:0.708661;stroke-linecap:round;stroke-linejoin:round;stroke:rgb(18.431373%,30.980392%,30.980392%);stroke-opacity:1;stroke-miterlimit:10;" d="M 121.628906 329.085938 C 121.628906 332.816406 118.605469 335.84375 114.875 335.84375 C 111.140625 335.84375 108.117188 332.816406 108.117188 329.085938 C 108.117188 325.355469 111.140625 322.332031 114.875 322.332031 C 118.605469 322.332031 121.628906 325.355469 121.628906 329.085938 "/>
<path style="fill-rule:nonzero;fill:rgb(18.431373%,30.980392%,30.980392%);fill-opacity:1;stroke-width:0.708661;stroke-linecap:round;stroke-linejoin:round;stroke:rgb(18.431373%,30.980392%,30.980392%);stroke-opacity:1;stroke-miterlimit:10;" d="M 128.679688 492.222656 C 128.679688 495.953125 125.652344 498.976562 121.921875 498.976562 C 118.191406 498.976562 115.167969 495.953125 115.167969 492.222656 C 115.167969 488.488281 118.191406 485.464844 121.921875 485.464844 C 125.652344 485.464844 128.679688 488.488281 128.679688 492.222656 "/>
<path style="fill-rule:nonzero;fill:rgb(18.431373%,30.980392%,30.980392%);fill-opacity:1;stroke-width:0.708661;stroke-linecap:round;stroke-linejoin:round;stroke:rgb(18.431373%,30.980392%,30.980392%);stroke-opacity:1;stroke-miterlimit:10;" d="M 135.726562 265.3125 C 135.726562 269.042969 132.703125 272.066406 128.972656 272.066406 C 125.242188 272.066406 122.214844 269.042969 122.214844 265.3125 C 122.214844 261.578125 125.242188 258.554688 128.972656 258.554688 C 132.703125 258.554688 135.726562 261.578125 135.726562 265.3125 "/>
<path style="fill-rule:nonzero;fill:rgb(18.431373%,30.980392%,30.980392%);fill-opacity:1;stroke-width:0.708661;stroke-linecap:round;stroke-linejoin:round;stroke:rgb(18.431373%,30.980392%,30.980392%);stroke-opacity:1;stroke-miterlimit:10;" d="M 142.777344 332.628906 C 142.777344 336.359375 139.753906 339.382812 136.019531 339.382812 C 132.289062 339.382812 129.265625 336.359375 129.265625 332.628906 C 129.265625 328.898438 132.289062 325.871094 136.019531 325.871094 C 139.753906 325.871094 142.777344 328.898438 142.777344 332.628906 "/>
<path style="fill-rule:nonzero;fill:rgb(18.431373%,30.980392%,30.980392%);fill-opacity:1;stroke-width:0.708661;stroke-linecap:round;stroke-linejoin:round;stroke:rgb(18.431373%,30.980392%,30.980392%);stroke-opacity:1;stroke-miterlimit:10;" d="M 149.828125 464.925781 C 149.828125 468.65625 146.800781 471.679688 143.070312 471.679688 C 139.339844 471.679688 136.3125 468.65625 136.3125 464.925781 C 136.3125 461.191406 139.339844 458.167969 143.070312 458.167969 C 146.800781 458.167969 149.828125 461.191406 149.828125 464.925781 "/>
<path style="fill-rule:nonzero;fill:rgb(18.431373%,30.980392%,30.980392%);fill-opacity:1;stroke-width:0.708661;stroke-linecap:round;stroke-linejoin:round;stroke:rgb(18.431373%,30.980392%,30.980392%);stroke-opacity:1;stroke-miterlimit:10;" d="M 156.875 305.390625 C 156.875 309.121094 153.851562 312.148438 150.121094 312.148438 C 146.386719 312.148438 143.363281 309.121094 143.363281 305.390625 C 143.363281 301.660156 146.386719 298.636719 150.121094 298.636719 C 153.851562 298.636719 156.875 301.660156 156.875 305.390625 "/>
<path style="fill-rule:nonzero;fill:rgb(18.431373%,30.980392%,30.980392%);fill-opacity:1;stroke-width:0.708661;stroke-linecap:round;stroke-linejoin:round;stroke:rgb(18.431373%,30.980392%,30.980392%);stroke-opacity:1;stroke-miterlimit:10;" d="M 163.925781 350.441406 C 163.925781 354.171875 160.898438 357.195312 157.167969 357.195312 C 153.4375 357.195312 150.414062 354.171875 150.414062 350.441406 C 150.414062 346.707031 153.4375 343.683594 157.167969 343.683594 C 160.898438 343.683594 163.925781 346.707031 163.925781 350.441406 "/>
<path style="fill-rule:nonzero;fill:rgb(18.431373%,30.980392%,30.980392%);fill-opacity:1;stroke-width:0.708661;stroke-linecap:round;stroke-linejoin:round;stroke:rgb(18.431373%,30.980392%,30.980392%);stroke-opacity:1;stroke-miterlimit:10;" d="M 170.972656 470.3125 C 170.972656 474.046875 167.949219 477.070312 164.21875 477.070312 C 160.488281 477.070312 157.460938 474.046875 157.460938 470.3125 C 157.460938 466.582031 160.488281 463.558594 164.21875 463.558594 C 167.949219 463.558594 170.972656 466.582031 170.972656 470.3125 "/>
<path style="fill-rule:nonzero;fill:rgb(18.431373%,30.980392%,30.980392%);fill-opacity:1;stroke-width:0.708661;stroke-linecap:round;stroke-linejoin:round;stroke:rgb(18.431373%,30.980392%,30.980392%);stroke-opacity:1;stroke-miterlimit:10;" d="M 178.023438 252.289062 C 178.023438 256.019531 175 259.046875 171.265625 259.046875 C 167.535156 259.046875 164.511719 256.019531 164.511719 252.289062 C 164.511719 248.558594 167.535156 245.53125 171.265625 245.53125 C 175 245.53125 178.023438 248.558594 178.023438 252.289062 "/>
<path style="fill-rule:nonzero;fill:rgb(18.431373%,30.980392%,30.980392%);fill-opacity:1;stroke-width:0.708661;stroke-linecap:round;stroke-linejoin:round;stroke:rgb(18.431373%,30.980392%,30.980392%);stroke-opacity:1;stroke-miterlimit:10;" d="M 185.074219 363.703125 C 185.074219 367.4375 182.046875 370.460938 178.316406 370.460938 C 174.585938 370.460938 171.558594 367.4375 171.558594 363.703125 C 171.558594 359.972656 174.585938 356.949219 178.316406 356.949219 C 182.046875 356.949219 185.074219 359.972656 185.074219 363.703125 "/>
<path style="fill-rule:nonzero;fill:rgb(18.431373%,30.980392%,30.980392%);fill-opacity:1;stroke-width:0.708661;stroke-linecap:round;stroke-linejoin:round;stroke:rgb(18.431373%,30.980392%,30.980392%);stroke-opacity:1;stroke-miterlimit:10;" d="M 192.121094 431.007812 C 192.121094 434.738281 189.097656 437.761719 185.367188 437.761719 C 181.632812 437.761719 178.609375 434.738281 178.609375 431.007812 C 178.609375 427.273438 181.632812 424.25 185.367188 424.25 C 189.097656 424.25 192.121094 427.273438 192.121094 431.007812 "/>
<path style="fill-rule:nonzero;fill:rgb(18.431373%,30.980392%,30.980392%);fill-opacity:1;stroke-width:0.708661;stroke-linecap:round;stroke-linejoin:round;stroke:rgb(18.431373%,30.980392%,30.980392%);stroke-opacity:1;stroke-miterlimit:10;" d="M 199.171875 397.828125 C 199.171875 401.558594 196.144531 404.582031 192.414062 404.582031 C 188.683594 404.582031 185.660156 401.558594 185.660156 397.828125 C 185.660156 394.097656 188.683594 391.070312 192.414062 391.070312 C 196.144531 391.070312 199.171875 394.097656 199.171875 397.828125 "/>
<path style="fill-rule:nonzero;fill:rgb(18.431373%,30.980392%,30.980392%);fill-opacity:1;stroke-width:0.708661;stroke-linecap:round;stroke-linejoin:round;stroke:rgb(18.431373%,30.980392%,30.980392%);stroke-opacity:1;stroke-miterlimit:10;" d="M 206.21875 374.980469 C 206.21875 378.710938 203.195312 381.734375 199.464844 381.734375 C 195.734375 381.734375 192.707031 378.710938 192.707031 374.980469 C 192.707031 371.246094 195.734375 368.222656 199.464844 368.222656 C 203.195312 368.222656 206.21875 371.246094 206.21875 374.980469 "/>
<path style="fill-rule:nonzero;fill:rgb(18.431373%,30.980392%,30.980392%);fill-opacity:1;stroke-width:0.708661;stroke-linecap:round;stroke-linejoin:round;stroke:rgb(18.431373%,30.980392%,30.980392%);stroke-opacity:1;stroke-miterlimit:10;" d="M 213.269531 461.851562 C 213.269531 465.585938 210.246094 468.609375 206.511719 468.609375 C 202.78125 468.609375 199.757812 465.585938 199.757812 461.851562 C 199.757812 458.121094 202.78125 455.097656 206.511719 455.097656 C 210.246094 455.097656 213.269531 458.121094 213.269531 461.851562 "/>
<path style="fill-rule:nonzero;fill:rgb(18.431373%,30.980392%,30.980392%);fill-opacity:1;stroke-width:0.708661;stroke-linecap:round;stroke-linejoin:round;stroke:rgb(18.431373%,30.980392%,30.980392%);stroke-opacity:1;stroke-miterlimit:10;" d="M 220.320312 275.070312 C 220.320312 278.800781 217.292969 281.824219 213.5625 281.824219 C 209.832031 281.824219 206.804688 278.800781 206.804688 275.070312 C 206.804688 271.339844 209.832031 268.3125 213.5625 268.3125 C 217.292969 268.3125 220.320312 271.339844 220.320312 275.070312 "/>
<path style="fill-rule:nonzero;fill:rgb(18.431373%,30.980392%,30.980392%);fill-opacity:1;stroke-width:0.708661;stroke-linecap:round;stroke-linejoin:round;stroke:rgb(18.431373%,30.980392%,30.980392%);stroke-opacity:1;stroke-miterlimit:10;" d="M 227.367188 246.113281 C 227.367188 249.84375 224.34375 252.867188 220.613281 252.867188 C 216.878906 252.867188 213.855469 249.84375 213.855469 246.113281 C 213.855469 242.382812 216.878906 239.355469 220.613281 239.355469 C 224.34375 239.355469 227.367188 242.382812 227.367188 246.113281 "/>
<path style="fill-rule:nonzero;fill:rgb(18.431373%,30.980392%,30.980392%);fill-opacity:1;stroke-width:0.708661;stroke-linecap:round;stroke-linejoin:round;stroke:rgb(18.431373%,30.980392%,30.980392%);stroke-opacity:1;stroke-miterlimit:10;" d="M 234.417969 403.824219 C 234.417969 407.558594 231.390625 410.582031 227.660156 410.582031 C 223.929688 410.582031 220.90625 407.558594 220.90625 403.824219 C 220.90625 400.09375 223.929688 397.070312 227.660156 397.070312 C 231.390625 397.070312 234.417969 400.09375 234.417969 403.824219 "/>
<path style="fill-rule:nonzero;fill:rgb(18.431373%,30.980392%,30.980392%);fill-opacity:1;stroke-width:0.708661;stroke-linecap:round;stroke-linejoin:round;stroke:rgb(18.431373%,30.980392%,30.980392%);stroke-opacity:1;stroke-miterlimit:10;" d="M 241.464844 465.308594 C 241.464844 469.039062 238.441406 472.0625 234.710938 472.0625 C 230.980469 472.0625 227.953125 469.039062 227.953125 465.308594 C 227.953125 461.574219 230.980469 458.550781 234.710938 458.550781 C 238.441406 458.550781 241.464844 461.574219 241.464844 465.308594 "/>
<path style="fill-rule:nonzero;fill:rgb(18.431373%,30.980392%,30.980392%);fill-opacity:1;stroke-width:0.708661;stroke-linecap:round;stroke-linejoin:round;stroke:rgb(18.431373%,30.980392%,30.980392%);stroke-opacity:1;stroke-miterlimit:10;" d="M 248.515625 429.835938 C 248.515625 433.566406 245.492188 436.589844 241.757812 436.589844 C 238.027344 436.589844 235.003906 433.566406 235.003906 429.835938 C 235.003906 426.101562 238.027344 423.078125 241.757812 423.078125 C 245.492188 423.078125 248.515625 426.101562 248.515625 429.835938 "/>
<path style="fill-rule:nonzero;fill:rgb(18.431373%,30.980392%,30.980392%);fill-opacity:1;stroke-width:0.708661;stroke-linecap:round;stroke-linejoin:round;stroke:rgb(18.431373%,30.980392%,30.980392%);stroke-opacity:1;stroke-miterlimit:10;" d="M 255.566406 383.1875 C 255.566406 386.917969 252.539062 389.941406 248.808594 389.941406 C 245.078125 389.941406 242.050781 386.917969 242.050781 383.1875 C 242.050781 379.457031 245.078125 376.429688 248.808594 376.429688 C 252.539062 376.429688 255.566406 379.457031 255.566406 383.1875 "/>
<path style="fill-rule:nonzero;fill:rgb(18.431373%,30.980392%,30.980392%);fill-opacity:1;stroke-width:0.708661;stroke-linecap:round;stroke-linejoin:round;stroke:rgb(18.431373%,30.980392%,30.980392%);stroke-opacity:1;stroke-miterlimit:10;" d="M 262.613281 399.902344 C 262.613281 403.632812 259.589844 406.660156 255.859375 406.660156 C 252.125 406.660156 249.101562 403.632812 249.101562 399.902344 C 249.101562 396.171875 252.125 393.148438 255.859375 393.148438 C 259.589844 393.148438 262.613281 396.171875 262.613281 399.902344 "/>
<path style="fill-rule:nonzero;fill:rgb(18.431373%,30.980392%,30.980392%);fill-opacity:1;stroke-width:0.708661;stroke-linecap:round;stroke-linejoin:round;stroke:rgb(18.431373%,30.980392%,30.980392%);stroke-opacity:1;stroke-miterlimit:10;" d="M 269.664062 440.144531 C 269.664062 443.875 266.636719 446.898438 262.90625 446.898438 C 259.175781 446.898438 256.152344 443.875 256.152344 440.144531 C 256.152344 436.414062 259.175781 433.386719 262.90625 433.386719 C 266.636719 433.386719 269.664062 436.414062 269.664062 440.144531 "/>
<path style="fill-rule:nonzero;fill:rgb(18.431373%,30.980392%,30.980392%);fill-opacity:1;stroke-width:0.708661;stroke-linecap:round;stroke-linejoin:round;stroke:rgb(18.431373%,30.980392%,30.980392%);stroke-opacity:1;stroke-miterlimit:10;" d="M 276.710938 227.910156 C 276.710938 231.640625 273.6875 234.667969 269.957031 234.667969 C 266.226562 234.667969 263.199219 231.640625 263.199219 227.910156 C 263.199219 224.179688 266.226562 221.152344 269.957031 221.152344 C 273.6875 221.152344 276.710938 224.179688 276.710938 227.910156 "/>
<path style="fill-rule:nonzero;fill:rgb(18.431373%,30.980392%,30.980392%);fill-opacity:1;stroke-width:0.708661;stroke-linecap:round;stroke-linejoin:round;stroke:rgb(18.431373%,30.980392%,30.980392%);stroke-opacity:1;stroke-miterlimit:10;" d="M 283.761719 307.515625 C 283.761719 311.246094 280.738281 314.269531 277.003906 314.269531 C 273.273438 314.269531 270.25 311.246094 270.25 307.515625 C 270.25 303.78125 273.273438 300.757812 277.003906 300.757812 C 280.738281 300.757812 283.761719 303.78125 283.761719 307.515625 "/>
<path style="fill-rule:nonzero;fill:rgb(18.431373%,30.980392%,30.980392%);fill-opacity:1;stroke-width:0.708661;stroke-linecap:round;stroke-linejoin:round;stroke:rgb(18.431373%,30.980392%,30.980392%);stroke-opacity:1;stroke-miterlimit:10;" d="M 290.8125 267.226562 C 290.8125 270.957031 287.785156 273.984375 284.054688 273.984375 C 280.324219 273.984375 277.296875 270.957031 277.296875 267.226562 C 277.296875 263.496094 280.324219 260.46875 284.054688 260.46875 C 287.785156 260.46875 290.8125 263.496094 290.8125 267.226562 "/>
<path style="fill-rule:nonzero;fill:rgb(18.431373%,30.980392%,30.980392%);fill-opacity:1;stroke-width:0.708661;stroke-linecap:round;stroke-linejoin:round;stroke:rgb(18.431373%,30.980392%,30.980392%);stroke-opacity:1;stroke-miterlimit:10;" d="M 297.859375 348.539062 C 297.859375 352.269531 294.835938 355.292969 291.105469 355.292969 C 287.371094 355.292969 284.347656 352.269531 284.347656 348.539062 C 284.347656 344.804688 287.371094 341.78125 291.105469 341.78125 C 294.835938 341.78125 297.859375 344.804688 297.859375 348.539062 "/>
<path style="fill-rule:nonzero;fill:rgb(18.431373%,30.980392%,30.980392%);fill-opacity:1;stroke-width:0.708661;stroke-linecap:round;stroke-linejoin:round;stroke:rgb(18.431373%,30.980392%,30.980392%);stroke-opacity:1;stroke-miterlimit:10;" d="M 304.910156 343.730469 C 304.910156 347.460938 301.882812 350.488281 298.152344 350.488281 C 294.421875 350.488281 291.398438 347.460938 291.398438 343.730469 C 291.398438 340 294.421875 336.976562 298.152344 336.976562 C 301.882812 336.976562 304.910156 340 304.910156 343.730469 "/>
<path style="fill-rule:nonzero;fill:rgb(18.431373%,30.980392%,30.980392%);fill-opacity:1;stroke-width:0.708661;stroke-linecap:round;stroke-linejoin:round;stroke:rgb(18.431373%,30.980392%,30.980392%);stroke-opacity:1;stroke-miterlimit:10;" d="M 311.957031 307 C 311.957031 310.730469 308.933594 313.753906 305.203125 313.753906 C 301.472656 313.753906 298.445312 310.730469 298.445312 307 C 298.445312 303.269531 301.472656 300.242188 305.203125 300.242188 C 308.933594 300.242188 311.957031 303.269531 311.957031 307 "/>
<path style="fill-rule:nonzero;fill:rgb(18.431373%,30.980392%,30.980392%);fill-opacity:1;stroke-width:0.708661;stroke-linecap:round;stroke-linejoin:round;stroke:rgb(18.431373%,30.980392%,30.980392%);stroke-opacity:1;stroke-miterlimit:10;" d="M 319.007812 249.71875 C 319.007812 253.449219 315.984375 256.472656 312.25 256.472656 C 308.519531 256.472656 305.496094 253.449219 305.496094 249.71875 C 305.496094 245.984375 308.519531 242.960938 312.25 242.960938 C 315.984375 242.960938 319.007812 245.984375 319.007812 249.71875 "/>
<path style="fill-rule:nonzero;fill:rgb(18.431373%,30.980392%,30.980392%);fill-opacity:1;stroke-width:0.708661;stroke-linecap:round;stroke-linejoin:round;stroke:rgb(18.431373%,30.980392%,30.980392%);stroke-opacity:1;stroke-miterlimit:10;" d="M 326.058594 320.5 C 326.058594 324.230469 323.03125 327.257812 319.300781 327.257812 C 315.570312 327.257812 312.542969 324.230469 312.542969 320.5 C 312.542969 316.769531 315.570312 313.742188 319.300781 313.742188 C 323.03125 313.742188 326.058594 316.769531 326.058594 320.5 "/>
<path style="fill-rule:nonzero;fill:rgb(18.431373%,30.980392%,30.980392%);fill-opacity:1;stroke-width:0.708661;stroke-linecap:round;stroke-linejoin:round;stroke:rgb(18.431373%,30.980392%,30.980392%);stroke-opacity:1;stroke-miterlimit:10;" d="M 333.105469 330.058594 C 333.105469 333.789062 330.082031 336.8125 326.351562 336.8125 C 322.617188 336.8125 319.59375 333.789062 319.59375 330.058594 C 319.59375 326.324219 322.617188 323.300781 326.351562 323.300781 C 330.082031 323.300781 333.105469 326.324219 333.105469 330.058594 "/>
<path style="fill-rule:nonzero;fill:rgb(18.431373%,30.980392%,30.980392%);fill-opacity:1;stroke-width:0.708661;stroke-linecap:round;stroke-linejoin:round;stroke:rgb(18.431373%,30.980392%,30.980392%);stroke-opacity:1;stroke-miterlimit:10;" d="M 340.15625 269.664062 C 340.15625 273.394531 337.128906 276.417969 333.398438 276.417969 C 329.667969 276.417969 326.644531 273.394531 326.644531 269.664062 C 326.644531 265.929688 329.667969 262.90625 333.398438 262.90625 C 337.128906 262.90625 340.15625 265.929688 340.15625 269.664062 "/>
<path style="fill-rule:nonzero;fill:rgb(18.431373%,30.980392%,30.980392%);fill-opacity:1;stroke-width:0.708661;stroke-linecap:round;stroke-linejoin:round;stroke:rgb(18.431373%,30.980392%,30.980392%);stroke-opacity:1;stroke-miterlimit:10;" d="M 347.203125 281.386719 C 347.203125 285.117188 344.179688 288.144531 340.449219 288.144531 C 336.71875 288.144531 333.691406 285.117188 333.691406 281.386719 C 333.691406 277.65625 336.71875 274.628906 340.449219 274.628906 C 344.179688 274.628906 347.203125 277.65625 347.203125 281.386719 "/>
<path style="fill-rule:nonzero;fill:rgb(18.431373%,30.980392%,30.980392%);fill-opacity:1;stroke-width:0.708661;stroke-linecap:round;stroke-linejoin:round;stroke:rgb(18.431373%,30.980392%,30.980392%);stroke-opacity:1;stroke-miterlimit:10;" d="M 354.253906 299.488281 C 354.253906 303.21875 351.230469 306.242188 347.496094 306.242188 C 343.765625 306.242188 340.742188 303.21875 340.742188 299.488281 C 340.742188 295.757812 343.765625 292.730469 347.496094 292.730469 C 351.230469 292.730469 354.253906 295.757812 354.253906 299.488281 "/>
<path style="fill-rule:nonzero;fill:rgb(18.431373%,30.980392%,30.980392%);fill-opacity:1;stroke-width:0.708661;stroke-linecap:round;stroke-linejoin:round;stroke:rgb(18.431373%,30.980392%,30.980392%);stroke-opacity:1;stroke-miterlimit:10;" d="M 361.304688 268.453125 C 361.304688 272.183594 358.277344 275.210938 354.546875 275.210938 C 350.816406 275.210938 347.789062 272.183594 347.789062 268.453125 C 347.789062 264.722656 350.816406 261.695312 354.546875 261.695312 C 358.277344 261.695312 361.304688 264.722656 361.304688 268.453125 "/>
<path style="fill-rule:nonzero;fill:rgb(18.431373%,30.980392%,30.980392%);fill-opacity:1;stroke-width:0.708661;stroke-linecap:round;stroke-linejoin:round;stroke:rgb(18.431373%,30.980392%,30.980392%);stroke-opacity:1;stroke-miterlimit:10;" d="M 368.351562 309.144531 C 368.351562 312.875 365.328125 315.902344 361.597656 315.902344 C 357.863281 315.902344 354.839844 312.875 354.839844 309.144531 C 354.839844 305.414062 357.863281 302.386719 361.597656 302.386719 C 365.328125 302.386719 368.351562 305.414062 368.351562 309.144531 "/>
<path style="fill-rule:nonzero;fill:rgb(18.431373%,30.980392%,30.980392%);fill-opacity:1;stroke-width:0.708661;stroke-linecap:round;stroke-linejoin:round;stroke:rgb(18.431373%,30.980392%,30.980392%);stroke-opacity:1;stroke-miterlimit:10;" d="M 375.402344 272.265625 C 375.402344 275.996094 372.375 279.023438 368.644531 279.023438 C 364.914062 279.023438 361.890625 275.996094 361.890625 272.265625 C 361.890625 268.535156 364.914062 265.511719 368.644531 265.511719 C 372.375 265.511719 375.402344 268.535156 375.402344 272.265625 "/>
<path style="fill-rule:nonzero;fill:rgb(18.431373%,30.980392%,30.980392%);fill-opacity:1;stroke-width:0.708661;stroke-linecap:round;stroke-linejoin:round;stroke:rgb(18.431373%,30.980392%,30.980392%);stroke-opacity:1;stroke-miterlimit:10;" d="M 382.449219 344.304688 C 382.449219 348.039062 379.425781 351.0625 375.695312 351.0625 C 371.964844 351.0625 368.9375 348.039062 368.9375 344.304688 C 368.9375 340.574219 371.964844 337.550781 375.695312 337.550781 C 379.425781 337.550781 382.449219 340.574219 382.449219 344.304688 "/>
<path style="fill-rule:nonzero;fill:rgb(18.431373%,30.980392%,30.980392%);fill-opacity:1;stroke-width:0.708661;stroke-linecap:round;stroke-linejoin:round;stroke:rgb(18.431373%,30.980392%,30.980392%);stroke-opacity:1;stroke-miterlimit:10;" d="M 389.5 251.289062 C 389.5 255.019531 386.476562 258.046875 382.742188 258.046875 C 379.011719 258.046875 375.988281 255.019531 375.988281 251.289062 C 375.988281 247.558594 379.011719 244.535156 382.742188 244.535156 C 386.476562 244.535156 389.5 247.558594 389.5 251.289062 "/>
<path style="fill-rule:nonzero;fill:rgb(18.431373%,30.980392%,30.980392%);fill-opacity:1;stroke-width:0.708661;stroke-linecap:round;stroke-linejoin:round;stroke:rgb(18.431373%,30.980392%,30.980392%);stroke-opacity:1;stroke-miterlimit:10;" d="M 396.550781 298.914062 C 396.550781 302.644531 393.523438 305.667969 389.792969 305.667969 C 386.0625 305.667969 383.035156 302.644531 383.035156 298.914062 C 383.035156 295.179688 386.0625 292.15625 389.792969 292.15625 C 393.523438 292.15625 396.550781 295.179688 396.550781 298.914062 "/>
<path style="fill-rule:nonzero;fill:rgb(18.431373%,30.980392%,30.980392%);fill-opacity:1;stroke-width:0.708661;stroke-linecap:round;stroke-linejoin:round;stroke:rgb(18.431373%,30.980392%,30.980392%);stroke-opacity:1;stroke-miterlimit:10;" d="M 403.597656 337.21875 C 403.597656 340.949219 400.574219 343.972656 396.84375 343.972656 C 393.109375 343.972656 390.085938 340.949219 390.085938 337.21875 C 390.085938 333.488281 393.109375 330.460938 396.84375 330.460938 C 400.574219 330.460938 403.597656 333.488281 403.597656 337.21875 "/>
<path style="fill-rule:nonzero;fill:rgb(18.431373%,30.980392%,30.980392%);fill-opacity:1;stroke-width:0.708661;stroke-linecap:round;stroke-linejoin:round;stroke:rgb(18.431373%,30.980392%,30.980392%);stroke-opacity:1;stroke-miterlimit:10;" d="M 410.648438 206.609375 C 410.648438 210.339844 407.621094 213.363281 403.890625 213.363281 C 400.160156 213.363281 397.136719 210.339844 397.136719 206.609375 C 397.136719 202.878906 400.160156 199.851562 403.890625 199.851562 C 407.621094 199.851562 410.648438 202.878906 410.648438 206.609375 "/>
<path style="fill-rule:nonzero;fill:rgb(18.431373%,30.980392%,30.980392%);fill-opacity:1;stroke-width:0.708661;stroke-linecap:round;stroke-linejoin:round;stroke:rgb(18.431373%,30.980392%,30.980392%);stroke-opacity:1;stroke-miterlimit:10;" d="M 417.695312 305.691406 C 417.695312 309.425781 414.671875 312.449219 410.941406 312.449219 C 407.210938 312.449219 404.183594 309.425781 404.183594 305.691406 C 404.183594 301.960938 407.210938 298.9375 410.941406 298.9375 C 414.671875 298.9375 417.695312 301.960938 417.695312 305.691406 "/>
<path style="fill-rule:nonzero;fill:rgb(18.431373%,30.980392%,30.980392%);fill-opacity:1;stroke-width:0.708661;stroke-linecap:round;stroke-linejoin:round;stroke:rgb(18.431373%,30.980392%,30.980392%);stroke-opacity:1;stroke-miterlimit:10;" d="M 424.746094 230.75 C 424.746094 234.480469 421.722656 237.503906 417.988281 237.503906 C 414.257812 237.503906 411.234375 234.480469 411.234375 230.75 C 411.234375 227.019531 414.257812 223.992188 417.988281 223.992188 C 421.722656 223.992188 424.746094 227.019531 424.746094 230.75 "/>
<path style="fill-rule:nonzero;fill:rgb(18.431373%,30.980392%,30.980392%);fill-opacity:1;stroke-width:0.708661;stroke-linecap:round;stroke-linejoin:round;stroke:rgb(18.431373%,30.980392%,30.980392%);stroke-opacity:1;stroke-miterlimit:10;" d="M 431.796875 362.589844 C 431.796875 366.320312 428.769531 369.347656 425.039062 369.347656 C 421.308594 369.347656 418.28125 366.320312 418.28125 362.589844 C 418.28125 358.859375 421.308594 355.832031 425.039062 355.832031 C 428.769531 355.832031 431.796875 358.859375 431.796875 362.589844 "/>
<path style="fill-rule:nonzero;fill:rgb(18.431373%,30.980392%,30.980392%);fill-opacity:1;stroke-width:0.708661;stroke-linecap:round;stroke-linejoin:round;stroke:rgb(18.431373%,30.980392%,30.980392%);stroke-opacity:1;stroke-miterlimit:10;" d="M 438.84375 347.980469 C 438.84375 351.710938 435.820312 354.738281 432.089844 354.738281 C 428.355469 354.738281 425.332031 351.710938 425.332031 347.980469 C 425.332031 344.25 428.355469 341.222656 432.089844 341.222656 C 435.820312 341.222656 438.84375 344.25 438.84375 347.980469 "/>
<path style="fill-rule:nonzero;fill:rgb(18.431373%,30.980392%,30.980392%);fill-opacity:1;stroke-width:0.708661;stroke-linecap:round;stroke-linejoin:round;stroke:rgb(18.431373%,30.980392%,30.980392%);stroke-opacity:1;stroke-miterlimit:10;" d="M 445.894531 276.511719 C 445.894531 280.246094 442.867188 283.269531 439.136719 283.269531 C 435.40625 283.269531 432.382812 280.246094 432.382812 276.511719 C 432.382812 272.78125 435.40625 269.757812 439.136719 269.757812 C 442.867188 269.757812 445.894531 272.78125 445.894531 276.511719 "/>
<path style="fill-rule:nonzero;fill:rgb(18.431373%,30.980392%,30.980392%);fill-opacity:1;stroke-width:0.708661;stroke-linecap:round;stroke-linejoin:round;stroke:rgb(18.431373%,30.980392%,30.980392%);stroke-opacity:1;stroke-miterlimit:10;" d="M 452.941406 183.824219 C 452.941406 187.554688 449.917969 190.578125 446.1875 190.578125 C 442.457031 190.578125 439.429688 187.554688 439.429688 183.824219 C 439.429688 180.09375 442.457031 177.066406 446.1875 177.066406 C 449.917969 177.066406 452.941406 180.09375 452.941406 183.824219 "/>
<path style="fill-rule:nonzero;fill:rgb(18.431373%,30.980392%,30.980392%);fill-opacity:1;stroke-width:0.708661;stroke-linecap:round;stroke-linejoin:round;stroke:rgb(18.431373%,30.980392%,30.980392%);stroke-opacity:1;stroke-miterlimit:10;" d="M 459.992188 304.863281 C 459.992188 308.597656 456.96875 311.621094 453.234375 311.621094 C 449.503906 311.621094 446.480469 308.597656 446.480469 304.863281 C 446.480469 301.132812 449.503906 298.109375 453.234375 298.109375 C 456.96875 298.109375 459.992188 301.132812 459.992188 304.863281 "/>
<path style="fill-rule:nonzero;fill:rgb(18.431373%,30.980392%,30.980392%);fill-opacity:1;stroke-width:0.708661;stroke-linecap:round;stroke-linejoin:round;stroke:rgb(18.431373%,30.980392%,30.980392%);stroke-opacity:1;stroke-miterlimit:10;" d="M 467.042969 344.566406 C 467.042969 348.296875 464.015625 351.324219 460.285156 351.324219 C 456.554688 351.324219 453.527344 348.296875 453.527344 344.566406 C 453.527344 340.835938 456.554688 337.8125 460.285156 337.8125 C 464.015625 337.8125 467.042969 340.835938 467.042969 344.566406 "/>
<path style="fill-rule:nonzero;fill:rgb(18.431373%,30.980392%,30.980392%);fill-opacity:1;stroke-width:0.708661;stroke-linecap:round;stroke-linejoin:round;stroke:rgb(18.431373%,30.980392%,30.980392%);stroke-opacity:1;stroke-miterlimit:10;" d="M 474.089844 276.75 C 474.089844 280.480469 471.066406 283.507812 467.335938 283.507812 C 463.601562 283.507812 460.578125 280.480469 460.578125 276.75 C 460.578125 273.019531 463.601562 269.992188 467.335938 269.992188 C 471.066406 269.992188 474.089844 273.019531 474.089844 276.75 "/>
<path style="fill-rule:nonzero;fill:rgb(18.431373%,30.980392%,30.980392%);fill-opacity:1;stroke-width:0.708661;stroke-linecap:round;stroke-linejoin:round;stroke:rgb(18.431373%,30.980392%,30.980392%);stroke-opacity:1;stroke-miterlimit:10;" d="M 481.140625 254.527344 C 481.140625 258.257812 478.113281 261.285156 474.382812 261.285156 C 470.652344 261.285156 467.628906 258.257812 467.628906 254.527344 C 467.628906 250.796875 470.652344 247.773438 474.382812 247.773438 C 478.113281 247.773438 481.140625 250.796875 481.140625 254.527344 "/>
<path style="fill-rule:nonzero;fill:rgb(18.431373%,30.980392%,30.980392%);fill-opacity:1;stroke-width:0.708661;stroke-linecap:round;stroke-linejoin:round;stroke:rgb(18.431373%,30.980392%,30.980392%);stroke-opacity:1;stroke-miterlimit:10;" d="M 488.1875 175.035156 C 488.1875 178.765625 485.164062 181.792969 481.433594 181.792969 C 477.703125 181.792969 474.675781 178.765625 474.675781 175.035156 C 474.675781 171.304688 477.703125 168.28125 481.433594 168.28125 C 485.164062 168.28125 488.1875 171.304688 488.1875 175.035156 "/>
<path style="fill-rule:nonzero;fill:rgb(18.431373%,30.980392%,30.980392%);fill-opacity:1;stroke-width:0.708661;stroke-linecap:round;stroke-linejoin:round;stroke:rgb(18.431373%,30.980392%,30.980392%);stroke-opacity:1;stroke-miterlimit:10;" d="M 495.238281 281.175781 C 495.238281 284.90625 492.214844 287.929688 488.480469 287.929688 C 484.75 287.929688 481.726562 284.90625 481.726562 281.175781 C 481.726562 277.445312 484.75 274.417969 488.480469 274.417969 C 492.214844 274.417969 495.238281 277.445312 495.238281 281.175781 "/>
<path style="fill-rule:nonzero;fill:rgb(18.431373%,30.980392%,30.980392%);fill-opacity:1;stroke-width:0.708661;stroke-linecap:round;stroke-linejoin:round;stroke:rgb(18.431373%,30.980392%,30.980392%);stroke-opacity:1;stroke-miterlimit:10;" d="M 502.289062 231.96875 C 502.289062 235.699219 499.261719 238.722656 495.53125 238.722656 C 491.800781 238.722656 488.773438 235.699219 488.773438 231.96875 C 488.773438 228.238281 491.800781 225.210938 495.53125 225.210938 C 499.261719 225.210938 502.289062 228.238281 502.289062 231.96875 "/>
<path style="fill-rule:nonzero;fill:rgb(18.431373%,30.980392%,30.980392%);fill-opacity:1;stroke-width:0.708661;stroke-linecap:round;stroke-linejoin:round;stroke:rgb(18.431373%,30.980392%,30.980392%);stroke-opacity:1;stroke-miterlimit:10;" d="M 509.335938 275.160156 C 509.335938 278.890625 506.3125 281.914062 502.582031 281.914062 C 498.847656 281.914062 495.824219 278.890625 495.824219 275.160156 C 495.824219 271.425781 498.847656 268.402344 502.582031 268.402344 C 506.3125 268.402344 509.335938 271.425781 509.335938 275.160156 "/>
<path style="fill-rule:nonzero;fill:rgb(18.431373%,30.980392%,30.980392%);fill-opacity:1;stroke-width:0.708661;stroke-linecap:round;stroke-linejoin:round;stroke:rgb(18.431373%,30.980392%,30.980392%);stroke-opacity:1;stroke-miterlimit:10;" d="M 516.386719 229.039062 C 516.386719 232.773438 513.359375 235.796875 509.628906 235.796875 C 505.898438 235.796875 502.875 232.773438 502.875 229.039062 C 502.875 225.308594 505.898438 222.285156 509.628906 222.285156 C 513.359375 222.285156 516.386719 225.308594 516.386719 229.039062 "/>
<path style="fill-rule:nonzero;fill:rgb(18.431373%,30.980392%,30.980392%);fill-opacity:1;stroke-width:0.708661;stroke-linecap:round;stroke-linejoin:round;stroke:rgb(18.431373%,30.980392%,30.980392%);stroke-opacity:1;stroke-miterlimit:10;" d="M 523.433594 277.753906 C 523.433594 281.488281 520.410156 284.511719 516.679688 284.511719 C 512.949219 284.511719 509.921875 281.488281 509.921875 277.753906 C 509.921875 274.023438 512.949219 271 516.679688 271 C 520.410156 271 523.433594 274.023438 523.433594 277.753906 "/>
<path style="fill-rule:nonzero;fill:rgb(18.431373%,30.980392%,30.980392%);fill-opacity:1;stroke-width:0.708661;stroke-linecap:round;stroke-linejoin:round;stroke:rgb(18.431373%,30.980392%,30.980392%);stroke-opacity:1;stroke-miterlimit:10;" d="M 530.484375 275.527344 C 530.484375 279.257812 527.460938 282.28125 523.726562 282.28125 C 519.996094 282.28125 516.972656 279.257812 516.972656 275.527344 C 516.972656 271.792969 519.996094 268.769531 523.726562 268.769531 C 527.460938 268.769531 530.484375 271.792969 530.484375 275.527344 "/>
<path style="fill-rule:nonzero;fill:rgb(18.431373%,30.980392%,30.980392%);fill-opacity:1;stroke-width:0.708661;stroke-linecap:round;stroke-linejoin:round;stroke:rgb(18.431373%,30.980392%,30.980392%);stroke-opacity:1;stroke-miterlimit:10;" d="M 537.535156 263.789062 C 537.535156 267.519531 534.507812 270.546875 530.777344 270.546875 C 527.046875 270.546875 524.019531 267.519531 524.019531 263.789062 C 524.019531 260.058594 527.046875 257.035156 530.777344 257.035156 C 534.507812 257.035156 537.535156 260.058594 537.535156 263.789062 "/>
<path style="fill-rule:nonzero;fill:rgb(18.431373%,30.980392%,30.980392%);fill-opacity:1;stroke-width:0.708661;stroke-linecap:round;stroke-linejoin:round;stroke:rgb(18.431373%,30.980392%,30.980392%);stroke-opacity:1;stroke-miterlimit:10;" d="M 544.582031 168.28125 C 544.582031 172.011719 541.558594 175.035156 537.828125 175.035156 C 534.09375 175.035156 531.070312 172.011719 531.070312 168.28125 C 531.070312 164.550781 534.09375 161.523438 537.828125 161.523438 C 541.558594 161.523438 544.582031 164.550781 544.582031 168.28125 "/>
<path style="fill-rule:nonzero;fill:rgb(18.431373%,30.980392%,30.980392%);fill-opacity:1;stroke-width:0.708661;stroke-linecap:round;stroke-linejoin:round;stroke:rgb(18.431373%,30.980392%,30.980392%);stroke-opacity:1;stroke-miterlimit:10;" d="M 551.632812 210.1875 C 551.632812 213.917969 548.605469 216.941406 544.875 216.941406 C 541.144531 216.941406 538.121094 213.917969 538.121094 210.1875 C 538.121094 206.453125 541.144531 203.429688 544.875 203.429688 C 548.605469 203.429688 551.632812 206.453125 551.632812 210.1875 "/>
<path style="fill-rule:nonzero;fill:rgb(18.431373%,30.980392%,30.980392%);fill-opacity:1;stroke-width:0.708661;stroke-linecap:round;stroke-linejoin:round;stroke:rgb(18.431373%,30.980392%,30.980392%);stroke-opacity:1;stroke-miterlimit:10;" d="M 558.679688 239.816406 C 558.679688 243.546875 555.65625 246.574219 551.925781 246.574219 C 548.195312 246.574219 545.167969 243.546875 545.167969 239.816406 C 545.167969 236.085938 548.195312 233.0625 551.925781 233.0625 C 555.65625 233.0625 558.679688 236.085938 558.679688 239.816406 "/>
<path style="fill-rule:nonzero;fill:rgb(18.431373%,30.980392%,30.980392%);fill-opacity:1;stroke-width:0.708661;stroke-linecap:round;stroke-linejoin:round;stroke:rgb(18.431373%,30.980392%,30.980392%);stroke-opacity:1;stroke-miterlimit:10;" d="M 565.730469 283.789062 C 565.730469 287.523438 562.707031 290.546875 558.972656 290.546875 C 555.242188 290.546875 552.21875 287.523438 552.21875 283.789062 C 552.21875 280.058594 555.242188 277.035156 558.972656 277.035156 C 562.707031 277.035156 565.730469 280.058594 565.730469 283.789062 "/>
<path style="fill-rule:nonzero;fill:rgb(18.431373%,30.980392%,30.980392%);fill-opacity:1;stroke-width:0.708661;stroke-linecap:round;stroke-linejoin:round;stroke:rgb(18.431373%,30.980392%,30.980392%);stroke-opacity:1;stroke-miterlimit:10;" d="M 572.78125 194.886719 C 572.78125 198.617188 569.753906 201.644531 566.023438 201.644531 C 562.292969 201.644531 559.265625 198.617188 559.265625 194.886719 C 559.265625 191.15625 562.292969 188.132812 566.023438 188.132812 C 569.753906 188.132812 572.78125 191.15625 572.78125 194.886719 "/>
<path style="fill-rule:nonzero;fill:rgb(18.431373%,30.980392%,30.980392%);fill-opacity:1;stroke-width:0.708661;stroke-linecap:round;stroke-linejoin:round;stroke:rgb(18.431373%,30.980392%,30.980392%);stroke-opacity:1;stroke-miterlimit:10;" d="M 579.828125 306.15625 C 579.828125 309.886719 576.804688 312.910156 573.074219 312.910156 C 569.339844 312.910156 566.316406 309.886719 566.316406 306.15625 C 566.316406 302.421875 569.339844 299.398438 573.074219 299.398438 C 576.804688 299.398438 579.828125 302.421875 579.828125 306.15625 "/>
<path style="fill-rule:nonzero;fill:rgb(18.431373%,30.980392%,30.980392%);fill-opacity:1;stroke-width:0.708661;stroke-linecap:round;stroke-linejoin:round;stroke:rgb(18.431373%,30.980392%,30.980392%);stroke-opacity:1;stroke-miterlimit:10;" d="M 586.878906 279.21875 C 586.878906 282.949219 583.851562 285.976562 580.121094 285.976562 C 576.390625 285.976562 573.367188 282.949219 573.367188 279.21875 C 573.367188 275.488281 576.390625 272.460938 580.121094 272.460938 C 583.851562 272.460938 586.878906 275.488281 586.878906 279.21875 "/>
<path style="fill-rule:nonzero;fill:rgb(18.431373%,30.980392%,30.980392%);fill-opacity:1;stroke-width:0.708661;stroke-linecap:round;stroke-linejoin:round;stroke:rgb(18.431373%,30.980392%,30.980392%);stroke-opacity:1;stroke-miterlimit:10;" d="M 593.925781 267.5 C 593.925781 271.230469 590.902344 274.253906 587.171875 274.253906 C 583.441406 274.253906 580.414062 271.230469 580.414062 267.5 C 580.414062 263.769531 583.441406 260.742188 587.171875 260.742188 C 590.902344 260.742188 593.925781 263.769531 593.925781 267.5 "/>
<path style="fill-rule:nonzero;fill:rgb(18.431373%,30.980392%,30.980392%);fill-opacity:1;stroke-width:0.708661;stroke-linecap:round;stroke-linejoin:round;stroke:rgb(18.431373%,30.980392%,30.980392%);stroke-opacity:1;stroke-miterlimit:10;" d="M 600.976562 164.976562 C 600.976562 168.710938 597.953125 171.734375 594.21875 171.734375 C 590.488281 171.734375 587.464844 168.710938 587.464844 164.976562 C 587.464844 161.246094 590.488281 158.222656 594.21875 158.222656 C 597.953125 158.222656 600.976562 161.246094 600.976562 164.976562 "/>
<path style="fill-rule:nonzero;fill:rgb(18.431373%,30.980392%,30.980392%);fill-opacity:1;stroke-width:0.708661;stroke-linecap:round;stroke-linejoin:round;stroke:rgb(18.431373%,30.980392%,30.980392%);stroke-opacity:1;stroke-miterlimit:10;" d="M 608.027344 279.222656 C 608.027344 282.953125 605 285.976562 601.269531 285.976562 C 597.539062 285.976562 594.511719 282.953125 594.511719 279.222656 C 594.511719 275.492188 597.539062 272.464844 601.269531 272.464844 C 605 272.464844 608.027344 275.492188 608.027344 279.222656 "/>
<path style="fill-rule:nonzero;fill:rgb(18.431373%,30.980392%,30.980392%);fill-opacity:1;stroke-width:0.708661;stroke-linecap:round;stroke-linejoin:round;stroke:rgb(18.431373%,30.980392%,30.980392%);stroke-opacity:1;stroke-miterlimit:10;" d="M 615.074219 204.777344 C 615.074219 208.511719 612.050781 211.535156 608.320312 211.535156 C 604.585938 211.535156 601.5625 208.511719 601.5625 204.777344 C 601.5625 201.046875 604.585938 198.023438 608.320312 198.023438 C 612.050781 198.023438 615.074219 201.046875 615.074219 204.777344 "/>
<path style="fill-rule:nonzero;fill:rgb(18.431373%,30.980392%,30.980392%);fill-opacity:1;stroke-width:0.708661;stroke-linecap:round;stroke-linejoin:round;stroke:rgb(18.431373%,30.980392%,30.980392%);stroke-opacity:1;stroke-miterlimit:10;" d="M 622.125 262.574219 C 622.125 266.304688 619.097656 269.328125 615.367188 269.328125 C 611.636719 269.328125 608.613281 266.304688 608.613281 262.574219 C 608.613281 258.84375 611.636719 255.816406 615.367188 255.816406 C 619.097656 255.816406 622.125 258.84375 622.125 262.574219 "/>
<path style="fill-rule:nonzero;fill:rgb(18.431373%,30.980392%,30.980392%);fill-opacity:1;stroke-width:0.708661;stroke-linecap:round;stroke-linejoin:round;stroke:rgb(18.431373%,30.980392%,30.980392%);stroke-opacity:1;stroke-miterlimit:10;" d="M 629.171875 214.542969 C 629.171875 218.273438 626.148438 221.300781 622.417969 221.300781 C 618.6875 221.300781 615.660156 218.273438 615.660156 214.542969 C 615.660156 210.8125 618.6875 207.789062 622.417969 207.789062 C 626.148438 207.789062 629.171875 210.8125 629.171875 214.542969 "/>
<path style="fill-rule:nonzero;fill:rgb(18.431373%,30.980392%,30.980392%);fill-opacity:1;stroke-width:0.708661;stroke-linecap:round;stroke-linejoin:round;stroke:rgb(18.431373%,30.980392%,30.980392%);stroke-opacity:1;stroke-miterlimit:10;" d="M 636.222656 230.855469 C 636.222656 234.589844 633.199219 237.613281 629.464844 237.613281 C 625.734375 237.613281 622.710938 234.589844 622.710938 230.855469 C 622.710938 227.125 625.734375 224.101562 629.464844 224.101562 C 633.199219 224.101562 636.222656 227.125 636.222656 230.855469 "/>
<path style="fill-rule:nonzero;fill:rgb(18.431373%,30.980392%,30.980392%);fill-opacity:1;stroke-width:0.708661;stroke-linecap:round;stroke-linejoin:round;stroke:rgb(18.431373%,30.980392%,30.980392%);stroke-opacity:1;stroke-miterlimit:10;" d="M 643.273438 358.4375 C 643.273438 362.171875 640.246094 365.195312 636.515625 365.195312 C 632.785156 365.195312 629.757812 362.171875 629.757812 358.4375 C 629.757812 354.707031 632.785156 351.683594 636.515625 351.683594 C 640.246094 351.683594 643.273438 354.707031 643.273438 358.4375 "/>
<path style="fill-rule:nonzero;fill:rgb(18.431373%,30.980392%,30.980392%);fill-opacity:1;stroke-width:0.708661;stroke-linecap:round;stroke-linejoin:round;stroke:rgb(18.431373%,30.980392%,30.980392%);stroke-opacity:1;stroke-miterlimit:10;" d="M 650.320312 258.382812 C 650.320312 262.113281 647.296875 265.140625 643.566406 265.140625 C 639.832031 265.140625 636.808594 262.113281 636.808594 258.382812 C 636.808594 254.652344 639.832031 251.625 643.566406 251.625 C 647.296875 251.625 650.320312 254.652344 650.320312 258.382812 "/>
<path style="fill-rule:nonzero;fill:rgb(18.431373%,30.980392%,30.980392%);fill-opacity:1;stroke-width:0.708661;stroke-linecap:round;stroke-linejoin:round;stroke:rgb(18.431373%,30.980392%,30.980392%);stroke-opacity:1;stroke-miterlimit:10;" d="M 657.371094 104.808594 C 657.371094 108.539062 654.34375 111.566406 650.613281 111.566406 C 646.882812 111.566406 643.859375 108.539062 643.859375 104.808594 C 643.859375 101.078125 646.882812 98.050781 650.613281 98.050781 C 654.34375 98.050781 657.371094 101.078125 657.371094 104.808594 "/>
<path style="fill-rule:nonzero;fill:rgb(18.431373%,30.980392%,30.980392%);fill-opacity:1;stroke-width:0.708661;stroke-linecap:round;stroke-linejoin:round;stroke:rgb(18.431373%,30.980392%,30.980392%);stroke-opacity:1;stroke-miterlimit:10;" d="M 664.417969 264.8125 C 664.417969 268.546875 661.394531 271.570312 657.664062 271.570312 C 653.933594 271.570312 650.90625 268.546875 650.90625 264.8125 C 650.90625 261.082031 653.933594 258.058594 657.664062 258.058594 C 661.394531 258.058594 664.417969 261.082031 664.417969 264.8125 "/>
<path style="fill-rule:nonzero;fill:rgb(18.431373%,30.980392%,30.980392%);fill-opacity:1;stroke-width:0.708661;stroke-linecap:round;stroke-linejoin:round;stroke:rgb(18.431373%,30.980392%,30.980392%);stroke-opacity:1;stroke-miterlimit:10;" d="M 671.46875 230.753906 C 671.46875 234.488281 668.445312 237.511719 664.710938 237.511719 C 660.980469 237.511719 657.957031 234.488281 657.957031 230.753906 C 657.957031 227.023438 660.980469 224 664.710938 224 C 668.445312 224 671.46875 227.023438 671.46875 230.753906 "/>
<path style="fill-rule:nonzero;fill:rgb(18.431373%,30.980392%,30.980392%);fill-opacity:1;stroke-width:0.708661;stroke-linecap:round;stroke-linejoin:round;stroke:rgb(18.431373%,30.980392%,30.980392%);stroke-opacity:1;stroke-miterlimit:10;" d="M 678.519531 299.734375 C 678.519531 303.464844 675.492188 306.488281 671.761719 306.488281 C 668.03125 306.488281 665.003906 303.464844 665.003906 299.734375 C 665.003906 296 668.03125 292.976562 671.761719 292.976562 C 675.492188 292.976562 678.519531 296 678.519531 299.734375 "/>
<path style="fill-rule:nonzero;fill:rgb(18.431373%,30.980392%,30.980392%);fill-opacity:1;stroke-width:0.708661;stroke-linecap:round;stroke-linejoin:round;stroke:rgb(18.431373%,30.980392%,30.980392%);stroke-opacity:1;stroke-miterlimit:10;" d="M 685.566406 394.261719 C 685.566406 397.992188 682.542969 401.015625 678.8125 401.015625 C 675.078125 401.015625 672.054688 397.992188 672.054688 394.261719 C 672.054688 390.527344 675.078125 387.503906 678.8125 387.503906 C 682.542969 387.503906 685.566406 390.527344 685.566406 394.261719 "/>
<path style="fill-rule:nonzero;fill:rgb(18.431373%,30.980392%,30.980392%);fill-opacity:1;stroke-width:0.708661;stroke-linecap:round;stroke-linejoin:round;stroke:rgb(18.431373%,30.980392%,30.980392%);stroke-opacity:1;stroke-miterlimit:10;" d="M 692.617188 23.4375 C 692.617188 27.171875 689.589844 30.195312 685.859375 30.195312 C 682.128906 30.195312 679.105469 27.171875 679.105469 23.4375 C 679.105469 19.707031 682.128906 16.683594 685.859375 16.683594 C 689.589844 16.683594 692.617188 19.707031 692.617188 23.4375 "/>
<path style="fill-rule:nonzero;fill:rgb(18.431373%,30.980392%,30.980392%);fill-opacity:1;stroke-width:0.708661;stroke-linecap:round;stroke-linejoin:round;stroke:rgb(18.431373%,30.980392%,30.980392%);stroke-opacity:1;stroke-miterlimit:10;" d="M 699.664062 220.351562 C 699.664062 224.082031 696.640625 227.105469 692.910156 227.105469 C 689.179688 227.105469 686.152344 224.082031 686.152344 220.351562 C 686.152344 216.621094 689.179688 213.59375 692.910156 213.59375 C 696.640625 213.59375 699.664062 216.621094 699.664062 220.351562 "/>
<path style="fill-rule:nonzero;fill:rgb(18.431373%,30.980392%,30.980392%);fill-opacity:1;stroke-width:0.708661;stroke-linecap:round;stroke-linejoin:round;stroke:rgb(18.431373%,30.980392%,30.980392%);stroke-opacity:1;stroke-miterlimit:10;" d="M 706.714844 218.65625 C 706.714844 222.386719 703.691406 225.410156 699.957031 225.410156 C 696.226562 225.410156 693.203125 222.386719 693.203125 218.65625 C 693.203125 214.925781 696.226562 211.898438 699.957031 211.898438 C 703.691406 211.898438 706.714844 214.925781 706.714844 218.65625 "/>
<path style="fill-rule:nonzero;fill:rgb(18.431373%,30.980392%,30.980392%);fill-opacity:1;stroke-width:0.708661;stroke-linecap:round;stroke-linejoin:round;stroke:rgb(18.431373%,30.980392%,30.980392%);stroke-opacity:1;stroke-miterlimit:10;" d="M 713.765625 315.054688 C 713.765625 318.785156 710.738281 321.8125 707.007812 321.8125 C 703.277344 321.8125 700.25 318.785156 700.25 315.054688 C 700.25 311.324219 703.277344 308.296875 707.007812 308.296875 C 710.738281 308.296875 713.765625 311.324219 713.765625 315.054688 "/>
<path style="fill-rule:nonzero;fill:rgb(18.431373%,30.980392%,30.980392%);fill-opacity:1;stroke-width:0.708661;stroke-linecap:round;stroke-linejoin:round;stroke:rgb(18.431373%,30.980392%,30.980392%);stroke-opacity:1;stroke-miterlimit:10;" d="M 720.8125 303.453125 C 720.8125 307.183594 717.789062 310.207031 714.058594 310.207031 C 710.324219 310.207031 707.300781 307.183594 707.300781 303.453125 C 707.300781 299.722656 710.324219 296.695312 714.058594 296.695312 C 717.789062 296.695312 720.8125 299.722656 720.8125 303.453125 "/>
<path style="fill-rule:nonzero;fill:rgb(18.431373%,30.980392%,30.980392%);fill-opacity:1;stroke-width:0.708661;stroke-linecap:round;stroke-linejoin:round;stroke:rgb(18.431373%,30.980392%,30.980392%);stroke-opacity:1;stroke-miterlimit:10;" d="M 727.863281 320.964844 C 727.863281 324.695312 724.835938 327.71875 721.105469 327.71875 C 717.375 327.71875 714.351562 324.695312 714.351562 320.964844 C 714.351562 317.230469 717.375 314.207031 721.105469 314.207031 C 724.835938 314.207031 727.863281 317.230469 727.863281 320.964844 "/>
<path style="fill:none;stroke-width:6.40187;stroke-linecap:butt;stroke-linejoin:round;stroke:rgb(94.117647%,50.196078%,50.196078%);stroke-opacity:1;stroke-miterlimit:10;" d="M 23.234375 403.46875 L 32.066406 401.078125 L 40.902344 398.683594 L 49.734375 396.289062 L 58.570312 393.894531 L 67.402344 391.503906 L 76.238281 389.109375 L 93.902344 384.320312 L 102.738281 381.925781 L 111.570312 379.535156 L 120.40625 377.140625 L 129.238281 374.746094 L 138.074219 372.351562 L 146.90625 369.957031 L 155.742188 367.566406 L 164.574219 365.171875 L 173.410156 362.777344 L 182.242188 360.382812 L 191.078125 357.988281 L 199.910156 355.597656 L 208.742188 353.203125 L 217.578125 350.808594 L 226.410156 348.414062 L 235.246094 346.019531 L 244.078125 343.628906 L 252.914062 341.234375 L 261.746094 338.839844 L 270.582031 336.445312 L 279.414062 334.050781 L 288.25 331.660156 L 297.082031 329.265625 L 305.917969 326.871094 L 323.582031 322.082031 L 332.417969 319.691406 L 341.25 317.296875 L 350.085938 314.902344 L 358.917969 312.507812 L 367.753906 310.117188 L 376.585938 307.722656 L 385.421875 305.328125 L 394.253906 302.933594 L 403.089844 300.539062 L 411.921875 298.148438 L 420.757812 295.753906 L 438.421875 290.964844 L 447.257812 288.570312 L 456.089844 286.179688 L 464.925781 283.785156 L 473.757812 281.390625 L 482.59375 278.996094 L 491.425781 276.601562 L 500.261719 274.210938 L 509.09375 271.816406 L 517.929688 269.421875 L 526.761719 267.027344 L 535.597656 264.632812 L 544.429688 262.242188 L 553.261719 259.847656 L 562.097656 257.453125 L 570.929688 255.058594 L 579.765625 252.664062 L 588.597656 250.273438 L 597.433594 247.878906 L 606.265625 245.484375 L 615.101562 243.089844 L 623.933594 240.699219 L 632.769531 238.304688 L 641.601562 235.910156 L 650.4375 233.515625 L 659.269531 231.121094 L 668.101562 228.730469 L 676.9375 226.335938 L 685.769531 223.941406 L 694.605469 221.546875 L 703.4375 219.152344 L 712.273438 216.761719 L 721.105469 214.367188 "/>
</g>
</svg>
