<?xml version="1.0" encoding="UTF-8"?>
<svg xmlns="http://www.w3.org/2000/svg" xmlns:xlink="http://www.w3.org/1999/xlink" width="756pt" height="504pt" viewBox="0 0 756 504" version="1.1">
<g id="surface19">
<rect x="0" y="0" width="756" height="504" style="fill:rgb(100%,100%,100%);fill-opacity:1;stroke:none;"/>
<path style="fill-rule:nonzero;fill:rgb(18.431373%,30.980392%,30.980392%);fill-opacity:1;stroke-width:0.708661;stroke-linecap:round;stroke-linejoin:round;stroke:rgb(18.431373%,30.980392%,30.980392%);stroke-opacity:1;stroke-miterlimit:10;" d="M 29.988281 458.914062 C 29.988281 462.644531 26.964844 465.667969 23.234375 465.667969 C 19.503906 465.667969 16.476562 462.644531 16.476562 458.914062 C 16.476562 455.179688 19.503906 452.15625 23.234375 452.15625 C 26.964844 452.15625 29.988281 455.179688 29.988281 458.914062 "/>
<path style="fill-rule:nonzero;fill:rgb(18.431373%,30.980392%,30.980392%);fill-opacity:1;stroke-width:0.708661;stroke-linecap:round;stroke-linejoin:round;stroke:rgb(18.431373%,30.980392%,30.980392%);stroke-opacity:1;stroke-miterlimit:10;" d="M 37.039062 457.671875 C 37.039062 461.402344 34.015625 464.429688 30.28125 464.429688 C 26.550781 464.429688 23.527344 461.402344 23.527344 457.671875 C 23.527344 453.941406 26.550781 450.914062 30.28125 450.914062 C 34.015625 450.914062 37.039062 453.941406 37.039062 457.671875 "/>
<path style="fill-rule:nonzero;fill:rgb(18.431373%,30.980392%,30.980392%);fill-opacity:1;stroke-width:0.708661;stroke-linecap:round;stroke-linejoin:round;stroke:rgb(18.431373%,30.980392%,30.980392%);stroke-opacity:1;stroke-miterlimit:10;" d="M 44.089844 492.222656 C 44.089844 495.953125 41.0625 498.976562 37.332031 498.976562 C 33.601562 498.976562 30.574219 495.953125 30.574219 492.222656 C 30.574219 488.488281 33.601562 485.464844 37.332031 485.464844 C 41.0625 485.464844 44.089844 488.488281 44.089844 492.222656 "/>
<path style="fill-rule:nonzero;fill:rgb(18.431373%,30.980392%,30.980392%);fill-opacity:1;stroke-width:0.708661;stroke-linecap:round;stroke-linejoin:round;stroke:rgb(18.431373%,30.980392%,30.980392%);stroke-opacity:1;stroke-miterlimit:10;" d="M 51.136719 485.847656 C 51.136719 489.582031 48.113281 492.605469 44.382812 492.605469 C 40.648438 492.605469 37.625 489.582031 37.625 485.847656 C 37.625 482.117188 40.648438 479.09375 44.382812 479.09375 C 48.113281 479.09375 51.136719 482.117188 51.136719 485.847656 "/>
<path style="fill-rule:nonzero;fill:rgb(18.431373%,30.980392%,30.980392%);fill-opacity:1;stroke-width:0.708661;stroke-linecap:round;stroke-linejoin:round;stroke:rgb(18.431373%,30.980392%,30.980392%);stroke-opacity:1;stroke-miterlimit:10;" d="M 58.1875 455.773438 C 58.1875 459.503906 55.160156 462.53125 51.429688 462.53125 C 47.699219 462.53125 44.675781 459.503906 44.675781 455.773438 C 44.675781 452.042969 47.699219 449.015625 51.429688 449.015625 C 55.160156 449.015625 58.1875 452.042969 58.1875 455.773438 "/>
<path style="fill-rule:nonzero;fill:rgb(18.431373%,30.980392%,30.980392%);fill-opacity:1;stroke-width:0.708661;stroke-linecap:round;stroke-linejoin:round;stroke:rgb(18.431373%,30.980392%,30.980392%);stroke-opacity:1;stroke-miterlimit:10;" d="M 65.234375 477.734375 C 65.234375 481.464844 62.210938 484.492188 58.480469 484.492188 C 54.75 484.492188 51.722656 481.464844 51.722656 477.734375 C 51.722656 474.003906 54.75 470.976562 58.480469 470.976562 C 62.210938 470.976562 65.234375 474.003906 65.234375 477.734375 "/>
<path style="fill-rule:nonzero;fill:rgb(18.431373%,30.980392%,30.980392%);fill-opacity:1;stroke-width:0.708661;stroke-linecap:round;stroke-linejoin:round;stroke:rgb(18.431373%,30.980392%,30.980392%);stroke-opacity:1;stroke-miterlimit:10;" d="M 72.285156 452.699219 C 72.285156 456.429688 69.261719 459.457031 65.527344 459.457031 C 61.796875 459.457031 58.773438 456.429688 58.773438 452.699219 C 58.773438 448.96875 61.796875 445.941406 65.527344 445.941406 C 69.261719 445.941406 72.285156 448.96875 72.285156 452.699219 "/>
<path style="fill-rule:nonzero;fill:rgb(18.431373%,30.980392%,30.980392%);fill-opacity:1;stroke-width:0.708661;stroke-linecap:round;stroke-linejoin:round;stroke:rgb(18.431373%,30.980392%,30.980392%);stroke-opacity:1;stroke-miterlimit:10;" d="M 79.335938 451.96875 C 79.335938 455.703125 76.308594 458.726562 72.578125 458.726562 C 68.847656 458.726562 65.820312 455.703125 65.820312 451.96875 C 65.820312 448.238281 68.847656 445.214844 72.578125 445.214844 C 76.308594 445.214844 79.335938 448.238281 79.335938 451.96875 "/>
<path style="fill-rule:nonzero;fill:rgb(18.431373%,30.980392%,30.980392%);fill-opacity:1;stroke-width:0.708661;stroke-linecap:round;stroke-linejoin:round;stroke:rgb(18.431373%,30.980392%,30.980392%);stroke-opacity:1;stroke-miterlimit:10;" d="M 86.382812 407.285156 C 86.382812 411.015625 83.359375 414.042969 79.628906 414.042969 C 75.894531 414.042969 72.871094 411.015625 72.871094 407.285156 C 72.871094 403.554688 75.894531 400.53125 79.628906 400.53125 C 83.359375 400.53125 86.382812 403.554688 86.382812 407.285156 "/>
<path style="fill-rule:nonzero;fill:rgb(18.431373%,30.980392%,30.980392%);fill-opacity:1;stroke-width:0.708661;stroke-linecap:round;stroke-linejoin:round;stroke:rgb(18.431373%,30.980392%,30.980392%);stroke-opacity:1;stroke-miterlimit:10;" d="M 93.433594 437.355469 C 93.433594 441.085938 90.40625 444.113281 86.675781 444.113281 C 82.945312 444.113281 79.921875 441.085938 79.921875 437.355469 C 79.921875 433.625 82.945312 430.597656 86.675781 430.597656 C 90.40625 430.597656 93.433594 433.625 93.433594 437.355469 "/>
<path style="fill-rule:nonzero;fill:rgb(18.431373%,30.980392%,30.980392%);fill-opacity:1;stroke-width:0.708661;stroke-linecap:round;stroke-linejoin:round;stroke:rgb(18.431373%,30.980392%,30.980392%);stroke-opacity:1;stroke-miterlimit:10;" d="M 100.480469 454.417969 C 100.480469 458.148438 97.457031 461.175781 93.726562 461.175781 C 89.996094 461.175781 86.96875 458.148438 86.96875 454.417969 C 86.96875 450.6875 89.996094 447.664062 93.726562 447.664062 C 97.457031 447.664062 100.480469 450.6875 100.480469 454.417969 "/>
<path style="fill-rule:nonzero;fill:rgb(18.431373%,30.980392%,30.980392%);fill-opacity:1;stroke-width:0.708661;stroke-linecap:round;stroke-linejoin:round;stroke:rgb(18.431373%,30.980392%,30.980392%);stroke-opacity:1;stroke-miterlimit:10;" d="M 107.53125 402.429688 C 107.53125 406.160156 104.507812 409.183594 100.773438 409.183594 C 97.042969 409.183594 94.019531 406.160156 94.019531 402.429688 C 94.019531 398.699219 97.042969 395.671875 100.773438 395.671875 C 104.507812 395.671875 107.53125 398.699219 107.53125 402.429688 "/>
<path style="fill-rule:nonzero;fill:rgb(18.431373%,30.980392%,30.980392%);fill-opacity:1;stroke-width:0.708661;stroke-linecap:round;stroke-linejoin:round;stroke:rgb(18.431373%,30.980392%,30.980392%);stroke-opacity:1;stroke-miterlimit:10;" d="M 114.582031 409.632812 C 114.582031 413.363281 111.554688 416.386719 107.824219 416.386719 C 104.09375 416.386719 101.066406 413.363281 101.066406 409.632812 C 101.066406 405.898438 104.09375 402.875 107.824219 402.875 C 111.554688 402.875 114.582031 405.898438 114.582031 409.632812 "/>
<path style="fill-rule:nonzero;fill:rgb(18.431373%,30.980392%,30.980392%);fill-opacity:1;stroke-width:0.708661;stroke-linecap:round;stroke-linejoin:round;stroke:rgb(18.431373%,30.980392%,30.980392%);stroke-opacity:1;stroke-miterlimit:10;" d="M 121.628906 417.101562 C 121.628906 420.835938 118.605469 423.859375 114.875 423.859375 C 111.140625 423.859375 108.117188 420.835938 108.117188 417.101562 C 108.117188 413.371094 111.140625 410.347656 114.875 410.347656 C 118.605469 410.347656 121.628906 413.371094 121.628906 417.101562 "/>
<path style="fill-rule:nonzero;fill:rgb(18.431373%,30.980392%,30.980392%);fill-opacity:1;stroke-width:0.708661;stroke-linecap:round;stroke-linejoin:round;stroke:rgb(18.431373%,30.980392%,30.980392%);stroke-opacity:1;stroke-miterlimit:10;" d="M 128.679688 382.660156 C 128.679688 386.394531 125.652344 389.417969 121.921875 389.417969 C 118.191406 389.417969 115.167969 386.394531 115.167969 382.660156 C 115.167969 378.929688 118.191406 375.90625 121.921875 375.90625 C 125.652344 375.90625 128.679688 378.929688 128.679688 382.660156 "/>
<path style="fill-rule:nonzero;fill:rgb(18.431373%,30.980392%,30.980392%);fill-opacity:1;stroke-width:0.708661;stroke-linecap:round;stroke-linejoin:round;stroke:rgb(18.431373%,30.980392%,30.980392%);stroke-opacity:1;stroke-miterlimit:10;" d="M 135.726562 418.929688 C 135.726562 422.660156 132.703125 425.6875 128.972656 425.6875 C 125.242188 425.6875 122.214844 422.660156 122.214844 418.929688 C 122.214844 415.199219 125.242188 412.175781 128.972656 412.175781 C 132.703125 412.175781 135.726562 415.199219 135.726562 418.929688 "/>
<path style="fill-rule:nonzero;fill:rgb(18.431373%,30.980392%,30.980392%);fill-opacity:1;stroke-width:0.708661;stroke-linecap:round;stroke-linejoin:round;stroke:rgb(18.431373%,30.980392%,30.980392%);stroke-opacity:1;stroke-miterlimit:10;" d="M 142.777344 442.132812 C 142.777344 445.863281 139.753906 448.886719 136.019531 448.886719 C 132.289062 448.886719 129.265625 445.863281 129.265625 442.132812 C 129.265625 438.398438 132.289062 435.375 136.019531 435.375 C 139.753906 435.375 142.777344 438.398438 142.777344 442.132812 "/>
<path style="fill-rule:nonzero;fill:rgb(18.431373%,30.980392%,30.980392%);fill-opacity:1;stroke-width:0.708661;stroke-linecap:round;stroke-linejoin:round;stroke:rgb(18.431373%,30.980392%,30.980392%);stroke-opacity:1;stroke-miterlimit:10;" d="M 149.828125 367.035156 C 149.828125 370.769531 146.800781 373.792969 143.070312 373.792969 C 139.339844 373.792969 136.3125 370.769531 136.3125 367.035156 C 136.3125 363.304688 139.339844 360.28125 143.070312 360.28125 C 146.800781 360.28125 149.828125 363.304688 149.828125 367.035156 "/>
<path style="fill-rule:nonzero;fill:rgb(18.431373%,30.980392%,30.980392%);fill-opacity:1;stroke-width:0.708661;stroke-linecap:round;stroke-linejoin:round;stroke:rgb(18.431373%,30.980392%,30.980392%);stroke-opacity:1;stroke-miterlimit:10;" d="M 156.875 414.984375 C 156.875 418.714844 153.851562 421.742188 150.121094 421.742188 C 146.386719 421.742188 143.363281 418.714844 143.363281 414.984375 C 143.363281 411.253906 146.386719 408.226562 150.121094 408.226562 C 153.851562 408.226562 156.875 411.253906 156.875 414.984375 "/>
<path style="fill-rule:nonzero;fill:rgb(18.431373%,30.980392%,30.980392%);fill-opacity:1;stroke-width:0.708661;stroke-linecap:round;stroke-linejoin:round;stroke:rgb(18.431373%,30.980392%,30.980392%);stroke-opacity:1;stroke-miterlimit:10;" d="M 163.925781 428.070312 C 163.925781 431.800781 160.898438 434.828125 157.167969 434.828125 C 153.4375 434.828125 150.414062 431.800781 150.414062 428.070312 C 150.414062 424.339844 153.4375 421.3125 157.167969 421.3125 C 160.898438 421.3125 163.925781 424.339844 163.925781 428.070312 "/>
<path style="fill-rule:nonzero;fill:rgb(18.431373%,30.980392%,30.980392%);fill-opacity:1;stroke-width:0.708661;stroke-linecap:round;stroke-linejoin:round;stroke:rgb(18.431373%,30.980392%,30.980392%);stroke-opacity:1;stroke-miterlimit:10;" d="M 170.972656 392.667969 C 170.972656 396.402344 167.949219 399.425781 164.21875 399.425781 C 160.488281 399.425781 157.460938 396.402344 157.460938 392.667969 C 157.460938 388.9375 160.488281 385.914062 164.21875 385.914062 C 167.949219 385.914062 170.972656 388.9375 170.972656 392.667969 "/>
<path style="fill-rule:nonzero;fill:rgb(18.431373%,30.980392%,30.980392%);fill-opacity:1;stroke-width:0.708661;stroke-linecap:round;stroke-linejoin:round;stroke:rgb(18.431373%,30.980392%,30.980392%);stroke-opacity:1;stroke-miterlimit:10;" d="M 178.023438 406.425781 C 178.023438 410.160156 175 413.183594 171.265625 413.183594 C 167.535156 413.183594 164.511719 410.160156 164.511719 406.425781 C 164.511719 402.695312 167.535156 399.671875 171.265625 399.671875 C 175 399.671875 178.023438 402.695312 178.023438 406.425781 "/>
<path style="fill-rule:nonzero;fill:rgb(18.431373%,30.980392%,30.980392%);fill-opacity:1;stroke-width:0.708661;stroke-linecap:round;stroke-linejoin:round;stroke:rgb(18.431373%,30.980392%,30.980392%);stroke-opacity:1;stroke-miterlimit:10;" d="M 185.074219 386.015625 C 185.074219 389.746094 182.046875 392.769531 178.316406 392.769531 C 174.585938 392.769531 171.558594 389.746094 171.558594 386.015625 C 171.558594 382.285156 174.585938 379.257812 178.316406 379.257812 C 182.046875 379.257812 185.074219 382.285156 185.074219 386.015625 "/>
<path style="fill-rule:nonzero;fill:rgb(18.431373%,30.980392%,30.980392%);fill-opacity:1;stroke-width:0.708661;stroke-linecap:round;stroke-linejoin:round;stroke:rgb(18.431373%,30.980392%,30.980392%);stroke-opacity:1;stroke-miterlimit:10;" d="M 192.121094 371.132812 C 192.121094 374.863281 189.097656 377.886719 185.367188 377.886719 C 181.632812 377.886719 178.609375 374.863281 178.609375 371.132812 C 178.609375 367.402344 181.632812 364.375 185.367188 364.375 C 189.097656 364.375 192.121094 367.402344 192.121094 371.132812 "/>
<path style="fill-rule:nonzero;fill:rgb(18.431373%,30.980392%,30.980392%);fill-opacity:1;stroke-width:0.708661;stroke-linecap:round;stroke-linejoin:round;stroke:rgb(18.431373%,30.980392%,30.980392%);stroke-opacity:1;stroke-miterlimit:10;" d="M 199.171875 332.597656 C 199.171875 336.328125 196.144531 339.355469 192.414062 339.355469 C 188.683594 339.355469 185.660156 336.328125 185.660156 332.597656 C 185.660156 328.867188 188.683594 325.839844 192.414062 325.839844 C 196.144531 325.839844 199.171875 328.867188 199.171875 332.597656 "/>
<path style="fill-rule:nonzero;fill:rgb(18.431373%,30.980392%,30.980392%);fill-opacity:1;stroke-width:0.708661;stroke-linecap:round;stroke-linejoin:round;stroke:rgb(18.431373%,30.980392%,30.980392%);stroke-opacity:1;stroke-miterlimit:10;" d="M 206.21875 354.636719 C 206.21875 358.367188 203.195312 361.394531 199.464844 361.394531 C 195.734375 361.394531 192.707031 358.367188 192.707031 354.636719 C 192.707031 350.90625 195.734375 347.882812 199.464844 347.882812 C 203.195312 347.882812 206.21875 350.90625 206.21875 354.636719 "/>
<path style="fill-rule:nonzero;fill:rgb(18.431373%,30.980392%,30.980392%);fill-opacity:1;stroke-width:0.708661;stroke-linecap:round;stroke-linejoin:round;stroke:rgb(18.431373%,30.980392%,30.980392%);stroke-opacity:1;stroke-miterlimit:10;" d="M 213.269531 352.332031 C 213.269531 356.0625 210.246094 359.089844 206.511719 359.089844 C 202.78125 359.089844 199.757812 356.0625 199.757812 352.332031 C 199.757812 348.601562 202.78125 345.574219 206.511719 345.574219 C 210.246094 345.574219 213.269531 348.601562 213.269531 352.332031 "/>
<path style="fill-rule:nonzero;fill:rgb(18.431373%,30.980392%,30.980392%);fill-opacity:1;stroke-width:0.708661;stroke-linecap:round;stroke-linejoin:round;stroke:rgb(18.431373%,30.980392%,30.980392%);stroke-opacity:1;stroke-miterlimit:10;" d="M 220.320312 346.554688 C 220.320312 350.289062 217.292969 353.3125 213.5625 353.3125 C 209.832031 353.3125 206.804688 350.289062 206.804688 346.554688 C 206.804688 342.824219 209.832031 339.800781 213.5625 339.800781 C 217.292969 339.800781 220.320312 342.824219 220.320312 346.554688 "/>
<path style="fill-rule:nonzero;fill:rgb(18.431373%,30.980392%,30.980392%);fill-opacity:1;stroke-width:0.708661;stroke-linecap:round;stroke-linejoin:round;stroke:rgb(18.431373%,30.980392%,30.980392%);stroke-opacity:1;stroke-miterlimit:10;" d="M 227.367188 352.675781 C 227.367188 356.40625 224.34375 359.433594 220.613281 359.433594 C 216.878906 359.433594 213.855469 356.40625 213.855469 352.675781 C 213.855469 348.945312 216.878906 345.917969 220.613281 345.917969 C 224.34375 345.917969 227.367188 348.945312 227.367188 352.675781 "/>
<path style="fill-rule:nonzero;fill:rgb(18.431373%,30.980392%,30.980392%);fill-opacity:1;stroke-width:0.708661;stroke-linecap:round;stroke-linejoin:round;stroke:rgb(18.431373%,30.980392%,30.980392%);stroke-opacity:1;stroke-miterlimit:10;" d="M 234.417969 362.261719 C 234.417969 365.992188 231.390625 369.015625 227.660156 369.015625 C 223.929688 369.015625 220.90625 365.992188 220.90625 362.261719 C 220.90625 358.53125 223.929688 355.503906 227.660156 355.503906 C 231.390625 355.503906 234.417969 358.53125 234.417969 362.261719 "/>
<path style="fill-rule:nonzero;fill:rgb(18.431373%,30.980392%,30.980392%);fill-opacity:1;stroke-width:0.708661;stroke-linecap:round;stroke-linejoin:round;stroke:rgb(18.431373%,30.980392%,30.980392%);stroke-opacity:1;stroke-miterlimit:10;" d="M 241.464844 340.050781 C 241.464844 343.78125 238.441406 346.804688 234.710938 346.804688 C 230.980469 346.804688 227.953125 343.78125 227.953125 340.050781 C 227.953125 336.320312 230.980469 333.292969 234.710938 333.292969 C 238.441406 333.292969 241.464844 336.320312 241.464844 340.050781 "/>
<path style="fill-rule:nonzero;fill:rgb(18.431373%,30.980392%,30.980392%);fill-opacity:1;stroke-width:0.708661;stroke-linecap:round;stroke-linejoin:round;stroke:rgb(18.431373%,30.980392%,30.980392%);stroke-opacity:1;stroke-miterlimit:10;" d="M 248.515625 359.777344 C 248.515625 363.507812 245.492188 366.535156 241.757812 366.535156 C 238.027344 366.535156 235.003906 363.507812 235.003906 359.777344 C 235.003906 356.046875 238.027344 353.019531 241.757812 353.019531 C 245.492188 353.019531 248.515625 356.046875 248.515625 359.777344 "/>
<path style="fill-rule:nonzero;fill:rgb(18.431373%,30.980392%,30.980392%);fill-opacity:1;stroke-width:0.708661;stroke-linecap:round;stroke-linejoin:round;stroke:rgb(18.431373%,30.980392%,30.980392%);stroke-opacity:1;stroke-miterlimit:10;" d="M 255.566406 302.21875 C 255.566406 305.949219 252.539062 308.972656 248.808594 308.972656 C 245.078125 308.972656 242.050781 305.949219 242.050781 302.21875 C 242.050781 298.488281 245.078125 295.460938 248.808594 295.460938 C 252.539062 295.460938 255.566406 298.488281 255.566406 302.21875 "/>
<path style="fill-rule:nonzero;fill:rgb(18.431373%,30.980392%,30.980392%);fill-opacity:1;stroke-width:0.708661;stroke-linecap:round;stroke-linejoin:round;stroke:rgb(18.431373%,30.980392%,30.980392%);stroke-opacity:1;stroke-miterlimit:10;" d="M 262.613281 293.699219 C 262.613281 297.429688 259.589844 300.453125 255.859375 300.453125 C 252.125 300.453125 249.101562 297.429688 249.101562 293.699219 C 249.101562 289.964844 252.125 286.941406 255.859375 286.941406 C 259.589844 286.941406 262.613281 289.964844 262.613281 293.699219 "/>
<path style="fill-rule:nonzero;fill:rgb(18.431373%,30.980392%,30.980392%);fill-opacity:1;stroke-width:0.708661;stroke-linecap:round;stroke-linejoin:round;stroke:rgb(18.431373%,30.980392%,30.980392%);stroke-opacity:1;stroke-miterlimit:10;" d="M 269.664062 307.429688 C 269.664062 311.160156 266.636719 314.183594 262.90625 314.183594 C 259.175781 314.183594 256.152344 311.160156 256.152344 307.429688 C 256.152344 303.695312 259.175781 300.671875 262.90625 300.671875 C 266.636719 300.671875 269.664062 303.695312 269.664062 307.429688 "/>
<path style="fill-rule:nonzero;fill:rgb(18.431373%,30.980392%,30.980392%);fill-opacity:1;stroke-width:0.708661;stroke-linecap:round;stroke-linejoin:round;stroke:rgb(18.431373%,30.980392%,30.980392%);stroke-opacity:1;stroke-miterlimit:10;" d="M 276.710938 292.652344 C 276.710938 296.382812 273.6875 299.40625 269.957031 299.40625 C 266.226562 299.40625 263.199219 296.382812 263.199219 292.652344 C 263.199219 288.921875 266.226562 285.894531 269.957031 285.894531 C 273.6875 285.894531 276.710938 288.921875 276.710938 292.652344 "/>
<path style="fill-rule:nonzero;fill:rgb(18.431373%,30.980392%,30.980392%);fill-opacity:1;stroke-width:0.708661;stroke-linecap:round;stroke-linejoin:round;stroke:rgb(18.431373%,30.980392%,30.980392%);stroke-opacity:1;stroke-miterlimit:10;" d="M 283.761719 302.242188 C 283.761719 305.972656 280.738281 309 277.003906 309 C 273.273438 309 270.25 305.972656 270.25 302.242188 C 270.25 298.511719 273.273438 295.484375 277.003906 295.484375 C 280.738281 295.484375 283.761719 298.511719 283.761719 302.242188 "/>
<path style="fill-rule:nonzero;fill:rgb(18.431373%,30.980392%,30.980392%);fill-opacity:1;stroke-width:0.708661;stroke-linecap:round;stroke-linejoin:round;stroke:rgb(18.431373%,30.980392%,30.980392%);stroke-opacity:1;stroke-miterlimit:10;" d="M 290.8125 293.992188 C 290.8125 297.722656 287.785156 300.746094 284.054688 300.746094 C 280.324219 300.746094 277.296875 297.722656 277.296875 293.992188 C 277.296875 290.257812 280.324219 287.234375 284.054688 287.234375 C 287.785156 287.234375 290.8125 290.257812 290.8125 293.992188 "/>
<path style="fill-rule:nonzero;fill:rgb(18.431373%,30.980392%,30.980392%);fill-opacity:1;stroke-width:0.708661;stroke-linecap:round;stroke-linejoin:round;stroke:rgb(18.431373%,30.980392%,30.980392%);stroke-opacity:1;stroke-miterlimit:10;" d="M 297.859375 353.527344 C 297.859375 357.257812 294.835938 360.28125 291.105469 360.28125 C 287.371094 360.28125 284.347656 357.257812 284.347656 353.527344 C 284.347656 349.792969 287.371094 346.769531 291.105469 346.769531 C 294.835938 346.769531 297.859375 349.792969 297.859375 353.527344 "/>
<path style="fill-rule:nonzero;fill:rgb(18.431373%,30.980392%,30.980392%);fill-opacity:1;stroke-width:0.708661;stroke-linecap:round;stroke-linejoin:round;stroke:rgb(18.431373%,30.980392%,30.980392%);stroke-opacity:1;stroke-miterlimit:10;" d="M 304.910156 298.550781 C 304.910156 302.28125 301.882812 305.308594 298.152344 305.308594 C 294.421875 305.308594 291.398438 302.28125 291.398438 298.550781 C 291.398438 294.820312 294.421875 291.796875 298.152344 291.796875 C 301.882812 291.796875 304.910156 294.820312 304.910156 298.550781 "/>
<path style="fill-rule:nonzero;fill:rgb(18.431373%,30.980392%,30.980392%);fill-opacity:1;stroke-width:0.708661;stroke-linecap:round;stroke-linejoin:round;stroke:rgb(18.431373%,30.980392%,30.980392%);stroke-opacity:1;stroke-miterlimit:10;" d="M 311.957031 305.855469 C 311.957031 309.589844 308.933594 312.613281 305.203125 312.613281 C 301.472656 312.613281 298.445312 309.589844 298.445312 305.855469 C 298.445312 302.125 301.472656 299.101562 305.203125 299.101562 C 308.933594 299.101562 311.957031 302.125 311.957031 305.855469 "/>
<path style="fill-rule:nonzero;fill:rgb(18.431373%,30.980392%,30.980392%);fill-opacity:1;stroke-width:0.708661;stroke-linecap:round;stroke-linejoin:round;stroke:rgb(18.431373%,30.980392%,30.980392%);stroke-opacity:1;stroke-miterlimit:10;" d="M 319.007812 291.660156 C 319.007812 295.394531 315.984375 298.417969 312.25 298.417969 C 308.519531 298.417969 305.496094 295.394531 305.496094 291.660156 C 305.496094 287.929688 308.519531 284.90625 312.25 284.90625 C 315.984375 284.90625 319.007812 287.929688 319.007812 291.660156 "/>
<path style="fill-rule:nonzero;fill:rgb(18.431373%,30.980392%,30.980392%);fill-opacity:1;stroke-width:0.708661;stroke-linecap:round;stroke-linejoin:round;stroke:rgb(18.431373%,30.980392%,30.980392%);stroke-opacity:1;stroke-miterlimit:10;" d="M 326.058594 280.726562 C 326.058594 284.460938 323.03125 287.484375 319.300781 287.484375 C 315.570312 287.484375 312.542969 284.460938 312.542969 280.726562 C 312.542969 276.996094 315.570312 273.972656 319.300781 273.972656 C 323.03125 273.972656 326.058594 276.996094 326.058594 280.726562 "/>
<path style="fill-rule:nonzero;fill:rgb(18.431373%,30.980392%,30.980392%);fill-opacity:1;stroke-width:0.708661;stroke-linecap:round;stroke-linejoin:round;stroke:rgb(18.431373%,30.980392%,30.980392%);stroke-opacity:1;stroke-miterlimit:10;" d="M 333.105469 317.679688 C 333.105469 321.410156 330.082031 324.4375 326.351562 324.4375 C 322.617188 324.4375 319.59375 321.410156 319.59375 317.679688 C 319.59375 313.949219 322.617188 310.925781 326.351562 310.925781 C 330.082031 310.925781 333.105469 313.949219 333.105469 317.679688 "/>
<path style="fill-rule:nonzero;fill:rgb(18.431373%,30.980392%,30.980392%);fill-opacity:1;stroke-width:0.708661;stroke-linecap:round;stroke-linejoin:round;stroke:rgb(18.431373%,30.980392%,30.980392%);stroke-opacity:1;stroke-miterlimit:10;" d="M 340.15625 283.753906 C 340.15625 287.488281 337.128906 290.511719 333.398438 290.511719 C 329.667969 290.511719 326.644531 287.488281 326.644531 283.753906 C 326.644531 280.023438 329.667969 277 333.398438 277 C 337.128906 277 340.15625 280.023438 340.15625 283.753906 "/>
<path style="fill-rule:nonzero;fill:rgb(18.431373%,30.980392%,30.980392%);fill-opacity:1;stroke-width:0.708661;stroke-linecap:round;stroke-linejoin:round;stroke:rgb(18.431373%,30.980392%,30.980392%);stroke-opacity:1;stroke-miterlimit:10;" d="M 347.203125 284.070312 C 347.203125 287.800781 344.179688 290.828125 340.449219 290.828125 C 336.71875 290.828125 333.691406 287.800781 333.691406 284.070312 C 333.691406 280.339844 336.71875 277.3125 340.449219 277.3125 C 344.179688 277.3125 347.203125 280.339844 347.203125 284.070312 "/>
<path style="fill-rule:nonzero;fill:rgb(18.431373%,30.980392%,30.980392%);fill-opacity:1;stroke-width:0.708661;stroke-linecap:round;stroke-linejoin:round;stroke:rgb(18.431373%,30.980392%,30.980392%);stroke-opacity:1;stroke-miterlimit:10;" d="M 354.253906 253.074219 C 354.253906 256.804688 351.230469 259.828125 347.496094 259.828125 C 343.765625 259.828125 340.742188 256.804688 340.742188 253.074219 C 340.742188 249.34375 343.765625 246.316406 347.496094 246.316406 C 351.230469 246.316406 354.253906 249.34375 354.253906 253.074219 "/>
<path style="fill-rule:nonzero;fill:rgb(18.431373%,30.980392%,30.980392%);fill-opacity:1;stroke-width:0.708661;stroke-linecap:round;stroke-linejoin:round;stroke:rgb(18.431373%,30.980392%,30.980392%);stroke-opacity:1;stroke-miterlimit:10;" d="M 361.304688 241.773438 C 361.304688 245.503906 358.277344 248.53125 354.546875 248.53125 C 350.816406 248.53125 347.789062 245.503906 347.789062 241.773438 C 347.789062 238.042969 350.816406 235.015625 354.546875 235.015625 C 358.277344 235.015625 361.304688 238.042969 361.304688 241.773438 "/>
<path style="fill-rule:nonzero;fill:rgb(18.431373%,30.980392%,30.980392%);fill-opacity:1;stroke-width:0.708661;stroke-linecap:round;stroke-linejoin:round;stroke:rgb(18.431373%,30.980392%,30.980392%);stroke-opacity:1;stroke-miterlimit:10;" d="M 368.351562 253.484375 C 368.351562 257.214844 365.328125 260.242188 361.597656 260.242188 C 357.863281 260.242188 354.839844 257.214844 354.839844 253.484375 C 354.839844 249.753906 357.863281 246.730469 361.597656 246.730469 C 365.328125 246.730469 368.351562 249.753906 368.351562 253.484375 "/>
<path style="fill-rule:nonzero;fill:rgb(18.431373%,30.980392%,30.980392%);fill-opacity:1;stroke-width:0.708661;stroke-linecap:round;stroke-linejoin:round;stroke:rgb(18.431373%,30.980392%,30.980392%);stroke-opacity:1;stroke-miterlimit:10;" d="M 375.402344 274.847656 C 375.402344 278.578125 372.375 281.605469 368.644531 281.605469 C 364.914062 281.605469 361.890625 278.578125 361.890625 274.847656 C 361.890625 271.117188 364.914062 268.089844 368.644531 268.089844 C 372.375 268.089844 375.402344 271.117188 375.402344 274.847656 "/>
<path style="fill-rule:nonzero;fill:rgb(18.431373%,30.980392%,30.980392%);fill-opacity:1;stroke-width:0.708661;stroke-linecap:round;stroke-linejoin:round;stroke:rgb(18.431373%,30.980392%,30.980392%);stroke-opacity:1;stroke-miterlimit:10;" d="M 382.449219 238.082031 C 382.449219 241.8125 379.425781 244.835938 375.695312 244.835938 C 371.964844 244.835938 368.9375 241.8125 368.9375 238.082031 C 368.9375 234.347656 371.964844 231.324219 375.695312 231.324219 C 379.425781 231.324219 382.449219 234.347656 382.449219 238.082031 "/>
<path style="fill-rule:nonzero;fill:rgb(18.431373%,30.980392%,30.980392%);fill-opacity:1;stroke-width:0.708661;stroke-linecap:round;stroke-linejoin:round;stroke:rgb(18.431373%,30.980392%,30.980392%);stroke-opacity:1;stroke-miterlimit:10;" d="M 389.5 264.546875 C 389.5 268.277344 386.476562 271.300781 382.742188 271.300781 C 379.011719 271.300781 375.988281 268.277344 375.988281 264.546875 C 375.988281 260.816406 379.011719 257.789062 382.742188 257.789062 C 386.476562 257.789062 389.5 260.816406 389.5 264.546875 "/>
<path style="fill-rule:nonzero;fill:rgb(18.431373%,30.980392%,30.980392%);fill-opacity:1;stroke-width:0.708661;stroke-linecap:round;stroke-linejoin:round;stroke:rgb(18.431373%,30.980392%,30.980392%);stroke-opacity:1;stroke-miterlimit:10;" d="M 396.550781 241.773438 C 396.550781 245.503906 393.523438 248.53125 389.792969 248.53125 C 386.0625 248.53125 383.035156 245.503906 383.035156 241.773438 C 383.035156 238.042969 386.0625 235.019531 389.792969 235.019531 C 393.523438 235.019531 396.550781 238.042969 396.550781 241.773438 "/>
<path style="fill-rule:nonzero;fill:rgb(18.431373%,30.980392%,30.980392%);fill-opacity:1;stroke-width:0.708661;stroke-linecap:round;stroke-linejoin:round;stroke:rgb(18.431373%,30.980392%,30.980392%);stroke-opacity:1;stroke-miterlimit:10;" d="M 403.597656 259.882812 C 403.597656 263.613281 400.574219 266.636719 396.84375 266.636719 C 393.109375 266.636719 390.085938 263.613281 390.085938 259.882812 C 390.085938 256.148438 393.109375 253.125 396.84375 253.125 C 400.574219 253.125 403.597656 256.148438 403.597656 259.882812 "/>
<path style="fill-rule:nonzero;fill:rgb(18.431373%,30.980392%,30.980392%);fill-opacity:1;stroke-width:0.708661;stroke-linecap:round;stroke-linejoin:round;stroke:rgb(18.431373%,30.980392%,30.980392%);stroke-opacity:1;stroke-miterlimit:10;" d="M 410.648438 262.761719 C 410.648438 266.492188 407.621094 269.515625 403.890625 269.515625 C 400.160156 269.515625 397.136719 266.492188 397.136719 262.761719 C 397.136719 259.027344 400.160156 256.003906 403.890625 256.003906 C 407.621094 256.003906 410.648438 259.027344 410.648438 262.761719 "/>
<path style="fill-rule:nonzero;fill:rgb(18.431373%,30.980392%,30.980392%);fill-opacity:1;stroke-width:0.708661;stroke-linecap:round;stroke-linejoin:round;stroke:rgb(18.431373%,30.980392%,30.980392%);stroke-opacity:1;stroke-miterlimit:10;" d="M 417.695312 221.308594 C 417.695312 225.039062 414.671875 228.0625 410.941406 228.0625 C 407.210938 228.0625 404.183594 225.039062 404.183594 221.308594 C 404.183594 217.574219 407.210938 214.550781 410.941406 214.550781 C 414.671875 214.550781 417.695312 217.574219 417.695312 221.308594 "/>
<path style="fill-rule:nonzero;fill:rgb(18.431373%,30.980392%,30.980392%);fill-opacity:1;stroke-width:0.708661;stroke-linecap:round;stroke-linejoin:round;stroke:rgb(18.431373%,30.980392%,30.980392%);stroke-opacity:1;stroke-miterlimit:10;" d="M 424.746094 231.597656 C 424.746094 235.332031 421.722656 238.355469 417.988281 238.355469 C 414.257812 238.355469 411.234375 235.332031 411.234375 231.597656 C 411.234375 227.867188 414.257812 224.84375 417.988281 224.84375 C 421.722656 224.84375 424.746094 227.867188 424.746094 231.597656 "/>
<path style="fill-rule:nonzero;fill:rgb(18.431373%,30.980392%,30.980392%);fill-opacity:1;stroke-width:0.708661;stroke-linecap:round;stroke-linejoin:round;stroke:rgb(18.431373%,30.980392%,30.980392%);stroke-opacity:1;stroke-miterlimit:10;" d="M 431.796875 240.386719 C 431.796875 244.121094 428.769531 247.144531 425.039062 247.144531 C 421.308594 247.144531 418.28125 244.121094 418.28125 240.386719 C 418.28125 236.65625 421.308594 233.632812 425.039062 233.632812 C 428.769531 233.632812 431.796875 236.65625 431.796875 240.386719 "/>
<path style="fill-rule:nonzero;fill:rgb(18.431373%,30.980392%,30.980392%);fill-opacity:1;stroke-width:0.708661;stroke-linecap:round;stroke-linejoin:round;stroke:rgb(18.431373%,30.980392%,30.980392%);stroke-opacity:1;stroke-miterlimit:10;" d="M 438.84375 227.800781 C 438.84375 231.53125 435.820312 234.554688 432.089844 234.554688 C 428.355469 234.554688 425.332031 231.53125 425.332031 227.800781 C 425.332031 224.066406 428.355469 221.042969 432.089844 221.042969 C 435.820312 221.042969 438.84375 224.066406 438.84375 227.800781 "/>
<path style="fill-rule:nonzero;fill:rgb(18.431373%,30.980392%,30.980392%);fill-opacity:1;stroke-width:0.708661;stroke-linecap:round;stroke-linejoin:round;stroke:rgb(18.431373%,30.980392%,30.980392%);stroke-opacity:1;stroke-miterlimit:10;" d="M 445.894531 224.648438 C 445.894531 228.378906 442.867188 231.40625 439.136719 231.40625 C 435.40625 231.40625 432.382812 228.378906 432.382812 224.648438 C 432.382812 220.917969 435.40625 217.890625 439.136719 217.890625 C 442.867188 217.890625 445.894531 220.917969 445.894531 224.648438 "/>
<path style="fill-rule:nonzero;fill:rgb(18.431373%,30.980392%,30.980392%);fill-opacity:1;stroke-width:0.708661;stroke-linecap:round;stroke-linejoin:round;stroke:rgb(18.431373%,30.980392%,30.980392%);stroke-opacity:1;stroke-miterlimit:10;" d="M 452.941406 202.054688 C 452.941406 205.785156 449.917969 208.808594 446.1875 208.808594 C 442.457031 208.808594 439.429688 205.785156 439.429688 202.054688 C 439.429688 198.324219 442.457031 195.296875 446.1875 195.296875 C 449.917969 195.296875 452.941406 198.324219 452.941406 202.054688 "/>
<path style="fill-rule:nonzero;fill:rgb(18.431373%,30.980392%,30.980392%);fill-opacity:1;stroke-width:0.708661;stroke-linecap:round;stroke-linejoin:round;stroke:rgb(18.431373%,30.980392%,30.980392%);stroke-opacity:1;stroke-miterlimit:10;" d="M 459.992188 191.519531 C 459.992188 195.25 456.96875 198.273438 453.234375 198.273438 C 449.503906 198.273438 446.480469 195.25 446.480469 191.519531 C 446.480469 187.785156 449.503906 184.761719 453.234375 184.761719 C 456.96875 184.761719 459.992188 187.785156 459.992188 191.519531 "/>
<path style="fill-rule:nonzero;fill:rgb(18.431373%,30.980392%,30.980392%);fill-opacity:1;stroke-width:0.708661;stroke-linecap:round;stroke-linejoin:round;stroke:rgb(18.431373%,30.980392%,30.980392%);stroke-opacity:1;stroke-miterlimit:10;" d="M 467.042969 199.285156 C 467.042969 203.015625 464.015625 206.039062 460.285156 206.039062 C 456.554688 206.039062 453.527344 203.015625 453.527344 199.285156 C 453.527344 195.554688 456.554688 192.527344 460.285156 192.527344 C 464.015625 192.527344 467.042969 195.554688 467.042969 199.285156 "/>
<path style="fill-rule:nonzero;fill:rgb(18.431373%,30.980392%,30.980392%);fill-opacity:1;stroke-width:0.708661;stroke-linecap:round;stroke-linejoin:round;stroke:rgb(18.431373%,30.980392%,30.980392%);stroke-opacity:1;stroke-miterlimit:10;" d="M 474.089844 182.5 C 474.089844 186.230469 471.066406 189.257812 467.335938 189.257812 C 463.601562 189.257812 460.578125 186.230469 460.578125 182.5 C 460.578125 178.769531 463.601562 175.742188 467.335938 175.742188 C 471.066406 175.742188 474.089844 178.769531 474.089844 182.5 "/>
<path style="fill-rule:nonzero;fill:rgb(18.431373%,30.980392%,30.980392%);fill-opacity:1;stroke-width:0.708661;stroke-linecap:round;stroke-linejoin:round;stroke:rgb(18.431373%,30.980392%,30.980392%);stroke-opacity:1;stroke-miterlimit:10;" d="M 481.140625 210.152344 C 481.140625 213.882812 478.113281 216.910156 474.382812 216.910156 C 470.652344 216.910156 467.628906 213.882812 467.628906 210.152344 C 467.628906 206.421875 470.652344 203.394531 474.382812 203.394531 C 478.113281 203.394531 481.140625 206.421875 481.140625 210.152344 "/>
<path style="fill-rule:nonzero;fill:rgb(18.431373%,30.980392%,30.980392%);fill-opacity:1;stroke-width:0.708661;stroke-linecap:round;stroke-linejoin:round;stroke:rgb(18.431373%,30.980392%,30.980392%);stroke-opacity:1;stroke-miterlimit:10;" d="M 488.1875 193.863281 C 488.1875 197.59375 485.164062 200.617188 481.433594 200.617188 C 477.703125 200.617188 474.675781 197.59375 474.675781 193.863281 C 474.675781 190.132812 477.703125 187.105469 481.433594 187.105469 C 485.164062 187.105469 488.1875 190.132812 488.1875 193.863281 "/>
<path style="fill-rule:nonzero;fill:rgb(18.431373%,30.980392%,30.980392%);fill-opacity:1;stroke-width:0.708661;stroke-linecap:round;stroke-linejoin:round;stroke:rgb(18.431373%,30.980392%,30.980392%);stroke-opacity:1;stroke-miterlimit:10;" d="M 495.238281 171.617188 C 495.238281 175.347656 492.214844 178.375 488.480469 178.375 C 484.75 178.375 481.726562 175.347656 481.726562 171.617188 C 481.726562 167.886719 484.75 164.863281 488.480469 164.863281 C 492.214844 164.863281 495.238281 167.886719 495.238281 171.617188 "/>
<path style="fill-rule:nonzero;fill:rgb(18.431373%,30.980392%,30.980392%);fill-opacity:1;stroke-width:0.708661;stroke-linecap:round;stroke-linejoin:round;stroke:rgb(18.431373%,30.980392%,30.980392%);stroke-opacity:1;stroke-miterlimit:10;" d="M 502.289062 153.105469 C 502.289062 156.839844 499.261719 159.863281 495.53125 159.863281 C 491.800781 159.863281 488.773438 156.839844 488.773438 153.105469 C 488.773438 149.375 491.800781 146.351562 495.53125 146.351562 C 499.261719 146.351562 502.289062 149.375 502.289062 153.105469 "/>
<path style="fill-rule:nonzero;fill:rgb(18.431373%,30.980392%,30.980392%);fill-opacity:1;stroke-width:0.708661;stroke-linecap:round;stroke-linejoin:round;stroke:rgb(18.431373%,30.980392%,30.980392%);stroke-opacity:1;stroke-miterlimit:10;" d="M 509.335938 173.582031 C 509.335938 177.3125 506.3125 180.335938 502.582031 180.335938 C 498.847656 180.335938 495.824219 177.3125 495.824219 173.582031 C 495.824219 169.847656 498.847656 166.824219 502.582031 166.824219 C 506.3125 166.824219 509.335938 169.847656 509.335938 173.582031 "/>
<path style="fill-rule:nonzero;fill:rgb(18.431373%,30.980392%,30.980392%);fill-opacity:1;stroke-width:0.708661;stroke-linecap:round;stroke-linejoin:round;stroke:rgb(18.431373%,30.980392%,30.980392%);stroke-opacity:1;stroke-miterlimit:10;" d="M 516.386719 160.605469 C 516.386719 164.335938 513.359375 167.363281 509.628906 167.363281 C 505.898438 167.363281 502.875 164.335938 502.875 160.605469 C 502.875 156.875 505.898438 153.851562 509.628906 153.851562 C 513.359375 153.851562 516.386719 156.875 516.386719 160.605469 "/>
<path style="fill-rule:nonzero;fill:rgb(18.431373%,30.980392%,30.980392%);fill-opacity:1;stroke-width:0.708661;stroke-linecap:round;stroke-linejoin:round;stroke:rgb(18.431373%,30.980392%,30.980392%);stroke-opacity:1;stroke-miterlimit:10;" d="M 523.433594 236.488281 C 523.433594 240.222656 520.410156 243.246094 516.679688 243.246094 C 512.949219 243.246094 509.921875 240.222656 509.921875 236.488281 C 509.921875 232.757812 512.949219 229.734375 516.679688 229.734375 C 520.410156 229.734375 523.433594 232.757812 523.433594 236.488281 "/>
<path style="fill-rule:nonzero;fill:rgb(18.431373%,30.980392%,30.980392%);fill-opacity:1;stroke-width:0.708661;stroke-linecap:round;stroke-linejoin:round;stroke:rgb(18.431373%,30.980392%,30.980392%);stroke-opacity:1;stroke-miterlimit:10;" d="M 530.484375 140.121094 C 530.484375 143.851562 527.460938 146.878906 523.726562 146.878906 C 519.996094 146.878906 516.972656 143.851562 516.972656 140.121094 C 516.972656 136.390625 519.996094 133.363281 523.726562 133.363281 C 527.460938 133.363281 530.484375 136.390625 530.484375 140.121094 "/>
<path style="fill-rule:nonzero;fill:rgb(18.431373%,30.980392%,30.980392%);fill-opacity:1;stroke-width:0.708661;stroke-linecap:round;stroke-linejoin:round;stroke:rgb(18.431373%,30.980392%,30.980392%);stroke-opacity:1;stroke-miterlimit:10;" d="M 537.535156 130.214844 C 537.535156 133.945312 534.507812 136.972656 530.777344 136.972656 C 527.046875 136.972656 524.019531 133.945312 524.019531 130.214844 C 524.019531 126.484375 527.046875 123.457031 530.777344 123.457031 C 534.507812 123.457031 537.535156 126.484375 537.535156 130.214844 "/>
<path style="fill-rule:nonzero;fill:rgb(18.431373%,30.980392%,30.980392%);fill-opacity:1;stroke-width:0.708661;stroke-linecap:round;stroke-linejoin:round;stroke:rgb(18.431373%,30.980392%,30.980392%);stroke-opacity:1;stroke-miterlimit:10;" d="M 544.582031 163.132812 C 544.582031 166.867188 541.558594 169.890625 537.828125 169.890625 C 534.09375 169.890625 531.070312 166.867188 531.070312 163.132812 C 531.070312 159.402344 534.09375 156.378906 537.828125 156.378906 C 541.558594 156.378906 544.582031 159.402344 544.582031 163.132812 "/>
<path style="fill-rule:nonzero;fill:rgb(18.431373%,30.980392%,30.980392%);fill-opacity:1;stroke-width:0.708661;stroke-linecap:round;stroke-linejoin:round;stroke:rgb(18.431373%,30.980392%,30.980392%);stroke-opacity:1;stroke-miterlimit:10;" d="M 551.632812 136.894531 C 551.632812 140.625 548.605469 143.648438 544.875 143.648438 C 541.144531 143.648438 538.121094 140.625 538.121094 136.894531 C 538.121094 133.164062 541.144531 130.136719 544.875 130.136719 C 548.605469 130.136719 551.632812 133.164062 551.632812 136.894531 "/>
<path style="fill-rule:nonzero;fill:rgb(18.431373%,30.980392%,30.980392%);fill-opacity:1;stroke-width:0.708661;stroke-linecap:round;stroke-linejoin:round;stroke:rgb(18.431373%,30.980392%,30.980392%);stroke-opacity:1;stroke-miterlimit:10;" d="M 558.679688 139.332031 C 558.679688 143.0625 555.65625 146.089844 551.925781 146.089844 C 548.195312 146.089844 545.167969 143.0625 545.167969 139.332031 C 545.167969 135.601562 548.195312 132.578125 551.925781 132.578125 C 555.65625 132.578125 558.679688 135.601562 558.679688 139.332031 "/>
<path style="fill-rule:nonzero;fill:rgb(18.431373%,30.980392%,30.980392%);fill-opacity:1;stroke-width:0.708661;stroke-linecap:round;stroke-linejoin:round;stroke:rgb(18.431373%,30.980392%,30.980392%);stroke-opacity:1;stroke-miterlimit:10;" d="M 565.730469 111.921875 C 565.730469 115.65625 562.707031 118.679688 558.972656 118.679688 C 555.242188 118.679688 552.21875 115.65625 552.21875 111.921875 C 552.21875 108.191406 555.242188 105.167969 558.972656 105.167969 C 562.707031 105.167969 565.730469 108.191406 565.730469 111.921875 "/>
<path style="fill-rule:nonzero;fill:rgb(18.431373%,30.980392%,30.980392%);fill-opacity:1;stroke-width:0.708661;stroke-linecap:round;stroke-linejoin:round;stroke:rgb(18.431373%,30.980392%,30.980392%);stroke-opacity:1;stroke-miterlimit:10;" d="M 572.78125 124.929688 C 572.78125 128.660156 569.753906 131.683594 566.023438 131.683594 C 562.292969 131.683594 559.265625 128.660156 559.265625 124.929688 C 559.265625 121.199219 562.292969 118.171875 566.023438 118.171875 C 569.753906 118.171875 572.78125 121.199219 572.78125 124.929688 "/>
<path style="fill-rule:nonzero;fill:rgb(18.431373%,30.980392%,30.980392%);fill-opacity:1;stroke-width:0.708661;stroke-linecap:round;stroke-linejoin:round;stroke:rgb(18.431373%,30.980392%,30.980392%);stroke-opacity:1;stroke-miterlimit:10;" d="M 579.828125 135.628906 C 579.828125 139.359375 576.804688 142.382812 573.074219 142.382812 C 569.339844 142.382812 566.316406 139.359375 566.316406 135.628906 C 566.316406 131.898438 569.339844 128.871094 573.074219 128.871094 C 576.804688 128.871094 579.828125 131.898438 579.828125 135.628906 "/>
<path style="fill-rule:nonzero;fill:rgb(18.431373%,30.980392%,30.980392%);fill-opacity:1;stroke-width:0.708661;stroke-linecap:round;stroke-linejoin:round;stroke:rgb(18.431373%,30.980392%,30.980392%);stroke-opacity:1;stroke-miterlimit:10;" d="M 586.878906 113.515625 C 586.878906 117.25 583.851562 120.273438 580.121094 120.273438 C 576.390625 120.273438 573.367188 117.25 573.367188 113.515625 C 573.367188 109.785156 576.390625 106.761719 580.121094 106.761719 C 583.851562 106.761719 586.878906 109.785156 586.878906 113.515625 "/>
<path style="fill-rule:nonzero;fill:rgb(18.431373%,30.980392%,30.980392%);fill-opacity:1;stroke-width:0.708661;stroke-linecap:round;stroke-linejoin:round;stroke:rgb(18.431373%,30.980392%,30.980392%);stroke-opacity:1;stroke-miterlimit:10;" d="M 593.925781 106.976562 C 593.925781 110.707031 590.902344 113.730469 587.171875 113.730469 C 583.441406 113.730469 580.414062 110.707031 580.414062 106.976562 C 580.414062 103.246094 583.441406 100.21875 587.171875 100.21875 C 590.902344 100.21875 593.925781 103.246094 593.925781 106.976562 "/>
<path style="fill-rule:nonzero;fill:rgb(18.431373%,30.980392%,30.980392%);fill-opacity:1;stroke-width:0.708661;stroke-linecap:round;stroke-linejoin:round;stroke:rgb(18.431373%,30.980392%,30.980392%);stroke-opacity:1;stroke-miterlimit:10;" d="M 600.976562 115.3125 C 600.976562 119.042969 597.953125 122.070312 594.21875 122.070312 C 590.488281 122.070312 587.464844 119.042969 587.464844 115.3125 C 587.464844 111.582031 590.488281 108.558594 594.21875 108.558594 C 597.953125 108.558594 600.976562 111.582031 600.976562 115.3125 "/>
<path style="fill-rule:nonzero;fill:rgb(18.431373%,30.980392%,30.980392%);fill-opacity:1;stroke-width:0.708661;stroke-linecap:round;stroke-linejoin:round;stroke:rgb(18.431373%,30.980392%,30.980392%);stroke-opacity:1;stroke-miterlimit:10;" d="M 608.027344 140.519531 C 608.027344 144.25 605 147.273438 601.269531 147.273438 C 597.539062 147.273438 594.511719 144.25 594.511719 140.519531 C 594.511719 136.789062 597.539062 133.761719 601.269531 133.761719 C 605 133.761719 608.027344 136.789062 608.027344 140.519531 "/>
<path style="fill-rule:nonzero;fill:rgb(18.431373%,30.980392%,30.980392%);fill-opacity:1;stroke-width:0.708661;stroke-linecap:round;stroke-linejoin:round;stroke:rgb(18.431373%,30.980392%,30.980392%);stroke-opacity:1;stroke-miterlimit:10;" d="M 615.074219 126.558594 C 615.074219 130.292969 612.050781 133.316406 608.320312 133.316406 C 604.585938 133.316406 601.5625 130.292969 601.5625 126.558594 C 601.5625 122.828125 604.585938 119.804688 608.320312 119.804688 C 612.050781 119.804688 615.074219 122.828125 615.074219 126.558594 "/>
<path style="fill-rule:nonzero;fill:rgb(18.431373%,30.980392%,30.980392%);fill-opacity:1;stroke-width:0.708661;stroke-linecap:round;stroke-linejoin:round;stroke:rgb(18.431373%,30.980392%,30.980392%);stroke-opacity:1;stroke-miterlimit:10;" d="M 622.125 101.996094 C 622.125 105.726562 619.097656 108.75 615.367188 108.75 C 611.636719 108.75 608.613281 105.726562 608.613281 101.996094 C 608.613281 98.265625 611.636719 95.238281 615.367188 95.238281 C 619.097656 95.238281 622.125 98.265625 622.125 101.996094 "/>
<path style="fill-rule:nonzero;fill:rgb(18.431373%,30.980392%,30.980392%);fill-opacity:1;stroke-width:0.708661;stroke-linecap:round;stroke-linejoin:round;stroke:rgb(18.431373%,30.980392%,30.980392%);stroke-opacity:1;stroke-miterlimit:10;" d="M 629.171875 117.320312 C 629.171875 121.050781 626.148438 124.078125 622.417969 124.078125 C 618.6875 124.078125 615.660156 121.050781 615.660156 117.320312 C 615.660156 113.589844 618.6875 110.5625 622.417969 110.5625 C 626.148438 110.5625 629.171875 113.589844 629.171875 117.320312 "/>
<path style="fill-rule:nonzero;fill:rgb(18.431373%,30.980392%,30.980392%);fill-opacity:1;stroke-width:0.708661;stroke-linecap:round;stroke-linejoin:round;stroke:rgb(18.431373%,30.980392%,30.980392%);stroke-opacity:1;stroke-miterlimit:10;" d="M 636.222656 91.609375 C 636.222656 95.339844 633.199219 98.367188 629.464844 98.367188 C 625.734375 98.367188 622.710938 95.339844 622.710938 91.609375 C 622.710938 87.878906 625.734375 84.855469 629.464844 84.855469 C 633.199219 84.855469 636.222656 87.878906 636.222656 91.609375 "/>
<path style="fill-rule:nonzero;fill:rgb(18.431373%,30.980392%,30.980392%);fill-opacity:1;stroke-width:0.708661;stroke-linecap:round;stroke-linejoin:round;stroke:rgb(18.431373%,30.980392%,30.980392%);stroke-opacity:1;stroke-miterlimit:10;" d="M 643.273438 113.511719 C 643.273438 117.242188 640.246094 120.265625 636.515625 120.265625 C 632.785156 120.265625 629.757812 117.242188 629.757812 113.511719 C 629.757812 109.777344 632.785156 106.753906 636.515625 106.753906 C 640.246094 106.753906 643.273438 109.777344 643.273438 113.511719 "/>
<path style="fill-rule:nonzero;fill:rgb(18.431373%,30.980392%,30.980392%);fill-opacity:1;stroke-width:0.708661;stroke-linecap:round;stroke-linejoin:round;stroke:rgb(18.431373%,30.980392%,30.980392%);stroke-opacity:1;stroke-miterlimit:10;" d="M 650.320312 122.777344 C 650.320312 126.507812 647.296875 129.53125 643.566406 129.53125 C 639.832031 129.53125 636.808594 126.507812 636.808594 122.777344 C 636.808594 119.046875 639.832031 116.019531 643.566406 116.019531 C 647.296875 116.019531 650.320312 119.046875 650.320312 122.777344 "/>
<path style="fill-rule:nonzero;fill:rgb(18.431373%,30.980392%,30.980392%);fill-opacity:1;stroke-width:0.708661;stroke-linecap:round;stroke-linejoin:round;stroke:rgb(18.431373%,30.980392%,30.980392%);stroke-opacity:1;stroke-miterlimit:10;" d="M 657.371094 76.566406 C 657.371094 80.300781 654.34375 83.324219 650.613281 83.324219 C 646.882812 83.324219 643.859375 80.300781 643.859375 76.566406 C 643.859375 72.835938 646.882812 69.8125 650.613281 69.8125 C 654.34375 69.8125 657.371094 72.835938 657.371094 76.566406 "/>
<path style="fill-rule:nonzero;fill:rgb(18.431373%,30.980392%,30.980392%);fill-opacity:1;stroke-width:0.708661;stroke-linecap:round;stroke-linejoin:round;stroke:rgb(18.431373%,30.980392%,30.980392%);stroke-opacity:1;stroke-miterlimit:10;" d="M 664.417969 74.265625 C 664.417969 77.996094 661.394531 81.019531 657.664062 81.019531 C 653.933594 81.019531 650.90625 77.996094 650.90625 74.265625 C 650.90625 70.535156 653.933594 67.507812 657.664062 67.507812 C 661.394531 67.507812 664.417969 70.535156 664.417969 74.265625 "/>
<path style="fill-rule:nonzero;fill:rgb(18.431373%,30.980392%,30.980392%);fill-opacity:1;stroke-width:0.708661;stroke-linecap:round;stroke-linejoin:round;stroke:rgb(18.431373%,30.980392%,30.980392%);stroke-opacity:1;stroke-miterlimit:10;" d="M 671.46875 70.269531 C 671.46875 74 668.445312 77.023438 664.710938 77.023438 C 660.980469 77.023438 657.957031 74 657.957031 70.269531 C 657.957031 66.535156 660.980469 63.511719 664.710938 63.511719 C 668.445312 63.511719 671.46875 66.535156 671.46875 70.269531 "/>
<path style="fill-rule:nonzero;fill:rgb(18.431373%,30.980392%,30.980392%);fill-opacity:1;stroke-width:0.708661;stroke-linecap:round;stroke-linejoin:round;stroke:rgb(18.431373%,30.980392%,30.980392%);stroke-opacity:1;stroke-miterlimit:10;" d="M 678.519531 78.882812 C 678.519531 82.613281 675.492188 85.640625 671.761719 85.640625 C 668.03125 85.640625 665.003906 82.613281 665.003906 78.882812 C 665.003906 75.152344 668.03125 72.125 671.761719 72.125 C 675.492188 72.125 678.519531 75.152344 678.519531 78.882812 "/>
<path style="fill-rule:nonzero;fill:rgb(18.431373%,30.980392%,30.980392%);fill-opacity:1;stroke-width:0.708661;stroke-linecap:round;stroke-linejoin:round;stroke:rgb(18.431373%,30.980392%,30.980392%);stroke-opacity:1;stroke-miterlimit:10;" d="M 685.566406 37.453125 C 685.566406 41.183594 682.542969 44.207031 678.8125 44.207031 C 675.078125 44.207031 672.054688 41.183594 672.054688 37.453125 C 672.054688 33.722656 675.078125 30.695312 678.8125 30.695312 C 682.542969 30.695312 685.566406 33.722656 685.566406 37.453125 "/>
<path style="fill-rule:nonzero;fill:rgb(18.431373%,30.980392%,30.980392%);fill-opacity:1;stroke-width:0.708661;stroke-linecap:round;stroke-linejoin:round;stroke:rgb(18.431373%,30.980392%,30.980392%);stroke-opacity:1;stroke-miterlimit:10;" d="M 692.617188 52.378906 C 692.617188 56.109375 689.589844 59.136719 685.859375 59.136719 C 682.128906 59.136719 679.105469 56.109375 679.105469 52.378906 C 679.105469 48.648438 682.128906 45.621094 685.859375 45.621094 C 689.589844 45.621094 692.617188 48.648438 692.617188 52.378906 "/>
<path style="fill-rule:nonzero;fill:rgb(18.431373%,30.980392%,30.980392%);fill-opacity:1;stroke-width:0.708661;stroke-linecap:round;stroke-linejoin:round;stroke:rgb(18.431373%,30.980392%,30.980392%);stroke-opacity:1;stroke-miterlimit:10;" d="M 699.664062 60.691406 C 699.664062 64.421875 696.640625 67.445312 692.910156 67.445312 C 689.179688 67.445312 686.152344 64.421875 686.152344 60.691406 C 686.152344 56.957031 689.179688 53.933594 692.910156 53.933594 C 696.640625 53.933594 699.664062 56.957031 699.664062 60.691406 "/>
<path style="fill-rule:nonzero;fill:rgb(18.431373%,30.980392%,30.980392%);fill-opacity:1;stroke-width:0.708661;stroke-linecap:round;stroke-linejoin:round;stroke:rgb(18.431373%,30.980392%,30.980392%);stroke-opacity:1;stroke-miterlimit:10;" d="M 706.714844 52.265625 C 706.714844 55.996094 703.691406 59.023438 699.957031 59.023438 C 696.226562 59.023438 693.203125 55.996094 693.203125 52.265625 C 693.203125 48.535156 696.226562 45.511719 699.957031 45.511719 C 703.691406 45.511719 706.714844 48.535156 706.714844 52.265625 "/>
<path style="fill-rule:nonzero;fill:rgb(18.431373%,30.980392%,30.980392%);fill-opacity:1;stroke-width:0.708661;stroke-linecap:round;stroke-linejoin:round;stroke:rgb(18.431373%,30.980392%,30.980392%);stroke-opacity:1;stroke-miterlimit:10;" d="M 713.765625 23.4375 C 713.765625 27.171875 710.738281 30.195312 707.007812 30.195312 C 703.277344 30.195312 700.25 27.171875 700.25 23.4375 C 700.25 19.707031 703.277344 16.683594 707.007812 16.683594 C 710.738281 16.683594 713.765625 19.707031 713.765625 23.4375 "/>
<path style="fill-rule:nonzero;fill:rgb(18.431373%,30.980392%,30.980392%);fill-opacity:1;stroke-width:0.708661;stroke-linecap:round;stroke-linejoin:round;stroke:rgb(18.431373%,30.980392%,30.980392%);stroke-opacity:1;stroke-miterlimit:10;" d="M 720.8125 44.992188 C 720.8125 48.722656 717.789062 51.746094 714.058594 51.746094 C 710.324219 51.746094 707.300781 48.722656 707.300781 44.992188 C 707.300781 41.261719 710.324219 38.234375 714.058594 38.234375 C 717.789062 38.234375 720.8125 41.261719 720.8125 44.992188 "/>
<path style="fill-rule:nonzero;fill:rgb(18.431373%,30.980392%,30.980392%);fill-opacity:1;stroke-width:0.708661;stroke-linecap:round;stroke-linejoin:round;stroke:rgb(18.431373%,30.980392%,30.980392%);stroke-opacity:1;stroke-miterlimit:10;" d="M 727.863281 27.550781 C 727.863281 31.285156 724.835938 34.308594 721.105469 34.308594 C 717.375 34.308594 714.351562 31.285156 714.351562 27.550781 C 714.351562 23.820312 717.375 20.796875 721.105469 20.796875 C 724.835938 20.796875 727.863281 23.820312 727.863281 27.550781 "/>
<path style="fill:none;stroke-width:6.40187;stroke-linecap:butt;stroke-linejoin:round;stroke:rgb(94.117647%,50.196078%,50.196078%);stroke-opacity:1;stroke-miterlimit:10;" d="M 23.234375 475.445312 L 32.066406 469.894531 L 40.902344 464.34375 L 49.734375 458.792969 L 58.570312 453.242188 L 67.402344 447.695312 L 76.238281 442.144531 L 93.902344 431.042969 L 102.738281 425.492188 L 111.570312 419.945312 L 120.40625 414.394531 L 129.238281 408.84375 L 138.074219 403.292969 L 146.90625 397.742188 L 155.742188 392.195312 L 164.574219 386.644531 L 173.410156 381.09375 L 182.242188 375.542969 L 191.078125 369.992188 L 199.910156 364.445312 L 208.742188 358.894531 L 217.578125 353.34375 L 226.410156 347.792969 L 235.246094 342.242188 L 244.078125 336.695312 L 252.914062 331.144531 L 261.746094 325.59375 L 270.582031 320.042969 L 279.414062 314.492188 L 288.25 308.945312 L 297.082031 303.394531 L 305.917969 297.84375 L 323.582031 286.742188 L 332.417969 281.191406 L 341.25 275.644531 L 350.085938 270.09375 L 358.917969 264.542969 L 367.753906 258.992188 L 376.585938 253.441406 L 385.421875 247.894531 L 394.253906 242.34375 L 403.089844 236.792969 L 411.921875 231.242188 L 420.757812 225.691406 L 429.589844 220.144531 L 438.421875 214.59375 L 447.257812 209.042969 L 456.089844 203.492188 L 464.925781 197.941406 L 473.757812 192.394531 L 482.59375 186.84375 L 491.425781 181.292969 L 500.261719 175.742188 L 509.09375 170.191406 L 517.929688 164.644531 L 526.761719 159.09375 L 535.597656 153.542969 L 553.261719 142.441406 L 562.097656 136.894531 L 570.929688 131.34375 L 579.765625 125.792969 L 588.597656 120.242188 L 597.433594 114.691406 L 606.265625 109.144531 L 615.101562 103.59375 L 623.933594 98.042969 L 632.769531 92.492188 L 641.601562 86.941406 L 650.4375 81.394531 L 668.101562 70.292969 L 676.9375 64.742188 L 685.769531 59.191406 L 694.605469 53.644531 L 703.4375 48.09375 L 712.273438 42.542969 L 721.105469 36.992188 "/>
</g>
</svg>
