<?xml version="1.0" encoding="UTF-8"?>
<svg xmlns="http://www.w3.org/2000/svg" xmlns:xlink="http://www.w3.org/1999/xlink" width="756pt" height="504pt" viewBox="0 0 756 504" version="1.1">
<g id="surface29">
<rect x="0" y="0" width="756" height="504" style="fill:rgb(100%,100%,100%);fill-opacity:1;stroke:none;"/>
<path style="fill-rule:nonzero;fill:rgb(18.431373%,30.980392%,30.980392%);fill-opacity:1;stroke-width:0.708661;stroke-linecap:round;stroke-linejoin:round;stroke:rgb(18.431373%,30.980392%,30.980392%);stroke-opacity:1;stroke-miterlimit:10;" d="M 29.988281 482.050781 C 29.988281 485.785156 26.964844 488.808594 23.234375 488.808594 C 19.503906 488.808594 16.476562 485.785156 16.476562 482.050781 C 16.476562 478.320312 19.503906 475.296875 23.234375 475.296875 C 26.964844 475.296875 29.988281 478.320312 29.988281 482.050781 "/>
<path style="fill-rule:nonzero;fill:rgb(18.431373%,30.980392%,30.980392%);fill-opacity:1;stroke-width:0.708661;stroke-linecap:round;stroke-linejoin:round;stroke:rgb(18.431373%,30.980392%,30.980392%);stroke-opacity:1;stroke-miterlimit:10;" d="M 37.039062 399.597656 C 37.039062 403.328125 34.015625 406.351562 30.28125 406.351562 C 26.550781 406.351562 23.527344 403.328125 23.527344 399.597656 C 23.527344 395.863281 26.550781 392.839844 30.28125 392.839844 C 34.015625 392.839844 37.039062 395.863281 37.039062 399.597656 "/>
<path style="fill-rule:nonzero;fill:rgb(18.431373%,30.980392%,30.980392%);fill-opacity:1;stroke-width:0.708661;stroke-linecap:round;stroke-linejoin:round;stroke:rgb(18.431373%,30.980392%,30.980392%);stroke-opacity:1;stroke-miterlimit:10;" d="M 44.089844 492.222656 C 44.089844 495.953125 41.0625 498.976562 37.332031 498.976562 C 33.601562 498.976562 30.574219 495.953125 30.574219 492.222656 C 30.574219 488.488281 33.601562 485.464844 37.332031 485.464844 C 41.0625 485.464844 44.089844 488.488281 44.089844 492.222656 "/>
<path style="fill-rule:nonzero;fill:rgb(18.431373%,30.980392%,30.980392%);fill-opacity:1;stroke-width:0.708661;stroke-linecap:round;stroke-linejoin:round;stroke:rgb(18.431373%,30.980392%,30.980392%);stroke-opacity:1;stroke-miterlimit:10;" d="M 51.136719 462.414062 C 51.136719 466.144531 48.113281 469.167969 44.382812 469.167969 C 40.648438 469.167969 37.625 466.144531 37.625 462.414062 C 37.625 458.683594 40.648438 455.65625 44.382812 455.65625 C 48.113281 455.65625 51.136719 458.683594 51.136719 462.414062 "/>
<path style="fill-rule:nonzero;fill:rgb(18.431373%,30.980392%,30.980392%);fill-opacity:1;stroke-width:0.708661;stroke-linecap:round;stroke-linejoin:round;stroke:rgb(18.431373%,30.980392%,30.980392%);stroke-opacity:1;stroke-miterlimit:10;" d="M 58.1875 426.355469 C 58.1875 430.089844 55.160156 433.113281 51.429688 433.113281 C 47.699219 433.113281 44.675781 430.089844 44.675781 426.355469 C 44.675781 422.625 47.699219 419.601562 51.429688 419.601562 C 55.160156 419.601562 58.1875 422.625 58.1875 426.355469 "/>
<path style="fill-rule:nonzero;fill:rgb(18.431373%,30.980392%,30.980392%);fill-opacity:1;stroke-width:0.708661;stroke-linecap:round;stroke-linejoin:round;stroke:rgb(18.431373%,30.980392%,30.980392%);stroke-opacity:1;stroke-miterlimit:10;" d="M 65.234375 441.023438 C 65.234375 444.753906 62.210938 447.777344 58.480469 447.777344 C 54.75 447.777344 51.722656 444.753906 51.722656 441.023438 C 51.722656 437.289062 54.75 434.265625 58.480469 434.265625 C 62.210938 434.265625 65.234375 437.289062 65.234375 441.023438 "/>
<path style="fill-rule:nonzero;fill:rgb(18.431373%,30.980392%,30.980392%);fill-opacity:1;stroke-width:0.708661;stroke-linecap:round;stroke-linejoin:round;stroke:rgb(18.431373%,30.980392%,30.980392%);stroke-opacity:1;stroke-miterlimit:10;" d="M 72.285156 456.265625 C 72.285156 459.996094 69.261719 463.023438 65.527344 463.023438 C 61.796875 463.023438 58.773438 459.996094 58.773438 456.265625 C 58.773438 452.535156 61.796875 449.511719 65.527344 449.511719 C 69.261719 449.511719 72.285156 452.535156 72.285156 456.265625 "/>
<path style="fill-rule:nonzero;fill:rgb(18.431373%,30.980392%,30.980392%);fill-opacity:1;stroke-width:0.708661;stroke-linecap:round;stroke-linejoin:round;stroke:rgb(18.431373%,30.980392%,30.980392%);stroke-opacity:1;stroke-miterlimit:10;" d="M 79.335938 420.699219 C 79.335938 424.429688 76.308594 427.453125 72.578125 427.453125 C 68.847656 427.453125 65.820312 424.429688 65.820312 420.699219 C 65.820312 416.96875 68.847656 413.941406 72.578125 413.941406 C 76.308594 413.941406 79.335938 416.96875 79.335938 420.699219 "/>
<path style="fill-rule:nonzero;fill:rgb(18.431373%,30.980392%,30.980392%);fill-opacity:1;stroke-width:0.708661;stroke-linecap:round;stroke-linejoin:round;stroke:rgb(18.431373%,30.980392%,30.980392%);stroke-opacity:1;stroke-miterlimit:10;" d="M 86.382812 487.410156 C 86.382812 491.140625 83.359375 494.164062 79.628906 494.164062 C 75.894531 494.164062 72.871094 491.140625 72.871094 487.410156 C 72.871094 483.679688 75.894531 480.652344 79.628906 480.652344 C 83.359375 480.652344 86.382812 483.679688 86.382812 487.410156 "/>
<path style="fill-rule:nonzero;fill:rgb(18.431373%,30.980392%,30.980392%);fill-opacity:1;stroke-width:0.708661;stroke-linecap:round;stroke-linejoin:round;stroke:rgb(18.431373%,30.980392%,30.980392%);stroke-opacity:1;stroke-miterlimit:10;" d="M 93.433594 429.746094 C 93.433594 433.476562 90.40625 436.5 86.675781 436.5 C 82.945312 436.5 79.921875 433.476562 79.921875 429.746094 C 79.921875 426.015625 82.945312 422.988281 86.675781 422.988281 C 90.40625 422.988281 93.433594 426.015625 93.433594 429.746094 "/>
<path style="fill-rule:nonzero;fill:rgb(18.431373%,30.980392%,30.980392%);fill-opacity:1;stroke-width:0.708661;stroke-linecap:round;stroke-linejoin:round;stroke:rgb(18.431373%,30.980392%,30.980392%);stroke-opacity:1;stroke-miterlimit:10;" d="M 100.480469 414.640625 C 100.480469 418.375 97.457031 421.398438 93.726562 421.398438 C 89.996094 421.398438 86.96875 418.375 86.96875 414.640625 C 86.96875 410.910156 89.996094 407.886719 93.726562 407.886719 C 97.457031 407.886719 100.480469 410.910156 100.480469 414.640625 "/>
<path style="fill-rule:nonzero;fill:rgb(18.431373%,30.980392%,30.980392%);fill-opacity:1;stroke-width:0.708661;stroke-linecap:round;stroke-linejoin:round;stroke:rgb(18.431373%,30.980392%,30.980392%);stroke-opacity:1;stroke-miterlimit:10;" d="M 107.53125 427.933594 C 107.53125 431.664062 104.507812 434.691406 100.773438 434.691406 C 97.042969 434.691406 94.019531 431.664062 94.019531 427.933594 C 94.019531 424.203125 97.042969 421.175781 100.773438 421.175781 C 104.507812 421.175781 107.53125 424.203125 107.53125 427.933594 "/>
<path style="fill-rule:nonzero;fill:rgb(18.431373%,30.980392%,30.980392%);fill-opacity:1;stroke-width:0.708661;stroke-linecap:round;stroke-linejoin:round;stroke:rgb(18.431373%,30.980392%,30.980392%);stroke-opacity:1;stroke-miterlimit:10;" d="M 114.582031 401.371094 C 114.582031 405.101562 111.554688 408.128906 107.824219 408.128906 C 104.09375 408.128906 101.066406 405.101562 101.066406 401.371094 C 101.066406 397.640625 104.09375 394.613281 107.824219 394.613281 C 111.554688 394.613281 114.582031 397.640625 114.582031 401.371094 "/>
<path style="fill-rule:nonzero;fill:rgb(18.431373%,30.980392%,30.980392%);fill-opacity:1;stroke-width:0.708661;stroke-linecap:round;stroke-linejoin:round;stroke:rgb(18.431373%,30.980392%,30.980392%);stroke-opacity:1;stroke-miterlimit:10;" d="M 121.628906 432.050781 C 121.628906 435.78125 118.605469 438.804688 114.875 438.804688 C 111.140625 438.804688 108.117188 435.78125 108.117188 432.050781 C 108.117188 428.320312 111.140625 425.292969 114.875 425.292969 C 118.605469 425.292969 121.628906 428.320312 121.628906 432.050781 "/>
<path style="fill-rule:nonzero;fill:rgb(18.431373%,30.980392%,30.980392%);fill-opacity:1;stroke-width:0.708661;stroke-linecap:round;stroke-linejoin:round;stroke:rgb(18.431373%,30.980392%,30.980392%);stroke-opacity:1;stroke-miterlimit:10;" d="M 128.679688 379.054688 C 128.679688 382.785156 125.652344 385.8125 121.921875 385.8125 C 118.191406 385.8125 115.167969 382.785156 115.167969 379.054688 C 115.167969 375.324219 118.191406 372.300781 121.921875 372.300781 C 125.652344 372.300781 128.679688 375.324219 128.679688 379.054688 "/>
<path style="fill-rule:nonzero;fill:rgb(18.431373%,30.980392%,30.980392%);fill-opacity:1;stroke-width:0.708661;stroke-linecap:round;stroke-linejoin:round;stroke:rgb(18.431373%,30.980392%,30.980392%);stroke-opacity:1;stroke-miterlimit:10;" d="M 135.726562 391.03125 C 135.726562 394.761719 132.703125 397.789062 128.972656 397.789062 C 125.242188 397.789062 122.214844 394.761719 122.214844 391.03125 C 122.214844 387.300781 125.242188 384.273438 128.972656 384.273438 C 132.703125 384.273438 135.726562 387.300781 135.726562 391.03125 "/>
<path style="fill-rule:nonzero;fill:rgb(18.431373%,30.980392%,30.980392%);fill-opacity:1;stroke-width:0.708661;stroke-linecap:round;stroke-linejoin:round;stroke:rgb(18.431373%,30.980392%,30.980392%);stroke-opacity:1;stroke-miterlimit:10;" d="M 142.777344 355.320312 C 142.777344 359.050781 139.753906 362.078125 136.019531 362.078125 C 132.289062 362.078125 129.265625 359.050781 129.265625 355.320312 C 129.265625 351.589844 132.289062 348.566406 136.019531 348.566406 C 139.753906 348.566406 142.777344 351.589844 142.777344 355.320312 "/>
<path style="fill-rule:nonzero;fill:rgb(18.431373%,30.980392%,30.980392%);fill-opacity:1;stroke-width:0.708661;stroke-linecap:round;stroke-linejoin:round;stroke:rgb(18.431373%,30.980392%,30.980392%);stroke-opacity:1;stroke-miterlimit:10;" d="M 149.828125 430.417969 C 149.828125 434.152344 146.800781 437.175781 143.070312 437.175781 C 139.339844 437.175781 136.3125 434.152344 136.3125 430.417969 C 136.3125 426.6875 139.339844 423.664062 143.070312 423.664062 C 146.800781 423.664062 149.828125 426.6875 149.828125 430.417969 "/>
<path style="fill-rule:nonzero;fill:rgb(18.431373%,30.980392%,30.980392%);fill-opacity:1;stroke-width:0.708661;stroke-linecap:round;stroke-linejoin:round;stroke:rgb(18.431373%,30.980392%,30.980392%);stroke-opacity:1;stroke-miterlimit:10;" d="M 156.875 408.648438 C 156.875 412.378906 153.851562 415.402344 150.121094 415.402344 C 146.386719 415.402344 143.363281 412.378906 143.363281 408.648438 C 143.363281 404.914062 146.386719 401.890625 150.121094 401.890625 C 153.851562 401.890625 156.875 404.914062 156.875 408.648438 "/>
<path style="fill-rule:nonzero;fill:rgb(18.431373%,30.980392%,30.980392%);fill-opacity:1;stroke-width:0.708661;stroke-linecap:round;stroke-linejoin:round;stroke:rgb(18.431373%,30.980392%,30.980392%);stroke-opacity:1;stroke-miterlimit:10;" d="M 163.925781 391.84375 C 163.925781 395.574219 160.898438 398.601562 157.167969 398.601562 C 153.4375 398.601562 150.414062 395.574219 150.414062 391.84375 C 150.414062 388.113281 153.4375 385.089844 157.167969 385.089844 C 160.898438 385.089844 163.925781 388.113281 163.925781 391.84375 "/>
<path style="fill-rule:nonzero;fill:rgb(18.431373%,30.980392%,30.980392%);fill-opacity:1;stroke-width:0.708661;stroke-linecap:round;stroke-linejoin:round;stroke:rgb(18.431373%,30.980392%,30.980392%);stroke-opacity:1;stroke-miterlimit:10;" d="M 170.972656 405.039062 C 170.972656 408.769531 167.949219 411.796875 164.21875 411.796875 C 160.488281 411.796875 157.460938 408.769531 157.460938 405.039062 C 157.460938 401.308594 160.488281 398.28125 164.21875 398.28125 C 167.949219 398.28125 170.972656 401.308594 170.972656 405.039062 "/>
<path style="fill-rule:nonzero;fill:rgb(18.431373%,30.980392%,30.980392%);fill-opacity:1;stroke-width:0.708661;stroke-linecap:round;stroke-linejoin:round;stroke:rgb(18.431373%,30.980392%,30.980392%);stroke-opacity:1;stroke-miterlimit:10;" d="M 178.023438 395.269531 C 178.023438 399 175 402.023438 171.265625 402.023438 C 167.535156 402.023438 164.511719 399 164.511719 395.269531 C 164.511719 391.539062 167.535156 388.511719 171.265625 388.511719 C 175 388.511719 178.023438 391.539062 178.023438 395.269531 "/>
<path style="fill-rule:nonzero;fill:rgb(18.431373%,30.980392%,30.980392%);fill-opacity:1;stroke-width:0.708661;stroke-linecap:round;stroke-linejoin:round;stroke:rgb(18.431373%,30.980392%,30.980392%);stroke-opacity:1;stroke-miterlimit:10;" d="M 185.074219 367.597656 C 185.074219 371.332031 182.046875 374.355469 178.316406 374.355469 C 174.585938 374.355469 171.558594 371.332031 171.558594 367.597656 C 171.558594 363.867188 174.585938 360.84375 178.316406 360.84375 C 182.046875 360.84375 185.074219 363.867188 185.074219 367.597656 "/>
<path style="fill-rule:nonzero;fill:rgb(18.431373%,30.980392%,30.980392%);fill-opacity:1;stroke-width:0.708661;stroke-linecap:round;stroke-linejoin:round;stroke:rgb(18.431373%,30.980392%,30.980392%);stroke-opacity:1;stroke-miterlimit:10;" d="M 192.121094 359.199219 C 192.121094 362.933594 189.097656 365.957031 185.367188 365.957031 C 181.632812 365.957031 178.609375 362.933594 178.609375 359.199219 C 178.609375 355.46875 181.632812 352.445312 185.367188 352.445312 C 189.097656 352.445312 192.121094 355.46875 192.121094 359.199219 "/>
<path style="fill-rule:nonzero;fill:rgb(18.431373%,30.980392%,30.980392%);fill-opacity:1;stroke-width:0.708661;stroke-linecap:round;stroke-linejoin:round;stroke:rgb(18.431373%,30.980392%,30.980392%);stroke-opacity:1;stroke-miterlimit:10;" d="M 199.171875 342.800781 C 199.171875 346.53125 196.144531 349.554688 192.414062 349.554688 C 188.683594 349.554688 185.660156 346.53125 185.660156 342.800781 C 185.660156 339.070312 188.683594 336.042969 192.414062 336.042969 C 196.144531 336.042969 199.171875 339.070312 199.171875 342.800781 "/>
<path style="fill-rule:nonzero;fill:rgb(18.431373%,30.980392%,30.980392%);fill-opacity:1;stroke-width:0.708661;stroke-linecap:round;stroke-linejoin:round;stroke:rgb(18.431373%,30.980392%,30.980392%);stroke-opacity:1;stroke-miterlimit:10;" d="M 206.21875 372.535156 C 206.21875 376.265625 203.195312 379.292969 199.464844 379.292969 C 195.734375 379.292969 192.707031 376.265625 192.707031 372.535156 C 192.707031 368.804688 195.734375 365.78125 199.464844 365.78125 C 203.195312 365.78125 206.21875 368.804688 206.21875 372.535156 "/>
<path style="fill-rule:nonzero;fill:rgb(18.431373%,30.980392%,30.980392%);fill-opacity:1;stroke-width:0.708661;stroke-linecap:round;stroke-linejoin:round;stroke:rgb(18.431373%,30.980392%,30.980392%);stroke-opacity:1;stroke-miterlimit:10;" d="M 213.269531 316.109375 C 213.269531 319.839844 210.246094 322.863281 206.511719 322.863281 C 202.78125 322.863281 199.757812 319.839844 199.757812 316.109375 C 199.757812 312.378906 202.78125 309.351562 206.511719 309.351562 C 210.246094 309.351562 213.269531 312.378906 213.269531 316.109375 "/>
<path style="fill-rule:nonzero;fill:rgb(18.431373%,30.980392%,30.980392%);fill-opacity:1;stroke-width:0.708661;stroke-linecap:round;stroke-linejoin:round;stroke:rgb(18.431373%,30.980392%,30.980392%);stroke-opacity:1;stroke-miterlimit:10;" d="M 220.320312 379.800781 C 220.320312 383.53125 217.292969 386.554688 213.5625 386.554688 C 209.832031 386.554688 206.804688 383.53125 206.804688 379.800781 C 206.804688 376.066406 209.832031 373.042969 213.5625 373.042969 C 217.292969 373.042969 220.320312 376.066406 220.320312 379.800781 "/>
<path style="fill-rule:nonzero;fill:rgb(18.431373%,30.980392%,30.980392%);fill-opacity:1;stroke-width:0.708661;stroke-linecap:round;stroke-linejoin:round;stroke:rgb(18.431373%,30.980392%,30.980392%);stroke-opacity:1;stroke-miterlimit:10;" d="M 227.367188 324.910156 C 227.367188 328.640625 224.34375 331.664062 220.613281 331.664062 C 216.878906 331.664062 213.855469 328.640625 213.855469 324.910156 C 213.855469 321.175781 216.878906 318.152344 220.613281 318.152344 C 224.34375 318.152344 227.367188 321.175781 227.367188 324.910156 "/>
<path style="fill-rule:nonzero;fill:rgb(18.431373%,30.980392%,30.980392%);fill-opacity:1;stroke-width:0.708661;stroke-linecap:round;stroke-linejoin:round;stroke:rgb(18.431373%,30.980392%,30.980392%);stroke-opacity:1;stroke-miterlimit:10;" d="M 234.417969 348.582031 C 234.417969 352.3125 231.390625 355.335938 227.660156 355.335938 C 223.929688 355.335938 220.90625 352.3125 220.90625 348.582031 C 220.90625 344.851562 223.929688 341.824219 227.660156 341.824219 C 231.390625 341.824219 234.417969 344.851562 234.417969 348.582031 "/>
<path style="fill-rule:nonzero;fill:rgb(18.431373%,30.980392%,30.980392%);fill-opacity:1;stroke-width:0.708661;stroke-linecap:round;stroke-linejoin:round;stroke:rgb(18.431373%,30.980392%,30.980392%);stroke-opacity:1;stroke-miterlimit:10;" d="M 241.464844 345.203125 C 241.464844 348.933594 238.441406 351.957031 234.710938 351.957031 C 230.980469 351.957031 227.953125 348.933594 227.953125 345.203125 C 227.953125 341.46875 230.980469 338.445312 234.710938 338.445312 C 238.441406 338.445312 241.464844 341.46875 241.464844 345.203125 "/>
<path style="fill-rule:nonzero;fill:rgb(18.431373%,30.980392%,30.980392%);fill-opacity:1;stroke-width:0.708661;stroke-linecap:round;stroke-linejoin:round;stroke:rgb(18.431373%,30.980392%,30.980392%);stroke-opacity:1;stroke-miterlimit:10;" d="M 248.515625 322.601562 C 248.515625 326.335938 245.492188 329.359375 241.757812 329.359375 C 238.027344 329.359375 235.003906 326.335938 235.003906 322.601562 C 235.003906 318.871094 238.027344 315.847656 241.757812 315.847656 C 245.492188 315.847656 248.515625 318.871094 248.515625 322.601562 "/>
<path style="fill-rule:nonzero;fill:rgb(18.431373%,30.980392%,30.980392%);fill-opacity:1;stroke-width:0.708661;stroke-linecap:round;stroke-linejoin:round;stroke:rgb(18.431373%,30.980392%,30.980392%);stroke-opacity:1;stroke-miterlimit:10;" d="M 255.566406 307.761719 C 255.566406 311.492188 252.539062 314.519531 248.808594 314.519531 C 245.078125 314.519531 242.050781 311.492188 242.050781 307.761719 C 242.050781 304.03125 245.078125 301.003906 248.808594 301.003906 C 252.539062 301.003906 255.566406 304.03125 255.566406 307.761719 "/>
<path style="fill-rule:nonzero;fill:rgb(18.431373%,30.980392%,30.980392%);fill-opacity:1;stroke-width:0.708661;stroke-linecap:round;stroke-linejoin:round;stroke:rgb(18.431373%,30.980392%,30.980392%);stroke-opacity:1;stroke-miterlimit:10;" d="M 262.613281 325.160156 C 262.613281 328.890625 259.589844 331.914062 255.859375 331.914062 C 252.125 331.914062 249.101562 328.890625 249.101562 325.160156 C 249.101562 321.425781 252.125 318.402344 255.859375 318.402344 C 259.589844 318.402344 262.613281 321.425781 262.613281 325.160156 "/>
<path style="fill-rule:nonzero;fill:rgb(18.431373%,30.980392%,30.980392%);fill-opacity:1;stroke-width:0.708661;stroke-linecap:round;stroke-linejoin:round;stroke:rgb(18.431373%,30.980392%,30.980392%);stroke-opacity:1;stroke-miterlimit:10;" d="M 269.664062 322.25 C 269.664062 325.980469 266.636719 329.003906 262.90625 329.003906 C 259.175781 329.003906 256.152344 325.980469 256.152344 322.25 C 256.152344 318.519531 259.175781 315.492188 262.90625 315.492188 C 266.636719 315.492188 269.664062 318.519531 269.664062 322.25 "/>
<path style="fill-rule:nonzero;fill:rgb(18.431373%,30.980392%,30.980392%);fill-opacity:1;stroke-width:0.708661;stroke-linecap:round;stroke-linejoin:round;stroke:rgb(18.431373%,30.980392%,30.980392%);stroke-opacity:1;stroke-miterlimit:10;" d="M 276.710938 285.949219 C 276.710938 289.679688 273.6875 292.703125 269.957031 292.703125 C 266.226562 292.703125 263.199219 289.679688 263.199219 285.949219 C 263.199219 282.21875 266.226562 279.191406 269.957031 279.191406 C 273.6875 279.191406 276.710938 282.21875 276.710938 285.949219 "/>
<path style="fill-rule:nonzero;fill:rgb(18.431373%,30.980392%,30.980392%);fill-opacity:1;stroke-width:0.708661;stroke-linecap:round;stroke-linejoin:round;stroke:rgb(18.431373%,30.980392%,30.980392%);stroke-opacity:1;stroke-miterlimit:10;" d="M 283.761719 329.535156 C 283.761719 333.269531 280.738281 336.292969 277.003906 336.292969 C 273.273438 336.292969 270.25 333.269531 270.25 329.535156 C 270.25 325.804688 273.273438 322.78125 277.003906 322.78125 C 280.738281 322.78125 283.761719 325.804688 283.761719 329.535156 "/>
<path style="fill-rule:nonzero;fill:rgb(18.431373%,30.980392%,30.980392%);fill-opacity:1;stroke-width:0.708661;stroke-linecap:round;stroke-linejoin:round;stroke:rgb(18.431373%,30.980392%,30.980392%);stroke-opacity:1;stroke-miterlimit:10;" d="M 290.8125 296.867188 C 290.8125 300.597656 287.785156 303.621094 284.054688 303.621094 C 280.324219 303.621094 277.296875 300.597656 277.296875 296.867188 C 277.296875 293.136719 280.324219 290.109375 284.054688 290.109375 C 287.785156 290.109375 290.8125 293.136719 290.8125 296.867188 "/>
<path style="fill-rule:nonzero;fill:rgb(18.431373%,30.980392%,30.980392%);fill-opacity:1;stroke-width:0.708661;stroke-linecap:round;stroke-linejoin:round;stroke:rgb(18.431373%,30.980392%,30.980392%);stroke-opacity:1;stroke-miterlimit:10;" d="M 297.859375 323.242188 C 297.859375 326.972656 294.835938 329.996094 291.105469 329.996094 C 287.371094 329.996094 284.347656 326.972656 284.347656 323.242188 C 284.347656 319.507812 287.371094 316.484375 291.105469 316.484375 C 294.835938 316.484375 297.859375 319.507812 297.859375 323.242188 "/>
<path style="fill-rule:nonzero;fill:rgb(18.431373%,30.980392%,30.980392%);fill-opacity:1;stroke-width:0.708661;stroke-linecap:round;stroke-linejoin:round;stroke:rgb(18.431373%,30.980392%,30.980392%);stroke-opacity:1;stroke-miterlimit:10;" d="M 304.910156 299.15625 C 304.910156 302.886719 301.882812 305.910156 298.152344 305.910156 C 294.421875 305.910156 291.398438 302.886719 291.398438 299.15625 C 291.398438 295.421875 294.421875 292.398438 298.152344 292.398438 C 301.882812 292.398438 304.910156 295.421875 304.910156 299.15625 "/>
<path style="fill-rule:nonzero;fill:rgb(18.431373%,30.980392%,30.980392%);fill-opacity:1;stroke-width:0.708661;stroke-linecap:round;stroke-linejoin:round;stroke:rgb(18.431373%,30.980392%,30.980392%);stroke-opacity:1;stroke-miterlimit:10;" d="M 311.957031 297.015625 C 311.957031 300.746094 308.933594 303.769531 305.203125 303.769531 C 301.472656 303.769531 298.445312 300.746094 298.445312 297.015625 C 298.445312 293.28125 301.472656 290.257812 305.203125 290.257812 C 308.933594 290.257812 311.957031 293.28125 311.957031 297.015625 "/>
<path style="fill-rule:nonzero;fill:rgb(18.431373%,30.980392%,30.980392%);fill-opacity:1;stroke-width:0.708661;stroke-linecap:round;stroke-linejoin:round;stroke:rgb(18.431373%,30.980392%,30.980392%);stroke-opacity:1;stroke-miterlimit:10;" d="M 319.007812 260.664062 C 319.007812 264.394531 315.984375 267.421875 312.25 267.421875 C 308.519531 267.421875 305.496094 264.394531 305.496094 260.664062 C 305.496094 256.933594 308.519531 253.910156 312.25 253.910156 C 315.984375 253.910156 319.007812 256.933594 319.007812 260.664062 "/>
<path style="fill-rule:nonzero;fill:rgb(18.431373%,30.980392%,30.980392%);fill-opacity:1;stroke-width:0.708661;stroke-linecap:round;stroke-linejoin:round;stroke:rgb(18.431373%,30.980392%,30.980392%);stroke-opacity:1;stroke-miterlimit:10;" d="M 326.058594 253.710938 C 326.058594 257.441406 323.03125 260.464844 319.300781 260.464844 C 315.570312 260.464844 312.542969 257.441406 312.542969 253.710938 C 312.542969 249.976562 315.570312 246.953125 319.300781 246.953125 C 323.03125 246.953125 326.058594 249.976562 326.058594 253.710938 "/>
<path style="fill-rule:nonzero;fill:rgb(18.431373%,30.980392%,30.980392%);fill-opacity:1;stroke-width:0.708661;stroke-linecap:round;stroke-linejoin:round;stroke:rgb(18.431373%,30.980392%,30.980392%);stroke-opacity:1;stroke-miterlimit:10;" d="M 333.105469 300.410156 C 333.105469 304.140625 330.082031 307.167969 326.351562 307.167969 C 322.617188 307.167969 319.59375 304.140625 319.59375 300.410156 C 319.59375 296.679688 322.617188 293.65625 326.351562 293.65625 C 330.082031 293.65625 333.105469 296.679688 333.105469 300.410156 "/>
<path style="fill-rule:nonzero;fill:rgb(18.431373%,30.980392%,30.980392%);fill-opacity:1;stroke-width:0.708661;stroke-linecap:round;stroke-linejoin:round;stroke:rgb(18.431373%,30.980392%,30.980392%);stroke-opacity:1;stroke-miterlimit:10;" d="M 340.15625 330.183594 C 340.15625 333.914062 337.128906 336.9375 333.398438 336.9375 C 329.667969 336.9375 326.644531 333.914062 326.644531 330.183594 C 326.644531 326.449219 329.667969 323.425781 333.398438 323.425781 C 337.128906 323.425781 340.15625 326.449219 340.15625 330.183594 "/>
<path style="fill-rule:nonzero;fill:rgb(18.431373%,30.980392%,30.980392%);fill-opacity:1;stroke-width:0.708661;stroke-linecap:round;stroke-linejoin:round;stroke:rgb(18.431373%,30.980392%,30.980392%);stroke-opacity:1;stroke-miterlimit:10;" d="M 347.203125 313.449219 C 347.203125 317.179688 344.179688 320.203125 340.449219 320.203125 C 336.71875 320.203125 333.691406 317.179688 333.691406 313.449219 C 333.691406 309.714844 336.71875 306.691406 340.449219 306.691406 C 344.179688 306.691406 347.203125 309.714844 347.203125 313.449219 "/>
<path style="fill-rule:nonzero;fill:rgb(18.431373%,30.980392%,30.980392%);fill-opacity:1;stroke-width:0.708661;stroke-linecap:round;stroke-linejoin:round;stroke:rgb(18.431373%,30.980392%,30.980392%);stroke-opacity:1;stroke-miterlimit:10;" d="M 354.253906 261.558594 C 354.253906 265.289062 351.230469 268.316406 347.496094 268.316406 C 343.765625 268.316406 340.742188 265.289062 340.742188 261.558594 C 340.742188 257.828125 343.765625 254.804688 347.496094 254.804688 C 351.230469 254.804688 354.253906 257.828125 354.253906 261.558594 "/>
<path style="fill-rule:nonzero;fill:rgb(18.431373%,30.980392%,30.980392%);fill-opacity:1;stroke-width:0.708661;stroke-linecap:round;stroke-linejoin:round;stroke:rgb(18.431373%,30.980392%,30.980392%);stroke-opacity:1;stroke-miterlimit:10;" d="M 361.304688 235.253906 C 361.304688 238.984375 358.277344 242.007812 354.546875 242.007812 C 350.816406 242.007812 347.789062 238.984375 347.789062 235.253906 C 347.789062 231.519531 350.816406 228.496094 354.546875 228.496094 C 358.277344 228.496094 361.304688 231.519531 361.304688 235.253906 "/>
<path style="fill-rule:nonzero;fill:rgb(18.431373%,30.980392%,30.980392%);fill-opacity:1;stroke-width:0.708661;stroke-linecap:round;stroke-linejoin:round;stroke:rgb(18.431373%,30.980392%,30.980392%);stroke-opacity:1;stroke-miterlimit:10;" d="M 368.351562 272.949219 C 368.351562 276.679688 365.328125 279.703125 361.597656 279.703125 C 357.863281 279.703125 354.839844 276.679688 354.839844 272.949219 C 354.839844 269.21875 357.863281 266.191406 361.597656 266.191406 C 365.328125 266.191406 368.351562 269.21875 368.351562 272.949219 "/>
<path style="fill-rule:nonzero;fill:rgb(18.431373%,30.980392%,30.980392%);fill-opacity:1;stroke-width:0.708661;stroke-linecap:round;stroke-linejoin:round;stroke:rgb(18.431373%,30.980392%,30.980392%);stroke-opacity:1;stroke-miterlimit:10;" d="M 375.402344 269.359375 C 375.402344 273.09375 372.375 276.117188 368.644531 276.117188 C 364.914062 276.117188 361.890625 273.09375 361.890625 269.359375 C 361.890625 265.628906 364.914062 262.605469 368.644531 262.605469 C 372.375 262.605469 375.402344 265.628906 375.402344 269.359375 "/>
<path style="fill-rule:nonzero;fill:rgb(18.431373%,30.980392%,30.980392%);fill-opacity:1;stroke-width:0.708661;stroke-linecap:round;stroke-linejoin:round;stroke:rgb(18.431373%,30.980392%,30.980392%);stroke-opacity:1;stroke-miterlimit:10;" d="M 382.449219 278.570312 C 382.449219 282.300781 379.425781 285.328125 375.695312 285.328125 C 371.964844 285.328125 368.9375 282.300781 368.9375 278.570312 C 368.9375 274.839844 371.964844 271.816406 375.695312 271.816406 C 379.425781 271.816406 382.449219 274.839844 382.449219 278.570312 "/>
<path style="fill-rule:nonzero;fill:rgb(18.431373%,30.980392%,30.980392%);fill-opacity:1;stroke-width:0.708661;stroke-linecap:round;stroke-linejoin:round;stroke:rgb(18.431373%,30.980392%,30.980392%);stroke-opacity:1;stroke-miterlimit:10;" d="M 389.5 258.976562 C 389.5 262.707031 386.476562 265.734375 382.742188 265.734375 C 379.011719 265.734375 375.988281 262.707031 375.988281 258.976562 C 375.988281 255.246094 379.011719 252.222656 382.742188 252.222656 C 386.476562 252.222656 389.5 255.246094 389.5 258.976562 "/>
<path style="fill-rule:nonzero;fill:rgb(18.431373%,30.980392%,30.980392%);fill-opacity:1;stroke-width:0.708661;stroke-linecap:round;stroke-linejoin:round;stroke:rgb(18.431373%,30.980392%,30.980392%);stroke-opacity:1;stroke-miterlimit:10;" d="M 396.550781 240.144531 C 396.550781 243.875 393.523438 246.902344 389.792969 246.902344 C 386.0625 246.902344 383.035156 243.875 383.035156 240.144531 C 383.035156 236.414062 386.0625 233.386719 389.792969 233.386719 C 393.523438 233.386719 396.550781 236.414062 396.550781 240.144531 "/>
<path style="fill-rule:nonzero;fill:rgb(18.431373%,30.980392%,30.980392%);fill-opacity:1;stroke-width:0.708661;stroke-linecap:round;stroke-linejoin:round;stroke:rgb(18.431373%,30.980392%,30.980392%);stroke-opacity:1;stroke-miterlimit:10;" d="M 403.597656 211.246094 C 403.597656 214.976562 400.574219 218 396.84375 218 C 393.109375 218 390.085938 214.976562 390.085938 211.246094 C 390.085938 207.515625 393.109375 204.488281 396.84375 204.488281 C 400.574219 204.488281 403.597656 207.515625 403.597656 211.246094 "/>
<path style="fill-rule:nonzero;fill:rgb(18.431373%,30.980392%,30.980392%);fill-opacity:1;stroke-width:0.708661;stroke-linecap:round;stroke-linejoin:round;stroke:rgb(18.431373%,30.980392%,30.980392%);stroke-opacity:1;stroke-miterlimit:10;" d="M 410.648438 204.796875 C 410.648438 208.527344 407.621094 211.550781 403.890625 211.550781 C 400.160156 211.550781 397.136719 208.527344 397.136719 204.796875 C 397.136719 201.0625 400.160156 198.039062 403.890625 198.039062 C 407.621094 198.039062 410.648438 201.0625 410.648438 204.796875 "/>
<path style="fill-rule:nonzero;fill:rgb(18.431373%,30.980392%,30.980392%);fill-opacity:1;stroke-width:0.708661;stroke-linecap:round;stroke-linejoin:round;stroke:rgb(18.431373%,30.980392%,30.980392%);stroke-opacity:1;stroke-miterlimit:10;" d="M 417.695312 225.28125 C 417.695312 229.015625 414.671875 232.039062 410.941406 232.039062 C 407.210938 232.039062 404.183594 229.015625 404.183594 225.28125 C 404.183594 221.550781 407.210938 218.527344 410.941406 218.527344 C 414.671875 218.527344 417.695312 221.550781 417.695312 225.28125 "/>
<path style="fill-rule:nonzero;fill:rgb(18.431373%,30.980392%,30.980392%);fill-opacity:1;stroke-width:0.708661;stroke-linecap:round;stroke-linejoin:round;stroke:rgb(18.431373%,30.980392%,30.980392%);stroke-opacity:1;stroke-miterlimit:10;" d="M 424.746094 201.777344 C 424.746094 205.511719 421.722656 208.535156 417.988281 208.535156 C 414.257812 208.535156 411.234375 205.511719 411.234375 201.777344 C 411.234375 198.046875 414.257812 195.023438 417.988281 195.023438 C 421.722656 195.023438 424.746094 198.046875 424.746094 201.777344 "/>
<path style="fill-rule:nonzero;fill:rgb(18.431373%,30.980392%,30.980392%);fill-opacity:1;stroke-width:0.708661;stroke-linecap:round;stroke-linejoin:round;stroke:rgb(18.431373%,30.980392%,30.980392%);stroke-opacity:1;stroke-miterlimit:10;" d="M 431.796875 201.816406 C 431.796875 205.546875 428.769531 208.570312 425.039062 208.570312 C 421.308594 208.570312 418.28125 205.546875 418.28125 201.816406 C 418.28125 198.082031 421.308594 195.058594 425.039062 195.058594 C 428.769531 195.058594 431.796875 198.082031 431.796875 201.816406 "/>
<path style="fill-rule:nonzero;fill:rgb(18.431373%,30.980392%,30.980392%);fill-opacity:1;stroke-width:0.708661;stroke-linecap:round;stroke-linejoin:round;stroke:rgb(18.431373%,30.980392%,30.980392%);stroke-opacity:1;stroke-miterlimit:10;" d="M 438.84375 183.660156 C 438.84375 187.390625 435.820312 190.417969 432.089844 190.417969 C 428.355469 190.417969 425.332031 187.390625 425.332031 183.660156 C 425.332031 179.929688 428.355469 176.902344 432.089844 176.902344 C 435.820312 176.902344 438.84375 179.929688 438.84375 183.660156 "/>
<path style="fill-rule:nonzero;fill:rgb(18.431373%,30.980392%,30.980392%);fill-opacity:1;stroke-width:0.708661;stroke-linecap:round;stroke-linejoin:round;stroke:rgb(18.431373%,30.980392%,30.980392%);stroke-opacity:1;stroke-miterlimit:10;" d="M 445.894531 205.382812 C 445.894531 209.117188 442.867188 212.140625 439.136719 212.140625 C 435.40625 212.140625 432.382812 209.117188 432.382812 205.382812 C 432.382812 201.652344 435.40625 198.628906 439.136719 198.628906 C 442.867188 198.628906 445.894531 201.652344 445.894531 205.382812 "/>
<path style="fill-rule:nonzero;fill:rgb(18.431373%,30.980392%,30.980392%);fill-opacity:1;stroke-width:0.708661;stroke-linecap:round;stroke-linejoin:round;stroke:rgb(18.431373%,30.980392%,30.980392%);stroke-opacity:1;stroke-miterlimit:10;" d="M 452.941406 196.382812 C 452.941406 200.117188 449.917969 203.140625 446.1875 203.140625 C 442.457031 203.140625 439.429688 200.117188 439.429688 196.382812 C 439.429688 192.652344 442.457031 189.628906 446.1875 189.628906 C 449.917969 189.628906 452.941406 192.652344 452.941406 196.382812 "/>
<path style="fill-rule:nonzero;fill:rgb(18.431373%,30.980392%,30.980392%);fill-opacity:1;stroke-width:0.708661;stroke-linecap:round;stroke-linejoin:round;stroke:rgb(18.431373%,30.980392%,30.980392%);stroke-opacity:1;stroke-miterlimit:10;" d="M 459.992188 191.144531 C 459.992188 194.878906 456.96875 197.902344 453.234375 197.902344 C 449.503906 197.902344 446.480469 194.878906 446.480469 191.144531 C 446.480469 187.414062 449.503906 184.390625 453.234375 184.390625 C 456.96875 184.390625 459.992188 187.414062 459.992188 191.144531 "/>
<path style="fill-rule:nonzero;fill:rgb(18.431373%,30.980392%,30.980392%);fill-opacity:1;stroke-width:0.708661;stroke-linecap:round;stroke-linejoin:round;stroke:rgb(18.431373%,30.980392%,30.980392%);stroke-opacity:1;stroke-miterlimit:10;" d="M 467.042969 209.449219 C 467.042969 213.179688 464.015625 216.203125 460.285156 216.203125 C 456.554688 216.203125 453.527344 213.179688 453.527344 209.449219 C 453.527344 205.71875 456.554688 202.691406 460.285156 202.691406 C 464.015625 202.691406 467.042969 205.71875 467.042969 209.449219 "/>
<path style="fill-rule:nonzero;fill:rgb(18.431373%,30.980392%,30.980392%);fill-opacity:1;stroke-width:0.708661;stroke-linecap:round;stroke-linejoin:round;stroke:rgb(18.431373%,30.980392%,30.980392%);stroke-opacity:1;stroke-miterlimit:10;" d="M 474.089844 190.257812 C 474.089844 193.988281 471.066406 197.011719 467.335938 197.011719 C 463.601562 197.011719 460.578125 193.988281 460.578125 190.257812 C 460.578125 186.527344 463.601562 183.5 467.335938 183.5 C 471.066406 183.5 474.089844 186.527344 474.089844 190.257812 "/>
<path style="fill-rule:nonzero;fill:rgb(18.431373%,30.980392%,30.980392%);fill-opacity:1;stroke-width:0.708661;stroke-linecap:round;stroke-linejoin:round;stroke:rgb(18.431373%,30.980392%,30.980392%);stroke-opacity:1;stroke-miterlimit:10;" d="M 481.140625 190.445312 C 481.140625 194.175781 478.113281 197.203125 474.382812 197.203125 C 470.652344 197.203125 467.628906 194.175781 467.628906 190.445312 C 467.628906 186.714844 470.652344 183.691406 474.382812 183.691406 C 478.113281 183.691406 481.140625 186.714844 481.140625 190.445312 "/>
<path style="fill-rule:nonzero;fill:rgb(18.431373%,30.980392%,30.980392%);fill-opacity:1;stroke-width:0.708661;stroke-linecap:round;stroke-linejoin:round;stroke:rgb(18.431373%,30.980392%,30.980392%);stroke-opacity:1;stroke-miterlimit:10;" d="M 488.1875 192.929688 C 488.1875 196.660156 485.164062 199.683594 481.433594 199.683594 C 477.703125 199.683594 474.675781 196.660156 474.675781 192.929688 C 474.675781 189.195312 477.703125 186.171875 481.433594 186.171875 C 485.164062 186.171875 488.1875 189.195312 488.1875 192.929688 "/>
<path style="fill-rule:nonzero;fill:rgb(18.431373%,30.980392%,30.980392%);fill-opacity:1;stroke-width:0.708661;stroke-linecap:round;stroke-linejoin:round;stroke:rgb(18.431373%,30.980392%,30.980392%);stroke-opacity:1;stroke-miterlimit:10;" d="M 495.238281 156.671875 C 495.238281 160.40625 492.214844 163.429688 488.480469 163.429688 C 484.75 163.429688 481.726562 160.40625 481.726562 156.671875 C 481.726562 152.941406 484.75 149.917969 488.480469 149.917969 C 492.214844 149.917969 495.238281 152.941406 495.238281 156.671875 "/>
<path style="fill-rule:nonzero;fill:rgb(18.431373%,30.980392%,30.980392%);fill-opacity:1;stroke-width:0.708661;stroke-linecap:round;stroke-linejoin:round;stroke:rgb(18.431373%,30.980392%,30.980392%);stroke-opacity:1;stroke-miterlimit:10;" d="M 502.289062 184.46875 C 502.289062 188.199219 499.261719 191.226562 495.53125 191.226562 C 491.800781 191.226562 488.773438 188.199219 488.773438 184.46875 C 488.773438 180.738281 491.800781 177.710938 495.53125 177.710938 C 499.261719 177.710938 502.289062 180.738281 502.289062 184.46875 "/>
<path style="fill-rule:nonzero;fill:rgb(18.431373%,30.980392%,30.980392%);fill-opacity:1;stroke-width:0.708661;stroke-linecap:round;stroke-linejoin:round;stroke:rgb(18.431373%,30.980392%,30.980392%);stroke-opacity:1;stroke-miterlimit:10;" d="M 509.335938 170.585938 C 509.335938 174.316406 506.3125 177.34375 502.582031 177.34375 C 498.847656 177.34375 495.824219 174.316406 495.824219 170.585938 C 495.824219 166.855469 498.847656 163.832031 502.582031 163.832031 C 506.3125 163.832031 509.335938 166.855469 509.335938 170.585938 "/>
<path style="fill-rule:nonzero;fill:rgb(18.431373%,30.980392%,30.980392%);fill-opacity:1;stroke-width:0.708661;stroke-linecap:round;stroke-linejoin:round;stroke:rgb(18.431373%,30.980392%,30.980392%);stroke-opacity:1;stroke-miterlimit:10;" d="M 516.386719 126.328125 C 516.386719 130.0625 513.359375 133.085938 509.628906 133.085938 C 505.898438 133.085938 502.875 130.0625 502.875 126.328125 C 502.875 122.597656 505.898438 119.574219 509.628906 119.574219 C 513.359375 119.574219 516.386719 122.597656 516.386719 126.328125 "/>
<path style="fill-rule:nonzero;fill:rgb(18.431373%,30.980392%,30.980392%);fill-opacity:1;stroke-width:0.708661;stroke-linecap:round;stroke-linejoin:round;stroke:rgb(18.431373%,30.980392%,30.980392%);stroke-opacity:1;stroke-miterlimit:10;" d="M 523.433594 177.554688 C 523.433594 181.289062 520.410156 184.3125 516.679688 184.3125 C 512.949219 184.3125 509.921875 181.289062 509.921875 177.554688 C 509.921875 173.824219 512.949219 170.800781 516.679688 170.800781 C 520.410156 170.800781 523.433594 173.824219 523.433594 177.554688 "/>
<path style="fill-rule:nonzero;fill:rgb(18.431373%,30.980392%,30.980392%);fill-opacity:1;stroke-width:0.708661;stroke-linecap:round;stroke-linejoin:round;stroke:rgb(18.431373%,30.980392%,30.980392%);stroke-opacity:1;stroke-miterlimit:10;" d="M 530.484375 159.359375 C 530.484375 163.09375 527.460938 166.117188 523.726562 166.117188 C 519.996094 166.117188 516.972656 163.09375 516.972656 159.359375 C 516.972656 155.628906 519.996094 152.605469 523.726562 152.605469 C 527.460938 152.605469 530.484375 155.628906 530.484375 159.359375 "/>
<path style="fill-rule:nonzero;fill:rgb(18.431373%,30.980392%,30.980392%);fill-opacity:1;stroke-width:0.708661;stroke-linecap:round;stroke-linejoin:round;stroke:rgb(18.431373%,30.980392%,30.980392%);stroke-opacity:1;stroke-miterlimit:10;" d="M 537.535156 158.269531 C 537.535156 162 534.507812 165.027344 530.777344 165.027344 C 527.046875 165.027344 524.019531 162 524.019531 158.269531 C 524.019531 154.539062 527.046875 151.511719 530.777344 151.511719 C 534.507812 151.511719 537.535156 154.539062 537.535156 158.269531 "/>
<path style="fill-rule:nonzero;fill:rgb(18.431373%,30.980392%,30.980392%);fill-opacity:1;stroke-width:0.708661;stroke-linecap:round;stroke-linejoin:round;stroke:rgb(18.431373%,30.980392%,30.980392%);stroke-opacity:1;stroke-miterlimit:10;" d="M 544.582031 164.683594 C 544.582031 168.417969 541.558594 171.441406 537.828125 171.441406 C 534.09375 171.441406 531.070312 168.417969 531.070312 164.683594 C 531.070312 160.953125 534.09375 157.929688 537.828125 157.929688 C 541.558594 157.929688 544.582031 160.953125 544.582031 164.683594 "/>
<path style="fill-rule:nonzero;fill:rgb(18.431373%,30.980392%,30.980392%);fill-opacity:1;stroke-width:0.708661;stroke-linecap:round;stroke-linejoin:round;stroke:rgb(18.431373%,30.980392%,30.980392%);stroke-opacity:1;stroke-miterlimit:10;" d="M 551.632812 192.316406 C 551.632812 196.046875 548.605469 199.074219 544.875 199.074219 C 541.144531 199.074219 538.121094 196.046875 538.121094 192.316406 C 538.121094 188.585938 541.144531 185.5625 544.875 185.5625 C 548.605469 185.5625 551.632812 188.585938 551.632812 192.316406 "/>
<path style="fill-rule:nonzero;fill:rgb(18.431373%,30.980392%,30.980392%);fill-opacity:1;stroke-width:0.708661;stroke-linecap:round;stroke-linejoin:round;stroke:rgb(18.431373%,30.980392%,30.980392%);stroke-opacity:1;stroke-miterlimit:10;" d="M 558.679688 171.007812 C 558.679688 174.742188 555.65625 177.765625 551.925781 177.765625 C 548.195312 177.765625 545.167969 174.742188 545.167969 171.007812 C 545.167969 167.277344 548.195312 164.253906 551.925781 164.253906 C 555.65625 164.253906 558.679688 167.277344 558.679688 171.007812 "/>
<path style="fill-rule:nonzero;fill:rgb(18.431373%,30.980392%,30.980392%);fill-opacity:1;stroke-width:0.708661;stroke-linecap:round;stroke-linejoin:round;stroke:rgb(18.431373%,30.980392%,30.980392%);stroke-opacity:1;stroke-miterlimit:10;" d="M 565.730469 168.464844 C 565.730469 172.199219 562.707031 175.222656 558.972656 175.222656 C 555.242188 175.222656 552.21875 172.199219 552.21875 168.464844 C 552.21875 164.734375 555.242188 161.710938 558.972656 161.710938 C 562.707031 161.710938 565.730469 164.734375 565.730469 168.464844 "/>
<path style="fill-rule:nonzero;fill:rgb(18.431373%,30.980392%,30.980392%);fill-opacity:1;stroke-width:0.708661;stroke-linecap:round;stroke-linejoin:round;stroke:rgb(18.431373%,30.980392%,30.980392%);stroke-opacity:1;stroke-miterlimit:10;" d="M 572.78125 107.140625 C 572.78125 110.871094 569.753906 113.898438 566.023438 113.898438 C 562.292969 113.898438 559.265625 110.871094 559.265625 107.140625 C 559.265625 103.410156 562.292969 100.386719 566.023438 100.386719 C 569.753906 100.386719 572.78125 103.410156 572.78125 107.140625 "/>
<path style="fill-rule:nonzero;fill:rgb(18.431373%,30.980392%,30.980392%);fill-opacity:1;stroke-width:0.708661;stroke-linecap:round;stroke-linejoin:round;stroke:rgb(18.431373%,30.980392%,30.980392%);stroke-opacity:1;stroke-miterlimit:10;" d="M 579.828125 109.511719 C 579.828125 113.242188 576.804688 116.265625 573.074219 116.265625 C 569.339844 116.265625 566.316406 113.242188 566.316406 109.511719 C 566.316406 105.78125 569.339844 102.753906 573.074219 102.753906 C 576.804688 102.753906 579.828125 105.78125 579.828125 109.511719 "/>
<path style="fill-rule:nonzero;fill:rgb(18.431373%,30.980392%,30.980392%);fill-opacity:1;stroke-width:0.708661;stroke-linecap:round;stroke-linejoin:round;stroke:rgb(18.431373%,30.980392%,30.980392%);stroke-opacity:1;stroke-miterlimit:10;" d="M 586.878906 193.164062 C 586.878906 196.894531 583.851562 199.921875 580.121094 199.921875 C 576.390625 199.921875 573.367188 196.894531 573.367188 193.164062 C 573.367188 189.433594 576.390625 186.410156 580.121094 186.410156 C 583.851562 186.410156 586.878906 189.433594 586.878906 193.164062 "/>
<path style="fill-rule:nonzero;fill:rgb(18.431373%,30.980392%,30.980392%);fill-opacity:1;stroke-width:0.708661;stroke-linecap:round;stroke-linejoin:round;stroke:rgb(18.431373%,30.980392%,30.980392%);stroke-opacity:1;stroke-miterlimit:10;" d="M 593.925781 100.78125 C 593.925781 104.511719 590.902344 107.535156 587.171875 107.535156 C 583.441406 107.535156 580.414062 104.511719 580.414062 100.78125 C 580.414062 97.050781 583.441406 94.023438 587.171875 94.023438 C 590.902344 94.023438 593.925781 97.050781 593.925781 100.78125 "/>
<path style="fill-rule:nonzero;fill:rgb(18.431373%,30.980392%,30.980392%);fill-opacity:1;stroke-width:0.708661;stroke-linecap:round;stroke-linejoin:round;stroke:rgb(18.431373%,30.980392%,30.980392%);stroke-opacity:1;stroke-miterlimit:10;" d="M 600.976562 100.175781 C 600.976562 103.910156 597.953125 106.933594 594.21875 106.933594 C 590.488281 106.933594 587.464844 103.910156 587.464844 100.175781 C 587.464844 96.445312 590.488281 93.421875 594.21875 93.421875 C 597.953125 93.421875 600.976562 96.445312 600.976562 100.175781 "/>
<path style="fill-rule:nonzero;fill:rgb(18.431373%,30.980392%,30.980392%);fill-opacity:1;stroke-width:0.708661;stroke-linecap:round;stroke-linejoin:round;stroke:rgb(18.431373%,30.980392%,30.980392%);stroke-opacity:1;stroke-miterlimit:10;" d="M 608.027344 99.125 C 608.027344 102.855469 605 105.882812 601.269531 105.882812 C 597.539062 105.882812 594.511719 102.855469 594.511719 99.125 C 594.511719 95.394531 597.539062 92.371094 601.269531 92.371094 C 605 92.371094 608.027344 95.394531 608.027344 99.125 "/>
<path style="fill-rule:nonzero;fill:rgb(18.431373%,30.980392%,30.980392%);fill-opacity:1;stroke-width:0.708661;stroke-linecap:round;stroke-linejoin:round;stroke:rgb(18.431373%,30.980392%,30.980392%);stroke-opacity:1;stroke-miterlimit:10;" d="M 615.074219 107.683594 C 615.074219 111.417969 612.050781 114.441406 608.320312 114.441406 C 604.585938 114.441406 601.5625 111.417969 601.5625 107.683594 C 601.5625 103.953125 604.585938 100.929688 608.320312 100.929688 C 612.050781 100.929688 615.074219 103.953125 615.074219 107.683594 "/>
<path style="fill-rule:nonzero;fill:rgb(18.431373%,30.980392%,30.980392%);fill-opacity:1;stroke-width:0.708661;stroke-linecap:round;stroke-linejoin:round;stroke:rgb(18.431373%,30.980392%,30.980392%);stroke-opacity:1;stroke-miterlimit:10;" d="M 622.125 110.785156 C 622.125 114.515625 619.097656 117.539062 615.367188 117.539062 C 611.636719 117.539062 608.613281 114.515625 608.613281 110.785156 C 608.613281 107.054688 611.636719 104.027344 615.367188 104.027344 C 619.097656 104.027344 622.125 107.054688 622.125 110.785156 "/>
<path style="fill-rule:nonzero;fill:rgb(18.431373%,30.980392%,30.980392%);fill-opacity:1;stroke-width:0.708661;stroke-linecap:round;stroke-linejoin:round;stroke:rgb(18.431373%,30.980392%,30.980392%);stroke-opacity:1;stroke-miterlimit:10;" d="M 629.171875 103.226562 C 629.171875 106.957031 626.148438 109.984375 622.417969 109.984375 C 618.6875 109.984375 615.660156 106.957031 615.660156 103.226562 C 615.660156 99.496094 618.6875 96.46875 622.417969 96.46875 C 626.148438 96.46875 629.171875 99.496094 629.171875 103.226562 "/>
<path style="fill-rule:nonzero;fill:rgb(18.431373%,30.980392%,30.980392%);fill-opacity:1;stroke-width:0.708661;stroke-linecap:round;stroke-linejoin:round;stroke:rgb(18.431373%,30.980392%,30.980392%);stroke-opacity:1;stroke-miterlimit:10;" d="M 636.222656 118.085938 C 636.222656 121.820312 633.199219 124.84375 629.464844 124.84375 C 625.734375 124.84375 622.710938 121.820312 622.710938 118.085938 C 622.710938 114.355469 625.734375 111.332031 629.464844 111.332031 C 633.199219 111.332031 636.222656 114.355469 636.222656 118.085938 "/>
<path style="fill-rule:nonzero;fill:rgb(18.431373%,30.980392%,30.980392%);fill-opacity:1;stroke-width:0.708661;stroke-linecap:round;stroke-linejoin:round;stroke:rgb(18.431373%,30.980392%,30.980392%);stroke-opacity:1;stroke-miterlimit:10;" d="M 643.273438 63.652344 C 643.273438 67.382812 640.246094 70.410156 636.515625 70.410156 C 632.785156 70.410156 629.757812 67.382812 629.757812 63.652344 C 629.757812 59.921875 632.785156 56.898438 636.515625 56.898438 C 640.246094 56.898438 643.273438 59.921875 643.273438 63.652344 "/>
<path style="fill-rule:nonzero;fill:rgb(18.431373%,30.980392%,30.980392%);fill-opacity:1;stroke-width:0.708661;stroke-linecap:round;stroke-linejoin:round;stroke:rgb(18.431373%,30.980392%,30.980392%);stroke-opacity:1;stroke-miterlimit:10;" d="M 650.320312 112.019531 C 650.320312 115.753906 647.296875 118.777344 643.566406 118.777344 C 639.832031 118.777344 636.808594 115.753906 636.808594 112.019531 C 636.808594 108.289062 639.832031 105.265625 643.566406 105.265625 C 647.296875 105.265625 650.320312 108.289062 650.320312 112.019531 "/>
<path style="fill-rule:nonzero;fill:rgb(18.431373%,30.980392%,30.980392%);fill-opacity:1;stroke-width:0.708661;stroke-linecap:round;stroke-linejoin:round;stroke:rgb(18.431373%,30.980392%,30.980392%);stroke-opacity:1;stroke-miterlimit:10;" d="M 657.371094 95.359375 C 657.371094 99.089844 654.34375 102.113281 650.613281 102.113281 C 646.882812 102.113281 643.859375 99.089844 643.859375 95.359375 C 643.859375 91.625 646.882812 88.601562 650.613281 88.601562 C 654.34375 88.601562 657.371094 91.625 657.371094 95.359375 "/>
<path style="fill-rule:nonzero;fill:rgb(18.431373%,30.980392%,30.980392%);fill-opacity:1;stroke-width:0.708661;stroke-linecap:round;stroke-linejoin:round;stroke:rgb(18.431373%,30.980392%,30.980392%);stroke-opacity:1;stroke-miterlimit:10;" d="M 664.417969 101.4375 C 664.417969 105.167969 661.394531 108.195312 657.664062 108.195312 C 653.933594 108.195312 650.90625 105.167969 650.90625 101.4375 C 650.90625 97.707031 653.933594 94.683594 657.664062 94.683594 C 661.394531 94.683594 664.417969 97.707031 664.417969 101.4375 "/>
<path style="fill-rule:nonzero;fill:rgb(18.431373%,30.980392%,30.980392%);fill-opacity:1;stroke-width:0.708661;stroke-linecap:round;stroke-linejoin:round;stroke:rgb(18.431373%,30.980392%,30.980392%);stroke-opacity:1;stroke-miterlimit:10;" d="M 671.46875 78.878906 C 671.46875 82.613281 668.445312 85.636719 664.710938 85.636719 C 660.980469 85.636719 657.957031 82.613281 657.957031 78.878906 C 657.957031 75.148438 660.980469 72.125 664.710938 72.125 C 668.445312 72.125 671.46875 75.148438 671.46875 78.878906 "/>
<path style="fill-rule:nonzero;fill:rgb(18.431373%,30.980392%,30.980392%);fill-opacity:1;stroke-width:0.708661;stroke-linecap:round;stroke-linejoin:round;stroke:rgb(18.431373%,30.980392%,30.980392%);stroke-opacity:1;stroke-miterlimit:10;" d="M 678.519531 87.886719 C 678.519531 91.621094 675.492188 94.644531 671.761719 94.644531 C 668.03125 94.644531 665.003906 91.621094 665.003906 87.886719 C 665.003906 84.15625 668.03125 81.132812 671.761719 81.132812 C 675.492188 81.132812 678.519531 84.15625 678.519531 87.886719 "/>
<path style="fill-rule:nonzero;fill:rgb(18.431373%,30.980392%,30.980392%);fill-opacity:1;stroke-width:0.708661;stroke-linecap:round;stroke-linejoin:round;stroke:rgb(18.431373%,30.980392%,30.980392%);stroke-opacity:1;stroke-miterlimit:10;" d="M 685.566406 60.957031 C 685.566406 64.691406 682.542969 67.714844 678.8125 67.714844 C 675.078125 67.714844 672.054688 64.691406 672.054688 60.957031 C 672.054688 57.226562 675.078125 54.203125 678.8125 54.203125 C 682.542969 54.203125 685.566406 57.226562 685.566406 60.957031 "/>
<path style="fill-rule:nonzero;fill:rgb(18.431373%,30.980392%,30.980392%);fill-opacity:1;stroke-width:0.708661;stroke-linecap:round;stroke-linejoin:round;stroke:rgb(18.431373%,30.980392%,30.980392%);stroke-opacity:1;stroke-miterlimit:10;" d="M 692.617188 23.4375 C 692.617188 27.171875 689.589844 30.195312 685.859375 30.195312 C 682.128906 30.195312 679.105469 27.171875 679.105469 23.4375 C 679.105469 19.707031 682.128906 16.683594 685.859375 16.683594 C 689.589844 16.683594 692.617188 19.707031 692.617188 23.4375 "/>
<path style="fill-rule:nonzero;fill:rgb(18.431373%,30.980392%,30.980392%);fill-opacity:1;stroke-width:0.708661;stroke-linecap:round;stroke-linejoin:round;stroke:rgb(18.431373%,30.980392%,30.980392%);stroke-opacity:1;stroke-miterlimit:10;" d="M 699.664062 67.804688 C 699.664062 71.539062 696.640625 74.5625 692.910156 74.5625 C 689.179688 74.5625 686.152344 71.539062 686.152344 67.804688 C 686.152344 64.074219 689.179688 61.050781 692.910156 61.050781 C 696.640625 61.050781 699.664062 64.074219 699.664062 67.804688 "/>
<path style="fill-rule:nonzero;fill:rgb(18.431373%,30.980392%,30.980392%);fill-opacity:1;stroke-width:0.708661;stroke-linecap:round;stroke-linejoin:round;stroke:rgb(18.431373%,30.980392%,30.980392%);stroke-opacity:1;stroke-miterlimit:10;" d="M 706.714844 49.824219 C 706.714844 53.554688 703.691406 56.578125 699.957031 56.578125 C 696.226562 56.578125 693.203125 53.554688 693.203125 49.824219 C 693.203125 46.09375 696.226562 43.066406 699.957031 43.066406 C 703.691406 43.066406 706.714844 46.09375 706.714844 49.824219 "/>
<path style="fill-rule:nonzero;fill:rgb(18.431373%,30.980392%,30.980392%);fill-opacity:1;stroke-width:0.708661;stroke-linecap:round;stroke-linejoin:round;stroke:rgb(18.431373%,30.980392%,30.980392%);stroke-opacity:1;stroke-miterlimit:10;" d="M 713.765625 59.277344 C 713.765625 63.007812 710.738281 66.035156 707.007812 66.035156 C 703.277344 66.035156 700.25 63.007812 700.25 59.277344 C 700.25 55.546875 703.277344 52.519531 707.007812 52.519531 C 710.738281 52.519531 713.765625 55.546875 713.765625 59.277344 "/>
<path style="fill-rule:nonzero;fill:rgb(18.431373%,30.980392%,30.980392%);fill-opacity:1;stroke-width:0.708661;stroke-linecap:round;stroke-linejoin:round;stroke:rgb(18.431373%,30.980392%,30.980392%);stroke-opacity:1;stroke-miterlimit:10;" d="M 720.8125 53.171875 C 720.8125 56.902344 717.789062 59.925781 714.058594 59.925781 C 710.324219 59.925781 707.300781 56.902344 707.300781 53.171875 C 707.300781 49.441406 710.324219 46.414062 714.058594 46.414062 C 717.789062 46.414062 720.8125 49.441406 720.8125 53.171875 "/>
<path style="fill-rule:nonzero;fill:rgb(18.431373%,30.980392%,30.980392%);fill-opacity:1;stroke-width:0.708661;stroke-linecap:round;stroke-linejoin:round;stroke:rgb(18.431373%,30.980392%,30.980392%);stroke-opacity:1;stroke-miterlimit:10;" d="M 727.863281 63.351562 C 727.863281 67.082031 724.835938 70.105469 721.105469 70.105469 C 717.375 70.105469 714.351562 67.082031 714.351562 63.351562 C 714.351562 59.621094 717.375 56.59375 721.105469 56.59375 C 724.835938 56.59375 727.863281 59.621094 727.863281 63.351562 "/>
<path style="fill:none;stroke-width:6.40187;stroke-linecap:butt;stroke-linejoin:round;stroke:rgb(94.117647%,50.196078%,50.196078%);stroke-opacity:1;stroke-miterlimit:10;" d="M 23.234375 464.960938 L 32.066406 459.613281 L 40.902344 454.265625 L 49.734375 448.917969 L 58.570312 443.570312 L 67.402344 438.222656 L 76.238281 432.875 L 93.902344 422.179688 L 102.738281 416.832031 L 111.570312 411.484375 L 120.40625 406.136719 L 129.238281 400.789062 L 138.074219 395.441406 L 146.90625 390.09375 L 155.742188 384.746094 L 164.574219 379.398438 L 173.410156 374.050781 L 182.242188 368.703125 L 191.078125 363.355469 L 208.742188 352.660156 L 217.578125 347.3125 L 226.410156 341.964844 L 235.246094 336.617188 L 244.078125 331.269531 L 252.914062 325.921875 L 261.746094 320.574219 L 270.582031 315.226562 L 279.414062 309.878906 L 288.25 304.53125 L 297.082031 299.183594 L 305.917969 293.835938 L 323.582031 283.140625 L 332.417969 277.792969 L 341.25 272.445312 L 350.085938 267.097656 L 358.917969 261.75 L 367.753906 256.402344 L 376.585938 251.054688 L 385.421875 245.707031 L 394.253906 240.359375 L 403.089844 235.011719 L 411.921875 229.664062 L 420.757812 224.316406 L 438.421875 213.621094 L 447.257812 208.273438 L 456.089844 202.925781 L 464.925781 197.578125 L 473.757812 192.230469 L 482.59375 186.882812 L 491.425781 181.535156 L 500.261719 176.1875 L 509.09375 170.839844 L 517.929688 165.492188 L 526.761719 160.144531 L 535.597656 154.796875 L 553.261719 144.101562 L 562.097656 138.753906 L 570.929688 133.40625 L 579.765625 128.058594 L 588.597656 122.710938 L 597.433594 117.363281 L 606.265625 112.015625 L 615.101562 106.667969 L 623.933594 101.320312 L 632.769531 95.972656 L 641.601562 90.625 L 650.4375 85.277344 L 668.101562 74.582031 L 676.9375 69.234375 L 685.769531 63.886719 L 694.605469 58.539062 L 703.4375 53.191406 L 712.273438 47.84375 L 721.105469 42.496094 "/>
</g>
</svg>
