<?xml version="1.0" encoding="UTF-8"?>
<svg xmlns="http://www.w3.org/2000/svg" xmlns:xlink="http://www.w3.org/1999/xlink" width="756pt" height="504pt" viewBox="0 0 756 504" version="1.1">
<g id="surface19">
<rect x="0" y="0" width="756" height="504" style="fill:rgb(100%,100%,100%);fill-opacity:1;stroke:none;"/>
<path style="fill-rule:nonzero;fill:rgb(18.431373%,30.980392%,30.980392%);fill-opacity:1;stroke-width:0.708661;stroke-linecap:round;stroke-linejoin:round;stroke:rgb(18.431373%,30.980392%,30.980392%);stroke-opacity:1;stroke-miterlimit:10;" d="M 29.988281 472.652344 C 29.988281 476.382812 26.964844 479.40625 23.234375 479.40625 C 19.503906 479.40625 16.476562 476.382812 16.476562 472.652344 C 16.476562 468.921875 19.503906 465.894531 23.234375 465.894531 C 26.964844 465.894531 29.988281 468.921875 29.988281 472.652344 "/>
<path style="fill-rule:nonzero;fill:rgb(18.431373%,30.980392%,30.980392%);fill-opacity:1;stroke-width:0.708661;stroke-linecap:round;stroke-linejoin:round;stroke:rgb(18.431373%,30.980392%,30.980392%);stroke-opacity:1;stroke-miterlimit:10;" d="M 37.039062 455.042969 C 37.039062 458.773438 34.015625 461.800781 30.28125 461.800781 C 26.550781 461.800781 23.527344 458.773438 23.527344 455.042969 C 23.527344 451.3125 26.550781 448.285156 30.28125 448.285156 C 34.015625 448.285156 37.039062 451.3125 37.039062 455.042969 "/>
<path style="fill-rule:nonzero;fill:rgb(18.431373%,30.980392%,30.980392%);fill-opacity:1;stroke-width:0.708661;stroke-linecap:round;stroke-linejoin:round;stroke:rgb(18.431373%,30.980392%,30.980392%);stroke-opacity:1;stroke-miterlimit:10;" d="M 44.089844 462.679688 C 44.089844 466.410156 41.0625 469.4375 37.332031 469.4375 C 33.601562 469.4375 30.574219 466.410156 30.574219 462.679688 C 30.574219 458.949219 33.601562 455.921875 37.332031 455.921875 C 41.0625 455.921875 44.089844 458.949219 44.089844 462.679688 "/>
<path style="fill-rule:nonzero;fill:rgb(18.431373%,30.980392%,30.980392%);fill-opacity:1;stroke-width:0.708661;stroke-linecap:round;stroke-linejoin:round;stroke:rgb(18.431373%,30.980392%,30.980392%);stroke-opacity:1;stroke-miterlimit:10;" d="M 51.136719 446.371094 C 51.136719 450.101562 48.113281 453.128906 44.382812 453.128906 C 40.648438 453.128906 37.625 450.101562 37.625 446.371094 C 37.625 442.640625 40.648438 439.617188 44.382812 439.617188 C 48.113281 439.617188 51.136719 442.640625 51.136719 446.371094 "/>
<path style="fill-rule:nonzero;fill:rgb(18.431373%,30.980392%,30.980392%);fill-opacity:1;stroke-width:0.708661;stroke-linecap:round;stroke-linejoin:round;stroke:rgb(18.431373%,30.980392%,30.980392%);stroke-opacity:1;stroke-miterlimit:10;" d="M 58.1875 492.222656 C 58.1875 495.953125 55.160156 498.976562 51.429688 498.976562 C 47.699219 498.976562 44.675781 495.953125 44.675781 492.222656 C 44.675781 488.488281 47.699219 485.464844 51.429688 485.464844 C 55.160156 485.464844 58.1875 488.488281 58.1875 492.222656 "/>
<path style="fill-rule:nonzero;fill:rgb(18.431373%,30.980392%,30.980392%);fill-opacity:1;stroke-width:0.708661;stroke-linecap:round;stroke-linejoin:round;stroke:rgb(18.431373%,30.980392%,30.980392%);stroke-opacity:1;stroke-miterlimit:10;" d="M 65.234375 421.382812 C 65.234375 425.113281 62.210938 428.140625 58.480469 428.140625 C 54.75 428.140625 51.722656 425.113281 51.722656 421.382812 C 51.722656 417.652344 54.75 414.625 58.480469 414.625 C 62.210938 414.625 65.234375 417.652344 65.234375 421.382812 "/>
<path style="fill-rule:nonzero;fill:rgb(18.431373%,30.980392%,30.980392%);fill-opacity:1;stroke-width:0.708661;stroke-linecap:round;stroke-linejoin:round;stroke:rgb(18.431373%,30.980392%,30.980392%);stroke-opacity:1;stroke-miterlimit:10;" d="M 72.285156 434.75 C 72.285156 438.480469 69.261719 441.507812 65.527344 441.507812 C 61.796875 441.507812 58.773438 438.480469 58.773438 434.75 C 58.773438 431.019531 61.796875 427.996094 65.527344 427.996094 C 69.261719 427.996094 72.285156 431.019531 72.285156 434.75 "/>
<path style="fill-rule:nonzero;fill:rgb(18.431373%,30.980392%,30.980392%);fill-opacity:1;stroke-width:0.708661;stroke-linecap:round;stroke-linejoin:round;stroke:rgb(18.431373%,30.980392%,30.980392%);stroke-opacity:1;stroke-miterlimit:10;" d="M 79.335938 431.191406 C 79.335938 434.921875 76.308594 437.945312 72.578125 437.945312 C 68.847656 437.945312 65.820312 434.921875 65.820312 431.191406 C 65.820312 427.457031 68.847656 424.433594 72.578125 424.433594 C 76.308594 424.433594 79.335938 427.457031 79.335938 431.191406 "/>
<path style="fill-rule:nonzero;fill:rgb(18.431373%,30.980392%,30.980392%);fill-opacity:1;stroke-width:0.708661;stroke-linecap:round;stroke-linejoin:round;stroke:rgb(18.431373%,30.980392%,30.980392%);stroke-opacity:1;stroke-miterlimit:10;" d="M 86.382812 453.257812 C 86.382812 456.992188 83.359375 460.015625 79.628906 460.015625 C 75.894531 460.015625 72.871094 456.992188 72.871094 453.257812 C 72.871094 449.527344 75.894531 446.503906 79.628906 446.503906 C 83.359375 446.503906 86.382812 449.527344 86.382812 453.257812 "/>
<path style="fill-rule:nonzero;fill:rgb(18.431373%,30.980392%,30.980392%);fill-opacity:1;stroke-width:0.708661;stroke-linecap:round;stroke-linejoin:round;stroke:rgb(18.431373%,30.980392%,30.980392%);stroke-opacity:1;stroke-miterlimit:10;" d="M 93.433594 413.304688 C 93.433594 417.035156 90.40625 420.0625 86.675781 420.0625 C 82.945312 420.0625 79.921875 417.035156 79.921875 413.304688 C 79.921875 409.574219 82.945312 406.550781 86.675781 406.550781 C 90.40625 406.550781 93.433594 409.574219 93.433594 413.304688 "/>
<path style="fill-rule:nonzero;fill:rgb(18.431373%,30.980392%,30.980392%);fill-opacity:1;stroke-width:0.708661;stroke-linecap:round;stroke-linejoin:round;stroke:rgb(18.431373%,30.980392%,30.980392%);stroke-opacity:1;stroke-miterlimit:10;" d="M 100.480469 432.644531 C 100.480469 436.375 97.457031 439.402344 93.726562 439.402344 C 89.996094 439.402344 86.96875 436.375 86.96875 432.644531 C 86.96875 428.914062 89.996094 425.886719 93.726562 425.886719 C 97.457031 425.886719 100.480469 428.914062 100.480469 432.644531 "/>
<path style="fill-rule:nonzero;fill:rgb(18.431373%,30.980392%,30.980392%);fill-opacity:1;stroke-width:0.708661;stroke-linecap:round;stroke-linejoin:round;stroke:rgb(18.431373%,30.980392%,30.980392%);stroke-opacity:1;stroke-miterlimit:10;" d="M 107.53125 433.625 C 107.53125 437.355469 104.507812 440.378906 100.773438 440.378906 C 97.042969 440.378906 94.019531 437.355469 94.019531 433.625 C 94.019531 429.890625 97.042969 426.867188 100.773438 426.867188 C 104.507812 426.867188 107.53125 429.890625 107.53125 433.625 "/>
<path style="fill-rule:nonzero;fill:rgb(18.431373%,30.980392%,30.980392%);fill-opacity:1;stroke-width:0.708661;stroke-linecap:round;stroke-linejoin:round;stroke:rgb(18.431373%,30.980392%,30.980392%);stroke-opacity:1;stroke-miterlimit:10;" d="M 114.582031 399.703125 C 114.582031 403.4375 111.554688 406.460938 107.824219 406.460938 C 104.09375 406.460938 101.066406 403.4375 101.066406 399.703125 C 101.066406 395.972656 104.09375 392.949219 107.824219 392.949219 C 111.554688 392.949219 114.582031 395.972656 114.582031 399.703125 "/>
<path style="fill-rule:nonzero;fill:rgb(18.431373%,30.980392%,30.980392%);fill-opacity:1;stroke-width:0.708661;stroke-linecap:round;stroke-linejoin:round;stroke:rgb(18.431373%,30.980392%,30.980392%);stroke-opacity:1;stroke-miterlimit:10;" d="M 121.628906 416.554688 C 121.628906 420.285156 118.605469 423.308594 114.875 423.308594 C 111.140625 423.308594 108.117188 420.285156 108.117188 416.554688 C 108.117188 412.820312 111.140625 409.796875 114.875 409.796875 C 118.605469 409.796875 121.628906 412.820312 121.628906 416.554688 "/>
<path style="fill-rule:nonzero;fill:rgb(18.431373%,30.980392%,30.980392%);fill-opacity:1;stroke-width:0.708661;stroke-linecap:round;stroke-linejoin:round;stroke:rgb(18.431373%,30.980392%,30.980392%);stroke-opacity:1;stroke-miterlimit:10;" d="M 128.679688 401.035156 C 128.679688 404.765625 125.652344 407.792969 121.921875 407.792969 C 118.191406 407.792969 115.167969 404.765625 115.167969 401.035156 C 115.167969 397.304688 118.191406 394.277344 121.921875 394.277344 C 125.652344 394.277344 128.679688 397.304688 128.679688 401.035156 "/>
<path style="fill-rule:nonzero;fill:rgb(18.431373%,30.980392%,30.980392%);fill-opacity:1;stroke-width:0.708661;stroke-linecap:round;stroke-linejoin:round;stroke:rgb(18.431373%,30.980392%,30.980392%);stroke-opacity:1;stroke-miterlimit:10;" d="M 135.726562 429.296875 C 135.726562 433.027344 132.703125 436.050781 128.972656 436.050781 C 125.242188 436.050781 122.214844 433.027344 122.214844 429.296875 C 122.214844 425.566406 125.242188 422.539062 128.972656 422.539062 C 132.703125 422.539062 135.726562 425.566406 135.726562 429.296875 "/>
<path style="fill-rule:nonzero;fill:rgb(18.431373%,30.980392%,30.980392%);fill-opacity:1;stroke-width:0.708661;stroke-linecap:round;stroke-linejoin:round;stroke:rgb(18.431373%,30.980392%,30.980392%);stroke-opacity:1;stroke-miterlimit:10;" d="M 142.777344 410.753906 C 142.777344 414.488281 139.753906 417.511719 136.019531 417.511719 C 132.289062 417.511719 129.265625 414.488281 129.265625 410.753906 C 129.265625 407.023438 132.289062 404 136.019531 404 C 139.753906 404 142.777344 407.023438 142.777344 410.753906 "/>
<path style="fill-rule:nonzero;fill:rgb(18.431373%,30.980392%,30.980392%);fill-opacity:1;stroke-width:0.708661;stroke-linecap:round;stroke-linejoin:round;stroke:rgb(18.431373%,30.980392%,30.980392%);stroke-opacity:1;stroke-miterlimit:10;" d="M 149.828125 393.679688 C 149.828125 397.410156 146.800781 400.433594 143.070312 400.433594 C 139.339844 400.433594 136.3125 397.410156 136.3125 393.679688 C 136.3125 389.945312 139.339844 386.921875 143.070312 386.921875 C 146.800781 386.921875 149.828125 389.945312 149.828125 393.679688 "/>
<path style="fill-rule:nonzero;fill:rgb(18.431373%,30.980392%,30.980392%);fill-opacity:1;stroke-width:0.708661;stroke-linecap:round;stroke-linejoin:round;stroke:rgb(18.431373%,30.980392%,30.980392%);stroke-opacity:1;stroke-miterlimit:10;" d="M 156.875 390.066406 C 156.875 393.796875 153.851562 396.824219 150.121094 396.824219 C 146.386719 396.824219 143.363281 393.796875 143.363281 390.066406 C 143.363281 386.335938 146.386719 383.3125 150.121094 383.3125 C 153.851562 383.3125 156.875 386.335938 156.875 390.066406 "/>
<path style="fill-rule:nonzero;fill:rgb(18.431373%,30.980392%,30.980392%);fill-opacity:1;stroke-width:0.708661;stroke-linecap:round;stroke-linejoin:round;stroke:rgb(18.431373%,30.980392%,30.980392%);stroke-opacity:1;stroke-miterlimit:10;" d="M 163.925781 405.609375 C 163.925781 409.339844 160.898438 412.367188 157.167969 412.367188 C 153.4375 412.367188 150.414062 409.339844 150.414062 405.609375 C 150.414062 401.878906 153.4375 398.855469 157.167969 398.855469 C 160.898438 398.855469 163.925781 401.878906 163.925781 405.609375 "/>
<path style="fill-rule:nonzero;fill:rgb(18.431373%,30.980392%,30.980392%);fill-opacity:1;stroke-width:0.708661;stroke-linecap:round;stroke-linejoin:round;stroke:rgb(18.431373%,30.980392%,30.980392%);stroke-opacity:1;stroke-miterlimit:10;" d="M 170.972656 377.035156 C 170.972656 380.765625 167.949219 383.789062 164.21875 383.789062 C 160.488281 383.789062 157.460938 380.765625 157.460938 377.035156 C 157.460938 373.304688 160.488281 370.277344 164.21875 370.277344 C 167.949219 370.277344 170.972656 373.304688 170.972656 377.035156 "/>
<path style="fill-rule:nonzero;fill:rgb(18.431373%,30.980392%,30.980392%);fill-opacity:1;stroke-width:0.708661;stroke-linecap:round;stroke-linejoin:round;stroke:rgb(18.431373%,30.980392%,30.980392%);stroke-opacity:1;stroke-miterlimit:10;" d="M 178.023438 390.207031 C 178.023438 393.9375 175 396.964844 171.265625 396.964844 C 167.535156 396.964844 164.511719 393.9375 164.511719 390.207031 C 164.511719 386.476562 167.535156 383.449219 171.265625 383.449219 C 175 383.449219 178.023438 386.476562 178.023438 390.207031 "/>
<path style="fill-rule:nonzero;fill:rgb(18.431373%,30.980392%,30.980392%);fill-opacity:1;stroke-width:0.708661;stroke-linecap:round;stroke-linejoin:round;stroke:rgb(18.431373%,30.980392%,30.980392%);stroke-opacity:1;stroke-miterlimit:10;" d="M 185.074219 352.464844 C 185.074219 356.195312 182.046875 359.222656 178.316406 359.222656 C 174.585938 359.222656 171.558594 356.195312 171.558594 352.464844 C 171.558594 348.734375 174.585938 345.707031 178.316406 345.707031 C 182.046875 345.707031 185.074219 348.734375 185.074219 352.464844 "/>
<path style="fill-rule:nonzero;fill:rgb(18.431373%,30.980392%,30.980392%);fill-opacity:1;stroke-width:0.708661;stroke-linecap:round;stroke-linejoin:round;stroke:rgb(18.431373%,30.980392%,30.980392%);stroke-opacity:1;stroke-miterlimit:10;" d="M 192.121094 380.3125 C 192.121094 384.046875 189.097656 387.070312 185.367188 387.070312 C 181.632812 387.070312 178.609375 384.046875 178.609375 380.3125 C 178.609375 376.582031 181.632812 373.558594 185.367188 373.558594 C 189.097656 373.558594 192.121094 376.582031 192.121094 380.3125 "/>
<path style="fill-rule:nonzero;fill:rgb(18.431373%,30.980392%,30.980392%);fill-opacity:1;stroke-width:0.708661;stroke-linecap:round;stroke-linejoin:round;stroke:rgb(18.431373%,30.980392%,30.980392%);stroke-opacity:1;stroke-miterlimit:10;" d="M 199.171875 391.863281 C 199.171875 395.59375 196.144531 398.617188 192.414062 398.617188 C 188.683594 398.617188 185.660156 395.59375 185.660156 391.863281 C 185.660156 388.132812 188.683594 385.105469 192.414062 385.105469 C 196.144531 385.105469 199.171875 388.132812 199.171875 391.863281 "/>
<path style="fill-rule:nonzero;fill:rgb(18.431373%,30.980392%,30.980392%);fill-opacity:1;stroke-width:0.708661;stroke-linecap:round;stroke-linejoin:round;stroke:rgb(18.431373%,30.980392%,30.980392%);stroke-opacity:1;stroke-miterlimit:10;" d="M 206.21875 365.777344 C 206.21875 369.507812 203.195312 372.535156 199.464844 372.535156 C 195.734375 372.535156 192.707031 369.507812 192.707031 365.777344 C 192.707031 362.046875 195.734375 359.019531 199.464844 359.019531 C 203.195312 359.019531 206.21875 362.046875 206.21875 365.777344 "/>
<path style="fill-rule:nonzero;fill:rgb(18.431373%,30.980392%,30.980392%);fill-opacity:1;stroke-width:0.708661;stroke-linecap:round;stroke-linejoin:round;stroke:rgb(18.431373%,30.980392%,30.980392%);stroke-opacity:1;stroke-miterlimit:10;" d="M 213.269531 337.21875 C 213.269531 340.949219 210.246094 343.972656 206.511719 343.972656 C 202.78125 343.972656 199.757812 340.949219 199.757812 337.21875 C 199.757812 333.488281 202.78125 330.460938 206.511719 330.460938 C 210.246094 330.460938 213.269531 333.488281 213.269531 337.21875 "/>
<path style="fill-rule:nonzero;fill:rgb(18.431373%,30.980392%,30.980392%);fill-opacity:1;stroke-width:0.708661;stroke-linecap:round;stroke-linejoin:round;stroke:rgb(18.431373%,30.980392%,30.980392%);stroke-opacity:1;stroke-miterlimit:10;" d="M 220.320312 368.179688 C 220.320312 371.910156 217.292969 374.9375 213.5625 374.9375 C 209.832031 374.9375 206.804688 371.910156 206.804688 368.179688 C 206.804688 364.449219 209.832031 361.425781 213.5625 361.425781 C 217.292969 361.425781 220.320312 364.449219 220.320312 368.179688 "/>
<path style="fill-rule:nonzero;fill:rgb(18.431373%,30.980392%,30.980392%);fill-opacity:1;stroke-width:0.708661;stroke-linecap:round;stroke-linejoin:round;stroke:rgb(18.431373%,30.980392%,30.980392%);stroke-opacity:1;stroke-miterlimit:10;" d="M 227.367188 336.457031 C 227.367188 340.191406 224.34375 343.214844 220.613281 343.214844 C 216.878906 343.214844 213.855469 340.191406 213.855469 336.457031 C 213.855469 332.726562 216.878906 329.703125 220.613281 329.703125 C 224.34375 329.703125 227.367188 332.726562 227.367188 336.457031 "/>
<path style="fill-rule:nonzero;fill:rgb(18.431373%,30.980392%,30.980392%);fill-opacity:1;stroke-width:0.708661;stroke-linecap:round;stroke-linejoin:round;stroke:rgb(18.431373%,30.980392%,30.980392%);stroke-opacity:1;stroke-miterlimit:10;" d="M 234.417969 350.746094 C 234.417969 354.476562 231.390625 357.503906 227.660156 357.503906 C 223.929688 357.503906 220.90625 354.476562 220.90625 350.746094 C 220.90625 347.015625 223.929688 343.992188 227.660156 343.992188 C 231.390625 343.992188 234.417969 347.015625 234.417969 350.746094 "/>
<path style="fill-rule:nonzero;fill:rgb(18.431373%,30.980392%,30.980392%);fill-opacity:1;stroke-width:0.708661;stroke-linecap:round;stroke-linejoin:round;stroke:rgb(18.431373%,30.980392%,30.980392%);stroke-opacity:1;stroke-miterlimit:10;" d="M 241.464844 376.890625 C 241.464844 380.625 238.441406 383.648438 234.710938 383.648438 C 230.980469 383.648438 227.953125 380.625 227.953125 376.890625 C 227.953125 373.160156 230.980469 370.136719 234.710938 370.136719 C 238.441406 370.136719 241.464844 373.160156 241.464844 376.890625 "/>
<path style="fill-rule:nonzero;fill:rgb(18.431373%,30.980392%,30.980392%);fill-opacity:1;stroke-width:0.708661;stroke-linecap:round;stroke-linejoin:round;stroke:rgb(18.431373%,30.980392%,30.980392%);stroke-opacity:1;stroke-miterlimit:10;" d="M 248.515625 332.976562 C 248.515625 336.707031 245.492188 339.730469 241.757812 339.730469 C 238.027344 339.730469 235.003906 336.707031 235.003906 332.976562 C 235.003906 329.242188 238.027344 326.21875 241.757812 326.21875 C 245.492188 326.21875 248.515625 329.242188 248.515625 332.976562 "/>
<path style="fill-rule:nonzero;fill:rgb(18.431373%,30.980392%,30.980392%);fill-opacity:1;stroke-width:0.708661;stroke-linecap:round;stroke-linejoin:round;stroke:rgb(18.431373%,30.980392%,30.980392%);stroke-opacity:1;stroke-miterlimit:10;" d="M 255.566406 322.226562 C 255.566406 325.960938 252.539062 328.984375 248.808594 328.984375 C 245.078125 328.984375 242.050781 325.960938 242.050781 322.226562 C 242.050781 318.496094 245.078125 315.472656 248.808594 315.472656 C 252.539062 315.472656 255.566406 318.496094 255.566406 322.226562 "/>
<path style="fill-rule:nonzero;fill:rgb(18.431373%,30.980392%,30.980392%);fill-opacity:1;stroke-width:0.708661;stroke-linecap:round;stroke-linejoin:round;stroke:rgb(18.431373%,30.980392%,30.980392%);stroke-opacity:1;stroke-miterlimit:10;" d="M 262.613281 344.972656 C 262.613281 348.703125 259.589844 351.730469 255.859375 351.730469 C 252.125 351.730469 249.101562 348.703125 249.101562 344.972656 C 249.101562 341.242188 252.125 338.21875 255.859375 338.21875 C 259.589844 338.21875 262.613281 341.242188 262.613281 344.972656 "/>
<path style="fill-rule:nonzero;fill:rgb(18.431373%,30.980392%,30.980392%);fill-opacity:1;stroke-width:0.708661;stroke-linecap:round;stroke-linejoin:round;stroke:rgb(18.431373%,30.980392%,30.980392%);stroke-opacity:1;stroke-miterlimit:10;" d="M 269.664062 311.214844 C 269.664062 314.945312 266.636719 317.972656 262.90625 317.972656 C 259.175781 317.972656 256.152344 314.945312 256.152344 311.214844 C 256.152344 307.484375 259.175781 304.460938 262.90625 304.460938 C 266.636719 304.460938 269.664062 307.484375 269.664062 311.214844 "/>
<path style="fill-rule:nonzero;fill:rgb(18.431373%,30.980392%,30.980392%);fill-opacity:1;stroke-width:0.708661;stroke-linecap:round;stroke-linejoin:round;stroke:rgb(18.431373%,30.980392%,30.980392%);stroke-opacity:1;stroke-miterlimit:10;" d="M 276.710938 312.683594 C 276.710938 316.414062 273.6875 319.441406 269.957031 319.441406 C 266.226562 319.441406 263.199219 316.414062 263.199219 312.683594 C 263.199219 308.953125 266.226562 305.929688 269.957031 305.929688 C 273.6875 305.929688 276.710938 308.953125 276.710938 312.683594 "/>
<path style="fill-rule:nonzero;fill:rgb(18.431373%,30.980392%,30.980392%);fill-opacity:1;stroke-width:0.708661;stroke-linecap:round;stroke-linejoin:round;stroke:rgb(18.431373%,30.980392%,30.980392%);stroke-opacity:1;stroke-miterlimit:10;" d="M 283.761719 318.238281 C 283.761719 321.96875 280.738281 324.996094 277.003906 324.996094 C 273.273438 324.996094 270.25 321.96875 270.25 318.238281 C 270.25 314.507812 273.273438 311.484375 277.003906 311.484375 C 280.738281 311.484375 283.761719 314.507812 283.761719 318.238281 "/>
<path style="fill-rule:nonzero;fill:rgb(18.431373%,30.980392%,30.980392%);fill-opacity:1;stroke-width:0.708661;stroke-linecap:round;stroke-linejoin:round;stroke:rgb(18.431373%,30.980392%,30.980392%);stroke-opacity:1;stroke-miterlimit:10;" d="M 290.8125 265.066406 C 290.8125 268.796875 287.785156 271.820312 284.054688 271.820312 C 280.324219 271.820312 277.296875 268.796875 277.296875 265.066406 C 277.296875 261.332031 280.324219 258.308594 284.054688 258.308594 C 287.785156 258.308594 290.8125 261.332031 290.8125 265.066406 "/>
<path style="fill-rule:nonzero;fill:rgb(18.431373%,30.980392%,30.980392%);fill-opacity:1;stroke-width:0.708661;stroke-linecap:round;stroke-linejoin:round;stroke:rgb(18.431373%,30.980392%,30.980392%);stroke-opacity:1;stroke-miterlimit:10;" d="M 297.859375 286.96875 C 297.859375 290.703125 294.835938 293.726562 291.105469 293.726562 C 287.371094 293.726562 284.347656 290.703125 284.347656 286.96875 C 284.347656 283.238281 287.371094 280.214844 291.105469 280.214844 C 294.835938 280.214844 297.859375 283.238281 297.859375 286.96875 "/>
<path style="fill-rule:nonzero;fill:rgb(18.431373%,30.980392%,30.980392%);fill-opacity:1;stroke-width:0.708661;stroke-linecap:round;stroke-linejoin:round;stroke:rgb(18.431373%,30.980392%,30.980392%);stroke-opacity:1;stroke-miterlimit:10;" d="M 304.910156 275.917969 C 304.910156 279.648438 301.882812 282.675781 298.152344 282.675781 C 294.421875 282.675781 291.398438 279.648438 291.398438 275.917969 C 291.398438 272.1875 294.421875 269.160156 298.152344 269.160156 C 301.882812 269.160156 304.910156 272.1875 304.910156 275.917969 "/>
<path style="fill-rule:nonzero;fill:rgb(18.431373%,30.980392%,30.980392%);fill-opacity:1;stroke-width:0.708661;stroke-linecap:round;stroke-linejoin:round;stroke:rgb(18.431373%,30.980392%,30.980392%);stroke-opacity:1;stroke-miterlimit:10;" d="M 311.957031 314.050781 C 311.957031 317.785156 308.933594 320.808594 305.203125 320.808594 C 301.472656 320.808594 298.445312 317.785156 298.445312 314.050781 C 298.445312 310.320312 301.472656 307.296875 305.203125 307.296875 C 308.933594 307.296875 311.957031 310.320312 311.957031 314.050781 "/>
<path style="fill-rule:nonzero;fill:rgb(18.431373%,30.980392%,30.980392%);fill-opacity:1;stroke-width:0.708661;stroke-linecap:round;stroke-linejoin:round;stroke:rgb(18.431373%,30.980392%,30.980392%);stroke-opacity:1;stroke-miterlimit:10;" d="M 319.007812 305.300781 C 319.007812 309.03125 315.984375 312.054688 312.25 312.054688 C 308.519531 312.054688 305.496094 309.03125 305.496094 305.300781 C 305.496094 301.566406 308.519531 298.542969 312.25 298.542969 C 315.984375 298.542969 319.007812 301.566406 319.007812 305.300781 "/>
<path style="fill-rule:nonzero;fill:rgb(18.431373%,30.980392%,30.980392%);fill-opacity:1;stroke-width:0.708661;stroke-linecap:round;stroke-linejoin:round;stroke:rgb(18.431373%,30.980392%,30.980392%);stroke-opacity:1;stroke-miterlimit:10;" d="M 326.058594 311.332031 C 326.058594 315.0625 323.03125 318.089844 319.300781 318.089844 C 315.570312 318.089844 312.542969 315.0625 312.542969 311.332031 C 312.542969 307.601562 315.570312 304.574219 319.300781 304.574219 C 323.03125 304.574219 326.058594 307.601562 326.058594 311.332031 "/>
<path style="fill-rule:nonzero;fill:rgb(18.431373%,30.980392%,30.980392%);fill-opacity:1;stroke-width:0.708661;stroke-linecap:round;stroke-linejoin:round;stroke:rgb(18.431373%,30.980392%,30.980392%);stroke-opacity:1;stroke-miterlimit:10;" d="M 333.105469 325.660156 C 333.105469 329.390625 330.082031 332.414062 326.351562 332.414062 C 322.617188 332.414062 319.59375 329.390625 319.59375 325.660156 C 319.59375 321.925781 322.617188 318.902344 326.351562 318.902344 C 330.082031 318.902344 333.105469 321.925781 333.105469 325.660156 "/>
<path style="fill-rule:nonzero;fill:rgb(18.431373%,30.980392%,30.980392%);fill-opacity:1;stroke-width:0.708661;stroke-linecap:round;stroke-linejoin:round;stroke:rgb(18.431373%,30.980392%,30.980392%);stroke-opacity:1;stroke-miterlimit:10;" d="M 340.15625 263.648438 C 340.15625 267.382812 337.128906 270.40625 333.398438 270.40625 C 329.667969 270.40625 326.644531 267.382812 326.644531 263.648438 C 326.644531 259.917969 329.667969 256.894531 333.398438 256.894531 C 337.128906 256.894531 340.15625 259.917969 340.15625 263.648438 "/>
<path style="fill-rule:nonzero;fill:rgb(18.431373%,30.980392%,30.980392%);fill-opacity:1;stroke-width:0.708661;stroke-linecap:round;stroke-linejoin:round;stroke:rgb(18.431373%,30.980392%,30.980392%);stroke-opacity:1;stroke-miterlimit:10;" d="M 347.203125 274.296875 C 347.203125 278.027344 344.179688 281.050781 340.449219 281.050781 C 336.71875 281.050781 333.691406 278.027344 333.691406 274.296875 C 333.691406 270.5625 336.71875 267.539062 340.449219 267.539062 C 344.179688 267.539062 347.203125 270.5625 347.203125 274.296875 "/>
<path style="fill-rule:nonzero;fill:rgb(18.431373%,30.980392%,30.980392%);fill-opacity:1;stroke-width:0.708661;stroke-linecap:round;stroke-linejoin:round;stroke:rgb(18.431373%,30.980392%,30.980392%);stroke-opacity:1;stroke-miterlimit:10;" d="M 354.253906 266.941406 C 354.253906 270.671875 351.230469 273.695312 347.496094 273.695312 C 343.765625 273.695312 340.742188 270.671875 340.742188 266.941406 C 340.742188 263.207031 343.765625 260.183594 347.496094 260.183594 C 351.230469 260.183594 354.253906 263.207031 354.253906 266.941406 "/>
<path style="fill-rule:nonzero;fill:rgb(18.431373%,30.980392%,30.980392%);fill-opacity:1;stroke-width:0.708661;stroke-linecap:round;stroke-linejoin:round;stroke:rgb(18.431373%,30.980392%,30.980392%);stroke-opacity:1;stroke-miterlimit:10;" d="M 361.304688 293.59375 C 361.304688 297.328125 358.277344 300.351562 354.546875 300.351562 C 350.816406 300.351562 347.789062 297.328125 347.789062 293.59375 C 347.789062 289.863281 350.816406 286.839844 354.546875 286.839844 C 358.277344 286.839844 361.304688 289.863281 361.304688 293.59375 "/>
<path style="fill-rule:nonzero;fill:rgb(18.431373%,30.980392%,30.980392%);fill-opacity:1;stroke-width:0.708661;stroke-linecap:round;stroke-linejoin:round;stroke:rgb(18.431373%,30.980392%,30.980392%);stroke-opacity:1;stroke-miterlimit:10;" d="M 368.351562 249.875 C 368.351562 253.605469 365.328125 256.632812 361.597656 256.632812 C 357.863281 256.632812 354.839844 253.605469 354.839844 249.875 C 354.839844 246.144531 357.863281 243.117188 361.597656 243.117188 C 365.328125 243.117188 368.351562 246.144531 368.351562 249.875 "/>
<path style="fill-rule:nonzero;fill:rgb(18.431373%,30.980392%,30.980392%);fill-opacity:1;stroke-width:0.708661;stroke-linecap:round;stroke-linejoin:round;stroke:rgb(18.431373%,30.980392%,30.980392%);stroke-opacity:1;stroke-miterlimit:10;" d="M 375.402344 280.054688 C 375.402344 283.785156 372.375 286.808594 368.644531 286.808594 C 364.914062 286.808594 361.890625 283.785156 361.890625 280.054688 C 361.890625 276.320312 364.914062 273.296875 368.644531 273.296875 C 372.375 273.296875 375.402344 276.320312 375.402344 280.054688 "/>
<path style="fill-rule:nonzero;fill:rgb(18.431373%,30.980392%,30.980392%);fill-opacity:1;stroke-width:0.708661;stroke-linecap:round;stroke-linejoin:round;stroke:rgb(18.431373%,30.980392%,30.980392%);stroke-opacity:1;stroke-miterlimit:10;" d="M 382.449219 276.894531 C 382.449219 280.625 379.425781 283.648438 375.695312 283.648438 C 371.964844 283.648438 368.9375 280.625 368.9375 276.894531 C 368.9375 273.160156 371.964844 270.136719 375.695312 270.136719 C 379.425781 270.136719 382.449219 273.160156 382.449219 276.894531 "/>
<path style="fill-rule:nonzero;fill:rgb(18.431373%,30.980392%,30.980392%);fill-opacity:1;stroke-width:0.708661;stroke-linecap:round;stroke-linejoin:round;stroke:rgb(18.431373%,30.980392%,30.980392%);stroke-opacity:1;stroke-miterlimit:10;" d="M 389.5 223.828125 C 389.5 227.558594 386.476562 230.582031 382.742188 230.582031 C 379.011719 230.582031 375.988281 227.558594 375.988281 223.828125 C 375.988281 220.097656 379.011719 217.070312 382.742188 217.070312 C 386.476562 217.070312 389.5 220.097656 389.5 223.828125 "/>
<path style="fill-rule:nonzero;fill:rgb(18.431373%,30.980392%,30.980392%);fill-opacity:1;stroke-width:0.708661;stroke-linecap:round;stroke-linejoin:round;stroke:rgb(18.431373%,30.980392%,30.980392%);stroke-opacity:1;stroke-miterlimit:10;" d="M 396.550781 263.222656 C 396.550781 266.953125 393.523438 269.976562 389.792969 269.976562 C 386.0625 269.976562 383.035156 266.953125 383.035156 263.222656 C 383.035156 259.492188 386.0625 256.464844 389.792969 256.464844 C 393.523438 256.464844 396.550781 259.492188 396.550781 263.222656 "/>
<path style="fill-rule:nonzero;fill:rgb(18.431373%,30.980392%,30.980392%);fill-opacity:1;stroke-width:0.708661;stroke-linecap:round;stroke-linejoin:round;stroke:rgb(18.431373%,30.980392%,30.980392%);stroke-opacity:1;stroke-miterlimit:10;" d="M 403.597656 242.726562 C 403.597656 246.457031 400.574219 249.484375 396.84375 249.484375 C 393.109375 249.484375 390.085938 246.457031 390.085938 242.726562 C 390.085938 238.996094 393.109375 235.96875 396.84375 235.96875 C 400.574219 235.96875 403.597656 238.996094 403.597656 242.726562 "/>
<path style="fill-rule:nonzero;fill:rgb(18.431373%,30.980392%,30.980392%);fill-opacity:1;stroke-width:0.708661;stroke-linecap:round;stroke-linejoin:round;stroke:rgb(18.431373%,30.980392%,30.980392%);stroke-opacity:1;stroke-miterlimit:10;" d="M 410.648438 245.160156 C 410.648438 248.894531 407.621094 251.917969 403.890625 251.917969 C 400.160156 251.917969 397.136719 248.894531 397.136719 245.160156 C 397.136719 241.429688 400.160156 238.40625 403.890625 238.40625 C 407.621094 238.40625 410.648438 241.429688 410.648438 245.160156 "/>
<path style="fill-rule:nonzero;fill:rgb(18.431373%,30.980392%,30.980392%);fill-opacity:1;stroke-width:0.708661;stroke-linecap:round;stroke-linejoin:round;stroke:rgb(18.431373%,30.980392%,30.980392%);stroke-opacity:1;stroke-miterlimit:10;" d="M 417.695312 251.96875 C 417.695312 255.699219 414.671875 258.726562 410.941406 258.726562 C 407.210938 258.726562 404.183594 255.699219 404.183594 251.96875 C 404.183594 248.238281 407.210938 245.214844 410.941406 245.214844 C 414.671875 245.214844 417.695312 248.238281 417.695312 251.96875 "/>
<path style="fill-rule:nonzero;fill:rgb(18.431373%,30.980392%,30.980392%);fill-opacity:1;stroke-width:0.708661;stroke-linecap:round;stroke-linejoin:round;stroke:rgb(18.431373%,30.980392%,30.980392%);stroke-opacity:1;stroke-miterlimit:10;" d="M 424.746094 267.773438 C 424.746094 271.507812 421.722656 274.53125 417.988281 274.53125 C 414.257812 274.53125 411.234375 271.507812 411.234375 267.773438 C 411.234375 264.042969 414.257812 261.019531 417.988281 261.019531 C 421.722656 261.019531 424.746094 264.042969 424.746094 267.773438 "/>
<path style="fill-rule:nonzero;fill:rgb(18.431373%,30.980392%,30.980392%);fill-opacity:1;stroke-width:0.708661;stroke-linecap:round;stroke-linejoin:round;stroke:rgb(18.431373%,30.980392%,30.980392%);stroke-opacity:1;stroke-miterlimit:10;" d="M 431.796875 258.402344 C 431.796875 262.136719 428.769531 265.160156 425.039062 265.160156 C 421.308594 265.160156 418.28125 262.136719 418.28125 258.402344 C 418.28125 254.671875 421.308594 251.648438 425.039062 251.648438 C 428.769531 251.648438 431.796875 254.671875 431.796875 258.402344 "/>
<path style="fill-rule:nonzero;fill:rgb(18.431373%,30.980392%,30.980392%);fill-opacity:1;stroke-width:0.708661;stroke-linecap:round;stroke-linejoin:round;stroke:rgb(18.431373%,30.980392%,30.980392%);stroke-opacity:1;stroke-miterlimit:10;" d="M 438.84375 217.113281 C 438.84375 220.847656 435.820312 223.871094 432.089844 223.871094 C 428.355469 223.871094 425.332031 220.847656 425.332031 217.113281 C 425.332031 213.382812 428.355469 210.359375 432.089844 210.359375 C 435.820312 210.359375 438.84375 213.382812 438.84375 217.113281 "/>
<path style="fill-rule:nonzero;fill:rgb(18.431373%,30.980392%,30.980392%);fill-opacity:1;stroke-width:0.708661;stroke-linecap:round;stroke-linejoin:round;stroke:rgb(18.431373%,30.980392%,30.980392%);stroke-opacity:1;stroke-miterlimit:10;" d="M 445.894531 169.367188 C 445.894531 173.097656 442.867188 176.125 439.136719 176.125 C 435.40625 176.125 432.382812 173.097656 432.382812 169.367188 C 432.382812 165.636719 435.40625 162.613281 439.136719 162.613281 C 442.867188 162.613281 445.894531 165.636719 445.894531 169.367188 "/>
<path style="fill-rule:nonzero;fill:rgb(18.431373%,30.980392%,30.980392%);fill-opacity:1;stroke-width:0.708661;stroke-linecap:round;stroke-linejoin:round;stroke:rgb(18.431373%,30.980392%,30.980392%);stroke-opacity:1;stroke-miterlimit:10;" d="M 452.941406 210.445312 C 452.941406 214.175781 449.917969 217.199219 446.1875 217.199219 C 442.457031 217.199219 439.429688 214.175781 439.429688 210.445312 C 439.429688 206.710938 442.457031 203.6875 446.1875 203.6875 C 449.917969 203.6875 452.941406 206.710938 452.941406 210.445312 "/>
<path style="fill-rule:nonzero;fill:rgb(18.431373%,30.980392%,30.980392%);fill-opacity:1;stroke-width:0.708661;stroke-linecap:round;stroke-linejoin:round;stroke:rgb(18.431373%,30.980392%,30.980392%);stroke-opacity:1;stroke-miterlimit:10;" d="M 459.992188 257.703125 C 459.992188 261.433594 456.96875 264.457031 453.234375 264.457031 C 449.503906 264.457031 446.480469 261.433594 446.480469 257.703125 C 446.480469 253.972656 449.503906 250.945312 453.234375 250.945312 C 456.96875 250.945312 459.992188 253.972656 459.992188 257.703125 "/>
<path style="fill-rule:nonzero;fill:rgb(18.431373%,30.980392%,30.980392%);fill-opacity:1;stroke-width:0.708661;stroke-linecap:round;stroke-linejoin:round;stroke:rgb(18.431373%,30.980392%,30.980392%);stroke-opacity:1;stroke-miterlimit:10;" d="M 467.042969 174.28125 C 467.042969 178.011719 464.015625 181.039062 460.285156 181.039062 C 456.554688 181.039062 453.527344 178.011719 453.527344 174.28125 C 453.527344 170.550781 456.554688 167.527344 460.285156 167.527344 C 464.015625 167.527344 467.042969 170.550781 467.042969 174.28125 "/>
<path style="fill-rule:nonzero;fill:rgb(18.431373%,30.980392%,30.980392%);fill-opacity:1;stroke-width:0.708661;stroke-linecap:round;stroke-linejoin:round;stroke:rgb(18.431373%,30.980392%,30.980392%);stroke-opacity:1;stroke-miterlimit:10;" d="M 474.089844 212.101562 C 474.089844 215.832031 471.066406 218.859375 467.335938 218.859375 C 463.601562 218.859375 460.578125 215.832031 460.578125 212.101562 C 460.578125 208.371094 463.601562 205.34375 467.335938 205.34375 C 471.066406 205.34375 474.089844 208.371094 474.089844 212.101562 "/>
<path style="fill-rule:nonzero;fill:rgb(18.431373%,30.980392%,30.980392%);fill-opacity:1;stroke-width:0.708661;stroke-linecap:round;stroke-linejoin:round;stroke:rgb(18.431373%,30.980392%,30.980392%);stroke-opacity:1;stroke-miterlimit:10;" d="M 481.140625 167.769531 C 481.140625 171.5 478.113281 174.523438 474.382812 174.523438 C 470.652344 174.523438 467.628906 171.5 467.628906 167.769531 C 467.628906 164.039062 470.652344 161.011719 474.382812 161.011719 C 478.113281 161.011719 481.140625 164.039062 481.140625 167.769531 "/>
<path style="fill-rule:nonzero;fill:rgb(18.431373%,30.980392%,30.980392%);fill-opacity:1;stroke-width:0.708661;stroke-linecap:round;stroke-linejoin:round;stroke:rgb(18.431373%,30.980392%,30.980392%);stroke-opacity:1;stroke-miterlimit:10;" d="M 488.1875 236.503906 C 488.1875 240.234375 485.164062 243.257812 481.433594 243.257812 C 477.703125 243.257812 474.675781 240.234375 474.675781 236.503906 C 474.675781 232.769531 477.703125 229.746094 481.433594 229.746094 C 485.164062 229.746094 488.1875 232.769531 488.1875 236.503906 "/>
<path style="fill-rule:nonzero;fill:rgb(18.431373%,30.980392%,30.980392%);fill-opacity:1;stroke-width:0.708661;stroke-linecap:round;stroke-linejoin:round;stroke:rgb(18.431373%,30.980392%,30.980392%);stroke-opacity:1;stroke-miterlimit:10;" d="M 495.238281 216.648438 C 495.238281 220.378906 492.214844 223.402344 488.480469 223.402344 C 484.75 223.402344 481.726562 220.378906 481.726562 216.648438 C 481.726562 212.914062 484.75 209.890625 488.480469 209.890625 C 492.214844 209.890625 495.238281 212.914062 495.238281 216.648438 "/>
<path style="fill-rule:nonzero;fill:rgb(18.431373%,30.980392%,30.980392%);fill-opacity:1;stroke-width:0.708661;stroke-linecap:round;stroke-linejoin:round;stroke:rgb(18.431373%,30.980392%,30.980392%);stroke-opacity:1;stroke-miterlimit:10;" d="M 502.289062 190.4375 C 502.289062 194.167969 499.261719 197.191406 495.53125 197.191406 C 491.800781 197.191406 488.773438 194.167969 488.773438 190.4375 C 488.773438 186.707031 491.800781 183.679688 495.53125 183.679688 C 499.261719 183.679688 502.289062 186.707031 502.289062 190.4375 "/>
<path style="fill-rule:nonzero;fill:rgb(18.431373%,30.980392%,30.980392%);fill-opacity:1;stroke-width:0.708661;stroke-linecap:round;stroke-linejoin:round;stroke:rgb(18.431373%,30.980392%,30.980392%);stroke-opacity:1;stroke-miterlimit:10;" d="M 509.335938 153.050781 C 509.335938 156.78125 506.3125 159.804688 502.582031 159.804688 C 498.847656 159.804688 495.824219 156.78125 495.824219 153.050781 C 495.824219 149.320312 498.847656 146.292969 502.582031 146.292969 C 506.3125 146.292969 509.335938 149.320312 509.335938 153.050781 "/>
<path style="fill-rule:nonzero;fill:rgb(18.431373%,30.980392%,30.980392%);fill-opacity:1;stroke-width:0.708661;stroke-linecap:round;stroke-linejoin:round;stroke:rgb(18.431373%,30.980392%,30.980392%);stroke-opacity:1;stroke-miterlimit:10;" d="M 516.386719 156.445312 C 516.386719 160.175781 513.359375 163.199219 509.628906 163.199219 C 505.898438 163.199219 502.875 160.175781 502.875 156.445312 C 502.875 152.714844 505.898438 149.6875 509.628906 149.6875 C 513.359375 149.6875 516.386719 152.714844 516.386719 156.445312 "/>
<path style="fill-rule:nonzero;fill:rgb(18.431373%,30.980392%,30.980392%);fill-opacity:1;stroke-width:0.708661;stroke-linecap:round;stroke-linejoin:round;stroke:rgb(18.431373%,30.980392%,30.980392%);stroke-opacity:1;stroke-miterlimit:10;" d="M 523.433594 202.921875 C 523.433594 206.652344 520.410156 209.679688 516.679688 209.679688 C 512.949219 209.679688 509.921875 206.652344 509.921875 202.921875 C 509.921875 199.191406 512.949219 196.167969 516.679688 196.167969 C 520.410156 196.167969 523.433594 199.191406 523.433594 202.921875 "/>
<path style="fill-rule:nonzero;fill:rgb(18.431373%,30.980392%,30.980392%);fill-opacity:1;stroke-width:0.708661;stroke-linecap:round;stroke-linejoin:round;stroke:rgb(18.431373%,30.980392%,30.980392%);stroke-opacity:1;stroke-miterlimit:10;" d="M 530.484375 170.167969 C 530.484375 173.902344 527.460938 176.925781 523.726562 176.925781 C 519.996094 176.925781 516.972656 173.902344 516.972656 170.167969 C 516.972656 166.4375 519.996094 163.414062 523.726562 163.414062 C 527.460938 163.414062 530.484375 166.4375 530.484375 170.167969 "/>
<path style="fill-rule:nonzero;fill:rgb(18.431373%,30.980392%,30.980392%);fill-opacity:1;stroke-width:0.708661;stroke-linecap:round;stroke-linejoin:round;stroke:rgb(18.431373%,30.980392%,30.980392%);stroke-opacity:1;stroke-miterlimit:10;" d="M 537.535156 176.914062 C 537.535156 180.644531 534.507812 183.671875 530.777344 183.671875 C 527.046875 183.671875 524.019531 180.644531 524.019531 176.914062 C 524.019531 173.183594 527.046875 170.160156 530.777344 170.160156 C 534.507812 170.160156 537.535156 173.183594 537.535156 176.914062 "/>
<path style="fill-rule:nonzero;fill:rgb(18.431373%,30.980392%,30.980392%);fill-opacity:1;stroke-width:0.708661;stroke-linecap:round;stroke-linejoin:round;stroke:rgb(18.431373%,30.980392%,30.980392%);stroke-opacity:1;stroke-miterlimit:10;" d="M 544.582031 154.085938 C 544.582031 157.816406 541.558594 160.839844 537.828125 160.839844 C 534.09375 160.839844 531.070312 157.816406 531.070312 154.085938 C 531.070312 150.351562 534.09375 147.328125 537.828125 147.328125 C 541.558594 147.328125 544.582031 150.351562 544.582031 154.085938 "/>
<path style="fill-rule:nonzero;fill:rgb(18.431373%,30.980392%,30.980392%);fill-opacity:1;stroke-width:0.708661;stroke-linecap:round;stroke-linejoin:round;stroke:rgb(18.431373%,30.980392%,30.980392%);stroke-opacity:1;stroke-miterlimit:10;" d="M 551.632812 159.121094 C 551.632812 162.855469 548.605469 165.878906 544.875 165.878906 C 541.144531 165.878906 538.121094 162.855469 538.121094 159.121094 C 538.121094 155.390625 541.144531 152.367188 544.875 152.367188 C 548.605469 152.367188 551.632812 155.390625 551.632812 159.121094 "/>
<path style="fill-rule:nonzero;fill:rgb(18.431373%,30.980392%,30.980392%);fill-opacity:1;stroke-width:0.708661;stroke-linecap:round;stroke-linejoin:round;stroke:rgb(18.431373%,30.980392%,30.980392%);stroke-opacity:1;stroke-miterlimit:10;" d="M 558.679688 181.992188 C 558.679688 185.726562 555.65625 188.75 551.925781 188.75 C 548.195312 188.75 545.167969 185.726562 545.167969 181.992188 C 545.167969 178.261719 548.195312 175.238281 551.925781 175.238281 C 555.65625 175.238281 558.679688 178.261719 558.679688 181.992188 "/>
<path style="fill-rule:nonzero;fill:rgb(18.431373%,30.980392%,30.980392%);fill-opacity:1;stroke-width:0.708661;stroke-linecap:round;stroke-linejoin:round;stroke:rgb(18.431373%,30.980392%,30.980392%);stroke-opacity:1;stroke-miterlimit:10;" d="M 565.730469 152.984375 C 565.730469 156.71875 562.707031 159.742188 558.972656 159.742188 C 555.242188 159.742188 552.21875 156.71875 552.21875 152.984375 C 552.21875 149.253906 555.242188 146.230469 558.972656 146.230469 C 562.707031 146.230469 565.730469 149.253906 565.730469 152.984375 "/>
<path style="fill-rule:nonzero;fill:rgb(18.431373%,30.980392%,30.980392%);fill-opacity:1;stroke-width:0.708661;stroke-linecap:round;stroke-linejoin:round;stroke:rgb(18.431373%,30.980392%,30.980392%);stroke-opacity:1;stroke-miterlimit:10;" d="M 572.78125 216.777344 C 572.78125 220.511719 569.753906 223.535156 566.023438 223.535156 C 562.292969 223.535156 559.265625 220.511719 559.265625 216.777344 C 559.265625 213.046875 562.292969 210.023438 566.023438 210.023438 C 569.753906 210.023438 572.78125 213.046875 572.78125 216.777344 "/>
<path style="fill-rule:nonzero;fill:rgb(18.431373%,30.980392%,30.980392%);fill-opacity:1;stroke-width:0.708661;stroke-linecap:round;stroke-linejoin:round;stroke:rgb(18.431373%,30.980392%,30.980392%);stroke-opacity:1;stroke-miterlimit:10;" d="M 579.828125 168.464844 C 579.828125 172.195312 576.804688 175.222656 573.074219 175.222656 C 569.339844 175.222656 566.316406 172.195312 566.316406 168.464844 C 566.316406 164.734375 569.339844 161.710938 573.074219 161.710938 C 576.804688 161.710938 579.828125 164.734375 579.828125 168.464844 "/>
<path style="fill-rule:nonzero;fill:rgb(18.431373%,30.980392%,30.980392%);fill-opacity:1;stroke-width:0.708661;stroke-linecap:round;stroke-linejoin:round;stroke:rgb(18.431373%,30.980392%,30.980392%);stroke-opacity:1;stroke-miterlimit:10;" d="M 586.878906 106.820312 C 586.878906 110.550781 583.851562 113.578125 580.121094 113.578125 C 576.390625 113.578125 573.367188 110.550781 573.367188 106.820312 C 573.367188 103.089844 576.390625 100.0625 580.121094 100.0625 C 583.851562 100.0625 586.878906 103.089844 586.878906 106.820312 "/>
<path style="fill-rule:nonzero;fill:rgb(18.431373%,30.980392%,30.980392%);fill-opacity:1;stroke-width:0.708661;stroke-linecap:round;stroke-linejoin:round;stroke:rgb(18.431373%,30.980392%,30.980392%);stroke-opacity:1;stroke-miterlimit:10;" d="M 593.925781 149.566406 C 593.925781 153.296875 590.902344 156.320312 587.171875 156.320312 C 583.441406 156.320312 580.414062 153.296875 580.414062 149.566406 C 580.414062 145.835938 583.441406 142.808594 587.171875 142.808594 C 590.902344 142.808594 593.925781 145.835938 593.925781 149.566406 "/>
<path style="fill-rule:nonzero;fill:rgb(18.431373%,30.980392%,30.980392%);fill-opacity:1;stroke-width:0.708661;stroke-linecap:round;stroke-linejoin:round;stroke:rgb(18.431373%,30.980392%,30.980392%);stroke-opacity:1;stroke-miterlimit:10;" d="M 600.976562 83.019531 C 600.976562 86.75 597.953125 89.773438 594.21875 89.773438 C 590.488281 89.773438 587.464844 86.75 587.464844 83.019531 C 587.464844 79.289062 590.488281 76.261719 594.21875 76.261719 C 597.953125 76.261719 600.976562 79.289062 600.976562 83.019531 "/>
<path style="fill-rule:nonzero;fill:rgb(18.431373%,30.980392%,30.980392%);fill-opacity:1;stroke-width:0.708661;stroke-linecap:round;stroke-linejoin:round;stroke:rgb(18.431373%,30.980392%,30.980392%);stroke-opacity:1;stroke-miterlimit:10;" d="M 608.027344 88.226562 C 608.027344 91.957031 605 94.980469 601.269531 94.980469 C 597.539062 94.980469 594.511719 91.957031 594.511719 88.226562 C 594.511719 84.496094 597.539062 81.46875 601.269531 81.46875 C 605 81.46875 608.027344 84.496094 608.027344 88.226562 "/>
<path style="fill-rule:nonzero;fill:rgb(18.431373%,30.980392%,30.980392%);fill-opacity:1;stroke-width:0.708661;stroke-linecap:round;stroke-linejoin:round;stroke:rgb(18.431373%,30.980392%,30.980392%);stroke-opacity:1;stroke-miterlimit:10;" d="M 615.074219 123.144531 C 615.074219 126.875 612.050781 129.902344 608.320312 129.902344 C 604.585938 129.902344 601.5625 126.875 601.5625 123.144531 C 601.5625 119.414062 604.585938 116.390625 608.320312 116.390625 C 612.050781 116.390625 615.074219 119.414062 615.074219 123.144531 "/>
<path style="fill-rule:nonzero;fill:rgb(18.431373%,30.980392%,30.980392%);fill-opacity:1;stroke-width:0.708661;stroke-linecap:round;stroke-linejoin:round;stroke:rgb(18.431373%,30.980392%,30.980392%);stroke-opacity:1;stroke-miterlimit:10;" d="M 622.125 93.210938 C 622.125 96.945312 619.097656 99.96875 615.367188 99.96875 C 611.636719 99.96875 608.613281 96.945312 608.613281 93.210938 C 608.613281 89.480469 611.636719 86.457031 615.367188 86.457031 C 619.097656 86.457031 622.125 89.480469 622.125 93.210938 "/>
<path style="fill-rule:nonzero;fill:rgb(18.431373%,30.980392%,30.980392%);fill-opacity:1;stroke-width:0.708661;stroke-linecap:round;stroke-linejoin:round;stroke:rgb(18.431373%,30.980392%,30.980392%);stroke-opacity:1;stroke-miterlimit:10;" d="M 629.171875 165.164062 C 629.171875 168.894531 626.148438 171.921875 622.417969 171.921875 C 618.6875 171.921875 615.660156 168.894531 615.660156 165.164062 C 615.660156 161.433594 618.6875 158.40625 622.417969 158.40625 C 626.148438 158.40625 629.171875 161.433594 629.171875 165.164062 "/>
<path style="fill-rule:nonzero;fill:rgb(18.431373%,30.980392%,30.980392%);fill-opacity:1;stroke-width:0.708661;stroke-linecap:round;stroke-linejoin:round;stroke:rgb(18.431373%,30.980392%,30.980392%);stroke-opacity:1;stroke-miterlimit:10;" d="M 636.222656 85.441406 C 636.222656 89.171875 633.199219 92.195312 629.464844 92.195312 C 625.734375 92.195312 622.710938 89.171875 622.710938 85.441406 C 622.710938 81.707031 625.734375 78.683594 629.464844 78.683594 C 633.199219 78.683594 636.222656 81.707031 636.222656 85.441406 "/>
<path style="fill-rule:nonzero;fill:rgb(18.431373%,30.980392%,30.980392%);fill-opacity:1;stroke-width:0.708661;stroke-linecap:round;stroke-linejoin:round;stroke:rgb(18.431373%,30.980392%,30.980392%);stroke-opacity:1;stroke-miterlimit:10;" d="M 643.273438 94.128906 C 643.273438 97.859375 640.246094 100.882812 636.515625 100.882812 C 632.785156 100.882812 629.757812 97.859375 629.757812 94.128906 C 629.757812 90.398438 632.785156 87.371094 636.515625 87.371094 C 640.246094 87.371094 643.273438 90.398438 643.273438 94.128906 "/>
<path style="fill-rule:nonzero;fill:rgb(18.431373%,30.980392%,30.980392%);fill-opacity:1;stroke-width:0.708661;stroke-linecap:round;stroke-linejoin:round;stroke:rgb(18.431373%,30.980392%,30.980392%);stroke-opacity:1;stroke-miterlimit:10;" d="M 650.320312 73.949219 C 650.320312 77.683594 647.296875 80.707031 643.566406 80.707031 C 639.832031 80.707031 636.808594 77.683594 636.808594 73.949219 C 636.808594 70.21875 639.832031 67.195312 643.566406 67.195312 C 647.296875 67.195312 650.320312 70.21875 650.320312 73.949219 "/>
<path style="fill-rule:nonzero;fill:rgb(18.431373%,30.980392%,30.980392%);fill-opacity:1;stroke-width:0.708661;stroke-linecap:round;stroke-linejoin:round;stroke:rgb(18.431373%,30.980392%,30.980392%);stroke-opacity:1;stroke-miterlimit:10;" d="M 657.371094 104.578125 C 657.371094 108.308594 654.34375 111.335938 650.613281 111.335938 C 646.882812 111.335938 643.859375 108.308594 643.859375 104.578125 C 643.859375 100.847656 646.882812 97.824219 650.613281 97.824219 C 654.34375 97.824219 657.371094 100.847656 657.371094 104.578125 "/>
<path style="fill-rule:nonzero;fill:rgb(18.431373%,30.980392%,30.980392%);fill-opacity:1;stroke-width:0.708661;stroke-linecap:round;stroke-linejoin:round;stroke:rgb(18.431373%,30.980392%,30.980392%);stroke-opacity:1;stroke-miterlimit:10;" d="M 664.417969 95.113281 C 664.417969 98.84375 661.394531 101.867188 657.664062 101.867188 C 653.933594 101.867188 650.90625 98.84375 650.90625 95.113281 C 650.90625 91.378906 653.933594 88.355469 657.664062 88.355469 C 661.394531 88.355469 664.417969 91.378906 664.417969 95.113281 "/>
<path style="fill-rule:nonzero;fill:rgb(18.431373%,30.980392%,30.980392%);fill-opacity:1;stroke-width:0.708661;stroke-linecap:round;stroke-linejoin:round;stroke:rgb(18.431373%,30.980392%,30.980392%);stroke-opacity:1;stroke-miterlimit:10;" d="M 671.46875 65.746094 C 671.46875 69.476562 668.445312 72.503906 664.710938 72.503906 C 660.980469 72.503906 657.957031 69.476562 657.957031 65.746094 C 657.957031 62.015625 660.980469 58.988281 664.710938 58.988281 C 668.445312 58.988281 671.46875 62.015625 671.46875 65.746094 "/>
<path style="fill-rule:nonzero;fill:rgb(18.431373%,30.980392%,30.980392%);fill-opacity:1;stroke-width:0.708661;stroke-linecap:round;stroke-linejoin:round;stroke:rgb(18.431373%,30.980392%,30.980392%);stroke-opacity:1;stroke-miterlimit:10;" d="M 678.519531 124.4375 C 678.519531 128.167969 675.492188 131.191406 671.761719 131.191406 C 668.03125 131.191406 665.003906 128.167969 665.003906 124.4375 C 665.003906 120.707031 668.03125 117.679688 671.761719 117.679688 C 675.492188 117.679688 678.519531 120.707031 678.519531 124.4375 "/>
<path style="fill-rule:nonzero;fill:rgb(18.431373%,30.980392%,30.980392%);fill-opacity:1;stroke-width:0.708661;stroke-linecap:round;stroke-linejoin:round;stroke:rgb(18.431373%,30.980392%,30.980392%);stroke-opacity:1;stroke-miterlimit:10;" d="M 685.566406 99.039062 C 685.566406 102.769531 682.542969 105.796875 678.8125 105.796875 C 675.078125 105.796875 672.054688 102.769531 672.054688 99.039062 C 672.054688 95.308594 675.078125 92.28125 678.8125 92.28125 C 682.542969 92.28125 685.566406 95.308594 685.566406 99.039062 "/>
<path style="fill-rule:nonzero;fill:rgb(18.431373%,30.980392%,30.980392%);fill-opacity:1;stroke-width:0.708661;stroke-linecap:round;stroke-linejoin:round;stroke:rgb(18.431373%,30.980392%,30.980392%);stroke-opacity:1;stroke-miterlimit:10;" d="M 692.617188 66.007812 C 692.617188 69.738281 689.589844 72.765625 685.859375 72.765625 C 682.128906 72.765625 679.105469 69.738281 679.105469 66.007812 C 679.105469 62.277344 682.128906 59.253906 685.859375 59.253906 C 689.589844 59.253906 692.617188 62.277344 692.617188 66.007812 "/>
<path style="fill-rule:nonzero;fill:rgb(18.431373%,30.980392%,30.980392%);fill-opacity:1;stroke-width:0.708661;stroke-linecap:round;stroke-linejoin:round;stroke:rgb(18.431373%,30.980392%,30.980392%);stroke-opacity:1;stroke-miterlimit:10;" d="M 699.664062 115.292969 C 699.664062 119.023438 696.640625 122.046875 692.910156 122.046875 C 689.179688 122.046875 686.152344 119.023438 686.152344 115.292969 C 686.152344 111.5625 689.179688 108.535156 692.910156 108.535156 C 696.640625 108.535156 699.664062 111.5625 699.664062 115.292969 "/>
<path style="fill-rule:nonzero;fill:rgb(18.431373%,30.980392%,30.980392%);fill-opacity:1;stroke-width:0.708661;stroke-linecap:round;stroke-linejoin:round;stroke:rgb(18.431373%,30.980392%,30.980392%);stroke-opacity:1;stroke-miterlimit:10;" d="M 706.714844 95.773438 C 706.714844 99.507812 703.691406 102.53125 699.957031 102.53125 C 696.226562 102.53125 693.203125 99.507812 693.203125 95.773438 C 693.203125 92.042969 696.226562 89.019531 699.957031 89.019531 C 703.691406 89.019531 706.714844 92.042969 706.714844 95.773438 "/>
<path style="fill-rule:nonzero;fill:rgb(18.431373%,30.980392%,30.980392%);fill-opacity:1;stroke-width:0.708661;stroke-linecap:round;stroke-linejoin:round;stroke:rgb(18.431373%,30.980392%,30.980392%);stroke-opacity:1;stroke-miterlimit:10;" d="M 713.765625 31.328125 C 713.765625 35.058594 710.738281 38.085938 707.007812 38.085938 C 703.277344 38.085938 700.25 35.058594 700.25 31.328125 C 700.25 27.597656 703.277344 24.574219 707.007812 24.574219 C 710.738281 24.574219 713.765625 27.597656 713.765625 31.328125 "/>
<path style="fill-rule:nonzero;fill:rgb(18.431373%,30.980392%,30.980392%);fill-opacity:1;stroke-width:0.708661;stroke-linecap:round;stroke-linejoin:round;stroke:rgb(18.431373%,30.980392%,30.980392%);stroke-opacity:1;stroke-miterlimit:10;" d="M 720.8125 23.4375 C 720.8125 27.171875 717.789062 30.195312 714.058594 30.195312 C 710.324219 30.195312 707.300781 27.171875 707.300781 23.4375 C 707.300781 19.707031 710.324219 16.683594 714.058594 16.683594 C 717.789062 16.683594 720.8125 19.707031 720.8125 23.4375 "/>
<path style="fill-rule:nonzero;fill:rgb(18.431373%,30.980392%,30.980392%);fill-opacity:1;stroke-width:0.708661;stroke-linecap:round;stroke-linejoin:round;stroke:rgb(18.431373%,30.980392%,30.980392%);stroke-opacity:1;stroke-miterlimit:10;" d="M 727.863281 73.8125 C 727.863281 77.542969 724.835938 80.566406 721.105469 80.566406 C 717.375 80.566406 714.351562 77.542969 714.351562 73.8125 C 714.351562 70.078125 717.375 67.054688 721.105469 67.054688 C 724.835938 67.054688 727.863281 70.078125 727.863281 73.8125 "/>
<path style="fill:none;stroke-width:6.40187;stroke-linecap:butt;stroke-linejoin:round;stroke:rgb(94.117647%,50.196078%,50.196078%);stroke-opacity:1;stroke-miterlimit:10;" d="M 23.234375 467.8125 L 32.066406 462.605469 L 40.902344 457.398438 L 49.734375 452.1875 L 58.570312 446.980469 L 67.402344 441.773438 L 76.238281 436.566406 L 85.070312 431.359375 L 93.902344 426.148438 L 102.738281 420.941406 L 111.570312 415.734375 L 120.40625 410.527344 L 129.238281 405.320312 L 138.074219 400.109375 L 146.90625 394.902344 L 155.742188 389.695312 L 164.574219 384.488281 L 173.410156 379.28125 L 182.242188 374.070312 L 191.078125 368.863281 L 208.742188 358.449219 L 217.578125 353.242188 L 226.410156 348.035156 L 235.246094 342.824219 L 244.078125 337.617188 L 252.914062 332.410156 L 261.746094 327.203125 L 270.582031 321.996094 L 279.414062 316.785156 L 288.25 311.578125 L 297.082031 306.371094 L 305.917969 301.164062 L 314.75 295.957031 L 323.582031 290.746094 L 332.417969 285.539062 L 341.25 280.332031 L 350.085938 275.125 L 358.917969 269.917969 L 367.753906 264.710938 L 376.585938 259.5 L 385.421875 254.292969 L 394.253906 249.085938 L 403.089844 243.878906 L 411.921875 238.671875 L 420.757812 233.460938 L 438.421875 223.046875 L 447.257812 217.839844 L 456.089844 212.632812 L 464.925781 207.421875 L 473.757812 202.214844 L 482.59375 197.007812 L 491.425781 191.800781 L 500.261719 186.59375 L 509.09375 181.382812 L 517.929688 176.175781 L 526.761719 170.96875 L 535.597656 165.761719 L 553.261719 155.347656 L 562.097656 150.136719 L 570.929688 144.929688 L 579.765625 139.722656 L 588.597656 134.515625 L 597.433594 129.308594 L 606.265625 124.097656 L 615.101562 118.890625 L 623.933594 113.683594 L 632.769531 108.476562 L 641.601562 103.269531 L 650.4375 98.058594 L 668.101562 87.644531 L 676.9375 82.4375 L 685.769531 77.230469 L 694.605469 72.023438 L 703.4375 66.8125 L 712.273438 61.605469 L 721.105469 56.398438 "/>
</g>
</svg>
