<?xml version="1.0" encoding="UTF-8"?>
<svg xmlns="http://www.w3.org/2000/svg" xmlns:xlink="http://www.w3.org/1999/xlink" width="756pt" height="467pt" viewBox="0 0 756 467" version="1.1">
<g id="surface64">
<rect x="0" y="0" width="756" height="467" style="fill:rgb(100%,100%,100%);fill-opacity:1;stroke:none;"/>
<path style="fill:none;stroke-width:0.708661;stroke-linecap:round;stroke-linejoin:round;stroke:rgb(18.431373%,30.980392%,30.980392%);stroke-opacity:1;stroke-miterlimit:10;" d="M 34.257812 456.902344 C 34.257812 462.992188 29.320312 467.925781 23.234375 467.925781 C 17.144531 467.925781 12.210938 462.992188 12.210938 456.902344 C 12.210938 450.816406 17.144531 445.878906 23.234375 445.878906 C 29.320312 445.878906 34.257812 450.816406 34.257812 456.902344 "/>
<path style="fill-rule:nonzero;fill:rgb(18.431373%,30.980392%,30.980392%);fill-opacity:1;stroke-width:0.708661;stroke-linecap:round;stroke-linejoin:round;stroke:rgb(18.431373%,30.980392%,30.980392%);stroke-opacity:1;stroke-miterlimit:10;" d="M 111.800781 456.902344 C 111.800781 462.992188 106.863281 467.925781 100.773438 467.925781 C 94.6875 467.925781 89.75 462.992188 89.75 456.902344 C 89.75 450.816406 94.6875 445.878906 100.773438 445.878906 C 106.863281 445.878906 111.800781 450.816406 111.800781 456.902344 "/>
<path style="fill:none;stroke-width:0.708661;stroke-linecap:round;stroke-linejoin:round;stroke:rgb(18.431373%,30.980392%,30.980392%);stroke-opacity:1;stroke-miterlimit:10;" d="M 189.339844 456.902344 C 189.339844 462.992188 184.40625 467.925781 178.316406 467.925781 C 172.226562 467.925781 167.292969 462.992188 167.292969 456.902344 C 167.292969 450.816406 172.226562 445.878906 178.316406 445.878906 C 184.40625 445.878906 189.339844 450.816406 189.339844 456.902344 "/>
<path style="fill:none;stroke-width:0.708661;stroke-linecap:round;stroke-linejoin:round;stroke:rgb(18.431373%,30.980392%,30.980392%);stroke-opacity:1;stroke-miterlimit:10;" d="M 266.882812 456.902344 C 266.882812 462.992188 261.945312 467.925781 255.859375 467.925781 C 249.769531 467.925781 244.832031 462.992188 244.832031 456.902344 C 244.832031 450.816406 249.769531 445.878906 255.859375 445.878906 C 261.945312 445.878906 266.882812 450.816406 266.882812 456.902344 "/>
<path style="fill:none;stroke-width:0.708661;stroke-linecap:round;stroke-linejoin:round;stroke:rgb(18.431373%,30.980392%,30.980392%);stroke-opacity:1;stroke-miterlimit:10;" d="M 344.421875 456.902344 C 344.421875 462.992188 339.488281 467.925781 333.398438 467.925781 C 327.3125 467.925781 322.375 462.992188 322.375 456.902344 C 322.375 450.816406 327.3125 445.878906 333.398438 445.878906 C 339.488281 445.878906 344.421875 450.816406 344.421875 456.902344 "/>
<path style="fill:none;stroke-width:0.708661;stroke-linecap:round;stroke-linejoin:round;stroke:rgb(18.431373%,30.980392%,30.980392%);stroke-opacity:1;stroke-miterlimit:10;" d="M 421.964844 456.902344 C 421.964844 462.992188 417.027344 467.925781 410.941406 467.925781 C 404.851562 467.925781 399.917969 462.992188 399.917969 456.902344 C 399.917969 450.816406 404.851562 445.878906 410.941406 445.878906 C 417.027344 445.878906 421.964844 450.816406 421.964844 456.902344 "/>
<path style="fill:none;stroke-width:0.708661;stroke-linecap:round;stroke-linejoin:round;stroke:rgb(18.431373%,30.980392%,30.980392%);stroke-opacity:1;stroke-miterlimit:10;" d="M 499.507812 456.902344 C 499.507812 462.992188 494.570312 467.925781 488.480469 467.925781 C 482.394531 467.925781 477.457031 462.992188 477.457031 456.902344 C 477.457031 450.816406 482.394531 445.878906 488.480469 445.878906 C 494.570312 445.878906 499.507812 450.816406 499.507812 456.902344 "/>
<path style="fill:none;stroke-width:0.708661;stroke-linecap:round;stroke-linejoin:round;stroke:rgb(18.431373%,30.980392%,30.980392%);stroke-opacity:1;stroke-miterlimit:10;" d="M 577.046875 456.902344 C 577.046875 462.992188 572.113281 467.925781 566.023438 467.925781 C 559.933594 467.925781 555 462.992188 555 456.902344 C 555 450.816406 559.933594 445.878906 566.023438 445.878906 C 572.113281 445.878906 577.046875 450.816406 577.046875 456.902344 "/>
<path style="fill-rule:nonzero;fill:rgb(18.431373%,30.980392%,30.980392%);fill-opacity:1;stroke-width:0.708661;stroke-linecap:round;stroke-linejoin:round;stroke:rgb(18.431373%,30.980392%,30.980392%);stroke-opacity:1;stroke-miterlimit:10;" d="M 654.589844 456.902344 C 654.589844 462.992188 649.652344 467.925781 643.566406 467.925781 C 637.476562 467.925781 632.539062 462.992188 632.539062 456.902344 C 632.539062 450.816406 637.476562 445.878906 643.566406 445.878906 C 649.652344 445.878906 654.589844 450.816406 654.589844 456.902344 "/>
<path style="fill-rule:nonzero;fill:rgb(18.431373%,30.980392%,30.980392%);fill-opacity:1;stroke-width:0.708661;stroke-linecap:round;stroke-linejoin:round;stroke:rgb(18.431373%,30.980392%,30.980392%);stroke-opacity:1;stroke-miterlimit:10;" d="M 732.128906 456.902344 C 732.128906 462.992188 727.195312 467.925781 721.105469 467.925781 C 715.019531 467.925781 710.082031 462.992188 710.082031 456.902344 C 710.082031 450.816406 715.019531 445.878906 721.105469 445.878906 C 727.195312 445.878906 732.128906 450.816406 732.128906 456.902344 "/>
<path style="fill:none;stroke-width:0.708661;stroke-linecap:round;stroke-linejoin:round;stroke:rgb(18.431373%,30.980392%,30.980392%);stroke-opacity:1;stroke-miterlimit:10;" d="M 34.257812 408.554688 C 34.257812 414.640625 29.320312 419.578125 23.234375 419.578125 C 17.144531 419.578125 12.210938 414.640625 12.210938 408.554688 C 12.210938 402.464844 17.144531 397.53125 23.234375 397.53125 C 29.320312 397.53125 34.257812 402.464844 34.257812 408.554688 "/>
<path style="fill:none;stroke-width:0.708661;stroke-linecap:round;stroke-linejoin:round;stroke:rgb(18.431373%,30.980392%,30.980392%);stroke-opacity:1;stroke-miterlimit:10;" d="M 111.800781 408.554688 C 111.800781 414.640625 106.863281 419.578125 100.773438 419.578125 C 94.6875 419.578125 89.75 414.640625 89.75 408.554688 C 89.75 402.464844 94.6875 397.53125 100.773438 397.53125 C 106.863281 397.53125 111.800781 402.464844 111.800781 408.554688 "/>
<path style="fill-rule:nonzero;fill:rgb(18.431373%,30.980392%,30.980392%);fill-opacity:1;stroke-width:0.708661;stroke-linecap:round;stroke-linejoin:round;stroke:rgb(18.431373%,30.980392%,30.980392%);stroke-opacity:1;stroke-miterlimit:10;" d="M 189.339844 408.554688 C 189.339844 414.640625 184.40625 419.578125 178.316406 419.578125 C 172.226562 419.578125 167.292969 414.640625 167.292969 408.554688 C 167.292969 402.464844 172.226562 397.53125 178.316406 397.53125 C 184.40625 397.53125 189.339844 402.464844 189.339844 408.554688 "/>
<path style="fill:none;stroke-width:0.708661;stroke-linecap:round;stroke-linejoin:round;stroke:rgb(18.431373%,30.980392%,30.980392%);stroke-opacity:1;stroke-miterlimit:10;" d="M 266.882812 408.554688 C 266.882812 414.640625 261.945312 419.578125 255.859375 419.578125 C 249.769531 419.578125 244.832031 414.640625 244.832031 408.554688 C 244.832031 402.464844 249.769531 397.53125 255.859375 397.53125 C 261.945312 397.53125 266.882812 402.464844 266.882812 408.554688 "/>
<path style="fill-rule:nonzero;fill:rgb(18.431373%,30.980392%,30.980392%);fill-opacity:1;stroke-width:0.708661;stroke-linecap:round;stroke-linejoin:round;stroke:rgb(18.431373%,30.980392%,30.980392%);stroke-opacity:1;stroke-miterlimit:10;" d="M 344.421875 408.554688 C 344.421875 414.640625 339.488281 419.578125 333.398438 419.578125 C 327.3125 419.578125 322.375 414.640625 322.375 408.554688 C 322.375 402.464844 327.3125 397.53125 333.398438 397.53125 C 339.488281 397.53125 344.421875 402.464844 344.421875 408.554688 "/>
<path style="fill-rule:nonzero;fill:rgb(18.431373%,30.980392%,30.980392%);fill-opacity:1;stroke-width:0.708661;stroke-linecap:round;stroke-linejoin:round;stroke:rgb(18.431373%,30.980392%,30.980392%);stroke-opacity:1;stroke-miterlimit:10;" d="M 421.964844 408.554688 C 421.964844 414.640625 417.027344 419.578125 410.941406 419.578125 C 404.851562 419.578125 399.917969 414.640625 399.917969 408.554688 C 399.917969 402.464844 404.851562 397.53125 410.941406 397.53125 C 417.027344 397.53125 421.964844 402.464844 421.964844 408.554688 "/>
<path style="fill:none;stroke-width:0.708661;stroke-linecap:round;stroke-linejoin:round;stroke:rgb(18.431373%,30.980392%,30.980392%);stroke-opacity:1;stroke-miterlimit:10;" d="M 499.507812 408.554688 C 499.507812 414.640625 494.570312 419.578125 488.480469 419.578125 C 482.394531 419.578125 477.457031 414.640625 477.457031 408.554688 C 477.457031 402.464844 482.394531 397.53125 488.480469 397.53125 C 494.570312 397.53125 499.507812 402.464844 499.507812 408.554688 "/>
<path style="fill-rule:nonzero;fill:rgb(18.431373%,30.980392%,30.980392%);fill-opacity:1;stroke-width:0.708661;stroke-linecap:round;stroke-linejoin:round;stroke:rgb(18.431373%,30.980392%,30.980392%);stroke-opacity:1;stroke-miterlimit:10;" d="M 577.046875 408.554688 C 577.046875 414.640625 572.113281 419.578125 566.023438 419.578125 C 559.933594 419.578125 555 414.640625 555 408.554688 C 555 402.464844 559.933594 397.53125 566.023438 397.53125 C 572.113281 397.53125 577.046875 402.464844 577.046875 408.554688 "/>
<path style="fill:none;stroke-width:0.708661;stroke-linecap:round;stroke-linejoin:round;stroke:rgb(18.431373%,30.980392%,30.980392%);stroke-opacity:1;stroke-miterlimit:10;" d="M 654.589844 408.554688 C 654.589844 414.640625 649.652344 419.578125 643.566406 419.578125 C 637.476562 419.578125 632.539062 414.640625 632.539062 408.554688 C 632.539062 402.464844 637.476562 397.53125 643.566406 397.53125 C 649.652344 397.53125 654.589844 402.464844 654.589844 408.554688 "/>
<path style="fill:none;stroke-width:0.708661;stroke-linecap:round;stroke-linejoin:round;stroke:rgb(18.431373%,30.980392%,30.980392%);stroke-opacity:1;stroke-miterlimit:10;" d="M 732.128906 408.554688 C 732.128906 414.640625 727.195312 419.578125 721.105469 419.578125 C 715.019531 419.578125 710.082031 414.640625 710.082031 408.554688 C 710.082031 402.464844 715.019531 397.53125 721.105469 397.53125 C 727.195312 397.53125 732.128906 402.464844 732.128906 408.554688 "/>
<path style="fill:none;stroke-width:0.708661;stroke-linecap:round;stroke-linejoin:round;stroke:rgb(18.431373%,30.980392%,30.980392%);stroke-opacity:1;stroke-miterlimit:10;" d="M 34.257812 360.203125 C 34.257812 366.292969 29.320312 371.226562 23.234375 371.226562 C 17.144531 371.226562 12.210938 366.292969 12.210938 360.203125 C 12.210938 354.117188 17.144531 349.179688 23.234375 349.179688 C 29.320312 349.179688 34.257812 354.117188 34.257812 360.203125 "/>
<path style="fill-rule:nonzero;fill:rgb(18.431373%,30.980392%,30.980392%);fill-opacity:1;stroke-width:0.708661;stroke-linecap:round;stroke-linejoin:round;stroke:rgb(18.431373%,30.980392%,30.980392%);stroke-opacity:1;stroke-miterlimit:10;" d="M 111.800781 360.203125 C 111.800781 366.292969 106.863281 371.226562 100.773438 371.226562 C 94.6875 371.226562 89.75 366.292969 89.75 360.203125 C 89.75 354.117188 94.6875 349.179688 100.773438 349.179688 C 106.863281 349.179688 111.800781 354.117188 111.800781 360.203125 "/>
<path style="fill-rule:nonzero;fill:rgb(18.431373%,30.980392%,30.980392%);fill-opacity:1;stroke-width:0.708661;stroke-linecap:round;stroke-linejoin:round;stroke:rgb(18.431373%,30.980392%,30.980392%);stroke-opacity:1;stroke-miterlimit:10;" d="M 189.339844 360.203125 C 189.339844 366.292969 184.40625 371.226562 178.316406 371.226562 C 172.226562 371.226562 167.292969 366.292969 167.292969 360.203125 C 167.292969 354.117188 172.226562 349.179688 178.316406 349.179688 C 184.40625 349.179688 189.339844 354.117188 189.339844 360.203125 "/>
<path style="fill:none;stroke-width:0.708661;stroke-linecap:round;stroke-linejoin:round;stroke:rgb(18.431373%,30.980392%,30.980392%);stroke-opacity:1;stroke-miterlimit:10;" d="M 266.882812 360.203125 C 266.882812 366.292969 261.945312 371.226562 255.859375 371.226562 C 249.769531 371.226562 244.832031 366.292969 244.832031 360.203125 C 244.832031 354.117188 249.769531 349.179688 255.859375 349.179688 C 261.945312 349.179688 266.882812 354.117188 266.882812 360.203125 "/>
<path style="fill:none;stroke-width:0.708661;stroke-linecap:round;stroke-linejoin:round;stroke:rgb(18.431373%,30.980392%,30.980392%);stroke-opacity:1;stroke-miterlimit:10;" d="M 344.421875 360.203125 C 344.421875 366.292969 339.488281 371.226562 333.398438 371.226562 C 327.3125 371.226562 322.375 366.292969 322.375 360.203125 C 322.375 354.117188 327.3125 349.179688 333.398438 349.179688 C 339.488281 349.179688 344.421875 354.117188 344.421875 360.203125 "/>
<path style="fill-rule:nonzero;fill:rgb(18.431373%,30.980392%,30.980392%);fill-opacity:1;stroke-width:0.708661;stroke-linecap:round;stroke-linejoin:round;stroke:rgb(18.431373%,30.980392%,30.980392%);stroke-opacity:1;stroke-miterlimit:10;" d="M 421.964844 360.203125 C 421.964844 366.292969 417.027344 371.226562 410.941406 371.226562 C 404.851562 371.226562 399.917969 366.292969 399.917969 360.203125 C 399.917969 354.117188 404.851562 349.179688 410.941406 349.179688 C 417.027344 349.179688 421.964844 354.117188 421.964844 360.203125 "/>
<path style="fill:none;stroke-width:0.708661;stroke-linecap:round;stroke-linejoin:round;stroke:rgb(18.431373%,30.980392%,30.980392%);stroke-opacity:1;stroke-miterlimit:10;" d="M 499.507812 360.203125 C 499.507812 366.292969 494.570312 371.226562 488.480469 371.226562 C 482.394531 371.226562 477.457031 366.292969 477.457031 360.203125 C 477.457031 354.117188 482.394531 349.179688 488.480469 349.179688 C 494.570312 349.179688 499.507812 354.117188 499.507812 360.203125 "/>
<path style="fill:none;stroke-width:0.708661;stroke-linecap:round;stroke-linejoin:round;stroke:rgb(18.431373%,30.980392%,30.980392%);stroke-opacity:1;stroke-miterlimit:10;" d="M 577.046875 360.203125 C 577.046875 366.292969 572.113281 371.226562 566.023438 371.226562 C 559.933594 371.226562 555 366.292969 555 360.203125 C 555 354.117188 559.933594 349.179688 566.023438 349.179688 C 572.113281 349.179688 577.046875 354.117188 577.046875 360.203125 "/>
<path style="fill:none;stroke-width:0.708661;stroke-linecap:round;stroke-linejoin:round;stroke:rgb(18.431373%,30.980392%,30.980392%);stroke-opacity:1;stroke-miterlimit:10;" d="M 654.589844 360.203125 C 654.589844 366.292969 649.652344 371.226562 643.566406 371.226562 C 637.476562 371.226562 632.539062 366.292969 632.539062 360.203125 C 632.539062 354.117188 637.476562 349.179688 643.566406 349.179688 C 649.652344 349.179688 654.589844 354.117188 654.589844 360.203125 "/>
<path style="fill:none;stroke-width:0.708661;stroke-linecap:round;stroke-linejoin:round;stroke:rgb(18.431373%,30.980392%,30.980392%);stroke-opacity:1;stroke-miterlimit:10;" d="M 732.128906 360.203125 C 732.128906 366.292969 727.195312 371.226562 721.105469 371.226562 C 715.019531 371.226562 710.082031 366.292969 710.082031 360.203125 C 710.082031 354.117188 715.019531 349.179688 721.105469 349.179688 C 727.195312 349.179688 732.128906 354.117188 732.128906 360.203125 "/>
<path style="fill:none;stroke-width:0.708661;stroke-linecap:round;stroke-linejoin:round;stroke:rgb(18.431373%,30.980392%,30.980392%);stroke-opacity:1;stroke-miterlimit:10;" d="M 34.257812 311.855469 C 34.257812 317.941406 29.320312 322.878906 23.234375 322.878906 C 17.144531 322.878906 12.210938 317.941406 12.210938 311.855469 C 12.210938 305.765625 17.144531 300.832031 23.234375 300.832031 C 29.320312 300.832031 34.257812 305.765625 34.257812 311.855469 "/>
<path style="fill:none;stroke-width:0.708661;stroke-linecap:round;stroke-linejoin:round;stroke:rgb(18.431373%,30.980392%,30.980392%);stroke-opacity:1;stroke-miterlimit:10;" d="M 111.800781 311.855469 C 111.800781 317.941406 106.863281 322.878906 100.773438 322.878906 C 94.6875 322.878906 89.75 317.941406 89.75 311.855469 C 89.75 305.765625 94.6875 300.832031 100.773438 300.832031 C 106.863281 300.832031 111.800781 305.765625 111.800781 311.855469 "/>
<path style="fill-rule:nonzero;fill:rgb(18.431373%,30.980392%,30.980392%);fill-opacity:1;stroke-width:0.708661;stroke-linecap:round;stroke-linejoin:round;stroke:rgb(18.431373%,30.980392%,30.980392%);stroke-opacity:1;stroke-miterlimit:10;" d="M 189.339844 311.855469 C 189.339844 317.941406 184.40625 322.878906 178.316406 322.878906 C 172.226562 322.878906 167.292969 317.941406 167.292969 311.855469 C 167.292969 305.765625 172.226562 300.832031 178.316406 300.832031 C 184.40625 300.832031 189.339844 305.765625 189.339844 311.855469 "/>
<path style="fill-rule:nonzero;fill:rgb(18.431373%,30.980392%,30.980392%);fill-opacity:1;stroke-width:0.708661;stroke-linecap:round;stroke-linejoin:round;stroke:rgb(18.431373%,30.980392%,30.980392%);stroke-opacity:1;stroke-miterlimit:10;" d="M 266.882812 311.855469 C 266.882812 317.941406 261.945312 322.878906 255.859375 322.878906 C 249.769531 322.878906 244.832031 317.941406 244.832031 311.855469 C 244.832031 305.765625 249.769531 300.832031 255.859375 300.832031 C 261.945312 300.832031 266.882812 305.765625 266.882812 311.855469 "/>
<path style="fill:none;stroke-width:0.708661;stroke-linecap:round;stroke-linejoin:round;stroke:rgb(18.431373%,30.980392%,30.980392%);stroke-opacity:1;stroke-miterlimit:10;" d="M 344.421875 311.855469 C 344.421875 317.941406 339.488281 322.878906 333.398438 322.878906 C 327.3125 322.878906 322.375 317.941406 322.375 311.855469 C 322.375 305.765625 327.3125 300.832031 333.398438 300.832031 C 339.488281 300.832031 344.421875 305.765625 344.421875 311.855469 "/>
<path style="fill:none;stroke-width:0.708661;stroke-linecap:round;stroke-linejoin:round;stroke:rgb(18.431373%,30.980392%,30.980392%);stroke-opacity:1;stroke-miterlimit:10;" d="M 421.964844 311.855469 C 421.964844 317.941406 417.027344 322.878906 410.941406 322.878906 C 404.851562 322.878906 399.917969 317.941406 399.917969 311.855469 C 399.917969 305.765625 404.851562 300.832031 410.941406 300.832031 C 417.027344 300.832031 421.964844 305.765625 421.964844 311.855469 "/>
<path style="fill:none;stroke-width:0.708661;stroke-linecap:round;stroke-linejoin:round;stroke:rgb(18.431373%,30.980392%,30.980392%);stroke-opacity:1;stroke-miterlimit:10;" d="M 499.507812 311.855469 C 499.507812 317.941406 494.570312 322.878906 488.480469 322.878906 C 482.394531 322.878906 477.457031 317.941406 477.457031 311.855469 C 477.457031 305.765625 482.394531 300.832031 488.480469 300.832031 C 494.570312 300.832031 499.507812 305.765625 499.507812 311.855469 "/>
<path style="fill:none;stroke-width:0.708661;stroke-linecap:round;stroke-linejoin:round;stroke:rgb(18.431373%,30.980392%,30.980392%);stroke-opacity:1;stroke-miterlimit:10;" d="M 577.046875 311.855469 C 577.046875 317.941406 572.113281 322.878906 566.023438 322.878906 C 559.933594 322.878906 555 317.941406 555 311.855469 C 555 305.765625 559.933594 300.832031 566.023438 300.832031 C 572.113281 300.832031 577.046875 305.765625 577.046875 311.855469 "/>
<path style="fill-rule:nonzero;fill:rgb(18.431373%,30.980392%,30.980392%);fill-opacity:1;stroke-width:0.708661;stroke-linecap:round;stroke-linejoin:round;stroke:rgb(18.431373%,30.980392%,30.980392%);stroke-opacity:1;stroke-miterlimit:10;" d="M 654.589844 311.855469 C 654.589844 317.941406 649.652344 322.878906 643.566406 322.878906 C 637.476562 322.878906 632.539062 317.941406 632.539062 311.855469 C 632.539062 305.765625 637.476562 300.832031 643.566406 300.832031 C 649.652344 300.832031 654.589844 305.765625 654.589844 311.855469 "/>
<path style="fill:none;stroke-width:0.708661;stroke-linecap:round;stroke-linejoin:round;stroke:rgb(18.431373%,30.980392%,30.980392%);stroke-opacity:1;stroke-miterlimit:10;" d="M 732.128906 311.855469 C 732.128906 317.941406 727.195312 322.878906 721.105469 322.878906 C 715.019531 322.878906 710.082031 317.941406 710.082031 311.855469 C 710.082031 305.765625 715.019531 300.832031 721.105469 300.832031 C 727.195312 300.832031 732.128906 305.765625 732.128906 311.855469 "/>
<path style="fill-rule:nonzero;fill:rgb(18.431373%,30.980392%,30.980392%);fill-opacity:1;stroke-width:0.708661;stroke-linecap:round;stroke-linejoin:round;stroke:rgb(18.431373%,30.980392%,30.980392%);stroke-opacity:1;stroke-miterlimit:10;" d="M 34.257812 263.503906 C 34.257812 269.59375 29.320312 274.527344 23.234375 274.527344 C 17.144531 274.527344 12.210938 269.59375 12.210938 263.503906 C 12.210938 257.417969 17.144531 252.480469 23.234375 252.480469 C 29.320312 252.480469 34.257812 257.417969 34.257812 263.503906 "/>
<path style="fill:none;stroke-width:0.708661;stroke-linecap:round;stroke-linejoin:round;stroke:rgb(18.431373%,30.980392%,30.980392%);stroke-opacity:1;stroke-miterlimit:10;" d="M 111.800781 263.503906 C 111.800781 269.59375 106.863281 274.527344 100.773438 274.527344 C 94.6875 274.527344 89.75 269.59375 89.75 263.503906 C 89.75 257.417969 94.6875 252.480469 100.773438 252.480469 C 106.863281 252.480469 111.800781 257.417969 111.800781 263.503906 "/>
<path style="fill-rule:nonzero;fill:rgb(18.431373%,30.980392%,30.980392%);fill-opacity:1;stroke-width:0.708661;stroke-linecap:round;stroke-linejoin:round;stroke:rgb(18.431373%,30.980392%,30.980392%);stroke-opacity:1;stroke-miterlimit:10;" d="M 189.339844 263.503906 C 189.339844 269.59375 184.40625 274.527344 178.316406 274.527344 C 172.226562 274.527344 167.292969 269.59375 167.292969 263.503906 C 167.292969 257.417969 172.226562 252.480469 178.316406 252.480469 C 184.40625 252.480469 189.339844 257.417969 189.339844 263.503906 "/>
<path style="fill-rule:nonzero;fill:rgb(18.431373%,30.980392%,30.980392%);fill-opacity:1;stroke-width:0.708661;stroke-linecap:round;stroke-linejoin:round;stroke:rgb(18.431373%,30.980392%,30.980392%);stroke-opacity:1;stroke-miterlimit:10;" d="M 266.882812 263.503906 C 266.882812 269.59375 261.945312 274.527344 255.859375 274.527344 C 249.769531 274.527344 244.832031 269.59375 244.832031 263.503906 C 244.832031 257.417969 249.769531 252.480469 255.859375 252.480469 C 261.945312 252.480469 266.882812 257.417969 266.882812 263.503906 "/>
<path style="fill:none;stroke-width:0.708661;stroke-linecap:round;stroke-linejoin:round;stroke:rgb(18.431373%,30.980392%,30.980392%);stroke-opacity:1;stroke-miterlimit:10;" d="M 344.421875 263.503906 C 344.421875 269.59375 339.488281 274.527344 333.398438 274.527344 C 327.3125 274.527344 322.375 269.59375 322.375 263.503906 C 322.375 257.417969 327.3125 252.480469 333.398438 252.480469 C 339.488281 252.480469 344.421875 257.417969 344.421875 263.503906 "/>
<path style="fill:none;stroke-width:0.708661;stroke-linecap:round;stroke-linejoin:round;stroke:rgb(18.431373%,30.980392%,30.980392%);stroke-opacity:1;stroke-miterlimit:10;" d="M 421.964844 263.503906 C 421.964844 269.59375 417.027344 274.527344 410.941406 274.527344 C 404.851562 274.527344 399.917969 269.59375 399.917969 263.503906 C 399.917969 257.417969 404.851562 252.480469 410.941406 252.480469 C 417.027344 252.480469 421.964844 257.417969 421.964844 263.503906 "/>
<path style="fill-rule:nonzero;fill:rgb(18.431373%,30.980392%,30.980392%);fill-opacity:1;stroke-width:0.708661;stroke-linecap:round;stroke-linejoin:round;stroke:rgb(18.431373%,30.980392%,30.980392%);stroke-opacity:1;stroke-miterlimit:10;" d="M 499.507812 263.503906 C 499.507812 269.59375 494.570312 274.527344 488.480469 274.527344 C 482.394531 274.527344 477.457031 269.59375 477.457031 263.503906 C 477.457031 257.417969 482.394531 252.480469 488.480469 252.480469 C 494.570312 252.480469 499.507812 257.417969 499.507812 263.503906 "/>
<path style="fill:none;stroke-width:0.708661;stroke-linecap:round;stroke-linejoin:round;stroke:rgb(18.431373%,30.980392%,30.980392%);stroke-opacity:1;stroke-miterlimit:10;" d="M 577.046875 263.503906 C 577.046875 269.59375 572.113281 274.527344 566.023438 274.527344 C 559.933594 274.527344 555 269.59375 555 263.503906 C 555 257.417969 559.933594 252.480469 566.023438 252.480469 C 572.113281 252.480469 577.046875 257.417969 577.046875 263.503906 "/>
<path style="fill:none;stroke-width:0.708661;stroke-linecap:round;stroke-linejoin:round;stroke:rgb(18.431373%,30.980392%,30.980392%);stroke-opacity:1;stroke-miterlimit:10;" d="M 654.589844 263.503906 C 654.589844 269.59375 649.652344 274.527344 643.566406 274.527344 C 637.476562 274.527344 632.539062 269.59375 632.539062 263.503906 C 632.539062 257.417969 637.476562 252.480469 643.566406 252.480469 C 649.652344 252.480469 654.589844 257.417969 654.589844 263.503906 "/>
<path style="fill-rule:nonzero;fill:rgb(18.431373%,30.980392%,30.980392%);fill-opacity:1;stroke-width:0.708661;stroke-linecap:round;stroke-linejoin:round;stroke:rgb(18.431373%,30.980392%,30.980392%);stroke-opacity:1;stroke-miterlimit:10;" d="M 732.128906 263.503906 C 732.128906 269.59375 727.195312 274.527344 721.105469 274.527344 C 715.019531 274.527344 710.082031 269.59375 710.082031 263.503906 C 710.082031 257.417969 715.019531 252.480469 721.105469 252.480469 C 727.195312 252.480469 732.128906 257.417969 732.128906 263.503906 "/>
<path style="fill:none;stroke-width:0.708661;stroke-linecap:round;stroke-linejoin:round;stroke:rgb(18.431373%,30.980392%,30.980392%);stroke-opacity:1;stroke-miterlimit:10;" d="M 34.257812 215.15625 C 34.257812 221.242188 29.320312 226.179688 23.234375 226.179688 C 17.144531 226.179688 12.210938 221.242188 12.210938 215.15625 C 12.210938 209.066406 17.144531 204.132812 23.234375 204.132812 C 29.320312 204.132812 34.257812 209.066406 34.257812 215.15625 "/>
<path style="fill:none;stroke-width:0.708661;stroke-linecap:round;stroke-linejoin:round;stroke:rgb(18.431373%,30.980392%,30.980392%);stroke-opacity:1;stroke-miterlimit:10;" d="M 111.800781 215.15625 C 111.800781 221.242188 106.863281 226.179688 100.773438 226.179688 C 94.6875 226.179688 89.75 221.242188 89.75 215.15625 C 89.75 209.066406 94.6875 204.132812 100.773438 204.132812 C 106.863281 204.132812 111.800781 209.066406 111.800781 215.15625 "/>
<path style="fill:none;stroke-width:0.708661;stroke-linecap:round;stroke-linejoin:round;stroke:rgb(18.431373%,30.980392%,30.980392%);stroke-opacity:1;stroke-miterlimit:10;" d="M 189.339844 215.15625 C 189.339844 221.242188 184.40625 226.179688 178.316406 226.179688 C 172.226562 226.179688 167.292969 221.242188 167.292969 215.15625 C 167.292969 209.066406 172.226562 204.132812 178.316406 204.132812 C 184.40625 204.132812 189.339844 209.066406 189.339844 215.15625 "/>
<path style="fill:none;stroke-width:0.708661;stroke-linecap:round;stroke-linejoin:round;stroke:rgb(18.431373%,30.980392%,30.980392%);stroke-opacity:1;stroke-miterlimit:10;" d="M 266.882812 215.15625 C 266.882812 221.242188 261.945312 226.179688 255.859375 226.179688 C 249.769531 226.179688 244.832031 221.242188 244.832031 215.15625 C 244.832031 209.066406 249.769531 204.132812 255.859375 204.132812 C 261.945312 204.132812 266.882812 209.066406 266.882812 215.15625 "/>
<path style="fill:none;stroke-width:0.708661;stroke-linecap:round;stroke-linejoin:round;stroke:rgb(18.431373%,30.980392%,30.980392%);stroke-opacity:1;stroke-miterlimit:10;" d="M 344.421875 215.15625 C 344.421875 221.242188 339.488281 226.179688 333.398438 226.179688 C 327.3125 226.179688 322.375 221.242188 322.375 215.15625 C 322.375 209.066406 327.3125 204.132812 333.398438 204.132812 C 339.488281 204.132812 344.421875 209.066406 344.421875 215.15625 "/>
<path style="fill:none;stroke-width:0.708661;stroke-linecap:round;stroke-linejoin:round;stroke:rgb(18.431373%,30.980392%,30.980392%);stroke-opacity:1;stroke-miterlimit:10;" d="M 421.964844 215.15625 C 421.964844 221.242188 417.027344 226.179688 410.941406 226.179688 C 404.851562 226.179688 399.917969 221.242188 399.917969 215.15625 C 399.917969 209.066406 404.851562 204.132812 410.941406 204.132812 C 417.027344 204.132812 421.964844 209.066406 421.964844 215.15625 "/>
<path style="fill-rule:nonzero;fill:rgb(18.431373%,30.980392%,30.980392%);fill-opacity:1;stroke-width:0.708661;stroke-linecap:round;stroke-linejoin:round;stroke:rgb(18.431373%,30.980392%,30.980392%);stroke-opacity:1;stroke-miterlimit:10;" d="M 499.507812 215.15625 C 499.507812 221.242188 494.570312 226.179688 488.480469 226.179688 C 482.394531 226.179688 477.457031 221.242188 477.457031 215.15625 C 477.457031 209.066406 482.394531 204.132812 488.480469 204.132812 C 494.570312 204.132812 499.507812 209.066406 499.507812 215.15625 "/>
<path style="fill:none;stroke-width:0.708661;stroke-linecap:round;stroke-linejoin:round;stroke:rgb(18.431373%,30.980392%,30.980392%);stroke-opacity:1;stroke-miterlimit:10;" d="M 577.046875 215.15625 C 577.046875 221.242188 572.113281 226.179688 566.023438 226.179688 C 559.933594 226.179688 555 221.242188 555 215.15625 C 555 209.066406 559.933594 204.132812 566.023438 204.132812 C 572.113281 204.132812 577.046875 209.066406 577.046875 215.15625 "/>
<path style="fill-rule:nonzero;fill:rgb(18.431373%,30.980392%,30.980392%);fill-opacity:1;stroke-width:0.708661;stroke-linecap:round;stroke-linejoin:round;stroke:rgb(18.431373%,30.980392%,30.980392%);stroke-opacity:1;stroke-miterlimit:10;" d="M 654.589844 215.15625 C 654.589844 221.242188 649.652344 226.179688 643.566406 226.179688 C 637.476562 226.179688 632.539062 221.242188 632.539062 215.15625 C 632.539062 209.066406 637.476562 204.132812 643.566406 204.132812 C 649.652344 204.132812 654.589844 209.066406 654.589844 215.15625 "/>
<path style="fill:none;stroke-width:0.708661;stroke-linecap:round;stroke-linejoin:round;stroke:rgb(18.431373%,30.980392%,30.980392%);stroke-opacity:1;stroke-miterlimit:10;" d="M 732.128906 215.15625 C 732.128906 221.242188 727.195312 226.179688 721.105469 226.179688 C 715.019531 226.179688 710.082031 221.242188 710.082031 215.15625 C 710.082031 209.066406 715.019531 204.132812 721.105469 204.132812 C 727.195312 204.132812 732.128906 209.066406 732.128906 215.15625 "/>
<path style="fill-rule:nonzero;fill:rgb(18.431373%,30.980392%,30.980392%);fill-opacity:1;stroke-width:0.708661;stroke-linecap:round;stroke-linejoin:round;stroke:rgb(18.431373%,30.980392%,30.980392%);stroke-opacity:1;stroke-miterlimit:10;" d="M 34.257812 166.804688 C 34.257812 172.894531 29.320312 177.828125 23.234375 177.828125 C 17.144531 177.828125 12.210938 172.894531 12.210938 166.804688 C 12.210938 160.71875 17.144531 155.78125 23.234375 155.78125 C 29.320312 155.78125 34.257812 160.71875 34.257812 166.804688 "/>
<path style="fill:none;stroke-width:0.708661;stroke-linecap:round;stroke-linejoin:round;stroke:rgb(18.431373%,30.980392%,30.980392%);stroke-opacity:1;stroke-miterlimit:10;" d="M 111.800781 166.804688 C 111.800781 172.894531 106.863281 177.828125 100.773438 177.828125 C 94.6875 177.828125 89.75 172.894531 89.75 166.804688 C 89.75 160.71875 94.6875 155.78125 100.773438 155.78125 C 106.863281 155.78125 111.800781 160.71875 111.800781 166.804688 "/>
<path style="fill-rule:nonzero;fill:rgb(18.431373%,30.980392%,30.980392%);fill-opacity:1;stroke-width:0.708661;stroke-linecap:round;stroke-linejoin:round;stroke:rgb(18.431373%,30.980392%,30.980392%);stroke-opacity:1;stroke-miterlimit:10;" d="M 189.339844 166.804688 C 189.339844 172.894531 184.40625 177.828125 178.316406 177.828125 C 172.226562 177.828125 167.292969 172.894531 167.292969 166.804688 C 167.292969 160.71875 172.226562 155.78125 178.316406 155.78125 C 184.40625 155.78125 189.339844 160.71875 189.339844 166.804688 "/>
<path style="fill:none;stroke-width:0.708661;stroke-linecap:round;stroke-linejoin:round;stroke:rgb(18.431373%,30.980392%,30.980392%);stroke-opacity:1;stroke-miterlimit:10;" d="M 266.882812 166.804688 C 266.882812 172.894531 261.945312 177.828125 255.859375 177.828125 C 249.769531 177.828125 244.832031 172.894531 244.832031 166.804688 C 244.832031 160.71875 249.769531 155.78125 255.859375 155.78125 C 261.945312 155.78125 266.882812 160.71875 266.882812 166.804688 "/>
<path style="fill:none;stroke-width:0.708661;stroke-linecap:round;stroke-linejoin:round;stroke:rgb(18.431373%,30.980392%,30.980392%);stroke-opacity:1;stroke-miterlimit:10;" d="M 344.421875 166.804688 C 344.421875 172.894531 339.488281 177.828125 333.398438 177.828125 C 327.3125 177.828125 322.375 172.894531 322.375 166.804688 C 322.375 160.71875 327.3125 155.78125 333.398438 155.78125 C 339.488281 155.78125 344.421875 160.71875 344.421875 166.804688 "/>
<path style="fill:none;stroke-width:0.708661;stroke-linecap:round;stroke-linejoin:round;stroke:rgb(18.431373%,30.980392%,30.980392%);stroke-opacity:1;stroke-miterlimit:10;" d="M 421.964844 166.804688 C 421.964844 172.894531 417.027344 177.828125 410.941406 177.828125 C 404.851562 177.828125 399.917969 172.894531 399.917969 166.804688 C 399.917969 160.71875 404.851562 155.78125 410.941406 155.78125 C 417.027344 155.78125 421.964844 160.71875 421.964844 166.804688 "/>
<path style="fill:none;stroke-width:0.708661;stroke-linecap:round;stroke-linejoin:round;stroke:rgb(18.431373%,30.980392%,30.980392%);stroke-opacity:1;stroke-miterlimit:10;" d="M 499.507812 166.804688 C 499.507812 172.894531 494.570312 177.828125 488.480469 177.828125 C 482.394531 177.828125 477.457031 172.894531 477.457031 166.804688 C 477.457031 160.71875 482.394531 155.78125 488.480469 155.78125 C 494.570312 155.78125 499.507812 160.71875 499.507812 166.804688 "/>
<path style="fill-rule:nonzero;fill:rgb(18.431373%,30.980392%,30.980392%);fill-opacity:1;stroke-width:0.708661;stroke-linecap:round;stroke-linejoin:round;stroke:rgb(18.431373%,30.980392%,30.980392%);stroke-opacity:1;stroke-miterlimit:10;" d="M 577.046875 166.804688 C 577.046875 172.894531 572.113281 177.828125 566.023438 177.828125 C 559.933594 177.828125 555 172.894531 555 166.804688 C 555 160.71875 559.933594 155.78125 566.023438 155.78125 C 572.113281 155.78125 577.046875 160.71875 577.046875 166.804688 "/>
<path style="fill:none;stroke-width:0.708661;stroke-linecap:round;stroke-linejoin:round;stroke:rgb(18.431373%,30.980392%,30.980392%);stroke-opacity:1;stroke-miterlimit:10;" d="M 654.589844 166.804688 C 654.589844 172.894531 649.652344 177.828125 643.566406 177.828125 C 637.476562 177.828125 632.539062 172.894531 632.539062 166.804688 C 632.539062 160.71875 637.476562 155.78125 643.566406 155.78125 C 649.652344 155.78125 654.589844 160.71875 654.589844 166.804688 "/>
<path style="fill:none;stroke-width:0.708661;stroke-linecap:round;stroke-linejoin:round;stroke:rgb(18.431373%,30.980392%,30.980392%);stroke-opacity:1;stroke-miterlimit:10;" d="M 732.128906 166.804688 C 732.128906 172.894531 727.195312 177.828125 721.105469 177.828125 C 715.019531 177.828125 710.082031 172.894531 710.082031 166.804688 C 710.082031 160.71875 715.019531 155.78125 721.105469 155.78125 C 727.195312 155.78125 732.128906 160.71875 732.128906 166.804688 "/>
<path style="fill-rule:nonzero;fill:rgb(18.431373%,30.980392%,30.980392%);fill-opacity:1;stroke-width:0.708661;stroke-linecap:round;stroke-linejoin:round;stroke:rgb(18.431373%,30.980392%,30.980392%);stroke-opacity:1;stroke-miterlimit:10;" d="M 34.257812 118.457031 C 34.257812 124.542969 29.320312 129.480469 23.234375 129.480469 C 17.144531 129.480469 12.210938 124.542969 12.210938 118.457031 C 12.210938 112.367188 17.144531 107.433594 23.234375 107.433594 C 29.320312 107.433594 34.257812 112.367188 34.257812 118.457031 "/>
<path style="fill:none;stroke-width:0.708661;stroke-linecap:round;stroke-linejoin:round;stroke:rgb(18.431373%,30.980392%,30.980392%);stroke-opacity:1;stroke-miterlimit:10;" d="M 111.800781 118.457031 C 111.800781 124.542969 106.863281 129.480469 100.773438 129.480469 C 94.6875 129.480469 89.75 124.542969 89.75 118.457031 C 89.75 112.367188 94.6875 107.433594 100.773438 107.433594 C 106.863281 107.433594 111.800781 112.367188 111.800781 118.457031 "/>
<path style="fill:none;stroke-width:0.708661;stroke-linecap:round;stroke-linejoin:round;stroke:rgb(18.431373%,30.980392%,30.980392%);stroke-opacity:1;stroke-miterlimit:10;" d="M 189.339844 118.457031 C 189.339844 124.542969 184.40625 129.480469 178.316406 129.480469 C 172.226562 129.480469 167.292969 124.542969 167.292969 118.457031 C 167.292969 112.367188 172.226562 107.433594 178.316406 107.433594 C 184.40625 107.433594 189.339844 112.367188 189.339844 118.457031 "/>
<path style="fill-rule:nonzero;fill:rgb(18.431373%,30.980392%,30.980392%);fill-opacity:1;stroke-width:0.708661;stroke-linecap:round;stroke-linejoin:round;stroke:rgb(18.431373%,30.980392%,30.980392%);stroke-opacity:1;stroke-miterlimit:10;" d="M 266.882812 118.457031 C 266.882812 124.542969 261.945312 129.480469 255.859375 129.480469 C 249.769531 129.480469 244.832031 124.542969 244.832031 118.457031 C 244.832031 112.367188 249.769531 107.433594 255.859375 107.433594 C 261.945312 107.433594 266.882812 112.367188 266.882812 118.457031 "/>
<path style="fill:none;stroke-width:0.708661;stroke-linecap:round;stroke-linejoin:round;stroke:rgb(18.431373%,30.980392%,30.980392%);stroke-opacity:1;stroke-miterlimit:10;" d="M 344.421875 118.457031 C 344.421875 124.542969 339.488281 129.480469 333.398438 129.480469 C 327.3125 129.480469 322.375 124.542969 322.375 118.457031 C 322.375 112.367188 327.3125 107.433594 333.398438 107.433594 C 339.488281 107.433594 344.421875 112.367188 344.421875 118.457031 "/>
<path style="fill:none;stroke-width:0.708661;stroke-linecap:round;stroke-linejoin:round;stroke:rgb(18.431373%,30.980392%,30.980392%);stroke-opacity:1;stroke-miterlimit:10;" d="M 421.964844 118.457031 C 421.964844 124.542969 417.027344 129.480469 410.941406 129.480469 C 404.851562 129.480469 399.917969 124.542969 399.917969 118.457031 C 399.917969 112.367188 404.851562 107.433594 410.941406 107.433594 C 417.027344 107.433594 421.964844 112.367188 421.964844 118.457031 "/>
<path style="fill:none;stroke-width:0.708661;stroke-linecap:round;stroke-linejoin:round;stroke:rgb(18.431373%,30.980392%,30.980392%);stroke-opacity:1;stroke-miterlimit:10;" d="M 499.507812 118.457031 C 499.507812 124.542969 494.570312 129.480469 488.480469 129.480469 C 482.394531 129.480469 477.457031 124.542969 477.457031 118.457031 C 477.457031 112.367188 482.394531 107.433594 488.480469 107.433594 C 494.570312 107.433594 499.507812 112.367188 499.507812 118.457031 "/>
<path style="fill:none;stroke-width:0.708661;stroke-linecap:round;stroke-linejoin:round;stroke:rgb(18.431373%,30.980392%,30.980392%);stroke-opacity:1;stroke-miterlimit:10;" d="M 577.046875 118.457031 C 577.046875 124.542969 572.113281 129.480469 566.023438 129.480469 C 559.933594 129.480469 555 124.542969 555 118.457031 C 555 112.367188 559.933594 107.433594 566.023438 107.433594 C 572.113281 107.433594 577.046875 112.367188 577.046875 118.457031 "/>
<path style="fill-rule:nonzero;fill:rgb(18.431373%,30.980392%,30.980392%);fill-opacity:1;stroke-width:0.708661;stroke-linecap:round;stroke-linejoin:round;stroke:rgb(18.431373%,30.980392%,30.980392%);stroke-opacity:1;stroke-miterlimit:10;" d="M 654.589844 118.457031 C 654.589844 124.542969 649.652344 129.480469 643.566406 129.480469 C 637.476562 129.480469 632.539062 124.542969 632.539062 118.457031 C 632.539062 112.367188 637.476562 107.433594 643.566406 107.433594 C 649.652344 107.433594 654.589844 112.367188 654.589844 118.457031 "/>
<path style="fill:none;stroke-width:0.708661;stroke-linecap:round;stroke-linejoin:round;stroke:rgb(18.431373%,30.980392%,30.980392%);stroke-opacity:1;stroke-miterlimit:10;" d="M 732.128906 118.457031 C 732.128906 124.542969 727.195312 129.480469 721.105469 129.480469 C 715.019531 129.480469 710.082031 124.542969 710.082031 118.457031 C 710.082031 112.367188 715.019531 107.433594 721.105469 107.433594 C 727.195312 107.433594 732.128906 112.367188 732.128906 118.457031 "/>
<path style="fill:none;stroke-width:0.708661;stroke-linecap:round;stroke-linejoin:round;stroke:rgb(18.431373%,30.980392%,30.980392%);stroke-opacity:1;stroke-miterlimit:10;" d="M 34.257812 70.105469 C 34.257812 76.195312 29.320312 81.132812 23.234375 81.132812 C 17.144531 81.132812 12.210938 76.195312 12.210938 70.105469 C 12.210938 64.019531 17.144531 59.082031 23.234375 59.082031 C 29.320312 59.082031 34.257812 64.019531 34.257812 70.105469 "/>
<path style="fill:none;stroke-width:0.708661;stroke-linecap:round;stroke-linejoin:round;stroke:rgb(18.431373%,30.980392%,30.980392%);stroke-opacity:1;stroke-miterlimit:10;" d="M 111.800781 70.105469 C 111.800781 76.195312 106.863281 81.132812 100.773438 81.132812 C 94.6875 81.132812 89.75 76.195312 89.75 70.105469 C 89.75 64.019531 94.6875 59.082031 100.773438 59.082031 C 106.863281 59.082031 111.800781 64.019531 111.800781 70.105469 "/>
<path style="fill:none;stroke-width:0.708661;stroke-linecap:round;stroke-linejoin:round;stroke:rgb(18.431373%,30.980392%,30.980392%);stroke-opacity:1;stroke-miterlimit:10;" d="M 189.339844 70.105469 C 189.339844 76.195312 184.40625 81.132812 178.316406 81.132812 C 172.226562 81.132812 167.292969 76.195312 167.292969 70.105469 C 167.292969 64.019531 172.226562 59.082031 178.316406 59.082031 C 184.40625 59.082031 189.339844 64.019531 189.339844 70.105469 "/>
<path style="fill:none;stroke-width:0.708661;stroke-linecap:round;stroke-linejoin:round;stroke:rgb(18.431373%,30.980392%,30.980392%);stroke-opacity:1;stroke-miterlimit:10;" d="M 266.882812 70.105469 C 266.882812 76.195312 261.945312 81.132812 255.859375 81.132812 C 249.769531 81.132812 244.832031 76.195312 244.832031 70.105469 C 244.832031 64.019531 249.769531 59.082031 255.859375 59.082031 C 261.945312 59.082031 266.882812 64.019531 266.882812 70.105469 "/>
<path style="fill:none;stroke-width:0.708661;stroke-linecap:round;stroke-linejoin:round;stroke:rgb(18.431373%,30.980392%,30.980392%);stroke-opacity:1;stroke-miterlimit:10;" d="M 344.421875 70.105469 C 344.421875 76.195312 339.488281 81.132812 333.398438 81.132812 C 327.3125 81.132812 322.375 76.195312 322.375 70.105469 C 322.375 64.019531 327.3125 59.082031 333.398438 59.082031 C 339.488281 59.082031 344.421875 64.019531 344.421875 70.105469 "/>
<path style="fill-rule:nonzero;fill:rgb(18.431373%,30.980392%,30.980392%);fill-opacity:1;stroke-width:0.708661;stroke-linecap:round;stroke-linejoin:round;stroke:rgb(18.431373%,30.980392%,30.980392%);stroke-opacity:1;stroke-miterlimit:10;" d="M 421.964844 70.105469 C 421.964844 76.195312 417.027344 81.132812 410.941406 81.132812 C 404.851562 81.132812 399.917969 76.195312 399.917969 70.105469 C 399.917969 64.019531 404.851562 59.082031 410.941406 59.082031 C 417.027344 59.082031 421.964844 64.019531 421.964844 70.105469 "/>
<path style="fill:none;stroke-width:0.708661;stroke-linecap:round;stroke-linejoin:round;stroke:rgb(18.431373%,30.980392%,30.980392%);stroke-opacity:1;stroke-miterlimit:10;" d="M 499.507812 70.105469 C 499.507812 76.195312 494.570312 81.132812 488.480469 81.132812 C 482.394531 81.132812 477.457031 76.195312 477.457031 70.105469 C 477.457031 64.019531 482.394531 59.082031 488.480469 59.082031 C 494.570312 59.082031 499.507812 64.019531 499.507812 70.105469 "/>
<path style="fill:none;stroke-width:0.708661;stroke-linecap:round;stroke-linejoin:round;stroke:rgb(18.431373%,30.980392%,30.980392%);stroke-opacity:1;stroke-miterlimit:10;" d="M 577.046875 70.105469 C 577.046875 76.195312 572.113281 81.132812 566.023438 81.132812 C 559.933594 81.132812 555 76.195312 555 70.105469 C 555 64.019531 559.933594 59.082031 566.023438 59.082031 C 572.113281 59.082031 577.046875 64.019531 577.046875 70.105469 "/>
<path style="fill:none;stroke-width:0.708661;stroke-linecap:round;stroke-linejoin:round;stroke:rgb(18.431373%,30.980392%,30.980392%);stroke-opacity:1;stroke-miterlimit:10;" d="M 654.589844 70.105469 C 654.589844 76.195312 649.652344 81.132812 643.566406 81.132812 C 637.476562 81.132812 632.539062 76.195312 632.539062 70.105469 C 632.539062 64.019531 637.476562 59.082031 643.566406 59.082031 C 649.652344 59.082031 654.589844 64.019531 654.589844 70.105469 "/>
<path style="fill:none;stroke-width:0.708661;stroke-linecap:round;stroke-linejoin:round;stroke:rgb(18.431373%,30.980392%,30.980392%);stroke-opacity:1;stroke-miterlimit:10;" d="M 732.128906 70.105469 C 732.128906 76.195312 727.195312 81.132812 721.105469 81.132812 C 715.019531 81.132812 710.082031 76.195312 710.082031 70.105469 C 710.082031 64.019531 715.019531 59.082031 721.105469 59.082031 C 727.195312 59.082031 732.128906 64.019531 732.128906 70.105469 "/>
<path style="fill:none;stroke-width:0.708661;stroke-linecap:round;stroke-linejoin:round;stroke:rgb(18.431373%,30.980392%,30.980392%);stroke-opacity:1;stroke-miterlimit:10;" d="M 34.257812 21.757812 C 34.257812 27.847656 29.320312 32.78125 23.234375 32.78125 C 17.144531 32.78125 12.210938 27.847656 12.210938 21.757812 C 12.210938 15.667969 17.144531 10.734375 23.234375 10.734375 C 29.320312 10.734375 34.257812 15.667969 34.257812 21.757812 "/>
<path style="fill:none;stroke-width:0.708661;stroke-linecap:round;stroke-linejoin:round;stroke:rgb(18.431373%,30.980392%,30.980392%);stroke-opacity:1;stroke-miterlimit:10;" d="M 111.800781 21.757812 C 111.800781 27.847656 106.863281 32.78125 100.773438 32.78125 C 94.6875 32.78125 89.75 27.847656 89.75 21.757812 C 89.75 15.667969 94.6875 10.734375 100.773438 10.734375 C 106.863281 10.734375 111.800781 15.667969 111.800781 21.757812 "/>
<path style="fill-rule:nonzero;fill:rgb(18.431373%,30.980392%,30.980392%);fill-opacity:1;stroke-width:0.708661;stroke-linecap:round;stroke-linejoin:round;stroke:rgb(18.431373%,30.980392%,30.980392%);stroke-opacity:1;stroke-miterlimit:10;" d="M 189.339844 21.757812 C 189.339844 27.847656 184.40625 32.78125 178.316406 32.78125 C 172.226562 32.78125 167.292969 27.847656 167.292969 21.757812 C 167.292969 15.667969 172.226562 10.734375 178.316406 10.734375 C 184.40625 10.734375 189.339844 15.667969 189.339844 21.757812 "/>
<path style="fill:none;stroke-width:0.708661;stroke-linecap:round;stroke-linejoin:round;stroke:rgb(18.431373%,30.980392%,30.980392%);stroke-opacity:1;stroke-miterlimit:10;" d="M 266.882812 21.757812 C 266.882812 27.847656 261.945312 32.78125 255.859375 32.78125 C 249.769531 32.78125 244.832031 27.847656 244.832031 21.757812 C 244.832031 15.667969 249.769531 10.734375 255.859375 10.734375 C 261.945312 10.734375 266.882812 15.667969 266.882812 21.757812 "/>
<path style="fill:none;stroke-width:0.708661;stroke-linecap:round;stroke-linejoin:round;stroke:rgb(18.431373%,30.980392%,30.980392%);stroke-opacity:1;stroke-miterlimit:10;" d="M 344.421875 21.757812 C 344.421875 27.847656 339.488281 32.78125 333.398438 32.78125 C 327.3125 32.78125 322.375 27.847656 322.375 21.757812 C 322.375 15.667969 327.3125 10.734375 333.398438 10.734375 C 339.488281 10.734375 344.421875 15.667969 344.421875 21.757812 "/>
<path style="fill:none;stroke-width:0.708661;stroke-linecap:round;stroke-linejoin:round;stroke:rgb(18.431373%,30.980392%,30.980392%);stroke-opacity:1;stroke-miterlimit:10;" d="M 421.964844 21.757812 C 421.964844 27.847656 417.027344 32.78125 410.941406 32.78125 C 404.851562 32.78125 399.917969 27.847656 399.917969 21.757812 C 399.917969 15.667969 404.851562 10.734375 410.941406 10.734375 C 417.027344 10.734375 421.964844 15.667969 421.964844 21.757812 "/>
<path style="fill-rule:nonzero;fill:rgb(18.431373%,30.980392%,30.980392%);fill-opacity:1;stroke-width:0.708661;stroke-linecap:round;stroke-linejoin:round;stroke:rgb(18.431373%,30.980392%,30.980392%);stroke-opacity:1;stroke-miterlimit:10;" d="M 499.507812 21.757812 C 499.507812 27.847656 494.570312 32.78125 488.480469 32.78125 C 482.394531 32.78125 477.457031 27.847656 477.457031 21.757812 C 477.457031 15.667969 482.394531 10.734375 488.480469 10.734375 C 494.570312 10.734375 499.507812 15.667969 499.507812 21.757812 "/>
<path style="fill:none;stroke-width:0.708661;stroke-linecap:round;stroke-linejoin:round;stroke:rgb(18.431373%,30.980392%,30.980392%);stroke-opacity:1;stroke-miterlimit:10;" d="M 577.046875 21.757812 C 577.046875 27.847656 572.113281 32.78125 566.023438 32.78125 C 559.933594 32.78125 555 27.847656 555 21.757812 C 555 15.667969 559.933594 10.734375 566.023438 10.734375 C 572.113281 10.734375 577.046875 15.667969 577.046875 21.757812 "/>
<path style="fill:none;stroke-width:0.708661;stroke-linecap:round;stroke-linejoin:round;stroke:rgb(18.431373%,30.980392%,30.980392%);stroke-opacity:1;stroke-miterlimit:10;" d="M 654.589844 21.757812 C 654.589844 27.847656 649.652344 32.78125 643.566406 32.78125 C 637.476562 32.78125 632.539062 27.847656 632.539062 21.757812 C 632.539062 15.667969 637.476562 10.734375 643.566406 10.734375 C 649.652344 10.734375 654.589844 15.667969 654.589844 21.757812 "/>
<path style="fill-rule:nonzero;fill:rgb(18.431373%,30.980392%,30.980392%);fill-opacity:1;stroke-width:0.708661;stroke-linecap:round;stroke-linejoin:round;stroke:rgb(18.431373%,30.980392%,30.980392%);stroke-opacity:1;stroke-miterlimit:10;" d="M 732.128906 21.757812 C 732.128906 27.847656 727.195312 32.78125 721.105469 32.78125 C 715.019531 32.78125 710.082031 27.847656 710.082031 21.757812 C 710.082031 15.667969 715.019531 10.734375 721.105469 10.734375 C 727.195312 10.734375 732.128906 15.667969 732.128906 21.757812 "/>
</g>
</svg>
