<?xml version="1.0" encoding="UTF-8"?>
<svg xmlns="http://www.w3.org/2000/svg" xmlns:xlink="http://www.w3.org/1999/xlink" width="756pt" height="504pt" viewBox="0 0 756 504" version="1.1">
<g id="surface269">
<rect x="0" y="0" width="756" height="504" style="fill:rgb(100%,100%,100%);fill-opacity:1;stroke:none;"/>
<path style="fill-rule:nonzero;fill:rgb(18.431373%,30.980392%,30.980392%);fill-opacity:1;stroke-width:0.708661;stroke-linecap:round;stroke-linejoin:round;stroke:rgb(18.431373%,30.980392%,30.980392%);stroke-opacity:1;stroke-miterlimit:10;" d="M 29.988281 394.253906 C 29.988281 397.984375 26.964844 401.007812 23.234375 401.007812 C 19.503906 401.007812 16.476562 397.984375 16.476562 394.253906 C 16.476562 390.523438 19.503906 387.496094 23.234375 387.496094 C 26.964844 387.496094 29.988281 390.523438 29.988281 394.253906 "/>
<path style="fill-rule:nonzero;fill:rgb(18.431373%,30.980392%,30.980392%);fill-opacity:1;stroke-width:0.708661;stroke-linecap:round;stroke-linejoin:round;stroke:rgb(18.431373%,30.980392%,30.980392%);stroke-opacity:1;stroke-miterlimit:10;" d="M 37.039062 375.152344 C 37.039062 378.882812 34.015625 381.910156 30.28125 381.910156 C 26.550781 381.910156 23.527344 378.882812 23.527344 375.152344 C 23.527344 371.421875 26.550781 368.398438 30.28125 368.398438 C 34.015625 368.398438 37.039062 371.421875 37.039062 375.152344 "/>
<path style="fill-rule:nonzero;fill:rgb(18.431373%,30.980392%,30.980392%);fill-opacity:1;stroke-width:0.708661;stroke-linecap:round;stroke-linejoin:round;stroke:rgb(18.431373%,30.980392%,30.980392%);stroke-opacity:1;stroke-miterlimit:10;" d="M 44.089844 429.210938 C 44.089844 432.945312 41.0625 435.96875 37.332031 435.96875 C 33.601562 435.96875 30.574219 432.945312 30.574219 429.210938 C 30.574219 425.480469 33.601562 422.457031 37.332031 422.457031 C 41.0625 422.457031 44.089844 425.480469 44.089844 429.210938 "/>
<path style="fill-rule:nonzero;fill:rgb(18.431373%,30.980392%,30.980392%);fill-opacity:1;stroke-width:0.708661;stroke-linecap:round;stroke-linejoin:round;stroke:rgb(18.431373%,30.980392%,30.980392%);stroke-opacity:1;stroke-miterlimit:10;" d="M 51.136719 400.132812 C 51.136719 403.863281 48.113281 406.886719 44.382812 406.886719 C 40.648438 406.886719 37.625 403.863281 37.625 400.132812 C 37.625 396.402344 40.648438 393.375 44.382812 393.375 C 48.113281 393.375 51.136719 396.402344 51.136719 400.132812 "/>
<path style="fill-rule:nonzero;fill:rgb(18.431373%,30.980392%,30.980392%);fill-opacity:1;stroke-width:0.708661;stroke-linecap:round;stroke-linejoin:round;stroke:rgb(18.431373%,30.980392%,30.980392%);stroke-opacity:1;stroke-miterlimit:10;" d="M 58.1875 386.390625 C 58.1875 390.125 55.160156 393.148438 51.429688 393.148438 C 47.699219 393.148438 44.675781 390.125 44.675781 386.390625 C 44.675781 382.660156 47.699219 379.636719 51.429688 379.636719 C 55.160156 379.636719 58.1875 382.660156 58.1875 386.390625 "/>
<path style="fill-rule:nonzero;fill:rgb(18.431373%,30.980392%,30.980392%);fill-opacity:1;stroke-width:0.708661;stroke-linecap:round;stroke-linejoin:round;stroke:rgb(18.431373%,30.980392%,30.980392%);stroke-opacity:1;stroke-miterlimit:10;" d="M 65.234375 483.445312 C 65.234375 487.179688 62.210938 490.203125 58.480469 490.203125 C 54.75 490.203125 51.722656 487.179688 51.722656 483.445312 C 51.722656 479.714844 54.75 476.691406 58.480469 476.691406 C 62.210938 476.691406 65.234375 479.714844 65.234375 483.445312 "/>
<path style="fill-rule:nonzero;fill:rgb(18.431373%,30.980392%,30.980392%);fill-opacity:1;stroke-width:0.708661;stroke-linecap:round;stroke-linejoin:round;stroke:rgb(18.431373%,30.980392%,30.980392%);stroke-opacity:1;stroke-miterlimit:10;" d="M 72.285156 419.105469 C 72.285156 422.835938 69.261719 425.863281 65.527344 425.863281 C 61.796875 425.863281 58.773438 422.835938 58.773438 419.105469 C 58.773438 415.375 61.796875 412.347656 65.527344 412.347656 C 69.261719 412.347656 72.285156 415.375 72.285156 419.105469 "/>
<path style="fill-rule:nonzero;fill:rgb(18.431373%,30.980392%,30.980392%);fill-opacity:1;stroke-width:0.708661;stroke-linecap:round;stroke-linejoin:round;stroke:rgb(18.431373%,30.980392%,30.980392%);stroke-opacity:1;stroke-miterlimit:10;" d="M 79.335938 270.398438 C 79.335938 274.128906 76.308594 277.15625 72.578125 277.15625 C 68.847656 277.15625 65.820312 274.128906 65.820312 270.398438 C 65.820312 266.667969 68.847656 263.644531 72.578125 263.644531 C 76.308594 263.644531 79.335938 266.667969 79.335938 270.398438 "/>
<path style="fill-rule:nonzero;fill:rgb(18.431373%,30.980392%,30.980392%);fill-opacity:1;stroke-width:0.708661;stroke-linecap:round;stroke-linejoin:round;stroke:rgb(18.431373%,30.980392%,30.980392%);stroke-opacity:1;stroke-miterlimit:10;" d="M 86.382812 412.957031 C 86.382812 416.6875 83.359375 419.714844 79.628906 419.714844 C 75.894531 419.714844 72.871094 416.6875 72.871094 412.957031 C 72.871094 409.226562 75.894531 406.203125 79.628906 406.203125 C 83.359375 406.203125 86.382812 409.226562 86.382812 412.957031 "/>
<path style="fill-rule:nonzero;fill:rgb(18.431373%,30.980392%,30.980392%);fill-opacity:1;stroke-width:0.708661;stroke-linecap:round;stroke-linejoin:round;stroke:rgb(18.431373%,30.980392%,30.980392%);stroke-opacity:1;stroke-miterlimit:10;" d="M 93.433594 249.054688 C 93.433594 252.785156 90.40625 255.808594 86.675781 255.808594 C 82.945312 255.808594 79.921875 252.785156 79.921875 249.054688 C 79.921875 245.320312 82.945312 242.296875 86.675781 242.296875 C 90.40625 242.296875 93.433594 245.320312 93.433594 249.054688 "/>
<path style="fill-rule:nonzero;fill:rgb(18.431373%,30.980392%,30.980392%);fill-opacity:1;stroke-width:0.708661;stroke-linecap:round;stroke-linejoin:round;stroke:rgb(18.431373%,30.980392%,30.980392%);stroke-opacity:1;stroke-miterlimit:10;" d="M 100.480469 218.972656 C 100.480469 222.703125 97.457031 225.730469 93.726562 225.730469 C 89.996094 225.730469 86.96875 222.703125 86.96875 218.972656 C 86.96875 215.242188 89.996094 212.214844 93.726562 212.214844 C 97.457031 212.214844 100.480469 215.242188 100.480469 218.972656 "/>
<path style="fill-rule:nonzero;fill:rgb(18.431373%,30.980392%,30.980392%);fill-opacity:1;stroke-width:0.708661;stroke-linecap:round;stroke-linejoin:round;stroke:rgb(18.431373%,30.980392%,30.980392%);stroke-opacity:1;stroke-miterlimit:10;" d="M 107.53125 196.242188 C 107.53125 199.976562 104.507812 203 100.773438 203 C 97.042969 203 94.019531 199.976562 94.019531 196.242188 C 94.019531 192.511719 97.042969 189.488281 100.773438 189.488281 C 104.507812 189.488281 107.53125 192.511719 107.53125 196.242188 "/>
<path style="fill-rule:nonzero;fill:rgb(18.431373%,30.980392%,30.980392%);fill-opacity:1;stroke-width:0.708661;stroke-linecap:round;stroke-linejoin:round;stroke:rgb(18.431373%,30.980392%,30.980392%);stroke-opacity:1;stroke-miterlimit:10;" d="M 114.582031 370.441406 C 114.582031 374.175781 111.554688 377.199219 107.824219 377.199219 C 104.09375 377.199219 101.066406 374.175781 101.066406 370.441406 C 101.066406 366.710938 104.09375 363.6875 107.824219 363.6875 C 111.554688 363.6875 114.582031 366.710938 114.582031 370.441406 "/>
<path style="fill-rule:nonzero;fill:rgb(18.431373%,30.980392%,30.980392%);fill-opacity:1;stroke-width:0.708661;stroke-linecap:round;stroke-linejoin:round;stroke:rgb(18.431373%,30.980392%,30.980392%);stroke-opacity:1;stroke-miterlimit:10;" d="M 121.628906 492.222656 C 121.628906 495.953125 118.605469 498.976562 114.875 498.976562 C 111.140625 498.976562 108.117188 495.953125 108.117188 492.222656 C 108.117188 488.488281 111.140625 485.464844 114.875 485.464844 C 118.605469 485.464844 121.628906 488.488281 121.628906 492.222656 "/>
<path style="fill-rule:nonzero;fill:rgb(18.431373%,30.980392%,30.980392%);fill-opacity:1;stroke-width:0.708661;stroke-linecap:round;stroke-linejoin:round;stroke:rgb(18.431373%,30.980392%,30.980392%);stroke-opacity:1;stroke-miterlimit:10;" d="M 128.679688 401.273438 C 128.679688 405.003906 125.652344 408.027344 121.921875 408.027344 C 118.191406 408.027344 115.167969 405.003906 115.167969 401.273438 C 115.167969 397.539062 118.191406 394.515625 121.921875 394.515625 C 125.652344 394.515625 128.679688 397.539062 128.679688 401.273438 "/>
<path style="fill-rule:nonzero;fill:rgb(18.431373%,30.980392%,30.980392%);fill-opacity:1;stroke-width:0.708661;stroke-linecap:round;stroke-linejoin:round;stroke:rgb(18.431373%,30.980392%,30.980392%);stroke-opacity:1;stroke-miterlimit:10;" d="M 135.726562 358.347656 C 135.726562 362.078125 132.703125 365.105469 128.972656 365.105469 C 125.242188 365.105469 122.214844 362.078125 122.214844 358.347656 C 122.214844 354.617188 125.242188 351.59375 128.972656 351.59375 C 132.703125 351.59375 135.726562 354.617188 135.726562 358.347656 "/>
<path style="fill-rule:nonzero;fill:rgb(18.431373%,30.980392%,30.980392%);fill-opacity:1;stroke-width:0.708661;stroke-linecap:round;stroke-linejoin:round;stroke:rgb(18.431373%,30.980392%,30.980392%);stroke-opacity:1;stroke-miterlimit:10;" d="M 142.777344 358.867188 C 142.777344 362.597656 139.753906 365.621094 136.019531 365.621094 C 132.289062 365.621094 129.265625 362.597656 129.265625 358.867188 C 129.265625 355.132812 132.289062 352.109375 136.019531 352.109375 C 139.753906 352.109375 142.777344 355.132812 142.777344 358.867188 "/>
<path style="fill-rule:nonzero;fill:rgb(18.431373%,30.980392%,30.980392%);fill-opacity:1;stroke-width:0.708661;stroke-linecap:round;stroke-linejoin:round;stroke:rgb(18.431373%,30.980392%,30.980392%);stroke-opacity:1;stroke-miterlimit:10;" d="M 149.828125 350.75 C 149.828125 354.480469 146.800781 357.507812 143.070312 357.507812 C 139.339844 357.507812 136.3125 354.480469 136.3125 350.75 C 136.3125 347.019531 139.339844 343.996094 143.070312 343.996094 C 146.800781 343.996094 149.828125 347.019531 149.828125 350.75 "/>
<path style="fill-rule:nonzero;fill:rgb(18.431373%,30.980392%,30.980392%);fill-opacity:1;stroke-width:0.708661;stroke-linecap:round;stroke-linejoin:round;stroke:rgb(18.431373%,30.980392%,30.980392%);stroke-opacity:1;stroke-miterlimit:10;" d="M 156.875 350.5625 C 156.875 354.296875 153.851562 357.320312 150.121094 357.320312 C 146.386719 357.320312 143.363281 354.296875 143.363281 350.5625 C 143.363281 346.832031 146.386719 343.808594 150.121094 343.808594 C 153.851562 343.808594 156.875 346.832031 156.875 350.5625 "/>
<path style="fill-rule:nonzero;fill:rgb(18.431373%,30.980392%,30.980392%);fill-opacity:1;stroke-width:0.708661;stroke-linecap:round;stroke-linejoin:round;stroke:rgb(18.431373%,30.980392%,30.980392%);stroke-opacity:1;stroke-miterlimit:10;" d="M 163.925781 342.007812 C 163.925781 345.738281 160.898438 348.761719 157.167969 348.761719 C 153.4375 348.761719 150.414062 345.738281 150.414062 342.007812 C 150.414062 338.273438 153.4375 335.25 157.167969 335.25 C 160.898438 335.25 163.925781 338.273438 163.925781 342.007812 "/>
<path style="fill-rule:nonzero;fill:rgb(18.431373%,30.980392%,30.980392%);fill-opacity:1;stroke-width:0.708661;stroke-linecap:round;stroke-linejoin:round;stroke:rgb(18.431373%,30.980392%,30.980392%);stroke-opacity:1;stroke-miterlimit:10;" d="M 170.972656 326.152344 C 170.972656 329.882812 167.949219 332.90625 164.21875 332.90625 C 160.488281 332.90625 157.460938 329.882812 157.460938 326.152344 C 157.460938 322.417969 160.488281 319.394531 164.21875 319.394531 C 167.949219 319.394531 170.972656 322.417969 170.972656 326.152344 "/>
<path style="fill-rule:nonzero;fill:rgb(18.431373%,30.980392%,30.980392%);fill-opacity:1;stroke-width:0.708661;stroke-linecap:round;stroke-linejoin:round;stroke:rgb(18.431373%,30.980392%,30.980392%);stroke-opacity:1;stroke-miterlimit:10;" d="M 178.023438 385.667969 C 178.023438 389.402344 175 392.425781 171.265625 392.425781 C 167.535156 392.425781 164.511719 389.402344 164.511719 385.667969 C 164.511719 381.9375 167.535156 378.914062 171.265625 378.914062 C 175 378.914062 178.023438 381.9375 178.023438 385.667969 "/>
<path style="fill-rule:nonzero;fill:rgb(18.431373%,30.980392%,30.980392%);fill-opacity:1;stroke-width:0.708661;stroke-linecap:round;stroke-linejoin:round;stroke:rgb(18.431373%,30.980392%,30.980392%);stroke-opacity:1;stroke-miterlimit:10;" d="M 185.074219 387.941406 C 185.074219 391.671875 182.046875 394.695312 178.316406 394.695312 C 174.585938 394.695312 171.558594 391.671875 171.558594 387.941406 C 171.558594 384.207031 174.585938 381.183594 178.316406 381.183594 C 182.046875 381.183594 185.074219 384.207031 185.074219 387.941406 "/>
<path style="fill-rule:nonzero;fill:rgb(18.431373%,30.980392%,30.980392%);fill-opacity:1;stroke-width:0.708661;stroke-linecap:round;stroke-linejoin:round;stroke:rgb(18.431373%,30.980392%,30.980392%);stroke-opacity:1;stroke-miterlimit:10;" d="M 192.121094 220.875 C 192.121094 224.605469 189.097656 227.628906 185.367188 227.628906 C 181.632812 227.628906 178.609375 224.605469 178.609375 220.875 C 178.609375 217.140625 181.632812 214.117188 185.367188 214.117188 C 189.097656 214.117188 192.121094 217.140625 192.121094 220.875 "/>
<path style="fill-rule:nonzero;fill:rgb(18.431373%,30.980392%,30.980392%);fill-opacity:1;stroke-width:0.708661;stroke-linecap:round;stroke-linejoin:round;stroke:rgb(18.431373%,30.980392%,30.980392%);stroke-opacity:1;stroke-miterlimit:10;" d="M 199.171875 396.035156 C 199.171875 399.765625 196.144531 402.789062 192.414062 402.789062 C 188.683594 402.789062 185.660156 399.765625 185.660156 396.035156 C 185.660156 392.300781 188.683594 389.277344 192.414062 389.277344 C 196.144531 389.277344 199.171875 392.300781 199.171875 396.035156 "/>
<path style="fill-rule:nonzero;fill:rgb(18.431373%,30.980392%,30.980392%);fill-opacity:1;stroke-width:0.708661;stroke-linecap:round;stroke-linejoin:round;stroke:rgb(18.431373%,30.980392%,30.980392%);stroke-opacity:1;stroke-miterlimit:10;" d="M 206.21875 380.957031 C 206.21875 384.6875 203.195312 387.710938 199.464844 387.710938 C 195.734375 387.710938 192.707031 384.6875 192.707031 380.957031 C 192.707031 377.222656 195.734375 374.199219 199.464844 374.199219 C 203.195312 374.199219 206.21875 377.222656 206.21875 380.957031 "/>
<path style="fill-rule:nonzero;fill:rgb(18.431373%,30.980392%,30.980392%);fill-opacity:1;stroke-width:0.708661;stroke-linecap:round;stroke-linejoin:round;stroke:rgb(18.431373%,30.980392%,30.980392%);stroke-opacity:1;stroke-miterlimit:10;" d="M 213.269531 309.765625 C 213.269531 313.496094 210.246094 316.519531 206.511719 316.519531 C 202.78125 316.519531 199.757812 313.496094 199.757812 309.765625 C 199.757812 306.03125 202.78125 303.007812 206.511719 303.007812 C 210.246094 303.007812 213.269531 306.03125 213.269531 309.765625 "/>
<path style="fill-rule:nonzero;fill:rgb(18.431373%,30.980392%,30.980392%);fill-opacity:1;stroke-width:0.708661;stroke-linecap:round;stroke-linejoin:round;stroke:rgb(18.431373%,30.980392%,30.980392%);stroke-opacity:1;stroke-miterlimit:10;" d="M 220.320312 218.796875 C 220.320312 222.527344 217.292969 225.550781 213.5625 225.550781 C 209.832031 225.550781 206.804688 222.527344 206.804688 218.796875 C 206.804688 215.0625 209.832031 212.039062 213.5625 212.039062 C 217.292969 212.039062 220.320312 215.0625 220.320312 218.796875 "/>
<path style="fill-rule:nonzero;fill:rgb(18.431373%,30.980392%,30.980392%);fill-opacity:1;stroke-width:0.708661;stroke-linecap:round;stroke-linejoin:round;stroke:rgb(18.431373%,30.980392%,30.980392%);stroke-opacity:1;stroke-miterlimit:10;" d="M 227.367188 374.054688 C 227.367188 377.785156 224.34375 380.808594 220.613281 380.808594 C 216.878906 380.808594 213.855469 377.785156 213.855469 374.054688 C 213.855469 370.324219 216.878906 367.296875 220.613281 367.296875 C 224.34375 367.296875 227.367188 370.324219 227.367188 374.054688 "/>
<path style="fill-rule:nonzero;fill:rgb(18.431373%,30.980392%,30.980392%);fill-opacity:1;stroke-width:0.708661;stroke-linecap:round;stroke-linejoin:round;stroke:rgb(18.431373%,30.980392%,30.980392%);stroke-opacity:1;stroke-miterlimit:10;" d="M 234.417969 356.054688 C 234.417969 359.785156 231.390625 362.808594 227.660156 362.808594 C 223.929688 362.808594 220.90625 359.785156 220.90625 356.054688 C 220.90625 352.324219 223.929688 349.296875 227.660156 349.296875 C 231.390625 349.296875 234.417969 352.324219 234.417969 356.054688 "/>
<path style="fill-rule:nonzero;fill:rgb(18.431373%,30.980392%,30.980392%);fill-opacity:1;stroke-width:0.708661;stroke-linecap:round;stroke-linejoin:round;stroke:rgb(18.431373%,30.980392%,30.980392%);stroke-opacity:1;stroke-miterlimit:10;" d="M 241.464844 343.261719 C 241.464844 346.996094 238.441406 350.019531 234.710938 350.019531 C 230.980469 350.019531 227.953125 346.996094 227.953125 343.261719 C 227.953125 339.53125 230.980469 336.507812 234.710938 336.507812 C 238.441406 336.507812 241.464844 339.53125 241.464844 343.261719 "/>
<path style="fill-rule:nonzero;fill:rgb(18.431373%,30.980392%,30.980392%);fill-opacity:1;stroke-width:0.708661;stroke-linecap:round;stroke-linejoin:round;stroke:rgb(18.431373%,30.980392%,30.980392%);stroke-opacity:1;stroke-miterlimit:10;" d="M 248.515625 457.15625 C 248.515625 460.886719 245.492188 463.914062 241.757812 463.914062 C 238.027344 463.914062 235.003906 460.886719 235.003906 457.15625 C 235.003906 453.425781 238.027344 450.398438 241.757812 450.398438 C 245.492188 450.398438 248.515625 453.425781 248.515625 457.15625 "/>
<path style="fill-rule:nonzero;fill:rgb(18.431373%,30.980392%,30.980392%);fill-opacity:1;stroke-width:0.708661;stroke-linecap:round;stroke-linejoin:round;stroke:rgb(18.431373%,30.980392%,30.980392%);stroke-opacity:1;stroke-miterlimit:10;" d="M 255.566406 327.273438 C 255.566406 331.007812 252.539062 334.03125 248.808594 334.03125 C 245.078125 334.03125 242.050781 331.007812 242.050781 327.273438 C 242.050781 323.542969 245.078125 320.519531 248.808594 320.519531 C 252.539062 320.519531 255.566406 323.542969 255.566406 327.273438 "/>
<path style="fill-rule:nonzero;fill:rgb(18.431373%,30.980392%,30.980392%);fill-opacity:1;stroke-width:0.708661;stroke-linecap:round;stroke-linejoin:round;stroke:rgb(18.431373%,30.980392%,30.980392%);stroke-opacity:1;stroke-miterlimit:10;" d="M 262.613281 225.621094 C 262.613281 229.351562 259.589844 232.375 255.859375 232.375 C 252.125 232.375 249.101562 229.351562 249.101562 225.621094 C 249.101562 221.890625 252.125 218.863281 255.859375 218.863281 C 259.589844 218.863281 262.613281 221.890625 262.613281 225.621094 "/>
<path style="fill-rule:nonzero;fill:rgb(18.431373%,30.980392%,30.980392%);fill-opacity:1;stroke-width:0.708661;stroke-linecap:round;stroke-linejoin:round;stroke:rgb(18.431373%,30.980392%,30.980392%);stroke-opacity:1;stroke-miterlimit:10;" d="M 269.664062 377.359375 C 269.664062 381.089844 266.636719 384.113281 262.90625 384.113281 C 259.175781 384.113281 256.152344 381.089844 256.152344 377.359375 C 256.152344 373.625 259.175781 370.601562 262.90625 370.601562 C 266.636719 370.601562 269.664062 373.625 269.664062 377.359375 "/>
<path style="fill-rule:nonzero;fill:rgb(18.431373%,30.980392%,30.980392%);fill-opacity:1;stroke-width:0.708661;stroke-linecap:round;stroke-linejoin:round;stroke:rgb(18.431373%,30.980392%,30.980392%);stroke-opacity:1;stroke-miterlimit:10;" d="M 276.710938 281.792969 C 276.710938 285.523438 273.6875 288.550781 269.957031 288.550781 C 266.226562 288.550781 263.199219 285.523438 263.199219 281.792969 C 263.199219 278.0625 266.226562 275.035156 269.957031 275.035156 C 273.6875 275.035156 276.710938 278.0625 276.710938 281.792969 "/>
<path style="fill-rule:nonzero;fill:rgb(18.431373%,30.980392%,30.980392%);fill-opacity:1;stroke-width:0.708661;stroke-linecap:round;stroke-linejoin:round;stroke:rgb(18.431373%,30.980392%,30.980392%);stroke-opacity:1;stroke-miterlimit:10;" d="M 283.761719 255.136719 C 283.761719 258.867188 280.738281 261.890625 277.003906 261.890625 C 273.273438 261.890625 270.25 258.867188 270.25 255.136719 C 270.25 251.402344 273.273438 248.378906 277.003906 248.378906 C 280.738281 248.378906 283.761719 251.402344 283.761719 255.136719 "/>
<path style="fill-rule:nonzero;fill:rgb(18.431373%,30.980392%,30.980392%);fill-opacity:1;stroke-width:0.708661;stroke-linecap:round;stroke-linejoin:round;stroke:rgb(18.431373%,30.980392%,30.980392%);stroke-opacity:1;stroke-miterlimit:10;" d="M 290.8125 247.140625 C 290.8125 250.871094 287.785156 253.894531 284.054688 253.894531 C 280.324219 253.894531 277.296875 250.871094 277.296875 247.140625 C 277.296875 243.410156 280.324219 240.382812 284.054688 240.382812 C 287.785156 240.382812 290.8125 243.410156 290.8125 247.140625 "/>
<path style="fill-rule:nonzero;fill:rgb(18.431373%,30.980392%,30.980392%);fill-opacity:1;stroke-width:0.708661;stroke-linecap:round;stroke-linejoin:round;stroke:rgb(18.431373%,30.980392%,30.980392%);stroke-opacity:1;stroke-miterlimit:10;" d="M 297.859375 374.550781 C 297.859375 378.28125 294.835938 381.304688 291.105469 381.304688 C 287.371094 381.304688 284.347656 378.28125 284.347656 374.550781 C 284.347656 370.816406 287.371094 367.792969 291.105469 367.792969 C 294.835938 367.792969 297.859375 370.816406 297.859375 374.550781 "/>
<path style="fill-rule:nonzero;fill:rgb(18.431373%,30.980392%,30.980392%);fill-opacity:1;stroke-width:0.708661;stroke-linecap:round;stroke-linejoin:round;stroke:rgb(18.431373%,30.980392%,30.980392%);stroke-opacity:1;stroke-miterlimit:10;" d="M 304.910156 366.976562 C 304.910156 370.710938 301.882812 373.734375 298.152344 373.734375 C 294.421875 373.734375 291.398438 370.710938 291.398438 366.976562 C 291.398438 363.246094 294.421875 360.222656 298.152344 360.222656 C 301.882812 360.222656 304.910156 363.246094 304.910156 366.976562 "/>
<path style="fill-rule:nonzero;fill:rgb(18.431373%,30.980392%,30.980392%);fill-opacity:1;stroke-width:0.708661;stroke-linecap:round;stroke-linejoin:round;stroke:rgb(18.431373%,30.980392%,30.980392%);stroke-opacity:1;stroke-miterlimit:10;" d="M 311.957031 319.941406 C 311.957031 323.675781 308.933594 326.699219 305.203125 326.699219 C 301.472656 326.699219 298.445312 323.675781 298.445312 319.941406 C 298.445312 316.210938 301.472656 313.1875 305.203125 313.1875 C 308.933594 313.1875 311.957031 316.210938 311.957031 319.941406 "/>
<path style="fill-rule:nonzero;fill:rgb(18.431373%,30.980392%,30.980392%);fill-opacity:1;stroke-width:0.708661;stroke-linecap:round;stroke-linejoin:round;stroke:rgb(18.431373%,30.980392%,30.980392%);stroke-opacity:1;stroke-miterlimit:10;" d="M 319.007812 135.902344 C 319.007812 139.632812 315.984375 142.65625 312.25 142.65625 C 308.519531 142.65625 305.496094 139.632812 305.496094 135.902344 C 305.496094 132.171875 308.519531 129.144531 312.25 129.144531 C 315.984375 129.144531 319.007812 132.171875 319.007812 135.902344 "/>
<path style="fill-rule:nonzero;fill:rgb(18.431373%,30.980392%,30.980392%);fill-opacity:1;stroke-width:0.708661;stroke-linecap:round;stroke-linejoin:round;stroke:rgb(18.431373%,30.980392%,30.980392%);stroke-opacity:1;stroke-miterlimit:10;" d="M 326.058594 288.652344 C 326.058594 292.382812 323.03125 295.40625 319.300781 295.40625 C 315.570312 295.40625 312.542969 292.382812 312.542969 288.652344 C 312.542969 284.917969 315.570312 281.894531 319.300781 281.894531 C 323.03125 281.894531 326.058594 284.917969 326.058594 288.652344 "/>
<path style="fill-rule:nonzero;fill:rgb(18.431373%,30.980392%,30.980392%);fill-opacity:1;stroke-width:0.708661;stroke-linecap:round;stroke-linejoin:round;stroke:rgb(18.431373%,30.980392%,30.980392%);stroke-opacity:1;stroke-miterlimit:10;" d="M 333.105469 240.800781 C 333.105469 244.53125 330.082031 247.554688 326.351562 247.554688 C 322.617188 247.554688 319.59375 244.53125 319.59375 240.800781 C 319.59375 237.066406 322.617188 234.042969 326.351562 234.042969 C 330.082031 234.042969 333.105469 237.066406 333.105469 240.800781 "/>
<path style="fill-rule:nonzero;fill:rgb(18.431373%,30.980392%,30.980392%);fill-opacity:1;stroke-width:0.708661;stroke-linecap:round;stroke-linejoin:round;stroke:rgb(18.431373%,30.980392%,30.980392%);stroke-opacity:1;stroke-miterlimit:10;" d="M 340.15625 208.164062 C 340.15625 211.894531 337.128906 214.921875 333.398438 214.921875 C 329.667969 214.921875 326.644531 211.894531 326.644531 208.164062 C 326.644531 204.433594 329.667969 201.410156 333.398438 201.410156 C 337.128906 201.410156 340.15625 204.433594 340.15625 208.164062 "/>
<path style="fill-rule:nonzero;fill:rgb(18.431373%,30.980392%,30.980392%);fill-opacity:1;stroke-width:0.708661;stroke-linecap:round;stroke-linejoin:round;stroke:rgb(18.431373%,30.980392%,30.980392%);stroke-opacity:1;stroke-miterlimit:10;" d="M 347.203125 114.683594 C 347.203125 118.414062 344.179688 121.441406 340.449219 121.441406 C 336.71875 121.441406 333.691406 118.414062 333.691406 114.683594 C 333.691406 110.953125 336.71875 107.929688 340.449219 107.929688 C 344.179688 107.929688 347.203125 110.953125 347.203125 114.683594 "/>
<path style="fill-rule:nonzero;fill:rgb(18.431373%,30.980392%,30.980392%);fill-opacity:1;stroke-width:0.708661;stroke-linecap:round;stroke-linejoin:round;stroke:rgb(18.431373%,30.980392%,30.980392%);stroke-opacity:1;stroke-miterlimit:10;" d="M 354.253906 267.96875 C 354.253906 271.699219 351.230469 274.726562 347.496094 274.726562 C 343.765625 274.726562 340.742188 271.699219 340.742188 267.96875 C 340.742188 264.238281 343.765625 261.210938 347.496094 261.210938 C 351.230469 261.210938 354.253906 264.238281 354.253906 267.96875 "/>
<path style="fill-rule:nonzero;fill:rgb(18.431373%,30.980392%,30.980392%);fill-opacity:1;stroke-width:0.708661;stroke-linecap:round;stroke-linejoin:round;stroke:rgb(18.431373%,30.980392%,30.980392%);stroke-opacity:1;stroke-miterlimit:10;" d="M 361.304688 239.265625 C 361.304688 242.996094 358.277344 246.019531 354.546875 246.019531 C 350.816406 246.019531 347.789062 242.996094 347.789062 239.265625 C 347.789062 235.535156 350.816406 232.507812 354.546875 232.507812 C 358.277344 232.507812 361.304688 235.535156 361.304688 239.265625 "/>
<path style="fill-rule:nonzero;fill:rgb(18.431373%,30.980392%,30.980392%);fill-opacity:1;stroke-width:0.708661;stroke-linecap:round;stroke-linejoin:round;stroke:rgb(18.431373%,30.980392%,30.980392%);stroke-opacity:1;stroke-miterlimit:10;" d="M 368.351562 348.085938 C 368.351562 351.816406 365.328125 354.84375 361.597656 354.84375 C 357.863281 354.84375 354.839844 351.816406 354.839844 348.085938 C 354.839844 344.355469 357.863281 341.332031 361.597656 341.332031 C 365.328125 341.332031 368.351562 344.355469 368.351562 348.085938 "/>
<path style="fill-rule:nonzero;fill:rgb(18.431373%,30.980392%,30.980392%);fill-opacity:1;stroke-width:0.708661;stroke-linecap:round;stroke-linejoin:round;stroke:rgb(18.431373%,30.980392%,30.980392%);stroke-opacity:1;stroke-miterlimit:10;" d="M 375.402344 149.164062 C 375.402344 152.894531 372.375 155.917969 368.644531 155.917969 C 364.914062 155.917969 361.890625 152.894531 361.890625 149.164062 C 361.890625 145.433594 364.914062 142.40625 368.644531 142.40625 C 372.375 142.40625 375.402344 145.433594 375.402344 149.164062 "/>
<path style="fill-rule:nonzero;fill:rgb(18.431373%,30.980392%,30.980392%);fill-opacity:1;stroke-width:0.708661;stroke-linecap:round;stroke-linejoin:round;stroke:rgb(18.431373%,30.980392%,30.980392%);stroke-opacity:1;stroke-miterlimit:10;" d="M 382.449219 412.921875 C 382.449219 416.652344 379.425781 419.679688 375.695312 419.679688 C 371.964844 419.679688 368.9375 416.652344 368.9375 412.921875 C 368.9375 409.191406 371.964844 406.164062 375.695312 406.164062 C 379.425781 406.164062 382.449219 409.191406 382.449219 412.921875 "/>
<path style="fill-rule:nonzero;fill:rgb(18.431373%,30.980392%,30.980392%);fill-opacity:1;stroke-width:0.708661;stroke-linecap:round;stroke-linejoin:round;stroke:rgb(18.431373%,30.980392%,30.980392%);stroke-opacity:1;stroke-miterlimit:10;" d="M 389.5 155.042969 C 389.5 158.773438 386.476562 161.796875 382.742188 161.796875 C 379.011719 161.796875 375.988281 158.773438 375.988281 155.042969 C 375.988281 151.308594 379.011719 148.285156 382.742188 148.285156 C 386.476562 148.285156 389.5 151.308594 389.5 155.042969 "/>
<path style="fill-rule:nonzero;fill:rgb(18.431373%,30.980392%,30.980392%);fill-opacity:1;stroke-width:0.708661;stroke-linecap:round;stroke-linejoin:round;stroke:rgb(18.431373%,30.980392%,30.980392%);stroke-opacity:1;stroke-miterlimit:10;" d="M 396.550781 346.621094 C 396.550781 350.351562 393.523438 353.375 389.792969 353.375 C 386.0625 353.375 383.035156 350.351562 383.035156 346.621094 C 383.035156 342.890625 386.0625 339.863281 389.792969 339.863281 C 393.523438 339.863281 396.550781 342.890625 396.550781 346.621094 "/>
<path style="fill-rule:nonzero;fill:rgb(18.431373%,30.980392%,30.980392%);fill-opacity:1;stroke-width:0.708661;stroke-linecap:round;stroke-linejoin:round;stroke:rgb(18.431373%,30.980392%,30.980392%);stroke-opacity:1;stroke-miterlimit:10;" d="M 403.597656 23.4375 C 403.597656 27.171875 400.574219 30.195312 396.84375 30.195312 C 393.109375 30.195312 390.085938 27.171875 390.085938 23.4375 C 390.085938 19.707031 393.109375 16.683594 396.84375 16.683594 C 400.574219 16.683594 403.597656 19.707031 403.597656 23.4375 "/>
<path style="fill-rule:nonzero;fill:rgb(18.431373%,30.980392%,30.980392%);fill-opacity:1;stroke-width:0.708661;stroke-linecap:round;stroke-linejoin:round;stroke:rgb(18.431373%,30.980392%,30.980392%);stroke-opacity:1;stroke-miterlimit:10;" d="M 410.648438 294.371094 C 410.648438 298.101562 407.621094 301.125 403.890625 301.125 C 400.160156 301.125 397.136719 298.101562 397.136719 294.371094 C 397.136719 290.636719 400.160156 287.613281 403.890625 287.613281 C 407.621094 287.613281 410.648438 290.636719 410.648438 294.371094 "/>
<path style="fill-rule:nonzero;fill:rgb(18.431373%,30.980392%,30.980392%);fill-opacity:1;stroke-width:0.708661;stroke-linecap:round;stroke-linejoin:round;stroke:rgb(18.431373%,30.980392%,30.980392%);stroke-opacity:1;stroke-miterlimit:10;" d="M 417.695312 291.109375 C 417.695312 294.839844 414.671875 297.863281 410.941406 297.863281 C 407.210938 297.863281 404.183594 294.839844 404.183594 291.109375 C 404.183594 287.378906 407.210938 284.351562 410.941406 284.351562 C 414.671875 284.351562 417.695312 287.378906 417.695312 291.109375 "/>
<path style="fill-rule:nonzero;fill:rgb(18.431373%,30.980392%,30.980392%);fill-opacity:1;stroke-width:0.708661;stroke-linecap:round;stroke-linejoin:round;stroke:rgb(18.431373%,30.980392%,30.980392%);stroke-opacity:1;stroke-miterlimit:10;" d="M 424.746094 225.441406 C 424.746094 229.171875 421.722656 232.195312 417.988281 232.195312 C 414.257812 232.195312 411.234375 229.171875 411.234375 225.441406 C 411.234375 221.707031 414.257812 218.683594 417.988281 218.683594 C 421.722656 218.683594 424.746094 221.707031 424.746094 225.441406 "/>
<path style="fill-rule:nonzero;fill:rgb(18.431373%,30.980392%,30.980392%);fill-opacity:1;stroke-width:0.708661;stroke-linecap:round;stroke-linejoin:round;stroke:rgb(18.431373%,30.980392%,30.980392%);stroke-opacity:1;stroke-miterlimit:10;" d="M 431.796875 175.371094 C 431.796875 179.101562 428.769531 182.128906 425.039062 182.128906 C 421.308594 182.128906 418.28125 179.101562 418.28125 175.371094 C 418.28125 171.640625 421.308594 168.613281 425.039062 168.613281 C 428.769531 168.613281 431.796875 171.640625 431.796875 175.371094 "/>
<path style="fill-rule:nonzero;fill:rgb(18.431373%,30.980392%,30.980392%);fill-opacity:1;stroke-width:0.708661;stroke-linecap:round;stroke-linejoin:round;stroke:rgb(18.431373%,30.980392%,30.980392%);stroke-opacity:1;stroke-miterlimit:10;" d="M 438.84375 381.777344 C 438.84375 385.507812 435.820312 388.53125 432.089844 388.53125 C 428.355469 388.53125 425.332031 385.507812 425.332031 381.777344 C 425.332031 378.042969 428.355469 375.019531 432.089844 375.019531 C 435.820312 375.019531 438.84375 378.042969 438.84375 381.777344 "/>
<path style="fill-rule:nonzero;fill:rgb(18.431373%,30.980392%,30.980392%);fill-opacity:1;stroke-width:0.708661;stroke-linecap:round;stroke-linejoin:round;stroke:rgb(18.431373%,30.980392%,30.980392%);stroke-opacity:1;stroke-miterlimit:10;" d="M 445.894531 332.699219 C 445.894531 336.433594 442.867188 339.457031 439.136719 339.457031 C 435.40625 339.457031 432.382812 336.433594 432.382812 332.699219 C 432.382812 328.96875 435.40625 325.945312 439.136719 325.945312 C 442.867188 325.945312 445.894531 328.96875 445.894531 332.699219 "/>
<path style="fill-rule:nonzero;fill:rgb(18.431373%,30.980392%,30.980392%);fill-opacity:1;stroke-width:0.708661;stroke-linecap:round;stroke-linejoin:round;stroke:rgb(18.431373%,30.980392%,30.980392%);stroke-opacity:1;stroke-miterlimit:10;" d="M 452.941406 289.109375 C 452.941406 292.839844 449.917969 295.863281 446.1875 295.863281 C 442.457031 295.863281 439.429688 292.839844 439.429688 289.109375 C 439.429688 285.378906 442.457031 282.351562 446.1875 282.351562 C 449.917969 282.351562 452.941406 285.378906 452.941406 289.109375 "/>
<path style="fill-rule:nonzero;fill:rgb(18.431373%,30.980392%,30.980392%);fill-opacity:1;stroke-width:0.708661;stroke-linecap:round;stroke-linejoin:round;stroke:rgb(18.431373%,30.980392%,30.980392%);stroke-opacity:1;stroke-miterlimit:10;" d="M 459.992188 423.472656 C 459.992188 427.203125 456.96875 430.230469 453.234375 430.230469 C 449.503906 430.230469 446.480469 427.203125 446.480469 423.472656 C 446.480469 419.742188 449.503906 416.71875 453.234375 416.71875 C 456.96875 416.71875 459.992188 419.742188 459.992188 423.472656 "/>
<path style="fill-rule:nonzero;fill:rgb(18.431373%,30.980392%,30.980392%);fill-opacity:1;stroke-width:0.708661;stroke-linecap:round;stroke-linejoin:round;stroke:rgb(18.431373%,30.980392%,30.980392%);stroke-opacity:1;stroke-miterlimit:10;" d="M 467.042969 435.667969 C 467.042969 439.402344 464.015625 442.425781 460.285156 442.425781 C 456.554688 442.425781 453.527344 439.402344 453.527344 435.667969 C 453.527344 431.9375 456.554688 428.914062 460.285156 428.914062 C 464.015625 428.914062 467.042969 431.9375 467.042969 435.667969 "/>
<path style="fill-rule:nonzero;fill:rgb(18.431373%,30.980392%,30.980392%);fill-opacity:1;stroke-width:0.708661;stroke-linecap:round;stroke-linejoin:round;stroke:rgb(18.431373%,30.980392%,30.980392%);stroke-opacity:1;stroke-miterlimit:10;" d="M 474.089844 377.605469 C 474.089844 381.335938 471.066406 384.359375 467.335938 384.359375 C 463.601562 384.359375 460.578125 381.335938 460.578125 377.605469 C 460.578125 373.875 463.601562 370.847656 467.335938 370.847656 C 471.066406 370.847656 474.089844 373.875 474.089844 377.605469 "/>
<path style="fill-rule:nonzero;fill:rgb(18.431373%,30.980392%,30.980392%);fill-opacity:1;stroke-width:0.708661;stroke-linecap:round;stroke-linejoin:round;stroke:rgb(18.431373%,30.980392%,30.980392%);stroke-opacity:1;stroke-miterlimit:10;" d="M 481.140625 306.457031 C 481.140625 310.1875 478.113281 313.214844 474.382812 313.214844 C 470.652344 313.214844 467.628906 310.1875 467.628906 306.457031 C 467.628906 302.726562 470.652344 299.699219 474.382812 299.699219 C 478.113281 299.699219 481.140625 302.726562 481.140625 306.457031 "/>
<path style="fill-rule:nonzero;fill:rgb(18.431373%,30.980392%,30.980392%);fill-opacity:1;stroke-width:0.708661;stroke-linecap:round;stroke-linejoin:round;stroke:rgb(18.431373%,30.980392%,30.980392%);stroke-opacity:1;stroke-miterlimit:10;" d="M 488.1875 316.183594 C 488.1875 319.914062 485.164062 322.9375 481.433594 322.9375 C 477.703125 322.9375 474.675781 319.914062 474.675781 316.183594 C 474.675781 312.453125 477.703125 309.425781 481.433594 309.425781 C 485.164062 309.425781 488.1875 312.453125 488.1875 316.183594 "/>
<path style="fill-rule:nonzero;fill:rgb(18.431373%,30.980392%,30.980392%);fill-opacity:1;stroke-width:0.708661;stroke-linecap:round;stroke-linejoin:round;stroke:rgb(18.431373%,30.980392%,30.980392%);stroke-opacity:1;stroke-miterlimit:10;" d="M 495.238281 211.652344 C 495.238281 215.382812 492.214844 218.410156 488.480469 218.410156 C 484.75 218.410156 481.726562 215.382812 481.726562 211.652344 C 481.726562 207.921875 484.75 204.894531 488.480469 204.894531 C 492.214844 204.894531 495.238281 207.921875 495.238281 211.652344 "/>
<path style="fill-rule:nonzero;fill:rgb(18.431373%,30.980392%,30.980392%);fill-opacity:1;stroke-width:0.708661;stroke-linecap:round;stroke-linejoin:round;stroke:rgb(18.431373%,30.980392%,30.980392%);stroke-opacity:1;stroke-miterlimit:10;" d="M 502.289062 252.113281 C 502.289062 255.84375 499.261719 258.867188 495.53125 258.867188 C 491.800781 258.867188 488.773438 255.84375 488.773438 252.113281 C 488.773438 248.378906 491.800781 245.355469 495.53125 245.355469 C 499.261719 245.355469 502.289062 248.378906 502.289062 252.113281 "/>
<path style="fill-rule:nonzero;fill:rgb(18.431373%,30.980392%,30.980392%);fill-opacity:1;stroke-width:0.708661;stroke-linecap:round;stroke-linejoin:round;stroke:rgb(18.431373%,30.980392%,30.980392%);stroke-opacity:1;stroke-miterlimit:10;" d="M 509.335938 259.984375 C 509.335938 263.714844 506.3125 266.742188 502.582031 266.742188 C 498.847656 266.742188 495.824219 263.714844 495.824219 259.984375 C 495.824219 256.253906 498.847656 253.226562 502.582031 253.226562 C 506.3125 253.226562 509.335938 256.253906 509.335938 259.984375 "/>
<path style="fill-rule:nonzero;fill:rgb(18.431373%,30.980392%,30.980392%);fill-opacity:1;stroke-width:0.708661;stroke-linecap:round;stroke-linejoin:round;stroke:rgb(18.431373%,30.980392%,30.980392%);stroke-opacity:1;stroke-miterlimit:10;" d="M 516.386719 306.339844 C 516.386719 310.074219 513.359375 313.097656 509.628906 313.097656 C 505.898438 313.097656 502.875 310.074219 502.875 306.339844 C 502.875 302.609375 505.898438 299.585938 509.628906 299.585938 C 513.359375 299.585938 516.386719 302.609375 516.386719 306.339844 "/>
<path style="fill-rule:nonzero;fill:rgb(18.431373%,30.980392%,30.980392%);fill-opacity:1;stroke-width:0.708661;stroke-linecap:round;stroke-linejoin:round;stroke:rgb(18.431373%,30.980392%,30.980392%);stroke-opacity:1;stroke-miterlimit:10;" d="M 523.433594 160.207031 C 523.433594 163.941406 520.410156 166.964844 516.679688 166.964844 C 512.949219 166.964844 509.921875 163.941406 509.921875 160.207031 C 509.921875 156.476562 512.949219 153.453125 516.679688 153.453125 C 520.410156 153.453125 523.433594 156.476562 523.433594 160.207031 "/>
<path style="fill-rule:nonzero;fill:rgb(18.431373%,30.980392%,30.980392%);fill-opacity:1;stroke-width:0.708661;stroke-linecap:round;stroke-linejoin:round;stroke:rgb(18.431373%,30.980392%,30.980392%);stroke-opacity:1;stroke-miterlimit:10;" d="M 530.484375 269.851562 C 530.484375 273.582031 527.460938 276.609375 523.726562 276.609375 C 519.996094 276.609375 516.972656 273.582031 516.972656 269.851562 C 516.972656 266.121094 519.996094 263.097656 523.726562 263.097656 C 527.460938 263.097656 530.484375 266.121094 530.484375 269.851562 "/>
<path style="fill-rule:nonzero;fill:rgb(18.431373%,30.980392%,30.980392%);fill-opacity:1;stroke-width:0.708661;stroke-linecap:round;stroke-linejoin:round;stroke:rgb(18.431373%,30.980392%,30.980392%);stroke-opacity:1;stroke-miterlimit:10;" d="M 537.535156 251.441406 C 537.535156 255.171875 534.507812 258.195312 530.777344 258.195312 C 527.046875 258.195312 524.019531 255.171875 524.019531 251.441406 C 524.019531 247.707031 527.046875 244.683594 530.777344 244.683594 C 534.507812 244.683594 537.535156 247.707031 537.535156 251.441406 "/>
<path style="fill-rule:nonzero;fill:rgb(18.431373%,30.980392%,30.980392%);fill-opacity:1;stroke-width:0.708661;stroke-linecap:round;stroke-linejoin:round;stroke:rgb(18.431373%,30.980392%,30.980392%);stroke-opacity:1;stroke-miterlimit:10;" d="M 544.582031 226.910156 C 544.582031 230.640625 541.558594 233.667969 537.828125 233.667969 C 534.09375 233.667969 531.070312 230.640625 531.070312 226.910156 C 531.070312 223.179688 534.09375 220.152344 537.828125 220.152344 C 541.558594 220.152344 544.582031 223.179688 544.582031 226.910156 "/>
<path style="fill-rule:nonzero;fill:rgb(18.431373%,30.980392%,30.980392%);fill-opacity:1;stroke-width:0.708661;stroke-linecap:round;stroke-linejoin:round;stroke:rgb(18.431373%,30.980392%,30.980392%);stroke-opacity:1;stroke-miterlimit:10;" d="M 551.632812 176.980469 C 551.632812 180.710938 548.605469 183.738281 544.875 183.738281 C 541.144531 183.738281 538.121094 180.710938 538.121094 176.980469 C 538.121094 173.25 541.144531 170.226562 544.875 170.226562 C 548.605469 170.226562 551.632812 173.25 551.632812 176.980469 "/>
<path style="fill-rule:nonzero;fill:rgb(18.431373%,30.980392%,30.980392%);fill-opacity:1;stroke-width:0.708661;stroke-linecap:round;stroke-linejoin:round;stroke:rgb(18.431373%,30.980392%,30.980392%);stroke-opacity:1;stroke-miterlimit:10;" d="M 558.679688 231.125 C 558.679688 234.855469 555.65625 237.882812 551.925781 237.882812 C 548.195312 237.882812 545.167969 234.855469 545.167969 231.125 C 545.167969 227.394531 548.195312 224.367188 551.925781 224.367188 C 555.65625 224.367188 558.679688 227.394531 558.679688 231.125 "/>
<path style="fill-rule:nonzero;fill:rgb(18.431373%,30.980392%,30.980392%);fill-opacity:1;stroke-width:0.708661;stroke-linecap:round;stroke-linejoin:round;stroke:rgb(18.431373%,30.980392%,30.980392%);stroke-opacity:1;stroke-miterlimit:10;" d="M 565.730469 249.855469 C 565.730469 253.589844 562.707031 256.613281 558.972656 256.613281 C 555.242188 256.613281 552.21875 253.589844 552.21875 249.855469 C 552.21875 246.125 555.242188 243.101562 558.972656 243.101562 C 562.707031 243.101562 565.730469 246.125 565.730469 249.855469 "/>
<path style="fill-rule:nonzero;fill:rgb(18.431373%,30.980392%,30.980392%);fill-opacity:1;stroke-width:0.708661;stroke-linecap:round;stroke-linejoin:round;stroke:rgb(18.431373%,30.980392%,30.980392%);stroke-opacity:1;stroke-miterlimit:10;" d="M 572.78125 293.828125 C 572.78125 297.558594 569.753906 300.582031 566.023438 300.582031 C 562.292969 300.582031 559.265625 297.558594 559.265625 293.828125 C 559.265625 290.09375 562.292969 287.070312 566.023438 287.070312 C 569.753906 287.070312 572.78125 290.09375 572.78125 293.828125 "/>
<path style="fill-rule:nonzero;fill:rgb(18.431373%,30.980392%,30.980392%);fill-opacity:1;stroke-width:0.708661;stroke-linecap:round;stroke-linejoin:round;stroke:rgb(18.431373%,30.980392%,30.980392%);stroke-opacity:1;stroke-miterlimit:10;" d="M 579.828125 247.617188 C 579.828125 251.347656 576.804688 254.375 573.074219 254.375 C 569.339844 254.375 566.316406 251.347656 566.316406 247.617188 C 566.316406 243.886719 569.339844 240.859375 573.074219 240.859375 C 576.804688 240.859375 579.828125 243.886719 579.828125 247.617188 "/>
<path style="fill-rule:nonzero;fill:rgb(18.431373%,30.980392%,30.980392%);fill-opacity:1;stroke-width:0.708661;stroke-linecap:round;stroke-linejoin:round;stroke:rgb(18.431373%,30.980392%,30.980392%);stroke-opacity:1;stroke-miterlimit:10;" d="M 586.878906 175.109375 C 586.878906 178.84375 583.851562 181.867188 580.121094 181.867188 C 576.390625 181.867188 573.367188 178.84375 573.367188 175.109375 C 573.367188 171.378906 576.390625 168.355469 580.121094 168.355469 C 583.851562 168.355469 586.878906 171.378906 586.878906 175.109375 "/>
<path style="fill-rule:nonzero;fill:rgb(18.431373%,30.980392%,30.980392%);fill-opacity:1;stroke-width:0.708661;stroke-linecap:round;stroke-linejoin:round;stroke:rgb(18.431373%,30.980392%,30.980392%);stroke-opacity:1;stroke-miterlimit:10;" d="M 593.925781 191.328125 C 593.925781 195.058594 590.902344 198.082031 587.171875 198.082031 C 583.441406 198.082031 580.414062 195.058594 580.414062 191.328125 C 580.414062 187.59375 583.441406 184.570312 587.171875 184.570312 C 590.902344 184.570312 593.925781 187.59375 593.925781 191.328125 "/>
<path style="fill-rule:nonzero;fill:rgb(18.431373%,30.980392%,30.980392%);fill-opacity:1;stroke-width:0.708661;stroke-linecap:round;stroke-linejoin:round;stroke:rgb(18.431373%,30.980392%,30.980392%);stroke-opacity:1;stroke-miterlimit:10;" d="M 600.976562 215.785156 C 600.976562 219.515625 597.953125 222.539062 594.21875 222.539062 C 590.488281 222.539062 587.464844 219.515625 587.464844 215.785156 C 587.464844 212.050781 590.488281 209.027344 594.21875 209.027344 C 597.953125 209.027344 600.976562 212.050781 600.976562 215.785156 "/>
<path style="fill-rule:nonzero;fill:rgb(18.431373%,30.980392%,30.980392%);fill-opacity:1;stroke-width:0.708661;stroke-linecap:round;stroke-linejoin:round;stroke:rgb(18.431373%,30.980392%,30.980392%);stroke-opacity:1;stroke-miterlimit:10;" d="M 608.027344 255.527344 C 608.027344 259.257812 605 262.285156 601.269531 262.285156 C 597.539062 262.285156 594.511719 259.257812 594.511719 255.527344 C 594.511719 251.796875 597.539062 248.773438 601.269531 248.773438 C 605 248.773438 608.027344 251.796875 608.027344 255.527344 "/>
<path style="fill-rule:nonzero;fill:rgb(18.431373%,30.980392%,30.980392%);fill-opacity:1;stroke-width:0.708661;stroke-linecap:round;stroke-linejoin:round;stroke:rgb(18.431373%,30.980392%,30.980392%);stroke-opacity:1;stroke-miterlimit:10;" d="M 615.074219 149.023438 C 615.074219 152.757812 612.050781 155.78125 608.320312 155.78125 C 604.585938 155.78125 601.5625 152.757812 601.5625 149.023438 C 601.5625 145.292969 604.585938 142.269531 608.320312 142.269531 C 612.050781 142.269531 615.074219 145.292969 615.074219 149.023438 "/>
<path style="fill-rule:nonzero;fill:rgb(18.431373%,30.980392%,30.980392%);fill-opacity:1;stroke-width:0.708661;stroke-linecap:round;stroke-linejoin:round;stroke:rgb(18.431373%,30.980392%,30.980392%);stroke-opacity:1;stroke-miterlimit:10;" d="M 622.125 259.980469 C 622.125 263.710938 619.097656 266.734375 615.367188 266.734375 C 611.636719 266.734375 608.613281 263.710938 608.613281 259.980469 C 608.613281 256.25 611.636719 253.222656 615.367188 253.222656 C 619.097656 253.222656 622.125 256.25 622.125 259.980469 "/>
<path style="fill-rule:nonzero;fill:rgb(18.431373%,30.980392%,30.980392%);fill-opacity:1;stroke-width:0.708661;stroke-linecap:round;stroke-linejoin:round;stroke:rgb(18.431373%,30.980392%,30.980392%);stroke-opacity:1;stroke-miterlimit:10;" d="M 629.171875 281.636719 C 629.171875 285.371094 626.148438 288.394531 622.417969 288.394531 C 618.6875 288.394531 615.660156 285.371094 615.660156 281.636719 C 615.660156 277.90625 618.6875 274.882812 622.417969 274.882812 C 626.148438 274.882812 629.171875 277.90625 629.171875 281.636719 "/>
<path style="fill-rule:nonzero;fill:rgb(18.431373%,30.980392%,30.980392%);fill-opacity:1;stroke-width:0.708661;stroke-linecap:round;stroke-linejoin:round;stroke:rgb(18.431373%,30.980392%,30.980392%);stroke-opacity:1;stroke-miterlimit:10;" d="M 636.222656 356.378906 C 636.222656 360.109375 633.199219 363.136719 629.464844 363.136719 C 625.734375 363.136719 622.710938 360.109375 622.710938 356.378906 C 622.710938 352.648438 625.734375 349.625 629.464844 349.625 C 633.199219 349.625 636.222656 352.648438 636.222656 356.378906 "/>
<path style="fill-rule:nonzero;fill:rgb(18.431373%,30.980392%,30.980392%);fill-opacity:1;stroke-width:0.708661;stroke-linecap:round;stroke-linejoin:round;stroke:rgb(18.431373%,30.980392%,30.980392%);stroke-opacity:1;stroke-miterlimit:10;" d="M 643.273438 149.945312 C 643.273438 153.675781 640.246094 156.699219 636.515625 156.699219 C 632.785156 156.699219 629.757812 153.675781 629.757812 149.945312 C 629.757812 146.210938 632.785156 143.1875 636.515625 143.1875 C 640.246094 143.1875 643.273438 146.210938 643.273438 149.945312 "/>
<path style="fill-rule:nonzero;fill:rgb(18.431373%,30.980392%,30.980392%);fill-opacity:1;stroke-width:0.708661;stroke-linecap:round;stroke-linejoin:round;stroke:rgb(18.431373%,30.980392%,30.980392%);stroke-opacity:1;stroke-miterlimit:10;" d="M 650.320312 239.878906 C 650.320312 243.609375 647.296875 246.632812 643.566406 246.632812 C 639.832031 246.632812 636.808594 243.609375 636.808594 239.878906 C 636.808594 236.144531 639.832031 233.121094 643.566406 233.121094 C 647.296875 233.121094 650.320312 236.144531 650.320312 239.878906 "/>
<path style="fill-rule:nonzero;fill:rgb(18.431373%,30.980392%,30.980392%);fill-opacity:1;stroke-width:0.708661;stroke-linecap:round;stroke-linejoin:round;stroke:rgb(18.431373%,30.980392%,30.980392%);stroke-opacity:1;stroke-miterlimit:10;" d="M 657.371094 431.410156 C 657.371094 435.140625 654.34375 438.164062 650.613281 438.164062 C 646.882812 438.164062 643.859375 435.140625 643.859375 431.410156 C 643.859375 427.675781 646.882812 424.652344 650.613281 424.652344 C 654.34375 424.652344 657.371094 427.675781 657.371094 431.410156 "/>
<path style="fill-rule:nonzero;fill:rgb(18.431373%,30.980392%,30.980392%);fill-opacity:1;stroke-width:0.708661;stroke-linecap:round;stroke-linejoin:round;stroke:rgb(18.431373%,30.980392%,30.980392%);stroke-opacity:1;stroke-miterlimit:10;" d="M 664.417969 292.480469 C 664.417969 296.210938 661.394531 299.238281 657.664062 299.238281 C 653.933594 299.238281 650.90625 296.210938 650.90625 292.480469 C 650.90625 288.75 653.933594 285.722656 657.664062 285.722656 C 661.394531 285.722656 664.417969 288.75 664.417969 292.480469 "/>
<path style="fill-rule:nonzero;fill:rgb(18.431373%,30.980392%,30.980392%);fill-opacity:1;stroke-width:0.708661;stroke-linecap:round;stroke-linejoin:round;stroke:rgb(18.431373%,30.980392%,30.980392%);stroke-opacity:1;stroke-miterlimit:10;" d="M 671.46875 261.226562 C 671.46875 264.957031 668.445312 267.980469 664.710938 267.980469 C 660.980469 267.980469 657.957031 264.957031 657.957031 261.226562 C 657.957031 257.492188 660.980469 254.46875 664.710938 254.46875 C 668.445312 254.46875 671.46875 257.492188 671.46875 261.226562 "/>
<path style="fill-rule:nonzero;fill:rgb(18.431373%,30.980392%,30.980392%);fill-opacity:1;stroke-width:0.708661;stroke-linecap:round;stroke-linejoin:round;stroke:rgb(18.431373%,30.980392%,30.980392%);stroke-opacity:1;stroke-miterlimit:10;" d="M 678.519531 197.039062 C 678.519531 200.769531 675.492188 203.796875 671.761719 203.796875 C 668.03125 203.796875 665.003906 200.769531 665.003906 197.039062 C 665.003906 193.308594 668.03125 190.28125 671.761719 190.28125 C 675.492188 190.28125 678.519531 193.308594 678.519531 197.039062 "/>
<path style="fill-rule:nonzero;fill:rgb(18.431373%,30.980392%,30.980392%);fill-opacity:1;stroke-width:0.708661;stroke-linecap:round;stroke-linejoin:round;stroke:rgb(18.431373%,30.980392%,30.980392%);stroke-opacity:1;stroke-miterlimit:10;" d="M 685.566406 142.742188 C 685.566406 146.472656 682.542969 149.496094 678.8125 149.496094 C 675.078125 149.496094 672.054688 146.472656 672.054688 142.742188 C 672.054688 139.011719 675.078125 135.984375 678.8125 135.984375 C 682.542969 135.984375 685.566406 139.011719 685.566406 142.742188 "/>
<path style="fill-rule:nonzero;fill:rgb(18.431373%,30.980392%,30.980392%);fill-opacity:1;stroke-width:0.708661;stroke-linecap:round;stroke-linejoin:round;stroke:rgb(18.431373%,30.980392%,30.980392%);stroke-opacity:1;stroke-miterlimit:10;" d="M 692.617188 227.671875 C 692.617188 231.402344 689.589844 234.425781 685.859375 234.425781 C 682.128906 234.425781 679.105469 231.402344 679.105469 227.671875 C 679.105469 223.9375 682.128906 220.914062 685.859375 220.914062 C 689.589844 220.914062 692.617188 223.9375 692.617188 227.671875 "/>
<path style="fill-rule:nonzero;fill:rgb(18.431373%,30.980392%,30.980392%);fill-opacity:1;stroke-width:0.708661;stroke-linecap:round;stroke-linejoin:round;stroke:rgb(18.431373%,30.980392%,30.980392%);stroke-opacity:1;stroke-miterlimit:10;" d="M 699.664062 79.109375 C 699.664062 82.839844 696.640625 85.867188 692.910156 85.867188 C 689.179688 85.867188 686.152344 82.839844 686.152344 79.109375 C 686.152344 75.378906 689.179688 72.351562 692.910156 72.351562 C 696.640625 72.351562 699.664062 75.378906 699.664062 79.109375 "/>
<path style="fill-rule:nonzero;fill:rgb(18.431373%,30.980392%,30.980392%);fill-opacity:1;stroke-width:0.708661;stroke-linecap:round;stroke-linejoin:round;stroke:rgb(18.431373%,30.980392%,30.980392%);stroke-opacity:1;stroke-miterlimit:10;" d="M 706.714844 153.472656 C 706.714844 157.203125 703.691406 160.230469 699.957031 160.230469 C 696.226562 160.230469 693.203125 157.203125 693.203125 153.472656 C 693.203125 149.742188 696.226562 146.714844 699.957031 146.714844 C 703.691406 146.714844 706.714844 149.742188 706.714844 153.472656 "/>
<path style="fill-rule:nonzero;fill:rgb(18.431373%,30.980392%,30.980392%);fill-opacity:1;stroke-width:0.708661;stroke-linecap:round;stroke-linejoin:round;stroke:rgb(18.431373%,30.980392%,30.980392%);stroke-opacity:1;stroke-miterlimit:10;" d="M 713.765625 92.054688 C 713.765625 95.785156 710.738281 98.8125 707.007812 98.8125 C 703.277344 98.8125 700.25 95.785156 700.25 92.054688 C 700.25 88.324219 703.277344 85.296875 707.007812 85.296875 C 710.738281 85.296875 713.765625 88.324219 713.765625 92.054688 "/>
<path style="fill-rule:nonzero;fill:rgb(18.431373%,30.980392%,30.980392%);fill-opacity:1;stroke-width:0.708661;stroke-linecap:round;stroke-linejoin:round;stroke:rgb(18.431373%,30.980392%,30.980392%);stroke-opacity:1;stroke-miterlimit:10;" d="M 720.8125 87.511719 C 720.8125 91.242188 717.789062 94.265625 714.058594 94.265625 C 710.324219 94.265625 707.300781 91.242188 707.300781 87.511719 C 707.300781 83.777344 710.324219 80.753906 714.058594 80.753906 C 717.789062 80.753906 720.8125 83.777344 720.8125 87.511719 "/>
<path style="fill-rule:nonzero;fill:rgb(18.431373%,30.980392%,30.980392%);fill-opacity:1;stroke-width:0.708661;stroke-linecap:round;stroke-linejoin:round;stroke:rgb(18.431373%,30.980392%,30.980392%);stroke-opacity:1;stroke-miterlimit:10;" d="M 727.863281 292.214844 C 727.863281 295.945312 724.835938 298.972656 721.105469 298.972656 C 717.375 298.972656 714.351562 295.945312 714.351562 292.214844 C 714.351562 288.484375 717.375 285.460938 721.105469 285.460938 C 724.835938 285.460938 727.863281 288.484375 727.863281 292.214844 "/>
<path style="fill:none;stroke-width:6.40187;stroke-linecap:butt;stroke-linejoin:round;stroke:rgb(94.117647%,50.196078%,50.196078%);stroke-opacity:1;stroke-miterlimit:10;" d="M 23.234375 375.011719 L 32.066406 372.769531 L 40.902344 370.527344 L 49.734375 368.285156 L 58.570312 366.042969 L 67.402344 363.800781 L 76.238281 361.554688 L 93.902344 357.070312 L 102.738281 354.828125 L 111.570312 352.585938 L 120.40625 350.339844 L 129.238281 348.097656 L 138.074219 345.855469 L 146.90625 343.613281 L 155.742188 341.371094 L 164.574219 339.125 L 173.410156 336.882812 L 182.242188 334.640625 L 191.078125 332.398438 L 199.910156 330.15625 L 208.742188 327.910156 L 217.578125 325.667969 L 226.410156 323.425781 L 235.246094 321.183594 L 244.078125 318.941406 L 252.914062 316.695312 L 261.746094 314.453125 L 270.582031 312.210938 L 279.414062 309.96875 L 288.25 307.726562 L 297.082031 305.480469 L 305.917969 303.238281 L 323.582031 298.753906 L 332.417969 296.511719 L 341.25 294.265625 L 350.085938 292.023438 L 358.917969 289.78125 L 367.753906 287.539062 L 376.585938 285.296875 L 385.421875 283.050781 L 394.253906 280.808594 L 403.089844 278.566406 L 411.921875 276.324219 L 420.757812 274.082031 L 429.589844 271.835938 L 438.421875 269.59375 L 447.257812 267.351562 L 456.089844 265.109375 L 464.925781 262.867188 L 473.757812 260.621094 L 482.59375 258.378906 L 491.425781 256.136719 L 500.261719 253.894531 L 509.09375 251.652344 L 517.929688 249.40625 L 526.761719 247.164062 L 535.597656 244.921875 L 553.261719 240.4375 L 562.097656 238.195312 L 570.929688 235.949219 L 579.765625 233.707031 L 588.597656 231.464844 L 597.433594 229.222656 L 606.265625 226.980469 L 615.101562 224.734375 L 623.933594 222.492188 L 632.769531 220.25 L 641.601562 218.007812 L 650.4375 215.765625 L 659.269531 213.519531 L 668.101562 211.277344 L 676.9375 209.035156 L 685.769531 206.792969 L 694.605469 204.550781 L 703.4375 202.304688 L 712.273438 200.0625 L 721.105469 197.820312 "/>
</g>
</svg>
