<?xml version="1.0" encoding="UTF-8"?>
<svg xmlns="http://www.w3.org/2000/svg" xmlns:xlink="http://www.w3.org/1999/xlink" width="756pt" height="504pt" viewBox="0 0 756 504" version="1.1">
<g id="surface279">
<rect x="0" y="0" width="756" height="504" style="fill:rgb(100%,100%,100%);fill-opacity:1;stroke:none;"/>
<path style="fill-rule:nonzero;fill:rgb(18.431373%,30.980392%,30.980392%);fill-opacity:1;stroke-width:0.708661;stroke-linecap:round;stroke-linejoin:round;stroke:rgb(18.431373%,30.980392%,30.980392%);stroke-opacity:1;stroke-miterlimit:10;" d="M 29.988281 479.210938 C 29.988281 482.941406 26.964844 485.964844 23.234375 485.964844 C 19.503906 485.964844 16.476562 482.941406 16.476562 479.210938 C 16.476562 475.476562 19.503906 472.453125 23.234375 472.453125 C 26.964844 472.453125 29.988281 475.476562 29.988281 479.210938 "/>
<path style="fill-rule:nonzero;fill:rgb(18.431373%,30.980392%,30.980392%);fill-opacity:1;stroke-width:0.708661;stroke-linecap:round;stroke-linejoin:round;stroke:rgb(18.431373%,30.980392%,30.980392%);stroke-opacity:1;stroke-miterlimit:10;" d="M 37.039062 424.84375 C 37.039062 428.574219 34.015625 431.597656 30.28125 431.597656 C 26.550781 431.597656 23.527344 428.574219 23.527344 424.84375 C 23.527344 421.109375 26.550781 418.085938 30.28125 418.085938 C 34.015625 418.085938 37.039062 421.109375 37.039062 424.84375 "/>
<path style="fill-rule:nonzero;fill:rgb(18.431373%,30.980392%,30.980392%);fill-opacity:1;stroke-width:0.708661;stroke-linecap:round;stroke-linejoin:round;stroke:rgb(18.431373%,30.980392%,30.980392%);stroke-opacity:1;stroke-miterlimit:10;" d="M 44.089844 463.058594 C 44.089844 466.792969 41.0625 469.816406 37.332031 469.816406 C 33.601562 469.816406 30.574219 466.792969 30.574219 463.058594 C 30.574219 459.328125 33.601562 456.304688 37.332031 456.304688 C 41.0625 456.304688 44.089844 459.328125 44.089844 463.058594 "/>
<path style="fill-rule:nonzero;fill:rgb(18.431373%,30.980392%,30.980392%);fill-opacity:1;stroke-width:0.708661;stroke-linecap:round;stroke-linejoin:round;stroke:rgb(18.431373%,30.980392%,30.980392%);stroke-opacity:1;stroke-miterlimit:10;" d="M 51.136719 463.980469 C 51.136719 467.714844 48.113281 470.738281 44.382812 470.738281 C 40.648438 470.738281 37.625 467.714844 37.625 463.980469 C 37.625 460.25 40.648438 457.226562 44.382812 457.226562 C 48.113281 457.226562 51.136719 460.25 51.136719 463.980469 "/>
<path style="fill-rule:nonzero;fill:rgb(18.431373%,30.980392%,30.980392%);fill-opacity:1;stroke-width:0.708661;stroke-linecap:round;stroke-linejoin:round;stroke:rgb(18.431373%,30.980392%,30.980392%);stroke-opacity:1;stroke-miterlimit:10;" d="M 58.1875 426.222656 C 58.1875 429.953125 55.160156 432.976562 51.429688 432.976562 C 47.699219 432.976562 44.675781 429.953125 44.675781 426.222656 C 44.675781 422.488281 47.699219 419.464844 51.429688 419.464844 C 55.160156 419.464844 58.1875 422.488281 58.1875 426.222656 "/>
<path style="fill-rule:nonzero;fill:rgb(18.431373%,30.980392%,30.980392%);fill-opacity:1;stroke-width:0.708661;stroke-linecap:round;stroke-linejoin:round;stroke:rgb(18.431373%,30.980392%,30.980392%);stroke-opacity:1;stroke-miterlimit:10;" d="M 65.234375 492.222656 C 65.234375 495.953125 62.210938 498.976562 58.480469 498.976562 C 54.75 498.976562 51.722656 495.953125 51.722656 492.222656 C 51.722656 488.488281 54.75 485.464844 58.480469 485.464844 C 62.210938 485.464844 65.234375 488.488281 65.234375 492.222656 "/>
<path style="fill-rule:nonzero;fill:rgb(18.431373%,30.980392%,30.980392%);fill-opacity:1;stroke-width:0.708661;stroke-linecap:round;stroke-linejoin:round;stroke:rgb(18.431373%,30.980392%,30.980392%);stroke-opacity:1;stroke-miterlimit:10;" d="M 72.285156 425.222656 C 72.285156 428.953125 69.261719 431.980469 65.527344 431.980469 C 61.796875 431.980469 58.773438 428.953125 58.773438 425.222656 C 58.773438 421.492188 61.796875 418.464844 65.527344 418.464844 C 69.261719 418.464844 72.285156 421.492188 72.285156 425.222656 "/>
<path style="fill-rule:nonzero;fill:rgb(18.431373%,30.980392%,30.980392%);fill-opacity:1;stroke-width:0.708661;stroke-linecap:round;stroke-linejoin:round;stroke:rgb(18.431373%,30.980392%,30.980392%);stroke-opacity:1;stroke-miterlimit:10;" d="M 79.335938 444.953125 C 79.335938 448.683594 76.308594 451.707031 72.578125 451.707031 C 68.847656 451.707031 65.820312 448.683594 65.820312 444.953125 C 65.820312 441.21875 68.847656 438.195312 72.578125 438.195312 C 76.308594 438.195312 79.335938 441.21875 79.335938 444.953125 "/>
<path style="fill-rule:nonzero;fill:rgb(18.431373%,30.980392%,30.980392%);fill-opacity:1;stroke-width:0.708661;stroke-linecap:round;stroke-linejoin:round;stroke:rgb(18.431373%,30.980392%,30.980392%);stroke-opacity:1;stroke-miterlimit:10;" d="M 86.382812 450.582031 C 86.382812 454.3125 83.359375 457.335938 79.628906 457.335938 C 75.894531 457.335938 72.871094 454.3125 72.871094 450.582031 C 72.871094 446.851562 75.894531 443.824219 79.628906 443.824219 C 83.359375 443.824219 86.382812 446.851562 86.382812 450.582031 "/>
<path style="fill-rule:nonzero;fill:rgb(18.431373%,30.980392%,30.980392%);fill-opacity:1;stroke-width:0.708661;stroke-linecap:round;stroke-linejoin:round;stroke:rgb(18.431373%,30.980392%,30.980392%);stroke-opacity:1;stroke-miterlimit:10;" d="M 93.433594 417.246094 C 93.433594 420.980469 90.40625 424.003906 86.675781 424.003906 C 82.945312 424.003906 79.921875 420.980469 79.921875 417.246094 C 79.921875 413.515625 82.945312 410.492188 86.675781 410.492188 C 90.40625 410.492188 93.433594 413.515625 93.433594 417.246094 "/>
<path style="fill-rule:nonzero;fill:rgb(18.431373%,30.980392%,30.980392%);fill-opacity:1;stroke-width:0.708661;stroke-linecap:round;stroke-linejoin:round;stroke:rgb(18.431373%,30.980392%,30.980392%);stroke-opacity:1;stroke-miterlimit:10;" d="M 100.480469 406.9375 C 100.480469 410.671875 97.457031 413.695312 93.726562 413.695312 C 89.996094 413.695312 86.96875 410.671875 86.96875 406.9375 C 86.96875 403.207031 89.996094 400.183594 93.726562 400.183594 C 97.457031 400.183594 100.480469 403.207031 100.480469 406.9375 "/>
<path style="fill-rule:nonzero;fill:rgb(18.431373%,30.980392%,30.980392%);fill-opacity:1;stroke-width:0.708661;stroke-linecap:round;stroke-linejoin:round;stroke:rgb(18.431373%,30.980392%,30.980392%);stroke-opacity:1;stroke-miterlimit:10;" d="M 107.53125 414.28125 C 107.53125 418.011719 104.507812 421.035156 100.773438 421.035156 C 97.042969 421.035156 94.019531 418.011719 94.019531 414.28125 C 94.019531 410.546875 97.042969 407.523438 100.773438 407.523438 C 104.507812 407.523438 107.53125 410.546875 107.53125 414.28125 "/>
<path style="fill-rule:nonzero;fill:rgb(18.431373%,30.980392%,30.980392%);fill-opacity:1;stroke-width:0.708661;stroke-linecap:round;stroke-linejoin:round;stroke:rgb(18.431373%,30.980392%,30.980392%);stroke-opacity:1;stroke-miterlimit:10;" d="M 114.582031 406.035156 C 114.582031 409.765625 111.554688 412.792969 107.824219 412.792969 C 104.09375 412.792969 101.066406 409.765625 101.066406 406.035156 C 101.066406 402.304688 104.09375 399.277344 107.824219 399.277344 C 111.554688 399.277344 114.582031 402.304688 114.582031 406.035156 "/>
<path style="fill-rule:nonzero;fill:rgb(18.431373%,30.980392%,30.980392%);fill-opacity:1;stroke-width:0.708661;stroke-linecap:round;stroke-linejoin:round;stroke:rgb(18.431373%,30.980392%,30.980392%);stroke-opacity:1;stroke-miterlimit:10;" d="M 121.628906 410.460938 C 121.628906 414.191406 118.605469 417.214844 114.875 417.214844 C 111.140625 417.214844 108.117188 414.191406 108.117188 410.460938 C 108.117188 406.730469 111.140625 403.703125 114.875 403.703125 C 118.605469 403.703125 121.628906 406.730469 121.628906 410.460938 "/>
<path style="fill-rule:nonzero;fill:rgb(18.431373%,30.980392%,30.980392%);fill-opacity:1;stroke-width:0.708661;stroke-linecap:round;stroke-linejoin:round;stroke:rgb(18.431373%,30.980392%,30.980392%);stroke-opacity:1;stroke-miterlimit:10;" d="M 128.679688 409.324219 C 128.679688 413.054688 125.652344 416.078125 121.921875 416.078125 C 118.191406 416.078125 115.167969 413.054688 115.167969 409.324219 C 115.167969 405.59375 118.191406 402.566406 121.921875 402.566406 C 125.652344 402.566406 128.679688 405.59375 128.679688 409.324219 "/>
<path style="fill-rule:nonzero;fill:rgb(18.431373%,30.980392%,30.980392%);fill-opacity:1;stroke-width:0.708661;stroke-linecap:round;stroke-linejoin:round;stroke:rgb(18.431373%,30.980392%,30.980392%);stroke-opacity:1;stroke-miterlimit:10;" d="M 135.726562 400.988281 C 135.726562 404.722656 132.703125 407.746094 128.972656 407.746094 C 125.242188 407.746094 122.214844 404.722656 122.214844 400.988281 C 122.214844 397.257812 125.242188 394.234375 128.972656 394.234375 C 132.703125 394.234375 135.726562 397.257812 135.726562 400.988281 "/>
<path style="fill-rule:nonzero;fill:rgb(18.431373%,30.980392%,30.980392%);fill-opacity:1;stroke-width:0.708661;stroke-linecap:round;stroke-linejoin:round;stroke:rgb(18.431373%,30.980392%,30.980392%);stroke-opacity:1;stroke-miterlimit:10;" d="M 142.777344 409.046875 C 142.777344 412.777344 139.753906 415.800781 136.019531 415.800781 C 132.289062 415.800781 129.265625 412.777344 129.265625 409.046875 C 129.265625 405.3125 132.289062 402.289062 136.019531 402.289062 C 139.753906 402.289062 142.777344 405.3125 142.777344 409.046875 "/>
<path style="fill-rule:nonzero;fill:rgb(18.431373%,30.980392%,30.980392%);fill-opacity:1;stroke-width:0.708661;stroke-linecap:round;stroke-linejoin:round;stroke:rgb(18.431373%,30.980392%,30.980392%);stroke-opacity:1;stroke-miterlimit:10;" d="M 149.828125 388.546875 C 149.828125 392.277344 146.800781 395.304688 143.070312 395.304688 C 139.339844 395.304688 136.3125 392.277344 136.3125 388.546875 C 136.3125 384.816406 139.339844 381.789062 143.070312 381.789062 C 146.800781 381.789062 149.828125 384.816406 149.828125 388.546875 "/>
<path style="fill-rule:nonzero;fill:rgb(18.431373%,30.980392%,30.980392%);fill-opacity:1;stroke-width:0.708661;stroke-linecap:round;stroke-linejoin:round;stroke:rgb(18.431373%,30.980392%,30.980392%);stroke-opacity:1;stroke-miterlimit:10;" d="M 156.875 397.890625 C 156.875 401.621094 153.851562 404.644531 150.121094 404.644531 C 146.386719 404.644531 143.363281 401.621094 143.363281 397.890625 C 143.363281 394.15625 146.386719 391.132812 150.121094 391.132812 C 153.851562 391.132812 156.875 394.15625 156.875 397.890625 "/>
<path style="fill-rule:nonzero;fill:rgb(18.431373%,30.980392%,30.980392%);fill-opacity:1;stroke-width:0.708661;stroke-linecap:round;stroke-linejoin:round;stroke:rgb(18.431373%,30.980392%,30.980392%);stroke-opacity:1;stroke-miterlimit:10;" d="M 163.925781 400.65625 C 163.925781 404.386719 160.898438 407.414062 157.167969 407.414062 C 153.4375 407.414062 150.414062 404.386719 150.414062 400.65625 C 150.414062 396.925781 153.4375 393.902344 157.167969 393.902344 C 160.898438 393.902344 163.925781 396.925781 163.925781 400.65625 "/>
<path style="fill-rule:nonzero;fill:rgb(18.431373%,30.980392%,30.980392%);fill-opacity:1;stroke-width:0.708661;stroke-linecap:round;stroke-linejoin:round;stroke:rgb(18.431373%,30.980392%,30.980392%);stroke-opacity:1;stroke-miterlimit:10;" d="M 170.972656 338.25 C 170.972656 341.980469 167.949219 345.003906 164.21875 345.003906 C 160.488281 345.003906 157.460938 341.980469 157.460938 338.25 C 157.460938 334.515625 160.488281 331.492188 164.21875 331.492188 C 167.949219 331.492188 170.972656 334.515625 170.972656 338.25 "/>
<path style="fill-rule:nonzero;fill:rgb(18.431373%,30.980392%,30.980392%);fill-opacity:1;stroke-width:0.708661;stroke-linecap:round;stroke-linejoin:round;stroke:rgb(18.431373%,30.980392%,30.980392%);stroke-opacity:1;stroke-miterlimit:10;" d="M 178.023438 408.746094 C 178.023438 412.480469 175 415.503906 171.265625 415.503906 C 167.535156 415.503906 164.511719 412.480469 164.511719 408.746094 C 164.511719 405.015625 167.535156 401.992188 171.265625 401.992188 C 175 401.992188 178.023438 405.015625 178.023438 408.746094 "/>
<path style="fill-rule:nonzero;fill:rgb(18.431373%,30.980392%,30.980392%);fill-opacity:1;stroke-width:0.708661;stroke-linecap:round;stroke-linejoin:round;stroke:rgb(18.431373%,30.980392%,30.980392%);stroke-opacity:1;stroke-miterlimit:10;" d="M 185.074219 365.921875 C 185.074219 369.65625 182.046875 372.679688 178.316406 372.679688 C 174.585938 372.679688 171.558594 369.65625 171.558594 365.921875 C 171.558594 362.191406 174.585938 359.167969 178.316406 359.167969 C 182.046875 359.167969 185.074219 362.191406 185.074219 365.921875 "/>
<path style="fill-rule:nonzero;fill:rgb(18.431373%,30.980392%,30.980392%);fill-opacity:1;stroke-width:0.708661;stroke-linecap:round;stroke-linejoin:round;stroke:rgb(18.431373%,30.980392%,30.980392%);stroke-opacity:1;stroke-miterlimit:10;" d="M 192.121094 390.542969 C 192.121094 394.273438 189.097656 397.300781 185.367188 397.300781 C 181.632812 397.300781 178.609375 394.273438 178.609375 390.542969 C 178.609375 386.8125 181.632812 383.789062 185.367188 383.789062 C 189.097656 383.789062 192.121094 386.8125 192.121094 390.542969 "/>
<path style="fill-rule:nonzero;fill:rgb(18.431373%,30.980392%,30.980392%);fill-opacity:1;stroke-width:0.708661;stroke-linecap:round;stroke-linejoin:round;stroke:rgb(18.431373%,30.980392%,30.980392%);stroke-opacity:1;stroke-miterlimit:10;" d="M 199.171875 352.449219 C 199.171875 356.179688 196.144531 359.203125 192.414062 359.203125 C 188.683594 359.203125 185.660156 356.179688 185.660156 352.449219 C 185.660156 348.71875 188.683594 345.691406 192.414062 345.691406 C 196.144531 345.691406 199.171875 348.71875 199.171875 352.449219 "/>
<path style="fill-rule:nonzero;fill:rgb(18.431373%,30.980392%,30.980392%);fill-opacity:1;stroke-width:0.708661;stroke-linecap:round;stroke-linejoin:round;stroke:rgb(18.431373%,30.980392%,30.980392%);stroke-opacity:1;stroke-miterlimit:10;" d="M 206.21875 347.574219 C 206.21875 351.304688 203.195312 354.328125 199.464844 354.328125 C 195.734375 354.328125 192.707031 351.304688 192.707031 347.574219 C 192.707031 343.84375 195.734375 340.816406 199.464844 340.816406 C 203.195312 340.816406 206.21875 343.84375 206.21875 347.574219 "/>
<path style="fill-rule:nonzero;fill:rgb(18.431373%,30.980392%,30.980392%);fill-opacity:1;stroke-width:0.708661;stroke-linecap:round;stroke-linejoin:round;stroke:rgb(18.431373%,30.980392%,30.980392%);stroke-opacity:1;stroke-miterlimit:10;" d="M 213.269531 380.710938 C 213.269531 384.445312 210.246094 387.46875 206.511719 387.46875 C 202.78125 387.46875 199.757812 384.445312 199.757812 380.710938 C 199.757812 376.980469 202.78125 373.957031 206.511719 373.957031 C 210.246094 373.957031 213.269531 376.980469 213.269531 380.710938 "/>
<path style="fill-rule:nonzero;fill:rgb(18.431373%,30.980392%,30.980392%);fill-opacity:1;stroke-width:0.708661;stroke-linecap:round;stroke-linejoin:round;stroke:rgb(18.431373%,30.980392%,30.980392%);stroke-opacity:1;stroke-miterlimit:10;" d="M 220.320312 304.074219 C 220.320312 307.808594 217.292969 310.832031 213.5625 310.832031 C 209.832031 310.832031 206.804688 307.808594 206.804688 304.074219 C 206.804688 300.34375 209.832031 297.320312 213.5625 297.320312 C 217.292969 297.320312 220.320312 300.34375 220.320312 304.074219 "/>
<path style="fill-rule:nonzero;fill:rgb(18.431373%,30.980392%,30.980392%);fill-opacity:1;stroke-width:0.708661;stroke-linecap:round;stroke-linejoin:round;stroke:rgb(18.431373%,30.980392%,30.980392%);stroke-opacity:1;stroke-miterlimit:10;" d="M 227.367188 370.3125 C 227.367188 374.042969 224.34375 377.066406 220.613281 377.066406 C 216.878906 377.066406 213.855469 374.042969 213.855469 370.3125 C 213.855469 366.578125 216.878906 363.554688 220.613281 363.554688 C 224.34375 363.554688 227.367188 366.578125 227.367188 370.3125 "/>
<path style="fill-rule:nonzero;fill:rgb(18.431373%,30.980392%,30.980392%);fill-opacity:1;stroke-width:0.708661;stroke-linecap:round;stroke-linejoin:round;stroke:rgb(18.431373%,30.980392%,30.980392%);stroke-opacity:1;stroke-miterlimit:10;" d="M 234.417969 368.960938 C 234.417969 372.691406 231.390625 375.714844 227.660156 375.714844 C 223.929688 375.714844 220.90625 372.691406 220.90625 368.960938 C 220.90625 365.226562 223.929688 362.203125 227.660156 362.203125 C 231.390625 362.203125 234.417969 365.226562 234.417969 368.960938 "/>
<path style="fill-rule:nonzero;fill:rgb(18.431373%,30.980392%,30.980392%);fill-opacity:1;stroke-width:0.708661;stroke-linecap:round;stroke-linejoin:round;stroke:rgb(18.431373%,30.980392%,30.980392%);stroke-opacity:1;stroke-miterlimit:10;" d="M 241.464844 364.796875 C 241.464844 368.527344 238.441406 371.554688 234.710938 371.554688 C 230.980469 371.554688 227.953125 368.527344 227.953125 364.796875 C 227.953125 361.066406 230.980469 358.042969 234.710938 358.042969 C 238.441406 358.042969 241.464844 361.066406 241.464844 364.796875 "/>
<path style="fill-rule:nonzero;fill:rgb(18.431373%,30.980392%,30.980392%);fill-opacity:1;stroke-width:0.708661;stroke-linecap:round;stroke-linejoin:round;stroke:rgb(18.431373%,30.980392%,30.980392%);stroke-opacity:1;stroke-miterlimit:10;" d="M 248.515625 303.78125 C 248.515625 307.511719 245.492188 310.539062 241.757812 310.539062 C 238.027344 310.539062 235.003906 307.511719 235.003906 303.78125 C 235.003906 300.050781 238.027344 297.027344 241.757812 297.027344 C 245.492188 297.027344 248.515625 300.050781 248.515625 303.78125 "/>
<path style="fill-rule:nonzero;fill:rgb(18.431373%,30.980392%,30.980392%);fill-opacity:1;stroke-width:0.708661;stroke-linecap:round;stroke-linejoin:round;stroke:rgb(18.431373%,30.980392%,30.980392%);stroke-opacity:1;stroke-miterlimit:10;" d="M 255.566406 310.75 C 255.566406 314.480469 252.539062 317.507812 248.808594 317.507812 C 245.078125 317.507812 242.050781 314.480469 242.050781 310.75 C 242.050781 307.019531 245.078125 303.992188 248.808594 303.992188 C 252.539062 303.992188 255.566406 307.019531 255.566406 310.75 "/>
<path style="fill-rule:nonzero;fill:rgb(18.431373%,30.980392%,30.980392%);fill-opacity:1;stroke-width:0.708661;stroke-linecap:round;stroke-linejoin:round;stroke:rgb(18.431373%,30.980392%,30.980392%);stroke-opacity:1;stroke-miterlimit:10;" d="M 262.613281 302.550781 C 262.613281 306.28125 259.589844 309.308594 255.859375 309.308594 C 252.125 309.308594 249.101562 306.28125 249.101562 302.550781 C 249.101562 298.820312 252.125 295.796875 255.859375 295.796875 C 259.589844 295.796875 262.613281 298.820312 262.613281 302.550781 "/>
<path style="fill-rule:nonzero;fill:rgb(18.431373%,30.980392%,30.980392%);fill-opacity:1;stroke-width:0.708661;stroke-linecap:round;stroke-linejoin:round;stroke:rgb(18.431373%,30.980392%,30.980392%);stroke-opacity:1;stroke-miterlimit:10;" d="M 269.664062 313.820312 C 269.664062 317.550781 266.636719 320.574219 262.90625 320.574219 C 259.175781 320.574219 256.152344 317.550781 256.152344 313.820312 C 256.152344 310.089844 259.175781 307.0625 262.90625 307.0625 C 266.636719 307.0625 269.664062 310.089844 269.664062 313.820312 "/>
<path style="fill-rule:nonzero;fill:rgb(18.431373%,30.980392%,30.980392%);fill-opacity:1;stroke-width:0.708661;stroke-linecap:round;stroke-linejoin:round;stroke:rgb(18.431373%,30.980392%,30.980392%);stroke-opacity:1;stroke-miterlimit:10;" d="M 276.710938 326.550781 C 276.710938 330.28125 273.6875 333.304688 269.957031 333.304688 C 266.226562 333.304688 263.199219 330.28125 263.199219 326.550781 C 263.199219 322.816406 266.226562 319.792969 269.957031 319.792969 C 273.6875 319.792969 276.710938 322.816406 276.710938 326.550781 "/>
<path style="fill-rule:nonzero;fill:rgb(18.431373%,30.980392%,30.980392%);fill-opacity:1;stroke-width:0.708661;stroke-linecap:round;stroke-linejoin:round;stroke:rgb(18.431373%,30.980392%,30.980392%);stroke-opacity:1;stroke-miterlimit:10;" d="M 283.761719 310.1875 C 283.761719 313.917969 280.738281 316.945312 277.003906 316.945312 C 273.273438 316.945312 270.25 313.917969 270.25 310.1875 C 270.25 306.457031 273.273438 303.429688 277.003906 303.429688 C 280.738281 303.429688 283.761719 306.457031 283.761719 310.1875 "/>
<path style="fill-rule:nonzero;fill:rgb(18.431373%,30.980392%,30.980392%);fill-opacity:1;stroke-width:0.708661;stroke-linecap:round;stroke-linejoin:round;stroke:rgb(18.431373%,30.980392%,30.980392%);stroke-opacity:1;stroke-miterlimit:10;" d="M 290.8125 304.433594 C 290.8125 308.167969 287.785156 311.191406 284.054688 311.191406 C 280.324219 311.191406 277.296875 308.167969 277.296875 304.433594 C 277.296875 300.703125 280.324219 297.679688 284.054688 297.679688 C 287.785156 297.679688 290.8125 300.703125 290.8125 304.433594 "/>
<path style="fill-rule:nonzero;fill:rgb(18.431373%,30.980392%,30.980392%);fill-opacity:1;stroke-width:0.708661;stroke-linecap:round;stroke-linejoin:round;stroke:rgb(18.431373%,30.980392%,30.980392%);stroke-opacity:1;stroke-miterlimit:10;" d="M 297.859375 308.769531 C 297.859375 312.5 294.835938 315.523438 291.105469 315.523438 C 287.371094 315.523438 284.347656 312.5 284.347656 308.769531 C 284.347656 305.039062 287.371094 302.011719 291.105469 302.011719 C 294.835938 302.011719 297.859375 305.039062 297.859375 308.769531 "/>
<path style="fill-rule:nonzero;fill:rgb(18.431373%,30.980392%,30.980392%);fill-opacity:1;stroke-width:0.708661;stroke-linecap:round;stroke-linejoin:round;stroke:rgb(18.431373%,30.980392%,30.980392%);stroke-opacity:1;stroke-miterlimit:10;" d="M 304.910156 281.691406 C 304.910156 285.425781 301.882812 288.449219 298.152344 288.449219 C 294.421875 288.449219 291.398438 285.425781 291.398438 281.691406 C 291.398438 277.960938 294.421875 274.9375 298.152344 274.9375 C 301.882812 274.9375 304.910156 277.960938 304.910156 281.691406 "/>
<path style="fill-rule:nonzero;fill:rgb(18.431373%,30.980392%,30.980392%);fill-opacity:1;stroke-width:0.708661;stroke-linecap:round;stroke-linejoin:round;stroke:rgb(18.431373%,30.980392%,30.980392%);stroke-opacity:1;stroke-miterlimit:10;" d="M 311.957031 307.726562 C 311.957031 311.460938 308.933594 314.484375 305.203125 314.484375 C 301.472656 314.484375 298.445312 311.460938 298.445312 307.726562 C 298.445312 303.996094 301.472656 300.972656 305.203125 300.972656 C 308.933594 300.972656 311.957031 303.996094 311.957031 307.726562 "/>
<path style="fill-rule:nonzero;fill:rgb(18.431373%,30.980392%,30.980392%);fill-opacity:1;stroke-width:0.708661;stroke-linecap:round;stroke-linejoin:round;stroke:rgb(18.431373%,30.980392%,30.980392%);stroke-opacity:1;stroke-miterlimit:10;" d="M 319.007812 247.867188 C 319.007812 251.601562 315.984375 254.625 312.25 254.625 C 308.519531 254.625 305.496094 251.601562 305.496094 247.867188 C 305.496094 244.136719 308.519531 241.113281 312.25 241.113281 C 315.984375 241.113281 319.007812 244.136719 319.007812 247.867188 "/>
<path style="fill-rule:nonzero;fill:rgb(18.431373%,30.980392%,30.980392%);fill-opacity:1;stroke-width:0.708661;stroke-linecap:round;stroke-linejoin:round;stroke:rgb(18.431373%,30.980392%,30.980392%);stroke-opacity:1;stroke-miterlimit:10;" d="M 326.058594 249.039062 C 326.058594 252.773438 323.03125 255.796875 319.300781 255.796875 C 315.570312 255.796875 312.542969 252.773438 312.542969 249.039062 C 312.542969 245.308594 315.570312 242.285156 319.300781 242.285156 C 323.03125 242.285156 326.058594 245.308594 326.058594 249.039062 "/>
<path style="fill-rule:nonzero;fill:rgb(18.431373%,30.980392%,30.980392%);fill-opacity:1;stroke-width:0.708661;stroke-linecap:round;stroke-linejoin:round;stroke:rgb(18.431373%,30.980392%,30.980392%);stroke-opacity:1;stroke-miterlimit:10;" d="M 333.105469 278.953125 C 333.105469 282.683594 330.082031 285.707031 326.351562 285.707031 C 322.617188 285.707031 319.59375 282.683594 319.59375 278.953125 C 319.59375 275.222656 322.617188 272.195312 326.351562 272.195312 C 330.082031 272.195312 333.105469 275.222656 333.105469 278.953125 "/>
<path style="fill-rule:nonzero;fill:rgb(18.431373%,30.980392%,30.980392%);fill-opacity:1;stroke-width:0.708661;stroke-linecap:round;stroke-linejoin:round;stroke:rgb(18.431373%,30.980392%,30.980392%);stroke-opacity:1;stroke-miterlimit:10;" d="M 340.15625 292.730469 C 340.15625 296.460938 337.128906 299.484375 333.398438 299.484375 C 329.667969 299.484375 326.644531 296.460938 326.644531 292.730469 C 326.644531 288.996094 329.667969 285.972656 333.398438 285.972656 C 337.128906 285.972656 340.15625 288.996094 340.15625 292.730469 "/>
<path style="fill-rule:nonzero;fill:rgb(18.431373%,30.980392%,30.980392%);fill-opacity:1;stroke-width:0.708661;stroke-linecap:round;stroke-linejoin:round;stroke:rgb(18.431373%,30.980392%,30.980392%);stroke-opacity:1;stroke-miterlimit:10;" d="M 347.203125 294.96875 C 347.203125 298.699219 344.179688 301.726562 340.449219 301.726562 C 336.71875 301.726562 333.691406 298.699219 333.691406 294.96875 C 333.691406 291.238281 336.71875 288.214844 340.449219 288.214844 C 344.179688 288.214844 347.203125 291.238281 347.203125 294.96875 "/>
<path style="fill-rule:nonzero;fill:rgb(18.431373%,30.980392%,30.980392%);fill-opacity:1;stroke-width:0.708661;stroke-linecap:round;stroke-linejoin:round;stroke:rgb(18.431373%,30.980392%,30.980392%);stroke-opacity:1;stroke-miterlimit:10;" d="M 354.253906 254.253906 C 354.253906 257.984375 351.230469 261.007812 347.496094 261.007812 C 343.765625 261.007812 340.742188 257.984375 340.742188 254.253906 C 340.742188 250.523438 343.765625 247.496094 347.496094 247.496094 C 351.230469 247.496094 354.253906 250.523438 354.253906 254.253906 "/>
<path style="fill-rule:nonzero;fill:rgb(18.431373%,30.980392%,30.980392%);fill-opacity:1;stroke-width:0.708661;stroke-linecap:round;stroke-linejoin:round;stroke:rgb(18.431373%,30.980392%,30.980392%);stroke-opacity:1;stroke-miterlimit:10;" d="M 361.304688 251.191406 C 361.304688 254.921875 358.277344 257.949219 354.546875 257.949219 C 350.816406 257.949219 347.789062 254.921875 347.789062 251.191406 C 347.789062 247.460938 350.816406 244.433594 354.546875 244.433594 C 358.277344 244.433594 361.304688 247.460938 361.304688 251.191406 "/>
<path style="fill-rule:nonzero;fill:rgb(18.431373%,30.980392%,30.980392%);fill-opacity:1;stroke-width:0.708661;stroke-linecap:round;stroke-linejoin:round;stroke:rgb(18.431373%,30.980392%,30.980392%);stroke-opacity:1;stroke-miterlimit:10;" d="M 368.351562 247.953125 C 368.351562 251.683594 365.328125 254.707031 361.597656 254.707031 C 357.863281 254.707031 354.839844 251.683594 354.839844 247.953125 C 354.839844 244.21875 357.863281 241.195312 361.597656 241.195312 C 365.328125 241.195312 368.351562 244.21875 368.351562 247.953125 "/>
<path style="fill-rule:nonzero;fill:rgb(18.431373%,30.980392%,30.980392%);fill-opacity:1;stroke-width:0.708661;stroke-linecap:round;stroke-linejoin:round;stroke:rgb(18.431373%,30.980392%,30.980392%);stroke-opacity:1;stroke-miterlimit:10;" d="M 375.402344 235.488281 C 375.402344 239.21875 372.375 242.246094 368.644531 242.246094 C 364.914062 242.246094 361.890625 239.21875 361.890625 235.488281 C 361.890625 231.757812 364.914062 228.734375 368.644531 228.734375 C 372.375 228.734375 375.402344 231.757812 375.402344 235.488281 "/>
<path style="fill-rule:nonzero;fill:rgb(18.431373%,30.980392%,30.980392%);fill-opacity:1;stroke-width:0.708661;stroke-linecap:round;stroke-linejoin:round;stroke:rgb(18.431373%,30.980392%,30.980392%);stroke-opacity:1;stroke-miterlimit:10;" d="M 382.449219 279.855469 C 382.449219 283.589844 379.425781 286.613281 375.695312 286.613281 C 371.964844 286.613281 368.9375 283.589844 368.9375 279.855469 C 368.9375 276.125 371.964844 273.101562 375.695312 273.101562 C 379.425781 273.101562 382.449219 276.125 382.449219 279.855469 "/>
<path style="fill-rule:nonzero;fill:rgb(18.431373%,30.980392%,30.980392%);fill-opacity:1;stroke-width:0.708661;stroke-linecap:round;stroke-linejoin:round;stroke:rgb(18.431373%,30.980392%,30.980392%);stroke-opacity:1;stroke-miterlimit:10;" d="M 389.5 215.722656 C 389.5 219.453125 386.476562 222.476562 382.742188 222.476562 C 379.011719 222.476562 375.988281 219.453125 375.988281 215.722656 C 375.988281 211.992188 379.011719 208.964844 382.742188 208.964844 C 386.476562 208.964844 389.5 211.992188 389.5 215.722656 "/>
<path style="fill-rule:nonzero;fill:rgb(18.431373%,30.980392%,30.980392%);fill-opacity:1;stroke-width:0.708661;stroke-linecap:round;stroke-linejoin:round;stroke:rgb(18.431373%,30.980392%,30.980392%);stroke-opacity:1;stroke-miterlimit:10;" d="M 396.550781 266.210938 C 396.550781 269.941406 393.523438 272.964844 389.792969 272.964844 C 386.0625 272.964844 383.035156 269.941406 383.035156 266.210938 C 383.035156 262.476562 386.0625 259.453125 389.792969 259.453125 C 393.523438 259.453125 396.550781 262.476562 396.550781 266.210938 "/>
<path style="fill-rule:nonzero;fill:rgb(18.431373%,30.980392%,30.980392%);fill-opacity:1;stroke-width:0.708661;stroke-linecap:round;stroke-linejoin:round;stroke:rgb(18.431373%,30.980392%,30.980392%);stroke-opacity:1;stroke-miterlimit:10;" d="M 403.597656 266.804688 C 403.597656 270.535156 400.574219 273.5625 396.84375 273.5625 C 393.109375 273.5625 390.085938 270.535156 390.085938 266.804688 C 390.085938 263.074219 393.109375 260.050781 396.84375 260.050781 C 400.574219 260.050781 403.597656 263.074219 403.597656 266.804688 "/>
<path style="fill-rule:nonzero;fill:rgb(18.431373%,30.980392%,30.980392%);fill-opacity:1;stroke-width:0.708661;stroke-linecap:round;stroke-linejoin:round;stroke:rgb(18.431373%,30.980392%,30.980392%);stroke-opacity:1;stroke-miterlimit:10;" d="M 410.648438 236.273438 C 410.648438 240.007812 407.621094 243.03125 403.890625 243.03125 C 400.160156 243.03125 397.136719 240.007812 397.136719 236.273438 C 397.136719 232.542969 400.160156 229.519531 403.890625 229.519531 C 407.621094 229.519531 410.648438 232.542969 410.648438 236.273438 "/>
<path style="fill-rule:nonzero;fill:rgb(18.431373%,30.980392%,30.980392%);fill-opacity:1;stroke-width:0.708661;stroke-linecap:round;stroke-linejoin:round;stroke:rgb(18.431373%,30.980392%,30.980392%);stroke-opacity:1;stroke-miterlimit:10;" d="M 417.695312 216.714844 C 417.695312 220.445312 414.671875 223.472656 410.941406 223.472656 C 407.210938 223.472656 404.183594 220.445312 404.183594 216.714844 C 404.183594 212.984375 407.210938 209.960938 410.941406 209.960938 C 414.671875 209.960938 417.695312 212.984375 417.695312 216.714844 "/>
<path style="fill-rule:nonzero;fill:rgb(18.431373%,30.980392%,30.980392%);fill-opacity:1;stroke-width:0.708661;stroke-linecap:round;stroke-linejoin:round;stroke:rgb(18.431373%,30.980392%,30.980392%);stroke-opacity:1;stroke-miterlimit:10;" d="M 424.746094 184.367188 C 424.746094 188.101562 421.722656 191.125 417.988281 191.125 C 414.257812 191.125 411.234375 188.101562 411.234375 184.367188 C 411.234375 180.636719 414.257812 177.613281 417.988281 177.613281 C 421.722656 177.613281 424.746094 180.636719 424.746094 184.367188 "/>
<path style="fill-rule:nonzero;fill:rgb(18.431373%,30.980392%,30.980392%);fill-opacity:1;stroke-width:0.708661;stroke-linecap:round;stroke-linejoin:round;stroke:rgb(18.431373%,30.980392%,30.980392%);stroke-opacity:1;stroke-miterlimit:10;" d="M 431.796875 242.554688 C 431.796875 246.285156 428.769531 249.308594 425.039062 249.308594 C 421.308594 249.308594 418.28125 246.285156 418.28125 242.554688 C 418.28125 238.824219 421.308594 235.796875 425.039062 235.796875 C 428.769531 235.796875 431.796875 238.824219 431.796875 242.554688 "/>
<path style="fill-rule:nonzero;fill:rgb(18.431373%,30.980392%,30.980392%);fill-opacity:1;stroke-width:0.708661;stroke-linecap:round;stroke-linejoin:round;stroke:rgb(18.431373%,30.980392%,30.980392%);stroke-opacity:1;stroke-miterlimit:10;" d="M 438.84375 222.425781 C 438.84375 226.15625 435.820312 229.183594 432.089844 229.183594 C 428.355469 229.183594 425.332031 226.15625 425.332031 222.425781 C 425.332031 218.695312 428.355469 215.671875 432.089844 215.671875 C 435.820312 215.671875 438.84375 218.695312 438.84375 222.425781 "/>
<path style="fill-rule:nonzero;fill:rgb(18.431373%,30.980392%,30.980392%);fill-opacity:1;stroke-width:0.708661;stroke-linecap:round;stroke-linejoin:round;stroke:rgb(18.431373%,30.980392%,30.980392%);stroke-opacity:1;stroke-miterlimit:10;" d="M 445.894531 205.722656 C 445.894531 209.453125 442.867188 212.476562 439.136719 212.476562 C 435.40625 212.476562 432.382812 209.453125 432.382812 205.722656 C 432.382812 201.988281 435.40625 198.964844 439.136719 198.964844 C 442.867188 198.964844 445.894531 201.988281 445.894531 205.722656 "/>
<path style="fill-rule:nonzero;fill:rgb(18.431373%,30.980392%,30.980392%);fill-opacity:1;stroke-width:0.708661;stroke-linecap:round;stroke-linejoin:round;stroke:rgb(18.431373%,30.980392%,30.980392%);stroke-opacity:1;stroke-miterlimit:10;" d="M 452.941406 180.28125 C 452.941406 184.011719 449.917969 187.039062 446.1875 187.039062 C 442.457031 187.039062 439.429688 184.011719 439.429688 180.28125 C 439.429688 176.550781 442.457031 173.523438 446.1875 173.523438 C 449.917969 173.523438 452.941406 176.550781 452.941406 180.28125 "/>
<path style="fill-rule:nonzero;fill:rgb(18.431373%,30.980392%,30.980392%);fill-opacity:1;stroke-width:0.708661;stroke-linecap:round;stroke-linejoin:round;stroke:rgb(18.431373%,30.980392%,30.980392%);stroke-opacity:1;stroke-miterlimit:10;" d="M 459.992188 282.257812 C 459.992188 285.988281 456.96875 289.011719 453.234375 289.011719 C 449.503906 289.011719 446.480469 285.988281 446.480469 282.257812 C 446.480469 278.523438 449.503906 275.5 453.234375 275.5 C 456.96875 275.5 459.992188 278.523438 459.992188 282.257812 "/>
<path style="fill-rule:nonzero;fill:rgb(18.431373%,30.980392%,30.980392%);fill-opacity:1;stroke-width:0.708661;stroke-linecap:round;stroke-linejoin:round;stroke:rgb(18.431373%,30.980392%,30.980392%);stroke-opacity:1;stroke-miterlimit:10;" d="M 467.042969 224.882812 C 467.042969 228.613281 464.015625 231.636719 460.285156 231.636719 C 456.554688 231.636719 453.527344 228.613281 453.527344 224.882812 C 453.527344 221.152344 456.554688 218.125 460.285156 218.125 C 464.015625 218.125 467.042969 221.152344 467.042969 224.882812 "/>
<path style="fill-rule:nonzero;fill:rgb(18.431373%,30.980392%,30.980392%);fill-opacity:1;stroke-width:0.708661;stroke-linecap:round;stroke-linejoin:round;stroke:rgb(18.431373%,30.980392%,30.980392%);stroke-opacity:1;stroke-miterlimit:10;" d="M 474.089844 229.871094 C 474.089844 233.601562 471.066406 236.625 467.335938 236.625 C 463.601562 236.625 460.578125 233.601562 460.578125 229.871094 C 460.578125 226.140625 463.601562 223.113281 467.335938 223.113281 C 471.066406 223.113281 474.089844 226.140625 474.089844 229.871094 "/>
<path style="fill-rule:nonzero;fill:rgb(18.431373%,30.980392%,30.980392%);fill-opacity:1;stroke-width:0.708661;stroke-linecap:round;stroke-linejoin:round;stroke:rgb(18.431373%,30.980392%,30.980392%);stroke-opacity:1;stroke-miterlimit:10;" d="M 481.140625 168.179688 C 481.140625 171.910156 478.113281 174.933594 474.382812 174.933594 C 470.652344 174.933594 467.628906 171.910156 467.628906 168.179688 C 467.628906 164.445312 470.652344 161.421875 474.382812 161.421875 C 478.113281 161.421875 481.140625 164.445312 481.140625 168.179688 "/>
<path style="fill-rule:nonzero;fill:rgb(18.431373%,30.980392%,30.980392%);fill-opacity:1;stroke-width:0.708661;stroke-linecap:round;stroke-linejoin:round;stroke:rgb(18.431373%,30.980392%,30.980392%);stroke-opacity:1;stroke-miterlimit:10;" d="M 488.1875 188.195312 C 488.1875 191.925781 485.164062 194.949219 481.433594 194.949219 C 477.703125 194.949219 474.675781 191.925781 474.675781 188.195312 C 474.675781 184.460938 477.703125 181.4375 481.433594 181.4375 C 485.164062 181.4375 488.1875 184.460938 488.1875 188.195312 "/>
<path style="fill-rule:nonzero;fill:rgb(18.431373%,30.980392%,30.980392%);fill-opacity:1;stroke-width:0.708661;stroke-linecap:round;stroke-linejoin:round;stroke:rgb(18.431373%,30.980392%,30.980392%);stroke-opacity:1;stroke-miterlimit:10;" d="M 495.238281 190.667969 C 495.238281 194.398438 492.214844 197.421875 488.480469 197.421875 C 484.75 197.421875 481.726562 194.398438 481.726562 190.667969 C 481.726562 186.933594 484.75 183.910156 488.480469 183.910156 C 492.214844 183.910156 495.238281 186.933594 495.238281 190.667969 "/>
<path style="fill-rule:nonzero;fill:rgb(18.431373%,30.980392%,30.980392%);fill-opacity:1;stroke-width:0.708661;stroke-linecap:round;stroke-linejoin:round;stroke:rgb(18.431373%,30.980392%,30.980392%);stroke-opacity:1;stroke-miterlimit:10;" d="M 502.289062 171.351562 C 502.289062 175.085938 499.261719 178.109375 495.53125 178.109375 C 491.800781 178.109375 488.773438 175.085938 488.773438 171.351562 C 488.773438 167.621094 491.800781 164.597656 495.53125 164.597656 C 499.261719 164.597656 502.289062 167.621094 502.289062 171.351562 "/>
<path style="fill-rule:nonzero;fill:rgb(18.431373%,30.980392%,30.980392%);fill-opacity:1;stroke-width:0.708661;stroke-linecap:round;stroke-linejoin:round;stroke:rgb(18.431373%,30.980392%,30.980392%);stroke-opacity:1;stroke-miterlimit:10;" d="M 509.335938 192.316406 C 509.335938 196.046875 506.3125 199.074219 502.582031 199.074219 C 498.847656 199.074219 495.824219 196.046875 495.824219 192.316406 C 495.824219 188.585938 498.847656 185.5625 502.582031 185.5625 C 506.3125 185.5625 509.335938 188.585938 509.335938 192.316406 "/>
<path style="fill-rule:nonzero;fill:rgb(18.431373%,30.980392%,30.980392%);fill-opacity:1;stroke-width:0.708661;stroke-linecap:round;stroke-linejoin:round;stroke:rgb(18.431373%,30.980392%,30.980392%);stroke-opacity:1;stroke-miterlimit:10;" d="M 516.386719 164.183594 C 516.386719 167.917969 513.359375 170.941406 509.628906 170.941406 C 505.898438 170.941406 502.875 167.917969 502.875 164.183594 C 502.875 160.453125 505.898438 157.429688 509.628906 157.429688 C 513.359375 157.429688 516.386719 160.453125 516.386719 164.183594 "/>
<path style="fill-rule:nonzero;fill:rgb(18.431373%,30.980392%,30.980392%);fill-opacity:1;stroke-width:0.708661;stroke-linecap:round;stroke-linejoin:round;stroke:rgb(18.431373%,30.980392%,30.980392%);stroke-opacity:1;stroke-miterlimit:10;" d="M 523.433594 161.054688 C 523.433594 164.785156 520.410156 167.8125 516.679688 167.8125 C 512.949219 167.8125 509.921875 164.785156 509.921875 161.054688 C 509.921875 157.324219 512.949219 154.296875 516.679688 154.296875 C 520.410156 154.296875 523.433594 157.324219 523.433594 161.054688 "/>
<path style="fill-rule:nonzero;fill:rgb(18.431373%,30.980392%,30.980392%);fill-opacity:1;stroke-width:0.708661;stroke-linecap:round;stroke-linejoin:round;stroke:rgb(18.431373%,30.980392%,30.980392%);stroke-opacity:1;stroke-miterlimit:10;" d="M 530.484375 146.066406 C 530.484375 149.796875 527.460938 152.824219 523.726562 152.824219 C 519.996094 152.824219 516.972656 149.796875 516.972656 146.066406 C 516.972656 142.335938 519.996094 139.3125 523.726562 139.3125 C 527.460938 139.3125 530.484375 142.335938 530.484375 146.066406 "/>
<path style="fill-rule:nonzero;fill:rgb(18.431373%,30.980392%,30.980392%);fill-opacity:1;stroke-width:0.708661;stroke-linecap:round;stroke-linejoin:round;stroke:rgb(18.431373%,30.980392%,30.980392%);stroke-opacity:1;stroke-miterlimit:10;" d="M 537.535156 149.929688 C 537.535156 153.664062 534.507812 156.6875 530.777344 156.6875 C 527.046875 156.6875 524.019531 153.664062 524.019531 149.929688 C 524.019531 146.199219 527.046875 143.175781 530.777344 143.175781 C 534.507812 143.175781 537.535156 146.199219 537.535156 149.929688 "/>
<path style="fill-rule:nonzero;fill:rgb(18.431373%,30.980392%,30.980392%);fill-opacity:1;stroke-width:0.708661;stroke-linecap:round;stroke-linejoin:round;stroke:rgb(18.431373%,30.980392%,30.980392%);stroke-opacity:1;stroke-miterlimit:10;" d="M 544.582031 150.703125 C 544.582031 154.433594 541.558594 157.460938 537.828125 157.460938 C 534.09375 157.460938 531.070312 154.433594 531.070312 150.703125 C 531.070312 146.972656 534.09375 143.945312 537.828125 143.945312 C 541.558594 143.945312 544.582031 146.972656 544.582031 150.703125 "/>
<path style="fill-rule:nonzero;fill:rgb(18.431373%,30.980392%,30.980392%);fill-opacity:1;stroke-width:0.708661;stroke-linecap:round;stroke-linejoin:round;stroke:rgb(18.431373%,30.980392%,30.980392%);stroke-opacity:1;stroke-miterlimit:10;" d="M 551.632812 162.160156 C 551.632812 165.890625 548.605469 168.917969 544.875 168.917969 C 541.144531 168.917969 538.121094 165.890625 538.121094 162.160156 C 538.121094 158.429688 541.144531 155.402344 544.875 155.402344 C 548.605469 155.402344 551.632812 158.429688 551.632812 162.160156 "/>
<path style="fill-rule:nonzero;fill:rgb(18.431373%,30.980392%,30.980392%);fill-opacity:1;stroke-width:0.708661;stroke-linecap:round;stroke-linejoin:round;stroke:rgb(18.431373%,30.980392%,30.980392%);stroke-opacity:1;stroke-miterlimit:10;" d="M 558.679688 114.675781 C 558.679688 118.40625 555.65625 121.433594 551.925781 121.433594 C 548.195312 121.433594 545.167969 118.40625 545.167969 114.675781 C 545.167969 110.945312 548.195312 107.917969 551.925781 107.917969 C 555.65625 107.917969 558.679688 110.945312 558.679688 114.675781 "/>
<path style="fill-rule:nonzero;fill:rgb(18.431373%,30.980392%,30.980392%);fill-opacity:1;stroke-width:0.708661;stroke-linecap:round;stroke-linejoin:round;stroke:rgb(18.431373%,30.980392%,30.980392%);stroke-opacity:1;stroke-miterlimit:10;" d="M 565.730469 133.863281 C 565.730469 137.59375 562.707031 140.617188 558.972656 140.617188 C 555.242188 140.617188 552.21875 137.59375 552.21875 133.863281 C 552.21875 130.128906 555.242188 127.105469 558.972656 127.105469 C 562.707031 127.105469 565.730469 130.128906 565.730469 133.863281 "/>
<path style="fill-rule:nonzero;fill:rgb(18.431373%,30.980392%,30.980392%);fill-opacity:1;stroke-width:0.708661;stroke-linecap:round;stroke-linejoin:round;stroke:rgb(18.431373%,30.980392%,30.980392%);stroke-opacity:1;stroke-miterlimit:10;" d="M 572.78125 133.015625 C 572.78125 136.75 569.753906 139.773438 566.023438 139.773438 C 562.292969 139.773438 559.265625 136.75 559.265625 133.015625 C 559.265625 129.285156 562.292969 126.261719 566.023438 126.261719 C 569.753906 126.261719 572.78125 129.285156 572.78125 133.015625 "/>
<path style="fill-rule:nonzero;fill:rgb(18.431373%,30.980392%,30.980392%);fill-opacity:1;stroke-width:0.708661;stroke-linecap:round;stroke-linejoin:round;stroke:rgb(18.431373%,30.980392%,30.980392%);stroke-opacity:1;stroke-miterlimit:10;" d="M 579.828125 122.558594 C 579.828125 126.289062 576.804688 129.316406 573.074219 129.316406 C 569.339844 129.316406 566.316406 126.289062 566.316406 122.558594 C 566.316406 118.828125 569.339844 115.804688 573.074219 115.804688 C 576.804688 115.804688 579.828125 118.828125 579.828125 122.558594 "/>
<path style="fill-rule:nonzero;fill:rgb(18.431373%,30.980392%,30.980392%);fill-opacity:1;stroke-width:0.708661;stroke-linecap:round;stroke-linejoin:round;stroke:rgb(18.431373%,30.980392%,30.980392%);stroke-opacity:1;stroke-miterlimit:10;" d="M 586.878906 165.933594 C 586.878906 169.664062 583.851562 172.691406 580.121094 172.691406 C 576.390625 172.691406 573.367188 169.664062 573.367188 165.933594 C 573.367188 162.203125 576.390625 159.175781 580.121094 159.175781 C 583.851562 159.175781 586.878906 162.203125 586.878906 165.933594 "/>
<path style="fill-rule:nonzero;fill:rgb(18.431373%,30.980392%,30.980392%);fill-opacity:1;stroke-width:0.708661;stroke-linecap:round;stroke-linejoin:round;stroke:rgb(18.431373%,30.980392%,30.980392%);stroke-opacity:1;stroke-miterlimit:10;" d="M 593.925781 118.96875 C 593.925781 122.699219 590.902344 125.722656 587.171875 125.722656 C 583.441406 125.722656 580.414062 122.699219 580.414062 118.96875 C 580.414062 115.234375 583.441406 112.210938 587.171875 112.210938 C 590.902344 112.210938 593.925781 115.234375 593.925781 118.96875 "/>
<path style="fill-rule:nonzero;fill:rgb(18.431373%,30.980392%,30.980392%);fill-opacity:1;stroke-width:0.708661;stroke-linecap:round;stroke-linejoin:round;stroke:rgb(18.431373%,30.980392%,30.980392%);stroke-opacity:1;stroke-miterlimit:10;" d="M 600.976562 138.5625 C 600.976562 142.292969 597.953125 145.320312 594.21875 145.320312 C 590.488281 145.320312 587.464844 142.292969 587.464844 138.5625 C 587.464844 134.832031 590.488281 131.808594 594.21875 131.808594 C 597.953125 131.808594 600.976562 134.832031 600.976562 138.5625 "/>
<path style="fill-rule:nonzero;fill:rgb(18.431373%,30.980392%,30.980392%);fill-opacity:1;stroke-width:0.708661;stroke-linecap:round;stroke-linejoin:round;stroke:rgb(18.431373%,30.980392%,30.980392%);stroke-opacity:1;stroke-miterlimit:10;" d="M 608.027344 114.953125 C 608.027344 118.6875 605 121.710938 601.269531 121.710938 C 597.539062 121.710938 594.511719 118.6875 594.511719 114.953125 C 594.511719 111.222656 597.539062 108.199219 601.269531 108.199219 C 605 108.199219 608.027344 111.222656 608.027344 114.953125 "/>
<path style="fill-rule:nonzero;fill:rgb(18.431373%,30.980392%,30.980392%);fill-opacity:1;stroke-width:0.708661;stroke-linecap:round;stroke-linejoin:round;stroke:rgb(18.431373%,30.980392%,30.980392%);stroke-opacity:1;stroke-miterlimit:10;" d="M 615.074219 125.039062 C 615.074219 128.769531 612.050781 131.796875 608.320312 131.796875 C 604.585938 131.796875 601.5625 128.769531 601.5625 125.039062 C 601.5625 121.308594 604.585938 118.285156 608.320312 118.285156 C 612.050781 118.285156 615.074219 121.308594 615.074219 125.039062 "/>
<path style="fill-rule:nonzero;fill:rgb(18.431373%,30.980392%,30.980392%);fill-opacity:1;stroke-width:0.708661;stroke-linecap:round;stroke-linejoin:round;stroke:rgb(18.431373%,30.980392%,30.980392%);stroke-opacity:1;stroke-miterlimit:10;" d="M 622.125 124.027344 C 622.125 127.761719 619.097656 130.785156 615.367188 130.785156 C 611.636719 130.785156 608.613281 127.761719 608.613281 124.027344 C 608.613281 120.296875 611.636719 117.273438 615.367188 117.273438 C 619.097656 117.273438 622.125 120.296875 622.125 124.027344 "/>
<path style="fill-rule:nonzero;fill:rgb(18.431373%,30.980392%,30.980392%);fill-opacity:1;stroke-width:0.708661;stroke-linecap:round;stroke-linejoin:round;stroke:rgb(18.431373%,30.980392%,30.980392%);stroke-opacity:1;stroke-miterlimit:10;" d="M 629.171875 75.363281 C 629.171875 79.09375 626.148438 82.117188 622.417969 82.117188 C 618.6875 82.117188 615.660156 79.09375 615.660156 75.363281 C 615.660156 71.632812 618.6875 68.605469 622.417969 68.605469 C 626.148438 68.605469 629.171875 71.632812 629.171875 75.363281 "/>
<path style="fill-rule:nonzero;fill:rgb(18.431373%,30.980392%,30.980392%);fill-opacity:1;stroke-width:0.708661;stroke-linecap:round;stroke-linejoin:round;stroke:rgb(18.431373%,30.980392%,30.980392%);stroke-opacity:1;stroke-miterlimit:10;" d="M 636.222656 60.71875 C 636.222656 64.449219 633.199219 67.476562 629.464844 67.476562 C 625.734375 67.476562 622.710938 64.449219 622.710938 60.71875 C 622.710938 56.988281 625.734375 53.960938 629.464844 53.960938 C 633.199219 53.960938 636.222656 56.988281 636.222656 60.71875 "/>
<path style="fill-rule:nonzero;fill:rgb(18.431373%,30.980392%,30.980392%);fill-opacity:1;stroke-width:0.708661;stroke-linecap:round;stroke-linejoin:round;stroke:rgb(18.431373%,30.980392%,30.980392%);stroke-opacity:1;stroke-miterlimit:10;" d="M 643.273438 98.753906 C 643.273438 102.484375 640.246094 105.507812 636.515625 105.507812 C 632.785156 105.507812 629.757812 102.484375 629.757812 98.753906 C 629.757812 95.023438 632.785156 91.996094 636.515625 91.996094 C 640.246094 91.996094 643.273438 95.023438 643.273438 98.753906 "/>
<path style="fill-rule:nonzero;fill:rgb(18.431373%,30.980392%,30.980392%);fill-opacity:1;stroke-width:0.708661;stroke-linecap:round;stroke-linejoin:round;stroke:rgb(18.431373%,30.980392%,30.980392%);stroke-opacity:1;stroke-miterlimit:10;" d="M 650.320312 65.988281 C 650.320312 69.71875 647.296875 72.742188 643.566406 72.742188 C 639.832031 72.742188 636.808594 69.71875 636.808594 65.988281 C 636.808594 62.253906 639.832031 59.230469 643.566406 59.230469 C 647.296875 59.230469 650.320312 62.253906 650.320312 65.988281 "/>
<path style="fill-rule:nonzero;fill:rgb(18.431373%,30.980392%,30.980392%);fill-opacity:1;stroke-width:0.708661;stroke-linecap:round;stroke-linejoin:round;stroke:rgb(18.431373%,30.980392%,30.980392%);stroke-opacity:1;stroke-miterlimit:10;" d="M 657.371094 40.292969 C 657.371094 44.023438 654.34375 47.046875 650.613281 47.046875 C 646.882812 47.046875 643.859375 44.023438 643.859375 40.292969 C 643.859375 36.5625 646.882812 33.535156 650.613281 33.535156 C 654.34375 33.535156 657.371094 36.5625 657.371094 40.292969 "/>
<path style="fill-rule:nonzero;fill:rgb(18.431373%,30.980392%,30.980392%);fill-opacity:1;stroke-width:0.708661;stroke-linecap:round;stroke-linejoin:round;stroke:rgb(18.431373%,30.980392%,30.980392%);stroke-opacity:1;stroke-miterlimit:10;" d="M 664.417969 117.511719 C 664.417969 121.242188 661.394531 124.265625 657.664062 124.265625 C 653.933594 124.265625 650.90625 121.242188 650.90625 117.511719 C 650.90625 113.78125 653.933594 110.753906 657.664062 110.753906 C 661.394531 110.753906 664.417969 113.78125 664.417969 117.511719 "/>
<path style="fill-rule:nonzero;fill:rgb(18.431373%,30.980392%,30.980392%);fill-opacity:1;stroke-width:0.708661;stroke-linecap:round;stroke-linejoin:round;stroke:rgb(18.431373%,30.980392%,30.980392%);stroke-opacity:1;stroke-miterlimit:10;" d="M 671.46875 78.242188 C 671.46875 81.972656 668.445312 85 664.710938 85 C 660.980469 85 657.957031 81.972656 657.957031 78.242188 C 657.957031 74.511719 660.980469 71.484375 664.710938 71.484375 C 668.445312 71.484375 671.46875 74.511719 671.46875 78.242188 "/>
<path style="fill-rule:nonzero;fill:rgb(18.431373%,30.980392%,30.980392%);fill-opacity:1;stroke-width:0.708661;stroke-linecap:round;stroke-linejoin:round;stroke:rgb(18.431373%,30.980392%,30.980392%);stroke-opacity:1;stroke-miterlimit:10;" d="M 678.519531 43.050781 C 678.519531 46.785156 675.492188 49.808594 671.761719 49.808594 C 668.03125 49.808594 665.003906 46.785156 665.003906 43.050781 C 665.003906 39.320312 668.03125 36.296875 671.761719 36.296875 C 675.492188 36.296875 678.519531 39.320312 678.519531 43.050781 "/>
<path style="fill-rule:nonzero;fill:rgb(18.431373%,30.980392%,30.980392%);fill-opacity:1;stroke-width:0.708661;stroke-linecap:round;stroke-linejoin:round;stroke:rgb(18.431373%,30.980392%,30.980392%);stroke-opacity:1;stroke-miterlimit:10;" d="M 685.566406 60.644531 C 685.566406 64.375 682.542969 67.402344 678.8125 67.402344 C 675.078125 67.402344 672.054688 64.375 672.054688 60.644531 C 672.054688 56.914062 675.078125 53.890625 678.8125 53.890625 C 682.542969 53.890625 685.566406 56.914062 685.566406 60.644531 "/>
<path style="fill-rule:nonzero;fill:rgb(18.431373%,30.980392%,30.980392%);fill-opacity:1;stroke-width:0.708661;stroke-linecap:round;stroke-linejoin:round;stroke:rgb(18.431373%,30.980392%,30.980392%);stroke-opacity:1;stroke-miterlimit:10;" d="M 692.617188 50.605469 C 692.617188 54.335938 689.589844 57.363281 685.859375 57.363281 C 682.128906 57.363281 679.105469 54.335938 679.105469 50.605469 C 679.105469 46.875 682.128906 43.847656 685.859375 43.847656 C 689.589844 43.847656 692.617188 46.875 692.617188 50.605469 "/>
<path style="fill-rule:nonzero;fill:rgb(18.431373%,30.980392%,30.980392%);fill-opacity:1;stroke-width:0.708661;stroke-linecap:round;stroke-linejoin:round;stroke:rgb(18.431373%,30.980392%,30.980392%);stroke-opacity:1;stroke-miterlimit:10;" d="M 699.664062 44.054688 C 699.664062 47.785156 696.640625 50.8125 692.910156 50.8125 C 689.179688 50.8125 686.152344 47.785156 686.152344 44.054688 C 686.152344 40.324219 689.179688 37.296875 692.910156 37.296875 C 696.640625 37.296875 699.664062 40.324219 699.664062 44.054688 "/>
<path style="fill-rule:nonzero;fill:rgb(18.431373%,30.980392%,30.980392%);fill-opacity:1;stroke-width:0.708661;stroke-linecap:round;stroke-linejoin:round;stroke:rgb(18.431373%,30.980392%,30.980392%);stroke-opacity:1;stroke-miterlimit:10;" d="M 706.714844 26.15625 C 706.714844 29.890625 703.691406 32.914062 699.957031 32.914062 C 696.226562 32.914062 693.203125 29.890625 693.203125 26.15625 C 693.203125 22.425781 696.226562 19.402344 699.957031 19.402344 C 703.691406 19.402344 706.714844 22.425781 706.714844 26.15625 "/>
<path style="fill-rule:nonzero;fill:rgb(18.431373%,30.980392%,30.980392%);fill-opacity:1;stroke-width:0.708661;stroke-linecap:round;stroke-linejoin:round;stroke:rgb(18.431373%,30.980392%,30.980392%);stroke-opacity:1;stroke-miterlimit:10;" d="M 713.765625 79.539062 C 713.765625 83.273438 710.738281 86.296875 707.007812 86.296875 C 703.277344 86.296875 700.25 83.273438 700.25 79.539062 C 700.25 75.808594 703.277344 72.785156 707.007812 72.785156 C 710.738281 72.785156 713.765625 75.808594 713.765625 79.539062 "/>
<path style="fill-rule:nonzero;fill:rgb(18.431373%,30.980392%,30.980392%);fill-opacity:1;stroke-width:0.708661;stroke-linecap:round;stroke-linejoin:round;stroke:rgb(18.431373%,30.980392%,30.980392%);stroke-opacity:1;stroke-miterlimit:10;" d="M 720.8125 62.367188 C 720.8125 66.101562 717.789062 69.125 714.058594 69.125 C 710.324219 69.125 707.300781 66.101562 707.300781 62.367188 C 707.300781 58.636719 710.324219 55.613281 714.058594 55.613281 C 717.789062 55.613281 720.8125 58.636719 720.8125 62.367188 "/>
<path style="fill-rule:nonzero;fill:rgb(18.431373%,30.980392%,30.980392%);fill-opacity:1;stroke-width:0.708661;stroke-linecap:round;stroke-linejoin:round;stroke:rgb(18.431373%,30.980392%,30.980392%);stroke-opacity:1;stroke-miterlimit:10;" d="M 727.863281 23.4375 C 727.863281 27.171875 724.835938 30.195312 721.105469 30.195312 C 717.375 30.195312 714.351562 27.171875 714.351562 23.4375 C 714.351562 19.707031 717.375 16.683594 721.105469 16.683594 C 724.835938 16.683594 727.863281 19.707031 727.863281 23.4375 "/>
<path style="fill:none;stroke-width:6.40187;stroke-linecap:butt;stroke-linejoin:round;stroke:rgb(94.117647%,50.196078%,50.196078%);stroke-opacity:1;stroke-miterlimit:10;" d="M 23.234375 466.785156 L 32.066406 461.363281 L 40.902344 455.945312 L 49.734375 450.523438 L 58.570312 445.101562 L 67.402344 439.679688 L 76.238281 434.257812 L 93.902344 423.414062 L 102.738281 417.992188 L 111.570312 412.570312 L 120.40625 407.148438 L 129.238281 401.730469 L 138.074219 396.308594 L 146.90625 390.886719 L 155.742188 385.464844 L 164.574219 380.042969 L 173.410156 374.621094 L 182.242188 369.199219 L 191.078125 363.777344 L 199.910156 358.355469 L 208.742188 352.9375 L 217.578125 347.515625 L 226.410156 342.09375 L 235.246094 336.671875 L 244.078125 331.25 L 252.914062 325.828125 L 261.746094 320.40625 L 270.582031 314.984375 L 279.414062 309.5625 L 288.25 304.140625 L 297.082031 298.722656 L 305.917969 293.300781 L 323.582031 282.457031 L 332.417969 277.035156 L 341.25 271.613281 L 350.085938 266.191406 L 358.917969 260.769531 L 367.753906 255.347656 L 376.585938 249.925781 L 385.421875 244.507812 L 394.253906 239.085938 L 403.089844 233.664062 L 411.921875 228.242188 L 420.757812 222.820312 L 438.421875 211.976562 L 447.257812 206.554688 L 456.089844 201.132812 L 464.925781 195.714844 L 473.757812 190.292969 L 482.59375 184.871094 L 491.425781 179.449219 L 500.261719 174.027344 L 509.09375 168.605469 L 517.929688 163.183594 L 526.761719 157.761719 L 535.597656 152.339844 L 544.429688 146.917969 L 553.261719 141.5 L 562.097656 136.078125 L 570.929688 130.65625 L 579.765625 125.234375 L 588.597656 119.8125 L 597.433594 114.390625 L 606.265625 108.96875 L 615.101562 103.546875 L 623.933594 98.125 L 632.769531 92.707031 L 641.601562 87.285156 L 650.4375 81.863281 L 668.101562 71.019531 L 676.9375 65.597656 L 685.769531 60.175781 L 694.605469 54.753906 L 703.4375 49.332031 L 712.273438 43.910156 L 721.105469 38.492188 "/>
</g>
</svg>
