<?xml version="1.0" encoding="UTF-8"?>
<svg xmlns="http://www.w3.org/2000/svg" xmlns:xlink="http://www.w3.org/1999/xlink" width="756pt" height="504pt" viewBox="0 0 756 504" version="1.1">
<g id="surface289">
<rect x="0" y="0" width="756" height="504" style="fill:rgb(100%,100%,100%);fill-opacity:1;stroke:none;"/>
<path style="fill-rule:nonzero;fill:rgb(18.431373%,30.980392%,30.980392%);fill-opacity:1;stroke-width:0.708661;stroke-linecap:round;stroke-linejoin:round;stroke:rgb(18.431373%,30.980392%,30.980392%);stroke-opacity:1;stroke-miterlimit:10;" d="M 29.988281 429.636719 C 29.988281 433.367188 26.964844 436.390625 23.234375 436.390625 C 19.503906 436.390625 16.476562 433.367188 16.476562 429.636719 C 16.476562 425.90625 19.503906 422.878906 23.234375 422.878906 C 26.964844 422.878906 29.988281 425.90625 29.988281 429.636719 "/>
<path style="fill-rule:nonzero;fill:rgb(18.431373%,30.980392%,30.980392%);fill-opacity:1;stroke-width:0.708661;stroke-linecap:round;stroke-linejoin:round;stroke:rgb(18.431373%,30.980392%,30.980392%);stroke-opacity:1;stroke-miterlimit:10;" d="M 37.039062 426.761719 C 37.039062 430.492188 34.015625 433.515625 30.28125 433.515625 C 26.550781 433.515625 23.527344 430.492188 23.527344 426.761719 C 23.527344 423.03125 26.550781 420.003906 30.28125 420.003906 C 34.015625 420.003906 37.039062 423.03125 37.039062 426.761719 "/>
<path style="fill-rule:nonzero;fill:rgb(18.431373%,30.980392%,30.980392%);fill-opacity:1;stroke-width:0.708661;stroke-linecap:round;stroke-linejoin:round;stroke:rgb(18.431373%,30.980392%,30.980392%);stroke-opacity:1;stroke-miterlimit:10;" d="M 44.089844 432.117188 C 44.089844 435.847656 41.0625 438.871094 37.332031 438.871094 C 33.601562 438.871094 30.574219 435.847656 30.574219 432.117188 C 30.574219 428.386719 33.601562 425.359375 37.332031 425.359375 C 41.0625 425.359375 44.089844 428.386719 44.089844 432.117188 "/>
<path style="fill-rule:nonzero;fill:rgb(18.431373%,30.980392%,30.980392%);fill-opacity:1;stroke-width:0.708661;stroke-linecap:round;stroke-linejoin:round;stroke:rgb(18.431373%,30.980392%,30.980392%);stroke-opacity:1;stroke-miterlimit:10;" d="M 51.136719 424.539062 C 51.136719 428.273438 48.113281 431.296875 44.382812 431.296875 C 40.648438 431.296875 37.625 428.273438 37.625 424.539062 C 37.625 420.808594 40.648438 417.785156 44.382812 417.785156 C 48.113281 417.785156 51.136719 420.808594 51.136719 424.539062 "/>
<path style="fill-rule:nonzero;fill:rgb(18.431373%,30.980392%,30.980392%);fill-opacity:1;stroke-width:0.708661;stroke-linecap:round;stroke-linejoin:round;stroke:rgb(18.431373%,30.980392%,30.980392%);stroke-opacity:1;stroke-miterlimit:10;" d="M 58.1875 420.609375 C 58.1875 424.34375 55.160156 427.367188 51.429688 427.367188 C 47.699219 427.367188 44.675781 424.34375 44.675781 420.609375 C 44.675781 416.878906 47.699219 413.855469 51.429688 413.855469 C 55.160156 413.855469 58.1875 416.878906 58.1875 420.609375 "/>
<path style="fill-rule:nonzero;fill:rgb(18.431373%,30.980392%,30.980392%);fill-opacity:1;stroke-width:0.708661;stroke-linecap:round;stroke-linejoin:round;stroke:rgb(18.431373%,30.980392%,30.980392%);stroke-opacity:1;stroke-miterlimit:10;" d="M 65.234375 426.40625 C 65.234375 430.136719 62.210938 433.160156 58.480469 433.160156 C 54.75 433.160156 51.722656 430.136719 51.722656 426.40625 C 51.722656 422.675781 54.75 419.648438 58.480469 419.648438 C 62.210938 419.648438 65.234375 422.675781 65.234375 426.40625 "/>
<path style="fill-rule:nonzero;fill:rgb(18.431373%,30.980392%,30.980392%);fill-opacity:1;stroke-width:0.708661;stroke-linecap:round;stroke-linejoin:round;stroke:rgb(18.431373%,30.980392%,30.980392%);stroke-opacity:1;stroke-miterlimit:10;" d="M 72.285156 427.527344 C 72.285156 431.257812 69.261719 434.285156 65.527344 434.285156 C 61.796875 434.285156 58.773438 431.257812 58.773438 427.527344 C 58.773438 423.796875 61.796875 420.773438 65.527344 420.773438 C 69.261719 420.773438 72.285156 423.796875 72.285156 427.527344 "/>
<path style="fill-rule:nonzero;fill:rgb(18.431373%,30.980392%,30.980392%);fill-opacity:1;stroke-width:0.708661;stroke-linecap:round;stroke-linejoin:round;stroke:rgb(18.431373%,30.980392%,30.980392%);stroke-opacity:1;stroke-miterlimit:10;" d="M 79.335938 427.082031 C 79.335938 430.8125 76.308594 433.839844 72.578125 433.839844 C 68.847656 433.839844 65.820312 430.8125 65.820312 427.082031 C 65.820312 423.351562 68.847656 420.324219 72.578125 420.324219 C 76.308594 420.324219 79.335938 423.351562 79.335938 427.082031 "/>
<path style="fill-rule:nonzero;fill:rgb(18.431373%,30.980392%,30.980392%);fill-opacity:1;stroke-width:0.708661;stroke-linecap:round;stroke-linejoin:round;stroke:rgb(18.431373%,30.980392%,30.980392%);stroke-opacity:1;stroke-miterlimit:10;" d="M 86.382812 417.128906 C 86.382812 420.859375 83.359375 423.886719 79.628906 423.886719 C 75.894531 423.886719 72.871094 420.859375 72.871094 417.128906 C 72.871094 413.398438 75.894531 410.375 79.628906 410.375 C 83.359375 410.375 86.382812 413.398438 86.382812 417.128906 "/>
<path style="fill-rule:nonzero;fill:rgb(18.431373%,30.980392%,30.980392%);fill-opacity:1;stroke-width:0.708661;stroke-linecap:round;stroke-linejoin:round;stroke:rgb(18.431373%,30.980392%,30.980392%);stroke-opacity:1;stroke-miterlimit:10;" d="M 93.433594 421.417969 C 93.433594 425.148438 90.40625 428.175781 86.675781 428.175781 C 82.945312 428.175781 79.921875 425.148438 79.921875 421.417969 C 79.921875 417.6875 82.945312 414.664062 86.675781 414.664062 C 90.40625 414.664062 93.433594 417.6875 93.433594 421.417969 "/>
<path style="fill-rule:nonzero;fill:rgb(18.431373%,30.980392%,30.980392%);fill-opacity:1;stroke-width:0.708661;stroke-linecap:round;stroke-linejoin:round;stroke:rgb(18.431373%,30.980392%,30.980392%);stroke-opacity:1;stroke-miterlimit:10;" d="M 100.480469 425.257812 C 100.480469 428.988281 97.457031 432.015625 93.726562 432.015625 C 89.996094 432.015625 86.96875 428.988281 86.96875 425.257812 C 86.96875 421.527344 89.996094 418.5 93.726562 418.5 C 97.457031 418.5 100.480469 421.527344 100.480469 425.257812 "/>
<path style="fill-rule:nonzero;fill:rgb(18.431373%,30.980392%,30.980392%);fill-opacity:1;stroke-width:0.708661;stroke-linecap:round;stroke-linejoin:round;stroke:rgb(18.431373%,30.980392%,30.980392%);stroke-opacity:1;stroke-miterlimit:10;" d="M 107.53125 421.402344 C 107.53125 425.132812 104.507812 428.160156 100.773438 428.160156 C 97.042969 428.160156 94.019531 425.132812 94.019531 421.402344 C 94.019531 417.671875 97.042969 414.648438 100.773438 414.648438 C 104.507812 414.648438 107.53125 417.671875 107.53125 421.402344 "/>
<path style="fill-rule:nonzero;fill:rgb(18.431373%,30.980392%,30.980392%);fill-opacity:1;stroke-width:0.708661;stroke-linecap:round;stroke-linejoin:round;stroke:rgb(18.431373%,30.980392%,30.980392%);stroke-opacity:1;stroke-miterlimit:10;" d="M 114.582031 420.527344 C 114.582031 424.257812 111.554688 427.285156 107.824219 427.285156 C 104.09375 427.285156 101.066406 424.257812 101.066406 420.527344 C 101.066406 416.796875 104.09375 413.769531 107.824219 413.769531 C 111.554688 413.769531 114.582031 416.796875 114.582031 420.527344 "/>
<path style="fill-rule:nonzero;fill:rgb(18.431373%,30.980392%,30.980392%);fill-opacity:1;stroke-width:0.708661;stroke-linecap:round;stroke-linejoin:round;stroke:rgb(18.431373%,30.980392%,30.980392%);stroke-opacity:1;stroke-miterlimit:10;" d="M 121.628906 414.25 C 121.628906 417.984375 118.605469 421.007812 114.875 421.007812 C 111.140625 421.007812 108.117188 417.984375 108.117188 414.25 C 108.117188 410.519531 111.140625 407.496094 114.875 407.496094 C 118.605469 407.496094 121.628906 410.519531 121.628906 414.25 "/>
<path style="fill-rule:nonzero;fill:rgb(18.431373%,30.980392%,30.980392%);fill-opacity:1;stroke-width:0.708661;stroke-linecap:round;stroke-linejoin:round;stroke:rgb(18.431373%,30.980392%,30.980392%);stroke-opacity:1;stroke-miterlimit:10;" d="M 128.679688 414.078125 C 128.679688 417.808594 125.652344 420.832031 121.921875 420.832031 C 118.191406 420.832031 115.167969 417.808594 115.167969 414.078125 C 115.167969 410.347656 118.191406 407.320312 121.921875 407.320312 C 125.652344 407.320312 128.679688 410.347656 128.679688 414.078125 "/>
<path style="fill-rule:nonzero;fill:rgb(18.431373%,30.980392%,30.980392%);fill-opacity:1;stroke-width:0.708661;stroke-linecap:round;stroke-linejoin:round;stroke:rgb(18.431373%,30.980392%,30.980392%);stroke-opacity:1;stroke-miterlimit:10;" d="M 135.726562 415.113281 C 135.726562 418.84375 132.703125 421.871094 128.972656 421.871094 C 125.242188 421.871094 122.214844 418.84375 122.214844 415.113281 C 122.214844 411.382812 125.242188 408.355469 128.972656 408.355469 C 132.703125 408.355469 135.726562 411.382812 135.726562 415.113281 "/>
<path style="fill-rule:nonzero;fill:rgb(18.431373%,30.980392%,30.980392%);fill-opacity:1;stroke-width:0.708661;stroke-linecap:round;stroke-linejoin:round;stroke:rgb(18.431373%,30.980392%,30.980392%);stroke-opacity:1;stroke-miterlimit:10;" d="M 142.777344 416.332031 C 142.777344 420.0625 139.753906 423.085938 136.019531 423.085938 C 132.289062 423.085938 129.265625 420.0625 129.265625 416.332031 C 129.265625 412.597656 132.289062 409.574219 136.019531 409.574219 C 139.753906 409.574219 142.777344 412.597656 142.777344 416.332031 "/>
<path style="fill-rule:nonzero;fill:rgb(18.431373%,30.980392%,30.980392%);fill-opacity:1;stroke-width:0.708661;stroke-linecap:round;stroke-linejoin:round;stroke:rgb(18.431373%,30.980392%,30.980392%);stroke-opacity:1;stroke-miterlimit:10;" d="M 149.828125 416.042969 C 149.828125 419.773438 146.800781 422.796875 143.070312 422.796875 C 139.339844 422.796875 136.3125 419.773438 136.3125 416.042969 C 136.3125 412.308594 139.339844 409.285156 143.070312 409.285156 C 146.800781 409.285156 149.828125 412.308594 149.828125 416.042969 "/>
<path style="fill-rule:nonzero;fill:rgb(18.431373%,30.980392%,30.980392%);fill-opacity:1;stroke-width:0.708661;stroke-linecap:round;stroke-linejoin:round;stroke:rgb(18.431373%,30.980392%,30.980392%);stroke-opacity:1;stroke-miterlimit:10;" d="M 156.875 419.511719 C 156.875 423.246094 153.851562 426.269531 150.121094 426.269531 C 146.386719 426.269531 143.363281 423.246094 143.363281 419.511719 C 143.363281 415.78125 146.386719 412.757812 150.121094 412.757812 C 153.851562 412.757812 156.875 415.78125 156.875 419.511719 "/>
<path style="fill-rule:nonzero;fill:rgb(18.431373%,30.980392%,30.980392%);fill-opacity:1;stroke-width:0.708661;stroke-linecap:round;stroke-linejoin:round;stroke:rgb(18.431373%,30.980392%,30.980392%);stroke-opacity:1;stroke-miterlimit:10;" d="M 163.925781 403.800781 C 163.925781 407.535156 160.898438 410.558594 157.167969 410.558594 C 153.4375 410.558594 150.414062 407.535156 150.414062 403.800781 C 150.414062 400.070312 153.4375 397.046875 157.167969 397.046875 C 160.898438 397.046875 163.925781 400.070312 163.925781 403.800781 "/>
<path style="fill-rule:nonzero;fill:rgb(18.431373%,30.980392%,30.980392%);fill-opacity:1;stroke-width:0.708661;stroke-linecap:round;stroke-linejoin:round;stroke:rgb(18.431373%,30.980392%,30.980392%);stroke-opacity:1;stroke-miterlimit:10;" d="M 170.972656 411.5625 C 170.972656 415.292969 167.949219 418.316406 164.21875 418.316406 C 160.488281 418.316406 157.460938 415.292969 157.460938 411.5625 C 157.460938 407.828125 160.488281 404.804688 164.21875 404.804688 C 167.949219 404.804688 170.972656 407.828125 170.972656 411.5625 "/>
<path style="fill-rule:nonzero;fill:rgb(18.431373%,30.980392%,30.980392%);fill-opacity:1;stroke-width:0.708661;stroke-linecap:round;stroke-linejoin:round;stroke:rgb(18.431373%,30.980392%,30.980392%);stroke-opacity:1;stroke-miterlimit:10;" d="M 178.023438 407.949219 C 178.023438 411.679688 175 414.703125 171.265625 414.703125 C 167.535156 414.703125 164.511719 411.679688 164.511719 407.949219 C 164.511719 404.214844 167.535156 401.191406 171.265625 401.191406 C 175 401.191406 178.023438 404.214844 178.023438 407.949219 "/>
<path style="fill-rule:nonzero;fill:rgb(18.431373%,30.980392%,30.980392%);fill-opacity:1;stroke-width:0.708661;stroke-linecap:round;stroke-linejoin:round;stroke:rgb(18.431373%,30.980392%,30.980392%);stroke-opacity:1;stroke-miterlimit:10;" d="M 185.074219 403.707031 C 185.074219 407.4375 182.046875 410.464844 178.316406 410.464844 C 174.585938 410.464844 171.558594 407.4375 171.558594 403.707031 C 171.558594 399.976562 174.585938 396.953125 178.316406 396.953125 C 182.046875 396.953125 185.074219 399.976562 185.074219 403.707031 "/>
<path style="fill-rule:nonzero;fill:rgb(18.431373%,30.980392%,30.980392%);fill-opacity:1;stroke-width:0.708661;stroke-linecap:round;stroke-linejoin:round;stroke:rgb(18.431373%,30.980392%,30.980392%);stroke-opacity:1;stroke-miterlimit:10;" d="M 192.121094 398.214844 C 192.121094 401.945312 189.097656 404.96875 185.367188 404.96875 C 181.632812 404.96875 178.609375 401.945312 178.609375 398.214844 C 178.609375 394.480469 181.632812 391.457031 185.367188 391.457031 C 189.097656 391.457031 192.121094 394.480469 192.121094 398.214844 "/>
<path style="fill-rule:nonzero;fill:rgb(18.431373%,30.980392%,30.980392%);fill-opacity:1;stroke-width:0.708661;stroke-linecap:round;stroke-linejoin:round;stroke:rgb(18.431373%,30.980392%,30.980392%);stroke-opacity:1;stroke-miterlimit:10;" d="M 199.171875 404.457031 C 199.171875 408.1875 196.144531 411.210938 192.414062 411.210938 C 188.683594 411.210938 185.660156 408.1875 185.660156 404.457031 C 185.660156 400.726562 188.683594 397.699219 192.414062 397.699219 C 196.144531 397.699219 199.171875 400.726562 199.171875 404.457031 "/>
<path style="fill-rule:nonzero;fill:rgb(18.431373%,30.980392%,30.980392%);fill-opacity:1;stroke-width:0.708661;stroke-linecap:round;stroke-linejoin:round;stroke:rgb(18.431373%,30.980392%,30.980392%);stroke-opacity:1;stroke-miterlimit:10;" d="M 206.21875 404.136719 C 206.21875 407.867188 203.195312 410.894531 199.464844 410.894531 C 195.734375 410.894531 192.707031 407.867188 192.707031 404.136719 C 192.707031 400.40625 195.734375 397.378906 199.464844 397.378906 C 203.195312 397.378906 206.21875 400.40625 206.21875 404.136719 "/>
<path style="fill-rule:nonzero;fill:rgb(18.431373%,30.980392%,30.980392%);fill-opacity:1;stroke-width:0.708661;stroke-linecap:round;stroke-linejoin:round;stroke:rgb(18.431373%,30.980392%,30.980392%);stroke-opacity:1;stroke-miterlimit:10;" d="M 213.269531 391.632812 C 213.269531 395.363281 210.246094 398.390625 206.511719 398.390625 C 202.78125 398.390625 199.757812 395.363281 199.757812 391.632812 C 199.757812 387.902344 202.78125 384.878906 206.511719 384.878906 C 210.246094 384.878906 213.269531 387.902344 213.269531 391.632812 "/>
<path style="fill-rule:nonzero;fill:rgb(18.431373%,30.980392%,30.980392%);fill-opacity:1;stroke-width:0.708661;stroke-linecap:round;stroke-linejoin:round;stroke:rgb(18.431373%,30.980392%,30.980392%);stroke-opacity:1;stroke-miterlimit:10;" d="M 220.320312 390.019531 C 220.320312 393.75 217.292969 396.773438 213.5625 396.773438 C 209.832031 396.773438 206.804688 393.75 206.804688 390.019531 C 206.804688 386.289062 209.832031 383.261719 213.5625 383.261719 C 217.292969 383.261719 220.320312 386.289062 220.320312 390.019531 "/>
<path style="fill-rule:nonzero;fill:rgb(18.431373%,30.980392%,30.980392%);fill-opacity:1;stroke-width:0.708661;stroke-linecap:round;stroke-linejoin:round;stroke:rgb(18.431373%,30.980392%,30.980392%);stroke-opacity:1;stroke-miterlimit:10;" d="M 227.367188 391.441406 C 227.367188 395.175781 224.34375 398.199219 220.613281 398.199219 C 216.878906 398.199219 213.855469 395.175781 213.855469 391.441406 C 213.855469 387.710938 216.878906 384.6875 220.613281 384.6875 C 224.34375 384.6875 227.367188 387.710938 227.367188 391.441406 "/>
<path style="fill-rule:nonzero;fill:rgb(18.431373%,30.980392%,30.980392%);fill-opacity:1;stroke-width:0.708661;stroke-linecap:round;stroke-linejoin:round;stroke:rgb(18.431373%,30.980392%,30.980392%);stroke-opacity:1;stroke-miterlimit:10;" d="M 234.417969 389.160156 C 234.417969 392.894531 231.390625 395.917969 227.660156 395.917969 C 223.929688 395.917969 220.90625 392.894531 220.90625 389.160156 C 220.90625 385.429688 223.929688 382.40625 227.660156 382.40625 C 231.390625 382.40625 234.417969 385.429688 234.417969 389.160156 "/>
<path style="fill-rule:nonzero;fill:rgb(18.431373%,30.980392%,30.980392%);fill-opacity:1;stroke-width:0.708661;stroke-linecap:round;stroke-linejoin:round;stroke:rgb(18.431373%,30.980392%,30.980392%);stroke-opacity:1;stroke-miterlimit:10;" d="M 241.464844 391.847656 C 241.464844 395.578125 238.441406 398.601562 234.710938 398.601562 C 230.980469 398.601562 227.953125 395.578125 227.953125 391.847656 C 227.953125 388.117188 230.980469 385.089844 234.710938 385.089844 C 238.441406 385.089844 241.464844 388.117188 241.464844 391.847656 "/>
<path style="fill-rule:nonzero;fill:rgb(18.431373%,30.980392%,30.980392%);fill-opacity:1;stroke-width:0.708661;stroke-linecap:round;stroke-linejoin:round;stroke:rgb(18.431373%,30.980392%,30.980392%);stroke-opacity:1;stroke-miterlimit:10;" d="M 248.515625 384.617188 C 248.515625 388.347656 245.492188 391.371094 241.757812 391.371094 C 238.027344 391.371094 235.003906 388.347656 235.003906 384.617188 C 235.003906 380.886719 238.027344 377.859375 241.757812 377.859375 C 245.492188 377.859375 248.515625 380.886719 248.515625 384.617188 "/>
<path style="fill-rule:nonzero;fill:rgb(18.431373%,30.980392%,30.980392%);fill-opacity:1;stroke-width:0.708661;stroke-linecap:round;stroke-linejoin:round;stroke:rgb(18.431373%,30.980392%,30.980392%);stroke-opacity:1;stroke-miterlimit:10;" d="M 255.566406 383.59375 C 255.566406 387.328125 252.539062 390.351562 248.808594 390.351562 C 245.078125 390.351562 242.050781 387.328125 242.050781 383.59375 C 242.050781 379.863281 245.078125 376.839844 248.808594 376.839844 C 252.539062 376.839844 255.566406 379.863281 255.566406 383.59375 "/>
<path style="fill-rule:nonzero;fill:rgb(18.431373%,30.980392%,30.980392%);fill-opacity:1;stroke-width:0.708661;stroke-linecap:round;stroke-linejoin:round;stroke:rgb(18.431373%,30.980392%,30.980392%);stroke-opacity:1;stroke-miterlimit:10;" d="M 262.613281 382.691406 C 262.613281 386.425781 259.589844 389.449219 255.859375 389.449219 C 252.125 389.449219 249.101562 386.425781 249.101562 382.691406 C 249.101562 378.960938 252.125 375.9375 255.859375 375.9375 C 259.589844 375.9375 262.613281 378.960938 262.613281 382.691406 "/>
<path style="fill-rule:nonzero;fill:rgb(18.431373%,30.980392%,30.980392%);fill-opacity:1;stroke-width:0.708661;stroke-linecap:round;stroke-linejoin:round;stroke:rgb(18.431373%,30.980392%,30.980392%);stroke-opacity:1;stroke-miterlimit:10;" d="M 269.664062 380.074219 C 269.664062 383.804688 266.636719 386.828125 262.90625 386.828125 C 259.175781 386.828125 256.152344 383.804688 256.152344 380.074219 C 256.152344 376.34375 259.175781 373.316406 262.90625 373.316406 C 266.636719 373.316406 269.664062 376.34375 269.664062 380.074219 "/>
<path style="fill-rule:nonzero;fill:rgb(18.431373%,30.980392%,30.980392%);fill-opacity:1;stroke-width:0.708661;stroke-linecap:round;stroke-linejoin:round;stroke:rgb(18.431373%,30.980392%,30.980392%);stroke-opacity:1;stroke-miterlimit:10;" d="M 276.710938 369.761719 C 276.710938 373.492188 273.6875 376.519531 269.957031 376.519531 C 266.226562 376.519531 263.199219 373.492188 263.199219 369.761719 C 263.199219 366.03125 266.226562 363.007812 269.957031 363.007812 C 273.6875 363.007812 276.710938 366.03125 276.710938 369.761719 "/>
<path style="fill-rule:nonzero;fill:rgb(18.431373%,30.980392%,30.980392%);fill-opacity:1;stroke-width:0.708661;stroke-linecap:round;stroke-linejoin:round;stroke:rgb(18.431373%,30.980392%,30.980392%);stroke-opacity:1;stroke-miterlimit:10;" d="M 283.761719 375.144531 C 283.761719 378.875 280.738281 381.898438 277.003906 381.898438 C 273.273438 381.898438 270.25 378.875 270.25 375.144531 C 270.25 371.414062 273.273438 368.386719 277.003906 368.386719 C 280.738281 368.386719 283.761719 371.414062 283.761719 375.144531 "/>
<path style="fill-rule:nonzero;fill:rgb(18.431373%,30.980392%,30.980392%);fill-opacity:1;stroke-width:0.708661;stroke-linecap:round;stroke-linejoin:round;stroke:rgb(18.431373%,30.980392%,30.980392%);stroke-opacity:1;stroke-miterlimit:10;" d="M 290.8125 369.964844 C 290.8125 373.695312 287.785156 376.71875 284.054688 376.71875 C 280.324219 376.71875 277.296875 373.695312 277.296875 369.964844 C 277.296875 366.234375 280.324219 363.207031 284.054688 363.207031 C 287.785156 363.207031 290.8125 366.234375 290.8125 369.964844 "/>
<path style="fill-rule:nonzero;fill:rgb(18.431373%,30.980392%,30.980392%);fill-opacity:1;stroke-width:0.708661;stroke-linecap:round;stroke-linejoin:round;stroke:rgb(18.431373%,30.980392%,30.980392%);stroke-opacity:1;stroke-miterlimit:10;" d="M 297.859375 357.667969 C 297.859375 361.398438 294.835938 364.421875 291.105469 364.421875 C 287.371094 364.421875 284.347656 361.398438 284.347656 357.667969 C 284.347656 353.933594 287.371094 350.910156 291.105469 350.910156 C 294.835938 350.910156 297.859375 353.933594 297.859375 357.667969 "/>
<path style="fill-rule:nonzero;fill:rgb(18.431373%,30.980392%,30.980392%);fill-opacity:1;stroke-width:0.708661;stroke-linecap:round;stroke-linejoin:round;stroke:rgb(18.431373%,30.980392%,30.980392%);stroke-opacity:1;stroke-miterlimit:10;" d="M 304.910156 364.375 C 304.910156 368.109375 301.882812 371.132812 298.152344 371.132812 C 294.421875 371.132812 291.398438 368.109375 291.398438 364.375 C 291.398438 360.644531 294.421875 357.621094 298.152344 357.621094 C 301.882812 357.621094 304.910156 360.644531 304.910156 364.375 "/>
<path style="fill-rule:nonzero;fill:rgb(18.431373%,30.980392%,30.980392%);fill-opacity:1;stroke-width:0.708661;stroke-linecap:round;stroke-linejoin:round;stroke:rgb(18.431373%,30.980392%,30.980392%);stroke-opacity:1;stroke-miterlimit:10;" d="M 311.957031 358.0625 C 311.957031 361.792969 308.933594 364.816406 305.203125 364.816406 C 301.472656 364.816406 298.445312 361.792969 298.445312 358.0625 C 298.445312 354.328125 301.472656 351.304688 305.203125 351.304688 C 308.933594 351.304688 311.957031 354.328125 311.957031 358.0625 "/>
<path style="fill-rule:nonzero;fill:rgb(18.431373%,30.980392%,30.980392%);fill-opacity:1;stroke-width:0.708661;stroke-linecap:round;stroke-linejoin:round;stroke:rgb(18.431373%,30.980392%,30.980392%);stroke-opacity:1;stroke-miterlimit:10;" d="M 319.007812 361.789062 C 319.007812 365.519531 315.984375 368.542969 312.25 368.542969 C 308.519531 368.542969 305.496094 365.519531 305.496094 361.789062 C 305.496094 358.054688 308.519531 355.03125 312.25 355.03125 C 315.984375 355.03125 319.007812 358.054688 319.007812 361.789062 "/>
<path style="fill-rule:nonzero;fill:rgb(18.431373%,30.980392%,30.980392%);fill-opacity:1;stroke-width:0.708661;stroke-linecap:round;stroke-linejoin:round;stroke:rgb(18.431373%,30.980392%,30.980392%);stroke-opacity:1;stroke-miterlimit:10;" d="M 326.058594 353.988281 C 326.058594 357.71875 323.03125 360.746094 319.300781 360.746094 C 315.570312 360.746094 312.542969 357.71875 312.542969 353.988281 C 312.542969 350.257812 315.570312 347.234375 319.300781 347.234375 C 323.03125 347.234375 326.058594 350.257812 326.058594 353.988281 "/>
<path style="fill-rule:nonzero;fill:rgb(18.431373%,30.980392%,30.980392%);fill-opacity:1;stroke-width:0.708661;stroke-linecap:round;stroke-linejoin:round;stroke:rgb(18.431373%,30.980392%,30.980392%);stroke-opacity:1;stroke-miterlimit:10;" d="M 333.105469 349.667969 C 333.105469 353.402344 330.082031 356.425781 326.351562 356.425781 C 322.617188 356.425781 319.59375 353.402344 319.59375 349.667969 C 319.59375 345.9375 322.617188 342.914062 326.351562 342.914062 C 330.082031 342.914062 333.105469 345.9375 333.105469 349.667969 "/>
<path style="fill-rule:nonzero;fill:rgb(18.431373%,30.980392%,30.980392%);fill-opacity:1;stroke-width:0.708661;stroke-linecap:round;stroke-linejoin:round;stroke:rgb(18.431373%,30.980392%,30.980392%);stroke-opacity:1;stroke-miterlimit:10;" d="M 340.15625 341.042969 C 340.15625 344.773438 337.128906 347.800781 333.398438 347.800781 C 329.667969 347.800781 326.644531 344.773438 326.644531 341.042969 C 326.644531 337.3125 329.667969 334.285156 333.398438 334.285156 C 337.128906 334.285156 340.15625 337.3125 340.15625 341.042969 "/>
<path style="fill-rule:nonzero;fill:rgb(18.431373%,30.980392%,30.980392%);fill-opacity:1;stroke-width:0.708661;stroke-linecap:round;stroke-linejoin:round;stroke:rgb(18.431373%,30.980392%,30.980392%);stroke-opacity:1;stroke-miterlimit:10;" d="M 347.203125 338.230469 C 347.203125 341.960938 344.179688 344.984375 340.449219 344.984375 C 336.71875 344.984375 333.691406 341.960938 333.691406 338.230469 C 333.691406 334.496094 336.71875 331.472656 340.449219 331.472656 C 344.179688 331.472656 347.203125 334.496094 347.203125 338.230469 "/>
<path style="fill-rule:nonzero;fill:rgb(18.431373%,30.980392%,30.980392%);fill-opacity:1;stroke-width:0.708661;stroke-linecap:round;stroke-linejoin:round;stroke:rgb(18.431373%,30.980392%,30.980392%);stroke-opacity:1;stroke-miterlimit:10;" d="M 354.253906 341.417969 C 354.253906 345.148438 351.230469 348.171875 347.496094 348.171875 C 343.765625 348.171875 340.742188 345.148438 340.742188 341.417969 C 340.742188 337.683594 343.765625 334.660156 347.496094 334.660156 C 351.230469 334.660156 354.253906 337.683594 354.253906 341.417969 "/>
<path style="fill-rule:nonzero;fill:rgb(18.431373%,30.980392%,30.980392%);fill-opacity:1;stroke-width:0.708661;stroke-linecap:round;stroke-linejoin:round;stroke:rgb(18.431373%,30.980392%,30.980392%);stroke-opacity:1;stroke-miterlimit:10;" d="M 361.304688 337.101562 C 361.304688 340.832031 358.277344 343.855469 354.546875 343.855469 C 350.816406 343.855469 347.789062 340.832031 347.789062 337.101562 C 347.789062 333.371094 350.816406 330.34375 354.546875 330.34375 C 358.277344 330.34375 361.304688 333.371094 361.304688 337.101562 "/>
<path style="fill-rule:nonzero;fill:rgb(18.431373%,30.980392%,30.980392%);fill-opacity:1;stroke-width:0.708661;stroke-linecap:round;stroke-linejoin:round;stroke:rgb(18.431373%,30.980392%,30.980392%);stroke-opacity:1;stroke-miterlimit:10;" d="M 368.351562 327.765625 C 368.351562 331.496094 365.328125 334.523438 361.597656 334.523438 C 357.863281 334.523438 354.839844 331.496094 354.839844 327.765625 C 354.839844 324.035156 357.863281 321.011719 361.597656 321.011719 C 365.328125 321.011719 368.351562 324.035156 368.351562 327.765625 "/>
<path style="fill-rule:nonzero;fill:rgb(18.431373%,30.980392%,30.980392%);fill-opacity:1;stroke-width:0.708661;stroke-linecap:round;stroke-linejoin:round;stroke:rgb(18.431373%,30.980392%,30.980392%);stroke-opacity:1;stroke-miterlimit:10;" d="M 375.402344 323.777344 C 375.402344 327.507812 372.375 330.53125 368.644531 330.53125 C 364.914062 330.53125 361.890625 327.507812 361.890625 323.777344 C 361.890625 320.046875 364.914062 317.019531 368.644531 317.019531 C 372.375 317.019531 375.402344 320.046875 375.402344 323.777344 "/>
<path style="fill-rule:nonzero;fill:rgb(18.431373%,30.980392%,30.980392%);fill-opacity:1;stroke-width:0.708661;stroke-linecap:round;stroke-linejoin:round;stroke:rgb(18.431373%,30.980392%,30.980392%);stroke-opacity:1;stroke-miterlimit:10;" d="M 382.449219 323.976562 C 382.449219 327.710938 379.425781 330.734375 375.695312 330.734375 C 371.964844 330.734375 368.9375 327.710938 368.9375 323.976562 C 368.9375 320.246094 371.964844 317.222656 375.695312 317.222656 C 379.425781 317.222656 382.449219 320.246094 382.449219 323.976562 "/>
<path style="fill-rule:nonzero;fill:rgb(18.431373%,30.980392%,30.980392%);fill-opacity:1;stroke-width:0.708661;stroke-linecap:round;stroke-linejoin:round;stroke:rgb(18.431373%,30.980392%,30.980392%);stroke-opacity:1;stroke-miterlimit:10;" d="M 389.5 317.730469 C 389.5 321.460938 386.476562 324.484375 382.742188 324.484375 C 379.011719 324.484375 375.988281 321.460938 375.988281 317.730469 C 375.988281 314 379.011719 310.972656 382.742188 310.972656 C 386.476562 310.972656 389.5 314 389.5 317.730469 "/>
<path style="fill-rule:nonzero;fill:rgb(18.431373%,30.980392%,30.980392%);fill-opacity:1;stroke-width:0.708661;stroke-linecap:round;stroke-linejoin:round;stroke:rgb(18.431373%,30.980392%,30.980392%);stroke-opacity:1;stroke-miterlimit:10;" d="M 396.550781 312.960938 C 396.550781 316.691406 393.523438 319.714844 389.792969 319.714844 C 386.0625 319.714844 383.035156 316.691406 383.035156 312.960938 C 383.035156 309.226562 386.0625 306.203125 389.792969 306.203125 C 393.523438 306.203125 396.550781 309.226562 396.550781 312.960938 "/>
<path style="fill-rule:nonzero;fill:rgb(18.431373%,30.980392%,30.980392%);fill-opacity:1;stroke-width:0.708661;stroke-linecap:round;stroke-linejoin:round;stroke:rgb(18.431373%,30.980392%,30.980392%);stroke-opacity:1;stroke-miterlimit:10;" d="M 403.597656 303.039062 C 403.597656 306.769531 400.574219 309.796875 396.84375 309.796875 C 393.109375 309.796875 390.085938 306.769531 390.085938 303.039062 C 390.085938 299.308594 393.109375 296.285156 396.84375 296.285156 C 400.574219 296.285156 403.597656 299.308594 403.597656 303.039062 "/>
<path style="fill-rule:nonzero;fill:rgb(18.431373%,30.980392%,30.980392%);fill-opacity:1;stroke-width:0.708661;stroke-linecap:round;stroke-linejoin:round;stroke:rgb(18.431373%,30.980392%,30.980392%);stroke-opacity:1;stroke-miterlimit:10;" d="M 410.648438 304.996094 C 410.648438 308.726562 407.621094 311.753906 403.890625 311.753906 C 400.160156 311.753906 397.136719 308.726562 397.136719 304.996094 C 397.136719 301.265625 400.160156 298.242188 403.890625 298.242188 C 407.621094 298.242188 410.648438 301.265625 410.648438 304.996094 "/>
<path style="fill-rule:nonzero;fill:rgb(18.431373%,30.980392%,30.980392%);fill-opacity:1;stroke-width:0.708661;stroke-linecap:round;stroke-linejoin:round;stroke:rgb(18.431373%,30.980392%,30.980392%);stroke-opacity:1;stroke-miterlimit:10;" d="M 417.695312 295.636719 C 417.695312 299.367188 414.671875 302.394531 410.941406 302.394531 C 407.210938 302.394531 404.183594 299.367188 404.183594 295.636719 C 404.183594 291.90625 407.210938 288.878906 410.941406 288.878906 C 414.671875 288.878906 417.695312 291.90625 417.695312 295.636719 "/>
<path style="fill-rule:nonzero;fill:rgb(18.431373%,30.980392%,30.980392%);fill-opacity:1;stroke-width:0.708661;stroke-linecap:round;stroke-linejoin:round;stroke:rgb(18.431373%,30.980392%,30.980392%);stroke-opacity:1;stroke-miterlimit:10;" d="M 424.746094 300.046875 C 424.746094 303.78125 421.722656 306.804688 417.988281 306.804688 C 414.257812 306.804688 411.234375 303.78125 411.234375 300.046875 C 411.234375 296.316406 414.257812 293.292969 417.988281 293.292969 C 421.722656 293.292969 424.746094 296.316406 424.746094 300.046875 "/>
<path style="fill-rule:nonzero;fill:rgb(18.431373%,30.980392%,30.980392%);fill-opacity:1;stroke-width:0.708661;stroke-linecap:round;stroke-linejoin:round;stroke:rgb(18.431373%,30.980392%,30.980392%);stroke-opacity:1;stroke-miterlimit:10;" d="M 431.796875 282.589844 C 431.796875 286.324219 428.769531 289.347656 425.039062 289.347656 C 421.308594 289.347656 418.28125 286.324219 418.28125 282.589844 C 418.28125 278.859375 421.308594 275.835938 425.039062 275.835938 C 428.769531 275.835938 431.796875 278.859375 431.796875 282.589844 "/>
<path style="fill-rule:nonzero;fill:rgb(18.431373%,30.980392%,30.980392%);fill-opacity:1;stroke-width:0.708661;stroke-linecap:round;stroke-linejoin:round;stroke:rgb(18.431373%,30.980392%,30.980392%);stroke-opacity:1;stroke-miterlimit:10;" d="M 438.84375 279.035156 C 438.84375 282.765625 435.820312 285.792969 432.089844 285.792969 C 428.355469 285.792969 425.332031 282.765625 425.332031 279.035156 C 425.332031 275.304688 428.355469 272.277344 432.089844 272.277344 C 435.820312 272.277344 438.84375 275.304688 438.84375 279.035156 "/>
<path style="fill-rule:nonzero;fill:rgb(18.431373%,30.980392%,30.980392%);fill-opacity:1;stroke-width:0.708661;stroke-linecap:round;stroke-linejoin:round;stroke:rgb(18.431373%,30.980392%,30.980392%);stroke-opacity:1;stroke-miterlimit:10;" d="M 445.894531 274.199219 C 445.894531 277.933594 442.867188 280.957031 439.136719 280.957031 C 435.40625 280.957031 432.382812 277.933594 432.382812 274.199219 C 432.382812 270.46875 435.40625 267.445312 439.136719 267.445312 C 442.867188 267.445312 445.894531 270.46875 445.894531 274.199219 "/>
<path style="fill-rule:nonzero;fill:rgb(18.431373%,30.980392%,30.980392%);fill-opacity:1;stroke-width:0.708661;stroke-linecap:round;stroke-linejoin:round;stroke:rgb(18.431373%,30.980392%,30.980392%);stroke-opacity:1;stroke-miterlimit:10;" d="M 452.941406 271.28125 C 452.941406 275.011719 449.917969 278.035156 446.1875 278.035156 C 442.457031 278.035156 439.429688 275.011719 439.429688 271.28125 C 439.429688 267.550781 442.457031 264.523438 446.1875 264.523438 C 449.917969 264.523438 452.941406 267.550781 452.941406 271.28125 "/>
<path style="fill-rule:nonzero;fill:rgb(18.431373%,30.980392%,30.980392%);fill-opacity:1;stroke-width:0.708661;stroke-linecap:round;stroke-linejoin:round;stroke:rgb(18.431373%,30.980392%,30.980392%);stroke-opacity:1;stroke-miterlimit:10;" d="M 459.992188 269.835938 C 459.992188 273.570312 456.96875 276.59375 453.234375 276.59375 C 449.503906 276.59375 446.480469 273.570312 446.480469 269.835938 C 446.480469 266.105469 449.503906 263.082031 453.234375 263.082031 C 456.96875 263.082031 459.992188 266.105469 459.992188 269.835938 "/>
<path style="fill-rule:nonzero;fill:rgb(18.431373%,30.980392%,30.980392%);fill-opacity:1;stroke-width:0.708661;stroke-linecap:round;stroke-linejoin:round;stroke:rgb(18.431373%,30.980392%,30.980392%);stroke-opacity:1;stroke-miterlimit:10;" d="M 467.042969 267.183594 C 467.042969 270.914062 464.015625 273.9375 460.285156 273.9375 C 456.554688 273.9375 453.527344 270.914062 453.527344 267.183594 C 453.527344 263.453125 456.554688 260.425781 460.285156 260.425781 C 464.015625 260.425781 467.042969 263.453125 467.042969 267.183594 "/>
<path style="fill-rule:nonzero;fill:rgb(18.431373%,30.980392%,30.980392%);fill-opacity:1;stroke-width:0.708661;stroke-linecap:round;stroke-linejoin:round;stroke:rgb(18.431373%,30.980392%,30.980392%);stroke-opacity:1;stroke-miterlimit:10;" d="M 474.089844 261.484375 C 474.089844 265.21875 471.066406 268.242188 467.335938 268.242188 C 463.601562 268.242188 460.578125 265.21875 460.578125 261.484375 C 460.578125 257.753906 463.601562 254.730469 467.335938 254.730469 C 471.066406 254.730469 474.089844 257.753906 474.089844 261.484375 "/>
<path style="fill-rule:nonzero;fill:rgb(18.431373%,30.980392%,30.980392%);fill-opacity:1;stroke-width:0.708661;stroke-linecap:round;stroke-linejoin:round;stroke:rgb(18.431373%,30.980392%,30.980392%);stroke-opacity:1;stroke-miterlimit:10;" d="M 481.140625 258.238281 C 481.140625 261.972656 478.113281 264.996094 474.382812 264.996094 C 470.652344 264.996094 467.628906 261.972656 467.628906 258.238281 C 467.628906 254.507812 470.652344 251.484375 474.382812 251.484375 C 478.113281 251.484375 481.140625 254.507812 481.140625 258.238281 "/>
<path style="fill-rule:nonzero;fill:rgb(18.431373%,30.980392%,30.980392%);fill-opacity:1;stroke-width:0.708661;stroke-linecap:round;stroke-linejoin:round;stroke:rgb(18.431373%,30.980392%,30.980392%);stroke-opacity:1;stroke-miterlimit:10;" d="M 488.1875 248.605469 C 488.1875 252.339844 485.164062 255.363281 481.433594 255.363281 C 477.703125 255.363281 474.675781 252.339844 474.675781 248.605469 C 474.675781 244.875 477.703125 241.851562 481.433594 241.851562 C 485.164062 241.851562 488.1875 244.875 488.1875 248.605469 "/>
<path style="fill-rule:nonzero;fill:rgb(18.431373%,30.980392%,30.980392%);fill-opacity:1;stroke-width:0.708661;stroke-linecap:round;stroke-linejoin:round;stroke:rgb(18.431373%,30.980392%,30.980392%);stroke-opacity:1;stroke-miterlimit:10;" d="M 495.238281 245.792969 C 495.238281 249.527344 492.214844 252.550781 488.480469 252.550781 C 484.75 252.550781 481.726562 249.527344 481.726562 245.792969 C 481.726562 242.0625 484.75 239.039062 488.480469 239.039062 C 492.214844 239.039062 495.238281 242.0625 495.238281 245.792969 "/>
<path style="fill-rule:nonzero;fill:rgb(18.431373%,30.980392%,30.980392%);fill-opacity:1;stroke-width:0.708661;stroke-linecap:round;stroke-linejoin:round;stroke:rgb(18.431373%,30.980392%,30.980392%);stroke-opacity:1;stroke-miterlimit:10;" d="M 502.289062 245.125 C 502.289062 248.855469 499.261719 251.878906 495.53125 251.878906 C 491.800781 251.878906 488.773438 248.855469 488.773438 245.125 C 488.773438 241.394531 491.800781 238.367188 495.53125 238.367188 C 499.261719 238.367188 502.289062 241.394531 502.289062 245.125 "/>
<path style="fill-rule:nonzero;fill:rgb(18.431373%,30.980392%,30.980392%);fill-opacity:1;stroke-width:0.708661;stroke-linecap:round;stroke-linejoin:round;stroke:rgb(18.431373%,30.980392%,30.980392%);stroke-opacity:1;stroke-miterlimit:10;" d="M 509.335938 238.808594 C 509.335938 242.539062 506.3125 245.5625 502.582031 245.5625 C 498.847656 245.5625 495.824219 242.539062 495.824219 238.808594 C 495.824219 235.074219 498.847656 232.050781 502.582031 232.050781 C 506.3125 232.050781 509.335938 235.074219 509.335938 238.808594 "/>
<path style="fill-rule:nonzero;fill:rgb(18.431373%,30.980392%,30.980392%);fill-opacity:1;stroke-width:0.708661;stroke-linecap:round;stroke-linejoin:round;stroke:rgb(18.431373%,30.980392%,30.980392%);stroke-opacity:1;stroke-miterlimit:10;" d="M 516.386719 229.605469 C 516.386719 233.339844 513.359375 236.363281 509.628906 236.363281 C 505.898438 236.363281 502.875 233.339844 502.875 229.605469 C 502.875 225.875 505.898438 222.851562 509.628906 222.851562 C 513.359375 222.851562 516.386719 225.875 516.386719 229.605469 "/>
<path style="fill-rule:nonzero;fill:rgb(18.431373%,30.980392%,30.980392%);fill-opacity:1;stroke-width:0.708661;stroke-linecap:round;stroke-linejoin:round;stroke:rgb(18.431373%,30.980392%,30.980392%);stroke-opacity:1;stroke-miterlimit:10;" d="M 523.433594 213.355469 C 523.433594 217.085938 520.410156 220.113281 516.679688 220.113281 C 512.949219 220.113281 509.921875 217.085938 509.921875 213.355469 C 509.921875 209.625 512.949219 206.601562 516.679688 206.601562 C 520.410156 206.601562 523.433594 209.625 523.433594 213.355469 "/>
<path style="fill-rule:nonzero;fill:rgb(18.431373%,30.980392%,30.980392%);fill-opacity:1;stroke-width:0.708661;stroke-linecap:round;stroke-linejoin:round;stroke:rgb(18.431373%,30.980392%,30.980392%);stroke-opacity:1;stroke-miterlimit:10;" d="M 530.484375 218.769531 C 530.484375 222.5 527.460938 225.527344 523.726562 225.527344 C 519.996094 225.527344 516.972656 222.5 516.972656 218.769531 C 516.972656 215.039062 519.996094 212.015625 523.726562 212.015625 C 527.460938 212.015625 530.484375 215.039062 530.484375 218.769531 "/>
<path style="fill-rule:nonzero;fill:rgb(18.431373%,30.980392%,30.980392%);fill-opacity:1;stroke-width:0.708661;stroke-linecap:round;stroke-linejoin:round;stroke:rgb(18.431373%,30.980392%,30.980392%);stroke-opacity:1;stroke-miterlimit:10;" d="M 537.535156 210.210938 C 537.535156 213.945312 534.507812 216.96875 530.777344 216.96875 C 527.046875 216.96875 524.019531 213.945312 524.019531 210.210938 C 524.019531 206.480469 527.046875 203.457031 530.777344 203.457031 C 534.507812 203.457031 537.535156 206.480469 537.535156 210.210938 "/>
<path style="fill-rule:nonzero;fill:rgb(18.431373%,30.980392%,30.980392%);fill-opacity:1;stroke-width:0.708661;stroke-linecap:round;stroke-linejoin:round;stroke:rgb(18.431373%,30.980392%,30.980392%);stroke-opacity:1;stroke-miterlimit:10;" d="M 544.582031 209.703125 C 544.582031 213.433594 541.558594 216.457031 537.828125 216.457031 C 534.09375 216.457031 531.070312 213.433594 531.070312 209.703125 C 531.070312 205.96875 534.09375 202.945312 537.828125 202.945312 C 541.558594 202.945312 544.582031 205.96875 544.582031 209.703125 "/>
<path style="fill-rule:nonzero;fill:rgb(18.431373%,30.980392%,30.980392%);fill-opacity:1;stroke-width:0.708661;stroke-linecap:round;stroke-linejoin:round;stroke:rgb(18.431373%,30.980392%,30.980392%);stroke-opacity:1;stroke-miterlimit:10;" d="M 551.632812 194.273438 C 551.632812 198.003906 548.605469 201.03125 544.875 201.03125 C 541.144531 201.03125 538.121094 198.003906 538.121094 194.273438 C 538.121094 190.542969 541.144531 187.515625 544.875 187.515625 C 548.605469 187.515625 551.632812 190.542969 551.632812 194.273438 "/>
<path style="fill-rule:nonzero;fill:rgb(18.431373%,30.980392%,30.980392%);fill-opacity:1;stroke-width:0.708661;stroke-linecap:round;stroke-linejoin:round;stroke:rgb(18.431373%,30.980392%,30.980392%);stroke-opacity:1;stroke-miterlimit:10;" d="M 558.679688 193.921875 C 558.679688 197.652344 555.65625 200.679688 551.925781 200.679688 C 548.195312 200.679688 545.167969 197.652344 545.167969 193.921875 C 545.167969 190.191406 548.195312 187.164062 551.925781 187.164062 C 555.65625 187.164062 558.679688 190.191406 558.679688 193.921875 "/>
<path style="fill-rule:nonzero;fill:rgb(18.431373%,30.980392%,30.980392%);fill-opacity:1;stroke-width:0.708661;stroke-linecap:round;stroke-linejoin:round;stroke:rgb(18.431373%,30.980392%,30.980392%);stroke-opacity:1;stroke-miterlimit:10;" d="M 565.730469 189.242188 C 565.730469 192.976562 562.707031 196 558.972656 196 C 555.242188 196 552.21875 192.976562 552.21875 189.242188 C 552.21875 185.511719 555.242188 182.488281 558.972656 182.488281 C 562.707031 182.488281 565.730469 185.511719 565.730469 189.242188 "/>
<path style="fill-rule:nonzero;fill:rgb(18.431373%,30.980392%,30.980392%);fill-opacity:1;stroke-width:0.708661;stroke-linecap:round;stroke-linejoin:round;stroke:rgb(18.431373%,30.980392%,30.980392%);stroke-opacity:1;stroke-miterlimit:10;" d="M 572.78125 185.644531 C 572.78125 189.375 569.753906 192.402344 566.023438 192.402344 C 562.292969 192.402344 559.265625 189.375 559.265625 185.644531 C 559.265625 181.914062 562.292969 178.886719 566.023438 178.886719 C 569.753906 178.886719 572.78125 181.914062 572.78125 185.644531 "/>
<path style="fill-rule:nonzero;fill:rgb(18.431373%,30.980392%,30.980392%);fill-opacity:1;stroke-width:0.708661;stroke-linecap:round;stroke-linejoin:round;stroke:rgb(18.431373%,30.980392%,30.980392%);stroke-opacity:1;stroke-miterlimit:10;" d="M 579.828125 165.480469 C 579.828125 169.210938 576.804688 172.234375 573.074219 172.234375 C 569.339844 172.234375 566.316406 169.210938 566.316406 165.480469 C 566.316406 161.746094 569.339844 158.722656 573.074219 158.722656 C 576.804688 158.722656 579.828125 161.746094 579.828125 165.480469 "/>
<path style="fill-rule:nonzero;fill:rgb(18.431373%,30.980392%,30.980392%);fill-opacity:1;stroke-width:0.708661;stroke-linecap:round;stroke-linejoin:round;stroke:rgb(18.431373%,30.980392%,30.980392%);stroke-opacity:1;stroke-miterlimit:10;" d="M 586.878906 158.046875 C 586.878906 161.777344 583.851562 164.800781 580.121094 164.800781 C 576.390625 164.800781 573.367188 161.777344 573.367188 158.046875 C 573.367188 154.316406 576.390625 151.289062 580.121094 151.289062 C 583.851562 151.289062 586.878906 154.316406 586.878906 158.046875 "/>
<path style="fill-rule:nonzero;fill:rgb(18.431373%,30.980392%,30.980392%);fill-opacity:1;stroke-width:0.708661;stroke-linecap:round;stroke-linejoin:round;stroke:rgb(18.431373%,30.980392%,30.980392%);stroke-opacity:1;stroke-miterlimit:10;" d="M 593.925781 163.648438 C 593.925781 167.378906 590.902344 170.40625 587.171875 170.40625 C 583.441406 170.40625 580.414062 167.378906 580.414062 163.648438 C 580.414062 159.917969 583.441406 156.890625 587.171875 156.890625 C 590.902344 156.890625 593.925781 159.917969 593.925781 163.648438 "/>
<path style="fill-rule:nonzero;fill:rgb(18.431373%,30.980392%,30.980392%);fill-opacity:1;stroke-width:0.708661;stroke-linecap:round;stroke-linejoin:round;stroke:rgb(18.431373%,30.980392%,30.980392%);stroke-opacity:1;stroke-miterlimit:10;" d="M 600.976562 156.726562 C 600.976562 160.457031 597.953125 163.480469 594.21875 163.480469 C 590.488281 163.480469 587.464844 160.457031 587.464844 156.726562 C 587.464844 152.992188 590.488281 149.96875 594.21875 149.96875 C 597.953125 149.96875 600.976562 152.992188 600.976562 156.726562 "/>
<path style="fill-rule:nonzero;fill:rgb(18.431373%,30.980392%,30.980392%);fill-opacity:1;stroke-width:0.708661;stroke-linecap:round;stroke-linejoin:round;stroke:rgb(18.431373%,30.980392%,30.980392%);stroke-opacity:1;stroke-miterlimit:10;" d="M 608.027344 139.171875 C 608.027344 142.902344 605 145.929688 601.269531 145.929688 C 597.539062 145.929688 594.511719 142.902344 594.511719 139.171875 C 594.511719 135.441406 597.539062 132.417969 601.269531 132.417969 C 605 132.417969 608.027344 135.441406 608.027344 139.171875 "/>
<path style="fill-rule:nonzero;fill:rgb(18.431373%,30.980392%,30.980392%);fill-opacity:1;stroke-width:0.708661;stroke-linecap:round;stroke-linejoin:round;stroke:rgb(18.431373%,30.980392%,30.980392%);stroke-opacity:1;stroke-miterlimit:10;" d="M 615.074219 135.894531 C 615.074219 139.625 612.050781 142.652344 608.320312 142.652344 C 604.585938 142.652344 601.5625 139.625 601.5625 135.894531 C 601.5625 132.164062 604.585938 129.140625 608.320312 129.140625 C 612.050781 129.140625 615.074219 132.164062 615.074219 135.894531 "/>
<path style="fill-rule:nonzero;fill:rgb(18.431373%,30.980392%,30.980392%);fill-opacity:1;stroke-width:0.708661;stroke-linecap:round;stroke-linejoin:round;stroke:rgb(18.431373%,30.980392%,30.980392%);stroke-opacity:1;stroke-miterlimit:10;" d="M 622.125 133.058594 C 622.125 136.792969 619.097656 139.816406 615.367188 139.816406 C 611.636719 139.816406 608.613281 136.792969 608.613281 133.058594 C 608.613281 129.328125 611.636719 126.304688 615.367188 126.304688 C 619.097656 126.304688 622.125 129.328125 622.125 133.058594 "/>
<path style="fill-rule:nonzero;fill:rgb(18.431373%,30.980392%,30.980392%);fill-opacity:1;stroke-width:0.708661;stroke-linecap:round;stroke-linejoin:round;stroke:rgb(18.431373%,30.980392%,30.980392%);stroke-opacity:1;stroke-miterlimit:10;" d="M 629.171875 129.476562 C 629.171875 133.207031 626.148438 136.230469 622.417969 136.230469 C 618.6875 136.230469 615.660156 133.207031 615.660156 129.476562 C 615.660156 125.746094 618.6875 122.71875 622.417969 122.71875 C 626.148438 122.71875 629.171875 125.746094 629.171875 129.476562 "/>
<path style="fill-rule:nonzero;fill:rgb(18.431373%,30.980392%,30.980392%);fill-opacity:1;stroke-width:0.708661;stroke-linecap:round;stroke-linejoin:round;stroke:rgb(18.431373%,30.980392%,30.980392%);stroke-opacity:1;stroke-miterlimit:10;" d="M 636.222656 118.175781 C 636.222656 121.90625 633.199219 124.933594 629.464844 124.933594 C 625.734375 124.933594 622.710938 121.90625 622.710938 118.175781 C 622.710938 114.445312 625.734375 111.421875 629.464844 111.421875 C 633.199219 111.421875 636.222656 114.445312 636.222656 118.175781 "/>
<path style="fill-rule:nonzero;fill:rgb(18.431373%,30.980392%,30.980392%);fill-opacity:1;stroke-width:0.708661;stroke-linecap:round;stroke-linejoin:round;stroke:rgb(18.431373%,30.980392%,30.980392%);stroke-opacity:1;stroke-miterlimit:10;" d="M 643.273438 113.867188 C 643.273438 117.601562 640.246094 120.625 636.515625 120.625 C 632.785156 120.625 629.757812 117.601562 629.757812 113.867188 C 629.757812 110.136719 632.785156 107.113281 636.515625 107.113281 C 640.246094 107.113281 643.273438 110.136719 643.273438 113.867188 "/>
<path style="fill-rule:nonzero;fill:rgb(18.431373%,30.980392%,30.980392%);fill-opacity:1;stroke-width:0.708661;stroke-linecap:round;stroke-linejoin:round;stroke:rgb(18.431373%,30.980392%,30.980392%);stroke-opacity:1;stroke-miterlimit:10;" d="M 650.320312 108.851562 C 650.320312 112.582031 647.296875 115.609375 643.566406 115.609375 C 639.832031 115.609375 636.808594 112.582031 636.808594 108.851562 C 636.808594 105.121094 639.832031 102.097656 643.566406 102.097656 C 647.296875 102.097656 650.320312 105.121094 650.320312 108.851562 "/>
<path style="fill-rule:nonzero;fill:rgb(18.431373%,30.980392%,30.980392%);fill-opacity:1;stroke-width:0.708661;stroke-linecap:round;stroke-linejoin:round;stroke:rgb(18.431373%,30.980392%,30.980392%);stroke-opacity:1;stroke-miterlimit:10;" d="M 657.371094 98 C 657.371094 101.730469 654.34375 104.753906 650.613281 104.753906 C 646.882812 104.753906 643.859375 101.730469 643.859375 98 C 643.859375 94.269531 646.882812 91.242188 650.613281 91.242188 C 654.34375 91.242188 657.371094 94.269531 657.371094 98 "/>
<path style="fill-rule:nonzero;fill:rgb(18.431373%,30.980392%,30.980392%);fill-opacity:1;stroke-width:0.708661;stroke-linecap:round;stroke-linejoin:round;stroke:rgb(18.431373%,30.980392%,30.980392%);stroke-opacity:1;stroke-miterlimit:10;" d="M 664.417969 90.074219 C 664.417969 93.804688 661.394531 96.832031 657.664062 96.832031 C 653.933594 96.832031 650.90625 93.804688 650.90625 90.074219 C 650.90625 86.34375 653.933594 83.316406 657.664062 83.316406 C 661.394531 83.316406 664.417969 86.34375 664.417969 90.074219 "/>
<path style="fill-rule:nonzero;fill:rgb(18.431373%,30.980392%,30.980392%);fill-opacity:1;stroke-width:0.708661;stroke-linecap:round;stroke-linejoin:round;stroke:rgb(18.431373%,30.980392%,30.980392%);stroke-opacity:1;stroke-miterlimit:10;" d="M 671.46875 80.96875 C 671.46875 84.699219 668.445312 87.726562 664.710938 87.726562 C 660.980469 87.726562 657.957031 84.699219 657.957031 80.96875 C 657.957031 77.238281 660.980469 74.214844 664.710938 74.214844 C 668.445312 74.214844 671.46875 77.238281 671.46875 80.96875 "/>
<path style="fill-rule:nonzero;fill:rgb(18.431373%,30.980392%,30.980392%);fill-opacity:1;stroke-width:0.708661;stroke-linecap:round;stroke-linejoin:round;stroke:rgb(18.431373%,30.980392%,30.980392%);stroke-opacity:1;stroke-miterlimit:10;" d="M 678.519531 80.910156 C 678.519531 84.640625 675.492188 87.667969 671.761719 87.667969 C 668.03125 87.667969 665.003906 84.640625 665.003906 80.910156 C 665.003906 77.179688 668.03125 74.15625 671.761719 74.15625 C 675.492188 74.15625 678.519531 77.179688 678.519531 80.910156 "/>
<path style="fill-rule:nonzero;fill:rgb(18.431373%,30.980392%,30.980392%);fill-opacity:1;stroke-width:0.708661;stroke-linecap:round;stroke-linejoin:round;stroke:rgb(18.431373%,30.980392%,30.980392%);stroke-opacity:1;stroke-miterlimit:10;" d="M 685.566406 61.320312 C 685.566406 65.050781 682.542969 68.074219 678.8125 68.074219 C 675.078125 68.074219 672.054688 65.050781 672.054688 61.320312 C 672.054688 57.589844 675.078125 54.5625 678.8125 54.5625 C 682.542969 54.5625 685.566406 57.589844 685.566406 61.320312 "/>
<path style="fill-rule:nonzero;fill:rgb(18.431373%,30.980392%,30.980392%);fill-opacity:1;stroke-width:0.708661;stroke-linecap:round;stroke-linejoin:round;stroke:rgb(18.431373%,30.980392%,30.980392%);stroke-opacity:1;stroke-miterlimit:10;" d="M 692.617188 61.953125 C 692.617188 65.6875 689.589844 68.710938 685.859375 68.710938 C 682.128906 68.710938 679.105469 65.6875 679.105469 61.953125 C 679.105469 58.222656 682.128906 55.199219 685.859375 55.199219 C 689.589844 55.199219 692.617188 58.222656 692.617188 61.953125 "/>
<path style="fill-rule:nonzero;fill:rgb(18.431373%,30.980392%,30.980392%);fill-opacity:1;stroke-width:0.708661;stroke-linecap:round;stroke-linejoin:round;stroke:rgb(18.431373%,30.980392%,30.980392%);stroke-opacity:1;stroke-miterlimit:10;" d="M 699.664062 54.460938 C 699.664062 58.191406 696.640625 61.214844 692.910156 61.214844 C 689.179688 61.214844 686.152344 58.191406 686.152344 54.460938 C 686.152344 50.726562 689.179688 47.703125 692.910156 47.703125 C 696.640625 47.703125 699.664062 50.726562 699.664062 54.460938 "/>
<path style="fill-rule:nonzero;fill:rgb(18.431373%,30.980392%,30.980392%);fill-opacity:1;stroke-width:0.708661;stroke-linecap:round;stroke-linejoin:round;stroke:rgb(18.431373%,30.980392%,30.980392%);stroke-opacity:1;stroke-miterlimit:10;" d="M 706.714844 49.046875 C 706.714844 52.777344 703.691406 55.800781 699.957031 55.800781 C 696.226562 55.800781 693.203125 52.777344 693.203125 49.046875 C 693.203125 45.316406 696.226562 42.289062 699.957031 42.289062 C 703.691406 42.289062 706.714844 45.316406 706.714844 49.046875 "/>
<path style="fill-rule:nonzero;fill:rgb(18.431373%,30.980392%,30.980392%);fill-opacity:1;stroke-width:0.708661;stroke-linecap:round;stroke-linejoin:round;stroke:rgb(18.431373%,30.980392%,30.980392%);stroke-opacity:1;stroke-miterlimit:10;" d="M 713.765625 41.367188 C 713.765625 45.097656 710.738281 48.125 707.007812 48.125 C 703.277344 48.125 700.25 45.097656 700.25 41.367188 C 700.25 37.636719 703.277344 34.613281 707.007812 34.613281 C 710.738281 34.613281 713.765625 37.636719 713.765625 41.367188 "/>
<path style="fill-rule:nonzero;fill:rgb(18.431373%,30.980392%,30.980392%);fill-opacity:1;stroke-width:0.708661;stroke-linecap:round;stroke-linejoin:round;stroke:rgb(18.431373%,30.980392%,30.980392%);stroke-opacity:1;stroke-miterlimit:10;" d="M 720.8125 31.449219 C 720.8125 35.179688 717.789062 38.203125 714.058594 38.203125 C 710.324219 38.203125 707.300781 35.179688 707.300781 31.449219 C 707.300781 27.714844 710.324219 24.691406 714.058594 24.691406 C 717.789062 24.691406 720.8125 27.714844 720.8125 31.449219 "/>
<path style="fill-rule:nonzero;fill:rgb(18.431373%,30.980392%,30.980392%);fill-opacity:1;stroke-width:0.708661;stroke-linecap:round;stroke-linejoin:round;stroke:rgb(18.431373%,30.980392%,30.980392%);stroke-opacity:1;stroke-miterlimit:10;" d="M 727.863281 23.4375 C 727.863281 27.171875 724.835938 30.195312 721.105469 30.195312 C 717.375 30.195312 714.351562 27.171875 714.351562 23.4375 C 714.351562 19.707031 717.375 16.683594 721.105469 16.683594 C 724.835938 16.683594 727.863281 19.707031 727.863281 23.4375 "/>
<path style="fill:none;stroke-width:6.40187;stroke-linecap:butt;stroke-linejoin:round;stroke:rgb(94.117647%,50.196078%,50.196078%);stroke-opacity:1;stroke-miterlimit:10;" d="M 23.234375 492.222656 L 32.066406 487.085938 L 40.902344 481.953125 L 49.734375 476.820312 L 58.570312 471.6875 L 67.402344 466.554688 L 76.238281 461.421875 L 85.070312 456.289062 L 93.902344 451.152344 L 102.738281 446.019531 L 111.570312 440.886719 L 120.40625 435.753906 L 129.238281 430.621094 L 138.074219 425.488281 L 146.90625 420.351562 L 155.742188 415.21875 L 164.574219 410.085938 L 173.410156 404.953125 L 182.242188 399.820312 L 191.078125 394.6875 L 199.910156 389.550781 L 208.742188 384.417969 L 217.578125 379.285156 L 226.410156 374.152344 L 235.246094 369.019531 L 244.078125 363.886719 L 252.914062 358.753906 L 261.746094 353.617188 L 270.582031 348.484375 L 279.414062 343.351562 L 288.25 338.21875 L 297.082031 333.085938 L 305.917969 327.953125 L 314.75 322.816406 L 323.582031 317.683594 L 332.417969 312.550781 L 341.25 307.417969 L 350.085938 302.285156 L 358.917969 297.152344 L 367.753906 292.019531 L 376.585938 286.882812 L 385.421875 281.75 L 394.253906 276.617188 L 403.089844 271.484375 L 411.921875 266.351562 L 420.757812 261.21875 L 429.589844 256.082031 L 438.421875 250.949219 L 447.257812 245.816406 L 456.089844 240.683594 L 464.925781 235.550781 L 473.757812 230.417969 L 482.59375 225.285156 L 491.425781 220.148438 L 500.261719 215.015625 L 509.09375 209.882812 L 517.929688 204.75 L 526.761719 199.617188 L 535.597656 194.484375 L 544.429688 189.347656 L 553.261719 184.214844 L 562.097656 179.082031 L 570.929688 173.949219 L 579.765625 168.816406 L 588.597656 163.683594 L 597.433594 158.546875 L 606.265625 153.414062 L 615.101562 148.28125 L 623.933594 143.148438 L 632.769531 138.015625 L 641.601562 132.882812 L 650.4375 127.75 L 659.269531 122.613281 L 668.101562 117.480469 L 676.9375 112.347656 L 685.769531 107.214844 L 694.605469 102.082031 L 703.4375 96.949219 L 712.273438 91.8125 L 721.105469 86.679688 "/>
</g>
</svg>
