<?xml version="1.0" encoding="UTF-8"?>
<svg xmlns="http://www.w3.org/2000/svg" xmlns:xlink="http://www.w3.org/1999/xlink" width="756pt" height="360pt" viewBox="0 0 756 360" version="1.1">
<g id="surface294">
<rect x="0" y="0" width="756" height="360" style="fill:rgb(100%,100%,100%);fill-opacity:1;stroke:none;"/>
<path style="fill-rule:nonzero;fill:rgb(18.431373%,30.980392%,30.980392%);fill-opacity:1;stroke-width:0.708661;stroke-linecap:round;stroke-linejoin:round;stroke:rgb(18.431373%,30.980392%,30.980392%);stroke-opacity:1;stroke-miterlimit:10;" d="M 29.988281 309.660156 C 29.988281 313.390625 26.964844 316.414062 23.234375 316.414062 C 19.503906 316.414062 16.476562 313.390625 16.476562 309.660156 C 16.476562 305.925781 19.503906 302.902344 23.234375 302.902344 C 26.964844 302.902344 29.988281 305.925781 29.988281 309.660156 "/>
<path style="fill-rule:nonzero;fill:rgb(18.431373%,30.980392%,30.980392%);fill-opacity:1;stroke-width:0.708661;stroke-linecap:round;stroke-linejoin:round;stroke:rgb(18.431373%,30.980392%,30.980392%);stroke-opacity:1;stroke-miterlimit:10;" d="M 37.039062 307.585938 C 37.039062 311.316406 34.015625 314.34375 30.28125 314.34375 C 26.550781 314.34375 23.527344 311.316406 23.527344 307.585938 C 23.527344 303.855469 26.550781 300.832031 30.28125 300.832031 C 34.015625 300.832031 37.039062 303.855469 37.039062 307.585938 "/>
<path style="fill-rule:nonzero;fill:rgb(18.431373%,30.980392%,30.980392%);fill-opacity:1;stroke-width:0.708661;stroke-linecap:round;stroke-linejoin:round;stroke:rgb(18.431373%,30.980392%,30.980392%);stroke-opacity:1;stroke-miterlimit:10;" d="M 44.089844 311.445312 C 44.089844 315.179688 41.0625 318.203125 37.332031 318.203125 C 33.601562 318.203125 30.574219 315.179688 30.574219 311.445312 C 30.574219 307.714844 33.601562 304.691406 37.332031 304.691406 C 41.0625 304.691406 44.089844 307.714844 44.089844 311.445312 "/>
<path style="fill-rule:nonzero;fill:rgb(18.431373%,30.980392%,30.980392%);fill-opacity:1;stroke-width:0.708661;stroke-linecap:round;stroke-linejoin:round;stroke:rgb(18.431373%,30.980392%,30.980392%);stroke-opacity:1;stroke-miterlimit:10;" d="M 51.136719 305.988281 C 51.136719 309.71875 48.113281 312.742188 44.382812 312.742188 C 40.648438 312.742188 37.625 309.71875 37.625 305.988281 C 37.625 302.253906 40.648438 299.230469 44.382812 299.230469 C 48.113281 299.230469 51.136719 302.253906 51.136719 305.988281 "/>
<path style="fill-rule:nonzero;fill:rgb(18.431373%,30.980392%,30.980392%);fill-opacity:1;stroke-width:0.708661;stroke-linecap:round;stroke-linejoin:round;stroke:rgb(18.431373%,30.980392%,30.980392%);stroke-opacity:1;stroke-miterlimit:10;" d="M 58.1875 303.152344 C 58.1875 306.886719 55.160156 309.910156 51.429688 309.910156 C 47.699219 309.910156 44.675781 306.886719 44.675781 303.152344 C 44.675781 299.421875 47.699219 296.398438 51.429688 296.398438 C 55.160156 296.398438 58.1875 299.421875 58.1875 303.152344 "/>
<path style="fill-rule:nonzero;fill:rgb(18.431373%,30.980392%,30.980392%);fill-opacity:1;stroke-width:0.708661;stroke-linecap:round;stroke-linejoin:round;stroke:rgb(18.431373%,30.980392%,30.980392%);stroke-opacity:1;stroke-miterlimit:10;" d="M 65.234375 307.332031 C 65.234375 311.0625 62.210938 314.085938 58.480469 314.085938 C 54.75 314.085938 51.722656 311.0625 51.722656 307.332031 C 51.722656 303.597656 54.75 300.574219 58.480469 300.574219 C 62.210938 300.574219 65.234375 303.597656 65.234375 307.332031 "/>
<path style="fill-rule:nonzero;fill:rgb(18.431373%,30.980392%,30.980392%);fill-opacity:1;stroke-width:0.708661;stroke-linecap:round;stroke-linejoin:round;stroke:rgb(18.431373%,30.980392%,30.980392%);stroke-opacity:1;stroke-miterlimit:10;" d="M 72.285156 308.140625 C 72.285156 311.871094 69.261719 314.894531 65.527344 314.894531 C 61.796875 314.894531 58.773438 311.871094 58.773438 308.140625 C 58.773438 304.40625 61.796875 301.382812 65.527344 301.382812 C 69.261719 301.382812 72.285156 304.40625 72.285156 308.140625 "/>
<path style="fill-rule:nonzero;fill:rgb(18.431373%,30.980392%,30.980392%);fill-opacity:1;stroke-width:0.708661;stroke-linecap:round;stroke-linejoin:round;stroke:rgb(18.431373%,30.980392%,30.980392%);stroke-opacity:1;stroke-miterlimit:10;" d="M 79.335938 307.816406 C 79.335938 311.550781 76.308594 314.574219 72.578125 314.574219 C 68.847656 314.574219 65.820312 311.550781 65.820312 307.816406 C 65.820312 304.085938 68.847656 301.0625 72.578125 301.0625 C 76.308594 301.0625 79.335938 304.085938 79.335938 307.816406 "/>
<path style="fill-rule:nonzero;fill:rgb(18.431373%,30.980392%,30.980392%);fill-opacity:1;stroke-width:0.708661;stroke-linecap:round;stroke-linejoin:round;stroke:rgb(18.431373%,30.980392%,30.980392%);stroke-opacity:1;stroke-miterlimit:10;" d="M 86.382812 300.644531 C 86.382812 304.375 83.359375 307.402344 79.628906 307.402344 C 75.894531 307.402344 72.871094 304.375 72.871094 300.644531 C 72.871094 296.914062 75.894531 293.890625 79.628906 293.890625 C 83.359375 293.890625 86.382812 296.914062 86.382812 300.644531 "/>
<path style="fill-rule:nonzero;fill:rgb(18.431373%,30.980392%,30.980392%);fill-opacity:1;stroke-width:0.708661;stroke-linecap:round;stroke-linejoin:round;stroke:rgb(18.431373%,30.980392%,30.980392%);stroke-opacity:1;stroke-miterlimit:10;" d="M 93.433594 303.734375 C 93.433594 307.46875 90.40625 310.492188 86.675781 310.492188 C 82.945312 310.492188 79.921875 307.46875 79.921875 303.734375 C 79.921875 300.003906 82.945312 296.980469 86.675781 296.980469 C 90.40625 296.980469 93.433594 300.003906 93.433594 303.734375 "/>
<path style="fill-rule:nonzero;fill:rgb(18.431373%,30.980392%,30.980392%);fill-opacity:1;stroke-width:0.708661;stroke-linecap:round;stroke-linejoin:round;stroke:rgb(18.431373%,30.980392%,30.980392%);stroke-opacity:1;stroke-miterlimit:10;" d="M 100.480469 306.503906 C 100.480469 310.234375 97.457031 313.257812 93.726562 313.257812 C 89.996094 313.257812 86.96875 310.234375 86.96875 306.503906 C 86.96875 302.773438 89.996094 299.746094 93.726562 299.746094 C 97.457031 299.746094 100.480469 302.773438 100.480469 306.503906 "/>
<path style="fill-rule:nonzero;fill:rgb(18.431373%,30.980392%,30.980392%);fill-opacity:1;stroke-width:0.708661;stroke-linecap:round;stroke-linejoin:round;stroke:rgb(18.431373%,30.980392%,30.980392%);stroke-opacity:1;stroke-miterlimit:10;" d="M 107.53125 303.726562 C 107.53125 307.457031 104.507812 310.480469 100.773438 310.480469 C 97.042969 310.480469 94.019531 307.457031 94.019531 303.726562 C 94.019531 299.992188 97.042969 296.96875 100.773438 296.96875 C 104.507812 296.96875 107.53125 299.992188 107.53125 303.726562 "/>
<path style="fill-rule:nonzero;fill:rgb(18.431373%,30.980392%,30.980392%);fill-opacity:1;stroke-width:0.708661;stroke-linecap:round;stroke-linejoin:round;stroke:rgb(18.431373%,30.980392%,30.980392%);stroke-opacity:1;stroke-miterlimit:10;" d="M 114.582031 303.09375 C 114.582031 306.824219 111.554688 309.851562 107.824219 309.851562 C 104.09375 309.851562 101.066406 306.824219 101.066406 303.09375 C 101.066406 299.363281 104.09375 296.335938 107.824219 296.335938 C 111.554688 296.335938 114.582031 299.363281 114.582031 303.09375 "/>
<path style="fill-rule:nonzero;fill:rgb(18.431373%,30.980392%,30.980392%);fill-opacity:1;stroke-width:0.708661;stroke-linecap:round;stroke-linejoin:round;stroke:rgb(18.431373%,30.980392%,30.980392%);stroke-opacity:1;stroke-miterlimit:10;" d="M 121.628906 298.570312 C 121.628906 302.300781 118.605469 305.324219 114.875 305.324219 C 111.140625 305.324219 108.117188 302.300781 108.117188 298.570312 C 108.117188 294.839844 111.140625 291.8125 114.875 291.8125 C 118.605469 291.8125 121.628906 294.839844 121.628906 298.570312 "/>
<path style="fill-rule:nonzero;fill:rgb(18.431373%,30.980392%,30.980392%);fill-opacity:1;stroke-width:0.708661;stroke-linecap:round;stroke-linejoin:round;stroke:rgb(18.431373%,30.980392%,30.980392%);stroke-opacity:1;stroke-miterlimit:10;" d="M 128.679688 298.445312 C 128.679688 302.175781 125.652344 305.199219 121.921875 305.199219 C 118.191406 305.199219 115.167969 302.175781 115.167969 298.445312 C 115.167969 294.714844 118.191406 291.6875 121.921875 291.6875 C 125.652344 291.6875 128.679688 294.714844 128.679688 298.445312 "/>
<path style="fill-rule:nonzero;fill:rgb(18.431373%,30.980392%,30.980392%);fill-opacity:1;stroke-width:0.708661;stroke-linecap:round;stroke-linejoin:round;stroke:rgb(18.431373%,30.980392%,30.980392%);stroke-opacity:1;stroke-miterlimit:10;" d="M 135.726562 299.191406 C 135.726562 302.921875 132.703125 305.949219 128.972656 305.949219 C 125.242188 305.949219 122.214844 302.921875 122.214844 299.191406 C 122.214844 295.460938 125.242188 292.433594 128.972656 292.433594 C 132.703125 292.433594 135.726562 295.460938 135.726562 299.191406 "/>
<path style="fill-rule:nonzero;fill:rgb(18.431373%,30.980392%,30.980392%);fill-opacity:1;stroke-width:0.708661;stroke-linecap:round;stroke-linejoin:round;stroke:rgb(18.431373%,30.980392%,30.980392%);stroke-opacity:1;stroke-miterlimit:10;" d="M 142.777344 300.070312 C 142.777344 303.800781 139.753906 306.824219 136.019531 306.824219 C 132.289062 306.824219 129.265625 303.800781 129.265625 300.070312 C 129.265625 296.335938 132.289062 293.3125 136.019531 293.3125 C 139.753906 293.3125 142.777344 296.335938 142.777344 300.070312 "/>
<path style="fill-rule:nonzero;fill:rgb(18.431373%,30.980392%,30.980392%);fill-opacity:1;stroke-width:0.708661;stroke-linecap:round;stroke-linejoin:round;stroke:rgb(18.431373%,30.980392%,30.980392%);stroke-opacity:1;stroke-miterlimit:10;" d="M 149.828125 299.859375 C 149.828125 303.59375 146.800781 306.617188 143.070312 306.617188 C 139.339844 306.617188 136.3125 303.59375 136.3125 299.859375 C 136.3125 296.128906 139.339844 293.105469 143.070312 293.105469 C 146.800781 293.105469 149.828125 296.128906 149.828125 299.859375 "/>
<path style="fill-rule:nonzero;fill:rgb(18.431373%,30.980392%,30.980392%);fill-opacity:1;stroke-width:0.708661;stroke-linecap:round;stroke-linejoin:round;stroke:rgb(18.431373%,30.980392%,30.980392%);stroke-opacity:1;stroke-miterlimit:10;" d="M 156.875 302.363281 C 156.875 306.09375 153.851562 309.117188 150.121094 309.117188 C 146.386719 309.117188 143.363281 306.09375 143.363281 302.363281 C 143.363281 298.632812 146.386719 295.605469 150.121094 295.605469 C 153.851562 295.605469 156.875 298.632812 156.875 302.363281 "/>
<path style="fill-rule:nonzero;fill:rgb(18.431373%,30.980392%,30.980392%);fill-opacity:1;stroke-width:0.708661;stroke-linecap:round;stroke-linejoin:round;stroke:rgb(18.431373%,30.980392%,30.980392%);stroke-opacity:1;stroke-miterlimit:10;" d="M 163.925781 291.039062 C 163.925781 294.769531 160.898438 297.796875 157.167969 297.796875 C 153.4375 297.796875 150.414062 294.769531 150.414062 291.039062 C 150.414062 287.308594 153.4375 284.28125 157.167969 284.28125 C 160.898438 284.28125 163.925781 287.308594 163.925781 291.039062 "/>
<path style="fill-rule:nonzero;fill:rgb(18.431373%,30.980392%,30.980392%);fill-opacity:1;stroke-width:0.708661;stroke-linecap:round;stroke-linejoin:round;stroke:rgb(18.431373%,30.980392%,30.980392%);stroke-opacity:1;stroke-miterlimit:10;" d="M 170.972656 296.632812 C 170.972656 300.363281 167.949219 303.386719 164.21875 303.386719 C 160.488281 303.386719 157.460938 300.363281 157.460938 296.632812 C 157.460938 292.898438 160.488281 289.875 164.21875 289.875 C 167.949219 289.875 170.972656 292.898438 170.972656 296.632812 "/>
<path style="fill-rule:nonzero;fill:rgb(18.431373%,30.980392%,30.980392%);fill-opacity:1;stroke-width:0.708661;stroke-linecap:round;stroke-linejoin:round;stroke:rgb(18.431373%,30.980392%,30.980392%);stroke-opacity:1;stroke-miterlimit:10;" d="M 178.023438 294.027344 C 178.023438 297.757812 175 300.78125 171.265625 300.78125 C 167.535156 300.78125 164.511719 297.757812 164.511719 294.027344 C 164.511719 290.296875 167.535156 287.269531 171.265625 287.269531 C 175 287.269531 178.023438 290.296875 178.023438 294.027344 "/>
<path style="fill-rule:nonzero;fill:rgb(18.431373%,30.980392%,30.980392%);fill-opacity:1;stroke-width:0.708661;stroke-linecap:round;stroke-linejoin:round;stroke:rgb(18.431373%,30.980392%,30.980392%);stroke-opacity:1;stroke-miterlimit:10;" d="M 185.074219 290.972656 C 185.074219 294.703125 182.046875 297.726562 178.316406 297.726562 C 174.585938 297.726562 171.558594 294.703125 171.558594 290.972656 C 171.558594 287.238281 174.585938 284.214844 178.316406 284.214844 C 182.046875 284.214844 185.074219 287.238281 185.074219 290.972656 "/>
<path style="fill-rule:nonzero;fill:rgb(18.431373%,30.980392%,30.980392%);fill-opacity:1;stroke-width:0.708661;stroke-linecap:round;stroke-linejoin:round;stroke:rgb(18.431373%,30.980392%,30.980392%);stroke-opacity:1;stroke-miterlimit:10;" d="M 192.121094 287.011719 C 192.121094 290.742188 189.097656 293.765625 185.367188 293.765625 C 181.632812 293.765625 178.609375 290.742188 178.609375 287.011719 C 178.609375 283.277344 181.632812 280.253906 185.367188 280.253906 C 189.097656 280.253906 192.121094 283.277344 192.121094 287.011719 "/>
<path style="fill-rule:nonzero;fill:rgb(18.431373%,30.980392%,30.980392%);fill-opacity:1;stroke-width:0.708661;stroke-linecap:round;stroke-linejoin:round;stroke:rgb(18.431373%,30.980392%,30.980392%);stroke-opacity:1;stroke-miterlimit:10;" d="M 199.171875 291.511719 C 199.171875 295.242188 196.144531 298.265625 192.414062 298.265625 C 188.683594 298.265625 185.660156 295.242188 185.660156 291.511719 C 185.660156 287.777344 188.683594 284.753906 192.414062 284.753906 C 196.144531 284.753906 199.171875 287.777344 199.171875 291.511719 "/>
<path style="fill-rule:nonzero;fill:rgb(18.431373%,30.980392%,30.980392%);fill-opacity:1;stroke-width:0.708661;stroke-linecap:round;stroke-linejoin:round;stroke:rgb(18.431373%,30.980392%,30.980392%);stroke-opacity:1;stroke-miterlimit:10;" d="M 206.21875 291.28125 C 206.21875 295.011719 203.195312 298.035156 199.464844 298.035156 C 195.734375 298.035156 192.707031 295.011719 192.707031 291.28125 C 192.707031 287.546875 195.734375 284.523438 199.464844 284.523438 C 203.195312 284.523438 206.21875 287.546875 206.21875 291.28125 "/>
<path style="fill-rule:nonzero;fill:rgb(18.431373%,30.980392%,30.980392%);fill-opacity:1;stroke-width:0.708661;stroke-linecap:round;stroke-linejoin:round;stroke:rgb(18.431373%,30.980392%,30.980392%);stroke-opacity:1;stroke-miterlimit:10;" d="M 213.269531 282.269531 C 213.269531 286 210.246094 289.023438 206.511719 289.023438 C 202.78125 289.023438 199.757812 286 199.757812 282.269531 C 199.757812 278.539062 202.78125 275.511719 206.511719 275.511719 C 210.246094 275.511719 213.269531 278.539062 213.269531 282.269531 "/>
<path style="fill-rule:nonzero;fill:rgb(18.431373%,30.980392%,30.980392%);fill-opacity:1;stroke-width:0.708661;stroke-linecap:round;stroke-linejoin:round;stroke:rgb(18.431373%,30.980392%,30.980392%);stroke-opacity:1;stroke-miterlimit:10;" d="M 220.320312 281.105469 C 220.320312 284.835938 217.292969 287.859375 213.5625 287.859375 C 209.832031 287.859375 206.804688 284.835938 206.804688 281.105469 C 206.804688 277.371094 209.832031 274.347656 213.5625 274.347656 C 217.292969 274.347656 220.320312 277.371094 220.320312 281.105469 "/>
<path style="fill-rule:nonzero;fill:rgb(18.431373%,30.980392%,30.980392%);fill-opacity:1;stroke-width:0.708661;stroke-linecap:round;stroke-linejoin:round;stroke:rgb(18.431373%,30.980392%,30.980392%);stroke-opacity:1;stroke-miterlimit:10;" d="M 227.367188 282.132812 C 227.367188 285.863281 224.34375 288.886719 220.613281 288.886719 C 216.878906 288.886719 213.855469 285.863281 213.855469 282.132812 C 213.855469 278.398438 216.878906 275.375 220.613281 275.375 C 224.34375 275.375 227.367188 278.398438 227.367188 282.132812 "/>
<path style="fill-rule:nonzero;fill:rgb(18.431373%,30.980392%,30.980392%);fill-opacity:1;stroke-width:0.708661;stroke-linecap:round;stroke-linejoin:round;stroke:rgb(18.431373%,30.980392%,30.980392%);stroke-opacity:1;stroke-miterlimit:10;" d="M 234.417969 280.488281 C 234.417969 284.21875 231.390625 287.242188 227.660156 287.242188 C 223.929688 287.242188 220.90625 284.21875 220.90625 280.488281 C 220.90625 276.753906 223.929688 273.730469 227.660156 273.730469 C 231.390625 273.730469 234.417969 276.753906 234.417969 280.488281 "/>
<path style="fill-rule:nonzero;fill:rgb(18.431373%,30.980392%,30.980392%);fill-opacity:1;stroke-width:0.708661;stroke-linecap:round;stroke-linejoin:round;stroke:rgb(18.431373%,30.980392%,30.980392%);stroke-opacity:1;stroke-miterlimit:10;" d="M 241.464844 282.421875 C 241.464844 286.152344 238.441406 289.179688 234.710938 289.179688 C 230.980469 289.179688 227.953125 286.152344 227.953125 282.421875 C 227.953125 278.691406 230.980469 275.667969 234.710938 275.667969 C 238.441406 275.667969 241.464844 278.691406 241.464844 282.421875 "/>
<path style="fill-rule:nonzero;fill:rgb(18.431373%,30.980392%,30.980392%);fill-opacity:1;stroke-width:0.708661;stroke-linecap:round;stroke-linejoin:round;stroke:rgb(18.431373%,30.980392%,30.980392%);stroke-opacity:1;stroke-miterlimit:10;" d="M 248.515625 277.210938 C 248.515625 280.941406 245.492188 283.96875 241.757812 283.96875 C 238.027344 283.96875 235.003906 280.941406 235.003906 277.210938 C 235.003906 273.480469 238.027344 270.453125 241.757812 270.453125 C 245.492188 270.453125 248.515625 273.480469 248.515625 277.210938 "/>
<path style="fill-rule:nonzero;fill:rgb(18.431373%,30.980392%,30.980392%);fill-opacity:1;stroke-width:0.708661;stroke-linecap:round;stroke-linejoin:round;stroke:rgb(18.431373%,30.980392%,30.980392%);stroke-opacity:1;stroke-miterlimit:10;" d="M 255.566406 276.476562 C 255.566406 280.207031 252.539062 283.230469 248.808594 283.230469 C 245.078125 283.230469 242.050781 280.207031 242.050781 276.476562 C 242.050781 272.742188 245.078125 269.71875 248.808594 269.71875 C 252.539062 269.71875 255.566406 272.742188 255.566406 276.476562 "/>
<path style="fill-rule:nonzero;fill:rgb(18.431373%,30.980392%,30.980392%);fill-opacity:1;stroke-width:0.708661;stroke-linecap:round;stroke-linejoin:round;stroke:rgb(18.431373%,30.980392%,30.980392%);stroke-opacity:1;stroke-miterlimit:10;" d="M 262.613281 275.824219 C 262.613281 279.554688 259.589844 282.582031 255.859375 282.582031 C 252.125 282.582031 249.101562 279.554688 249.101562 275.824219 C 249.101562 272.09375 252.125 269.066406 255.859375 269.066406 C 259.589844 269.066406 262.613281 272.09375 262.613281 275.824219 "/>
<path style="fill-rule:nonzero;fill:rgb(18.431373%,30.980392%,30.980392%);fill-opacity:1;stroke-width:0.708661;stroke-linecap:round;stroke-linejoin:round;stroke:rgb(18.431373%,30.980392%,30.980392%);stroke-opacity:1;stroke-miterlimit:10;" d="M 269.664062 273.9375 C 269.664062 277.667969 266.636719 280.691406 262.90625 280.691406 C 259.175781 280.691406 256.152344 277.667969 256.152344 273.9375 C 256.152344 270.207031 259.175781 267.179688 262.90625 267.179688 C 266.636719 267.179688 269.664062 270.207031 269.664062 273.9375 "/>
<path style="fill-rule:nonzero;fill:rgb(18.431373%,30.980392%,30.980392%);fill-opacity:1;stroke-width:0.708661;stroke-linecap:round;stroke-linejoin:round;stroke:rgb(18.431373%,30.980392%,30.980392%);stroke-opacity:1;stroke-miterlimit:10;" d="M 276.710938 266.503906 C 276.710938 270.234375 273.6875 273.261719 269.957031 273.261719 C 266.226562 273.261719 263.199219 270.234375 263.199219 266.503906 C 263.199219 262.773438 266.226562 259.75 269.957031 259.75 C 273.6875 259.75 276.710938 262.773438 276.710938 266.503906 "/>
<path style="fill-rule:nonzero;fill:rgb(18.431373%,30.980392%,30.980392%);fill-opacity:1;stroke-width:0.708661;stroke-linecap:round;stroke-linejoin:round;stroke:rgb(18.431373%,30.980392%,30.980392%);stroke-opacity:1;stroke-miterlimit:10;" d="M 283.761719 270.382812 C 283.761719 274.113281 280.738281 277.140625 277.003906 277.140625 C 273.273438 277.140625 270.25 274.113281 270.25 270.382812 C 270.25 266.652344 273.273438 263.628906 277.003906 263.628906 C 280.738281 263.628906 283.761719 266.652344 283.761719 270.382812 "/>
<path style="fill-rule:nonzero;fill:rgb(18.431373%,30.980392%,30.980392%);fill-opacity:1;stroke-width:0.708661;stroke-linecap:round;stroke-linejoin:round;stroke:rgb(18.431373%,30.980392%,30.980392%);stroke-opacity:1;stroke-miterlimit:10;" d="M 290.8125 266.648438 C 290.8125 270.382812 287.785156 273.40625 284.054688 273.40625 C 280.324219 273.40625 277.296875 270.382812 277.296875 266.648438 C 277.296875 262.917969 280.324219 259.894531 284.054688 259.894531 C 287.785156 259.894531 290.8125 262.917969 290.8125 266.648438 "/>
<path style="fill-rule:nonzero;fill:rgb(18.431373%,30.980392%,30.980392%);fill-opacity:1;stroke-width:0.708661;stroke-linecap:round;stroke-linejoin:round;stroke:rgb(18.431373%,30.980392%,30.980392%);stroke-opacity:1;stroke-miterlimit:10;" d="M 297.859375 257.785156 C 297.859375 261.519531 294.835938 264.542969 291.105469 264.542969 C 287.371094 264.542969 284.347656 261.519531 284.347656 257.785156 C 284.347656 254.054688 287.371094 251.03125 291.105469 251.03125 C 294.835938 251.03125 297.859375 254.054688 297.859375 257.785156 "/>
<path style="fill-rule:nonzero;fill:rgb(18.431373%,30.980392%,30.980392%);fill-opacity:1;stroke-width:0.708661;stroke-linecap:round;stroke-linejoin:round;stroke:rgb(18.431373%,30.980392%,30.980392%);stroke-opacity:1;stroke-miterlimit:10;" d="M 304.910156 262.621094 C 304.910156 266.355469 301.882812 269.378906 298.152344 269.378906 C 294.421875 269.378906 291.398438 266.355469 291.398438 262.621094 C 291.398438 258.890625 294.421875 255.867188 298.152344 255.867188 C 301.882812 255.867188 304.910156 258.890625 304.910156 262.621094 "/>
<path style="fill-rule:nonzero;fill:rgb(18.431373%,30.980392%,30.980392%);fill-opacity:1;stroke-width:0.708661;stroke-linecap:round;stroke-linejoin:round;stroke:rgb(18.431373%,30.980392%,30.980392%);stroke-opacity:1;stroke-miterlimit:10;" d="M 311.957031 258.070312 C 311.957031 261.800781 308.933594 264.828125 305.203125 264.828125 C 301.472656 264.828125 298.445312 261.800781 298.445312 258.070312 C 298.445312 254.339844 301.472656 251.316406 305.203125 251.316406 C 308.933594 251.316406 311.957031 254.339844 311.957031 258.070312 "/>
<path style="fill-rule:nonzero;fill:rgb(18.431373%,30.980392%,30.980392%);fill-opacity:1;stroke-width:0.708661;stroke-linecap:round;stroke-linejoin:round;stroke:rgb(18.431373%,30.980392%,30.980392%);stroke-opacity:1;stroke-miterlimit:10;" d="M 319.007812 260.757812 C 319.007812 264.488281 315.984375 267.511719 312.25 267.511719 C 308.519531 267.511719 305.496094 264.488281 305.496094 260.757812 C 305.496094 257.027344 308.519531 254 312.25 254 C 315.984375 254 319.007812 257.027344 319.007812 260.757812 "/>
<path style="fill-rule:nonzero;fill:rgb(18.431373%,30.980392%,30.980392%);fill-opacity:1;stroke-width:0.708661;stroke-linecap:round;stroke-linejoin:round;stroke:rgb(18.431373%,30.980392%,30.980392%);stroke-opacity:1;stroke-miterlimit:10;" d="M 326.058594 255.136719 C 326.058594 258.867188 323.03125 261.890625 319.300781 261.890625 C 315.570312 261.890625 312.542969 258.867188 312.542969 255.136719 C 312.542969 251.40625 315.570312 248.378906 319.300781 248.378906 C 323.03125 248.378906 326.058594 251.40625 326.058594 255.136719 "/>
<path style="fill-rule:nonzero;fill:rgb(18.431373%,30.980392%,30.980392%);fill-opacity:1;stroke-width:0.708661;stroke-linecap:round;stroke-linejoin:round;stroke:rgb(18.431373%,30.980392%,30.980392%);stroke-opacity:1;stroke-miterlimit:10;" d="M 333.105469 252.023438 C 333.105469 255.753906 330.082031 258.78125 326.351562 258.78125 C 322.617188 258.78125 319.59375 255.753906 319.59375 252.023438 C 319.59375 248.292969 322.617188 245.265625 326.351562 245.265625 C 330.082031 245.265625 333.105469 248.292969 333.105469 252.023438 "/>
<path style="fill-rule:nonzero;fill:rgb(18.431373%,30.980392%,30.980392%);fill-opacity:1;stroke-width:0.708661;stroke-linecap:round;stroke-linejoin:round;stroke:rgb(18.431373%,30.980392%,30.980392%);stroke-opacity:1;stroke-miterlimit:10;" d="M 340.15625 245.804688 C 340.15625 249.535156 337.128906 252.5625 333.398438 252.5625 C 329.667969 252.5625 326.644531 249.535156 326.644531 245.804688 C 326.644531 242.074219 329.667969 239.050781 333.398438 239.050781 C 337.128906 239.050781 340.15625 242.074219 340.15625 245.804688 "/>
<path style="fill-rule:nonzero;fill:rgb(18.431373%,30.980392%,30.980392%);fill-opacity:1;stroke-width:0.708661;stroke-linecap:round;stroke-linejoin:round;stroke:rgb(18.431373%,30.980392%,30.980392%);stroke-opacity:1;stroke-miterlimit:10;" d="M 347.203125 243.777344 C 347.203125 247.507812 344.179688 250.53125 340.449219 250.53125 C 336.71875 250.53125 333.691406 247.507812 333.691406 243.777344 C 333.691406 240.046875 336.71875 237.019531 340.449219 237.019531 C 344.179688 237.019531 347.203125 240.046875 347.203125 243.777344 "/>
<path style="fill-rule:nonzero;fill:rgb(18.431373%,30.980392%,30.980392%);fill-opacity:1;stroke-width:0.708661;stroke-linecap:round;stroke-linejoin:round;stroke:rgb(18.431373%,30.980392%,30.980392%);stroke-opacity:1;stroke-miterlimit:10;" d="M 354.253906 246.074219 C 354.253906 249.804688 351.230469 252.832031 347.496094 252.832031 C 343.765625 252.832031 340.742188 249.804688 340.742188 246.074219 C 340.742188 242.34375 343.765625 239.320312 347.496094 239.320312 C 351.230469 239.320312 354.253906 242.34375 354.253906 246.074219 "/>
<path style="fill-rule:nonzero;fill:rgb(18.431373%,30.980392%,30.980392%);fill-opacity:1;stroke-width:0.708661;stroke-linecap:round;stroke-linejoin:round;stroke:rgb(18.431373%,30.980392%,30.980392%);stroke-opacity:1;stroke-miterlimit:10;" d="M 361.304688 242.964844 C 361.304688 246.695312 358.277344 249.71875 354.546875 249.71875 C 350.816406 249.71875 347.789062 246.695312 347.789062 242.964844 C 347.789062 239.234375 350.816406 236.207031 354.546875 236.207031 C 358.277344 236.207031 361.304688 239.234375 361.304688 242.964844 "/>
<path style="fill-rule:nonzero;fill:rgb(18.431373%,30.980392%,30.980392%);fill-opacity:1;stroke-width:0.708661;stroke-linecap:round;stroke-linejoin:round;stroke:rgb(18.431373%,30.980392%,30.980392%);stroke-opacity:1;stroke-miterlimit:10;" d="M 368.351562 236.238281 C 368.351562 239.96875 365.328125 242.992188 361.597656 242.992188 C 357.863281 242.992188 354.839844 239.96875 354.839844 236.238281 C 354.839844 232.503906 357.863281 229.480469 361.597656 229.480469 C 365.328125 229.480469 368.351562 232.503906 368.351562 236.238281 "/>
<path style="fill-rule:nonzero;fill:rgb(18.431373%,30.980392%,30.980392%);fill-opacity:1;stroke-width:0.708661;stroke-linecap:round;stroke-linejoin:round;stroke:rgb(18.431373%,30.980392%,30.980392%);stroke-opacity:1;stroke-miterlimit:10;" d="M 375.402344 233.359375 C 375.402344 237.09375 372.375 240.117188 368.644531 240.117188 C 364.914062 240.117188 361.890625 237.09375 361.890625 233.359375 C 361.890625 229.628906 364.914062 226.605469 368.644531 226.605469 C 372.375 226.605469 375.402344 229.628906 375.402344 233.359375 "/>
<path style="fill-rule:nonzero;fill:rgb(18.431373%,30.980392%,30.980392%);fill-opacity:1;stroke-width:0.708661;stroke-linecap:round;stroke-linejoin:round;stroke:rgb(18.431373%,30.980392%,30.980392%);stroke-opacity:1;stroke-miterlimit:10;" d="M 382.449219 233.507812 C 382.449219 237.238281 379.425781 240.261719 375.695312 240.261719 C 371.964844 240.261719 368.9375 237.238281 368.9375 233.507812 C 368.9375 229.773438 371.964844 226.75 375.695312 226.75 C 379.425781 226.75 382.449219 229.773438 382.449219 233.507812 "/>
<path style="fill-rule:nonzero;fill:rgb(18.431373%,30.980392%,30.980392%);fill-opacity:1;stroke-width:0.708661;stroke-linecap:round;stroke-linejoin:round;stroke:rgb(18.431373%,30.980392%,30.980392%);stroke-opacity:1;stroke-miterlimit:10;" d="M 389.5 229.003906 C 389.5 232.734375 386.476562 235.757812 382.742188 235.757812 C 379.011719 235.757812 375.988281 232.734375 375.988281 229.003906 C 375.988281 225.269531 379.011719 222.246094 382.742188 222.246094 C 386.476562 222.246094 389.5 225.269531 389.5 229.003906 "/>
<path style="fill-rule:nonzero;fill:rgb(18.431373%,30.980392%,30.980392%);fill-opacity:1;stroke-width:0.708661;stroke-linecap:round;stroke-linejoin:round;stroke:rgb(18.431373%,30.980392%,30.980392%);stroke-opacity:1;stroke-miterlimit:10;" d="M 396.550781 225.5625 C 396.550781 229.296875 393.523438 232.320312 389.792969 232.320312 C 386.0625 232.320312 383.035156 229.296875 383.035156 225.5625 C 383.035156 221.832031 386.0625 218.808594 389.792969 218.808594 C 393.523438 218.808594 396.550781 221.832031 396.550781 225.5625 "/>
<path style="fill-rule:nonzero;fill:rgb(18.431373%,30.980392%,30.980392%);fill-opacity:1;stroke-width:0.708661;stroke-linecap:round;stroke-linejoin:round;stroke:rgb(18.431373%,30.980392%,30.980392%);stroke-opacity:1;stroke-miterlimit:10;" d="M 403.597656 218.414062 C 403.597656 222.144531 400.574219 225.171875 396.84375 225.171875 C 393.109375 225.171875 390.085938 222.144531 390.085938 218.414062 C 390.085938 214.683594 393.109375 211.660156 396.84375 211.660156 C 400.574219 211.660156 403.597656 214.683594 403.597656 218.414062 "/>
<path style="fill-rule:nonzero;fill:rgb(18.431373%,30.980392%,30.980392%);fill-opacity:1;stroke-width:0.708661;stroke-linecap:round;stroke-linejoin:round;stroke:rgb(18.431373%,30.980392%,30.980392%);stroke-opacity:1;stroke-miterlimit:10;" d="M 410.648438 219.824219 C 410.648438 223.558594 407.621094 226.582031 403.890625 226.582031 C 400.160156 226.582031 397.136719 223.558594 397.136719 219.824219 C 397.136719 216.09375 400.160156 213.070312 403.890625 213.070312 C 407.621094 213.070312 410.648438 216.09375 410.648438 219.824219 "/>
<path style="fill-rule:nonzero;fill:rgb(18.431373%,30.980392%,30.980392%);fill-opacity:1;stroke-width:0.708661;stroke-linecap:round;stroke-linejoin:round;stroke:rgb(18.431373%,30.980392%,30.980392%);stroke-opacity:1;stroke-miterlimit:10;" d="M 417.695312 213.078125 C 417.695312 216.8125 414.671875 219.835938 410.941406 219.835938 C 407.210938 219.835938 404.183594 216.8125 404.183594 213.078125 C 404.183594 209.347656 407.210938 206.324219 410.941406 206.324219 C 414.671875 206.324219 417.695312 209.347656 417.695312 213.078125 "/>
<path style="fill-rule:nonzero;fill:rgb(18.431373%,30.980392%,30.980392%);fill-opacity:1;stroke-width:0.708661;stroke-linecap:round;stroke-linejoin:round;stroke:rgb(18.431373%,30.980392%,30.980392%);stroke-opacity:1;stroke-miterlimit:10;" d="M 424.746094 216.257812 C 424.746094 219.988281 421.722656 223.015625 417.988281 223.015625 C 414.257812 223.015625 411.234375 219.988281 411.234375 216.257812 C 411.234375 212.527344 414.257812 209.503906 417.988281 209.503906 C 421.722656 209.503906 424.746094 212.527344 424.746094 216.257812 "/>
<path style="fill-rule:nonzero;fill:rgb(18.431373%,30.980392%,30.980392%);fill-opacity:1;stroke-width:0.708661;stroke-linecap:round;stroke-linejoin:round;stroke:rgb(18.431373%,30.980392%,30.980392%);stroke-opacity:1;stroke-miterlimit:10;" d="M 431.796875 203.675781 C 431.796875 207.40625 428.769531 210.433594 425.039062 210.433594 C 421.308594 210.433594 418.28125 207.40625 418.28125 203.675781 C 418.28125 199.945312 421.308594 196.921875 425.039062 196.921875 C 428.769531 196.921875 431.796875 199.945312 431.796875 203.675781 "/>
<path style="fill-rule:nonzero;fill:rgb(18.431373%,30.980392%,30.980392%);fill-opacity:1;stroke-width:0.708661;stroke-linecap:round;stroke-linejoin:round;stroke:rgb(18.431373%,30.980392%,30.980392%);stroke-opacity:1;stroke-miterlimit:10;" d="M 438.84375 201.113281 C 438.84375 204.84375 435.820312 207.871094 432.089844 207.871094 C 428.355469 207.871094 425.332031 204.84375 425.332031 201.113281 C 425.332031 197.382812 428.355469 194.355469 432.089844 194.355469 C 435.820312 194.355469 438.84375 197.382812 438.84375 201.113281 "/>
<path style="fill-rule:nonzero;fill:rgb(18.431373%,30.980392%,30.980392%);fill-opacity:1;stroke-width:0.708661;stroke-linecap:round;stroke-linejoin:round;stroke:rgb(18.431373%,30.980392%,30.980392%);stroke-opacity:1;stroke-miterlimit:10;" d="M 445.894531 197.628906 C 445.894531 201.359375 442.867188 204.386719 439.136719 204.386719 C 435.40625 204.386719 432.382812 201.359375 432.382812 197.628906 C 432.382812 193.898438 435.40625 190.871094 439.136719 190.871094 C 442.867188 190.871094 445.894531 193.898438 445.894531 197.628906 "/>
<path style="fill-rule:nonzero;fill:rgb(18.431373%,30.980392%,30.980392%);fill-opacity:1;stroke-width:0.708661;stroke-linecap:round;stroke-linejoin:round;stroke:rgb(18.431373%,30.980392%,30.980392%);stroke-opacity:1;stroke-miterlimit:10;" d="M 452.941406 195.523438 C 452.941406 199.253906 449.917969 202.28125 446.1875 202.28125 C 442.457031 202.28125 439.429688 199.253906 439.429688 195.523438 C 439.429688 191.792969 442.457031 188.769531 446.1875 188.769531 C 449.917969 188.769531 452.941406 191.792969 452.941406 195.523438 "/>
<path style="fill-rule:nonzero;fill:rgb(18.431373%,30.980392%,30.980392%);fill-opacity:1;stroke-width:0.708661;stroke-linecap:round;stroke-linejoin:round;stroke:rgb(18.431373%,30.980392%,30.980392%);stroke-opacity:1;stroke-miterlimit:10;" d="M 459.992188 194.484375 C 459.992188 198.214844 456.96875 201.242188 453.234375 201.242188 C 449.503906 201.242188 446.480469 198.214844 446.480469 194.484375 C 446.480469 190.753906 449.503906 187.726562 453.234375 187.726562 C 456.96875 187.726562 459.992188 190.753906 459.992188 194.484375 "/>
<path style="fill-rule:nonzero;fill:rgb(18.431373%,30.980392%,30.980392%);fill-opacity:1;stroke-width:0.708661;stroke-linecap:round;stroke-linejoin:round;stroke:rgb(18.431373%,30.980392%,30.980392%);stroke-opacity:1;stroke-miterlimit:10;" d="M 467.042969 192.570312 C 467.042969 196.300781 464.015625 199.328125 460.285156 199.328125 C 456.554688 199.328125 453.527344 196.300781 453.527344 192.570312 C 453.527344 188.839844 456.554688 185.816406 460.285156 185.816406 C 464.015625 185.816406 467.042969 188.839844 467.042969 192.570312 "/>
<path style="fill-rule:nonzero;fill:rgb(18.431373%,30.980392%,30.980392%);fill-opacity:1;stroke-width:0.708661;stroke-linecap:round;stroke-linejoin:round;stroke:rgb(18.431373%,30.980392%,30.980392%);stroke-opacity:1;stroke-miterlimit:10;" d="M 474.089844 188.464844 C 474.089844 192.195312 471.066406 195.222656 467.335938 195.222656 C 463.601562 195.222656 460.578125 192.195312 460.578125 188.464844 C 460.578125 184.734375 463.601562 181.707031 467.335938 181.707031 C 471.066406 181.707031 474.089844 184.734375 474.089844 188.464844 "/>
<path style="fill-rule:nonzero;fill:rgb(18.431373%,30.980392%,30.980392%);fill-opacity:1;stroke-width:0.708661;stroke-linecap:round;stroke-linejoin:round;stroke:rgb(18.431373%,30.980392%,30.980392%);stroke-opacity:1;stroke-miterlimit:10;" d="M 481.140625 186.125 C 481.140625 189.855469 478.113281 192.882812 474.382812 192.882812 C 470.652344 192.882812 467.628906 189.855469 467.628906 186.125 C 467.628906 182.394531 470.652344 179.367188 474.382812 179.367188 C 478.113281 179.367188 481.140625 182.394531 481.140625 186.125 "/>
<path style="fill-rule:nonzero;fill:rgb(18.431373%,30.980392%,30.980392%);fill-opacity:1;stroke-width:0.708661;stroke-linecap:round;stroke-linejoin:round;stroke:rgb(18.431373%,30.980392%,30.980392%);stroke-opacity:1;stroke-miterlimit:10;" d="M 488.1875 179.183594 C 488.1875 182.914062 485.164062 185.9375 481.433594 185.9375 C 477.703125 185.9375 474.675781 182.914062 474.675781 179.183594 C 474.675781 175.449219 477.703125 172.425781 481.433594 172.425781 C 485.164062 172.425781 488.1875 175.449219 488.1875 179.183594 "/>
<path style="fill-rule:nonzero;fill:rgb(18.431373%,30.980392%,30.980392%);fill-opacity:1;stroke-width:0.708661;stroke-linecap:round;stroke-linejoin:round;stroke:rgb(18.431373%,30.980392%,30.980392%);stroke-opacity:1;stroke-miterlimit:10;" d="M 495.238281 177.15625 C 495.238281 180.886719 492.214844 183.910156 488.480469 183.910156 C 484.75 183.910156 481.726562 180.886719 481.726562 177.15625 C 481.726562 173.425781 484.75 170.398438 488.480469 170.398438 C 492.214844 170.398438 495.238281 173.425781 495.238281 177.15625 "/>
<path style="fill-rule:nonzero;fill:rgb(18.431373%,30.980392%,30.980392%);fill-opacity:1;stroke-width:0.708661;stroke-linecap:round;stroke-linejoin:round;stroke:rgb(18.431373%,30.980392%,30.980392%);stroke-opacity:1;stroke-miterlimit:10;" d="M 502.289062 176.671875 C 502.289062 180.402344 499.261719 183.429688 495.53125 183.429688 C 491.800781 183.429688 488.773438 180.402344 488.773438 176.671875 C 488.773438 172.941406 491.800781 169.917969 495.53125 169.917969 C 499.261719 169.917969 502.289062 172.941406 502.289062 176.671875 "/>
<path style="fill-rule:nonzero;fill:rgb(18.431373%,30.980392%,30.980392%);fill-opacity:1;stroke-width:0.708661;stroke-linecap:round;stroke-linejoin:round;stroke:rgb(18.431373%,30.980392%,30.980392%);stroke-opacity:1;stroke-miterlimit:10;" d="M 509.335938 172.121094 C 509.335938 175.851562 506.3125 178.875 502.582031 178.875 C 498.847656 178.875 495.824219 175.851562 495.824219 172.121094 C 495.824219 168.386719 498.847656 165.363281 502.582031 165.363281 C 506.3125 165.363281 509.335938 168.386719 509.335938 172.121094 "/>
<path style="fill-rule:nonzero;fill:rgb(18.431373%,30.980392%,30.980392%);fill-opacity:1;stroke-width:0.708661;stroke-linecap:round;stroke-linejoin:round;stroke:rgb(18.431373%,30.980392%,30.980392%);stroke-opacity:1;stroke-miterlimit:10;" d="M 516.386719 165.488281 C 516.386719 169.21875 513.359375 172.246094 509.628906 172.246094 C 505.898438 172.246094 502.875 169.21875 502.875 165.488281 C 502.875 161.757812 505.898438 158.734375 509.628906 158.734375 C 513.359375 158.734375 516.386719 161.757812 516.386719 165.488281 "/>
<path style="fill-rule:nonzero;fill:rgb(18.431373%,30.980392%,30.980392%);fill-opacity:1;stroke-width:0.708661;stroke-linecap:round;stroke-linejoin:round;stroke:rgb(18.431373%,30.980392%,30.980392%);stroke-opacity:1;stroke-miterlimit:10;" d="M 523.433594 153.777344 C 523.433594 157.507812 520.410156 160.53125 516.679688 160.53125 C 512.949219 160.53125 509.921875 157.507812 509.921875 153.777344 C 509.921875 150.042969 512.949219 147.019531 516.679688 147.019531 C 520.410156 147.019531 523.433594 150.042969 523.433594 153.777344 "/>
<path style="fill-rule:nonzero;fill:rgb(18.431373%,30.980392%,30.980392%);fill-opacity:1;stroke-width:0.708661;stroke-linecap:round;stroke-linejoin:round;stroke:rgb(18.431373%,30.980392%,30.980392%);stroke-opacity:1;stroke-miterlimit:10;" d="M 530.484375 157.679688 C 530.484375 161.410156 527.460938 164.433594 523.726562 164.433594 C 519.996094 164.433594 516.972656 161.410156 516.972656 157.679688 C 516.972656 153.945312 519.996094 150.921875 523.726562 150.921875 C 527.460938 150.921875 530.484375 153.945312 530.484375 157.679688 "/>
<path style="fill-rule:nonzero;fill:rgb(18.431373%,30.980392%,30.980392%);fill-opacity:1;stroke-width:0.708661;stroke-linecap:round;stroke-linejoin:round;stroke:rgb(18.431373%,30.980392%,30.980392%);stroke-opacity:1;stroke-miterlimit:10;" d="M 537.535156 151.511719 C 537.535156 155.242188 534.507812 158.265625 530.777344 158.265625 C 527.046875 158.265625 524.019531 155.242188 524.019531 151.511719 C 524.019531 147.777344 527.046875 144.753906 530.777344 144.753906 C 534.507812 144.753906 537.535156 147.777344 537.535156 151.511719 "/>
<path style="fill-rule:nonzero;fill:rgb(18.431373%,30.980392%,30.980392%);fill-opacity:1;stroke-width:0.708661;stroke-linecap:round;stroke-linejoin:round;stroke:rgb(18.431373%,30.980392%,30.980392%);stroke-opacity:1;stroke-miterlimit:10;" d="M 544.582031 151.140625 C 544.582031 154.871094 541.558594 157.898438 537.828125 157.898438 C 534.09375 157.898438 531.070312 154.871094 531.070312 151.140625 C 531.070312 147.410156 534.09375 144.386719 537.828125 144.386719 C 541.558594 144.386719 544.582031 147.410156 544.582031 151.140625 "/>
<path style="fill-rule:nonzero;fill:rgb(18.431373%,30.980392%,30.980392%);fill-opacity:1;stroke-width:0.708661;stroke-linecap:round;stroke-linejoin:round;stroke:rgb(18.431373%,30.980392%,30.980392%);stroke-opacity:1;stroke-miterlimit:10;" d="M 551.632812 140.023438 C 551.632812 143.753906 548.605469 146.777344 544.875 146.777344 C 541.144531 146.777344 538.121094 143.753906 538.121094 140.023438 C 538.121094 136.289062 541.144531 133.265625 544.875 133.265625 C 548.605469 133.265625 551.632812 136.289062 551.632812 140.023438 "/>
<path style="fill-rule:nonzero;fill:rgb(18.431373%,30.980392%,30.980392%);fill-opacity:1;stroke-width:0.708661;stroke-linecap:round;stroke-linejoin:round;stroke:rgb(18.431373%,30.980392%,30.980392%);stroke-opacity:1;stroke-miterlimit:10;" d="M 558.679688 139.769531 C 558.679688 143.5 555.65625 146.523438 551.925781 146.523438 C 548.195312 146.523438 545.167969 143.5 545.167969 139.769531 C 545.167969 136.035156 548.195312 133.011719 551.925781 133.011719 C 555.65625 133.011719 558.679688 136.035156 558.679688 139.769531 "/>
<path style="fill-rule:nonzero;fill:rgb(18.431373%,30.980392%,30.980392%);fill-opacity:1;stroke-width:0.708661;stroke-linecap:round;stroke-linejoin:round;stroke:rgb(18.431373%,30.980392%,30.980392%);stroke-opacity:1;stroke-miterlimit:10;" d="M 565.730469 136.398438 C 565.730469 140.128906 562.707031 143.152344 558.972656 143.152344 C 555.242188 143.152344 552.21875 140.128906 552.21875 136.398438 C 552.21875 132.664062 555.242188 129.640625 558.972656 129.640625 C 562.707031 129.640625 565.730469 132.664062 565.730469 136.398438 "/>
<path style="fill-rule:nonzero;fill:rgb(18.431373%,30.980392%,30.980392%);fill-opacity:1;stroke-width:0.708661;stroke-linecap:round;stroke-linejoin:round;stroke:rgb(18.431373%,30.980392%,30.980392%);stroke-opacity:1;stroke-miterlimit:10;" d="M 572.78125 133.800781 C 572.78125 137.535156 569.753906 140.558594 566.023438 140.558594 C 562.292969 140.558594 559.265625 137.535156 559.265625 133.800781 C 559.265625 130.070312 562.292969 127.046875 566.023438 127.046875 C 569.753906 127.046875 572.78125 130.070312 572.78125 133.800781 "/>
<path style="fill-rule:nonzero;fill:rgb(18.431373%,30.980392%,30.980392%);fill-opacity:1;stroke-width:0.708661;stroke-linecap:round;stroke-linejoin:round;stroke:rgb(18.431373%,30.980392%,30.980392%);stroke-opacity:1;stroke-miterlimit:10;" d="M 579.828125 119.269531 C 579.828125 123 576.804688 126.023438 573.074219 126.023438 C 569.339844 126.023438 566.316406 123 566.316406 119.269531 C 566.316406 115.535156 569.339844 112.511719 573.074219 112.511719 C 576.804688 112.511719 579.828125 115.535156 579.828125 119.269531 "/>
<path style="fill-rule:nonzero;fill:rgb(18.431373%,30.980392%,30.980392%);fill-opacity:1;stroke-width:0.708661;stroke-linecap:round;stroke-linejoin:round;stroke:rgb(18.431373%,30.980392%,30.980392%);stroke-opacity:1;stroke-miterlimit:10;" d="M 586.878906 113.910156 C 586.878906 117.644531 583.851562 120.667969 580.121094 120.667969 C 576.390625 120.667969 573.367188 117.644531 573.367188 113.910156 C 573.367188 110.179688 576.390625 107.15625 580.121094 107.15625 C 583.851562 107.15625 586.878906 110.179688 586.878906 113.910156 "/>
<path style="fill-rule:nonzero;fill:rgb(18.431373%,30.980392%,30.980392%);fill-opacity:1;stroke-width:0.708661;stroke-linecap:round;stroke-linejoin:round;stroke:rgb(18.431373%,30.980392%,30.980392%);stroke-opacity:1;stroke-miterlimit:10;" d="M 593.925781 117.949219 C 593.925781 121.679688 590.902344 124.707031 587.171875 124.707031 C 583.441406 124.707031 580.414062 121.679688 580.414062 117.949219 C 580.414062 114.21875 583.441406 111.191406 587.171875 111.191406 C 590.902344 111.191406 593.925781 114.21875 593.925781 117.949219 "/>
<path style="fill-rule:nonzero;fill:rgb(18.431373%,30.980392%,30.980392%);fill-opacity:1;stroke-width:0.708661;stroke-linecap:round;stroke-linejoin:round;stroke:rgb(18.431373%,30.980392%,30.980392%);stroke-opacity:1;stroke-miterlimit:10;" d="M 600.976562 112.960938 C 600.976562 116.691406 597.953125 119.714844 594.21875 119.714844 C 590.488281 119.714844 587.464844 116.691406 587.464844 112.960938 C 587.464844 109.226562 590.488281 106.203125 594.21875 106.203125 C 597.953125 106.203125 600.976562 109.226562 600.976562 112.960938 "/>
<path style="fill-rule:nonzero;fill:rgb(18.431373%,30.980392%,30.980392%);fill-opacity:1;stroke-width:0.708661;stroke-linecap:round;stroke-linejoin:round;stroke:rgb(18.431373%,30.980392%,30.980392%);stroke-opacity:1;stroke-miterlimit:10;" d="M 608.027344 100.308594 C 608.027344 104.039062 605 107.0625 601.269531 107.0625 C 597.539062 107.0625 594.511719 104.039062 594.511719 100.308594 C 594.511719 96.578125 597.539062 93.550781 601.269531 93.550781 C 605 93.550781 608.027344 96.578125 608.027344 100.308594 "/>
<path style="fill-rule:nonzero;fill:rgb(18.431373%,30.980392%,30.980392%);fill-opacity:1;stroke-width:0.708661;stroke-linecap:round;stroke-linejoin:round;stroke:rgb(18.431373%,30.980392%,30.980392%);stroke-opacity:1;stroke-miterlimit:10;" d="M 615.074219 97.945312 C 615.074219 101.675781 612.050781 104.703125 608.320312 104.703125 C 604.585938 104.703125 601.5625 101.675781 601.5625 97.945312 C 601.5625 94.214844 604.585938 91.191406 608.320312 91.191406 C 612.050781 91.191406 615.074219 94.214844 615.074219 97.945312 "/>
<path style="fill-rule:nonzero;fill:rgb(18.431373%,30.980392%,30.980392%);fill-opacity:1;stroke-width:0.708661;stroke-linecap:round;stroke-linejoin:round;stroke:rgb(18.431373%,30.980392%,30.980392%);stroke-opacity:1;stroke-miterlimit:10;" d="M 622.125 95.902344 C 622.125 99.632812 619.097656 102.660156 615.367188 102.660156 C 611.636719 102.660156 608.613281 99.632812 608.613281 95.902344 C 608.613281 92.171875 611.636719 89.148438 615.367188 89.148438 C 619.097656 89.148438 622.125 92.171875 622.125 95.902344 "/>
<path style="fill-rule:nonzero;fill:rgb(18.431373%,30.980392%,30.980392%);fill-opacity:1;stroke-width:0.708661;stroke-linecap:round;stroke-linejoin:round;stroke:rgb(18.431373%,30.980392%,30.980392%);stroke-opacity:1;stroke-miterlimit:10;" d="M 629.171875 93.320312 C 629.171875 97.050781 626.148438 100.074219 622.417969 100.074219 C 618.6875 100.074219 615.660156 97.050781 615.660156 93.320312 C 615.660156 89.589844 618.6875 86.5625 622.417969 86.5625 C 626.148438 86.5625 629.171875 89.589844 629.171875 93.320312 "/>
<path style="fill-rule:nonzero;fill:rgb(18.431373%,30.980392%,30.980392%);fill-opacity:1;stroke-width:0.708661;stroke-linecap:round;stroke-linejoin:round;stroke:rgb(18.431373%,30.980392%,30.980392%);stroke-opacity:1;stroke-miterlimit:10;" d="M 636.222656 85.175781 C 636.222656 88.90625 633.199219 91.929688 629.464844 91.929688 C 625.734375 91.929688 622.710938 88.90625 622.710938 85.175781 C 622.710938 81.445312 625.734375 78.417969 629.464844 78.417969 C 633.199219 78.417969 636.222656 81.445312 636.222656 85.175781 "/>
<path style="fill-rule:nonzero;fill:rgb(18.431373%,30.980392%,30.980392%);fill-opacity:1;stroke-width:0.708661;stroke-linecap:round;stroke-linejoin:round;stroke:rgb(18.431373%,30.980392%,30.980392%);stroke-opacity:1;stroke-miterlimit:10;" d="M 643.273438 82.070312 C 643.273438 85.800781 640.246094 88.828125 636.515625 88.828125 C 632.785156 88.828125 629.757812 85.800781 629.757812 82.070312 C 629.757812 78.339844 632.785156 75.316406 636.515625 75.316406 C 640.246094 75.316406 643.273438 78.339844 643.273438 82.070312 "/>
<path style="fill-rule:nonzero;fill:rgb(18.431373%,30.980392%,30.980392%);fill-opacity:1;stroke-width:0.708661;stroke-linecap:round;stroke-linejoin:round;stroke:rgb(18.431373%,30.980392%,30.980392%);stroke-opacity:1;stroke-miterlimit:10;" d="M 650.320312 78.453125 C 650.320312 82.1875 647.296875 85.210938 643.566406 85.210938 C 639.832031 85.210938 636.808594 82.1875 636.808594 78.453125 C 636.808594 74.722656 639.832031 71.699219 643.566406 71.699219 C 647.296875 71.699219 650.320312 74.722656 650.320312 78.453125 "/>
<path style="fill-rule:nonzero;fill:rgb(18.431373%,30.980392%,30.980392%);fill-opacity:1;stroke-width:0.708661;stroke-linecap:round;stroke-linejoin:round;stroke:rgb(18.431373%,30.980392%,30.980392%);stroke-opacity:1;stroke-miterlimit:10;" d="M 657.371094 70.632812 C 657.371094 74.363281 654.34375 77.386719 650.613281 77.386719 C 646.882812 77.386719 643.859375 74.363281 643.859375 70.632812 C 643.859375 66.902344 646.882812 63.875 650.613281 63.875 C 654.34375 63.875 657.371094 66.902344 657.371094 70.632812 "/>
<path style="fill-rule:nonzero;fill:rgb(18.431373%,30.980392%,30.980392%);fill-opacity:1;stroke-width:0.708661;stroke-linecap:round;stroke-linejoin:round;stroke:rgb(18.431373%,30.980392%,30.980392%);stroke-opacity:1;stroke-miterlimit:10;" d="M 664.417969 64.921875 C 664.417969 68.652344 661.394531 71.675781 657.664062 71.675781 C 653.933594 71.675781 650.90625 68.652344 650.90625 64.921875 C 650.90625 61.1875 653.933594 58.164062 657.664062 58.164062 C 661.394531 58.164062 664.417969 61.1875 664.417969 64.921875 "/>
<path style="fill-rule:nonzero;fill:rgb(18.431373%,30.980392%,30.980392%);fill-opacity:1;stroke-width:0.708661;stroke-linecap:round;stroke-linejoin:round;stroke:rgb(18.431373%,30.980392%,30.980392%);stroke-opacity:1;stroke-miterlimit:10;" d="M 671.46875 58.359375 C 671.46875 62.089844 668.445312 65.113281 664.710938 65.113281 C 660.980469 65.113281 657.957031 62.089844 657.957031 58.359375 C 657.957031 54.628906 660.980469 51.601562 664.710938 51.601562 C 668.445312 51.601562 671.46875 54.628906 671.46875 58.359375 "/>
<path style="fill-rule:nonzero;fill:rgb(18.431373%,30.980392%,30.980392%);fill-opacity:1;stroke-width:0.708661;stroke-linecap:round;stroke-linejoin:round;stroke:rgb(18.431373%,30.980392%,30.980392%);stroke-opacity:1;stroke-miterlimit:10;" d="M 678.519531 58.316406 C 678.519531 62.046875 675.492188 65.074219 671.761719 65.074219 C 668.03125 65.074219 665.003906 62.046875 665.003906 58.316406 C 665.003906 54.585938 668.03125 51.558594 671.761719 51.558594 C 675.492188 51.558594 678.519531 54.585938 678.519531 58.316406 "/>
<path style="fill-rule:nonzero;fill:rgb(18.431373%,30.980392%,30.980392%);fill-opacity:1;stroke-width:0.708661;stroke-linecap:round;stroke-linejoin:round;stroke:rgb(18.431373%,30.980392%,30.980392%);stroke-opacity:1;stroke-miterlimit:10;" d="M 685.566406 44.195312 C 685.566406 47.925781 682.542969 50.953125 678.8125 50.953125 C 675.078125 50.953125 672.054688 47.925781 672.054688 44.195312 C 672.054688 40.464844 675.078125 37.441406 678.8125 37.441406 C 682.542969 37.441406 685.566406 40.464844 685.566406 44.195312 "/>
<path style="fill-rule:nonzero;fill:rgb(18.431373%,30.980392%,30.980392%);fill-opacity:1;stroke-width:0.708661;stroke-linecap:round;stroke-linejoin:round;stroke:rgb(18.431373%,30.980392%,30.980392%);stroke-opacity:1;stroke-miterlimit:10;" d="M 692.617188 44.652344 C 692.617188 48.386719 689.589844 51.410156 685.859375 51.410156 C 682.128906 51.410156 679.105469 48.386719 679.105469 44.652344 C 679.105469 40.921875 682.128906 37.898438 685.859375 37.898438 C 689.589844 37.898438 692.617188 40.921875 692.617188 44.652344 "/>
<path style="fill-rule:nonzero;fill:rgb(18.431373%,30.980392%,30.980392%);fill-opacity:1;stroke-width:0.708661;stroke-linecap:round;stroke-linejoin:round;stroke:rgb(18.431373%,30.980392%,30.980392%);stroke-opacity:1;stroke-miterlimit:10;" d="M 699.664062 39.25 C 699.664062 42.984375 696.640625 46.007812 692.910156 46.007812 C 689.179688 46.007812 686.152344 42.984375 686.152344 39.25 C 686.152344 35.519531 689.179688 32.496094 692.910156 32.496094 C 696.640625 32.496094 699.664062 35.519531 699.664062 39.25 "/>
<path style="fill-rule:nonzero;fill:rgb(18.431373%,30.980392%,30.980392%);fill-opacity:1;stroke-width:0.708661;stroke-linecap:round;stroke-linejoin:round;stroke:rgb(18.431373%,30.980392%,30.980392%);stroke-opacity:1;stroke-miterlimit:10;" d="M 706.714844 35.351562 C 706.714844 39.082031 703.691406 42.105469 699.957031 42.105469 C 696.226562 42.105469 693.203125 39.082031 693.203125 35.351562 C 693.203125 31.617188 696.226562 28.59375 699.957031 28.59375 C 703.691406 28.59375 706.714844 31.617188 706.714844 35.351562 "/>
<path style="fill-rule:nonzero;fill:rgb(18.431373%,30.980392%,30.980392%);fill-opacity:1;stroke-width:0.708661;stroke-linecap:round;stroke-linejoin:round;stroke:rgb(18.431373%,30.980392%,30.980392%);stroke-opacity:1;stroke-miterlimit:10;" d="M 713.765625 29.816406 C 713.765625 33.546875 710.738281 36.570312 707.007812 36.570312 C 703.277344 36.570312 700.25 33.546875 700.25 29.816406 C 700.25 26.085938 703.277344 23.058594 707.007812 23.058594 C 710.738281 23.058594 713.765625 26.085938 713.765625 29.816406 "/>
<path style="fill-rule:nonzero;fill:rgb(18.431373%,30.980392%,30.980392%);fill-opacity:1;stroke-width:0.708661;stroke-linecap:round;stroke-linejoin:round;stroke:rgb(18.431373%,30.980392%,30.980392%);stroke-opacity:1;stroke-miterlimit:10;" d="M 720.8125 22.664062 C 720.8125 26.398438 717.789062 29.421875 714.058594 29.421875 C 710.324219 29.421875 707.300781 26.398438 707.300781 22.664062 C 707.300781 18.933594 710.324219 15.910156 714.058594 15.910156 C 717.789062 15.910156 720.8125 18.933594 720.8125 22.664062 "/>
<path style="fill-rule:nonzero;fill:rgb(18.431373%,30.980392%,30.980392%);fill-opacity:1;stroke-width:0.708661;stroke-linecap:round;stroke-linejoin:round;stroke:rgb(18.431373%,30.980392%,30.980392%);stroke-opacity:1;stroke-miterlimit:10;" d="M 727.863281 16.894531 C 727.863281 20.625 724.835938 23.648438 721.105469 23.648438 C 717.375 23.648438 714.351562 20.625 714.351562 16.894531 C 714.351562 13.164062 717.375 10.136719 721.105469 10.136719 C 724.835938 10.136719 727.863281 13.164062 727.863281 16.894531 "/>
<path style="fill:none;stroke-width:6.40187;stroke-linecap:butt;stroke-linejoin:round;stroke:rgb(94.117647%,50.196078%,50.196078%);stroke-opacity:1;stroke-miterlimit:10;" d="M 23.234375 354.765625 L 32.066406 351.066406 L 40.902344 347.367188 L 49.734375 343.667969 L 58.570312 339.96875 L 67.402344 336.265625 L 76.238281 332.566406 L 93.902344 325.167969 L 102.738281 321.46875 L 111.570312 317.769531 L 120.40625 314.066406 L 129.238281 310.367188 L 138.074219 306.667969 L 146.90625 302.96875 L 155.742188 299.269531 L 164.574219 295.566406 L 173.410156 291.867188 L 182.242188 288.167969 L 191.078125 284.46875 L 208.742188 277.070312 L 217.578125 273.367188 L 226.410156 269.667969 L 235.246094 265.96875 L 244.078125 262.269531 L 252.914062 258.570312 L 261.746094 254.871094 L 270.582031 251.167969 L 279.414062 247.46875 L 288.25 243.769531 L 297.082031 240.070312 L 305.917969 236.371094 L 314.75 232.671875 L 323.582031 228.96875 L 332.417969 225.269531 L 341.25 221.570312 L 350.085938 217.871094 L 358.917969 214.171875 L 367.753906 210.46875 L 376.585938 206.769531 L 385.421875 203.070312 L 394.253906 199.371094 L 403.089844 195.671875 L 411.921875 191.972656 L 420.757812 188.269531 L 438.421875 180.871094 L 447.257812 177.171875 L 456.089844 173.472656 L 464.925781 169.773438 L 473.757812 166.070312 L 482.59375 162.371094 L 491.425781 158.671875 L 500.261719 154.972656 L 509.09375 151.273438 L 517.929688 147.574219 L 526.761719 143.871094 L 535.597656 140.171875 L 553.261719 132.773438 L 562.097656 129.074219 L 570.929688 125.375 L 579.765625 121.671875 L 588.597656 117.972656 L 597.433594 114.273438 L 606.265625 110.574219 L 615.101562 106.875 L 623.933594 103.171875 L 632.769531 99.472656 L 641.601562 95.773438 L 650.4375 92.074219 L 668.101562 84.675781 L 676.9375 80.972656 L 685.769531 77.273438 L 694.605469 73.574219 L 703.4375 69.875 L 712.273438 66.175781 L 721.105469 62.476562 "/>
</g>
</svg>
