<?xml version="1.0" encoding="UTF-8"?>
<svg xmlns="http://www.w3.org/2000/svg" xmlns:xlink="http://www.w3.org/1999/xlink" width="756pt" height="467pt" viewBox="0 0 756 467" version="1.1">
<g id="surface54">
<rect x="0" y="0" width="756" height="467" style="fill:rgb(100%,100%,100%);fill-opacity:1;stroke:none;"/>
<path style="fill:none;stroke-width:6.40187;stroke-linecap:butt;stroke-linejoin:round;stroke:rgb(90.196078%,25.490196%,45.098039%);stroke-opacity:0.298039;stroke-miterlimit:10;" d="M 0 378.882812 L 756 125.621094 "/>
<path style="fill:none;stroke-width:0.708661;stroke-linecap:round;stroke-linejoin:round;stroke:rgb(18.431373%,30.980392%,30.980392%);stroke-opacity:1;stroke-miterlimit:10;" d="M 375.375 216.074219 C 375.375 219.808594 372.347656 222.832031 368.617188 222.832031 C 364.886719 222.832031 361.863281 219.808594 361.863281 216.074219 C 361.863281 212.34375 364.886719 209.320312 368.617188 209.320312 C 372.347656 209.320312 375.375 212.34375 375.375 216.074219 "/>
<path style="fill-rule:nonzero;fill:rgb(18.431373%,30.980392%,30.980392%);fill-opacity:1;stroke-width:0.708661;stroke-linecap:round;stroke-linejoin:round;stroke:rgb(18.431373%,30.980392%,30.980392%);stroke-opacity:1;stroke-miterlimit:10;" d="M 198.246094 203.167969 C 198.246094 206.902344 195.222656 209.925781 191.488281 209.925781 C 187.757812 209.925781 184.734375 206.902344 184.734375 203.167969 C 184.734375 199.4375 187.757812 196.414062 191.488281 196.414062 C 195.222656 196.414062 198.246094 199.4375 198.246094 203.167969 "/>
<path style="fill-rule:nonzero;fill:rgb(18.431373%,30.980392%,30.980392%);fill-opacity:1;stroke-width:0.708661;stroke-linecap:round;stroke-linejoin:round;stroke:rgb(18.431373%,30.980392%,30.980392%);stroke-opacity:1;stroke-miterlimit:10;" d="M 453.222656 456.902344 C 453.222656 460.632812 450.195312 463.660156 446.464844 463.660156 C 442.734375 463.660156 439.710938 460.632812 439.710938 456.902344 C 439.710938 453.171875 442.734375 450.148438 446.464844 450.148438 C 450.195312 450.148438 453.222656 453.171875 453.222656 456.902344 "/>
<path style="fill:none;stroke-width:0.708661;stroke-linecap:round;stroke-linejoin:round;stroke:rgb(18.431373%,30.980392%,30.980392%);stroke-opacity:1;stroke-miterlimit:10;" d="M 397.449219 306.710938 C 397.449219 310.441406 394.425781 313.464844 390.695312 313.464844 C 386.964844 313.464844 383.9375 310.441406 383.9375 306.710938 C 383.9375 302.976562 386.964844 299.953125 390.695312 299.953125 C 394.425781 299.953125 397.449219 302.976562 397.449219 306.710938 "/>
<path style="fill-rule:nonzero;fill:rgb(18.431373%,30.980392%,30.980392%);fill-opacity:1;stroke-width:0.708661;stroke-linecap:round;stroke-linejoin:round;stroke:rgb(18.431373%,30.980392%,30.980392%);stroke-opacity:1;stroke-miterlimit:10;" d="M 315.292969 190.507812 C 315.292969 194.238281 312.269531 197.261719 308.539062 197.261719 C 304.808594 197.261719 301.78125 194.238281 301.78125 190.507812 C 301.78125 186.773438 304.808594 183.75 308.539062 183.75 C 312.269531 183.75 315.292969 186.773438 315.292969 190.507812 "/>
<path style="fill:none;stroke-width:0.708661;stroke-linecap:round;stroke-linejoin:round;stroke:rgb(18.431373%,30.980392%,30.980392%);stroke-opacity:1;stroke-miterlimit:10;" d="M 402.832031 279.652344 C 402.832031 283.386719 399.808594 286.410156 396.078125 286.410156 C 392.347656 286.410156 389.320312 283.386719 389.320312 279.652344 C 389.320312 275.921875 392.347656 272.898438 396.078125 272.898438 C 399.808594 272.898438 402.832031 275.921875 402.832031 279.652344 "/>
<path style="fill:none;stroke-width:0.708661;stroke-linecap:round;stroke-linejoin:round;stroke:rgb(18.431373%,30.980392%,30.980392%);stroke-opacity:1;stroke-miterlimit:10;" d="M 396.246094 192.375 C 396.246094 196.109375 393.21875 199.132812 389.488281 199.132812 C 385.757812 199.132812 382.730469 196.109375 382.730469 192.375 C 382.730469 188.644531 385.757812 185.621094 389.488281 185.621094 C 393.21875 185.621094 396.246094 188.644531 396.246094 192.375 "/>
<path style="fill:none;stroke-width:0.708661;stroke-linecap:round;stroke-linejoin:round;stroke:rgb(18.431373%,30.980392%,30.980392%);stroke-opacity:1;stroke-miterlimit:10;" d="M 283.292969 375.691406 C 283.292969 379.421875 280.265625 382.445312 276.535156 382.445312 C 272.804688 382.445312 269.78125 379.421875 269.78125 375.691406 C 269.78125 371.960938 272.804688 368.933594 276.535156 368.933594 C 280.265625 368.933594 283.292969 371.960938 283.292969 375.691406 "/>
<path style="fill:none;stroke-width:0.708661;stroke-linecap:round;stroke-linejoin:round;stroke:rgb(18.431373%,30.980392%,30.980392%);stroke-opacity:1;stroke-miterlimit:10;" d="M 483.957031 246.445312 C 483.957031 250.175781 480.929688 253.203125 477.199219 253.203125 C 473.46875 253.203125 470.441406 250.175781 470.441406 246.445312 C 470.441406 242.714844 473.46875 239.691406 477.199219 239.691406 C 480.929688 239.691406 483.957031 242.714844 483.957031 246.445312 "/>
<path style="fill:none;stroke-width:0.708661;stroke-linecap:round;stroke-linejoin:round;stroke:rgb(18.431373%,30.980392%,30.980392%);stroke-opacity:1;stroke-miterlimit:10;" d="M 582.179688 88.691406 C 582.179688 92.421875 579.15625 95.445312 575.421875 95.445312 C 571.691406 95.445312 568.667969 92.421875 568.667969 88.691406 C 568.667969 84.957031 571.691406 81.933594 575.421875 81.933594 C 579.15625 81.933594 582.179688 84.957031 582.179688 88.691406 "/>
<path style="fill:none;stroke-width:0.708661;stroke-linecap:round;stroke-linejoin:round;stroke:rgb(18.431373%,30.980392%,30.980392%);stroke-opacity:1;stroke-miterlimit:10;" d="M 301.566406 398.035156 C 301.566406 401.765625 298.542969 404.789062 294.808594 404.789062 C 291.078125 404.789062 288.054688 401.765625 288.054688 398.035156 C 288.054688 394.300781 291.078125 391.277344 294.808594 391.277344 C 298.542969 391.277344 301.566406 394.300781 301.566406 398.035156 "/>
<path style="fill:none;stroke-width:0.708661;stroke-linecap:round;stroke-linejoin:round;stroke:rgb(18.431373%,30.980392%,30.980392%);stroke-opacity:1;stroke-miterlimit:10;" d="M 257.53125 239.453125 C 257.53125 243.183594 254.507812 246.210938 250.773438 246.210938 C 247.042969 246.210938 244.019531 243.183594 244.019531 239.453125 C 244.019531 235.722656 247.042969 232.699219 250.773438 232.699219 C 254.507812 232.699219 257.53125 235.722656 257.53125 239.453125 "/>
<path style="fill:none;stroke-width:0.708661;stroke-linecap:round;stroke-linejoin:round;stroke:rgb(18.431373%,30.980392%,30.980392%);stroke-opacity:1;stroke-miterlimit:10;" d="M 403.332031 303.84375 C 403.332031 307.574219 400.308594 310.597656 396.578125 310.597656 C 392.84375 310.597656 389.820312 307.574219 389.820312 303.84375 C 389.820312 300.109375 392.84375 297.085938 396.578125 297.085938 C 400.308594 297.085938 403.332031 300.109375 403.332031 303.84375 "/>
<path style="fill-rule:nonzero;fill:rgb(18.431373%,30.980392%,30.980392%);fill-opacity:1;stroke-width:0.708661;stroke-linecap:round;stroke-linejoin:round;stroke:rgb(18.431373%,30.980392%,30.980392%);stroke-opacity:1;stroke-miterlimit:10;" d="M 310.117188 295.15625 C 310.117188 298.886719 307.09375 301.914062 303.363281 301.914062 C 299.632812 301.914062 296.605469 298.886719 296.605469 295.15625 C 296.605469 291.425781 299.632812 288.402344 303.363281 288.402344 C 307.09375 288.402344 310.117188 291.425781 310.117188 295.15625 "/>
<path style="fill:none;stroke-width:0.708661;stroke-linecap:round;stroke-linejoin:round;stroke:rgb(18.431373%,30.980392%,30.980392%);stroke-opacity:1;stroke-miterlimit:10;" d="M 593.003906 195.253906 C 593.003906 198.984375 589.980469 202.011719 586.25 202.011719 C 582.519531 202.011719 579.492188 198.984375 579.492188 195.253906 C 579.492188 191.523438 582.519531 188.496094 586.25 188.496094 C 589.980469 188.496094 593.003906 191.523438 593.003906 195.253906 "/>
<path style="fill:none;stroke-width:0.708661;stroke-linecap:round;stroke-linejoin:round;stroke:rgb(18.431373%,30.980392%,30.980392%);stroke-opacity:1;stroke-miterlimit:10;" d="M 298.988281 149.585938 C 298.988281 153.316406 295.964844 156.34375 292.230469 156.34375 C 288.5 156.34375 285.476562 153.316406 285.476562 149.585938 C 285.476562 145.855469 288.5 142.828125 292.230469 142.828125 C 295.964844 142.828125 298.988281 145.855469 298.988281 149.585938 "/>
<path style="fill-rule:nonzero;fill:rgb(18.431373%,30.980392%,30.980392%);fill-opacity:1;stroke-width:0.708661;stroke-linecap:round;stroke-linejoin:round;stroke:rgb(18.431373%,30.980392%,30.980392%);stroke-opacity:1;stroke-miterlimit:10;" d="M 471.117188 190.140625 C 471.117188 193.871094 468.09375 196.898438 464.363281 196.898438 C 460.628906 196.898438 457.605469 193.871094 457.605469 190.140625 C 457.605469 186.410156 460.628906 183.386719 464.363281 183.386719 C 468.09375 183.386719 471.117188 186.410156 471.117188 190.140625 "/>
<path style="fill-rule:nonzero;fill:rgb(18.431373%,30.980392%,30.980392%);fill-opacity:1;stroke-width:0.708661;stroke-linecap:round;stroke-linejoin:round;stroke:rgb(18.431373%,30.980392%,30.980392%);stroke-opacity:1;stroke-miterlimit:10;" d="M 568.078125 284.621094 C 568.078125 288.351562 565.054688 291.375 561.324219 291.375 C 557.589844 291.375 554.566406 288.351562 554.566406 284.621094 C 554.566406 280.886719 557.589844 277.863281 561.324219 277.863281 C 565.054688 277.863281 568.078125 280.886719 568.078125 284.621094 "/>
<path style="fill:none;stroke-width:0.708661;stroke-linecap:round;stroke-linejoin:round;stroke:rgb(18.431373%,30.980392%,30.980392%);stroke-opacity:1;stroke-miterlimit:10;" d="M 727.863281 108.703125 C 727.863281 112.433594 724.835938 115.460938 721.105469 115.460938 C 717.375 115.460938 714.351562 112.433594 714.351562 108.703125 C 714.351562 104.972656 717.375 101.949219 721.105469 101.949219 C 724.835938 101.949219 727.863281 104.972656 727.863281 108.703125 "/>
<path style="fill:none;stroke-width:0.708661;stroke-linecap:round;stroke-linejoin:round;stroke:rgb(18.431373%,30.980392%,30.980392%);stroke-opacity:1;stroke-miterlimit:10;" d="M 425.90625 290.9375 C 425.90625 294.667969 422.878906 297.691406 419.148438 297.691406 C 415.417969 297.691406 412.394531 294.667969 412.394531 290.9375 C 412.394531 287.203125 415.417969 284.179688 419.148438 284.179688 C 422.878906 284.179688 425.90625 287.203125 425.90625 290.9375 "/>
<path style="fill-rule:nonzero;fill:rgb(18.431373%,30.980392%,30.980392%);fill-opacity:1;stroke-width:0.708661;stroke-linecap:round;stroke-linejoin:round;stroke:rgb(18.431373%,30.980392%,30.980392%);stroke-opacity:1;stroke-miterlimit:10;" d="M 614.90625 230.5625 C 614.90625 234.292969 611.878906 237.316406 608.148438 237.316406 C 604.417969 237.316406 601.390625 234.292969 601.390625 230.5625 C 601.390625 226.832031 604.417969 223.804688 608.148438 223.804688 C 611.878906 223.804688 614.90625 226.832031 614.90625 230.5625 "/>
<path style="fill:none;stroke-width:0.708661;stroke-linecap:round;stroke-linejoin:round;stroke:rgb(18.431373%,30.980392%,30.980392%);stroke-opacity:1;stroke-miterlimit:10;" d="M 450.296875 312.894531 C 450.296875 316.625 447.273438 319.648438 443.539062 319.648438 C 439.808594 319.648438 436.785156 316.625 436.785156 312.894531 C 436.785156 309.164062 439.808594 306.136719 443.539062 306.136719 C 447.273438 306.136719 450.296875 309.164062 450.296875 312.894531 "/>
<path style="fill:none;stroke-width:0.708661;stroke-linecap:round;stroke-linejoin:round;stroke:rgb(18.431373%,30.980392%,30.980392%);stroke-opacity:1;stroke-miterlimit:10;" d="M 390.984375 293.441406 C 390.984375 297.171875 387.957031 300.195312 384.226562 300.195312 C 380.496094 300.195312 377.472656 297.171875 377.472656 293.441406 C 377.472656 289.710938 380.496094 286.683594 384.226562 286.683594 C 387.957031 286.683594 390.984375 289.710938 390.984375 293.441406 "/>
<path style="fill:none;stroke-width:0.708661;stroke-linecap:round;stroke-linejoin:round;stroke:rgb(18.431373%,30.980392%,30.980392%);stroke-opacity:1;stroke-miterlimit:10;" d="M 426.105469 270.746094 C 426.105469 274.476562 423.078125 277.503906 419.347656 277.503906 C 415.617188 277.503906 412.59375 274.476562 412.59375 270.746094 C 412.59375 267.015625 415.617188 263.988281 419.347656 263.988281 C 423.078125 263.988281 426.105469 267.015625 426.105469 270.746094 "/>
<path style="fill:none;stroke-width:0.708661;stroke-linecap:round;stroke-linejoin:round;stroke:rgb(18.431373%,30.980392%,30.980392%);stroke-opacity:1;stroke-miterlimit:10;" d="M 570.476562 240.503906 C 570.476562 244.234375 567.449219 247.261719 563.71875 247.261719 C 559.988281 247.261719 556.964844 244.234375 556.964844 240.503906 C 556.964844 236.773438 559.988281 233.746094 563.71875 233.746094 C 567.449219 233.746094 570.476562 236.773438 570.476562 240.503906 "/>
<path style="fill:none;stroke-width:0.708661;stroke-linecap:round;stroke-linejoin:round;stroke:rgb(18.431373%,30.980392%,30.980392%);stroke-opacity:1;stroke-miterlimit:10;" d="M 408.785156 260.441406 C 408.785156 264.171875 405.761719 267.195312 402.03125 267.195312 C 398.300781 267.195312 395.273438 264.171875 395.273438 260.441406 C 395.273438 256.707031 398.300781 253.683594 402.03125 253.683594 C 405.761719 253.683594 408.785156 256.707031 408.785156 260.441406 "/>
<path style="fill-rule:nonzero;fill:rgb(18.431373%,30.980392%,30.980392%);fill-opacity:1;stroke-width:0.708661;stroke-linecap:round;stroke-linejoin:round;stroke:rgb(18.431373%,30.980392%,30.980392%);stroke-opacity:1;stroke-miterlimit:10;" d="M 360.914062 188.527344 C 360.914062 192.257812 357.890625 195.28125 354.160156 195.28125 C 350.429688 195.28125 347.402344 192.257812 347.402344 188.527344 C 347.402344 184.796875 350.429688 181.769531 354.160156 181.769531 C 357.890625 181.769531 360.914062 184.796875 360.914062 188.527344 "/>
<path style="fill-rule:nonzero;fill:rgb(18.431373%,30.980392%,30.980392%);fill-opacity:1;stroke-width:0.708661;stroke-linecap:round;stroke-linejoin:round;stroke:rgb(18.431373%,30.980392%,30.980392%);stroke-opacity:1;stroke-miterlimit:10;" d="M 266.816406 274.152344 C 266.816406 277.882812 263.792969 280.910156 260.058594 280.910156 C 256.328125 280.910156 253.304688 277.882812 253.304688 274.152344 C 253.304688 270.421875 256.328125 267.398438 260.058594 267.398438 C 263.792969 267.398438 266.816406 270.421875 266.816406 274.152344 "/>
<path style="fill-rule:nonzero;fill:rgb(18.431373%,30.980392%,30.980392%);fill-opacity:1;stroke-width:0.708661;stroke-linecap:round;stroke-linejoin:round;stroke:rgb(18.431373%,30.980392%,30.980392%);stroke-opacity:1;stroke-miterlimit:10;" d="M 128.78125 404.0625 C 128.78125 407.792969 125.757812 410.816406 122.027344 410.816406 C 118.296875 410.816406 115.269531 407.792969 115.269531 404.0625 C 115.269531 400.332031 118.296875 397.304688 122.027344 397.304688 C 125.757812 397.304688 128.78125 400.332031 128.78125 404.0625 "/>
<path style="fill:none;stroke-width:0.708661;stroke-linecap:round;stroke-linejoin:round;stroke:rgb(18.431373%,30.980392%,30.980392%);stroke-opacity:1;stroke-miterlimit:10;" d="M 543.925781 63.730469 C 543.925781 67.460938 540.902344 70.488281 537.171875 70.488281 C 533.4375 70.488281 530.414062 67.460938 530.414062 63.730469 C 530.414062 60 533.4375 56.976562 537.171875 56.976562 C 540.902344 56.976562 543.925781 60 543.925781 63.730469 "/>
<path style="fill-rule:nonzero;fill:rgb(18.431373%,30.980392%,30.980392%);fill-opacity:1;stroke-width:0.708661;stroke-linecap:round;stroke-linejoin:round;stroke:rgb(18.431373%,30.980392%,30.980392%);stroke-opacity:1;stroke-miterlimit:10;" d="M 290.898438 256.515625 C 290.898438 260.246094 287.875 263.273438 284.140625 263.273438 C 280.410156 263.273438 277.386719 260.246094 277.386719 256.515625 C 277.386719 252.785156 280.410156 249.761719 284.140625 249.761719 C 287.875 249.761719 290.898438 252.785156 290.898438 256.515625 "/>
<path style="fill:none;stroke-width:0.708661;stroke-linecap:round;stroke-linejoin:round;stroke:rgb(18.431373%,30.980392%,30.980392%);stroke-opacity:1;stroke-miterlimit:10;" d="M 439.464844 328.164062 C 439.464844 331.894531 436.441406 334.917969 432.710938 334.917969 C 428.976562 334.917969 425.953125 331.894531 425.953125 328.164062 C 425.953125 324.429688 428.976562 321.40625 432.710938 321.40625 C 436.441406 321.40625 439.464844 324.429688 439.464844 328.164062 "/>
<path style="fill:none;stroke-width:0.708661;stroke-linecap:round;stroke-linejoin:round;stroke:rgb(18.431373%,30.980392%,30.980392%);stroke-opacity:1;stroke-miterlimit:10;" d="M 486.0625 190.148438 C 486.0625 193.878906 483.039062 196.90625 479.308594 196.90625 C 475.574219 196.90625 472.550781 193.878906 472.550781 190.148438 C 472.550781 186.417969 475.574219 183.390625 479.308594 183.390625 C 483.039062 183.390625 486.0625 186.417969 486.0625 190.148438 "/>
<path style="fill-rule:nonzero;fill:rgb(18.431373%,30.980392%,30.980392%);fill-opacity:1;stroke-width:0.708661;stroke-linecap:round;stroke-linejoin:round;stroke:rgb(18.431373%,30.980392%,30.980392%);stroke-opacity:1;stroke-miterlimit:10;" d="M 512.273438 191.777344 C 512.273438 195.511719 509.246094 198.535156 505.515625 198.535156 C 501.785156 198.535156 498.757812 195.511719 498.757812 191.777344 C 498.757812 188.046875 501.785156 185.023438 505.515625 185.023438 C 509.246094 185.023438 512.273438 188.046875 512.273438 191.777344 "/>
<path style="fill-rule:nonzero;fill:rgb(18.431373%,30.980392%,30.980392%);fill-opacity:1;stroke-width:0.708661;stroke-linecap:round;stroke-linejoin:round;stroke:rgb(18.431373%,30.980392%,30.980392%);stroke-opacity:1;stroke-miterlimit:10;" d="M 255.222656 375.671875 C 255.222656 379.402344 252.195312 382.429688 248.464844 382.429688 C 244.734375 382.429688 241.707031 379.402344 241.707031 375.671875 C 241.707031 371.941406 244.734375 368.914062 248.464844 368.914062 C 252.195312 368.914062 255.222656 371.941406 255.222656 375.671875 "/>
<path style="fill:none;stroke-width:0.708661;stroke-linecap:round;stroke-linejoin:round;stroke:rgb(18.431373%,30.980392%,30.980392%);stroke-opacity:1;stroke-miterlimit:10;" d="M 655.269531 21.757812 C 655.269531 25.488281 652.246094 28.511719 648.515625 28.511719 C 644.78125 28.511719 641.757812 25.488281 641.757812 21.757812 C 641.757812 18.027344 644.78125 15 648.515625 15 C 652.246094 15 655.269531 18.027344 655.269531 21.757812 "/>
<path style="fill-rule:nonzero;fill:rgb(18.431373%,30.980392%,30.980392%);fill-opacity:1;stroke-width:0.708661;stroke-linecap:round;stroke-linejoin:round;stroke:rgb(18.431373%,30.980392%,30.980392%);stroke-opacity:1;stroke-miterlimit:10;" d="M 656.773438 140.140625 C 656.773438 143.875 653.746094 146.898438 650.015625 146.898438 C 646.285156 146.898438 643.257812 143.875 643.257812 140.140625 C 643.257812 136.410156 646.285156 133.386719 650.015625 133.386719 C 653.746094 133.386719 656.773438 136.410156 656.773438 140.140625 "/>
<path style="fill:none;stroke-width:0.708661;stroke-linecap:round;stroke-linejoin:round;stroke:rgb(18.431373%,30.980392%,30.980392%);stroke-opacity:1;stroke-miterlimit:10;" d="M 581.621094 150.511719 C 581.621094 154.242188 578.597656 157.269531 574.867188 157.269531 C 571.136719 157.269531 568.109375 154.242188 568.109375 150.511719 C 568.109375 146.78125 571.136719 143.757812 574.867188 143.757812 C 578.597656 143.757812 581.621094 146.78125 581.621094 150.511719 "/>
<path style="fill:none;stroke-width:0.708661;stroke-linecap:round;stroke-linejoin:round;stroke:rgb(18.431373%,30.980392%,30.980392%);stroke-opacity:1;stroke-miterlimit:10;" d="M 479.4375 260.125 C 479.4375 263.855469 476.410156 266.882812 472.679688 266.882812 C 468.949219 266.882812 465.925781 263.855469 465.925781 260.125 C 465.925781 256.394531 468.949219 253.371094 472.679688 253.371094 C 476.410156 253.371094 479.4375 256.394531 479.4375 260.125 "/>
<path style="fill:none;stroke-width:0.708661;stroke-linecap:round;stroke-linejoin:round;stroke:rgb(18.431373%,30.980392%,30.980392%);stroke-opacity:1;stroke-miterlimit:10;" d="M 393.773438 229.324219 C 393.773438 233.054688 390.75 236.078125 387.019531 236.078125 C 383.289062 236.078125 380.261719 233.054688 380.261719 229.324219 C 380.261719 225.589844 383.289062 222.566406 387.019531 222.566406 C 390.75 222.566406 393.773438 225.589844 393.773438 229.324219 "/>
<path style="fill-rule:nonzero;fill:rgb(18.431373%,30.980392%,30.980392%);fill-opacity:1;stroke-width:0.708661;stroke-linecap:round;stroke-linejoin:round;stroke:rgb(18.431373%,30.980392%,30.980392%);stroke-opacity:1;stroke-miterlimit:10;" d="M 480.636719 196.789062 C 480.636719 200.519531 477.609375 203.542969 473.878906 203.542969 C 470.148438 203.542969 467.121094 200.519531 467.121094 196.789062 C 467.121094 193.058594 470.148438 190.03125 473.878906 190.03125 C 477.609375 190.03125 480.636719 193.058594 480.636719 196.789062 "/>
<path style="fill-rule:nonzero;fill:rgb(18.431373%,30.980392%,30.980392%);fill-opacity:1;stroke-width:0.708661;stroke-linecap:round;stroke-linejoin:round;stroke:rgb(18.431373%,30.980392%,30.980392%);stroke-opacity:1;stroke-miterlimit:10;" d="M 511.210938 158.246094 C 511.210938 161.976562 508.183594 165 504.453125 165 C 500.722656 165 497.699219 161.976562 497.699219 158.246094 C 497.699219 154.511719 500.722656 151.488281 504.453125 151.488281 C 508.183594 151.488281 511.210938 154.511719 511.210938 158.246094 "/>
<path style="fill-rule:nonzero;fill:rgb(18.431373%,30.980392%,30.980392%);fill-opacity:1;stroke-width:0.708661;stroke-linecap:round;stroke-linejoin:round;stroke:rgb(18.431373%,30.980392%,30.980392%);stroke-opacity:1;stroke-miterlimit:10;" d="M 555.632812 262.765625 C 555.632812 266.496094 552.605469 269.519531 548.875 269.519531 C 545.144531 269.519531 542.117188 266.496094 542.117188 262.765625 C 542.117188 259.035156 545.144531 256.007812 548.875 256.007812 C 552.605469 256.007812 555.632812 259.035156 555.632812 262.765625 "/>
<path style="fill:none;stroke-width:0.708661;stroke-linecap:round;stroke-linejoin:round;stroke:rgb(18.431373%,30.980392%,30.980392%);stroke-opacity:1;stroke-miterlimit:10;" d="M 331.941406 257.039062 C 331.941406 260.773438 328.917969 263.796875 325.1875 263.796875 C 321.453125 263.796875 318.429688 260.773438 318.429688 257.039062 C 318.429688 253.308594 321.453125 250.285156 325.1875 250.285156 C 328.917969 250.285156 331.941406 253.308594 331.941406 257.039062 "/>
<path style="fill:none;stroke-width:0.708661;stroke-linecap:round;stroke-linejoin:round;stroke:rgb(18.431373%,30.980392%,30.980392%);stroke-opacity:1;stroke-miterlimit:10;" d="M 341.550781 291.539062 C 341.550781 295.269531 338.527344 298.292969 334.796875 298.292969 C 331.0625 298.292969 328.039062 295.269531 328.039062 291.539062 C 328.039062 287.808594 331.0625 284.78125 334.796875 284.78125 C 338.527344 284.78125 341.550781 287.808594 341.550781 291.539062 "/>
<path style="fill:none;stroke-width:0.708661;stroke-linecap:round;stroke-linejoin:round;stroke:rgb(18.431373%,30.980392%,30.980392%);stroke-opacity:1;stroke-miterlimit:10;" d="M 360.597656 295.628906 C 360.597656 299.359375 357.570312 302.382812 353.839844 302.382812 C 350.109375 302.382812 347.082031 299.359375 347.082031 295.628906 C 347.082031 291.894531 350.109375 288.871094 353.839844 288.871094 C 357.570312 288.871094 360.597656 291.894531 360.597656 295.628906 "/>
<path style="fill:none;stroke-width:0.708661;stroke-linecap:round;stroke-linejoin:round;stroke:rgb(18.431373%,30.980392%,30.980392%);stroke-opacity:1;stroke-miterlimit:10;" d="M 242.738281 250.191406 C 242.738281 253.921875 239.710938 256.945312 235.980469 256.945312 C 232.25 256.945312 229.222656 253.921875 229.222656 250.191406 C 229.222656 246.457031 232.25 243.433594 235.980469 243.433594 C 239.710938 243.433594 242.738281 246.457031 242.738281 250.191406 "/>
<path style="fill-rule:nonzero;fill:rgb(18.431373%,30.980392%,30.980392%);fill-opacity:1;stroke-width:0.708661;stroke-linecap:round;stroke-linejoin:round;stroke:rgb(18.431373%,30.980392%,30.980392%);stroke-opacity:1;stroke-miterlimit:10;" d="M 467.671875 142.96875 C 467.671875 146.699219 464.648438 149.726562 460.917969 149.726562 C 457.183594 149.726562 454.160156 146.699219 454.160156 142.96875 C 454.160156 139.238281 457.183594 136.210938 460.917969 136.210938 C 464.648438 136.210938 467.671875 139.238281 467.671875 142.96875 "/>
<path style="fill:none;stroke-width:0.708661;stroke-linecap:round;stroke-linejoin:round;stroke:rgb(18.431373%,30.980392%,30.980392%);stroke-opacity:1;stroke-miterlimit:10;" d="M 475.1875 233.828125 C 475.1875 237.558594 472.164062 240.585938 468.433594 240.585938 C 464.703125 240.585938 461.675781 237.558594 461.675781 233.828125 C 461.675781 230.097656 464.703125 227.070312 468.433594 227.070312 C 472.164062 227.070312 475.1875 230.097656 475.1875 233.828125 "/>
<path style="fill:none;stroke-width:0.708661;stroke-linecap:round;stroke-linejoin:round;stroke:rgb(18.431373%,30.980392%,30.980392%);stroke-opacity:1;stroke-miterlimit:10;" d="M 621.328125 216.261719 C 621.328125 219.992188 618.304688 223.015625 614.574219 223.015625 C 610.839844 223.015625 607.816406 219.992188 607.816406 216.261719 C 607.816406 212.53125 610.839844 209.503906 614.574219 209.503906 C 618.304688 209.503906 621.328125 212.53125 621.328125 216.261719 "/>
<path style="fill:none;stroke-width:0.708661;stroke-linecap:round;stroke-linejoin:round;stroke:rgb(18.431373%,30.980392%,30.980392%);stroke-opacity:1;stroke-miterlimit:10;" d="M 313.070312 255.773438 C 313.070312 259.503906 310.046875 262.53125 306.316406 262.53125 C 302.582031 262.53125 299.558594 259.503906 299.558594 255.773438 C 299.558594 252.042969 302.582031 249.019531 306.316406 249.019531 C 310.046875 249.019531 313.070312 252.042969 313.070312 255.773438 "/>
<path style="fill:none;stroke-width:0.708661;stroke-linecap:round;stroke-linejoin:round;stroke:rgb(18.431373%,30.980392%,30.980392%);stroke-opacity:1;stroke-miterlimit:10;" d="M 239.515625 349.664062 C 239.515625 353.398438 236.492188 356.421875 232.761719 356.421875 C 229.027344 356.421875 226.003906 353.398438 226.003906 349.664062 C 226.003906 345.933594 229.027344 342.910156 232.761719 342.910156 C 236.492188 342.910156 239.515625 345.933594 239.515625 349.664062 "/>
<path style="fill:none;stroke-width:0.708661;stroke-linecap:round;stroke-linejoin:round;stroke:rgb(18.431373%,30.980392%,30.980392%);stroke-opacity:1;stroke-miterlimit:10;" d="M 548.179688 227.765625 C 548.179688 231.496094 545.15625 234.519531 541.425781 234.519531 C 537.695312 234.519531 534.667969 231.496094 534.667969 227.765625 C 534.667969 224.03125 537.695312 221.007812 541.425781 221.007812 C 545.15625 221.007812 548.179688 224.03125 548.179688 227.765625 "/>
<path style="fill:none;stroke-width:0.708661;stroke-linecap:round;stroke-linejoin:round;stroke:rgb(18.431373%,30.980392%,30.980392%);stroke-opacity:1;stroke-miterlimit:10;" d="M 473.703125 300.449219 C 473.703125 304.179688 470.679688 307.203125 466.945312 307.203125 C 463.214844 307.203125 460.191406 304.179688 460.191406 300.449219 C 460.191406 296.714844 463.214844 293.691406 466.945312 293.691406 C 470.679688 293.691406 473.703125 296.714844 473.703125 300.449219 "/>
<path style="fill:none;stroke-width:0.708661;stroke-linecap:round;stroke-linejoin:round;stroke:rgb(18.431373%,30.980392%,30.980392%);stroke-opacity:1;stroke-miterlimit:10;" d="M 303.601562 328.523438 C 303.601562 332.253906 300.574219 335.28125 296.84375 335.28125 C 293.113281 335.28125 290.089844 332.253906 290.089844 328.523438 C 290.089844 324.792969 293.113281 321.769531 296.84375 321.769531 C 300.574219 321.769531 303.601562 324.792969 303.601562 328.523438 "/>
<path style="fill:none;stroke-width:0.708661;stroke-linecap:round;stroke-linejoin:round;stroke:rgb(18.431373%,30.980392%,30.980392%);stroke-opacity:1;stroke-miterlimit:10;" d="M 457.496094 261.210938 C 457.496094 264.941406 454.472656 267.964844 450.742188 267.964844 C 447.007812 267.964844 443.984375 264.941406 443.984375 261.210938 C 443.984375 257.476562 447.007812 254.453125 450.742188 254.453125 C 454.472656 254.453125 457.496094 257.476562 457.496094 261.210938 "/>
<path style="fill:none;stroke-width:0.708661;stroke-linecap:round;stroke-linejoin:round;stroke:rgb(18.431373%,30.980392%,30.980392%);stroke-opacity:1;stroke-miterlimit:10;" d="M 534.953125 117.664062 C 534.953125 121.394531 531.925781 124.421875 528.195312 124.421875 C 524.464844 124.421875 521.4375 121.394531 521.4375 117.664062 C 521.4375 113.933594 524.464844 110.910156 528.195312 110.910156 C 531.925781 110.910156 534.953125 113.933594 534.953125 117.664062 "/>
<path style="fill-rule:nonzero;fill:rgb(18.431373%,30.980392%,30.980392%);fill-opacity:1;stroke-width:0.708661;stroke-linecap:round;stroke-linejoin:round;stroke:rgb(18.431373%,30.980392%,30.980392%);stroke-opacity:1;stroke-miterlimit:10;" d="M 312.917969 175.8125 C 312.917969 179.542969 309.890625 182.570312 306.160156 182.570312 C 302.429688 182.570312 299.402344 179.542969 299.402344 175.8125 C 299.402344 172.082031 302.429688 169.058594 306.160156 169.058594 C 309.890625 169.058594 312.917969 172.082031 312.917969 175.8125 "/>
<path style="fill-rule:nonzero;fill:rgb(18.431373%,30.980392%,30.980392%);fill-opacity:1;stroke-width:0.708661;stroke-linecap:round;stroke-linejoin:round;stroke:rgb(18.431373%,30.980392%,30.980392%);stroke-opacity:1;stroke-miterlimit:10;" d="M 596.15625 179.125 C 596.15625 182.855469 593.132812 185.882812 589.402344 185.882812 C 585.667969 185.882812 582.644531 182.855469 582.644531 179.125 C 582.644531 175.394531 585.667969 172.367188 589.402344 172.367188 C 593.132812 172.367188 596.15625 175.394531 596.15625 179.125 "/>
<path style="fill:none;stroke-width:0.708661;stroke-linecap:round;stroke-linejoin:round;stroke:rgb(18.431373%,30.980392%,30.980392%);stroke-opacity:1;stroke-miterlimit:10;" d="M 434.898438 262.003906 C 434.898438 265.734375 431.875 268.761719 428.140625 268.761719 C 424.410156 268.761719 421.386719 265.734375 421.386719 262.003906 C 421.386719 258.273438 424.410156 255.246094 428.140625 255.246094 C 431.875 255.246094 434.898438 258.273438 434.898438 262.003906 "/>
<path style="fill:none;stroke-width:0.708661;stroke-linecap:round;stroke-linejoin:round;stroke:rgb(18.431373%,30.980392%,30.980392%);stroke-opacity:1;stroke-miterlimit:10;" d="M 46.964844 417.78125 C 46.964844 421.515625 43.941406 424.539062 40.207031 424.539062 C 36.476562 424.539062 33.453125 421.515625 33.453125 417.78125 C 33.453125 414.050781 36.476562 411.027344 40.207031 411.027344 C 43.941406 411.027344 46.964844 414.050781 46.964844 417.78125 "/>
<path style="fill-rule:nonzero;fill:rgb(18.431373%,30.980392%,30.980392%);fill-opacity:1;stroke-width:0.708661;stroke-linecap:round;stroke-linejoin:round;stroke:rgb(18.431373%,30.980392%,30.980392%);stroke-opacity:1;stroke-miterlimit:10;" d="M 80.335938 403.601562 C 80.335938 407.332031 77.3125 410.359375 73.582031 410.359375 C 69.847656 410.359375 66.824219 407.332031 66.824219 403.601562 C 66.824219 399.871094 69.847656 396.847656 73.582031 396.847656 C 77.3125 396.847656 80.335938 399.871094 80.335938 403.601562 "/>
<path style="fill-rule:nonzero;fill:rgb(18.431373%,30.980392%,30.980392%);fill-opacity:1;stroke-width:0.708661;stroke-linecap:round;stroke-linejoin:round;stroke:rgb(18.431373%,30.980392%,30.980392%);stroke-opacity:1;stroke-miterlimit:10;" d="M 444.851562 192.792969 C 444.851562 196.523438 441.828125 199.546875 438.097656 199.546875 C 434.363281 199.546875 431.339844 196.523438 431.339844 192.792969 C 431.339844 189.058594 434.363281 186.035156 438.097656 186.035156 C 441.828125 186.035156 444.851562 189.058594 444.851562 192.792969 "/>
<path style="fill-rule:nonzero;fill:rgb(18.431373%,30.980392%,30.980392%);fill-opacity:1;stroke-width:0.708661;stroke-linecap:round;stroke-linejoin:round;stroke:rgb(18.431373%,30.980392%,30.980392%);stroke-opacity:1;stroke-miterlimit:10;" d="M 298.183594 214.191406 C 298.183594 217.921875 295.160156 220.945312 291.429688 220.945312 C 287.699219 220.945312 284.671875 217.921875 284.671875 214.191406 C 284.671875 210.460938 287.699219 207.433594 291.429688 207.433594 C 295.160156 207.433594 298.183594 210.460938 298.183594 214.191406 "/>
<path style="fill-rule:nonzero;fill:rgb(18.431373%,30.980392%,30.980392%);fill-opacity:1;stroke-width:0.708661;stroke-linecap:round;stroke-linejoin:round;stroke:rgb(18.431373%,30.980392%,30.980392%);stroke-opacity:1;stroke-miterlimit:10;" d="M 340.242188 299.707031 C 340.242188 303.4375 337.21875 306.464844 333.488281 306.464844 C 329.757812 306.464844 326.730469 303.4375 326.730469 299.707031 C 326.730469 295.976562 329.757812 292.949219 333.488281 292.949219 C 337.21875 292.949219 340.242188 295.976562 340.242188 299.707031 "/>
<path style="fill:none;stroke-width:0.708661;stroke-linecap:round;stroke-linejoin:round;stroke:rgb(18.431373%,30.980392%,30.980392%);stroke-opacity:1;stroke-miterlimit:10;" d="M 415.660156 164.246094 C 415.660156 167.976562 412.636719 171 408.90625 171 C 405.175781 171 402.148438 167.976562 402.148438 164.246094 C 402.148438 160.515625 405.175781 157.488281 408.90625 157.488281 C 412.636719 157.488281 415.660156 160.515625 415.660156 164.246094 "/>
<path style="fill:none;stroke-width:0.708661;stroke-linecap:round;stroke-linejoin:round;stroke:rgb(18.431373%,30.980392%,30.980392%);stroke-opacity:1;stroke-miterlimit:10;" d="M 379.863281 257.25 C 379.863281 260.980469 376.839844 264.007812 373.109375 264.007812 C 369.378906 264.007812 366.351562 260.980469 366.351562 257.25 C 366.351562 253.519531 369.378906 250.496094 373.109375 250.496094 C 376.839844 250.496094 379.863281 253.519531 379.863281 257.25 "/>
<path style="fill:none;stroke-width:0.708661;stroke-linecap:round;stroke-linejoin:round;stroke:rgb(18.431373%,30.980392%,30.980392%);stroke-opacity:1;stroke-miterlimit:10;" d="M 287.8125 373.03125 C 287.8125 376.765625 284.785156 379.789062 281.054688 379.789062 C 277.324219 379.789062 274.300781 376.765625 274.300781 373.03125 C 274.300781 369.300781 277.324219 366.277344 281.054688 366.277344 C 284.785156 366.277344 287.8125 369.300781 287.8125 373.03125 "/>
<path style="fill:none;stroke-width:0.708661;stroke-linecap:round;stroke-linejoin:round;stroke:rgb(18.431373%,30.980392%,30.980392%);stroke-opacity:1;stroke-miterlimit:10;" d="M 247.636719 307.082031 C 247.636719 310.8125 244.609375 313.839844 240.878906 313.839844 C 237.148438 313.839844 234.125 310.8125 234.125 307.082031 C 234.125 303.351562 237.148438 300.324219 240.878906 300.324219 C 244.609375 300.324219 247.636719 303.351562 247.636719 307.082031 "/>
<path style="fill:none;stroke-width:0.708661;stroke-linecap:round;stroke-linejoin:round;stroke:rgb(18.431373%,30.980392%,30.980392%);stroke-opacity:1;stroke-miterlimit:10;" d="M 350.023438 248.703125 C 350.023438 252.4375 347 255.460938 343.269531 255.460938 C 339.535156 255.460938 336.511719 252.4375 336.511719 248.703125 C 336.511719 244.972656 339.535156 241.949219 343.269531 241.949219 C 347 241.949219 350.023438 244.972656 350.023438 248.703125 "/>
<path style="fill:none;stroke-width:0.708661;stroke-linecap:round;stroke-linejoin:round;stroke:rgb(18.431373%,30.980392%,30.980392%);stroke-opacity:1;stroke-miterlimit:10;" d="M 649.21875 222.246094 C 649.21875 225.976562 646.195312 229 642.464844 229 C 638.730469 229 635.707031 225.976562 635.707031 222.246094 C 635.707031 218.515625 638.730469 215.488281 642.464844 215.488281 C 646.195312 215.488281 649.21875 218.515625 649.21875 222.246094 "/>
<path style="fill:none;stroke-width:0.708661;stroke-linecap:round;stroke-linejoin:round;stroke:rgb(18.431373%,30.980392%,30.980392%);stroke-opacity:1;stroke-miterlimit:10;" d="M 588.902344 232.644531 C 588.902344 236.378906 585.875 239.402344 582.144531 239.402344 C 578.414062 239.402344 575.386719 236.378906 575.386719 232.644531 C 575.386719 228.914062 578.414062 225.890625 582.144531 225.890625 C 585.875 225.890625 588.902344 228.914062 588.902344 232.644531 "/>
<path style="fill-rule:nonzero;fill:rgb(18.431373%,30.980392%,30.980392%);fill-opacity:1;stroke-width:0.708661;stroke-linecap:round;stroke-linejoin:round;stroke:rgb(18.431373%,30.980392%,30.980392%);stroke-opacity:1;stroke-miterlimit:10;" d="M 388.355469 175.6875 C 388.355469 179.417969 385.332031 182.441406 381.601562 182.441406 C 377.867188 182.441406 374.84375 179.417969 374.84375 175.6875 C 374.84375 171.953125 377.867188 168.929688 381.601562 168.929688 C 385.332031 168.929688 388.355469 171.953125 388.355469 175.6875 "/>
<path style="fill-rule:nonzero;fill:rgb(18.431373%,30.980392%,30.980392%);fill-opacity:1;stroke-width:0.708661;stroke-linecap:round;stroke-linejoin:round;stroke:rgb(18.431373%,30.980392%,30.980392%);stroke-opacity:1;stroke-miterlimit:10;" d="M 348.734375 183.726562 C 348.734375 187.457031 345.710938 190.480469 341.980469 190.480469 C 338.246094 190.480469 335.222656 187.457031 335.222656 183.726562 C 335.222656 179.996094 338.246094 176.96875 341.980469 176.96875 C 345.710938 176.96875 348.734375 179.996094 348.734375 183.726562 "/>
<path style="fill:none;stroke-width:0.708661;stroke-linecap:round;stroke-linejoin:round;stroke:rgb(18.431373%,30.980392%,30.980392%);stroke-opacity:1;stroke-miterlimit:10;" d="M 119.78125 213.558594 C 119.78125 217.292969 116.757812 220.316406 113.027344 220.316406 C 109.292969 220.316406 106.269531 217.292969 106.269531 213.558594 C 106.269531 209.828125 109.292969 206.804688 113.027344 206.804688 C 116.757812 206.804688 119.78125 209.828125 119.78125 213.558594 "/>
<path style="fill:none;stroke-width:0.708661;stroke-linecap:round;stroke-linejoin:round;stroke:rgb(18.431373%,30.980392%,30.980392%);stroke-opacity:1;stroke-miterlimit:10;" d="M 361 333.785156 C 361 337.515625 357.976562 340.539062 354.246094 340.539062 C 350.511719 340.539062 347.488281 337.515625 347.488281 333.785156 C 347.488281 330.050781 350.511719 327.027344 354.246094 327.027344 C 357.976562 327.027344 361 330.050781 361 333.785156 "/>
<path style="fill-rule:nonzero;fill:rgb(18.431373%,30.980392%,30.980392%);fill-opacity:1;stroke-width:0.708661;stroke-linecap:round;stroke-linejoin:round;stroke:rgb(18.431373%,30.980392%,30.980392%);stroke-opacity:1;stroke-miterlimit:10;" d="M 474.558594 223.21875 C 474.558594 226.949219 471.53125 229.976562 467.800781 229.976562 C 464.070312 229.976562 461.046875 226.949219 461.046875 223.21875 C 461.046875 219.488281 464.070312 216.464844 467.800781 216.464844 C 471.53125 216.464844 474.558594 219.488281 474.558594 223.21875 "/>
<path style="fill:none;stroke-width:0.708661;stroke-linecap:round;stroke-linejoin:round;stroke:rgb(18.431373%,30.980392%,30.980392%);stroke-opacity:1;stroke-miterlimit:10;" d="M 203.921875 255.210938 C 203.921875 258.941406 200.898438 261.964844 197.167969 261.964844 C 193.4375 261.964844 190.410156 258.941406 190.410156 255.210938 C 190.410156 251.476562 193.4375 248.453125 197.167969 248.453125 C 200.898438 248.453125 203.921875 251.476562 203.921875 255.210938 "/>
<path style="fill:none;stroke-width:0.708661;stroke-linecap:round;stroke-linejoin:round;stroke:rgb(18.431373%,30.980392%,30.980392%);stroke-opacity:1;stroke-miterlimit:10;" d="M 499.769531 159.472656 C 499.769531 163.203125 496.742188 166.230469 493.011719 166.230469 C 489.28125 166.230469 486.257812 163.203125 486.257812 159.472656 C 486.257812 155.742188 489.28125 152.714844 493.011719 152.714844 C 496.742188 152.714844 499.769531 155.742188 499.769531 159.472656 "/>
<path style="fill:none;stroke-width:0.708661;stroke-linecap:round;stroke-linejoin:round;stroke:rgb(18.431373%,30.980392%,30.980392%);stroke-opacity:1;stroke-miterlimit:10;" d="M 508.410156 220.628906 C 508.410156 224.359375 505.386719 227.382812 501.652344 227.382812 C 497.921875 227.382812 494.898438 224.359375 494.898438 220.628906 C 494.898438 216.894531 497.921875 213.871094 501.652344 213.871094 C 505.386719 213.871094 508.410156 216.894531 508.410156 220.628906 "/>
<path style="fill:none;stroke-width:0.708661;stroke-linecap:round;stroke-linejoin:round;stroke:rgb(18.431373%,30.980392%,30.980392%);stroke-opacity:1;stroke-miterlimit:10;" d="M 212.777344 201.265625 C 212.777344 204.996094 209.753906 208.023438 206.019531 208.023438 C 202.289062 208.023438 199.265625 204.996094 199.265625 201.265625 C 199.265625 197.535156 202.289062 194.507812 206.019531 194.507812 C 209.753906 194.507812 212.777344 197.535156 212.777344 201.265625 "/>
<path style="fill-rule:nonzero;fill:rgb(18.431373%,30.980392%,30.980392%);fill-opacity:1;stroke-width:0.708661;stroke-linecap:round;stroke-linejoin:round;stroke:rgb(18.431373%,30.980392%,30.980392%);stroke-opacity:1;stroke-miterlimit:10;" d="M 540.757812 30.820312 C 540.757812 34.554688 537.734375 37.578125 534.003906 37.578125 C 530.273438 37.578125 527.246094 34.554688 527.246094 30.820312 C 527.246094 27.089844 530.273438 24.066406 534.003906 24.066406 C 537.734375 24.066406 540.757812 27.089844 540.757812 30.820312 "/>
<path style="fill:none;stroke-width:0.708661;stroke-linecap:round;stroke-linejoin:round;stroke:rgb(18.431373%,30.980392%,30.980392%);stroke-opacity:1;stroke-miterlimit:10;" d="M 330.914062 272.902344 C 330.914062 276.632812 327.890625 279.660156 324.160156 279.660156 C 320.429688 279.660156 317.402344 276.632812 317.402344 272.902344 C 317.402344 269.171875 320.429688 266.148438 324.160156 266.148438 C 327.890625 266.148438 330.914062 269.171875 330.914062 272.902344 "/>
<path style="fill:none;stroke-width:0.708661;stroke-linecap:round;stroke-linejoin:round;stroke:rgb(18.431373%,30.980392%,30.980392%);stroke-opacity:1;stroke-miterlimit:10;" d="M 307.980469 353.234375 C 307.980469 356.964844 304.957031 359.988281 301.222656 359.988281 C 297.492188 359.988281 294.46875 356.964844 294.46875 353.234375 C 294.46875 349.5 297.492188 346.476562 301.222656 346.476562 C 304.957031 346.476562 307.980469 349.5 307.980469 353.234375 "/>
<path style="fill:none;stroke-width:0.708661;stroke-linecap:round;stroke-linejoin:round;stroke:rgb(18.431373%,30.980392%,30.980392%);stroke-opacity:1;stroke-miterlimit:10;" d="M 509.265625 208.847656 C 509.265625 212.582031 506.242188 215.605469 502.511719 215.605469 C 498.777344 215.605469 495.753906 212.582031 495.753906 208.847656 C 495.753906 205.117188 498.777344 202.09375 502.511719 202.09375 C 506.242188 202.09375 509.265625 205.117188 509.265625 208.847656 "/>
<path style="fill:none;stroke-width:0.708661;stroke-linecap:round;stroke-linejoin:round;stroke:rgb(18.431373%,30.980392%,30.980392%);stroke-opacity:1;stroke-miterlimit:10;" d="M 434.371094 345.4375 C 434.371094 349.167969 431.347656 352.195312 427.613281 352.195312 C 423.882812 352.195312 420.859375 349.167969 420.859375 345.4375 C 420.859375 341.707031 423.882812 338.683594 427.613281 338.683594 C 431.347656 338.683594 434.371094 341.707031 434.371094 345.4375 "/>
<path style="fill:none;stroke-width:0.708661;stroke-linecap:round;stroke-linejoin:round;stroke:rgb(18.431373%,30.980392%,30.980392%);stroke-opacity:1;stroke-miterlimit:10;" d="M 321.832031 220.273438 C 321.832031 224.003906 318.808594 227.027344 315.078125 227.027344 C 311.34375 227.027344 308.320312 224.003906 308.320312 220.273438 C 308.320312 216.539062 311.34375 213.515625 315.078125 213.515625 C 318.808594 213.515625 321.832031 216.539062 321.832031 220.273438 "/>
<path style="fill:none;stroke-width:0.708661;stroke-linecap:round;stroke-linejoin:round;stroke:rgb(18.431373%,30.980392%,30.980392%);stroke-opacity:1;stroke-miterlimit:10;" d="M 200.277344 381.253906 C 200.277344 384.984375 197.25 388.011719 193.519531 388.011719 C 189.789062 388.011719 186.761719 384.984375 186.761719 381.253906 C 186.761719 377.523438 189.789062 374.496094 193.519531 374.496094 C 197.25 374.496094 200.277344 377.523438 200.277344 381.253906 "/>
<path style="fill:none;stroke-width:0.708661;stroke-linecap:round;stroke-linejoin:round;stroke:rgb(18.431373%,30.980392%,30.980392%);stroke-opacity:1;stroke-miterlimit:10;" d="M 517.582031 148.3125 C 517.582031 152.042969 514.558594 155.070312 510.824219 155.070312 C 507.09375 155.070312 504.070312 152.042969 504.070312 148.3125 C 504.070312 144.582031 507.09375 141.554688 510.824219 141.554688 C 514.558594 141.554688 517.582031 144.582031 517.582031 148.3125 "/>
<path style="fill:none;stroke-width:0.708661;stroke-linecap:round;stroke-linejoin:round;stroke:rgb(18.431373%,30.980392%,30.980392%);stroke-opacity:1;stroke-miterlimit:10;" d="M 213.75 328.042969 C 213.75 331.773438 210.726562 334.796875 206.996094 334.796875 C 203.261719 334.796875 200.238281 331.773438 200.238281 328.042969 C 200.238281 324.3125 203.261719 321.285156 206.996094 321.285156 C 210.726562 321.285156 213.75 324.3125 213.75 328.042969 "/>
<path style="fill:none;stroke-width:0.708661;stroke-linecap:round;stroke-linejoin:round;stroke:rgb(18.431373%,30.980392%,30.980392%);stroke-opacity:1;stroke-miterlimit:10;" d="M 94.253906 346.558594 C 94.253906 350.292969 91.230469 353.316406 87.496094 353.316406 C 83.765625 353.316406 80.742188 350.292969 80.742188 346.558594 C 80.742188 342.828125 83.765625 339.804688 87.496094 339.804688 C 91.230469 339.804688 94.253906 342.828125 94.253906 346.558594 "/>
<path style="fill:none;stroke-width:0.708661;stroke-linecap:round;stroke-linejoin:round;stroke:rgb(18.431373%,30.980392%,30.980392%);stroke-opacity:1;stroke-miterlimit:10;" d="M 523.066406 267.1875 C 523.066406 270.917969 520.039062 273.941406 516.308594 273.941406 C 512.578125 273.941406 509.550781 270.917969 509.550781 267.1875 C 509.550781 263.453125 512.578125 260.429688 516.308594 260.429688 C 520.039062 260.429688 523.066406 263.453125 523.066406 267.1875 "/>
<path style="fill:none;stroke-width:0.708661;stroke-linecap:round;stroke-linejoin:round;stroke:rgb(18.431373%,30.980392%,30.980392%);stroke-opacity:1;stroke-miterlimit:10;" d="M 507.84375 185.890625 C 507.84375 189.621094 504.820312 192.648438 501.089844 192.648438 C 497.355469 192.648438 494.332031 189.621094 494.332031 185.890625 C 494.332031 182.160156 497.355469 179.136719 501.089844 179.136719 C 504.820312 179.136719 507.84375 182.160156 507.84375 185.890625 "/>
<path style="fill:none;stroke-width:0.708661;stroke-linecap:round;stroke-linejoin:round;stroke:rgb(18.431373%,30.980392%,30.980392%);stroke-opacity:1;stroke-miterlimit:10;" d="M 463.558594 242.96875 C 463.558594 246.699219 460.535156 249.722656 456.804688 249.722656 C 453.074219 249.722656 450.046875 246.699219 450.046875 242.96875 C 450.046875 239.234375 453.074219 236.210938 456.804688 236.210938 C 460.535156 236.210938 463.558594 239.234375 463.558594 242.96875 "/>
<path style="fill-rule:nonzero;fill:rgb(18.431373%,30.980392%,30.980392%);fill-opacity:1;stroke-width:0.708661;stroke-linecap:round;stroke-linejoin:round;stroke:rgb(18.431373%,30.980392%,30.980392%);stroke-opacity:1;stroke-miterlimit:10;" d="M 29.988281 379.132812 C 29.988281 382.863281 26.964844 385.890625 23.234375 385.890625 C 19.503906 385.890625 16.476562 382.863281 16.476562 379.132812 C 16.476562 375.402344 19.503906 372.375 23.234375 372.375 C 26.964844 372.375 29.988281 375.402344 29.988281 379.132812 "/>
<path style="fill:none;stroke-width:0.708661;stroke-linecap:round;stroke-linejoin:round;stroke:rgb(18.431373%,30.980392%,30.980392%);stroke-opacity:1;stroke-miterlimit:10;" d="M 337.167969 270.164062 C 337.167969 273.894531 334.140625 276.917969 330.410156 276.917969 C 326.679688 276.917969 323.65625 273.894531 323.65625 270.164062 C 323.65625 266.433594 326.679688 263.40625 330.410156 263.40625 C 334.140625 263.40625 337.167969 266.433594 337.167969 270.164062 "/>
<path style="fill:none;stroke-width:0.708661;stroke-linecap:round;stroke-linejoin:round;stroke:rgb(18.431373%,30.980392%,30.980392%);stroke-opacity:1;stroke-miterlimit:10;" d="M 390.808594 176.980469 C 390.808594 180.710938 387.785156 183.738281 384.050781 183.738281 C 380.320312 183.738281 377.296875 180.710938 377.296875 176.980469 C 377.296875 173.25 380.320312 170.222656 384.050781 170.222656 C 387.785156 170.222656 390.808594 173.25 390.808594 176.980469 "/>
<path style="fill:none;stroke-width:0.708661;stroke-linecap:round;stroke-linejoin:round;stroke:rgb(18.431373%,30.980392%,30.980392%);stroke-opacity:1;stroke-miterlimit:10;" d="M 556.898438 269.085938 C 556.898438 272.820312 553.875 275.84375 550.144531 275.84375 C 546.410156 275.84375 543.386719 272.820312 543.386719 269.085938 C 543.386719 265.355469 546.410156 262.332031 550.144531 262.332031 C 553.875 262.332031 556.898438 265.355469 556.898438 269.085938 "/>
<path style="fill-rule:nonzero;fill:rgb(18.431373%,30.980392%,30.980392%);fill-opacity:1;stroke-width:0.708661;stroke-linecap:round;stroke-linejoin:round;stroke:rgb(18.431373%,30.980392%,30.980392%);stroke-opacity:1;stroke-miterlimit:10;" d="M 423.644531 241.457031 C 423.644531 245.1875 420.621094 248.210938 416.890625 248.210938 C 413.15625 248.210938 410.132812 245.1875 410.132812 241.457031 C 410.132812 237.722656 413.15625 234.699219 416.890625 234.699219 C 420.621094 234.699219 423.644531 237.722656 423.644531 241.457031 "/>
<path style="fill:none;stroke-width:0.708661;stroke-linecap:round;stroke-linejoin:round;stroke:rgb(18.431373%,30.980392%,30.980392%);stroke-opacity:1;stroke-miterlimit:10;" d="M 187.742188 321.101562 C 187.742188 324.832031 184.71875 327.855469 180.988281 327.855469 C 177.257812 327.855469 174.230469 324.832031 174.230469 321.101562 C 174.230469 317.371094 177.257812 314.34375 180.988281 314.34375 C 184.71875 314.34375 187.742188 317.371094 187.742188 321.101562 "/>
<path style="fill:none;stroke-width:4.267913;stroke-linecap:butt;stroke-linejoin:round;stroke:rgb(0%,0%,0%);stroke-opacity:0.298039;stroke-dasharray:17.071654,17.071654;stroke-miterlimit:10;" d="M 0 385.859375 L 756 114.003906 "/>
<path style="fill:none;stroke-width:4.267913;stroke-linecap:butt;stroke-linejoin:round;stroke:rgb(0%,0%,0%);stroke-opacity:1;stroke-dasharray:17.071654,17.071654;stroke-miterlimit:10;" d="M 0 364.082031 L 756 115.421875 "/>
</g>
</svg>
