<?xml version="1.0" encoding="UTF-8"?>
<svg xmlns="http://www.w3.org/2000/svg" xmlns:xlink="http://www.w3.org/1999/xlink" width="756pt" height="504pt" viewBox="0 0 756 504" version="1.1">
<g id="surface299">
<rect x="0" y="0" width="756" height="504" style="fill:rgb(100%,100%,100%);fill-opacity:1;stroke:none;"/>
<path style="fill-rule:nonzero;fill:rgb(18.431373%,30.980392%,30.980392%);fill-opacity:1;stroke-width:0.708661;stroke-linecap:round;stroke-linejoin:round;stroke:rgb(18.431373%,30.980392%,30.980392%);stroke-opacity:1;stroke-miterlimit:10;" d="M 29.988281 23.4375 C 29.988281 27.171875 26.964844 30.195312 23.234375 30.195312 C 19.503906 30.195312 16.476562 27.171875 16.476562 23.4375 C 16.476562 19.707031 19.503906 16.683594 23.234375 16.683594 C 26.964844 16.683594 29.988281 19.707031 29.988281 23.4375 "/>
<path style="fill-rule:nonzero;fill:rgb(18.431373%,30.980392%,30.980392%);fill-opacity:1;stroke-width:0.708661;stroke-linecap:round;stroke-linejoin:round;stroke:rgb(18.431373%,30.980392%,30.980392%);stroke-opacity:1;stroke-miterlimit:10;" d="M 36.96875 29.199219 C 36.96875 32.933594 33.945312 35.957031 30.210938 35.957031 C 26.480469 35.957031 23.457031 32.933594 23.457031 29.199219 C 23.457031 25.46875 26.480469 22.445312 30.210938 22.445312 C 33.945312 22.445312 36.96875 25.46875 36.96875 29.199219 "/>
<path style="fill-rule:nonzero;fill:rgb(18.431373%,30.980392%,30.980392%);fill-opacity:1;stroke-width:0.708661;stroke-linecap:round;stroke-linejoin:round;stroke:rgb(18.431373%,30.980392%,30.980392%);stroke-opacity:1;stroke-miterlimit:10;" d="M 43.945312 73.046875 C 43.945312 76.777344 40.921875 79.800781 37.191406 79.800781 C 33.460938 79.800781 30.433594 76.777344 30.433594 73.046875 C 30.433594 69.3125 33.460938 66.289062 37.191406 66.289062 C 40.921875 66.289062 43.945312 69.3125 43.945312 73.046875 "/>
<path style="fill-rule:nonzero;fill:rgb(18.431373%,30.980392%,30.980392%);fill-opacity:1;stroke-width:0.708661;stroke-linecap:round;stroke-linejoin:round;stroke:rgb(18.431373%,30.980392%,30.980392%);stroke-opacity:1;stroke-miterlimit:10;" d="M 50.925781 57.058594 C 50.925781 60.789062 47.902344 63.8125 44.167969 63.8125 C 40.4375 63.8125 37.414062 60.789062 37.414062 57.058594 C 37.414062 53.324219 40.4375 50.300781 44.167969 50.300781 C 47.902344 50.300781 50.925781 53.324219 50.925781 57.058594 "/>
<path style="fill-rule:nonzero;fill:rgb(18.431373%,30.980392%,30.980392%);fill-opacity:1;stroke-width:0.708661;stroke-linecap:round;stroke-linejoin:round;stroke:rgb(18.431373%,30.980392%,30.980392%);stroke-opacity:1;stroke-miterlimit:10;" d="M 57.90625 57.9375 C 57.90625 61.667969 54.878906 64.695312 51.148438 64.695312 C 47.417969 64.695312 44.390625 61.667969 44.390625 57.9375 C 44.390625 54.207031 47.417969 51.179688 51.148438 51.179688 C 54.878906 51.179688 57.90625 54.207031 57.90625 57.9375 "/>
<path style="fill-rule:nonzero;fill:rgb(18.431373%,30.980392%,30.980392%);fill-opacity:1;stroke-width:0.708661;stroke-linecap:round;stroke-linejoin:round;stroke:rgb(18.431373%,30.980392%,30.980392%);stroke-opacity:1;stroke-miterlimit:10;" d="M 64.882812 103.816406 C 64.882812 107.546875 61.859375 110.570312 58.128906 110.570312 C 54.394531 110.570312 51.371094 107.546875 51.371094 103.816406 C 51.371094 100.082031 54.394531 97.058594 58.128906 97.058594 C 61.859375 97.058594 64.882812 100.082031 64.882812 103.816406 "/>
<path style="fill-rule:nonzero;fill:rgb(18.431373%,30.980392%,30.980392%);fill-opacity:1;stroke-width:0.708661;stroke-linecap:round;stroke-linejoin:round;stroke:rgb(18.431373%,30.980392%,30.980392%);stroke-opacity:1;stroke-miterlimit:10;" d="M 71.863281 128.074219 C 71.863281 131.804688 68.835938 134.832031 65.105469 134.832031 C 61.375 134.832031 58.347656 131.804688 58.347656 128.074219 C 58.347656 124.34375 61.375 121.316406 65.105469 121.316406 C 68.835938 121.316406 71.863281 124.34375 71.863281 128.074219 "/>
<path style="fill-rule:nonzero;fill:rgb(18.431373%,30.980392%,30.980392%);fill-opacity:1;stroke-width:0.708661;stroke-linecap:round;stroke-linejoin:round;stroke:rgb(18.431373%,30.980392%,30.980392%);stroke-opacity:1;stroke-miterlimit:10;" d="M 78.839844 145.074219 C 78.839844 148.808594 75.816406 151.832031 72.085938 151.832031 C 68.351562 151.832031 65.328125 148.808594 65.328125 145.074219 C 65.328125 141.34375 68.351562 138.320312 72.085938 138.320312 C 75.816406 138.320312 78.839844 141.34375 78.839844 145.074219 "/>
<path style="fill-rule:nonzero;fill:rgb(18.431373%,30.980392%,30.980392%);fill-opacity:1;stroke-width:0.708661;stroke-linecap:round;stroke-linejoin:round;stroke:rgb(18.431373%,30.980392%,30.980392%);stroke-opacity:1;stroke-miterlimit:10;" d="M 85.820312 118.089844 C 85.820312 121.820312 82.792969 124.847656 79.0625 124.847656 C 75.332031 124.847656 72.308594 121.820312 72.308594 118.089844 C 72.308594 114.359375 75.332031 111.332031 79.0625 111.332031 C 82.792969 111.332031 85.820312 114.359375 85.820312 118.089844 "/>
<path style="fill-rule:nonzero;fill:rgb(18.431373%,30.980392%,30.980392%);fill-opacity:1;stroke-width:0.708661;stroke-linecap:round;stroke-linejoin:round;stroke:rgb(18.431373%,30.980392%,30.980392%);stroke-opacity:1;stroke-miterlimit:10;" d="M 92.796875 157 C 92.796875 160.730469 89.773438 163.757812 86.042969 163.757812 C 82.3125 163.757812 79.285156 160.730469 79.285156 157 C 79.285156 153.269531 82.3125 150.246094 86.042969 150.246094 C 89.773438 150.246094 92.796875 153.269531 92.796875 157 "/>
<path style="fill-rule:nonzero;fill:rgb(18.431373%,30.980392%,30.980392%);fill-opacity:1;stroke-width:0.708661;stroke-linecap:round;stroke-linejoin:round;stroke:rgb(18.431373%,30.980392%,30.980392%);stroke-opacity:1;stroke-miterlimit:10;" d="M 99.777344 193.832031 C 99.777344 197.5625 96.753906 200.585938 93.019531 200.585938 C 89.289062 200.585938 86.265625 197.5625 86.265625 193.832031 C 86.265625 190.097656 89.289062 187.074219 93.019531 187.074219 C 96.753906 187.074219 99.777344 190.097656 99.777344 193.832031 "/>
<path style="fill-rule:nonzero;fill:rgb(18.431373%,30.980392%,30.980392%);fill-opacity:1;stroke-width:0.708661;stroke-linecap:round;stroke-linejoin:round;stroke:rgb(18.431373%,30.980392%,30.980392%);stroke-opacity:1;stroke-miterlimit:10;" d="M 106.753906 195.058594 C 106.753906 198.789062 103.730469 201.816406 100 201.816406 C 96.269531 201.816406 93.242188 198.789062 93.242188 195.058594 C 93.242188 191.328125 96.269531 188.300781 100 188.300781 C 103.730469 188.300781 106.753906 191.328125 106.753906 195.058594 "/>
<path style="fill-rule:nonzero;fill:rgb(18.431373%,30.980392%,30.980392%);fill-opacity:1;stroke-width:0.708661;stroke-linecap:round;stroke-linejoin:round;stroke:rgb(18.431373%,30.980392%,30.980392%);stroke-opacity:1;stroke-miterlimit:10;" d="M 113.734375 210.074219 C 113.734375 213.804688 110.710938 216.828125 106.976562 216.828125 C 103.246094 216.828125 100.222656 213.804688 100.222656 210.074219 C 100.222656 206.339844 103.246094 203.316406 106.976562 203.316406 C 110.710938 203.316406 113.734375 206.339844 113.734375 210.074219 "/>
<path style="fill-rule:nonzero;fill:rgb(18.431373%,30.980392%,30.980392%);fill-opacity:1;stroke-width:0.708661;stroke-linecap:round;stroke-linejoin:round;stroke:rgb(18.431373%,30.980392%,30.980392%);stroke-opacity:1;stroke-miterlimit:10;" d="M 120.714844 200.09375 C 120.714844 203.824219 117.6875 206.851562 113.957031 206.851562 C 110.226562 206.851562 107.199219 203.824219 107.199219 200.09375 C 107.199219 196.363281 110.226562 193.339844 113.957031 193.339844 C 117.6875 193.339844 120.714844 196.363281 120.714844 200.09375 "/>
<path style="fill-rule:nonzero;fill:rgb(18.431373%,30.980392%,30.980392%);fill-opacity:1;stroke-width:0.708661;stroke-linecap:round;stroke-linejoin:round;stroke:rgb(18.431373%,30.980392%,30.980392%);stroke-opacity:1;stroke-miterlimit:10;" d="M 127.691406 218.355469 C 127.691406 222.085938 124.667969 225.113281 120.9375 225.113281 C 117.203125 225.113281 114.179688 222.085938 114.179688 218.355469 C 114.179688 214.625 117.203125 211.601562 120.9375 211.601562 C 124.667969 211.601562 127.691406 214.625 127.691406 218.355469 "/>
<path style="fill-rule:nonzero;fill:rgb(18.431373%,30.980392%,30.980392%);fill-opacity:1;stroke-width:0.708661;stroke-linecap:round;stroke-linejoin:round;stroke:rgb(18.431373%,30.980392%,30.980392%);stroke-opacity:1;stroke-miterlimit:10;" d="M 134.671875 242.214844 C 134.671875 245.945312 131.644531 248.972656 127.914062 248.972656 C 124.183594 248.972656 121.15625 245.945312 121.15625 242.214844 C 121.15625 238.484375 124.183594 235.460938 127.914062 235.460938 C 131.644531 235.460938 134.671875 238.484375 134.671875 242.214844 "/>
<path style="fill-rule:nonzero;fill:rgb(18.431373%,30.980392%,30.980392%);fill-opacity:1;stroke-width:0.708661;stroke-linecap:round;stroke-linejoin:round;stroke:rgb(18.431373%,30.980392%,30.980392%);stroke-opacity:1;stroke-miterlimit:10;" d="M 141.648438 266.914062 C 141.648438 270.644531 138.625 273.671875 134.894531 273.671875 C 131.160156 273.671875 128.136719 270.644531 128.136719 266.914062 C 128.136719 263.183594 131.160156 260.15625 134.894531 260.15625 C 138.625 260.15625 141.648438 263.183594 141.648438 266.914062 "/>
<path style="fill-rule:nonzero;fill:rgb(18.431373%,30.980392%,30.980392%);fill-opacity:1;stroke-width:0.708661;stroke-linecap:round;stroke-linejoin:round;stroke:rgb(18.431373%,30.980392%,30.980392%);stroke-opacity:1;stroke-miterlimit:10;" d="M 148.628906 284.640625 C 148.628906 288.371094 145.601562 291.398438 141.871094 291.398438 C 138.140625 291.398438 135.117188 288.371094 135.117188 284.640625 C 135.117188 280.910156 138.140625 277.886719 141.871094 277.886719 C 145.601562 277.886719 148.628906 280.910156 148.628906 284.640625 "/>
<path style="fill-rule:nonzero;fill:rgb(18.431373%,30.980392%,30.980392%);fill-opacity:1;stroke-width:0.708661;stroke-linecap:round;stroke-linejoin:round;stroke:rgb(18.431373%,30.980392%,30.980392%);stroke-opacity:1;stroke-miterlimit:10;" d="M 155.605469 319.769531 C 155.605469 323.5 152.582031 326.527344 148.851562 326.527344 C 145.121094 326.527344 142.09375 323.5 142.09375 319.769531 C 142.09375 316.039062 145.121094 313.015625 148.851562 313.015625 C 152.582031 313.015625 155.605469 316.039062 155.605469 319.769531 "/>
<path style="fill-rule:nonzero;fill:rgb(18.431373%,30.980392%,30.980392%);fill-opacity:1;stroke-width:0.708661;stroke-linecap:round;stroke-linejoin:round;stroke:rgb(18.431373%,30.980392%,30.980392%);stroke-opacity:1;stroke-miterlimit:10;" d="M 162.585938 266.136719 C 162.585938 269.867188 159.5625 272.890625 155.828125 272.890625 C 152.097656 272.890625 149.074219 269.867188 149.074219 266.136719 C 149.074219 262.402344 152.097656 259.378906 155.828125 259.378906 C 159.5625 259.378906 162.585938 262.402344 162.585938 266.136719 "/>
<path style="fill-rule:nonzero;fill:rgb(18.431373%,30.980392%,30.980392%);fill-opacity:1;stroke-width:0.708661;stroke-linecap:round;stroke-linejoin:round;stroke:rgb(18.431373%,30.980392%,30.980392%);stroke-opacity:1;stroke-miterlimit:10;" d="M 169.5625 321.101562 C 169.5625 324.832031 166.539062 327.859375 162.808594 327.859375 C 159.078125 327.859375 156.050781 324.832031 156.050781 321.101562 C 156.050781 317.371094 159.078125 314.347656 162.808594 314.347656 C 166.539062 314.347656 169.5625 317.371094 169.5625 321.101562 "/>
<path style="fill-rule:nonzero;fill:rgb(18.431373%,30.980392%,30.980392%);fill-opacity:1;stroke-width:0.708661;stroke-linecap:round;stroke-linejoin:round;stroke:rgb(18.431373%,30.980392%,30.980392%);stroke-opacity:1;stroke-miterlimit:10;" d="M 176.542969 323.449219 C 176.542969 327.179688 173.519531 330.203125 169.785156 330.203125 C 166.054688 330.203125 163.03125 327.179688 163.03125 323.449219 C 163.03125 319.71875 166.054688 316.691406 169.785156 316.691406 C 173.519531 316.691406 176.542969 319.71875 176.542969 323.449219 "/>
<path style="fill-rule:nonzero;fill:rgb(18.431373%,30.980392%,30.980392%);fill-opacity:1;stroke-width:0.708661;stroke-linecap:round;stroke-linejoin:round;stroke:rgb(18.431373%,30.980392%,30.980392%);stroke-opacity:1;stroke-miterlimit:10;" d="M 183.523438 322.894531 C 183.523438 326.628906 180.496094 329.652344 176.765625 329.652344 C 173.035156 329.652344 170.007812 326.628906 170.007812 322.894531 C 170.007812 319.164062 173.035156 316.140625 176.765625 316.140625 C 180.496094 316.140625 183.523438 319.164062 183.523438 322.894531 "/>
<path style="fill-rule:nonzero;fill:rgb(18.431373%,30.980392%,30.980392%);fill-opacity:1;stroke-width:0.708661;stroke-linecap:round;stroke-linejoin:round;stroke:rgb(18.431373%,30.980392%,30.980392%);stroke-opacity:1;stroke-miterlimit:10;" d="M 190.5 316.535156 C 190.5 320.265625 187.476562 323.289062 183.746094 323.289062 C 180.011719 323.289062 176.988281 320.265625 176.988281 316.535156 C 176.988281 312.804688 180.011719 309.777344 183.746094 309.777344 C 187.476562 309.777344 190.5 312.804688 190.5 316.535156 "/>
<path style="fill-rule:nonzero;fill:rgb(18.431373%,30.980392%,30.980392%);fill-opacity:1;stroke-width:0.708661;stroke-linecap:round;stroke-linejoin:round;stroke:rgb(18.431373%,30.980392%,30.980392%);stroke-opacity:1;stroke-miterlimit:10;" d="M 197.480469 364.488281 C 197.480469 368.21875 194.453125 371.246094 190.722656 371.246094 C 186.992188 371.246094 183.964844 368.21875 183.964844 364.488281 C 183.964844 360.757812 186.992188 357.734375 190.722656 357.734375 C 194.453125 357.734375 197.480469 360.757812 197.480469 364.488281 "/>
<path style="fill-rule:nonzero;fill:rgb(18.431373%,30.980392%,30.980392%);fill-opacity:1;stroke-width:0.708661;stroke-linecap:round;stroke-linejoin:round;stroke:rgb(18.431373%,30.980392%,30.980392%);stroke-opacity:1;stroke-miterlimit:10;" d="M 204.457031 382.074219 C 204.457031 385.804688 201.433594 388.832031 197.703125 388.832031 C 193.96875 388.832031 190.945312 385.804688 190.945312 382.074219 C 190.945312 378.34375 193.96875 375.316406 197.703125 375.316406 C 201.433594 375.316406 204.457031 378.34375 204.457031 382.074219 "/>
<path style="fill-rule:nonzero;fill:rgb(18.431373%,30.980392%,30.980392%);fill-opacity:1;stroke-width:0.708661;stroke-linecap:round;stroke-linejoin:round;stroke:rgb(18.431373%,30.980392%,30.980392%);stroke-opacity:1;stroke-miterlimit:10;" d="M 211.4375 343.285156 C 211.4375 347.015625 208.410156 350.039062 204.679688 350.039062 C 200.949219 350.039062 197.925781 347.015625 197.925781 343.285156 C 197.925781 339.554688 200.949219 336.527344 204.679688 336.527344 C 208.410156 336.527344 211.4375 339.554688 211.4375 343.285156 "/>
<path style="fill-rule:nonzero;fill:rgb(18.431373%,30.980392%,30.980392%);fill-opacity:1;stroke-width:0.708661;stroke-linecap:round;stroke-linejoin:round;stroke:rgb(18.431373%,30.980392%,30.980392%);stroke-opacity:1;stroke-miterlimit:10;" d="M 218.414062 354.875 C 218.414062 358.609375 215.390625 361.632812 211.660156 361.632812 C 207.925781 361.632812 204.902344 358.609375 204.902344 354.875 C 204.902344 351.144531 207.925781 348.121094 211.660156 348.121094 C 215.390625 348.121094 218.414062 351.144531 218.414062 354.875 "/>
<path style="fill-rule:nonzero;fill:rgb(18.431373%,30.980392%,30.980392%);fill-opacity:1;stroke-width:0.708661;stroke-linecap:round;stroke-linejoin:round;stroke:rgb(18.431373%,30.980392%,30.980392%);stroke-opacity:1;stroke-miterlimit:10;" d="M 225.394531 380.53125 C 225.394531 384.261719 222.371094 387.289062 218.636719 387.289062 C 214.90625 387.289062 211.882812 384.261719 211.882812 380.53125 C 211.882812 376.800781 214.90625 373.777344 218.636719 373.777344 C 222.371094 373.777344 225.394531 376.800781 225.394531 380.53125 "/>
<path style="fill-rule:nonzero;fill:rgb(18.431373%,30.980392%,30.980392%);fill-opacity:1;stroke-width:0.708661;stroke-linecap:round;stroke-linejoin:round;stroke:rgb(18.431373%,30.980392%,30.980392%);stroke-opacity:1;stroke-miterlimit:10;" d="M 232.371094 389.042969 C 232.371094 392.777344 229.347656 395.800781 225.617188 395.800781 C 221.886719 395.800781 218.859375 392.777344 218.859375 389.042969 C 218.859375 385.3125 221.886719 382.289062 225.617188 382.289062 C 229.347656 382.289062 232.371094 385.3125 232.371094 389.042969 "/>
<path style="fill-rule:nonzero;fill:rgb(18.431373%,30.980392%,30.980392%);fill-opacity:1;stroke-width:0.708661;stroke-linecap:round;stroke-linejoin:round;stroke:rgb(18.431373%,30.980392%,30.980392%);stroke-opacity:1;stroke-miterlimit:10;" d="M 239.351562 420.535156 C 239.351562 424.265625 236.328125 427.289062 232.59375 427.289062 C 228.863281 427.289062 225.839844 424.265625 225.839844 420.535156 C 225.839844 416.804688 228.863281 413.777344 232.59375 413.777344 C 236.328125 413.777344 239.351562 416.804688 239.351562 420.535156 "/>
<path style="fill-rule:nonzero;fill:rgb(18.431373%,30.980392%,30.980392%);fill-opacity:1;stroke-width:0.708661;stroke-linecap:round;stroke-linejoin:round;stroke:rgb(18.431373%,30.980392%,30.980392%);stroke-opacity:1;stroke-miterlimit:10;" d="M 246.332031 406.140625 C 246.332031 409.871094 243.304688 412.894531 239.574219 412.894531 C 235.84375 412.894531 232.816406 409.871094 232.816406 406.140625 C 232.816406 402.410156 235.84375 399.382812 239.574219 399.382812 C 243.304688 399.382812 246.332031 402.410156 246.332031 406.140625 "/>
<path style="fill-rule:nonzero;fill:rgb(18.431373%,30.980392%,30.980392%);fill-opacity:1;stroke-width:0.708661;stroke-linecap:round;stroke-linejoin:round;stroke:rgb(18.431373%,30.980392%,30.980392%);stroke-opacity:1;stroke-miterlimit:10;" d="M 253.308594 420.480469 C 253.308594 424.210938 250.285156 427.238281 246.550781 427.238281 C 242.820312 427.238281 239.796875 424.210938 239.796875 420.480469 C 239.796875 416.75 242.820312 413.722656 246.550781 413.722656 C 250.285156 413.722656 253.308594 416.75 253.308594 420.480469 "/>
<path style="fill-rule:nonzero;fill:rgb(18.431373%,30.980392%,30.980392%);fill-opacity:1;stroke-width:0.708661;stroke-linecap:round;stroke-linejoin:round;stroke:rgb(18.431373%,30.980392%,30.980392%);stroke-opacity:1;stroke-miterlimit:10;" d="M 260.289062 435.371094 C 260.289062 439.101562 257.261719 442.125 253.53125 442.125 C 249.800781 442.125 246.773438 439.101562 246.773438 435.371094 C 246.773438 431.636719 249.800781 428.613281 253.53125 428.613281 C 257.261719 428.613281 260.289062 431.636719 260.289062 435.371094 "/>
<path style="fill-rule:nonzero;fill:rgb(18.431373%,30.980392%,30.980392%);fill-opacity:1;stroke-width:0.708661;stroke-linecap:round;stroke-linejoin:round;stroke:rgb(18.431373%,30.980392%,30.980392%);stroke-opacity:1;stroke-miterlimit:10;" d="M 267.265625 442.3125 C 267.265625 446.046875 264.242188 449.070312 260.511719 449.070312 C 256.777344 449.070312 253.753906 446.046875 253.753906 442.3125 C 253.753906 438.582031 256.777344 435.558594 260.511719 435.558594 C 264.242188 435.558594 267.265625 438.582031 267.265625 442.3125 "/>
<path style="fill-rule:nonzero;fill:rgb(18.431373%,30.980392%,30.980392%);fill-opacity:1;stroke-width:0.708661;stroke-linecap:round;stroke-linejoin:round;stroke:rgb(18.431373%,30.980392%,30.980392%);stroke-opacity:1;stroke-miterlimit:10;" d="M 274.246094 413.667969 C 274.246094 417.398438 271.21875 420.421875 267.488281 420.421875 C 263.757812 420.421875 260.734375 417.398438 260.734375 413.667969 C 260.734375 409.933594 263.757812 406.910156 267.488281 406.910156 C 271.21875 406.910156 274.246094 409.933594 274.246094 413.667969 "/>
<path style="fill-rule:nonzero;fill:rgb(18.431373%,30.980392%,30.980392%);fill-opacity:1;stroke-width:0.708661;stroke-linecap:round;stroke-linejoin:round;stroke:rgb(18.431373%,30.980392%,30.980392%);stroke-opacity:1;stroke-miterlimit:10;" d="M 281.222656 457.632812 C 281.222656 461.363281 278.199219 464.390625 274.46875 464.390625 C 270.734375 464.390625 267.710938 461.363281 267.710938 457.632812 C 267.710938 453.902344 270.734375 450.878906 274.46875 450.878906 C 278.199219 450.878906 281.222656 453.902344 281.222656 457.632812 "/>
<path style="fill-rule:nonzero;fill:rgb(18.431373%,30.980392%,30.980392%);fill-opacity:1;stroke-width:0.708661;stroke-linecap:round;stroke-linejoin:round;stroke:rgb(18.431373%,30.980392%,30.980392%);stroke-opacity:1;stroke-miterlimit:10;" d="M 288.203125 452.730469 C 288.203125 456.460938 285.175781 459.488281 281.445312 459.488281 C 277.714844 459.488281 274.691406 456.460938 274.691406 452.730469 C 274.691406 449 277.714844 445.976562 281.445312 445.976562 C 285.175781 445.976562 288.203125 449 288.203125 452.730469 "/>
<path style="fill-rule:nonzero;fill:rgb(18.431373%,30.980392%,30.980392%);fill-opacity:1;stroke-width:0.708661;stroke-linecap:round;stroke-linejoin:round;stroke:rgb(18.431373%,30.980392%,30.980392%);stroke-opacity:1;stroke-miterlimit:10;" d="M 295.179688 414.890625 C 295.179688 418.621094 292.15625 421.648438 288.425781 421.648438 C 284.695312 421.648438 281.667969 418.621094 281.667969 414.890625 C 281.667969 411.160156 284.695312 408.132812 288.425781 408.132812 C 292.15625 408.132812 295.179688 411.160156 295.179688 414.890625 "/>
<path style="fill-rule:nonzero;fill:rgb(18.431373%,30.980392%,30.980392%);fill-opacity:1;stroke-width:0.708661;stroke-linecap:round;stroke-linejoin:round;stroke:rgb(18.431373%,30.980392%,30.980392%);stroke-opacity:1;stroke-miterlimit:10;" d="M 302.160156 465.003906 C 302.160156 468.738281 299.136719 471.761719 295.402344 471.761719 C 291.671875 471.761719 288.648438 468.738281 288.648438 465.003906 C 288.648438 461.273438 291.671875 458.25 295.402344 458.25 C 299.136719 458.25 302.160156 461.273438 302.160156 465.003906 "/>
<path style="fill-rule:nonzero;fill:rgb(18.431373%,30.980392%,30.980392%);fill-opacity:1;stroke-width:0.708661;stroke-linecap:round;stroke-linejoin:round;stroke:rgb(18.431373%,30.980392%,30.980392%);stroke-opacity:1;stroke-miterlimit:10;" d="M 309.140625 454.847656 C 309.140625 458.578125 306.113281 461.601562 302.382812 461.601562 C 298.652344 461.601562 295.625 458.578125 295.625 454.847656 C 295.625 451.113281 298.652344 448.089844 302.382812 448.089844 C 306.113281 448.089844 309.140625 451.113281 309.140625 454.847656 "/>
<path style="fill-rule:nonzero;fill:rgb(18.431373%,30.980392%,30.980392%);fill-opacity:1;stroke-width:0.708661;stroke-linecap:round;stroke-linejoin:round;stroke:rgb(18.431373%,30.980392%,30.980392%);stroke-opacity:1;stroke-miterlimit:10;" d="M 316.117188 491.15625 C 316.117188 494.890625 313.09375 497.914062 309.359375 497.914062 C 305.628906 497.914062 302.605469 494.890625 302.605469 491.15625 C 302.605469 487.425781 305.628906 484.402344 309.359375 484.402344 C 313.09375 484.402344 316.117188 487.425781 316.117188 491.15625 "/>
<path style="fill-rule:nonzero;fill:rgb(18.431373%,30.980392%,30.980392%);fill-opacity:1;stroke-width:0.708661;stroke-linecap:round;stroke-linejoin:round;stroke:rgb(18.431373%,30.980392%,30.980392%);stroke-opacity:1;stroke-miterlimit:10;" d="M 323.097656 474.136719 C 323.097656 477.867188 320.070312 480.890625 316.339844 480.890625 C 312.609375 480.890625 309.582031 477.867188 309.582031 474.136719 C 309.582031 470.402344 312.609375 467.378906 316.339844 467.378906 C 320.070312 467.378906 323.097656 470.402344 323.097656 474.136719 "/>
<path style="fill-rule:nonzero;fill:rgb(18.431373%,30.980392%,30.980392%);fill-opacity:1;stroke-width:0.708661;stroke-linecap:round;stroke-linejoin:round;stroke:rgb(18.431373%,30.980392%,30.980392%);stroke-opacity:1;stroke-miterlimit:10;" d="M 330.074219 473.214844 C 330.074219 476.945312 327.050781 479.972656 323.320312 479.972656 C 319.585938 479.972656 316.5625 476.945312 316.5625 473.214844 C 316.5625 469.484375 319.585938 466.457031 323.320312 466.457031 C 327.050781 466.457031 330.074219 469.484375 330.074219 473.214844 "/>
<path style="fill-rule:nonzero;fill:rgb(18.431373%,30.980392%,30.980392%);fill-opacity:1;stroke-width:0.708661;stroke-linecap:round;stroke-linejoin:round;stroke:rgb(18.431373%,30.980392%,30.980392%);stroke-opacity:1;stroke-miterlimit:10;" d="M 337.054688 452.363281 C 337.054688 456.09375 334.027344 459.121094 330.296875 459.121094 C 326.566406 459.121094 323.542969 456.09375 323.542969 452.363281 C 323.542969 448.632812 326.566406 445.605469 330.296875 445.605469 C 334.027344 445.605469 337.054688 448.632812 337.054688 452.363281 "/>
<path style="fill-rule:nonzero;fill:rgb(18.431373%,30.980392%,30.980392%);fill-opacity:1;stroke-width:0.708661;stroke-linecap:round;stroke-linejoin:round;stroke:rgb(18.431373%,30.980392%,30.980392%);stroke-opacity:1;stroke-miterlimit:10;" d="M 344.03125 458.402344 C 344.03125 462.136719 341.007812 465.160156 337.277344 465.160156 C 333.542969 465.160156 330.519531 462.136719 330.519531 458.402344 C 330.519531 454.671875 333.542969 451.648438 337.277344 451.648438 C 341.007812 451.648438 344.03125 454.671875 344.03125 458.402344 "/>
<path style="fill-rule:nonzero;fill:rgb(18.431373%,30.980392%,30.980392%);fill-opacity:1;stroke-width:0.708661;stroke-linecap:round;stroke-linejoin:round;stroke:rgb(18.431373%,30.980392%,30.980392%);stroke-opacity:1;stroke-miterlimit:10;" d="M 351.011719 492.222656 C 351.011719 495.953125 347.984375 498.976562 344.253906 498.976562 C 340.523438 498.976562 337.5 495.953125 337.5 492.222656 C 337.5 488.488281 340.523438 485.464844 344.253906 485.464844 C 347.984375 485.464844 351.011719 488.488281 351.011719 492.222656 "/>
<path style="fill-rule:nonzero;fill:rgb(18.431373%,30.980392%,30.980392%);fill-opacity:1;stroke-width:0.708661;stroke-linecap:round;stroke-linejoin:round;stroke:rgb(18.431373%,30.980392%,30.980392%);stroke-opacity:1;stroke-miterlimit:10;" d="M 357.988281 491.316406 C 357.988281 495.046875 354.964844 498.074219 351.234375 498.074219 C 347.503906 498.074219 344.476562 495.046875 344.476562 491.316406 C 344.476562 487.585938 347.503906 484.558594 351.234375 484.558594 C 354.964844 484.558594 357.988281 487.585938 357.988281 491.316406 "/>
<path style="fill-rule:nonzero;fill:rgb(18.431373%,30.980392%,30.980392%);fill-opacity:1;stroke-width:0.708661;stroke-linecap:round;stroke-linejoin:round;stroke:rgb(18.431373%,30.980392%,30.980392%);stroke-opacity:1;stroke-miterlimit:10;" d="M 364.96875 467.1875 C 364.96875 470.917969 361.945312 473.945312 358.210938 473.945312 C 354.480469 473.945312 351.457031 470.917969 351.457031 467.1875 C 351.457031 463.457031 354.480469 460.429688 358.210938 460.429688 C 361.945312 460.429688 364.96875 463.457031 364.96875 467.1875 "/>
<path style="fill-rule:nonzero;fill:rgb(18.431373%,30.980392%,30.980392%);fill-opacity:1;stroke-width:0.708661;stroke-linecap:round;stroke-linejoin:round;stroke:rgb(18.431373%,30.980392%,30.980392%);stroke-opacity:1;stroke-miterlimit:10;" d="M 371.949219 467.792969 C 371.949219 471.523438 368.921875 474.546875 365.191406 474.546875 C 361.460938 474.546875 358.433594 471.523438 358.433594 467.792969 C 358.433594 464.058594 361.460938 461.035156 365.191406 461.035156 C 368.921875 461.035156 371.949219 464.058594 371.949219 467.792969 "/>
<path style="fill-rule:nonzero;fill:rgb(18.431373%,30.980392%,30.980392%);fill-opacity:1;stroke-width:0.708661;stroke-linecap:round;stroke-linejoin:round;stroke:rgb(18.431373%,30.980392%,30.980392%);stroke-opacity:1;stroke-miterlimit:10;" d="M 378.925781 487.789062 C 378.925781 491.519531 375.902344 494.546875 372.167969 494.546875 C 368.4375 494.546875 365.414062 491.519531 365.414062 487.789062 C 365.414062 484.058594 368.4375 481.035156 372.167969 481.035156 C 375.902344 481.035156 378.925781 484.058594 378.925781 487.789062 "/>
<path style="fill-rule:nonzero;fill:rgb(18.431373%,30.980392%,30.980392%);fill-opacity:1;stroke-width:0.708661;stroke-linecap:round;stroke-linejoin:round;stroke:rgb(18.431373%,30.980392%,30.980392%);stroke-opacity:1;stroke-miterlimit:10;" d="M 385.90625 477.941406 C 385.90625 481.675781 382.878906 484.699219 379.148438 484.699219 C 375.417969 484.699219 372.390625 481.675781 372.390625 477.941406 C 372.390625 474.210938 375.417969 471.1875 379.148438 471.1875 C 382.878906 471.1875 385.90625 474.210938 385.90625 477.941406 "/>
<path style="fill-rule:nonzero;fill:rgb(18.431373%,30.980392%,30.980392%);fill-opacity:1;stroke-width:0.708661;stroke-linecap:round;stroke-linejoin:round;stroke:rgb(18.431373%,30.980392%,30.980392%);stroke-opacity:1;stroke-miterlimit:10;" d="M 392.882812 474.933594 C 392.882812 478.664062 389.859375 481.6875 386.128906 481.6875 C 382.394531 481.6875 379.371094 478.664062 379.371094 474.933594 C 379.371094 471.199219 382.394531 468.175781 386.128906 468.175781 C 389.859375 468.175781 392.882812 471.199219 392.882812 474.933594 "/>
<path style="fill-rule:nonzero;fill:rgb(18.431373%,30.980392%,30.980392%);fill-opacity:1;stroke-width:0.708661;stroke-linecap:round;stroke-linejoin:round;stroke:rgb(18.431373%,30.980392%,30.980392%);stroke-opacity:1;stroke-miterlimit:10;" d="M 399.863281 448.097656 C 399.863281 451.828125 396.835938 454.851562 393.105469 454.851562 C 389.375 454.851562 386.351562 451.828125 386.351562 448.097656 C 386.351562 444.367188 389.375 441.339844 393.105469 441.339844 C 396.835938 441.339844 399.863281 444.367188 399.863281 448.097656 "/>
<path style="fill-rule:nonzero;fill:rgb(18.431373%,30.980392%,30.980392%);fill-opacity:1;stroke-width:0.708661;stroke-linecap:round;stroke-linejoin:round;stroke:rgb(18.431373%,30.980392%,30.980392%);stroke-opacity:1;stroke-miterlimit:10;" d="M 406.839844 476.21875 C 406.839844 479.949219 403.816406 482.976562 400.085938 482.976562 C 396.351562 482.976562 393.328125 479.949219 393.328125 476.21875 C 393.328125 472.488281 396.351562 469.464844 400.085938 469.464844 C 403.816406 469.464844 406.839844 472.488281 406.839844 476.21875 "/>
<path style="fill-rule:nonzero;fill:rgb(18.431373%,30.980392%,30.980392%);fill-opacity:1;stroke-width:0.708661;stroke-linecap:round;stroke-linejoin:round;stroke:rgb(18.431373%,30.980392%,30.980392%);stroke-opacity:1;stroke-miterlimit:10;" d="M 413.820312 451.972656 C 413.820312 455.703125 410.792969 458.730469 407.0625 458.730469 C 403.332031 458.730469 400.308594 455.703125 400.308594 451.972656 C 400.308594 448.242188 403.332031 445.21875 407.0625 445.21875 C 410.792969 445.21875 413.820312 448.242188 413.820312 451.972656 "/>
<path style="fill-rule:nonzero;fill:rgb(18.431373%,30.980392%,30.980392%);fill-opacity:1;stroke-width:0.708661;stroke-linecap:round;stroke-linejoin:round;stroke:rgb(18.431373%,30.980392%,30.980392%);stroke-opacity:1;stroke-miterlimit:10;" d="M 420.796875 491.449219 C 420.796875 495.183594 417.773438 498.207031 414.042969 498.207031 C 410.3125 498.207031 407.285156 495.183594 407.285156 491.449219 C 407.285156 487.71875 410.3125 484.695312 414.042969 484.695312 C 417.773438 484.695312 420.796875 487.71875 420.796875 491.449219 "/>
<path style="fill-rule:nonzero;fill:rgb(18.431373%,30.980392%,30.980392%);fill-opacity:1;stroke-width:0.708661;stroke-linecap:round;stroke-linejoin:round;stroke:rgb(18.431373%,30.980392%,30.980392%);stroke-opacity:1;stroke-miterlimit:10;" d="M 427.777344 429.738281 C 427.777344 433.46875 424.753906 436.492188 421.019531 436.492188 C 417.289062 436.492188 414.265625 433.46875 414.265625 429.738281 C 414.265625 426.007812 417.289062 422.980469 421.019531 422.980469 C 424.753906 422.980469 427.777344 426.007812 427.777344 429.738281 "/>
<path style="fill-rule:nonzero;fill:rgb(18.431373%,30.980392%,30.980392%);fill-opacity:1;stroke-width:0.708661;stroke-linecap:round;stroke-linejoin:round;stroke:rgb(18.431373%,30.980392%,30.980392%);stroke-opacity:1;stroke-miterlimit:10;" d="M 434.757812 432.347656 C 434.757812 436.078125 431.730469 439.105469 428 439.105469 C 424.269531 439.105469 421.242188 436.078125 421.242188 432.347656 C 421.242188 428.617188 424.269531 425.589844 428 425.589844 C 431.730469 425.589844 434.757812 428.617188 434.757812 432.347656 "/>
<path style="fill-rule:nonzero;fill:rgb(18.431373%,30.980392%,30.980392%);fill-opacity:1;stroke-width:0.708661;stroke-linecap:round;stroke-linejoin:round;stroke:rgb(18.431373%,30.980392%,30.980392%);stroke-opacity:1;stroke-miterlimit:10;" d="M 441.734375 429.042969 C 441.734375 432.773438 438.710938 435.796875 434.976562 435.796875 C 431.246094 435.796875 428.222656 432.773438 428.222656 429.042969 C 428.222656 425.308594 431.246094 422.285156 434.976562 422.285156 C 438.710938 422.285156 441.734375 425.308594 441.734375 429.042969 "/>
<path style="fill-rule:nonzero;fill:rgb(18.431373%,30.980392%,30.980392%);fill-opacity:1;stroke-width:0.708661;stroke-linecap:round;stroke-linejoin:round;stroke:rgb(18.431373%,30.980392%,30.980392%);stroke-opacity:1;stroke-miterlimit:10;" d="M 448.714844 434.59375 C 448.714844 438.324219 445.6875 441.351562 441.957031 441.351562 C 438.226562 441.351562 435.199219 438.324219 435.199219 434.59375 C 435.199219 430.863281 438.226562 427.839844 441.957031 427.839844 C 445.6875 427.839844 448.714844 430.863281 448.714844 434.59375 "/>
<path style="fill-rule:nonzero;fill:rgb(18.431373%,30.980392%,30.980392%);fill-opacity:1;stroke-width:0.708661;stroke-linecap:round;stroke-linejoin:round;stroke:rgb(18.431373%,30.980392%,30.980392%);stroke-opacity:1;stroke-miterlimit:10;" d="M 455.691406 446.980469 C 455.691406 450.714844 452.667969 453.738281 448.9375 453.738281 C 445.203125 453.738281 442.179688 450.714844 442.179688 446.980469 C 442.179688 443.25 445.203125 440.226562 448.9375 440.226562 C 452.667969 440.226562 455.691406 443.25 455.691406 446.980469 "/>
<path style="fill-rule:nonzero;fill:rgb(18.431373%,30.980392%,30.980392%);fill-opacity:1;stroke-width:0.708661;stroke-linecap:round;stroke-linejoin:round;stroke:rgb(18.431373%,30.980392%,30.980392%);stroke-opacity:1;stroke-miterlimit:10;" d="M 462.671875 453.765625 C 462.671875 457.496094 459.644531 460.519531 455.914062 460.519531 C 452.183594 460.519531 449.160156 457.496094 449.160156 453.765625 C 449.160156 450.035156 452.183594 447.007812 455.914062 447.007812 C 459.644531 447.007812 462.671875 450.035156 462.671875 453.765625 "/>
<path style="fill-rule:nonzero;fill:rgb(18.431373%,30.980392%,30.980392%);fill-opacity:1;stroke-width:0.708661;stroke-linecap:round;stroke-linejoin:round;stroke:rgb(18.431373%,30.980392%,30.980392%);stroke-opacity:1;stroke-miterlimit:10;" d="M 469.648438 446.46875 C 469.648438 450.199219 466.625 453.226562 462.894531 453.226562 C 459.160156 453.226562 456.136719 450.199219 456.136719 446.46875 C 456.136719 442.738281 459.160156 439.710938 462.894531 439.710938 C 466.625 439.710938 469.648438 442.738281 469.648438 446.46875 "/>
<path style="fill-rule:nonzero;fill:rgb(18.431373%,30.980392%,30.980392%);fill-opacity:1;stroke-width:0.708661;stroke-linecap:round;stroke-linejoin:round;stroke:rgb(18.431373%,30.980392%,30.980392%);stroke-opacity:1;stroke-miterlimit:10;" d="M 476.628906 450.511719 C 476.628906 454.242188 473.601562 457.269531 469.871094 457.269531 C 466.140625 457.269531 463.117188 454.242188 463.117188 450.511719 C 463.117188 446.78125 466.140625 443.753906 469.871094 443.753906 C 473.601562 443.753906 476.628906 446.78125 476.628906 450.511719 "/>
<path style="fill-rule:nonzero;fill:rgb(18.431373%,30.980392%,30.980392%);fill-opacity:1;stroke-width:0.708661;stroke-linecap:round;stroke-linejoin:round;stroke:rgb(18.431373%,30.980392%,30.980392%);stroke-opacity:1;stroke-miterlimit:10;" d="M 483.605469 425.003906 C 483.605469 428.734375 480.582031 431.761719 476.851562 431.761719 C 473.121094 431.761719 470.09375 428.734375 470.09375 425.003906 C 470.09375 421.273438 473.121094 418.246094 476.851562 418.246094 C 480.582031 418.246094 483.605469 421.273438 483.605469 425.003906 "/>
<path style="fill-rule:nonzero;fill:rgb(18.431373%,30.980392%,30.980392%);fill-opacity:1;stroke-width:0.708661;stroke-linecap:round;stroke-linejoin:round;stroke:rgb(18.431373%,30.980392%,30.980392%);stroke-opacity:1;stroke-miterlimit:10;" d="M 490.585938 431.058594 C 490.585938 434.789062 487.5625 437.8125 483.828125 437.8125 C 480.097656 437.8125 477.074219 434.789062 477.074219 431.058594 C 477.074219 427.324219 480.097656 424.300781 483.828125 424.300781 C 487.5625 424.300781 490.585938 427.324219 490.585938 431.058594 "/>
<path style="fill-rule:nonzero;fill:rgb(18.431373%,30.980392%,30.980392%);fill-opacity:1;stroke-width:0.708661;stroke-linecap:round;stroke-linejoin:round;stroke:rgb(18.431373%,30.980392%,30.980392%);stroke-opacity:1;stroke-miterlimit:10;" d="M 497.566406 447.019531 C 497.566406 450.75 494.539062 453.773438 490.808594 453.773438 C 487.078125 453.773438 484.050781 450.75 484.050781 447.019531 C 484.050781 443.289062 487.078125 440.261719 490.808594 440.261719 C 494.539062 440.261719 497.566406 443.289062 497.566406 447.019531 "/>
<path style="fill-rule:nonzero;fill:rgb(18.431373%,30.980392%,30.980392%);fill-opacity:1;stroke-width:0.708661;stroke-linecap:round;stroke-linejoin:round;stroke:rgb(18.431373%,30.980392%,30.980392%);stroke-opacity:1;stroke-miterlimit:10;" d="M 504.542969 436.855469 C 504.542969 440.585938 501.519531 443.609375 497.785156 443.609375 C 494.054688 443.609375 491.03125 440.585938 491.03125 436.855469 C 491.03125 433.121094 494.054688 430.097656 497.785156 430.097656 C 501.519531 430.097656 504.542969 433.121094 504.542969 436.855469 "/>
<path style="fill-rule:nonzero;fill:rgb(18.431373%,30.980392%,30.980392%);fill-opacity:1;stroke-width:0.708661;stroke-linecap:round;stroke-linejoin:round;stroke:rgb(18.431373%,30.980392%,30.980392%);stroke-opacity:1;stroke-miterlimit:10;" d="M 511.523438 413.347656 C 511.523438 417.082031 508.496094 420.105469 504.765625 420.105469 C 501.035156 420.105469 498.007812 417.082031 498.007812 413.347656 C 498.007812 409.617188 501.035156 406.59375 504.765625 406.59375 C 508.496094 406.59375 511.523438 409.617188 511.523438 413.347656 "/>
<path style="fill-rule:nonzero;fill:rgb(18.431373%,30.980392%,30.980392%);fill-opacity:1;stroke-width:0.708661;stroke-linecap:round;stroke-linejoin:round;stroke:rgb(18.431373%,30.980392%,30.980392%);stroke-opacity:1;stroke-miterlimit:10;" d="M 518.5 357.214844 C 518.5 360.945312 515.476562 363.96875 511.746094 363.96875 C 508.011719 363.96875 504.988281 360.945312 504.988281 357.214844 C 504.988281 353.484375 508.011719 350.457031 511.746094 350.457031 C 515.476562 350.457031 518.5 353.484375 518.5 357.214844 "/>
<path style="fill-rule:nonzero;fill:rgb(18.431373%,30.980392%,30.980392%);fill-opacity:1;stroke-width:0.708661;stroke-linecap:round;stroke-linejoin:round;stroke:rgb(18.431373%,30.980392%,30.980392%);stroke-opacity:1;stroke-miterlimit:10;" d="M 525.480469 401.332031 C 525.480469 405.0625 522.453125 408.089844 518.722656 408.089844 C 514.992188 408.089844 511.96875 405.0625 511.96875 401.332031 C 511.96875 397.601562 514.992188 394.578125 518.722656 394.578125 C 522.453125 394.578125 525.480469 397.601562 525.480469 401.332031 "/>
<path style="fill-rule:nonzero;fill:rgb(18.431373%,30.980392%,30.980392%);fill-opacity:1;stroke-width:0.708661;stroke-linecap:round;stroke-linejoin:round;stroke:rgb(18.431373%,30.980392%,30.980392%);stroke-opacity:1;stroke-miterlimit:10;" d="M 532.457031 380.800781 C 532.457031 384.53125 529.433594 387.558594 525.703125 387.558594 C 521.96875 387.558594 518.945312 384.53125 518.945312 380.800781 C 518.945312 377.070312 521.96875 374.042969 525.703125 374.042969 C 529.433594 374.042969 532.457031 377.070312 532.457031 380.800781 "/>
<path style="fill-rule:nonzero;fill:rgb(18.431373%,30.980392%,30.980392%);fill-opacity:1;stroke-width:0.708661;stroke-linecap:round;stroke-linejoin:round;stroke:rgb(18.431373%,30.980392%,30.980392%);stroke-opacity:1;stroke-miterlimit:10;" d="M 539.4375 397.5 C 539.4375 401.230469 536.410156 404.257812 532.679688 404.257812 C 528.949219 404.257812 525.925781 401.230469 525.925781 397.5 C 525.925781 393.769531 528.949219 390.746094 532.679688 390.746094 C 536.410156 390.746094 539.4375 393.769531 539.4375 397.5 "/>
<path style="fill-rule:nonzero;fill:rgb(18.431373%,30.980392%,30.980392%);fill-opacity:1;stroke-width:0.708661;stroke-linecap:round;stroke-linejoin:round;stroke:rgb(18.431373%,30.980392%,30.980392%);stroke-opacity:1;stroke-miterlimit:10;" d="M 546.414062 345.175781 C 546.414062 348.90625 543.390625 351.933594 539.660156 351.933594 C 535.929688 351.933594 532.902344 348.90625 532.902344 345.175781 C 532.902344 341.445312 535.929688 338.421875 539.660156 338.421875 C 543.390625 338.421875 546.414062 341.445312 546.414062 345.175781 "/>
<path style="fill-rule:nonzero;fill:rgb(18.431373%,30.980392%,30.980392%);fill-opacity:1;stroke-width:0.708661;stroke-linecap:round;stroke-linejoin:round;stroke:rgb(18.431373%,30.980392%,30.980392%);stroke-opacity:1;stroke-miterlimit:10;" d="M 553.394531 362.613281 C 553.394531 366.34375 550.371094 369.371094 546.636719 369.371094 C 542.90625 369.371094 539.882812 366.34375 539.882812 362.613281 C 539.882812 358.882812 542.90625 355.855469 546.636719 355.855469 C 550.371094 355.855469 553.394531 358.882812 553.394531 362.613281 "/>
<path style="fill-rule:nonzero;fill:rgb(18.431373%,30.980392%,30.980392%);fill-opacity:1;stroke-width:0.708661;stroke-linecap:round;stroke-linejoin:round;stroke:rgb(18.431373%,30.980392%,30.980392%);stroke-opacity:1;stroke-miterlimit:10;" d="M 560.371094 360.03125 C 560.371094 363.761719 557.347656 366.789062 553.617188 366.789062 C 549.886719 366.789062 546.859375 363.761719 546.859375 360.03125 C 546.859375 356.300781 549.886719 353.277344 553.617188 353.277344 C 557.347656 353.277344 560.371094 356.300781 560.371094 360.03125 "/>
<path style="fill-rule:nonzero;fill:rgb(18.431373%,30.980392%,30.980392%);fill-opacity:1;stroke-width:0.708661;stroke-linecap:round;stroke-linejoin:round;stroke:rgb(18.431373%,30.980392%,30.980392%);stroke-opacity:1;stroke-miterlimit:10;" d="M 567.351562 362.441406 C 567.351562 366.171875 564.328125 369.199219 560.59375 369.199219 C 556.863281 369.199219 553.839844 366.171875 553.839844 362.441406 C 553.839844 358.710938 556.863281 355.6875 560.59375 355.6875 C 564.328125 355.6875 567.351562 358.710938 567.351562 362.441406 "/>
<path style="fill-rule:nonzero;fill:rgb(18.431373%,30.980392%,30.980392%);fill-opacity:1;stroke-width:0.708661;stroke-linecap:round;stroke-linejoin:round;stroke:rgb(18.431373%,30.980392%,30.980392%);stroke-opacity:1;stroke-miterlimit:10;" d="M 574.332031 288.195312 C 574.332031 291.925781 571.304688 294.953125 567.574219 294.953125 C 563.84375 294.953125 560.816406 291.925781 560.816406 288.195312 C 560.816406 284.464844 563.84375 281.441406 567.574219 281.441406 C 571.304688 281.441406 574.332031 284.464844 574.332031 288.195312 "/>
<path style="fill-rule:nonzero;fill:rgb(18.431373%,30.980392%,30.980392%);fill-opacity:1;stroke-width:0.708661;stroke-linecap:round;stroke-linejoin:round;stroke:rgb(18.431373%,30.980392%,30.980392%);stroke-opacity:1;stroke-miterlimit:10;" d="M 581.308594 272.867188 C 581.308594 276.601562 578.285156 279.625 574.554688 279.625 C 570.820312 279.625 567.796875 276.601562 567.796875 272.867188 C 567.796875 269.136719 570.820312 266.113281 574.554688 266.113281 C 578.285156 266.113281 581.308594 269.136719 581.308594 272.867188 "/>
<path style="fill-rule:nonzero;fill:rgb(18.431373%,30.980392%,30.980392%);fill-opacity:1;stroke-width:0.708661;stroke-linecap:round;stroke-linejoin:round;stroke:rgb(18.431373%,30.980392%,30.980392%);stroke-opacity:1;stroke-miterlimit:10;" d="M 588.289062 317.855469 C 588.289062 321.589844 585.261719 324.613281 581.53125 324.613281 C 577.800781 324.613281 574.777344 321.589844 574.777344 317.855469 C 574.777344 314.125 577.800781 311.101562 581.53125 311.101562 C 585.261719 311.101562 588.289062 314.125 588.289062 317.855469 "/>
<path style="fill-rule:nonzero;fill:rgb(18.431373%,30.980392%,30.980392%);fill-opacity:1;stroke-width:0.708661;stroke-linecap:round;stroke-linejoin:round;stroke:rgb(18.431373%,30.980392%,30.980392%);stroke-opacity:1;stroke-miterlimit:10;" d="M 595.265625 304.886719 C 595.265625 308.617188 592.242188 311.640625 588.511719 311.640625 C 584.777344 311.640625 581.753906 308.617188 581.753906 304.886719 C 581.753906 301.15625 584.777344 298.128906 588.511719 298.128906 C 592.242188 298.128906 595.265625 301.15625 595.265625 304.886719 "/>
<path style="fill-rule:nonzero;fill:rgb(18.431373%,30.980392%,30.980392%);fill-opacity:1;stroke-width:0.708661;stroke-linecap:round;stroke-linejoin:round;stroke:rgb(18.431373%,30.980392%,30.980392%);stroke-opacity:1;stroke-miterlimit:10;" d="M 602.246094 242.730469 C 602.246094 246.460938 599.21875 249.488281 595.488281 249.488281 C 591.757812 249.488281 588.734375 246.460938 588.734375 242.730469 C 588.734375 239 591.757812 235.972656 595.488281 235.972656 C 599.21875 235.972656 602.246094 239 602.246094 242.730469 "/>
<path style="fill-rule:nonzero;fill:rgb(18.431373%,30.980392%,30.980392%);fill-opacity:1;stroke-width:0.708661;stroke-linecap:round;stroke-linejoin:round;stroke:rgb(18.431373%,30.980392%,30.980392%);stroke-opacity:1;stroke-miterlimit:10;" d="M 609.222656 246.628906 C 609.222656 250.359375 606.199219 253.386719 602.46875 253.386719 C 598.738281 253.386719 595.710938 250.359375 595.710938 246.628906 C 595.710938 242.898438 598.738281 239.871094 602.46875 239.871094 C 606.199219 239.871094 609.222656 242.898438 609.222656 246.628906 "/>
<path style="fill-rule:nonzero;fill:rgb(18.431373%,30.980392%,30.980392%);fill-opacity:1;stroke-width:0.708661;stroke-linecap:round;stroke-linejoin:round;stroke:rgb(18.431373%,30.980392%,30.980392%);stroke-opacity:1;stroke-miterlimit:10;" d="M 616.203125 252.578125 C 616.203125 256.308594 613.179688 259.332031 609.445312 259.332031 C 605.714844 259.332031 602.691406 256.308594 602.691406 252.578125 C 602.691406 248.847656 605.714844 245.820312 609.445312 245.820312 C 613.179688 245.820312 616.203125 248.847656 616.203125 252.578125 "/>
<path style="fill-rule:nonzero;fill:rgb(18.431373%,30.980392%,30.980392%);fill-opacity:1;stroke-width:0.708661;stroke-linecap:round;stroke-linejoin:round;stroke:rgb(18.431373%,30.980392%,30.980392%);stroke-opacity:1;stroke-miterlimit:10;" d="M 623.179688 255.058594 C 623.179688 258.789062 620.15625 261.8125 616.425781 261.8125 C 612.695312 261.8125 609.667969 258.789062 609.667969 255.058594 C 609.667969 251.324219 612.695312 248.300781 616.425781 248.300781 C 620.15625 248.300781 623.179688 251.324219 623.179688 255.058594 "/>
<path style="fill-rule:nonzero;fill:rgb(18.431373%,30.980392%,30.980392%);fill-opacity:1;stroke-width:0.708661;stroke-linecap:round;stroke-linejoin:round;stroke:rgb(18.431373%,30.980392%,30.980392%);stroke-opacity:1;stroke-miterlimit:10;" d="M 630.160156 221.835938 C 630.160156 225.570312 627.136719 228.59375 623.402344 228.59375 C 619.671875 228.59375 616.648438 225.570312 616.648438 221.835938 C 616.648438 218.105469 619.671875 215.082031 623.402344 215.082031 C 627.136719 215.082031 630.160156 218.105469 630.160156 221.835938 "/>
<path style="fill-rule:nonzero;fill:rgb(18.431373%,30.980392%,30.980392%);fill-opacity:1;stroke-width:0.708661;stroke-linecap:round;stroke-linejoin:round;stroke:rgb(18.431373%,30.980392%,30.980392%);stroke-opacity:1;stroke-miterlimit:10;" d="M 637.140625 220.96875 C 637.140625 224.703125 634.113281 227.726562 630.382812 227.726562 C 626.652344 227.726562 623.625 224.703125 623.625 220.96875 C 623.625 217.238281 626.652344 214.214844 630.382812 214.214844 C 634.113281 214.214844 637.140625 217.238281 637.140625 220.96875 "/>
<path style="fill-rule:nonzero;fill:rgb(18.431373%,30.980392%,30.980392%);fill-opacity:1;stroke-width:0.708661;stroke-linecap:round;stroke-linejoin:round;stroke:rgb(18.431373%,30.980392%,30.980392%);stroke-opacity:1;stroke-miterlimit:10;" d="M 644.117188 216.824219 C 644.117188 220.554688 641.09375 223.578125 637.363281 223.578125 C 633.628906 223.578125 630.605469 220.554688 630.605469 216.824219 C 630.605469 213.089844 633.628906 210.066406 637.363281 210.066406 C 641.09375 210.066406 644.117188 213.089844 644.117188 216.824219 "/>
<path style="fill-rule:nonzero;fill:rgb(18.431373%,30.980392%,30.980392%);fill-opacity:1;stroke-width:0.708661;stroke-linecap:round;stroke-linejoin:round;stroke:rgb(18.431373%,30.980392%,30.980392%);stroke-opacity:1;stroke-miterlimit:10;" d="M 651.097656 185.664062 C 651.097656 189.398438 648.070312 192.421875 644.339844 192.421875 C 640.609375 192.421875 637.585938 189.398438 637.585938 185.664062 C 637.585938 181.933594 640.609375 178.910156 644.339844 178.910156 C 648.070312 178.910156 651.097656 181.933594 651.097656 185.664062 "/>
<path style="fill-rule:nonzero;fill:rgb(18.431373%,30.980392%,30.980392%);fill-opacity:1;stroke-width:0.708661;stroke-linecap:round;stroke-linejoin:round;stroke:rgb(18.431373%,30.980392%,30.980392%);stroke-opacity:1;stroke-miterlimit:10;" d="M 658.074219 168.0625 C 658.074219 171.792969 655.050781 174.816406 651.320312 174.816406 C 647.585938 174.816406 644.5625 171.792969 644.5625 168.0625 C 644.5625 164.328125 647.585938 161.304688 651.320312 161.304688 C 655.050781 161.304688 658.074219 164.328125 658.074219 168.0625 "/>
<path style="fill-rule:nonzero;fill:rgb(18.431373%,30.980392%,30.980392%);fill-opacity:1;stroke-width:0.708661;stroke-linecap:round;stroke-linejoin:round;stroke:rgb(18.431373%,30.980392%,30.980392%);stroke-opacity:1;stroke-miterlimit:10;" d="M 665.054688 144.996094 C 665.054688 148.726562 662.027344 151.75 658.296875 151.75 C 654.566406 151.75 651.542969 148.726562 651.542969 144.996094 C 651.542969 141.265625 654.566406 138.238281 658.296875 138.238281 C 662.027344 138.238281 665.054688 141.265625 665.054688 144.996094 "/>
<path style="fill-rule:nonzero;fill:rgb(18.431373%,30.980392%,30.980392%);fill-opacity:1;stroke-width:0.708661;stroke-linecap:round;stroke-linejoin:round;stroke:rgb(18.431373%,30.980392%,30.980392%);stroke-opacity:1;stroke-miterlimit:10;" d="M 672.03125 163.789062 C 672.03125 167.523438 669.007812 170.546875 665.277344 170.546875 C 661.546875 170.546875 658.519531 167.523438 658.519531 163.789062 C 658.519531 160.058594 661.546875 157.035156 665.277344 157.035156 C 669.007812 157.035156 672.03125 160.058594 672.03125 163.789062 "/>
<path style="fill-rule:nonzero;fill:rgb(18.431373%,30.980392%,30.980392%);fill-opacity:1;stroke-width:0.708661;stroke-linecap:round;stroke-linejoin:round;stroke:rgb(18.431373%,30.980392%,30.980392%);stroke-opacity:1;stroke-miterlimit:10;" d="M 679.011719 92.203125 C 679.011719 95.933594 675.988281 98.957031 672.253906 98.957031 C 668.523438 98.957031 665.5 95.933594 665.5 92.203125 C 665.5 88.46875 668.523438 85.445312 672.253906 85.445312 C 675.988281 85.445312 679.011719 88.46875 679.011719 92.203125 "/>
<path style="fill-rule:nonzero;fill:rgb(18.431373%,30.980392%,30.980392%);fill-opacity:1;stroke-width:0.708661;stroke-linecap:round;stroke-linejoin:round;stroke:rgb(18.431373%,30.980392%,30.980392%);stroke-opacity:1;stroke-miterlimit:10;" d="M 685.988281 114.203125 C 685.988281 117.933594 682.964844 120.960938 679.234375 120.960938 C 675.503906 120.960938 672.476562 117.933594 672.476562 114.203125 C 672.476562 110.472656 675.503906 107.449219 679.234375 107.449219 C 682.964844 107.449219 685.988281 110.472656 685.988281 114.203125 "/>
<path style="fill-rule:nonzero;fill:rgb(18.431373%,30.980392%,30.980392%);fill-opacity:1;stroke-width:0.708661;stroke-linecap:round;stroke-linejoin:round;stroke:rgb(18.431373%,30.980392%,30.980392%);stroke-opacity:1;stroke-miterlimit:10;" d="M 692.96875 98.589844 C 692.96875 102.320312 689.945312 105.34375 686.210938 105.34375 C 682.480469 105.34375 679.457031 102.320312 679.457031 98.589844 C 679.457031 94.859375 682.480469 91.832031 686.210938 91.832031 C 689.945312 91.832031 692.96875 94.859375 692.96875 98.589844 "/>
<path style="fill-rule:nonzero;fill:rgb(18.431373%,30.980392%,30.980392%);fill-opacity:1;stroke-width:0.708661;stroke-linecap:round;stroke-linejoin:round;stroke:rgb(18.431373%,30.980392%,30.980392%);stroke-opacity:1;stroke-miterlimit:10;" d="M 699.949219 92.601562 C 699.949219 96.335938 696.921875 99.359375 693.191406 99.359375 C 689.460938 99.359375 686.433594 96.335938 686.433594 92.601562 C 686.433594 88.871094 689.460938 85.847656 693.191406 85.847656 C 696.921875 85.847656 699.949219 88.871094 699.949219 92.601562 "/>
<path style="fill-rule:nonzero;fill:rgb(18.431373%,30.980392%,30.980392%);fill-opacity:1;stroke-width:0.708661;stroke-linecap:round;stroke-linejoin:round;stroke:rgb(18.431373%,30.980392%,30.980392%);stroke-opacity:1;stroke-miterlimit:10;" d="M 706.925781 76.140625 C 706.925781 79.871094 703.902344 82.898438 700.171875 82.898438 C 696.4375 82.898438 693.414062 79.871094 693.414062 76.140625 C 693.414062 72.410156 696.4375 69.386719 700.171875 69.386719 C 703.902344 69.386719 706.925781 72.410156 706.925781 76.140625 "/>
<path style="fill-rule:nonzero;fill:rgb(18.431373%,30.980392%,30.980392%);fill-opacity:1;stroke-width:0.708661;stroke-linecap:round;stroke-linejoin:round;stroke:rgb(18.431373%,30.980392%,30.980392%);stroke-opacity:1;stroke-miterlimit:10;" d="M 713.90625 49.300781 C 713.90625 53.03125 710.878906 56.054688 707.148438 56.054688 C 703.417969 56.054688 700.394531 53.03125 700.394531 49.300781 C 700.394531 45.570312 703.417969 42.542969 707.148438 42.542969 C 710.878906 42.542969 713.90625 45.570312 713.90625 49.300781 "/>
<path style="fill-rule:nonzero;fill:rgb(18.431373%,30.980392%,30.980392%);fill-opacity:1;stroke-width:0.708661;stroke-linecap:round;stroke-linejoin:round;stroke:rgb(18.431373%,30.980392%,30.980392%);stroke-opacity:1;stroke-miterlimit:10;" d="M 720.882812 31.308594 C 720.882812 35.039062 717.859375 38.066406 714.128906 38.066406 C 710.394531 38.066406 707.371094 35.039062 707.371094 31.308594 C 707.371094 27.578125 710.394531 24.554688 714.128906 24.554688 C 717.859375 24.554688 720.882812 27.578125 720.882812 31.308594 "/>
<path style="fill-rule:nonzero;fill:rgb(18.431373%,30.980392%,30.980392%);fill-opacity:1;stroke-width:0.708661;stroke-linecap:round;stroke-linejoin:round;stroke:rgb(18.431373%,30.980392%,30.980392%);stroke-opacity:1;stroke-miterlimit:10;" d="M 727.863281 23.4375 C 727.863281 27.171875 724.835938 30.195312 721.105469 30.195312 C 717.375 30.195312 714.351562 27.171875 714.351562 23.4375 C 714.351562 19.707031 717.375 16.683594 721.105469 16.683594 C 724.835938 16.683594 727.863281 19.707031 727.863281 23.4375 "/>
<path style="fill:none;stroke-width:6.40187;stroke-linecap:butt;stroke-linejoin:round;stroke:rgb(94.117647%,50.196078%,50.196078%);stroke-opacity:1;stroke-miterlimit:10;" d="M 23.234375 318.8125 L 32.066406 318.730469 L 40.902344 318.648438 L 49.734375 318.566406 L 58.570312 318.484375 L 67.402344 318.402344 L 76.238281 318.320312 L 93.902344 318.15625 L 102.738281 318.074219 L 111.570312 317.992188 L 120.40625 317.910156 L 129.238281 317.828125 L 138.074219 317.746094 L 146.90625 317.664062 L 155.742188 317.582031 L 164.574219 317.5 L 173.410156 317.417969 L 182.242188 317.335938 L 191.078125 317.253906 L 208.742188 317.089844 L 217.578125 317.007812 L 226.410156 316.925781 L 235.246094 316.84375 L 244.078125 316.761719 L 252.914062 316.679688 L 261.746094 316.597656 L 270.582031 316.515625 L 279.414062 316.429688 L 288.25 316.347656 L 297.082031 316.265625 L 305.917969 316.183594 L 323.582031 316.019531 L 332.417969 315.9375 L 341.25 315.855469 L 350.085938 315.773438 L 358.917969 315.691406 L 367.753906 315.609375 L 376.585938 315.527344 L 385.421875 315.445312 L 394.253906 315.363281 L 403.089844 315.28125 L 411.921875 315.199219 L 420.757812 315.117188 L 438.421875 314.953125 L 447.257812 314.871094 L 456.089844 314.789062 L 464.925781 314.707031 L 473.757812 314.625 L 482.59375 314.542969 L 491.425781 314.460938 L 500.261719 314.378906 L 509.09375 314.296875 L 517.929688 314.214844 L 526.761719 314.132812 L 535.597656 314.050781 L 553.261719 313.886719 L 562.097656 313.804688 L 570.929688 313.722656 L 579.765625 313.640625 L 588.597656 313.558594 L 597.433594 313.476562 L 606.265625 313.394531 L 615.101562 313.308594 L 623.933594 313.226562 L 632.769531 313.144531 L 641.601562 313.0625 L 650.4375 312.980469 L 668.101562 312.816406 L 676.9375 312.734375 L 685.769531 312.652344 L 694.605469 312.570312 L 703.4375 312.488281 L 712.273438 312.40625 L 721.105469 312.324219 "/>
</g>
</svg>
