<?xml version="1.0" encoding="UTF-8"?>
<svg xmlns="http://www.w3.org/2000/svg" xmlns:xlink="http://www.w3.org/1999/xlink" width="756pt" height="360pt" viewBox="0 0 756 360" version="1.1">
<g id="surface304">
<rect x="0" y="0" width="756" height="360" style="fill:rgb(100%,100%,100%);fill-opacity:1;stroke:none;"/>
<path style="fill-rule:nonzero;fill:rgb(18.431373%,30.980392%,30.980392%);fill-opacity:1;stroke-width:0.708661;stroke-linecap:round;stroke-linejoin:round;stroke:rgb(18.431373%,30.980392%,30.980392%);stroke-opacity:1;stroke-miterlimit:10;" d="M 29.988281 16.894531 C 29.988281 20.625 26.964844 23.648438 23.234375 23.648438 C 19.503906 23.648438 16.476562 20.625 16.476562 16.894531 C 16.476562 13.164062 19.503906 10.136719 23.234375 10.136719 C 26.964844 10.136719 29.988281 13.164062 29.988281 16.894531 "/>
<path style="fill-rule:nonzero;fill:rgb(18.431373%,30.980392%,30.980392%);fill-opacity:1;stroke-width:0.708661;stroke-linecap:round;stroke-linejoin:round;stroke:rgb(18.431373%,30.980392%,30.980392%);stroke-opacity:1;stroke-miterlimit:10;" d="M 36.96875 21.046875 C 36.96875 24.777344 33.945312 27.800781 30.210938 27.800781 C 26.480469 27.800781 23.457031 24.777344 23.457031 21.046875 C 23.457031 17.316406 26.480469 14.289062 30.210938 14.289062 C 33.945312 14.289062 36.96875 17.316406 36.96875 21.046875 "/>
<path style="fill-rule:nonzero;fill:rgb(18.431373%,30.980392%,30.980392%);fill-opacity:1;stroke-width:0.708661;stroke-linecap:round;stroke-linejoin:round;stroke:rgb(18.431373%,30.980392%,30.980392%);stroke-opacity:1;stroke-miterlimit:10;" d="M 43.945312 52.648438 C 43.945312 56.378906 40.921875 59.402344 37.191406 59.402344 C 33.460938 59.402344 30.433594 56.378906 30.433594 52.648438 C 30.433594 48.917969 33.460938 45.890625 37.191406 45.890625 C 40.921875 45.890625 43.945312 48.917969 43.945312 52.648438 "/>
<path style="fill-rule:nonzero;fill:rgb(18.431373%,30.980392%,30.980392%);fill-opacity:1;stroke-width:0.708661;stroke-linecap:round;stroke-linejoin:round;stroke:rgb(18.431373%,30.980392%,30.980392%);stroke-opacity:1;stroke-miterlimit:10;" d="M 50.925781 41.125 C 50.925781 44.855469 47.902344 47.878906 44.167969 47.878906 C 40.4375 47.878906 37.414062 44.855469 37.414062 41.125 C 37.414062 37.390625 40.4375 34.367188 44.167969 34.367188 C 47.902344 34.367188 50.925781 37.390625 50.925781 41.125 "/>
<path style="fill-rule:nonzero;fill:rgb(18.431373%,30.980392%,30.980392%);fill-opacity:1;stroke-width:0.708661;stroke-linecap:round;stroke-linejoin:round;stroke:rgb(18.431373%,30.980392%,30.980392%);stroke-opacity:1;stroke-miterlimit:10;" d="M 57.90625 41.757812 C 57.90625 45.488281 54.878906 48.515625 51.148438 48.515625 C 47.417969 48.515625 44.390625 45.488281 44.390625 41.757812 C 44.390625 38.027344 47.417969 35.003906 51.148438 35.003906 C 54.878906 35.003906 57.90625 38.027344 57.90625 41.757812 "/>
<path style="fill-rule:nonzero;fill:rgb(18.431373%,30.980392%,30.980392%);fill-opacity:1;stroke-width:0.708661;stroke-linecap:round;stroke-linejoin:round;stroke:rgb(18.431373%,30.980392%,30.980392%);stroke-opacity:1;stroke-miterlimit:10;" d="M 64.882812 74.824219 C 64.882812 78.554688 61.859375 81.582031 58.128906 81.582031 C 54.394531 81.582031 51.371094 78.554688 51.371094 74.824219 C 51.371094 71.09375 54.394531 68.066406 58.128906 68.066406 C 61.859375 68.066406 64.882812 71.09375 64.882812 74.824219 "/>
<path style="fill-rule:nonzero;fill:rgb(18.431373%,30.980392%,30.980392%);fill-opacity:1;stroke-width:0.708661;stroke-linecap:round;stroke-linejoin:round;stroke:rgb(18.431373%,30.980392%,30.980392%);stroke-opacity:1;stroke-miterlimit:10;" d="M 71.863281 92.308594 C 71.863281 96.039062 68.835938 99.066406 65.105469 99.066406 C 61.375 99.066406 58.347656 96.039062 58.347656 92.308594 C 58.347656 88.578125 61.375 85.550781 65.105469 85.550781 C 68.835938 85.550781 71.863281 88.578125 71.863281 92.308594 "/>
<path style="fill-rule:nonzero;fill:rgb(18.431373%,30.980392%,30.980392%);fill-opacity:1;stroke-width:0.708661;stroke-linecap:round;stroke-linejoin:round;stroke:rgb(18.431373%,30.980392%,30.980392%);stroke-opacity:1;stroke-miterlimit:10;" d="M 78.839844 104.5625 C 78.839844 108.292969 75.816406 111.320312 72.085938 111.320312 C 68.351562 111.320312 65.328125 108.292969 65.328125 104.5625 C 65.328125 100.832031 68.351562 97.808594 72.085938 97.808594 C 75.816406 97.808594 78.839844 100.832031 78.839844 104.5625 "/>
<path style="fill-rule:nonzero;fill:rgb(18.431373%,30.980392%,30.980392%);fill-opacity:1;stroke-width:0.708661;stroke-linecap:round;stroke-linejoin:round;stroke:rgb(18.431373%,30.980392%,30.980392%);stroke-opacity:1;stroke-miterlimit:10;" d="M 85.820312 85.113281 C 85.820312 88.84375 82.792969 91.867188 79.0625 91.867188 C 75.332031 91.867188 72.308594 88.84375 72.308594 85.113281 C 72.308594 81.382812 75.332031 78.355469 79.0625 78.355469 C 82.792969 78.355469 85.820312 81.382812 85.820312 85.113281 "/>
<path style="fill-rule:nonzero;fill:rgb(18.431373%,30.980392%,30.980392%);fill-opacity:1;stroke-width:0.708661;stroke-linecap:round;stroke-linejoin:round;stroke:rgb(18.431373%,30.980392%,30.980392%);stroke-opacity:1;stroke-miterlimit:10;" d="M 92.796875 113.15625 C 92.796875 116.890625 89.773438 119.914062 86.042969 119.914062 C 82.3125 119.914062 79.285156 116.890625 79.285156 113.15625 C 79.285156 109.425781 82.3125 106.402344 86.042969 106.402344 C 89.773438 106.402344 92.796875 109.425781 92.796875 113.15625 "/>
<path style="fill-rule:nonzero;fill:rgb(18.431373%,30.980392%,30.980392%);fill-opacity:1;stroke-width:0.708661;stroke-linecap:round;stroke-linejoin:round;stroke:rgb(18.431373%,30.980392%,30.980392%);stroke-opacity:1;stroke-miterlimit:10;" d="M 99.777344 139.703125 C 99.777344 143.433594 96.753906 146.457031 93.019531 146.457031 C 89.289062 146.457031 86.265625 143.433594 86.265625 139.703125 C 86.265625 135.972656 89.289062 132.945312 93.019531 132.945312 C 96.753906 132.945312 99.777344 135.972656 99.777344 139.703125 "/>
<path style="fill-rule:nonzero;fill:rgb(18.431373%,30.980392%,30.980392%);fill-opacity:1;stroke-width:0.708661;stroke-linecap:round;stroke-linejoin:round;stroke:rgb(18.431373%,30.980392%,30.980392%);stroke-opacity:1;stroke-miterlimit:10;" d="M 106.753906 140.585938 C 106.753906 144.320312 103.730469 147.34375 100 147.34375 C 96.269531 147.34375 93.242188 144.320312 93.242188 140.585938 C 93.242188 136.855469 96.269531 133.832031 100 133.832031 C 103.730469 133.832031 106.753906 136.855469 106.753906 140.585938 "/>
<path style="fill-rule:nonzero;fill:rgb(18.431373%,30.980392%,30.980392%);fill-opacity:1;stroke-width:0.708661;stroke-linecap:round;stroke-linejoin:round;stroke:rgb(18.431373%,30.980392%,30.980392%);stroke-opacity:1;stroke-miterlimit:10;" d="M 113.734375 151.410156 C 113.734375 155.140625 110.710938 158.164062 106.976562 158.164062 C 103.246094 158.164062 100.222656 155.140625 100.222656 151.410156 C 100.222656 147.679688 103.246094 144.652344 106.976562 144.652344 C 110.710938 144.652344 113.734375 147.679688 113.734375 151.410156 "/>
<path style="fill-rule:nonzero;fill:rgb(18.431373%,30.980392%,30.980392%);fill-opacity:1;stroke-width:0.708661;stroke-linecap:round;stroke-linejoin:round;stroke:rgb(18.431373%,30.980392%,30.980392%);stroke-opacity:1;stroke-miterlimit:10;" d="M 120.714844 144.21875 C 120.714844 147.949219 117.6875 150.972656 113.957031 150.972656 C 110.226562 150.972656 107.199219 147.949219 107.199219 144.21875 C 107.199219 140.484375 110.226562 137.460938 113.957031 137.460938 C 117.6875 137.460938 120.714844 140.484375 120.714844 144.21875 "/>
<path style="fill-rule:nonzero;fill:rgb(18.431373%,30.980392%,30.980392%);fill-opacity:1;stroke-width:0.708661;stroke-linecap:round;stroke-linejoin:round;stroke:rgb(18.431373%,30.980392%,30.980392%);stroke-opacity:1;stroke-miterlimit:10;" d="M 127.691406 157.378906 C 127.691406 161.109375 124.667969 164.136719 120.9375 164.136719 C 117.203125 164.136719 114.179688 161.109375 114.179688 157.378906 C 114.179688 153.648438 117.203125 150.625 120.9375 150.625 C 124.667969 150.625 127.691406 153.648438 127.691406 157.378906 "/>
<path style="fill-rule:nonzero;fill:rgb(18.431373%,30.980392%,30.980392%);fill-opacity:1;stroke-width:0.708661;stroke-linecap:round;stroke-linejoin:round;stroke:rgb(18.431373%,30.980392%,30.980392%);stroke-opacity:1;stroke-miterlimit:10;" d="M 134.671875 174.574219 C 134.671875 178.308594 131.644531 181.332031 127.914062 181.332031 C 124.183594 181.332031 121.15625 178.308594 121.15625 174.574219 C 121.15625 170.84375 124.183594 167.820312 127.914062 167.820312 C 131.644531 167.820312 134.671875 170.84375 134.671875 174.574219 "/>
<path style="fill-rule:nonzero;fill:rgb(18.431373%,30.980392%,30.980392%);fill-opacity:1;stroke-width:0.708661;stroke-linecap:round;stroke-linejoin:round;stroke:rgb(18.431373%,30.980392%,30.980392%);stroke-opacity:1;stroke-miterlimit:10;" d="M 141.648438 192.378906 C 141.648438 196.109375 138.625 199.132812 134.894531 199.132812 C 131.160156 199.132812 128.136719 196.109375 128.136719 192.378906 C 128.136719 188.644531 131.160156 185.621094 134.894531 185.621094 C 138.625 185.621094 141.648438 188.644531 141.648438 192.378906 "/>
<path style="fill-rule:nonzero;fill:rgb(18.431373%,30.980392%,30.980392%);fill-opacity:1;stroke-width:0.708661;stroke-linecap:round;stroke-linejoin:round;stroke:rgb(18.431373%,30.980392%,30.980392%);stroke-opacity:1;stroke-miterlimit:10;" d="M 148.628906 205.152344 C 148.628906 208.886719 145.601562 211.910156 141.871094 211.910156 C 138.140625 211.910156 135.117188 208.886719 135.117188 205.152344 C 135.117188 201.421875 138.140625 198.398438 141.871094 198.398438 C 145.601562 198.398438 148.628906 201.421875 148.628906 205.152344 "/>
<path style="fill-rule:nonzero;fill:rgb(18.431373%,30.980392%,30.980392%);fill-opacity:1;stroke-width:0.708661;stroke-linecap:round;stroke-linejoin:round;stroke:rgb(18.431373%,30.980392%,30.980392%);stroke-opacity:1;stroke-miterlimit:10;" d="M 155.605469 230.472656 C 155.605469 234.203125 152.582031 237.230469 148.851562 237.230469 C 145.121094 237.230469 142.09375 234.203125 142.09375 230.472656 C 142.09375 226.742188 145.121094 223.71875 148.851562 223.71875 C 152.582031 223.71875 155.605469 226.742188 155.605469 230.472656 "/>
<path style="fill-rule:nonzero;fill:rgb(18.431373%,30.980392%,30.980392%);fill-opacity:1;stroke-width:0.708661;stroke-linecap:round;stroke-linejoin:round;stroke:rgb(18.431373%,30.980392%,30.980392%);stroke-opacity:1;stroke-miterlimit:10;" d="M 162.585938 191.816406 C 162.585938 195.546875 159.5625 198.574219 155.828125 198.574219 C 152.097656 198.574219 149.074219 195.546875 149.074219 191.816406 C 149.074219 188.085938 152.097656 185.058594 155.828125 185.058594 C 159.5625 185.058594 162.585938 188.085938 162.585938 191.816406 "/>
<path style="fill-rule:nonzero;fill:rgb(18.431373%,30.980392%,30.980392%);fill-opacity:1;stroke-width:0.708661;stroke-linecap:round;stroke-linejoin:round;stroke:rgb(18.431373%,30.980392%,30.980392%);stroke-opacity:1;stroke-miterlimit:10;" d="M 169.5625 231.433594 C 169.5625 235.164062 166.539062 238.1875 162.808594 238.1875 C 159.078125 238.1875 156.050781 235.164062 156.050781 231.433594 C 156.050781 227.703125 159.078125 224.675781 162.808594 224.675781 C 166.539062 224.675781 169.5625 227.703125 169.5625 231.433594 "/>
<path style="fill-rule:nonzero;fill:rgb(18.431373%,30.980392%,30.980392%);fill-opacity:1;stroke-width:0.708661;stroke-linecap:round;stroke-linejoin:round;stroke:rgb(18.431373%,30.980392%,30.980392%);stroke-opacity:1;stroke-miterlimit:10;" d="M 176.542969 233.125 C 176.542969 236.855469 173.519531 239.878906 169.785156 239.878906 C 166.054688 239.878906 163.03125 236.855469 163.03125 233.125 C 163.03125 229.394531 166.054688 226.367188 169.785156 226.367188 C 173.519531 226.367188 176.542969 229.394531 176.542969 233.125 "/>
<path style="fill-rule:nonzero;fill:rgb(18.431373%,30.980392%,30.980392%);fill-opacity:1;stroke-width:0.708661;stroke-linecap:round;stroke-linejoin:round;stroke:rgb(18.431373%,30.980392%,30.980392%);stroke-opacity:1;stroke-miterlimit:10;" d="M 183.523438 232.726562 C 183.523438 236.457031 180.496094 239.480469 176.765625 239.480469 C 173.035156 239.480469 170.007812 236.457031 170.007812 232.726562 C 170.007812 228.996094 173.035156 225.96875 176.765625 225.96875 C 180.496094 225.96875 183.523438 228.996094 183.523438 232.726562 "/>
<path style="fill-rule:nonzero;fill:rgb(18.431373%,30.980392%,30.980392%);fill-opacity:1;stroke-width:0.708661;stroke-linecap:round;stroke-linejoin:round;stroke:rgb(18.431373%,30.980392%,30.980392%);stroke-opacity:1;stroke-miterlimit:10;" d="M 190.5 228.140625 C 190.5 231.871094 187.476562 234.898438 183.746094 234.898438 C 180.011719 234.898438 176.988281 231.871094 176.988281 228.140625 C 176.988281 224.410156 180.011719 221.382812 183.746094 221.382812 C 187.476562 221.382812 190.5 224.410156 190.5 228.140625 "/>
<path style="fill-rule:nonzero;fill:rgb(18.431373%,30.980392%,30.980392%);fill-opacity:1;stroke-width:0.708661;stroke-linecap:round;stroke-linejoin:round;stroke:rgb(18.431373%,30.980392%,30.980392%);stroke-opacity:1;stroke-miterlimit:10;" d="M 197.480469 262.703125 C 197.480469 266.433594 194.453125 269.460938 190.722656 269.460938 C 186.992188 269.460938 183.964844 266.433594 183.964844 262.703125 C 183.964844 258.972656 186.992188 255.949219 190.722656 255.949219 C 194.453125 255.949219 197.480469 258.972656 197.480469 262.703125 "/>
<path style="fill-rule:nonzero;fill:rgb(18.431373%,30.980392%,30.980392%);fill-opacity:1;stroke-width:0.708661;stroke-linecap:round;stroke-linejoin:round;stroke:rgb(18.431373%,30.980392%,30.980392%);stroke-opacity:1;stroke-miterlimit:10;" d="M 204.457031 275.378906 C 204.457031 279.109375 201.433594 282.132812 197.703125 282.132812 C 193.96875 282.132812 190.945312 279.109375 190.945312 275.378906 C 190.945312 271.648438 193.96875 268.621094 197.703125 268.621094 C 201.433594 268.621094 204.457031 271.648438 204.457031 275.378906 "/>
<path style="fill-rule:nonzero;fill:rgb(18.431373%,30.980392%,30.980392%);fill-opacity:1;stroke-width:0.708661;stroke-linecap:round;stroke-linejoin:round;stroke:rgb(18.431373%,30.980392%,30.980392%);stroke-opacity:1;stroke-miterlimit:10;" d="M 211.4375 247.421875 C 211.4375 251.152344 208.410156 254.175781 204.679688 254.175781 C 200.949219 254.175781 197.925781 251.152344 197.925781 247.421875 C 197.925781 243.691406 200.949219 240.664062 204.679688 240.664062 C 208.410156 240.664062 211.4375 243.691406 211.4375 247.421875 "/>
<path style="fill-rule:nonzero;fill:rgb(18.431373%,30.980392%,30.980392%);fill-opacity:1;stroke-width:0.708661;stroke-linecap:round;stroke-linejoin:round;stroke:rgb(18.431373%,30.980392%,30.980392%);stroke-opacity:1;stroke-miterlimit:10;" d="M 218.414062 255.777344 C 218.414062 259.507812 215.390625 262.53125 211.660156 262.53125 C 207.925781 262.53125 204.902344 259.507812 204.902344 255.777344 C 204.902344 252.042969 207.925781 249.019531 211.660156 249.019531 C 215.390625 249.019531 218.414062 252.042969 218.414062 255.777344 "/>
<path style="fill-rule:nonzero;fill:rgb(18.431373%,30.980392%,30.980392%);fill-opacity:1;stroke-width:0.708661;stroke-linecap:round;stroke-linejoin:round;stroke:rgb(18.431373%,30.980392%,30.980392%);stroke-opacity:1;stroke-miterlimit:10;" d="M 225.394531 274.265625 C 225.394531 278 222.371094 281.023438 218.636719 281.023438 C 214.90625 281.023438 211.882812 278 211.882812 274.265625 C 211.882812 270.535156 214.90625 267.511719 218.636719 267.511719 C 222.371094 267.511719 225.394531 270.535156 225.394531 274.265625 "/>
<path style="fill-rule:nonzero;fill:rgb(18.431373%,30.980392%,30.980392%);fill-opacity:1;stroke-width:0.708661;stroke-linecap:round;stroke-linejoin:round;stroke:rgb(18.431373%,30.980392%,30.980392%);stroke-opacity:1;stroke-miterlimit:10;" d="M 232.371094 280.402344 C 232.371094 284.132812 229.347656 287.160156 225.617188 287.160156 C 221.886719 287.160156 218.859375 284.132812 218.859375 280.402344 C 218.859375 276.671875 221.886719 273.644531 225.617188 273.644531 C 229.347656 273.644531 232.371094 276.671875 232.371094 280.402344 "/>
<path style="fill-rule:nonzero;fill:rgb(18.431373%,30.980392%,30.980392%);fill-opacity:1;stroke-width:0.708661;stroke-linecap:round;stroke-linejoin:round;stroke:rgb(18.431373%,30.980392%,30.980392%);stroke-opacity:1;stroke-miterlimit:10;" d="M 239.351562 303.097656 C 239.351562 306.828125 236.328125 309.855469 232.59375 309.855469 C 228.863281 309.855469 225.839844 306.828125 225.839844 303.097656 C 225.839844 299.367188 228.863281 296.34375 232.59375 296.34375 C 236.328125 296.34375 239.351562 299.367188 239.351562 303.097656 "/>
<path style="fill-rule:nonzero;fill:rgb(18.431373%,30.980392%,30.980392%);fill-opacity:1;stroke-width:0.708661;stroke-linecap:round;stroke-linejoin:round;stroke:rgb(18.431373%,30.980392%,30.980392%);stroke-opacity:1;stroke-miterlimit:10;" d="M 246.332031 292.722656 C 246.332031 296.457031 243.304688 299.480469 239.574219 299.480469 C 235.84375 299.480469 232.816406 296.457031 232.816406 292.722656 C 232.816406 288.992188 235.84375 285.96875 239.574219 285.96875 C 243.304688 285.96875 246.332031 288.992188 246.332031 292.722656 "/>
<path style="fill-rule:nonzero;fill:rgb(18.431373%,30.980392%,30.980392%);fill-opacity:1;stroke-width:0.708661;stroke-linecap:round;stroke-linejoin:round;stroke:rgb(18.431373%,30.980392%,30.980392%);stroke-opacity:1;stroke-miterlimit:10;" d="M 253.308594 303.058594 C 253.308594 306.789062 250.285156 309.816406 246.550781 309.816406 C 242.820312 309.816406 239.796875 306.789062 239.796875 303.058594 C 239.796875 299.328125 242.820312 296.304688 246.550781 296.304688 C 250.285156 296.304688 253.308594 299.328125 253.308594 303.058594 "/>
<path style="fill-rule:nonzero;fill:rgb(18.431373%,30.980392%,30.980392%);fill-opacity:1;stroke-width:0.708661;stroke-linecap:round;stroke-linejoin:round;stroke:rgb(18.431373%,30.980392%,30.980392%);stroke-opacity:1;stroke-miterlimit:10;" d="M 260.289062 313.789062 C 260.289062 317.523438 257.261719 320.546875 253.53125 320.546875 C 249.800781 320.546875 246.773438 317.523438 246.773438 313.789062 C 246.773438 310.058594 249.800781 307.035156 253.53125 307.035156 C 257.261719 307.035156 260.289062 310.058594 260.289062 313.789062 "/>
<path style="fill-rule:nonzero;fill:rgb(18.431373%,30.980392%,30.980392%);fill-opacity:1;stroke-width:0.708661;stroke-linecap:round;stroke-linejoin:round;stroke:rgb(18.431373%,30.980392%,30.980392%);stroke-opacity:1;stroke-miterlimit:10;" d="M 267.265625 318.796875 C 267.265625 322.527344 264.242188 325.550781 260.511719 325.550781 C 256.777344 325.550781 253.753906 322.527344 253.753906 318.796875 C 253.753906 315.066406 256.777344 312.039062 260.511719 312.039062 C 264.242188 312.039062 267.265625 315.066406 267.265625 318.796875 "/>
<path style="fill-rule:nonzero;fill:rgb(18.431373%,30.980392%,30.980392%);fill-opacity:1;stroke-width:0.708661;stroke-linecap:round;stroke-linejoin:round;stroke:rgb(18.431373%,30.980392%,30.980392%);stroke-opacity:1;stroke-miterlimit:10;" d="M 274.246094 298.148438 C 274.246094 301.878906 271.21875 304.90625 267.488281 304.90625 C 263.757812 304.90625 260.734375 301.878906 260.734375 298.148438 C 260.734375 294.417969 263.757812 291.394531 267.488281 291.394531 C 271.21875 291.394531 274.246094 294.417969 274.246094 298.148438 "/>
<path style="fill-rule:nonzero;fill:rgb(18.431373%,30.980392%,30.980392%);fill-opacity:1;stroke-width:0.708661;stroke-linecap:round;stroke-linejoin:round;stroke:rgb(18.431373%,30.980392%,30.980392%);stroke-opacity:1;stroke-miterlimit:10;" d="M 281.222656 329.835938 C 281.222656 333.570312 278.199219 336.59375 274.46875 336.59375 C 270.734375 336.59375 267.710938 333.570312 267.710938 329.835938 C 267.710938 326.105469 270.734375 323.082031 274.46875 323.082031 C 278.199219 323.082031 281.222656 326.105469 281.222656 329.835938 "/>
<path style="fill-rule:nonzero;fill:rgb(18.431373%,30.980392%,30.980392%);fill-opacity:1;stroke-width:0.708661;stroke-linecap:round;stroke-linejoin:round;stroke:rgb(18.431373%,30.980392%,30.980392%);stroke-opacity:1;stroke-miterlimit:10;" d="M 288.203125 326.304688 C 288.203125 330.035156 285.175781 333.058594 281.445312 333.058594 C 277.714844 333.058594 274.691406 330.035156 274.691406 326.304688 C 274.691406 322.574219 277.714844 319.546875 281.445312 319.546875 C 285.175781 319.546875 288.203125 322.574219 288.203125 326.304688 "/>
<path style="fill-rule:nonzero;fill:rgb(18.431373%,30.980392%,30.980392%);fill-opacity:1;stroke-width:0.708661;stroke-linecap:round;stroke-linejoin:round;stroke:rgb(18.431373%,30.980392%,30.980392%);stroke-opacity:1;stroke-miterlimit:10;" d="M 295.179688 299.03125 C 295.179688 302.761719 292.15625 305.785156 288.425781 305.785156 C 284.695312 305.785156 281.667969 302.761719 281.667969 299.03125 C 281.667969 295.300781 284.695312 292.273438 288.425781 292.273438 C 292.15625 292.273438 295.179688 295.300781 295.179688 299.03125 "/>
<path style="fill-rule:nonzero;fill:rgb(18.431373%,30.980392%,30.980392%);fill-opacity:1;stroke-width:0.708661;stroke-linecap:round;stroke-linejoin:round;stroke:rgb(18.431373%,30.980392%,30.980392%);stroke-opacity:1;stroke-miterlimit:10;" d="M 302.160156 335.152344 C 302.160156 338.882812 299.136719 341.90625 295.402344 341.90625 C 291.671875 341.90625 288.648438 338.882812 288.648438 335.152344 C 288.648438 331.417969 291.671875 328.394531 295.402344 328.394531 C 299.136719 328.394531 302.160156 331.417969 302.160156 335.152344 "/>
<path style="fill-rule:nonzero;fill:rgb(18.431373%,30.980392%,30.980392%);fill-opacity:1;stroke-width:0.708661;stroke-linecap:round;stroke-linejoin:round;stroke:rgb(18.431373%,30.980392%,30.980392%);stroke-opacity:1;stroke-miterlimit:10;" d="M 309.140625 327.828125 C 309.140625 331.558594 306.113281 334.585938 302.382812 334.585938 C 298.652344 334.585938 295.625 331.558594 295.625 327.828125 C 295.625 324.097656 298.652344 321.074219 302.382812 321.074219 C 306.113281 321.074219 309.140625 324.097656 309.140625 327.828125 "/>
<path style="fill-rule:nonzero;fill:rgb(18.431373%,30.980392%,30.980392%);fill-opacity:1;stroke-width:0.708661;stroke-linecap:round;stroke-linejoin:round;stroke:rgb(18.431373%,30.980392%,30.980392%);stroke-opacity:1;stroke-miterlimit:10;" d="M 316.117188 354 C 316.117188 357.730469 313.09375 360.757812 309.359375 360.757812 C 305.628906 360.757812 302.605469 357.730469 302.605469 354 C 302.605469 350.269531 305.628906 347.242188 309.359375 347.242188 C 313.09375 347.242188 316.117188 350.269531 316.117188 354 "/>
<path style="fill-rule:nonzero;fill:rgb(18.431373%,30.980392%,30.980392%);fill-opacity:1;stroke-width:0.708661;stroke-linecap:round;stroke-linejoin:round;stroke:rgb(18.431373%,30.980392%,30.980392%);stroke-opacity:1;stroke-miterlimit:10;" d="M 323.097656 341.730469 C 323.097656 345.460938 320.070312 348.488281 316.339844 348.488281 C 312.609375 348.488281 309.582031 345.460938 309.582031 341.730469 C 309.582031 338 312.609375 334.976562 316.339844 334.976562 C 320.070312 334.976562 323.097656 338 323.097656 341.730469 "/>
<path style="fill-rule:nonzero;fill:rgb(18.431373%,30.980392%,30.980392%);fill-opacity:1;stroke-width:0.708661;stroke-linecap:round;stroke-linejoin:round;stroke:rgb(18.431373%,30.980392%,30.980392%);stroke-opacity:1;stroke-miterlimit:10;" d="M 330.074219 341.066406 C 330.074219 344.800781 327.050781 347.824219 323.320312 347.824219 C 319.585938 347.824219 316.5625 344.800781 316.5625 341.066406 C 316.5625 337.335938 319.585938 334.3125 323.320312 334.3125 C 327.050781 334.3125 330.074219 337.335938 330.074219 341.066406 "/>
<path style="fill-rule:nonzero;fill:rgb(18.431373%,30.980392%,30.980392%);fill-opacity:1;stroke-width:0.708661;stroke-linecap:round;stroke-linejoin:round;stroke:rgb(18.431373%,30.980392%,30.980392%);stroke-opacity:1;stroke-miterlimit:10;" d="M 337.054688 326.039062 C 337.054688 329.769531 334.027344 332.796875 330.296875 332.796875 C 326.566406 332.796875 323.542969 329.769531 323.542969 326.039062 C 323.542969 322.308594 326.566406 319.28125 330.296875 319.28125 C 334.027344 319.28125 337.054688 322.308594 337.054688 326.039062 "/>
<path style="fill-rule:nonzero;fill:rgb(18.431373%,30.980392%,30.980392%);fill-opacity:1;stroke-width:0.708661;stroke-linecap:round;stroke-linejoin:round;stroke:rgb(18.431373%,30.980392%,30.980392%);stroke-opacity:1;stroke-miterlimit:10;" d="M 344.03125 330.394531 C 344.03125 334.125 341.007812 337.148438 337.277344 337.148438 C 333.542969 337.148438 330.519531 334.125 330.519531 330.394531 C 330.519531 326.660156 333.542969 323.636719 337.277344 323.636719 C 341.007812 323.636719 344.03125 326.660156 344.03125 330.394531 "/>
<path style="fill-rule:nonzero;fill:rgb(18.431373%,30.980392%,30.980392%);fill-opacity:1;stroke-width:0.708661;stroke-linecap:round;stroke-linejoin:round;stroke:rgb(18.431373%,30.980392%,30.980392%);stroke-opacity:1;stroke-miterlimit:10;" d="M 351.011719 354.765625 C 351.011719 358.496094 347.984375 361.523438 344.253906 361.523438 C 340.523438 361.523438 337.5 358.496094 337.5 354.765625 C 337.5 351.035156 340.523438 348.011719 344.253906 348.011719 C 347.984375 348.011719 351.011719 351.035156 351.011719 354.765625 "/>
<path style="fill-rule:nonzero;fill:rgb(18.431373%,30.980392%,30.980392%);fill-opacity:1;stroke-width:0.708661;stroke-linecap:round;stroke-linejoin:round;stroke:rgb(18.431373%,30.980392%,30.980392%);stroke-opacity:1;stroke-miterlimit:10;" d="M 357.988281 354.113281 C 357.988281 357.847656 354.964844 360.871094 351.234375 360.871094 C 347.503906 360.871094 344.476562 357.847656 344.476562 354.113281 C 344.476562 350.382812 347.503906 347.359375 351.234375 347.359375 C 354.964844 347.359375 357.988281 350.382812 357.988281 354.113281 "/>
<path style="fill-rule:nonzero;fill:rgb(18.431373%,30.980392%,30.980392%);fill-opacity:1;stroke-width:0.708661;stroke-linecap:round;stroke-linejoin:round;stroke:rgb(18.431373%,30.980392%,30.980392%);stroke-opacity:1;stroke-miterlimit:10;" d="M 364.96875 336.722656 C 364.96875 340.457031 361.945312 343.480469 358.210938 343.480469 C 354.480469 343.480469 351.457031 340.457031 351.457031 336.722656 C 351.457031 332.992188 354.480469 329.96875 358.210938 329.96875 C 361.945312 329.96875 364.96875 332.992188 364.96875 336.722656 "/>
<path style="fill-rule:nonzero;fill:rgb(18.431373%,30.980392%,30.980392%);fill-opacity:1;stroke-width:0.708661;stroke-linecap:round;stroke-linejoin:round;stroke:rgb(18.431373%,30.980392%,30.980392%);stroke-opacity:1;stroke-miterlimit:10;" d="M 371.949219 337.160156 C 371.949219 340.890625 368.921875 343.914062 365.191406 343.914062 C 361.460938 343.914062 358.433594 340.890625 358.433594 337.160156 C 358.433594 333.425781 361.460938 330.402344 365.191406 330.402344 C 368.921875 330.402344 371.949219 333.425781 371.949219 337.160156 "/>
<path style="fill-rule:nonzero;fill:rgb(18.431373%,30.980392%,30.980392%);fill-opacity:1;stroke-width:0.708661;stroke-linecap:round;stroke-linejoin:round;stroke:rgb(18.431373%,30.980392%,30.980392%);stroke-opacity:1;stroke-miterlimit:10;" d="M 378.925781 351.574219 C 378.925781 355.304688 375.902344 358.328125 372.167969 358.328125 C 368.4375 358.328125 365.414062 355.304688 365.414062 351.574219 C 365.414062 347.839844 368.4375 344.816406 372.167969 344.816406 C 375.902344 344.816406 378.925781 347.839844 378.925781 351.574219 "/>
<path style="fill-rule:nonzero;fill:rgb(18.431373%,30.980392%,30.980392%);fill-opacity:1;stroke-width:0.708661;stroke-linecap:round;stroke-linejoin:round;stroke:rgb(18.431373%,30.980392%,30.980392%);stroke-opacity:1;stroke-miterlimit:10;" d="M 385.90625 344.476562 C 385.90625 348.207031 382.878906 351.230469 379.148438 351.230469 C 375.417969 351.230469 372.390625 348.207031 372.390625 344.476562 C 372.390625 340.742188 375.417969 337.71875 379.148438 337.71875 C 382.878906 337.71875 385.90625 340.742188 385.90625 344.476562 "/>
<path style="fill-rule:nonzero;fill:rgb(18.431373%,30.980392%,30.980392%);fill-opacity:1;stroke-width:0.708661;stroke-linecap:round;stroke-linejoin:round;stroke:rgb(18.431373%,30.980392%,30.980392%);stroke-opacity:1;stroke-miterlimit:10;" d="M 392.882812 342.304688 C 392.882812 346.035156 389.859375 349.0625 386.128906 349.0625 C 382.394531 349.0625 379.371094 346.035156 379.371094 342.304688 C 379.371094 338.574219 382.394531 335.550781 386.128906 335.550781 C 389.859375 335.550781 392.882812 338.574219 392.882812 342.304688 "/>
<path style="fill-rule:nonzero;fill:rgb(18.431373%,30.980392%,30.980392%);fill-opacity:1;stroke-width:0.708661;stroke-linecap:round;stroke-linejoin:round;stroke:rgb(18.431373%,30.980392%,30.980392%);stroke-opacity:1;stroke-miterlimit:10;" d="M 399.863281 322.964844 C 399.863281 326.695312 396.835938 329.71875 393.105469 329.71875 C 389.375 329.71875 386.351562 326.695312 386.351562 322.964844 C 386.351562 319.234375 389.375 316.207031 393.105469 316.207031 C 396.835938 316.207031 399.863281 319.234375 399.863281 322.964844 "/>
<path style="fill-rule:nonzero;fill:rgb(18.431373%,30.980392%,30.980392%);fill-opacity:1;stroke-width:0.708661;stroke-linecap:round;stroke-linejoin:round;stroke:rgb(18.431373%,30.980392%,30.980392%);stroke-opacity:1;stroke-miterlimit:10;" d="M 406.839844 343.234375 C 406.839844 346.964844 403.816406 349.988281 400.085938 349.988281 C 396.351562 349.988281 393.328125 346.964844 393.328125 343.234375 C 393.328125 339.503906 396.351562 336.476562 400.085938 336.476562 C 403.816406 336.476562 406.839844 339.503906 406.839844 343.234375 "/>
<path style="fill-rule:nonzero;fill:rgb(18.431373%,30.980392%,30.980392%);fill-opacity:1;stroke-width:0.708661;stroke-linecap:round;stroke-linejoin:round;stroke:rgb(18.431373%,30.980392%,30.980392%);stroke-opacity:1;stroke-miterlimit:10;" d="M 413.820312 325.757812 C 413.820312 329.488281 410.792969 332.515625 407.0625 332.515625 C 403.332031 332.515625 400.308594 329.488281 400.308594 325.757812 C 400.308594 322.027344 403.332031 319.003906 407.0625 319.003906 C 410.792969 319.003906 413.820312 322.027344 413.820312 325.757812 "/>
<path style="fill-rule:nonzero;fill:rgb(18.431373%,30.980392%,30.980392%);fill-opacity:1;stroke-width:0.708661;stroke-linecap:round;stroke-linejoin:round;stroke:rgb(18.431373%,30.980392%,30.980392%);stroke-opacity:1;stroke-miterlimit:10;" d="M 420.796875 354.210938 C 420.796875 357.941406 417.773438 360.96875 414.042969 360.96875 C 410.3125 360.96875 407.285156 357.941406 407.285156 354.210938 C 407.285156 350.480469 410.3125 347.453125 414.042969 347.453125 C 417.773438 347.453125 420.796875 350.480469 420.796875 354.210938 "/>
<path style="fill-rule:nonzero;fill:rgb(18.431373%,30.980392%,30.980392%);fill-opacity:1;stroke-width:0.708661;stroke-linecap:round;stroke-linejoin:round;stroke:rgb(18.431373%,30.980392%,30.980392%);stroke-opacity:1;stroke-miterlimit:10;" d="M 427.777344 309.730469 C 427.777344 313.464844 424.753906 316.488281 421.019531 316.488281 C 417.289062 316.488281 414.265625 313.464844 414.265625 309.730469 C 414.265625 306 417.289062 302.976562 421.019531 302.976562 C 424.753906 302.976562 427.777344 306 427.777344 309.730469 "/>
<path style="fill-rule:nonzero;fill:rgb(18.431373%,30.980392%,30.980392%);fill-opacity:1;stroke-width:0.708661;stroke-linecap:round;stroke-linejoin:round;stroke:rgb(18.431373%,30.980392%,30.980392%);stroke-opacity:1;stroke-miterlimit:10;" d="M 434.757812 311.613281 C 434.757812 315.34375 431.730469 318.367188 428 318.367188 C 424.269531 318.367188 421.242188 315.34375 421.242188 311.613281 C 421.242188 307.882812 424.269531 304.855469 428 304.855469 C 431.730469 304.855469 434.757812 307.882812 434.757812 311.613281 "/>
<path style="fill-rule:nonzero;fill:rgb(18.431373%,30.980392%,30.980392%);fill-opacity:1;stroke-width:0.708661;stroke-linecap:round;stroke-linejoin:round;stroke:rgb(18.431373%,30.980392%,30.980392%);stroke-opacity:1;stroke-miterlimit:10;" d="M 441.734375 309.230469 C 441.734375 312.960938 438.710938 315.988281 434.976562 315.988281 C 431.246094 315.988281 428.222656 312.960938 428.222656 309.230469 C 428.222656 305.5 431.246094 302.472656 434.976562 302.472656 C 438.710938 302.472656 441.734375 305.5 441.734375 309.230469 "/>
<path style="fill-rule:nonzero;fill:rgb(18.431373%,30.980392%,30.980392%);fill-opacity:1;stroke-width:0.708661;stroke-linecap:round;stroke-linejoin:round;stroke:rgb(18.431373%,30.980392%,30.980392%);stroke-opacity:1;stroke-miterlimit:10;" d="M 448.714844 313.230469 C 448.714844 316.964844 445.6875 319.988281 441.957031 319.988281 C 438.226562 319.988281 435.199219 316.964844 435.199219 313.230469 C 435.199219 309.5 438.226562 306.476562 441.957031 306.476562 C 445.6875 306.476562 448.714844 309.5 448.714844 313.230469 "/>
<path style="fill-rule:nonzero;fill:rgb(18.431373%,30.980392%,30.980392%);fill-opacity:1;stroke-width:0.708661;stroke-linecap:round;stroke-linejoin:round;stroke:rgb(18.431373%,30.980392%,30.980392%);stroke-opacity:1;stroke-miterlimit:10;" d="M 455.691406 322.160156 C 455.691406 325.890625 452.667969 328.917969 448.9375 328.917969 C 445.203125 328.917969 442.179688 325.890625 442.179688 322.160156 C 442.179688 318.429688 445.203125 315.40625 448.9375 315.40625 C 452.667969 315.40625 455.691406 318.429688 455.691406 322.160156 "/>
<path style="fill-rule:nonzero;fill:rgb(18.431373%,30.980392%,30.980392%);fill-opacity:1;stroke-width:0.708661;stroke-linecap:round;stroke-linejoin:round;stroke:rgb(18.431373%,30.980392%,30.980392%);stroke-opacity:1;stroke-miterlimit:10;" d="M 462.671875 327.050781 C 462.671875 330.78125 459.644531 333.804688 455.914062 333.804688 C 452.183594 333.804688 449.160156 330.78125 449.160156 327.050781 C 449.160156 323.316406 452.183594 320.292969 455.914062 320.292969 C 459.644531 320.292969 462.671875 323.316406 462.671875 327.050781 "/>
<path style="fill-rule:nonzero;fill:rgb(18.431373%,30.980392%,30.980392%);fill-opacity:1;stroke-width:0.708661;stroke-linecap:round;stroke-linejoin:round;stroke:rgb(18.431373%,30.980392%,30.980392%);stroke-opacity:1;stroke-miterlimit:10;" d="M 469.648438 321.789062 C 469.648438 325.523438 466.625 328.546875 462.894531 328.546875 C 459.160156 328.546875 456.136719 325.523438 456.136719 321.789062 C 456.136719 318.058594 459.160156 315.035156 462.894531 315.035156 C 466.625 315.035156 469.648438 318.058594 469.648438 321.789062 "/>
<path style="fill-rule:nonzero;fill:rgb(18.431373%,30.980392%,30.980392%);fill-opacity:1;stroke-width:0.708661;stroke-linecap:round;stroke-linejoin:round;stroke:rgb(18.431373%,30.980392%,30.980392%);stroke-opacity:1;stroke-miterlimit:10;" d="M 476.628906 324.703125 C 476.628906 328.4375 473.601562 331.460938 469.871094 331.460938 C 466.140625 331.460938 463.117188 328.4375 463.117188 324.703125 C 463.117188 320.972656 466.140625 317.949219 469.871094 317.949219 C 473.601562 317.949219 476.628906 320.972656 476.628906 324.703125 "/>
<path style="fill-rule:nonzero;fill:rgb(18.431373%,30.980392%,30.980392%);fill-opacity:1;stroke-width:0.708661;stroke-linecap:round;stroke-linejoin:round;stroke:rgb(18.431373%,30.980392%,30.980392%);stroke-opacity:1;stroke-miterlimit:10;" d="M 483.605469 306.320312 C 483.605469 310.050781 480.582031 313.074219 476.851562 313.074219 C 473.121094 313.074219 470.09375 310.050781 470.09375 306.320312 C 470.09375 302.589844 473.121094 299.5625 476.851562 299.5625 C 480.582031 299.5625 483.605469 302.589844 483.605469 306.320312 "/>
<path style="fill-rule:nonzero;fill:rgb(18.431373%,30.980392%,30.980392%);fill-opacity:1;stroke-width:0.708661;stroke-linecap:round;stroke-linejoin:round;stroke:rgb(18.431373%,30.980392%,30.980392%);stroke-opacity:1;stroke-miterlimit:10;" d="M 490.585938 310.683594 C 490.585938 314.414062 487.5625 317.4375 483.828125 317.4375 C 480.097656 317.4375 477.074219 314.414062 477.074219 310.683594 C 477.074219 306.953125 480.097656 303.925781 483.828125 303.925781 C 487.5625 303.925781 490.585938 306.953125 490.585938 310.683594 "/>
<path style="fill-rule:nonzero;fill:rgb(18.431373%,30.980392%,30.980392%);fill-opacity:1;stroke-width:0.708661;stroke-linecap:round;stroke-linejoin:round;stroke:rgb(18.431373%,30.980392%,30.980392%);stroke-opacity:1;stroke-miterlimit:10;" d="M 497.566406 322.1875 C 497.566406 325.917969 494.539062 328.945312 490.808594 328.945312 C 487.078125 328.945312 484.050781 325.917969 484.050781 322.1875 C 484.050781 318.457031 487.078125 315.429688 490.808594 315.429688 C 494.539062 315.429688 497.566406 318.457031 497.566406 322.1875 "/>
<path style="fill-rule:nonzero;fill:rgb(18.431373%,30.980392%,30.980392%);fill-opacity:1;stroke-width:0.708661;stroke-linecap:round;stroke-linejoin:round;stroke:rgb(18.431373%,30.980392%,30.980392%);stroke-opacity:1;stroke-miterlimit:10;" d="M 504.542969 314.859375 C 504.542969 318.59375 501.519531 321.617188 497.785156 321.617188 C 494.054688 321.617188 491.03125 318.59375 491.03125 314.859375 C 491.03125 311.128906 494.054688 308.105469 497.785156 308.105469 C 501.519531 308.105469 504.542969 311.128906 504.542969 314.859375 "/>
<path style="fill-rule:nonzero;fill:rgb(18.431373%,30.980392%,30.980392%);fill-opacity:1;stroke-width:0.708661;stroke-linecap:round;stroke-linejoin:round;stroke:rgb(18.431373%,30.980392%,30.980392%);stroke-opacity:1;stroke-miterlimit:10;" d="M 511.523438 297.917969 C 511.523438 301.652344 508.496094 304.675781 504.765625 304.675781 C 501.035156 304.675781 498.007812 301.652344 498.007812 297.917969 C 498.007812 294.1875 501.035156 291.164062 504.765625 291.164062 C 508.496094 291.164062 511.523438 294.1875 511.523438 297.917969 "/>
<path style="fill-rule:nonzero;fill:rgb(18.431373%,30.980392%,30.980392%);fill-opacity:1;stroke-width:0.708661;stroke-linecap:round;stroke-linejoin:round;stroke:rgb(18.431373%,30.980392%,30.980392%);stroke-opacity:1;stroke-miterlimit:10;" d="M 518.5 257.460938 C 518.5 261.191406 515.476562 264.21875 511.746094 264.21875 C 508.011719 264.21875 504.988281 261.191406 504.988281 257.460938 C 504.988281 253.730469 508.011719 250.703125 511.746094 250.703125 C 515.476562 250.703125 518.5 253.730469 518.5 257.460938 "/>
<path style="fill-rule:nonzero;fill:rgb(18.431373%,30.980392%,30.980392%);fill-opacity:1;stroke-width:0.708661;stroke-linecap:round;stroke-linejoin:round;stroke:rgb(18.431373%,30.980392%,30.980392%);stroke-opacity:1;stroke-miterlimit:10;" d="M 525.480469 289.257812 C 525.480469 292.992188 522.453125 296.015625 518.722656 296.015625 C 514.992188 296.015625 511.96875 292.992188 511.96875 289.257812 C 511.96875 285.527344 514.992188 282.503906 518.722656 282.503906 C 522.453125 282.503906 525.480469 285.527344 525.480469 289.257812 "/>
<path style="fill-rule:nonzero;fill:rgb(18.431373%,30.980392%,30.980392%);fill-opacity:1;stroke-width:0.708661;stroke-linecap:round;stroke-linejoin:round;stroke:rgb(18.431373%,30.980392%,30.980392%);stroke-opacity:1;stroke-miterlimit:10;" d="M 532.457031 274.460938 C 532.457031 278.191406 529.433594 281.21875 525.703125 281.21875 C 521.96875 281.21875 518.945312 278.191406 518.945312 274.460938 C 518.945312 270.730469 521.96875 267.703125 525.703125 267.703125 C 529.433594 267.703125 532.457031 270.730469 532.457031 274.460938 "/>
<path style="fill-rule:nonzero;fill:rgb(18.431373%,30.980392%,30.980392%);fill-opacity:1;stroke-width:0.708661;stroke-linecap:round;stroke-linejoin:round;stroke:rgb(18.431373%,30.980392%,30.980392%);stroke-opacity:1;stroke-miterlimit:10;" d="M 539.4375 286.496094 C 539.4375 290.230469 536.410156 293.253906 532.679688 293.253906 C 528.949219 293.253906 525.925781 290.230469 525.925781 286.496094 C 525.925781 282.765625 528.949219 279.742188 532.679688 279.742188 C 536.410156 279.742188 539.4375 282.765625 539.4375 286.496094 "/>
<path style="fill-rule:nonzero;fill:rgb(18.431373%,30.980392%,30.980392%);fill-opacity:1;stroke-width:0.708661;stroke-linecap:round;stroke-linejoin:round;stroke:rgb(18.431373%,30.980392%,30.980392%);stroke-opacity:1;stroke-miterlimit:10;" d="M 546.414062 248.785156 C 546.414062 252.515625 543.390625 255.542969 539.660156 255.542969 C 535.929688 255.542969 532.902344 252.515625 532.902344 248.785156 C 532.902344 245.054688 535.929688 242.027344 539.660156 242.027344 C 543.390625 242.027344 546.414062 245.054688 546.414062 248.785156 "/>
<path style="fill-rule:nonzero;fill:rgb(18.431373%,30.980392%,30.980392%);fill-opacity:1;stroke-width:0.708661;stroke-linecap:round;stroke-linejoin:round;stroke:rgb(18.431373%,30.980392%,30.980392%);stroke-opacity:1;stroke-miterlimit:10;" d="M 553.394531 261.351562 C 553.394531 265.082031 550.371094 268.109375 546.636719 268.109375 C 542.90625 268.109375 539.882812 265.082031 539.882812 261.351562 C 539.882812 257.621094 542.90625 254.597656 546.636719 254.597656 C 550.371094 254.597656 553.394531 257.621094 553.394531 261.351562 "/>
<path style="fill-rule:nonzero;fill:rgb(18.431373%,30.980392%,30.980392%);fill-opacity:1;stroke-width:0.708661;stroke-linecap:round;stroke-linejoin:round;stroke:rgb(18.431373%,30.980392%,30.980392%);stroke-opacity:1;stroke-miterlimit:10;" d="M 560.371094 259.492188 C 560.371094 263.222656 557.347656 266.246094 553.617188 266.246094 C 549.886719 266.246094 546.859375 263.222656 546.859375 259.492188 C 546.859375 255.761719 549.886719 252.734375 553.617188 252.734375 C 557.347656 252.734375 560.371094 255.761719 560.371094 259.492188 "/>
<path style="fill-rule:nonzero;fill:rgb(18.431373%,30.980392%,30.980392%);fill-opacity:1;stroke-width:0.708661;stroke-linecap:round;stroke-linejoin:round;stroke:rgb(18.431373%,30.980392%,30.980392%);stroke-opacity:1;stroke-miterlimit:10;" d="M 567.351562 261.230469 C 567.351562 264.960938 564.328125 267.984375 560.59375 267.984375 C 556.863281 267.984375 553.839844 264.960938 553.839844 261.230469 C 553.839844 257.496094 556.863281 254.472656 560.59375 254.472656 C 564.328125 254.472656 567.351562 257.496094 567.351562 261.230469 "/>
<path style="fill-rule:nonzero;fill:rgb(18.431373%,30.980392%,30.980392%);fill-opacity:1;stroke-width:0.708661;stroke-linecap:round;stroke-linejoin:round;stroke:rgb(18.431373%,30.980392%,30.980392%);stroke-opacity:1;stroke-miterlimit:10;" d="M 574.332031 207.714844 C 574.332031 211.449219 571.304688 214.472656 567.574219 214.472656 C 563.84375 214.472656 560.816406 211.449219 560.816406 207.714844 C 560.816406 203.984375 563.84375 200.960938 567.574219 200.960938 C 571.304688 200.960938 574.332031 203.984375 574.332031 207.714844 "/>
<path style="fill-rule:nonzero;fill:rgb(18.431373%,30.980392%,30.980392%);fill-opacity:1;stroke-width:0.708661;stroke-linecap:round;stroke-linejoin:round;stroke:rgb(18.431373%,30.980392%,30.980392%);stroke-opacity:1;stroke-miterlimit:10;" d="M 581.308594 196.667969 C 581.308594 200.402344 578.285156 203.425781 574.554688 203.425781 C 570.820312 203.425781 567.796875 200.402344 567.796875 196.667969 C 567.796875 192.9375 570.820312 189.914062 574.554688 189.914062 C 578.285156 189.914062 581.308594 192.9375 581.308594 196.667969 "/>
<path style="fill-rule:nonzero;fill:rgb(18.431373%,30.980392%,30.980392%);fill-opacity:1;stroke-width:0.708661;stroke-linecap:round;stroke-linejoin:round;stroke:rgb(18.431373%,30.980392%,30.980392%);stroke-opacity:1;stroke-miterlimit:10;" d="M 588.289062 229.09375 C 588.289062 232.824219 585.261719 235.851562 581.53125 235.851562 C 577.800781 235.851562 574.777344 232.824219 574.777344 229.09375 C 574.777344 225.363281 577.800781 222.339844 581.53125 222.339844 C 585.261719 222.339844 588.289062 225.363281 588.289062 229.09375 "/>
<path style="fill-rule:nonzero;fill:rgb(18.431373%,30.980392%,30.980392%);fill-opacity:1;stroke-width:0.708661;stroke-linecap:round;stroke-linejoin:round;stroke:rgb(18.431373%,30.980392%,30.980392%);stroke-opacity:1;stroke-miterlimit:10;" d="M 595.265625 219.746094 C 595.265625 223.476562 592.242188 226.5 588.511719 226.5 C 584.777344 226.5 581.753906 223.476562 581.753906 219.746094 C 581.753906 216.015625 584.777344 212.988281 588.511719 212.988281 C 592.242188 212.988281 595.265625 216.015625 595.265625 219.746094 "/>
<path style="fill-rule:nonzero;fill:rgb(18.431373%,30.980392%,30.980392%);fill-opacity:1;stroke-width:0.708661;stroke-linecap:round;stroke-linejoin:round;stroke:rgb(18.431373%,30.980392%,30.980392%);stroke-opacity:1;stroke-miterlimit:10;" d="M 602.246094 174.945312 C 602.246094 178.679688 599.21875 181.703125 595.488281 181.703125 C 591.757812 181.703125 588.734375 178.679688 588.734375 174.945312 C 588.734375 171.214844 591.757812 168.191406 595.488281 168.191406 C 599.21875 168.191406 602.246094 171.214844 602.246094 174.945312 "/>
<path style="fill-rule:nonzero;fill:rgb(18.431373%,30.980392%,30.980392%);fill-opacity:1;stroke-width:0.708661;stroke-linecap:round;stroke-linejoin:round;stroke:rgb(18.431373%,30.980392%,30.980392%);stroke-opacity:1;stroke-miterlimit:10;" d="M 609.222656 177.757812 C 609.222656 181.488281 606.199219 184.511719 602.46875 184.511719 C 598.738281 184.511719 595.710938 181.488281 595.710938 177.757812 C 595.710938 174.027344 598.738281 171 602.46875 171 C 606.199219 171 609.222656 174.027344 609.222656 177.757812 "/>
<path style="fill-rule:nonzero;fill:rgb(18.431373%,30.980392%,30.980392%);fill-opacity:1;stroke-width:0.708661;stroke-linecap:round;stroke-linejoin:round;stroke:rgb(18.431373%,30.980392%,30.980392%);stroke-opacity:1;stroke-miterlimit:10;" d="M 616.203125 182.042969 C 616.203125 185.777344 613.179688 188.800781 609.445312 188.800781 C 605.714844 188.800781 602.691406 185.777344 602.691406 182.042969 C 602.691406 178.3125 605.714844 175.289062 609.445312 175.289062 C 613.179688 175.289062 616.203125 178.3125 616.203125 182.042969 "/>
<path style="fill-rule:nonzero;fill:rgb(18.431373%,30.980392%,30.980392%);fill-opacity:1;stroke-width:0.708661;stroke-linecap:round;stroke-linejoin:round;stroke:rgb(18.431373%,30.980392%,30.980392%);stroke-opacity:1;stroke-miterlimit:10;" d="M 623.179688 183.832031 C 623.179688 187.5625 620.15625 190.589844 616.425781 190.589844 C 612.695312 190.589844 609.667969 187.5625 609.667969 183.832031 C 609.667969 180.101562 612.695312 177.074219 616.425781 177.074219 C 620.15625 177.074219 623.179688 180.101562 623.179688 183.832031 "/>
<path style="fill-rule:nonzero;fill:rgb(18.431373%,30.980392%,30.980392%);fill-opacity:1;stroke-width:0.708661;stroke-linecap:round;stroke-linejoin:round;stroke:rgb(18.431373%,30.980392%,30.980392%);stroke-opacity:1;stroke-miterlimit:10;" d="M 630.160156 159.886719 C 630.160156 163.621094 627.136719 166.644531 623.402344 166.644531 C 619.671875 166.644531 616.648438 163.621094 616.648438 159.886719 C 616.648438 156.15625 619.671875 153.132812 623.402344 153.132812 C 627.136719 153.132812 630.160156 156.15625 630.160156 159.886719 "/>
<path style="fill-rule:nonzero;fill:rgb(18.431373%,30.980392%,30.980392%);fill-opacity:1;stroke-width:0.708661;stroke-linecap:round;stroke-linejoin:round;stroke:rgb(18.431373%,30.980392%,30.980392%);stroke-opacity:1;stroke-miterlimit:10;" d="M 637.140625 159.265625 C 637.140625 162.996094 634.113281 166.019531 630.382812 166.019531 C 626.652344 166.019531 623.625 162.996094 623.625 159.265625 C 623.625 155.53125 626.652344 152.507812 630.382812 152.507812 C 634.113281 152.507812 637.140625 155.53125 637.140625 159.265625 "/>
<path style="fill-rule:nonzero;fill:rgb(18.431373%,30.980392%,30.980392%);fill-opacity:1;stroke-width:0.708661;stroke-linecap:round;stroke-linejoin:round;stroke:rgb(18.431373%,30.980392%,30.980392%);stroke-opacity:1;stroke-miterlimit:10;" d="M 644.117188 156.273438 C 644.117188 160.003906 641.09375 163.03125 637.363281 163.03125 C 633.628906 163.03125 630.605469 160.003906 630.605469 156.273438 C 630.605469 152.542969 633.628906 149.519531 637.363281 149.519531 C 641.09375 149.519531 644.117188 152.542969 644.117188 156.273438 "/>
<path style="fill-rule:nonzero;fill:rgb(18.431373%,30.980392%,30.980392%);fill-opacity:1;stroke-width:0.708661;stroke-linecap:round;stroke-linejoin:round;stroke:rgb(18.431373%,30.980392%,30.980392%);stroke-opacity:1;stroke-miterlimit:10;" d="M 651.097656 133.816406 C 651.097656 137.550781 648.070312 140.574219 644.339844 140.574219 C 640.609375 140.574219 637.585938 137.550781 637.585938 133.816406 C 637.585938 130.085938 640.609375 127.0625 644.339844 127.0625 C 648.070312 127.0625 651.097656 130.085938 651.097656 133.816406 "/>
<path style="fill-rule:nonzero;fill:rgb(18.431373%,30.980392%,30.980392%);fill-opacity:1;stroke-width:0.708661;stroke-linecap:round;stroke-linejoin:round;stroke:rgb(18.431373%,30.980392%,30.980392%);stroke-opacity:1;stroke-miterlimit:10;" d="M 658.074219 121.128906 C 658.074219 124.859375 655.050781 127.886719 651.320312 127.886719 C 647.585938 127.886719 644.5625 124.859375 644.5625 121.128906 C 644.5625 117.398438 647.585938 114.375 651.320312 114.375 C 655.050781 114.375 658.074219 117.398438 658.074219 121.128906 "/>
<path style="fill-rule:nonzero;fill:rgb(18.431373%,30.980392%,30.980392%);fill-opacity:1;stroke-width:0.708661;stroke-linecap:round;stroke-linejoin:round;stroke:rgb(18.431373%,30.980392%,30.980392%);stroke-opacity:1;stroke-miterlimit:10;" d="M 665.054688 104.503906 C 665.054688 108.234375 662.027344 111.261719 658.296875 111.261719 C 654.566406 111.261719 651.542969 108.234375 651.542969 104.503906 C 651.542969 100.773438 654.566406 97.75 658.296875 97.75 C 662.027344 97.75 665.054688 100.773438 665.054688 104.503906 "/>
<path style="fill-rule:nonzero;fill:rgb(18.431373%,30.980392%,30.980392%);fill-opacity:1;stroke-width:0.708661;stroke-linecap:round;stroke-linejoin:round;stroke:rgb(18.431373%,30.980392%,30.980392%);stroke-opacity:1;stroke-miterlimit:10;" d="M 672.03125 118.050781 C 672.03125 121.78125 669.007812 124.808594 665.277344 124.808594 C 661.546875 124.808594 658.519531 121.78125 658.519531 118.050781 C 658.519531 114.320312 661.546875 111.296875 665.277344 111.296875 C 669.007812 111.296875 672.03125 114.320312 672.03125 118.050781 "/>
<path style="fill-rule:nonzero;fill:rgb(18.431373%,30.980392%,30.980392%);fill-opacity:1;stroke-width:0.708661;stroke-linecap:round;stroke-linejoin:round;stroke:rgb(18.431373%,30.980392%,30.980392%);stroke-opacity:1;stroke-miterlimit:10;" d="M 679.011719 66.453125 C 679.011719 70.183594 675.988281 73.210938 672.253906 73.210938 C 668.523438 73.210938 665.5 70.183594 665.5 66.453125 C 665.5 62.722656 668.523438 59.699219 672.253906 59.699219 C 675.988281 59.699219 679.011719 62.722656 679.011719 66.453125 "/>
<path style="fill-rule:nonzero;fill:rgb(18.431373%,30.980392%,30.980392%);fill-opacity:1;stroke-width:0.708661;stroke-linecap:round;stroke-linejoin:round;stroke:rgb(18.431373%,30.980392%,30.980392%);stroke-opacity:1;stroke-miterlimit:10;" d="M 685.988281 82.3125 C 685.988281 86.042969 682.964844 89.066406 679.234375 89.066406 C 675.503906 89.066406 672.476562 86.042969 672.476562 82.3125 C 672.476562 78.582031 675.503906 75.554688 679.234375 75.554688 C 682.964844 75.554688 685.988281 78.582031 685.988281 82.3125 "/>
<path style="fill-rule:nonzero;fill:rgb(18.431373%,30.980392%,30.980392%);fill-opacity:1;stroke-width:0.708661;stroke-linecap:round;stroke-linejoin:round;stroke:rgb(18.431373%,30.980392%,30.980392%);stroke-opacity:1;stroke-miterlimit:10;" d="M 692.96875 71.058594 C 692.96875 74.789062 689.945312 77.8125 686.210938 77.8125 C 682.480469 77.8125 679.457031 74.789062 679.457031 71.058594 C 679.457031 67.328125 682.480469 64.300781 686.210938 64.300781 C 689.945312 64.300781 692.96875 67.328125 692.96875 71.058594 "/>
<path style="fill-rule:nonzero;fill:rgb(18.431373%,30.980392%,30.980392%);fill-opacity:1;stroke-width:0.708661;stroke-linecap:round;stroke-linejoin:round;stroke:rgb(18.431373%,30.980392%,30.980392%);stroke-opacity:1;stroke-miterlimit:10;" d="M 699.949219 66.742188 C 699.949219 70.472656 696.921875 73.5 693.191406 73.5 C 689.460938 73.5 686.433594 70.472656 686.433594 66.742188 C 686.433594 63.011719 689.460938 59.988281 693.191406 59.988281 C 696.921875 59.988281 699.949219 63.011719 699.949219 66.742188 "/>
<path style="fill-rule:nonzero;fill:rgb(18.431373%,30.980392%,30.980392%);fill-opacity:1;stroke-width:0.708661;stroke-linecap:round;stroke-linejoin:round;stroke:rgb(18.431373%,30.980392%,30.980392%);stroke-opacity:1;stroke-miterlimit:10;" d="M 706.925781 54.878906 C 706.925781 58.609375 703.902344 61.632812 700.171875 61.632812 C 696.4375 61.632812 693.414062 58.609375 693.414062 54.878906 C 693.414062 51.148438 696.4375 48.121094 700.171875 48.121094 C 703.902344 48.121094 706.925781 51.148438 706.925781 54.878906 "/>
<path style="fill-rule:nonzero;fill:rgb(18.431373%,30.980392%,30.980392%);fill-opacity:1;stroke-width:0.708661;stroke-linecap:round;stroke-linejoin:round;stroke:rgb(18.431373%,30.980392%,30.980392%);stroke-opacity:1;stroke-miterlimit:10;" d="M 713.90625 35.53125 C 713.90625 39.265625 710.878906 42.289062 707.148438 42.289062 C 703.417969 42.289062 700.394531 39.265625 700.394531 35.53125 C 700.394531 31.800781 703.417969 28.777344 707.148438 28.777344 C 710.878906 28.777344 713.90625 31.800781 713.90625 35.53125 "/>
<path style="fill-rule:nonzero;fill:rgb(18.431373%,30.980392%,30.980392%);fill-opacity:1;stroke-width:0.708661;stroke-linecap:round;stroke-linejoin:round;stroke:rgb(18.431373%,30.980392%,30.980392%);stroke-opacity:1;stroke-miterlimit:10;" d="M 720.882812 22.566406 C 720.882812 26.296875 717.859375 29.320312 714.128906 29.320312 C 710.394531 29.320312 707.371094 26.296875 707.371094 22.566406 C 707.371094 18.835938 710.394531 15.808594 714.128906 15.808594 C 717.859375 15.808594 720.882812 18.835938 720.882812 22.566406 "/>
<path style="fill-rule:nonzero;fill:rgb(18.431373%,30.980392%,30.980392%);fill-opacity:1;stroke-width:0.708661;stroke-linecap:round;stroke-linejoin:round;stroke:rgb(18.431373%,30.980392%,30.980392%);stroke-opacity:1;stroke-miterlimit:10;" d="M 727.863281 16.894531 C 727.863281 20.625 724.835938 23.648438 721.105469 23.648438 C 717.375 23.648438 714.351562 20.625 714.351562 16.894531 C 714.351562 13.164062 717.375 10.136719 721.105469 10.136719 C 724.835938 10.136719 727.863281 13.164062 727.863281 16.894531 "/>
<path style="fill:none;stroke-width:6.40187;stroke-linecap:butt;stroke-linejoin:round;stroke:rgb(94.117647%,50.196078%,50.196078%);stroke-opacity:1;stroke-miterlimit:10;" d="M 23.234375 229.785156 L 32.066406 229.722656 L 40.902344 229.664062 L 49.734375 229.605469 L 58.570312 229.546875 L 67.402344 229.488281 L 76.238281 229.429688 L 85.070312 229.371094 L 93.902344 229.308594 L 102.738281 229.25 L 111.570312 229.191406 L 120.40625 229.132812 L 129.238281 229.074219 L 138.074219 229.015625 L 146.90625 228.953125 L 155.742188 228.894531 L 164.574219 228.835938 L 173.410156 228.777344 L 182.242188 228.71875 L 191.078125 228.660156 L 199.910156 228.601562 L 208.742188 228.539062 L 217.578125 228.480469 L 226.410156 228.421875 L 235.246094 228.363281 L 244.078125 228.304688 L 252.914062 228.246094 L 261.746094 228.183594 L 270.582031 228.125 L 279.414062 228.066406 L 288.25 228.007812 L 297.082031 227.949219 L 305.917969 227.890625 L 314.75 227.832031 L 323.582031 227.769531 L 332.417969 227.710938 L 341.25 227.652344 L 350.085938 227.59375 L 358.917969 227.535156 L 367.753906 227.476562 L 376.585938 227.414062 L 385.421875 227.355469 L 394.253906 227.296875 L 403.089844 227.238281 L 411.921875 227.179688 L 420.757812 227.121094 L 429.589844 227.0625 L 438.421875 227 L 447.257812 226.941406 L 456.089844 226.882812 L 464.925781 226.824219 L 473.757812 226.765625 L 482.59375 226.707031 L 491.425781 226.644531 L 500.261719 226.585938 L 509.09375 226.527344 L 517.929688 226.46875 L 526.761719 226.410156 L 535.597656 226.351562 L 544.429688 226.289062 L 553.261719 226.230469 L 562.097656 226.171875 L 570.929688 226.113281 L 579.765625 226.054688 L 588.597656 225.996094 L 597.433594 225.9375 L 606.265625 225.875 L 615.101562 225.816406 L 623.933594 225.757812 L 632.769531 225.699219 L 641.601562 225.640625 L 650.4375 225.582031 L 659.269531 225.519531 L 668.101562 225.460938 L 676.9375 225.402344 L 685.769531 225.34375 L 694.605469 225.285156 L 703.4375 225.226562 L 712.273438 225.167969 L 721.105469 225.105469 "/>
</g>
</svg>
